<?xml version="1.0" standalone="no"?>
<!DOCTYPE svg PUBLIC "-//W3C//DTD SVG 1.1//EN" "http://www.w3.org/Graphics/SVG/1.1/DTD/svg11.dtd" >
<svg xmlns="http://www.w3.org/2000/svg" xmlns:xlink="http://www.w3.org/1999/xlink" version="1.1">
<metadata>
Created by FontForge 20170731 at Mon Mar 25 10:51:02 2013
 By Aleksey,,,
Copyright (c) 2013 Type-O-Tones. v1.0 by Jose M. Uros. Barcelona. All rights reserved.
</metadata>
<defs>
<font id="Arboria-Medium" horiz-adv-x="575" >
  <font-face 
    font-family="Arboria-Medium"
    font-weight="400"
    font-stretch="normal"
    units-per-em="1000"
    panose-1="2 0 5 6 2 0 0 2 0 4"
    ascent="800"
    descent="-200"
    x-height="495"
    cap-height="648"
    bbox="-42 -235 1214 1008"
    underline-thickness="36"
    underline-position="-112"
    unicode-range="U+0020-FB02"
  />
<missing-glyph horiz-adv-x="280" 
 />
    <glyph glyph-name="fi" unicode="fi" horiz-adv-x="556" 
d="M70 0v404h-78v91h79v33q0 46 15 80t39 51t48 24.5t47 7.5q41 0 73.5 -10.5t44.5 -20.5l12 -10l-44 -75q-38 23 -68 23q-57 0 -57 -75v-28h137v-91h-137v-404h-111zM383 0v495h111v-495h-111zM372 625q0 28 19.5 47.5t47.5 19.5t48 -19.5t20 -47.5t-20 -48t-48 -20
t-47.5 20t-19.5 48z" />
    <glyph glyph-name="fl" unicode="fl" horiz-adv-x="556" 
d="M70 0v404h-78v91h79v33q0 46 15 80t39 51t48 24.5t47 7.5q41 0 73.5 -10.5t44.5 -20.5l12 -10l-44 -75q-38 23 -68 23q-57 0 -57 -75v-28h137v-91h-137v-404h-111zM383 0v658h111v-658h-111z" />
    <glyph glyph-name=".notdef" horiz-adv-x="280" 
 />
    <glyph glyph-name=".null" horiz-adv-x="0" 
 />
    <glyph glyph-name="nonmarkingreturn" horiz-adv-x="333" 
 />
    <glyph glyph-name="space" unicode=" " horiz-adv-x="265" 
 />
    <glyph glyph-name="exclam" unicode="!" horiz-adv-x="251" 
d="M56 60q0 28 20.5 48.5t48.5 20.5q29 0 49.5 -20t20.5 -49t-20.5 -49.5t-49.5 -20.5q-28 0 -48.5 20.5t-20.5 49.5zM78 193l-10 455h114l-10 -455h-94z" />
    <glyph glyph-name="quotedbl" unicode="&#x22;" horiz-adv-x="399" 
d="M73 394v254h88v-254h-88zM237 394v254h88v-254h-88z" />
    <glyph glyph-name="numbersign" unicode="#" 
d="M76 0l44 182h-77l18 74h76l39 160h-76l17 74h77l38 158h82l-38 -158h103l38 158h79l-38 -158h73l-17 -74h-74l-38 -160h73l-18 -74h-73l-44 -182h-79l44 182h-103l-44 -182h-82zM220 256h102l39 160h-103z" />
    <glyph glyph-name="dollar" unicode="$" 
d="M39 93l42 85q80 -75 195 -75q52 0 89 26t37 65q0 21 -10 36.5t-30 25.5t-37.5 15.5t-44.5 11.5q-37 9 -62.5 16.5t-56.5 22.5t-50 33t-32 46t-13 64q0 72 48 116.5t120 55.5v114h89v-114q87 -9 161 -67l-43 -85q-81 57 -163 57q-39 0 -69.5 -21t-30.5 -53q0 -35 28 -53.5
t83 -30.5q104 -23 165 -66t61 -124q0 -79 -54.5 -127t-137.5 -59v-126h-89v124q-118 10 -195 87z" />
    <glyph glyph-name="percent" unicode="%" horiz-adv-x="888" 
d="M131 459q0 -53 20.5 -87.5t55.5 -34.5q34 0 55.5 34.5t21.5 87.5t-21.5 88t-55.5 35q-35 0 -55.5 -34.5t-20.5 -88.5zM50 459q0 88 44 143.5t113 55.5t113 -55.5t44 -143.5q0 -87 -44 -142.5t-113 -55.5t-113 55.5t-44 142.5zM605 189q0 -54 21 -88t56 -34q34 0 55 34.5
t21 87.5t-21 87.5t-55 34.5q-35 0 -56 -34t-21 -88zM524 189q0 87 44.5 142.5t113.5 55.5t112.5 -55t43.5 -143t-43.5 -143t-112.5 -55t-113.5 55.5t-44.5 142.5zM223 20l397 660l55 -32l-397 -660z" />
    <glyph glyph-name="ampersand" unicode="&#x26;" horiz-adv-x="598" 
d="M31 188q0 50 27.5 97t81.5 81q-41 65 -41 122q0 66 48 118t136 52q126 0 182 -125l-91 -58q-13 36 -38 59.5t-51 23.5q-32 0 -52 -20.5t-20 -49.5q0 -63 94 -158l127 -128q19 30 19 75h105q0 -44 -12.5 -86.5t-31.5 -65.5l68 -68l-69 -70l-68 66q-83 -63 -192 -63
q-93 0 -157.5 51t-64.5 147zM143 195q0 -44 34 -72.5t87 -28.5q54 0 103 31l-166 164q-58 -36 -58 -94z" />
    <glyph glyph-name="quotesingle" unicode="'" horiz-adv-x="235" 
d="M73 394v254h88v-254h-88z" />
    <glyph glyph-name="parenleft" unicode="(" horiz-adv-x="336" 
d="M56 285q0 245 181 396l62 -68q-131 -143 -131 -328t131 -328l-62 -68q-181 151 -181 396z" />
    <glyph glyph-name="parenright" unicode=")" horiz-adv-x="336" 
d="M38 -43q130 142 130 328t-130 328l61 68q181 -151 181 -396t-181 -396z" />
    <glyph glyph-name="asterisk" unicode="*" horiz-adv-x="419" 
d="M173 296l4 125l-107 -66l-35 60l115 59l-115 61l35 60l108 -67l-5 126h74l-5 -126l108 67l34 -60l-115 -61l115 -59l-34 -60l-108 67l4 -126h-73z" />
    <glyph glyph-name="plus" unicode="+" 
d="M238 52v177h-180v90h180v179h98v-179h181v-90h-181v-177h-98z" />
    <glyph glyph-name="comma" unicode="," horiz-adv-x="252" 
d="M39 -137l55 254h104l-85 -254h-74z" />
    <glyph glyph-name="hyphen" unicode="-" horiz-adv-x="464" 
d="M30 197v91h404v-91h-404z" />
    <glyph glyph-name="period" unicode="." horiz-adv-x="252" 
d="M56 59q0 29 20 49.5t49 20.5t49.5 -20.5t20.5 -49.5q0 -28 -20.5 -48.5t-49.5 -20.5t-49 20t-20 49z" />
    <glyph glyph-name="slash" unicode="/" horiz-adv-x="520" 
d="M12 -19l428 712h103l-428 -712h-103z" />
    <glyph glyph-name="zero" unicode="0" 
d="M153 324q0 -105 36 -169.5t99 -64.5t98.5 64.5t35.5 169.5t-35.5 169.5t-98.5 64.5t-99 -64.5t-36 -169.5zM35 324q0 147 70.5 240.5t182.5 93.5q111 0 181.5 -93.5t70.5 -240.5t-70.5 -240.5t-181.5 -93.5q-112 0 -182.5 93.5t-70.5 240.5z" />
    <glyph glyph-name="one" unicode="1" 
d="M89 0v100h164v403l-130 -89l-51 79l193 155h98v-548h152v-100h-426z" />
    <glyph glyph-name="two" unicode="2" 
d="M50 0v73q189 164 259.5 244.5t70.5 138.5q0 44 -29 73t-81 29q-71 0 -150 -74l-60 72q90 102 219 102q95 0 157 -53.5t62 -139.5q0 -88 -81 -185t-194 -180h295v-100h-468z" />
    <glyph glyph-name="three" unicode="3" 
d="M48 69l56 78q59 -58 151 -58q69 0 110.5 34.5t41.5 87.5q0 45 -38.5 76t-101.5 31q-53 0 -93 -24l-44 74l204 180h-258v100h415v-97l-167 -147q87 -6 144 -58t57 -136q0 -104 -73.5 -162t-187.5 -58q-137 0 -216 79z" />
    <glyph glyph-name="four" unicode="4" 
d="M349 0v130h-312v78l265 448l95 -54l-223 -372h175v148h111v-148h80v-100h-80v-130h-111z" />
    <glyph glyph-name="five" unicode="5" 
d="M63 58l41 84q28 -21 72 -37t86 -16q67 0 104.5 35t37.5 84q0 57 -43 88.5t-110 31.5q-62 0 -124 -37l-45 39v318h406v-100h-295v-141q45 15 90 15q104 0 171.5 -56t67.5 -154t-70 -160t-188 -62q-120 0 -201 68z" />
    <glyph glyph-name="six" unicode="6" 
d="M48 216q0 90 57 165l211 277l89 -65l-126 -159q24 3 26 3q96 0 158.5 -62.5t62.5 -153.5q0 -99 -64.5 -165t-174.5 -66q-111 0 -175 64t-64 162zM166 218q0 -56 32.5 -92.5t88.5 -36.5q54 0 87.5 37t33.5 92q0 53 -34 89t-87 36q-54 0 -87.5 -36t-33.5 -89z" />
    <glyph glyph-name="seven" unicode="7" 
d="M144 0l275 548h-353v100h481v-73l-282 -575h-121z" />
    <glyph glyph-name="eight" unicode="8" 
d="M43 193q0 113 107 163q-63 46 -63 131q0 75 55 123t146 48q90 0 145 -48t55 -123q0 -85 -64 -131q51 -23 79.5 -65.5t28.5 -97.5q0 -90 -66.5 -146.5t-177.5 -56.5t-178 56.5t-67 146.5zM161 199q0 -47 34.5 -78.5t92.5 -31.5q57 0 91.5 31.5t34.5 78.5q0 45 -34 77.5
t-92 32.5q-59 0 -93 -32.5t-34 -77.5zM192 479q0 -36 25.5 -61.5t70.5 -25.5q44 0 69.5 25.5t25.5 61.5q0 37 -25.5 61.5t-69.5 24.5t-70 -24.5t-26 -61.5z" />
    <glyph glyph-name="nine" unicode="9" 
d="M169 55l125 159q-6 -3 -25 -3q-96 0 -158.5 62.5t-62.5 153.5q0 99 64.5 165t175.5 66t174.5 -64t63.5 -162q0 -90 -57 -165l-211 -277zM166 431q0 -53 34.5 -89.5t87.5 -36.5t86.5 36.5t33.5 89.5q0 55 -32.5 91.5t-87.5 36.5t-88.5 -37t-33.5 -91z" />
    <glyph glyph-name="colon" unicode=":" horiz-adv-x="252" 
d="M56 419q0 29 20 49t49 20t49.5 -20.5t20.5 -48.5q0 -29 -20.5 -49.5t-49.5 -20.5q-28 0 -48.5 20.5t-20.5 49.5zM56 59q0 29 20 49.5t49 20.5t49.5 -20.5t20.5 -49.5q0 -28 -20.5 -48.5t-49.5 -20.5t-49 20t-20 49z" />
    <glyph glyph-name="semicolon" unicode=";" horiz-adv-x="260" 
d="M64 419q0 29 20 49t49 20t49.5 -20.5t20.5 -48.5q0 -29 -20.5 -49.5t-49.5 -20.5q-28 0 -48.5 20.5t-20.5 49.5zM39 -137l55 254h104l-85 -254h-74z" />
    <glyph glyph-name="less" unicode="&#x3c;" 
d="M62 241v67l451 193v-104l-304 -123l304 -122v-104z" />
    <glyph glyph-name="equal" unicode="=" 
d="M58 144v90h459v-90h-459zM58 322v91h459v-91h-459z" />
    <glyph glyph-name="greater" unicode="&#x3e;" 
d="M62 48v104l304 122l-304 123v104l451 -193v-67z" />
    <glyph glyph-name="question" unicode="?" horiz-adv-x="476" 
d="M165 193l-13 137q79 0 122.5 34t43.5 88q0 40 -30 69.5t-74 29.5q-74 0 -106 -68l-91 42q24 63 77 98t125 35q96 0 154 -59.5t58 -146.5q0 -72 -45 -125t-114 -66l-10 -68h-97zM144 58q0 29 20 49.5t49 20.5t49.5 -20.5t20.5 -49.5t-20.5 -49t-49.5 -20t-49 20t-20 49z
" />
    <glyph glyph-name="at" unicode="@" horiz-adv-x="921" 
d="M70 245q0 163 117 278t281 115q158 0 270.5 -100.5t112.5 -251.5q0 -106 -45 -170t-115 -64q-76 0 -102 67q-48 -76 -151 -76q-72 0 -127 59.5t-55 141.5q0 81 55 140t127 59q81 0 133 -58v49h80v-235q0 -30 10.5 -52t34.5 -22q33 0 56.5 44.5t23.5 116.5
q0 123 -85.5 202.5t-222.5 79.5q-131 0 -224 -95t-93 -228q0 -142 91.5 -229.5t223.5 -87.5q84 0 160 37l33 -63q-85 -43 -194 -43q-165 0 -280 107t-115 279zM338 244q0 -52 35 -90t85 -38t81.5 35.5t31.5 92.5q0 59 -31 92.5t-82 33.5t-85.5 -37.5t-34.5 -88.5z" />
    <glyph glyph-name="A" unicode="A" horiz-adv-x="706" 
d="M6 0l292 648h110l292 -648h-118l-51 112h-356l-51 -112h-118zM215 204h276l-76 164q-13 28 -28.5 67t-24.5 63l-9 25q-32 -90 -62 -155z" />
    <glyph glyph-name="B" unicode="B" horiz-adv-x="674" 
d="M72 0v648h302q86 0 140 -41.5t54 -122.5q0 -37 -20 -69.5t-48 -46.5q56 -12 92.5 -58t36.5 -108q0 -97 -67 -149.5t-179 -52.5h-311zM188 100h187q62 0 97.5 25.5t35.5 74.5q0 50 -32.5 77t-89.5 27h-198v-204zM188 403h180q37 0 58 19t21 52q0 34 -21.5 54t-62.5 20
h-175v-145z" />
    <glyph glyph-name="C" unicode="C" horiz-adv-x="634" 
d="M42 324q0 140 97.5 237t243.5 97q128 0 218 -76l-67 -78q-63 49 -143 49q-99 0 -163.5 -67t-64.5 -162t63.5 -162.5t157.5 -67.5q97 0 163 64l71 -80q-97 -89 -235 -89q-146 0 -243.5 97t-97.5 238z" />
    <glyph glyph-name="D" unicode="D" horiz-adv-x="712" 
d="M188 100h133q102 0 165 63t63 161t-63 161t-165 63h-133v-448zM72 0v648h254q154 0 249 -93.5t95 -230.5t-95 -230.5t-249 -93.5h-254z" />
    <glyph glyph-name="E" unicode="E" horiz-adv-x="621" 
d="M72 0v648h503v-100h-387v-158h365v-99h-365v-191h401v-100h-517z" />
    <glyph glyph-name="F" unicode="F" horiz-adv-x="561" 
d="M72 0v648h477v-100h-361v-158h305v-99h-305v-291h-116z" />
    <glyph glyph-name="G" unicode="G" horiz-adv-x="725" 
d="M42 324q0 140 97.5 237t243.5 97q126 0 222 -78l-69 -79q-62 52 -152 52q-94 0 -157.5 -67t-63.5 -162t63.5 -162t157.5 -67q103 0 167 79v112h-119v97h231v-253q-44 -65 -118 -102.5t-162 -37.5q-146 0 -243.5 96.5t-97.5 237.5z" />
    <glyph glyph-name="H" unicode="H" horiz-adv-x="693" 
d="M72 0v648h116v-259h316v259h116v-648h-116v290h-316v-290h-116z" />
    <glyph glyph-name="I" unicode="I" horiz-adv-x="260" 
d="M72 0v648h116v-648h-116z" />
    <glyph glyph-name="J" unicode="J" horiz-adv-x="566" 
d="M22 121l84 64q50 -89 138 -89q65 0 104 41t39 126v385h116v-383q0 -140 -71.5 -207.5t-184.5 -67.5q-74 0 -134 33.5t-91 97.5z" />
    <glyph glyph-name="K" unicode="K" horiz-adv-x="662" 
d="M72 0v648h116v-383q42 60 70 94l232 289h137l-239 -303l264 -345h-136l-201 265l-127 -153v-112h-116z" />
    <glyph glyph-name="L" unicode="L" horiz-adv-x="609" 
d="M72 0v648h116v-548h388v-100h-504z" />
    <glyph glyph-name="M" unicode="M" horiz-adv-x="819" 
d="M72 0v648h101l90 -126l147 -208l146 207l90 127h101v-648h-116v450q-20 -36 -62 -97l-159 -228l-161 230l-61 95v-450h-116z" />
    <glyph glyph-name="N" unicode="N" horiz-adv-x="709" 
d="M72 0v648h118l232 -318q20 -28 45 -66.5t39 -62.5l15 -24v471h116v-648h-120l-221 302q-25 34 -52 75.5t-42 65.5l-14 24v-467h-116z" />
    <glyph glyph-name="O" unicode="O" horiz-adv-x="766" 
d="M384 94q93 0 156 67.5t63 162.5t-63 162t-156 67q-94 0 -157.5 -67t-63.5 -162t63.5 -162.5t157.5 -67.5zM383 658q146 0 243.5 -97t97.5 -237q0 -141 -97.5 -238t-243.5 -97t-243.5 97t-97.5 238q0 140 97.5 237t243.5 97z" />
    <glyph glyph-name="P" unicode="P" horiz-adv-x="677" 
d="M72 0v648h273q134 0 209.5 -70t75.5 -177t-75.5 -177t-210.5 -70h-156v-154h-116zM188 254h164q71 0 114 42t43 105q0 62 -43 104.5t-113 42.5h-165v-294z" />
    <glyph glyph-name="Q" unicode="Q" horiz-adv-x="766" 
d="M383 658q146 0 243.5 -97t97.5 -237q0 -115 -69 -205l52 -52l-73 -74l-55 54q-86 -58 -196 -58q-146 0 -243.5 97t-97.5 238q0 140 97.5 237t243.5 97zM384 94q63 0 115 33l-87 87l74 74l85 -85q32 56 32 121q0 95 -63 162t-156 67q-94 0 -157.5 -67t-63.5 -162
t63.5 -162.5t157.5 -67.5z" />
    <glyph glyph-name="R" unicode="R" horiz-adv-x="677" 
d="M72 0v648h272q138 0 212 -69.5t74 -177.5q0 -67 -35 -125t-98 -87l142 -189h-142l-113 156q-29 -2 -103 -2h-93v-154h-116zM188 254h163q72 0 115 42t43 105t-43 105t-114 42h-164v-294z" />
    <glyph glyph-name="S" unicode="S" horiz-adv-x="606" 
d="M42 83l45 88q94 -76 215 -76q56 0 98 25t42 67q0 28 -22 47.5t-45 27.5t-66 18t-72 18.5t-64 25t-56 35.5t-35.5 49t-14.5 67q0 86 69 134.5t166 48.5q127 0 230 -70l-45 -89q-85 54 -185 54q-25 0 -50 -6.5t-46 -25t-21 -45.5q0 -35 32.5 -53t103.5 -35q53 -12 91 -26.5
t75 -37t56.5 -57.5t19.5 -80q0 -95 -78 -146t-184 -51q-159 0 -259 93z" />
    <glyph glyph-name="T" unicode="T" horiz-adv-x="612" 
d="M248 0v548h-228v100h572v-100h-228v-548h-116z" />
    <glyph glyph-name="U" unicode="U" horiz-adv-x="673" 
d="M336 -10q-115 0 -194.5 73t-79.5 190v395h116v-391q0 -71 46 -116.5t112 -45.5t112 45.5t46 116.5v391h116v-395q0 -117 -79.5 -190t-194.5 -73z" />
    <glyph glyph-name="V" unicode="V" horiz-adv-x="669" 
d="M278 -1l-268 649h118l155 -370l51 -145q32 98 51 145l155 370h119l-268 -649h-113z" />
    <glyph glyph-name="W" unicode="W" horiz-adv-x="940" 
d="M216 -1l-206 649h116l123 -390l30 -108l27 108l102 390h124l102 -390l26 -108q15 56 31 108l123 390h116l-207 -649h-123l-104 375q-7 25 -13.5 57t-9.5 51l-3 20q-11 -72 -26 -128l-104 -375h-124z" />
    <glyph glyph-name="X" unicode="X" horiz-adv-x="621" 
d="M10 0l235 324l-230 324h132l98 -132l65 -104q50 79 68 104l96 132h133l-231 -324l235 -324h-134l-100 138l-67 98q-50 -77 -66 -99l-100 -137h-134z" />
    <glyph glyph-name="Y" unicode="Y" horiz-adv-x="636" 
d="M261 0v299l-251 349h133l98 -132l78 -118q52 80 79 118l95 132h133l-249 -348v-300h-116z" />
    <glyph glyph-name="Z" unicode="Z" horiz-adv-x="602" 
d="M32 0v88l322 391q16 20 32 37.5t24 24.5l8 7h-369v100h511v-89l-311 -378l-72 -81h393v-100h-538z" />
    <glyph glyph-name="bracketleft" unicode="[" horiz-adv-x="309" 
d="M56 -99v793h217v-77h-106v-639h106v-77h-217z" />
    <glyph glyph-name="backslash" unicode="\" horiz-adv-x="596" 
d="M490 -19l-496 712h104l497 -712h-105z" />
    <glyph glyph-name="bracketright" unicode="]" horiz-adv-x="309" 
d="M36 -99v77h106v639h-106v77h217v-793h-217z" />
    <glyph glyph-name="asciicircum" unicode="^" horiz-adv-x="568" 
d="M56 309l195 339h65l195 -339h-101l-126 205l-126 -205h-102z" />
    <glyph glyph-name="underscore" unicode="_" horiz-adv-x="487" 
d="M-3 -136v62h493v-62h-493z" />
    <glyph glyph-name="grave" unicode="`" horiz-adv-x="375" 
d="M200 567l-104 147h114l88 -147h-98z" />
    <glyph glyph-name="a" unicode="a" horiz-adv-x="604" 
d="M37 247q0 109 65.5 183.5t167.5 74.5q101 0 161 -88v78h111v-495h-111v77q-59 -87 -161 -87t-167.5 74.5t-65.5 182.5zM150 247q0 -65 40.5 -107.5t103.5 -42.5q59 0 98 42t39 108q0 65 -39 108t-98 43q-63 0 -103.5 -43t-40.5 -108z" />
    <glyph glyph-name="b" unicode="b" horiz-adv-x="599" 
d="M62 0v658h111v-241q26 42 67.5 65t88.5 23q102 0 167.5 -74.5t65.5 -183.5q0 -108 -65.5 -182.5t-167.5 -74.5q-48 0 -89 22.5t-67 64.5v-77h-111zM173 247q0 -65 38.5 -107.5t98.5 -42.5q61 0 100 42.5t39 107.5t-39 108t-100 43q-60 0 -98.5 -43t-38.5 -108z" />
    <glyph glyph-name="c" unicode="c" horiz-adv-x="506" 
d="M37 247q0 107 77 182.5t186 75.5q102 0 177 -64l-69 -79q-39 36 -106 36q-64 0 -108 -43.5t-44 -107.5q0 -63 43 -106.5t112 -43.5q75 0 121 43l61 -84q-77 -66 -187 -66q-109 0 -186 75t-77 182z" />
    <glyph glyph-name="d" unicode="d" horiz-adv-x="599" 
d="M37 247q0 109 65.5 183.5t167.5 74.5q47 0 88.5 -23t67.5 -65v241h111v-658h-111v77q-26 -42 -67 -64.5t-89 -22.5q-102 0 -167.5 74.5t-65.5 182.5zM150 247q0 -65 39 -107.5t100 -42.5q59 0 98 42t39 108q0 65 -38.5 108t-98.5 43q-61 0 -100 -43t-39 -108z" />
    <glyph glyph-name="e" unicode="e" horiz-adv-x="568" 
d="M151 290h271q-8 53 -46 85.5t-90 32.5q-48 0 -86 -32.5t-49 -85.5zM37 247q0 107 74 182.5t181 75.5q99 0 168.5 -74.5t69.5 -179.5l-3 -43h-375q12 -57 54 -88.5t100 -31.5q81 0 142 43l44 -82q-87 -59 -188 -59q-111 0 -189 69.5t-78 187.5z" />
    <glyph glyph-name="f" unicode="f" horiz-adv-x="321" 
d="M70 0v404h-78v91h79v33q0 46 15 80t39 51t48 24.5t47 7.5q41 0 73.5 -10.5t44.5 -20.5l12 -10l-44 -75q-38 23 -68 23q-57 0 -57 -75v-28h137v-91h-137v-404h-111z" />
    <glyph glyph-name="g" unicode="g" horiz-adv-x="599" 
d="M37 270q0 100 65.5 167.5t167.5 67.5q47 0 88.5 -21t67.5 -58v69h111v-384q0 -66 -24 -117.5t-62.5 -81t-82.5 -44.5t-89 -15q-124 0 -202 68l49 74q60 -54 148 -54q15 0 32.5 3.5t39.5 14t39 26t29 42t12 59.5v20q-55 -78 -156 -78q-102 0 -167.5 69.5t-65.5 172.5z
M150 266q0 -61 37.5 -98.5t96.5 -37.5t96 37.5t37 98.5q0 59 -37.5 97.5t-95.5 38.5t-96 -38.5t-38 -97.5z" />
    <glyph glyph-name="h" unicode="h" horiz-adv-x="563" 
d="M62 0v658h111v-234q53 81 159 81q178 0 178 -221v-284h-111v270q0 65 -22.5 96.5t-81.5 31.5q-56 0 -89 -39t-33 -99v-260h-111z" />
    <glyph glyph-name="i" unicode="i" horiz-adv-x="235" 
d="M62 0v495h111v-495h-111zM51 625q0 28 19.5 47.5t47.5 19.5t48 -19.5t20 -47.5t-20 -48t-48 -20t-47.5 20t-19.5 48z" />
    <glyph glyph-name="j" unicode="j" horiz-adv-x="235" 
d="M18 -176l-38 82q82 45 82 171v418h111v-403q0 -194 -155 -268zM51 625q0 28 19.5 47.5t47.5 19.5t48 -19.5t20 -47.5t-20 -48t-48 -20t-47.5 20t-19.5 48z" />
    <glyph glyph-name="k" unicode="k" horiz-adv-x="546" 
d="M62 0v658h111v-396l195 233h137l-195 -221l231 -274h-135l-163 197l-70 -83v-114h-111z" />
    <glyph glyph-name="l" unicode="l" horiz-adv-x="235" 
d="M62 0v658h111v-658h-111z" />
    <glyph glyph-name="m" unicode="m" horiz-adv-x="876" 
d="M62 0v495h111v-73q20 36 60 59.5t85 23.5q115 0 156 -94q24 42 70 68t92 26q188 0 188 -220v-285h-111v270q0 61 -21 94.5t-81 33.5q-52 0 -82 -35.5t-30 -87.5v-275h-111v270q0 61 -21 94.5t-81 33.5q-53 0 -83 -38t-30 -92v-268h-111z" />
    <glyph glyph-name="n" unicode="n" horiz-adv-x="564" 
d="M62 0v495h111v-71q54 81 160 81q96 0 137 -57.5t41 -163.5v-284h-111v270q0 66 -21 97t-80 31q-55 0 -90.5 -39t-35.5 -100v-259h-111z" />
    <glyph glyph-name="o" unicode="o" horiz-adv-x="600" 
d="M37 247q0 107 77 182.5t186 75.5t186 -75.5t77 -182.5q0 -106 -77 -181.5t-186 -75.5t-186 75.5t-77 181.5zM150 247q0 -63 44 -106.5t106 -43.5t106 43.5t44 106.5q0 62 -44 106.5t-106 44.5t-106 -44.5t-44 -106.5z" />
    <glyph glyph-name="p" unicode="p" horiz-adv-x="599" 
d="M62 -137v632h111v-78q26 42 67.5 65t88.5 23q102 0 167.5 -74.5t65.5 -183.5q0 -108 -65.5 -182.5t-167.5 -74.5q-48 0 -89 22.5t-67 64.5v-214h-111zM173 247q0 -65 38.5 -107.5t98.5 -42.5q61 0 100 42.5t39 107.5t-39 108t-100 43q-60 0 -98.5 -43t-38.5 -108z" />
    <glyph glyph-name="q" unicode="q" horiz-adv-x="599" 
d="M37 247q0 109 65.5 183.5t167.5 74.5q47 0 88.5 -23t67.5 -65v78h111v-632h-111v214q-26 -42 -67 -64.5t-89 -22.5q-102 0 -167.5 74.5t-65.5 182.5zM150 247q0 -65 39 -107.5t100 -42.5q60 0 98.5 42.5t38.5 107.5q0 66 -39 108.5t-98 42.5q-61 0 -100 -43t-39 -108z
" />
    <glyph glyph-name="r" unicode="r" horiz-adv-x="372" 
d="M62 0v495h111v-98q17 44 61.5 76t117.5 32v-121q-179 0 -179 -182v-202h-111z" />
    <glyph glyph-name="s" unicode="s" horiz-adv-x="484" 
d="M37 62l42 91q73 -59 157 -59q38 0 68 14t30 38q0 6 -1.5 11t-5.5 9.5t-7.5 8t-10.5 6.5t-12.5 5.5t-14.5 5t-14.5 4.5t-16 4.5t-16.5 4.5q-42 12 -68 21.5t-53 26.5t-40 42.5t-13 60.5q0 68 57 108.5t129 40.5q91 0 177 -51l-41 -90q-65 37 -135 37q-29 0 -51.5 -12
t-22.5 -31q0 -16 14 -26.5t28 -14.5t43 -10q84 -18 136 -54t52 -105q0 -79 -65 -118.5t-146 -39.5q-68 0 -119.5 22.5t-79.5 49.5z" />
    <glyph glyph-name="t" unicode="t" horiz-adv-x="371" 
d="M84 159v245h-73v91h73v97l111 23v-120h149v-91h-149v-248q0 -70 53 -70q17 0 35 6t27 12l10 6l33 -83q-57 -37 -119 -37q-150 0 -150 169z" />
    <glyph glyph-name="u" unicode="u" horiz-adv-x="561" 
d="M52 204v291h111v-271q0 -64 24 -95.5t81 -31.5q56 0 88 37t32 106v255h111v-495h-111v69q-55 -79 -153 -79q-96 0 -139.5 61t-43.5 153z" />
    <glyph glyph-name="v" unicode="v" horiz-adv-x="525" 
d="M209 -1l-204 496h111l103 -250q12 -28 23 -61.5t16 -52.5l5 -19q19 70 44 132l102 251h111l-204 -496h-107z" />
    <glyph glyph-name="w" unicode="w" horiz-adv-x="725" 
d="M168 -1l-163 496h108l88 -274q6 -18 10.5 -41t6.5 -38l2 -14q5 53 15 92l73 275h109l73 -275q4 -17 8 -40t6 -38l1 -14q6 53 19 93l88 274h108l-163 -496h-100l-77 275l-17 92q-7 -55 -17 -92l-78 -275h-100z" />
    <glyph glyph-name="x" unicode="x" horiz-adv-x="499" 
d="M9 0l172 251l-172 244h123l78 -113l40 -61q23 38 39 61l78 113h123l-172 -244l172 -251h-123l-74 108l-43 71q-23 -43 -43 -71l-75 -108h-123z" />
    <glyph glyph-name="y" unicode="y" horiz-adv-x="531" 
d="M102 -147v104q44 0 67.5 16t41.5 55l10 20l-214 447h114l119 -264l32 -78l32 83l107 259h112l-226 -517q-55 -125 -195 -125z" />
    <glyph glyph-name="z" unicode="z" horiz-adv-x="452" 
d="M22 0v82l191 237l71 78h-252v98h390v-82l-190 -231l-75 -84h273v-98h-408z" />
    <glyph glyph-name="braceleft" unicode="{" horiz-adv-x="417" 
d="M54 254v82h21q29 0 45.5 17.5t16.5 48.5v72q0 226 177 226h66v-85q-75 0 -104 -27.5t-29 -111.5v-69q0 -21 -5.5 -42.5t-26 -43.5t-53.5 -26q85 -17 85 -111v-69q0 -85 29 -112t104 -27v-85h-66q-177 0 -177 225v72q0 31 -16.5 48.5t-45.5 17.5h-21z" />
    <glyph glyph-name="bar" unicode="|" horiz-adv-x="237" 
d="M75 -189v927h85v-927h-85z" />
    <glyph glyph-name="braceright" unicode="}" horiz-adv-x="417" 
d="M36 -109v85q75 0 104 27t29 112v69q0 94 86 111q-47 6 -66.5 41.5t-19.5 70.5v69q0 84 -29 111.5t-104 27.5v85h67q177 0 177 -226v-72q0 -31 16 -48.5t46 -17.5h20v-82h-20q-30 0 -46 -17.5t-16 -48.5v-72q0 -225 -177 -225h-67z" />
    <glyph glyph-name="asciitilde" unicode="~" horiz-adv-x="558" 
d="M65 217q0 149 125 149q35 0 87.5 -26t70.5 -26q14 0 25 10.5t11 32.5h108q0 -150 -125 -150q-38 0 -90 26.5t-68 26.5q-14 0 -24.5 -10.5t-10.5 -32.5h-109z" />
    <glyph glyph-name="nbspace" unicode="&#xa0;" horiz-adv-x="648" 
 />
    <glyph glyph-name="exclamdown" unicode="&#xa1;" horiz-adv-x="251" 
d="M56 435q0 28 20.5 49t48.5 21q29 0 49.5 -20.5t20.5 -49.5t-20.5 -49t-49.5 -20q-28 0 -48.5 20.5t-20.5 48.5zM69 -170l9 455h95l9 -455h-113z" />
    <glyph glyph-name="cent" unicode="&#xa2;" 
d="M468 213l61 -85q-61 -50 -143 -62v-112h-82v111q-92 12 -158 83.5t-66 171.5q0 99 66.5 171t157.5 84v110h82v-111q72 -8 133 -60l-68 -79q-43 36 -106 36q-65 0 -109 -43.5t-44 -107.5q0 -63 43.5 -106.5t112.5 -43.5q75 0 120 43z" />
    <glyph glyph-name="sterling" unicode="&#xa3;" 
d="M54 0v89h73v195h-70v76h70v90q0 100 60 154t150 54q100 0 166 -59l-62 -79q-48 39 -101 39q-45 0 -73.5 -27.5t-28.5 -75.5v-96h177v-76h-177v-186h283v-98h-467z" />
    <glyph glyph-name="currency" unicode="&#xa4;" 
d="M103 53l-49 49l77 77q-35 46 -35 107q0 59 35 107l-77 78l50 49l78 -80q46 31 106 31q56 0 104 -32l80 81l49 -50l-78 -78q36 -49 36 -106q0 -58 -36 -107l78 -77l-49 -49l-79 79q-47 -31 -105 -31q-60 0 -107 31zM196 286q0 -39 27 -66.5t65 -27.5q37 0 63.5 27.5
t26.5 66.5t-26 66t-64 27t-65 -27t-27 -66z" />
    <glyph glyph-name="yen" unicode="&#xa5;" 
d="M232 0v114h-124v69h124v55h-123v69h123v12l-206 329h130l95 -162l37 -78q19 50 36 78l95 162h130l-206 -329v-12h124v-69h-124v-55h123v-69h-123v-114h-111z" />
    <glyph glyph-name="brokenbar" unicode="&#xa6;" horiz-adv-x="222" 
d="M68 384v420h85v-420h-85zM68 -190v481h85v-481h-85z" />
    <glyph glyph-name="section" unicode="&#xa7;" horiz-adv-x="531" 
d="M384 282q0 47 -57 69l-120 47q-17 7 -28 7q-15 0 -23.5 -14t-8.5 -32q0 -49 75 -77l68 -25q6 -2 20 -8t23.5 -9t18.5 -3q13 0 22.5 12.5t9.5 32.5zM60 48l43 83q73 -55 162 -55q31 0 56 9.5t25 30.5q0 4 -1 7.5t-3 6.5t-4 5.5t-7 5l-8 4t-9.5 3.5t-10.5 3.5t-13 4
t-14 4.5l-103 34q-70 23 -100.5 62.5t-30.5 98.5q0 31 15.5 59t40.5 43q-24 24 -24 66q0 64 56.5 99.5t132.5 35.5q105 0 193 -50l-40 -83q-83 37 -154 37q-30 0 -53.5 -9.5t-23.5 -30.5q0 -5 1.5 -9t5.5 -7.5t7 -6t11 -5.5t12.5 -4.5t16 -5.5t17.5 -6l98 -33
q135 -44 135 -163q0 -31 -17 -58.5t-43 -41.5q29 -22 29 -68q0 -68 -57.5 -101.5t-136.5 -33.5q-69 0 -122.5 22t-81.5 47z" />
    <glyph glyph-name="dieresis" unicode="&#xa8;" horiz-adv-x="375" 
d="M43 626q0 23 16.5 39.5t39.5 16.5t39.5 -16.5t16.5 -39.5t-16.5 -39.5t-39.5 -16.5t-39.5 16.5t-16.5 39.5zM221 626q0 23 16.5 39.5t39.5 16.5t39.5 -16.5t16.5 -39.5t-16.5 -39.5t-39.5 -16.5t-39.5 16.5t-16.5 39.5z" />
    <glyph glyph-name="copyright" unicode="&#xa9;" horiz-adv-x="748" 
d="M40 324q0 138 98.5 236t235.5 98q138 0 236 -98t98 -236t-98 -236t-236 -98q-137 0 -235.5 98t-98.5 236zM180 323q0 84 59 143.5t143 59.5q79 0 143 -61l-35 -36q-48 45 -107 45q-60 0 -103.5 -43.5t-43.5 -107.5q0 -65 44 -108t104 -43q66 0 119 59l35 -37
q-66 -73 -156 -73q-84 0 -143 59.5t-59 142.5zM91 324q0 -117 83 -201.5t200 -84.5t200 84.5t83 201.5t-83 201.5t-200 84.5t-200 -84.5t-83 -201.5z" />
    <glyph glyph-name="ordfeminine" unicode="&#xaa;" horiz-adv-x="374" 
d="M107 434q0 -17 14.5 -26t34.5 -9q46 0 69 20.5t23 40.5v18q-27 3 -50 3q-37 0 -64 -12t-27 -35zM24 427q0 60 51.5 88.5t122.5 28.5q17 0 43 -2q-9 47 -66 47q-22 0 -44.5 -6t-34.5 -12l-11 -6l-30 61q47 37 130 37q146 0 146 -162v-170h-83v32q-45 -39 -112 -39
q-49 0 -80.5 29t-31.5 74z" />
    <glyph glyph-name="guillemotleft" unicode="&#xab;" horiz-adv-x="491" 
d="M29 219v48l175 172l50 -51l-128 -144l128 -146l-50 -50zM234 219v48l175 172l50 -51l-129 -144l129 -146l-50 -50z" />
    <glyph glyph-name="logicalnot" unicode="&#xac;" 
d="M419 108v161h-361v90h459v-251h-98z" />
    <glyph glyph-name="registered" unicode="&#xae;" horiz-adv-x="748" 
d="M40 324q0 138 98.5 236t235.5 98q138 0 236 -98t98 -236t-98 -236t-236 -98q-137 0 -235.5 98t-98.5 236zM226 125v396h169q67 0 114 -47t47 -114q0 -90 -74 -137l73 -98h-68l-57 77q-18 -3 -35 -3h-115v-74h-54zM280 254h115q44 0 74.5 30.5t30.5 75.5q0 44 -30.5 76
t-74.5 32h-115v-214zM91 324q0 -117 83 -201.5t200 -84.5t200 84.5t83 201.5t-83 201.5t-200 84.5t-200 -84.5t-83 -201.5z" />
    <glyph glyph-name="macron" unicode="&#xaf;" horiz-adv-x="375" 
d="M77 566v81h221v-81h-221z" />
    <glyph glyph-name="degree" unicode="&#xb0;" horiz-adv-x="378" 
d="M30 505q0 65 46.5 111.5t110.5 46.5q65 0 111.5 -46.5t46.5 -111.5q0 -64 -47 -110.5t-111 -46.5t-110.5 46.5t-46.5 110.5zM112 505q0 -32 22 -56t53 -24q32 0 54 23.5t22 56.5t-22 56.5t-54 23.5q-31 0 -53 -23.5t-22 -56.5z" />
    <glyph glyph-name="plusminus" unicode="&#xb1;" 
d="M58 28v90h459v-90h-459zM58 312v90h180v143h98v-143h181v-90h-181v-141h-98v141h-180z" />
    <glyph glyph-name="twosuperior" unicode="&#xb2;" horiz-adv-x="401" 
d="M36 290v60q125 114 171 167.5t46 95.5q0 28 -18.5 45.5t-53.5 17.5q-53 0 -97 -53l-46 61q63 73 152 73q72 0 115 -38t43 -99q0 -63 -47.5 -121.5t-133.5 -128.5h193v-80h-324z" />
    <glyph glyph-name="threesuperior" unicode="&#xb3;" horiz-adv-x="424" 
d="M39 343l43 62q47 -41 110 -41q48 0 73 24.5t25 57.5q0 32 -23.5 53.5t-71.5 21.5q-33 0 -67 -22l-33 53l140 119h-179v80h303v-70l-115 -100h4q52 0 94.5 -38t42.5 -101q0 -67 -51 -112.5t-138 -45.5q-96 0 -157 59z" />
    <glyph glyph-name="acute" unicode="&#xb4;" horiz-adv-x="375" 
d="M76 567l89 147h114l-104 -147h-99z" />
    <glyph glyph-name="mu" unicode="&#xb5;" horiz-adv-x="563" 
d="M60 -137v632h110v-268q0 -129 95 -129q50 0 87.5 39t37.5 128v230h110v-221q0 -158 68 -229l-68 -75q-63 56 -73 103q-53 -82 -161 -82q-63 0 -96 37v-165h-110z" />
    <glyph glyph-name="paragraph" unicode="&#xb6;" horiz-adv-x="568" 
d="M259 0v257q-91 7 -150 57.5t-59 137.5q0 81 61.5 138.5t147.5 57.5h228v-648h-78v572h-72v-572h-78z" />
    <glyph glyph-name="periodcentered" unicode="&#xb7;" horiz-adv-x="184" 
d="M23 285q0 29 20.5 49.5t48.5 20.5t48.5 -20.5t20.5 -49.5t-20 -49t-49 -20t-49 20t-20 49z" />
    <glyph glyph-name="cedilla" unicode="&#xb8;" horiz-adv-x="375" 
d="M63 -187l27 45q41 -23 82 -23q27 0 44 14.5t17 31.5q0 28 -37 28q-32 0 -46 -27l-57 20l61 101h65l-31 -54q16 6 29 6q38 0 61.5 -21t23.5 -52q0 -40 -35 -69.5t-94 -29.5q-68 0 -110 30z" />
    <glyph glyph-name="onesuperior" unicode="&#xb9;" horiz-adv-x="349" 
d="M167 290v346l-96 -68l-38 60l155 123h68v-461h-89z" />
    <glyph glyph-name="ordmasculine" unicode="&#xba;" horiz-adv-x="393" 
d="M24 493q0 71 50.5 120.5t121.5 49.5q72 0 122.5 -49.5t50.5 -120.5q0 -70 -50.5 -119.5t-122.5 -49.5q-71 0 -121.5 49.5t-50.5 119.5zM108 493q0 -36 26 -62t62 -26q37 0 62.5 26t25.5 62q0 37 -25.5 63t-62.5 26q-36 0 -62 -26t-26 -63z" />
    <glyph glyph-name="guillemotright" unicode="&#xbb;" horiz-adv-x="491" 
d="M32 98l129 146l-129 144l51 51l174 -172v-48l-174 -171zM237 98l128 146l-128 144l50 51l175 -172v-48l-175 -171z" />
    <glyph glyph-name="onequarter" unicode="&#xbc;" horiz-adv-x="969" 
d="M168 190v346l-96 -68l-38 60l155 123h68v-461h-89zM255 20l397 660l55 -32l-397 -660zM758 0v95h-217v60l183 313l77 -36l-155 -256h112v91h89v-91h53v-81h-53v-95h-89z" />
    <glyph glyph-name="onehalf" unicode="&#xbd;" horiz-adv-x="1033" 
d="M168 190v346l-96 -68l-38 60l155 123h68v-461h-89zM278 20l397 660l55 -32l-397 -660zM660 0v60q125 114 171 167.5t46 95.5q0 28 -18.5 45.5t-53.5 17.5q-53 0 -97 -53l-46 61q63 73 152 73q72 0 115 -38t43 -99q0 -63 -47.5 -121.5t-133.5 -128.5h193v-80h-324z" />
    <glyph glyph-name="threequarters" unicode="&#xbe;" horiz-adv-x="1018" 
d="M325 20l397 660l55 -32l-397 -660zM830 0v95h-217v60l183 313l77 -36l-155 -256h112v91h89v-91h53v-81h-53v-95h-89zM39 243l43 62q47 -41 110 -41q48 0 73 24.5t25 57.5q0 32 -23.5 53.5t-71.5 21.5q-33 0 -67 -22l-33 53l140 119h-179v80h303v-70l-115 -100h4
q52 0 94.5 -38t42.5 -101q0 -67 -51 -112.5t-138 -45.5q-96 0 -157 59z" />
    <glyph glyph-name="questiondown" unicode="&#xbf;" horiz-adv-x="476" 
d="M45 43q0 72 45 125t114 66l10 68h97l13 -137q-80 0 -123 -34t-43 -89q0 -39 30.5 -68.5t73.5 -29.5q74 0 106 67l91 -42q-24 -62 -77 -97t-125 -35q-96 0 -154 59.5t-58 146.5zM193 436q0 29 20.5 49t49.5 20t49 -20t20 -49t-20.5 -49.5t-48.5 -20.5q-29 0 -49.5 20.5
t-20.5 49.5z" />
    <glyph glyph-name="Agrave" unicode="&#xc0;" horiz-adv-x="706" 
d="M6 0l292 648h110l292 -648h-118l-51 112h-356l-51 -112h-118zM215 204h276l-76 164q-13 28 -28.5 67t-24.5 63l-9 25q-32 -90 -62 -155zM305 693l-104 147h114l88 -147h-98z" />
    <glyph glyph-name="Aacute" unicode="&#xc1;" horiz-adv-x="706" 
d="M6 0l292 648h110l292 -648h-118l-51 112h-356l-51 -112h-118zM215 204h276l-76 164q-13 28 -28.5 67t-24.5 63l-9 25q-32 -90 -62 -155zM302 693l89 147h114l-104 -147h-99z" />
    <glyph glyph-name="Acircumflex" unicode="&#xc2;" horiz-adv-x="706" 
d="M6 0l292 648h110l292 -648h-118l-51 112h-356l-51 -112h-118zM215 204h276l-76 164q-13 28 -28.5 67t-24.5 63l-9 25q-32 -90 -62 -155zM195 692l102 148h113l102 -148h-85l-74 91l-73 -91h-85z" />
    <glyph glyph-name="Atilde" unicode="&#xc3;" horiz-adv-x="706" 
d="M6 0l292 648h110l292 -648h-118l-51 112h-356l-51 -112h-118zM215 204h276l-76 164q-13 28 -28.5 67t-24.5 63l-9 25q-32 -90 -62 -155zM201 684q0 54 23 87t59 33q33 0 75.5 -25t52.5 -25q32 0 32 50h61q0 -54 -22.5 -87t-59.5 -33q-32 0 -75 25.5t-53 25.5
q-31 0 -31 -51h-62z" />
    <glyph glyph-name="Adieresis" unicode="&#xc4;" horiz-adv-x="706" 
d="M6 0l292 648h110l292 -648h-118l-51 112h-356l-51 -112h-118zM215 204h276l-76 164q-13 28 -28.5 67t-24.5 63l-9 25q-32 -90 -62 -155zM208 745q0 23 16.5 39.5t39.5 16.5t39.5 -16.5t16.5 -39.5t-16.5 -39.5t-39.5 -16.5t-39.5 16.5t-16.5 39.5zM386 745
q0 23 16.5 39.5t39.5 16.5t39.5 -16.5t16.5 -39.5t-16.5 -39.5t-39.5 -16.5t-39.5 16.5t-16.5 39.5z" />
    <glyph glyph-name="Aring" unicode="&#xc5;" horiz-adv-x="706" 
d="M6 0l292 648h110l292 -648h-118l-51 112h-356l-51 -112h-118zM215 204h276l-76 164q-13 28 -28.5 67t-24.5 63l-9 25q-32 -90 -62 -155zM248 777q0 43 31 74t74 31t74 -31t31 -74t-31 -74t-74 -31t-74 31t-31 74zM303 777q0 -21 14.5 -37t35.5 -16t35.5 16t14.5 37
t-14.5 37t-35.5 16t-35.5 -16t-14.5 -37z" />
    <glyph glyph-name="AE" unicode="&#xc6;" horiz-adv-x="968" 
d="M6 0l408 648h508v-100h-343v-158h320v-99h-320v-191h357v-100h-473v112h-259l-70 -112h-128zM261 204h202v345q-21 -45 -53 -98z" />
    <glyph glyph-name="Ccedilla" unicode="&#xc7;" horiz-adv-x="634" 
d="M247 -187l27 45q41 -23 82 -23q27 0 44 14.5t17 31.5q0 28 -37 28q-32 0 -46 -27l-57 20l55 91q-127 17 -208.5 110t-81.5 221q0 140 97.5 237t243.5 97q128 0 218 -76l-67 -78q-63 49 -143 49q-99 0 -163.5 -67t-64.5 -162t63.5 -162.5t157.5 -67.5q97 0 163 64l71 -80
q-93 -85 -223 -89l-23 -40q16 6 29 6q38 0 61.5 -21t23.5 -52q0 -40 -35 -69.5t-94 -29.5q-68 0 -110 30z" />
    <glyph glyph-name="Egrave" unicode="&#xc8;" horiz-adv-x="621" 
d="M72 0v648h503v-100h-387v-158h365v-99h-365v-191h401v-100h-517zM311 693l-104 147h114l88 -147h-98z" />
    <glyph glyph-name="Eacute" unicode="&#xc9;" horiz-adv-x="621" 
d="M72 0v648h503v-100h-387v-158h365v-99h-365v-191h401v-100h-517zM254 693l89 147h114l-104 -147h-99z" />
    <glyph glyph-name="Ecircumflex" unicode="&#xca;" horiz-adv-x="621" 
d="M72 0v648h503v-100h-387v-158h365v-99h-365v-191h401v-100h-517zM177 692l102 148h113l102 -148h-85l-74 91l-73 -91h-85z" />
    <glyph glyph-name="Edieresis" unicode="&#xcb;" horiz-adv-x="621" 
d="M72 0v648h503v-100h-387v-158h365v-99h-365v-191h401v-100h-517zM192 748q0 23 16.5 39.5t39.5 16.5t39.5 -16.5t16.5 -39.5t-16.5 -39.5t-39.5 -16.5t-39.5 16.5t-16.5 39.5zM370 748q0 23 16.5 39.5t39.5 16.5t39.5 -16.5t16.5 -39.5t-16.5 -39.5t-39.5 -16.5
t-39.5 16.5t-16.5 39.5z" />
    <glyph glyph-name="Igrave" unicode="&#xcc;" horiz-adv-x="260" 
d="M72 0v648h116v-648h-116zM93 693l-104 147h114l88 -147h-98z" />
    <glyph glyph-name="Iacute" unicode="&#xcd;" horiz-adv-x="260" 
d="M72 0v648h116v-648h-116zM69 693l89 147h114l-104 -147h-99z" />
    <glyph glyph-name="Icircumflex" unicode="&#xce;" horiz-adv-x="260" 
d="M72 0v648h116v-648h-116zM-28 692l102 148h113l102 -148h-85l-74 91l-73 -91h-85z" />
    <glyph glyph-name="Idieresis" unicode="&#xcf;" horiz-adv-x="260" 
d="M72 0v648h116v-648h-116zM-15 745q0 23 16.5 39.5t39.5 16.5t39.5 -16.5t16.5 -39.5t-16.5 -39.5t-39.5 -16.5t-39.5 16.5t-16.5 39.5zM163 745q0 23 16.5 39.5t39.5 16.5t39.5 -16.5t16.5 -39.5t-16.5 -39.5t-39.5 -16.5t-39.5 16.5t-16.5 39.5z" />
    <glyph glyph-name="Eth" unicode="&#xd0;" horiz-adv-x="712" 
d="M72 0v291h-84v84h84v273h257q150 0 245.5 -94t95.5 -230t-95.5 -230t-245.5 -94h-257zM188 100h136q99 0 162 64t63 160t-63 160t-162 64h-136v-173h148v-84h-148v-191z" />
    <glyph glyph-name="Ntilde" unicode="&#xd1;" horiz-adv-x="709" 
d="M72 0v648h118l232 -318q20 -28 45 -66.5t39 -62.5l15 -24v471h116v-648h-120l-221 302q-25 34 -52 75.5t-42 65.5l-14 24v-467h-116zM203 688q0 54 23 87t59 33q33 0 75.5 -25t52.5 -25q32 0 32 50h61q0 -54 -22.5 -87t-59.5 -33q-32 0 -75 25.5t-53 25.5q-31 0 -31 -51
h-62z" />
    <glyph glyph-name="Ograve" unicode="&#xd2;" horiz-adv-x="766" 
d="M384 94q93 0 156 67.5t63 162.5t-63 162t-156 67q-94 0 -157.5 -67t-63.5 -162t63.5 -162.5t157.5 -67.5zM383 658q146 0 243.5 -97t97.5 -237q0 -141 -97.5 -238t-243.5 -97t-243.5 97t-97.5 238q0 140 97.5 237t243.5 97zM344 693l-104 147h114l88 -147h-98z" />
    <glyph glyph-name="Oacute" unicode="&#xd3;" horiz-adv-x="766" 
d="M384 94q93 0 156 67.5t63 162.5t-63 162t-156 67q-94 0 -157.5 -67t-63.5 -162t63.5 -162.5t157.5 -67.5zM383 658q146 0 243.5 -97t97.5 -237q0 -141 -97.5 -238t-243.5 -97t-243.5 97t-97.5 238q0 140 97.5 237t243.5 97zM325 693l89 147h114l-104 -147h-99z" />
    <glyph glyph-name="Ocircumflex" unicode="&#xd4;" horiz-adv-x="766" 
d="M384 94q93 0 156 67.5t63 162.5t-63 162t-156 67q-94 0 -157.5 -67t-63.5 -162t63.5 -162.5t157.5 -67.5zM383 658q146 0 243.5 -97t97.5 -237q0 -141 -97.5 -238t-243.5 -97t-243.5 97t-97.5 238q0 140 97.5 237t243.5 97zM225 692l102 148h113l102 -148h-85l-74 91
l-73 -91h-85z" />
    <glyph glyph-name="Otilde" unicode="&#xd5;" horiz-adv-x="766" 
d="M384 94q93 0 156 67.5t63 162.5t-63 162t-156 67q-94 0 -157.5 -67t-63.5 -162t63.5 -162.5t157.5 -67.5zM383 658q146 0 243.5 -97t97.5 -237q0 -141 -97.5 -238t-243.5 -97t-243.5 97t-97.5 238q0 140 97.5 237t243.5 97zM232 688q0 54 23 87t59 33q33 0 75.5 -25
t52.5 -25q32 0 32 50h61q0 -54 -22.5 -87t-59.5 -33q-32 0 -75 25.5t-53 25.5q-31 0 -31 -51h-62z" />
    <glyph glyph-name="Odieresis" unicode="&#xd6;" horiz-adv-x="766" 
d="M384 94q93 0 156 67.5t63 162.5t-63 162t-156 67q-94 0 -157.5 -67t-63.5 -162t63.5 -162.5t157.5 -67.5zM383 658q146 0 243.5 -97t97.5 -237q0 -141 -97.5 -238t-243.5 -97t-243.5 97t-97.5 238q0 140 97.5 237t243.5 97zM239 745q0 23 16.5 39.5t39.5 16.5t39.5 -16.5
t16.5 -39.5t-16.5 -39.5t-39.5 -16.5t-39.5 16.5t-16.5 39.5zM417 745q0 23 16.5 39.5t39.5 16.5t39.5 -16.5t16.5 -39.5t-16.5 -39.5t-39.5 -16.5t-39.5 16.5t-16.5 39.5z" />
    <glyph glyph-name="multiply" unicode="&#xd7;" 
d="M131 50l-68 68l157 156l-159 158l69 66l157 -156l157 156l70 -67l-159 -157l157 -156l-69 -68l-156 155z" />
    <glyph glyph-name="Oslash" unicode="&#xd8;" horiz-adv-x="766" 
d="M383 658q79 0 150 -33l55 92l47 -28l-54 -91q67 -46 105 -117.5t38 -156.5q0 -141 -97.5 -238t-243.5 -97q-80 0 -148 31l-55 -91l-48 29l54 90q-67 45 -105.5 118t-38.5 158q0 140 97.5 237t243.5 97zM163 324q0 -111 81 -179l233 387q-45 21 -93 21q-94 0 -157.5 -67
t-63.5 -162zM384 94q93 0 156 67.5t63 162.5q0 108 -80 177l-232 -387q43 -20 93 -20z" />
    <glyph glyph-name="Ugrave" unicode="&#xd9;" horiz-adv-x="673" 
d="M336 -10q-115 0 -194.5 73t-79.5 190v395h116v-391q0 -71 46 -116.5t112 -45.5t112 45.5t46 116.5v391h116v-395q0 -117 -79.5 -190t-194.5 -73zM304 693l-104 147h114l88 -147h-98z" />
    <glyph glyph-name="Uacute" unicode="&#xda;" horiz-adv-x="673" 
d="M336 -10q-115 0 -194.5 73t-79.5 190v395h116v-391q0 -71 46 -116.5t112 -45.5t112 45.5t46 116.5v391h116v-395q0 -117 -79.5 -190t-194.5 -73zM267 693l89 147h114l-104 -147h-99z" />
    <glyph glyph-name="Ucircumflex" unicode="&#xdb;" horiz-adv-x="672" 
d="M336 -10q-115 0 -194.5 73t-79.5 190v395h116v-391q0 -71 46 -116.5t112 -45.5t112 45.5t46 116.5v391h116v-395q0 -117 -79.5 -190t-194.5 -73zM179 692l102 148h113l102 -148h-85l-74 91l-73 -91h-85z" />
    <glyph glyph-name="Udieresis" unicode="&#xdc;" horiz-adv-x="672" 
d="M336 -10q-115 0 -194.5 73t-79.5 190v395h116v-391q0 -71 46 -116.5t112 -45.5t112 45.5t46 116.5v391h116v-395q0 -117 -79.5 -190t-194.5 -73zM192 745q0 23 16.5 39.5t39.5 16.5t39.5 -16.5t16.5 -39.5t-16.5 -39.5t-39.5 -16.5t-39.5 16.5t-16.5 39.5zM370 745
q0 23 16.5 39.5t39.5 16.5t39.5 -16.5t16.5 -39.5t-16.5 -39.5t-39.5 -16.5t-39.5 16.5t-16.5 39.5z" />
    <glyph glyph-name="Yacute" unicode="&#xdd;" horiz-adv-x="636" 
d="M261 0v299l-251 349h133l98 -132l78 -118q52 80 79 118l95 132h133l-249 -348v-300h-116zM257 693l89 147h114l-104 -147h-99z" />
    <glyph glyph-name="Thorn" unicode="&#xde;" horiz-adv-x="596" 
d="M72 0v648h116v-98h145q94 0 160.5 -65t66.5 -157t-66.5 -157.5t-160.5 -65.5h-145v-105h-116zM188 205h132q49 0 84 36t35 87q0 50 -35 86t-84 36h-132v-245z" />
    <glyph glyph-name="germandbls" unicode="&#xdf;" horiz-adv-x="559" 
d="M72 0v443q0 105 51.5 160t137.5 55q82 0 139 -54t57 -131q0 -93 -60 -141q60 -13 98 -59t38 -107q0 -81 -53 -129t-132 -48q-65 0 -108 32l37 96q25 -21 58 -21q37 0 61 25t24 61q0 40 -32.5 65.5t-98.5 25.5h-25v84h9q31 1 53.5 25.5t22.5 73.5q0 41 -23 68t-61 27
q-37 0 -59.5 -28t-22.5 -73v-450h-111z" />
    <glyph glyph-name="agrave" unicode="&#xe0;" horiz-adv-x="604" 
d="M37 247q0 109 65.5 183.5t167.5 74.5q101 0 161 -88v78h111v-495h-111v77q-59 -87 -161 -87t-167.5 74.5t-65.5 182.5zM150 247q0 -65 40.5 -107.5t103.5 -42.5q59 0 98 42t39 108q0 65 -39 108t-98 43q-63 0 -103.5 -43t-40.5 -108zM248 567l-104 147h114l88 -147h-98z
" />
    <glyph glyph-name="aacute" unicode="&#xe1;" horiz-adv-x="604" 
d="M37 247q0 109 65.5 183.5t167.5 74.5q101 0 161 -88v78h111v-495h-111v77q-59 -87 -161 -87t-167.5 74.5t-65.5 182.5zM150 247q0 -65 40.5 -107.5t103.5 -42.5q59 0 98 42t39 108q0 65 -39 108t-98 43q-63 0 -103.5 -43t-40.5 -108zM206 567l89 147h114l-104 -147h-99z
" />
    <glyph glyph-name="acircumflex" unicode="&#xe2;" horiz-adv-x="604" 
d="M37 247q0 109 65.5 183.5t167.5 74.5q101 0 161 -88v78h111v-495h-111v77q-59 -87 -161 -87t-167.5 74.5t-65.5 182.5zM150 247q0 -65 40.5 -107.5t103.5 -42.5q59 0 98 42t39 108q0 65 -39 108t-98 43q-63 0 -103.5 -43t-40.5 -108zM138 564l102 148h113l102 -148h-85
l-74 91l-73 -91h-85z" />
    <glyph glyph-name="atilde" unicode="&#xe3;" horiz-adv-x="604" 
d="M37 247q0 109 65.5 183.5t167.5 74.5q101 0 161 -88v78h111v-495h-111v77q-59 -87 -161 -87t-167.5 74.5t-65.5 182.5zM150 247q0 -65 40.5 -107.5t103.5 -42.5q59 0 98 42t39 108q0 65 -39 108t-98 43q-63 0 -103.5 -43t-40.5 -108zM138 562q0 54 23 87t59 33
q33 0 75.5 -25t52.5 -25q32 0 32 50h61q0 -54 -22.5 -87t-59.5 -33q-32 0 -75 25.5t-53 25.5q-31 0 -31 -51h-62z" />
    <glyph glyph-name="adieresis" unicode="&#xe4;" horiz-adv-x="604" 
d="M37 247q0 109 65.5 183.5t167.5 74.5q101 0 161 -88v78h111v-495h-111v77q-59 -87 -161 -87t-167.5 74.5t-65.5 182.5zM150 247q0 -65 40.5 -107.5t103.5 -42.5q59 0 98 42t39 108q0 65 -39 108t-98 43q-63 0 -103.5 -43t-40.5 -108zM143 626q0 23 16.5 39.5t39.5 16.5
t39.5 -16.5t16.5 -39.5t-16.5 -39.5t-39.5 -16.5t-39.5 16.5t-16.5 39.5zM321 626q0 23 16.5 39.5t39.5 16.5t39.5 -16.5t16.5 -39.5t-16.5 -39.5t-39.5 -16.5t-39.5 16.5t-16.5 39.5z" />
    <glyph glyph-name="aring" unicode="&#xe5;" horiz-adv-x="604" 
d="M37 247q0 109 65.5 183.5t167.5 74.5q101 0 161 -88v78h111v-495h-111v77q-59 -87 -161 -87t-167.5 74.5t-65.5 182.5zM150 247q0 -65 40.5 -107.5t103.5 -42.5q59 0 98 42t39 108q0 65 -39 108t-98 43q-63 0 -103.5 -43t-40.5 -108zM188 655q0 43 31 74t74 31t74 -31
t31 -74t-31 -74t-74 -31t-74 31t-31 74zM243 655q0 -21 14.5 -37t35.5 -16t35.5 16t14.5 37t-14.5 37t-35.5 16t-35.5 -16t-14.5 -37z" />
    <glyph glyph-name="ae" unicode="&#xe6;" horiz-adv-x="916" 
d="M37 140q0 60 39 100t94 55.5t123 15.5q46 0 86 -5q-9 103 -118 103q-37 0 -72.5 -8.5t-52.5 -17.5l-16 -9l-38 78q8 6 22 15t59.5 23.5t93.5 14.5q135 0 190 -108q33 50 84.5 79t112.5 29q99 0 169 -75t70 -179l-4 -43h-375q12 -57 57.5 -89.5t105.5 -32.5q76 0 133 43
l42 -83q-78 -56 -182 -56q-71 0 -129.5 28t-85.5 80q-33 -50 -91.5 -79t-130.5 -29q-89 0 -137.5 40.5t-48.5 109.5zM146 151q0 -32 24.5 -49.5t60.5 -17.5q76 0 116 37.5t40 85.5v21q-21 4 -94 4q-61 0 -104 -20t-43 -61zM503 290h271q-7 53 -45.5 85.5t-90.5 32.5
q-48 0 -86 -32.5t-49 -85.5z" />
    <glyph glyph-name="ccedilla" unicode="&#xe7;" horiz-adv-x="506" 
d="M176 -187l27 45q41 -23 82 -23q27 0 44 14.5t17 31.5q0 28 -37 28q-14 0 -27 -7.5t-19 -19.5l-57 20l55 91q-96 14 -160 85.5t-64 168.5q0 107 77 182.5t186 75.5q102 0 177 -64l-69 -79q-39 36 -106 36q-64 0 -108 -43.5t-44 -107.5q0 -63 43 -106.5t112 -43.5
q75 0 121 43l61 -84q-69 -57 -162 -65l-24 -42q16 6 29 6q38 0 61.5 -21t23.5 -52q0 -40 -35 -69.5t-94 -29.5q-68 0 -110 30z" />
    <glyph glyph-name="egrave" unicode="&#xe8;" horiz-adv-x="568" 
d="M151 290h271q-8 53 -46 85.5t-90 32.5q-48 0 -86 -32.5t-49 -85.5zM37 247q0 107 74 182.5t181 75.5q99 0 168.5 -74.5t69.5 -179.5l-3 -43h-375q12 -57 54 -88.5t100 -31.5q81 0 142 43l44 -82q-87 -59 -188 -59q-111 0 -189 69.5t-78 187.5zM247 567l-104 147h114
l88 -147h-98z" />
    <glyph glyph-name="eacute" unicode="&#xe9;" horiz-adv-x="568" 
d="M151 290h271q-8 53 -46 85.5t-90 32.5q-48 0 -86 -32.5t-49 -85.5zM37 247q0 107 74 182.5t181 75.5q99 0 168.5 -74.5t69.5 -179.5l-3 -43h-375q12 -57 54 -88.5t100 -31.5q81 0 142 43l44 -82q-87 -59 -188 -59q-111 0 -189 69.5t-78 187.5zM235 567l89 147h114
l-104 -147h-99z" />
    <glyph glyph-name="ecircumflex" unicode="&#xea;" horiz-adv-x="568" 
d="M151 290h271q-8 53 -46 85.5t-90 32.5q-48 0 -86 -32.5t-49 -85.5zM37 247q0 107 74 182.5t181 75.5q99 0 168.5 -74.5t69.5 -179.5l-3 -43h-375q12 -57 54 -88.5t100 -31.5q81 0 142 43l44 -82q-87 -59 -188 -59q-111 0 -189 69.5t-78 187.5zM121 564l102 148h113
l102 -148h-85l-74 91l-73 -91h-85z" />
    <glyph glyph-name="edieresis" unicode="&#xeb;" horiz-adv-x="568" 
d="M151 290h271q-8 53 -46 85.5t-90 32.5q-48 0 -86 -32.5t-49 -85.5zM37 247q0 107 74 182.5t181 75.5q99 0 168.5 -74.5t69.5 -179.5l-3 -43h-375q12 -57 54 -88.5t100 -31.5q81 0 142 43l44 -82q-87 -59 -188 -59q-111 0 -189 69.5t-78 187.5zM137 626q0 23 16.5 39.5
t39.5 16.5t39.5 -16.5t16.5 -39.5t-16.5 -39.5t-39.5 -16.5t-39.5 16.5t-16.5 39.5zM315 626q0 23 16.5 39.5t39.5 16.5t39.5 -16.5t16.5 -39.5t-16.5 -39.5t-39.5 -16.5t-39.5 16.5t-16.5 39.5z" />
    <glyph glyph-name="igrave" unicode="&#xec;" horiz-adv-x="235" 
d="M85 567l-104 147h114l88 -147h-98zM62 0v495h111v-495h-111z" />
    <glyph glyph-name="iacute" unicode="&#xed;" horiz-adv-x="235" 
d="M52 567l89 147h114l-104 -147h-99zM62 0v495h111v-495h-111z" />
    <glyph glyph-name="icircumflex" unicode="&#xee;" horiz-adv-x="235" 
d="M62 0v495h111v-495h-111zM-41 564l102 148h113l102 -148h-85l-74 91l-73 -91h-85z" />
    <glyph glyph-name="idieresis" unicode="&#xef;" horiz-adv-x="235" 
d="M-27 626q0 23 16.5 39.5t39.5 16.5t39.5 -16.5t16.5 -39.5t-16.5 -39.5t-39.5 -16.5t-39.5 16.5t-16.5 39.5zM151 626q0 23 16.5 39.5t39.5 16.5t39.5 -16.5t16.5 -39.5t-16.5 -39.5t-39.5 -16.5t-39.5 16.5t-16.5 39.5zM62 0v495h111v-495h-111z" />
    <glyph glyph-name="eth" unicode="&#xf0;" horiz-adv-x="600" 
d="M37 247q0 100 76 170t183 70q46 0 85 -21q-43 49 -114 90l-99 -42l-20 43l60 26q-33 13 -71 24l49 59q58 -14 118 -43l100 43l21 -43l-67 -29q91 -59 148 -145.5t57 -190.5q0 -110 -74.5 -189t-188.5 -79q-109 0 -186 75t-77 182zM150 247q0 -62 44 -106t106 -44t106 44
t44 106q0 59 -44 100t-106 41t-106 -41t-44 -100z" />
    <glyph glyph-name="ntilde" unicode="&#xf1;" horiz-adv-x="564" 
d="M62 0v495h111v-71q54 81 160 81q96 0 137 -57.5t41 -163.5v-284h-111v270q0 66 -21 97t-80 31q-55 0 -90.5 -39t-35.5 -100v-259h-111zM128 562q0 54 23 87t59 33q33 0 75.5 -25t52.5 -25q32 0 32 50h61q0 -54 -22.5 -87t-59.5 -33q-32 0 -75 25.5t-53 25.5
q-31 0 -31 -51h-62z" />
    <glyph glyph-name="ograve" unicode="&#xf2;" horiz-adv-x="600" 
d="M37 247q0 107 77 182.5t186 75.5t186 -75.5t77 -182.5q0 -106 -77 -181.5t-186 -75.5t-186 75.5t-77 181.5zM150 247q0 -63 44 -106.5t106 -43.5t106 43.5t44 106.5q0 62 -44 106.5t-106 44.5t-106 -44.5t-44 -106.5zM271 567l-104 147h114l88 -147h-98z" />
    <glyph glyph-name="oacute" unicode="&#xf3;" horiz-adv-x="600" 
d="M37 247q0 107 77 182.5t186 75.5t186 -75.5t77 -182.5q0 -106 -77 -181.5t-186 -75.5t-186 75.5t-77 181.5zM150 247q0 -63 44 -106.5t106 -43.5t106 43.5t44 106.5q0 62 -44 106.5t-106 44.5t-106 -44.5t-44 -106.5zM227 567l89 147h114l-104 -147h-99z" />
    <glyph glyph-name="ocircumflex" unicode="&#xf4;" horiz-adv-x="600" 
d="M37 247q0 107 77 182.5t186 75.5t186 -75.5t77 -182.5q0 -106 -77 -181.5t-186 -75.5t-186 75.5t-77 181.5zM150 247q0 -63 44 -106.5t106 -43.5t106 43.5t44 106.5q0 62 -44 106.5t-106 44.5t-106 -44.5t-44 -106.5zM143 564l102 148h113l102 -148h-85l-74 91l-73 -91
h-85z" />
    <glyph glyph-name="otilde" unicode="&#xf5;" horiz-adv-x="600" 
d="M37 247q0 107 77 182.5t186 75.5t186 -75.5t77 -182.5q0 -106 -77 -181.5t-186 -75.5t-186 75.5t-77 181.5zM150 247q0 -63 44 -106.5t106 -43.5t106 43.5t44 106.5q0 62 -44 106.5t-106 44.5t-106 -44.5t-44 -106.5zM148 562q0 54 23 87t59 33q33 0 75.5 -25t52.5 -25
q32 0 32 50h61q0 -54 -22.5 -87t-59.5 -33q-32 0 -75 25.5t-53 25.5q-31 0 -31 -51h-62z" />
    <glyph glyph-name="odieresis" unicode="&#xf6;" horiz-adv-x="600" 
d="M37 247q0 107 77 182.5t186 75.5t186 -75.5t77 -182.5q0 -106 -77 -181.5t-186 -75.5t-186 75.5t-77 181.5zM150 247q0 -63 44 -106.5t106 -43.5t106 43.5t44 106.5q0 62 -44 106.5t-106 44.5t-106 -44.5t-44 -106.5zM155 626q0 23 16.5 39.5t39.5 16.5t39.5 -16.5
t16.5 -39.5t-16.5 -39.5t-39.5 -16.5t-39.5 16.5t-16.5 39.5zM333 626q0 23 16.5 39.5t39.5 16.5t39.5 -16.5t16.5 -39.5t-16.5 -39.5t-39.5 -16.5t-39.5 16.5t-16.5 39.5z" />
    <glyph glyph-name="divide" unicode="&#xf7;" 
d="M217 451q0 29 20.5 50t49.5 21t50 -21t21 -50t-21 -49.5t-50 -20.5t-49.5 20.5t-20.5 49.5zM217 98q0 29 20.5 49.5t49.5 20.5t50 -20.5t21 -49.5t-21 -49.5t-50 -20.5t-49.5 20.5t-20.5 49.5zM58 229v90h459v-90h-459z" />
    <glyph glyph-name="oslash" unicode="&#xf8;" horiz-adv-x="600" 
d="M37 247q0 107 77 182.5t186 75.5q54 0 107 -24l47 80l47 -28l-47 -78q50 -35 79.5 -90t29.5 -118q0 -106 -77 -181.5t-186 -75.5q-57 0 -111 24l-44 -75l-47 28l45 74q-49 36 -77.5 90t-28.5 116zM245 107q24 -10 55 -10q62 0 106 44t44 106q0 70 -53 115zM150 247
q0 -68 49 -111l152 253q-29 9 -51 9q-62 0 -106 -44.5t-44 -106.5z" />
    <glyph glyph-name="ugrave" unicode="&#xf9;" horiz-adv-x="561" 
d="M52 204v291h111v-271q0 -64 24 -95.5t81 -31.5q56 0 88 37t32 106v255h111v-495h-111v69q-55 -79 -153 -79q-96 0 -139.5 61t-43.5 153zM256 567l-104 147h114l88 -147h-98z" />
    <glyph glyph-name="uacute" unicode="&#xfa;" horiz-adv-x="561" 
d="M52 204v291h111v-271q0 -64 24 -95.5t81 -31.5q56 0 88 37t32 106v255h111v-495h-111v69q-55 -79 -153 -79q-96 0 -139.5 61t-43.5 153zM199 567l89 147h114l-104 -147h-99z" />
    <glyph glyph-name="ucircumflex" unicode="&#xfb;" horiz-adv-x="561" 
d="M52 204v291h111v-271q0 -64 24 -95.5t81 -31.5q56 0 88 37t32 106v255h111v-495h-111v69q-55 -79 -153 -79q-96 0 -139.5 61t-43.5 153zM115 564l102 148h113l102 -148h-85l-74 91l-73 -91h-85z" />
    <glyph glyph-name="udieresis" unicode="&#xfc;" horiz-adv-x="561" 
d="M52 204v291h111v-271q0 -64 24 -95.5t81 -31.5q56 0 88 37t32 106v255h111v-495h-111v69q-55 -79 -153 -79q-96 0 -139.5 61t-43.5 153zM130 626q0 23 16.5 39.5t39.5 16.5t39.5 -16.5t16.5 -39.5t-16.5 -39.5t-39.5 -16.5t-39.5 16.5t-16.5 39.5zM308 626
q0 23 16.5 39.5t39.5 16.5t39.5 -16.5t16.5 -39.5t-16.5 -39.5t-39.5 -16.5t-39.5 16.5t-16.5 39.5z" />
    <glyph glyph-name="yacute" unicode="&#xfd;" horiz-adv-x="536" 
d="M102 -147v104q44 0 67.5 16t41.5 55l10 20l-214 447h114l119 -264l32 -78l32 83l107 259h112l-226 -517q-55 -125 -195 -125zM215 567l89 147h114l-104 -147h-99z" />
    <glyph glyph-name="thorn" unicode="&#xfe;" horiz-adv-x="599" 
d="M62 -137v785h111v-231q26 42 67.5 65t88.5 23q102 0 167.5 -74.5t65.5 -183.5q0 -108 -64.5 -182.5t-163.5 -74.5q-104 0 -161 87v-214h-111zM173 247q0 -65 38.5 -107.5t98.5 -42.5q61 0 100 42.5t39 107.5t-39 108t-100 43q-60 0 -98.5 -43t-38.5 -108z" />
    <glyph glyph-name="ydieresis" unicode="&#xff;" horiz-adv-x="536" 
d="M102 -147v104q44 0 67.5 16t41.5 55l10 20l-214 447h114l119 -264l32 -78l32 83l107 259h112l-226 -517q-55 -125 -195 -125zM129 626q0 23 16.5 39.5t39.5 16.5t39.5 -16.5t16.5 -39.5t-16.5 -39.5t-39.5 -16.5t-39.5 16.5t-16.5 39.5zM307 626q0 23 16.5 39.5
t39.5 16.5t39.5 -16.5t16.5 -39.5t-16.5 -39.5t-39.5 -16.5t-39.5 16.5t-16.5 39.5z" />
    <glyph glyph-name="Amacron" unicode="&#x100;" horiz-adv-x="706" 
d="M6 0l292 648h110l292 -648h-118l-51 112h-356l-51 -112h-118zM215 204h276l-76 164q-13 28 -28.5 67t-24.5 63l-9 25q-32 -90 -62 -155zM242 703v81h221v-81h-221z" />
    <glyph glyph-name="amacron" unicode="&#x101;" horiz-adv-x="604" 
d="M37 247q0 109 65.5 183.5t167.5 74.5q101 0 161 -88v78h111v-495h-111v77q-59 -87 -161 -87t-167.5 74.5t-65.5 182.5zM150 247q0 -65 40.5 -107.5t103.5 -42.5q59 0 98 42t39 108q0 65 -39 108t-98 43q-63 0 -103.5 -43t-40.5 -108zM182 566v81h221v-81h-221z" />
    <glyph glyph-name="Abreve" unicode="&#x102;" horiz-adv-x="706" 
d="M6 0l292 648h110l292 -648h-118l-51 112h-356l-51 -112h-118zM215 204h276l-76 164q-13 28 -28.5 67t-24.5 63l-9 25q-32 -90 -62 -155zM353 688q-53 0 -85.5 35.5t-32.5 86.5h60q1 -23 18 -38t40 -15t39 15t17 38h62q0 -51 -32.5 -86.5t-85.5 -35.5z" />
    <glyph glyph-name="abreve" unicode="&#x103;" horiz-adv-x="604" 
d="M37 247q0 109 65.5 183.5t167.5 74.5q101 0 161 -88v78h111v-495h-111v77q-59 -87 -161 -87t-167.5 74.5t-65.5 182.5zM150 247q0 -65 40.5 -107.5t103.5 -42.5q59 0 98 42t39 108q0 65 -39 108t-98 43q-63 0 -103.5 -43t-40.5 -108zM293 555q-53 0 -85.5 35.5
t-32.5 86.5h60q1 -23 18 -38t40 -15t39 15t17 38h62q0 -51 -32.5 -86.5t-85.5 -35.5z" />
    <glyph glyph-name="Aogonek" unicode="&#x104;" horiz-adv-x="706" 
d="M533 -128q0 71 49 128l-51 112h-356l-51 -112h-118l292 648h110l292 -648h-55q-18 -17 -30 -43.5t-12 -50.5q0 -26 16 -42t40 -16q14 0 36 9l18 -48q-41 -29 -86 -29q-38 0 -66 24.5t-28 67.5zM215 204h276l-76 164q-19 42 -62 156q0 -1 -9.5 -26.5t-24.5 -63.5t-28 -66z
" />
    <glyph glyph-name="aogonek" unicode="&#x105;" horiz-adv-x="604" 
d="M377 -128q0 74 54 133v72q-59 -87 -161 -87t-167.5 74.5t-65.5 182.5q0 109 65.5 183.5t167.5 74.5q101 0 161 -88v78h111v-495h-53q-18 -17 -30 -43.5t-12 -50.5q0 -26 16 -42t40 -16q14 0 36 9l18 -48q-41 -29 -86 -29q-38 0 -66 24.5t-28 67.5zM150 247
q0 -65 40.5 -107.5t103.5 -42.5q59 0 98 42t39 108q0 65 -39 108t-98 43q-63 0 -103.5 -43t-40.5 -108z" />
    <glyph glyph-name="Cacute" unicode="&#x106;" horiz-adv-x="634" 
d="M42 324q0 140 97.5 237t243.5 97q128 0 218 -76l-67 -78q-63 49 -143 49q-99 0 -163.5 -67t-64.5 -162t63.5 -162.5t157.5 -67.5q97 0 163 64l71 -80q-97 -89 -235 -89q-146 0 -243.5 97t-97.5 238zM320 693l89 147h114l-104 -147h-99z" />
    <glyph glyph-name="cacute" unicode="&#x107;" horiz-adv-x="506" 
d="M37 247q0 107 77 182.5t186 75.5q102 0 177 -64l-69 -79q-39 36 -106 36q-64 0 -108 -43.5t-44 -107.5q0 -63 43 -106.5t112 -43.5q75 0 121 43l61 -84q-77 -66 -187 -66q-109 0 -186 75t-77 182zM222 567l89 147h114l-104 -147h-99z" />
    <glyph glyph-name="Ccircumflex" unicode="&#x108;" horiz-adv-x="634" 
d="M42 324q0 140 97.5 237t243.5 97q128 0 218 -76l-67 -78q-63 49 -143 49q-99 0 -163.5 -67t-64.5 -162t63.5 -162.5t157.5 -67.5q97 0 163 64l71 -80q-97 -89 -235 -89q-146 0 -243.5 97t-97.5 238zM226 692l102 148h113l102 -148h-85l-74 91l-73 -91h-85z" />
    <glyph glyph-name="ccircumflex" unicode="&#x109;" horiz-adv-x="506" 
d="M37 247q0 107 77 182.5t186 75.5q102 0 177 -64l-69 -79q-39 36 -106 36q-64 0 -108 -43.5t-44 -107.5q0 -63 43 -106.5t112 -43.5q75 0 121 43l61 -84q-77 -66 -187 -66q-109 0 -186 75t-77 182zM133 564l102 148h113l102 -148h-85l-74 91l-73 -91h-85z" />
    <glyph glyph-name="Cdotaccent" unicode="&#x10a;" horiz-adv-x="634" 
d="M42 324q0 140 97.5 237t243.5 97q128 0 218 -76l-67 -78q-63 49 -143 49q-99 0 -163.5 -67t-64.5 -162t63.5 -162.5t157.5 -67.5q97 0 163 64l71 -80q-97 -89 -235 -89q-146 0 -243.5 97t-97.5 238zM316 756q0 28 19.5 48t47.5 20t48 -20t20 -48t-20 -47.5t-48 -19.5
t-47.5 19.5t-19.5 47.5z" />
    <glyph glyph-name="cdotaccent" unicode="&#x10b;" horiz-adv-x="506" 
d="M37 247q0 107 77 182.5t186 75.5q102 0 177 -64l-69 -79q-39 36 -106 36q-64 0 -108 -43.5t-44 -107.5q0 -63 43 -106.5t112 -43.5q75 0 121 43l61 -84q-77 -66 -187 -66q-109 0 -186 75t-77 182zM228 627q0 28 19.5 48t47.5 20t48 -20t20 -48t-20 -47.5t-48 -19.5
t-47.5 19.5t-19.5 47.5z" />
    <glyph glyph-name="Ccaron" unicode="&#x10c;" horiz-adv-x="634" 
d="M42 324q0 140 97.5 237t243.5 97q128 0 218 -76l-67 -78q-63 49 -143 49q-99 0 -163.5 -67t-64.5 -162t63.5 -162.5t157.5 -67.5q97 0 163 64l71 -80q-97 -89 -235 -89q-146 0 -243.5 97t-97.5 238zM328 692l-103 148h85l74 -91l74 91h85l-102 -148h-113z" />
    <glyph glyph-name="ccaron" unicode="&#x10d;" horiz-adv-x="506" 
d="M37 247q0 107 77 182.5t186 75.5q102 0 177 -64l-69 -79q-39 36 -106 36q-64 0 -108 -43.5t-44 -107.5q0 -63 43 -106.5t112 -43.5q75 0 121 43l61 -84q-77 -66 -187 -66q-109 0 -186 75t-77 182zM233 564l-103 148h85l74 -91l74 91h85l-102 -148h-113z" />
    <glyph glyph-name="Dcaron" unicode="&#x10e;" horiz-adv-x="712" 
d="M188 100h133q102 0 165 63t63 161t-63 161t-165 63h-133v-448zM72 0v648h254q154 0 249 -93.5t95 -230.5t-95 -230.5t-249 -93.5h-254zM252 692l-103 148h85l74 -91l74 91h85l-102 -148h-113z" />
    <glyph glyph-name="dcaron" unicode="&#x10f;" horiz-adv-x="599" 
d="M37 247q0 109 65.5 183.5t167.5 74.5q47 0 88.5 -23t67.5 -65v241h111v-658h-111v77q-26 -42 -67 -64.5t-89 -22.5q-102 0 -167.5 74.5t-65.5 182.5zM150 247q0 -65 39 -107.5t100 -42.5q59 0 98 42t39 108q0 65 -38.5 108t-98.5 43q-61 0 -100 -43t-39 -108zM560 471
q59 62 59 126q0 16 -14 44l73 26q19 -27 19 -57q0 -80 -75 -139h-62z" />
    <glyph glyph-name="Dcroat" unicode="&#x110;" horiz-adv-x="712" 
d="M72 0v291h-84v84h84v273h257q150 0 245.5 -94t95.5 -230t-95.5 -230t-245.5 -94h-257zM188 100h136q99 0 162 64t63 160t-63 160t-162 64h-136v-173h148v-84h-148v-191z" />
    <glyph glyph-name="dcroat" unicode="&#x111;" horiz-adv-x="599" 
d="M37 247q0 109 65.5 183.5t167.5 74.5q101 0 156 -88v131h-146v57h146v53h111v-53h60v-57h-60v-548h-111v77q-26 -42 -67 -64.5t-89 -22.5q-102 0 -167.5 74.5t-65.5 182.5zM150 247q0 -65 39 -107.5t100 -42.5q59 0 98 42t39 108q0 65 -38.5 108t-98.5 43q-61 0 -100 -43
t-39 -108z" />
    <glyph glyph-name="Emacron" unicode="&#x112;" horiz-adv-x="621" 
d="M72 0v648h503v-100h-387v-158h365v-99h-365v-191h401v-100h-517zM220 703v81h221v-81h-221z" />
    <glyph glyph-name="emacron" unicode="&#x113;" horiz-adv-x="568" 
d="M151 290h271q-8 53 -46 85.5t-90 32.5q-48 0 -86 -32.5t-49 -85.5zM37 247q0 107 74 182.5t181 75.5q99 0 168.5 -74.5t69.5 -179.5l-3 -43h-375q12 -57 54 -88.5t100 -31.5q81 0 142 43l44 -82q-87 -59 -188 -59q-111 0 -189 69.5t-78 187.5zM172 566v81h221v-81h-221z
" />
    <glyph glyph-name="Ebreve" unicode="&#x114;" horiz-adv-x="621" 
d="M72 0v648h503v-100h-387v-158h365v-99h-365v-191h401v-100h-517zM339 688q-53 0 -85.5 35.5t-32.5 86.5h60q1 -23 18 -38t40 -15t39 15t17 38h62q0 -51 -32.5 -86.5t-85.5 -35.5z" />
    <glyph glyph-name="ebreve" unicode="&#x115;" horiz-adv-x="568" 
d="M151 290h271q-8 53 -46 85.5t-90 32.5q-48 0 -86 -32.5t-49 -85.5zM37 247q0 107 74 182.5t181 75.5q99 0 168.5 -74.5t69.5 -179.5l-3 -43h-375q12 -57 54 -88.5t100 -31.5q81 0 142 43l44 -82q-87 -59 -188 -59q-111 0 -189 69.5t-78 187.5zM284 555q-53 0 -85.5 35.5
t-32.5 86.5h60q1 -23 18 -38t40 -15t39 15t17 38h62q0 -51 -32.5 -86.5t-85.5 -35.5z" />
    <glyph glyph-name="Edotaccent" unicode="&#x116;" horiz-adv-x="621" 
d="M72 0v648h503v-100h-387v-158h365v-99h-365v-191h401v-100h-517zM266 756q0 28 19.5 48t47.5 20t48 -20t20 -48t-20 -47.5t-48 -19.5t-47.5 19.5t-19.5 47.5z" />
    <glyph glyph-name="edotaccent" unicode="&#x117;" horiz-adv-x="568" 
d="M151 290h271q-8 53 -46 85.5t-90 32.5q-48 0 -86 -32.5t-49 -85.5zM37 247q0 107 74 182.5t181 75.5q99 0 168.5 -74.5t69.5 -179.5l-3 -43h-375q12 -57 54 -88.5t100 -31.5q81 0 142 43l44 -82q-87 -59 -188 -59q-111 0 -189 69.5t-78 187.5zM216 627q0 28 19.5 48
t47.5 20t48 -20t20 -48t-20 -47.5t-48 -19.5t-47.5 19.5t-19.5 47.5z" />
    <glyph glyph-name="Eogonek" unicode="&#x118;" horiz-adv-x="626" 
d="M72 0v648h503v-100h-387v-158h365v-99h-365v-191h401v-100h-79q-18 -17 -30 -43.5t-12 -50.5q0 -26 16 -42t40 -16q14 0 36 9l18 -48q-41 -29 -86 -29q-38 0 -66 24.5t-28 67.5q0 71 49 128h-375z" />
    <glyph glyph-name="eogonek" unicode="&#x119;" horiz-adv-x="568" 
d="M252 -128q0 64 41 118q-107 4 -181.5 73t-74.5 184q0 107 74 182.5t181 75.5q99 0 168.5 -74.5t69.5 -179.5l-3 -43h-375q12 -57 54 -88.5t100 -31.5q81 0 142 43l44 -82q-64 -44 -133 -54q-37 -41 -37 -89q0 -26 16 -42t40 -16q14 0 36 9l18 -48q-41 -29 -86 -29
q-38 0 -66 24.5t-28 67.5zM151 290h271q-8 53 -46 85.5t-90 32.5q-48 0 -86 -32.5t-49 -85.5z" />
    <glyph glyph-name="Ecaron" unicode="&#x11a;" horiz-adv-x="621" 
d="M72 0v648h503v-100h-387v-158h365v-99h-365v-191h401v-100h-517zM282 692l-103 148h85l74 -91l74 91h85l-102 -148h-113z" />
    <glyph glyph-name="ecaron" unicode="&#x11b;" horiz-adv-x="568" 
d="M151 290h271q-8 53 -46 85.5t-90 32.5q-48 0 -86 -32.5t-49 -85.5zM37 247q0 107 74 182.5t181 75.5q99 0 168.5 -74.5t69.5 -179.5l-3 -43h-375q12 -57 54 -88.5t100 -31.5q81 0 142 43l44 -82q-87 -59 -188 -59q-111 0 -189 69.5t-78 187.5zM227 564l-103 148h85
l74 -91l74 91h85l-102 -148h-113z" />
    <glyph glyph-name="Gcircumflex" unicode="&#x11c;" horiz-adv-x="725" 
d="M42 324q0 140 97.5 237t243.5 97q126 0 222 -78l-69 -79q-62 52 -152 52q-94 0 -157.5 -67t-63.5 -162t63.5 -162t157.5 -67q103 0 167 79v112h-119v97h231v-253q-44 -65 -118 -102.5t-162 -37.5q-146 0 -243.5 96.5t-97.5 237.5zM221 692l102 148h113l102 -148h-85
l-74 91l-73 -91h-85z" />
    <glyph glyph-name="gcircumflex" unicode="&#x11d;" horiz-adv-x="599" 
d="M37 270q0 100 65.5 167.5t167.5 67.5q47 0 88.5 -21t67.5 -58v69h111v-384q0 -66 -24 -117.5t-62.5 -81t-82.5 -44.5t-89 -15q-124 0 -202 68l49 74q60 -54 148 -54q15 0 32.5 3.5t39.5 14t39 26t29 42t12 59.5v20q-55 -78 -156 -78q-102 0 -167.5 69.5t-65.5 172.5z
M150 266q0 -61 37.5 -98.5t96.5 -37.5t96 37.5t37 98.5q0 59 -37.5 97.5t-95.5 38.5t-96 -38.5t-38 -97.5zM134 564l102 148h113l102 -148h-85l-74 91l-73 -91h-85z" />
    <glyph glyph-name="Gbreve" unicode="&#x11e;" horiz-adv-x="725" 
d="M42 324q0 140 97.5 237t243.5 97q126 0 222 -78l-69 -79q-62 52 -152 52q-94 0 -157.5 -67t-63.5 -162t63.5 -162t157.5 -67q103 0 167 79v112h-119v97h231v-253q-44 -65 -118 -102.5t-162 -37.5q-146 0 -243.5 96.5t-97.5 237.5zM377 688q-53 0 -85.5 35.5t-32.5 86.5
h60q1 -23 18 -38t40 -15t39 15t17 38h62q0 -51 -32.5 -86.5t-85.5 -35.5z" />
    <glyph glyph-name="gbreve" unicode="&#x11f;" horiz-adv-x="599" 
d="M37 270q0 100 65.5 167.5t167.5 67.5q47 0 88.5 -21t67.5 -58v69h111v-384q0 -66 -24 -117.5t-62.5 -81t-82.5 -44.5t-89 -15q-124 0 -202 68l49 74q60 -54 148 -54q15 0 32.5 3.5t39.5 14t39 26t29 42t12 59.5v20q-55 -78 -156 -78q-102 0 -167.5 69.5t-65.5 172.5z
M150 266q0 -61 37.5 -98.5t96.5 -37.5t96 37.5t37 98.5q0 59 -37.5 97.5t-95.5 38.5t-96 -38.5t-38 -97.5zM301 555q-53 0 -85.5 35.5t-32.5 86.5h60q1 -23 18 -38t40 -15t39 15t17 38h62q0 -51 -32.5 -86.5t-85.5 -35.5z" />
    <glyph glyph-name="Gdotaccent" unicode="&#x120;" horiz-adv-x="725" 
d="M42 324q0 140 97.5 237t243.5 97q126 0 222 -78l-69 -79q-62 52 -152 52q-94 0 -157.5 -67t-63.5 -162t63.5 -162t157.5 -67q103 0 167 79v112h-119v97h231v-253q-44 -65 -118 -102.5t-162 -37.5q-146 0 -243.5 96.5t-97.5 237.5zM314 756q0 28 19.5 48t47.5 20t48 -20
t20 -48t-20 -47.5t-48 -19.5t-47.5 19.5t-19.5 47.5z" />
    <glyph glyph-name="gdotaccent" unicode="&#x121;" horiz-adv-x="599" 
d="M37 270q0 100 65.5 167.5t167.5 67.5q47 0 88.5 -21t67.5 -58v69h111v-384q0 -66 -24 -117.5t-62.5 -81t-82.5 -44.5t-89 -15q-124 0 -202 68l49 74q60 -54 148 -54q15 0 32.5 3.5t39.5 14t39 26t29 42t12 59.5v20q-55 -78 -156 -78q-102 0 -167.5 69.5t-65.5 172.5z
M150 266q0 -61 37.5 -98.5t96.5 -37.5t96 37.5t37 98.5q0 59 -37.5 97.5t-95.5 38.5t-96 -38.5t-38 -97.5zM218 627q0 28 19.5 48t47.5 20t48 -20t20 -48t-20 -47.5t-48 -19.5t-47.5 19.5t-19.5 47.5z" />
    <glyph glyph-name="Gcommaaccent" unicode="&#x122;" horiz-adv-x="725" 
d="M42 324q0 140 97.5 237t243.5 97q126 0 222 -78l-69 -79q-62 52 -152 52q-94 0 -157.5 -67t-63.5 -162t63.5 -162t157.5 -67q103 0 167 79v112h-119v97h231v-253q-44 -65 -118 -102.5t-162 -37.5q-146 0 -243.5 96.5t-97.5 237.5zM308 -235q59 62 59 126q0 16 -14 44
l73 26q19 -27 19 -57q0 -80 -75 -139h-62z" />
    <glyph glyph-name="gcommaaccent" unicode="&#x123;" horiz-adv-x="599" 
d="M254 550q-73 55 -75 132q0 14 5 34q4 15 13 30l74 -26q-15 -22 -15 -44q0 -61 60 -126h-62zM37 270q0 100 65.5 167.5t167.5 67.5q47 0 88.5 -21t67.5 -58v69h111v-384q0 -66 -24 -117.5t-62.5 -81t-82.5 -44.5t-89 -15q-124 0 -202 68l49 74q60 -54 148 -54
q15 0 32.5 3.5t39.5 14t39 26t29 42t12 59.5v20q-55 -78 -156 -78q-102 0 -167.5 69.5t-65.5 172.5zM150 260q0 -61 37.5 -99.5t96.5 -38.5t96 38.5t37 99.5q0 63 -37 102.5t-96 39.5t-96.5 -39.5t-37.5 -102.5z" />
    <glyph glyph-name="Hcircumflex" unicode="&#x124;" horiz-adv-x="693" 
d="M72 0v648h116v-259h316v259h116v-648h-116v290h-316v-290h-116zM195 692l102 148h113l102 -148h-85l-74 91l-73 -91h-85z" />
    <glyph glyph-name="hcircumflex" unicode="&#x125;" horiz-adv-x="563" 
d="M62 0v658h111v-234q53 81 159 81q178 0 178 -221v-284h-111v270q0 65 -22.5 96.5t-81.5 31.5q-56 0 -89 -39t-33 -99v-260h-111zM-38 677l102 148h113l102 -148h-85l-74 91l-73 -91h-85z" />
    <glyph glyph-name="Hbar" unicode="&#x126;" horiz-adv-x="693" 
d="M72 0v489h-40v77h40v82h116v-82h316v82h116v-82h40v-77h-40v-489h-116v297h-316v-297h-116zM188 397h316v92h-316v-92z" />
    <glyph glyph-name="hbar" unicode="&#x127;" horiz-adv-x="563" 
d="M62 0v548h-58v57h58v53h111v-53h148v-57h-148v-124q53 81 159 81q178 0 178 -221v-284h-111v270q0 65 -22.5 96.5t-81.5 31.5q-54 0 -88 -38.5t-34 -99.5v-260h-111z" />
    <glyph glyph-name="Itilde" unicode="&#x128;" horiz-adv-x="260" 
d="M72 0v648h116v-648h-116zM-22 688q0 54 23 87t59 33q33 0 75.5 -25t52.5 -25q32 0 32 50h61q0 -54 -22.5 -87t-59.5 -33q-32 0 -75 25.5t-53 25.5q-31 0 -31 -51h-62z" />
    <glyph glyph-name="itilde" unicode="&#x129;" horiz-adv-x="235" 
d="M-34 562q0 54 23 87t59 33q33 0 75.5 -25t52.5 -25q32 0 32 50h61q0 -54 -22.5 -87t-59.5 -33q-32 0 -75 25.5t-53 25.5q-31 0 -31 -51h-62zM62 0v495h111v-495h-111z" />
    <glyph glyph-name="Imacron" unicode="&#x12a;" horiz-adv-x="260" 
d="M72 0v648h116v-648h-116zM19 703v81h221v-81h-221z" />
    <glyph glyph-name="imacron" unicode="&#x12b;" horiz-adv-x="235" 
d="M7 566v81h221v-81h-221zM62 0v495h111v-495h-111z" />
    <glyph glyph-name="Ibreve" unicode="&#x12c;" horiz-adv-x="260" 
d="M72 0v648h116v-648h-116zM130 688q-53 0 -85.5 35.5t-32.5 86.5h60q1 -23 18 -38t40 -15t39 15t17 38h62q0 -51 -32.5 -86.5t-85.5 -35.5z" />
    <glyph glyph-name="ibreve" unicode="&#x12d;" horiz-adv-x="235" 
d="M118 555q-53 0 -85.5 35.5t-32.5 86.5h60q1 -23 18 -38t40 -15t39 15t17 38h62q0 -51 -32.5 -86.5t-85.5 -35.5zM62 0v495h111v-495h-111z" />
    <glyph glyph-name="Iogonek" unicode="&#x12e;" horiz-adv-x="260" 
d="M19 -128q0 74 53 132v644h116v-648h-57q-18 -17 -30 -43.5t-12 -50.5q0 -26 16 -42t40 -16q14 0 36 9l18 -48q-41 -29 -86 -29q-38 0 -66 24.5t-28 67.5z" />
    <glyph glyph-name="iogonek" unicode="&#x12f;" horiz-adv-x="235" 
d="M8 -128q0 74 54 133v490h111v-495h-53q-18 -17 -30 -43.5t-12 -50.5q0 -26 16 -42t40 -16q14 0 36 9l18 -48q-41 -29 -86 -29q-38 0 -66 24.5t-28 67.5zM51 625q0 28 19.5 47.5t47.5 19.5t48 -19.5t20 -47.5t-20 -48t-48 -20t-47.5 20t-19.5 48z" />
    <glyph glyph-name="Idotaccent" unicode="&#x130;" horiz-adv-x="260" 
d="M72 0v648h116v-648h-116zM63 756q0 28 19.5 48t47.5 20t48 -20t20 -48t-20 -47.5t-48 -19.5t-47.5 19.5t-19.5 47.5z" />
    <glyph glyph-name="dotlessi" unicode="&#x131;" horiz-adv-x="235" 
d="M62 0v495h111v-495h-111z" />
    <glyph glyph-name="Jcircumflex" unicode="&#x134;" horiz-adv-x="566" 
d="M22 121l84 64q50 -89 138 -89q65 0 104 41t39 126v385h116v-383q0 -140 -71.5 -207.5t-184.5 -67.5q-74 0 -134 33.5t-91 97.5zM283 692l102 148h113l102 -148h-85l-74 91l-73 -91h-85z" />
    <glyph glyph-name="jcircumflex" unicode="&#x135;" horiz-adv-x="235" 
d="M18 -181l-38 82q82 45 82 171v423h111v-408q0 -194 -155 -268zM-42 564l102 148h113l102 -148h-85l-74 91l-73 -91h-85z" />
    <glyph glyph-name="Kcommaaccent" unicode="&#x136;" horiz-adv-x="662" 
d="M72 0v648h116v-383q42 60 70 94l232 289h137l-239 -303l264 -345h-136l-201 265l-127 -153v-112h-116zM218 -235q59 62 59 126q0 16 -14 44l73 26q19 -27 19 -57q0 -80 -75 -139h-62z" />
    <glyph glyph-name="kcommaaccent" unicode="&#x137;" horiz-adv-x="546" 
d="M62 0v658h111v-396l195 233h137l-195 -221l231 -274h-135l-163 197l-70 -83v-114h-111zM182 -235q59 62 59 126q0 16 -14 44l73 26q19 -27 19 -57q0 -80 -75 -139h-62z" />
    <glyph glyph-name="Lacute" unicode="&#x139;" horiz-adv-x="609" 
d="M72 0v648h116v-548h388v-100h-504zM71 693l89 147h114l-104 -147h-99z" />
    <glyph glyph-name="lacute" unicode="&#x13a;" horiz-adv-x="235" 
d="M62 0v658h111v-658h-111zM51 738l89 147h114l-104 -147h-99z" />
    <glyph glyph-name="Lcommaaccent" unicode="&#x13b;" horiz-adv-x="609" 
d="M72 0v648h116v-548h388v-100h-504zM260 -235q59 62 59 126q0 16 -14 44l73 26q19 -27 19 -57q0 -80 -75 -139h-62z" />
    <glyph glyph-name="lcommaaccent" unicode="&#x13c;" horiz-adv-x="235" 
d="M62 0v658h111v-658h-111zM36 -235q59 62 59 126q0 16 -14 44l73 26q19 -27 19 -57q0 -80 -75 -139h-62z" />
    <glyph glyph-name="Lcaron" unicode="&#x13d;" horiz-adv-x="609" 
d="M72 0v648h116v-548h388v-100h-504zM243 455q61 66 61 135q0 16 -14 47l76 27q19 -28 19 -61q0 -83 -78 -148h-64z" />
    <glyph glyph-name="lcaron" unicode="&#x13e;" horiz-adv-x="235" 
d="M62 0v658h111v-658h-111zM190 471q59 62 59 126q0 16 -14 44l73 26q19 -27 19 -57q0 -80 -75 -139h-62z" />
    <glyph glyph-name="Lslash" unicode="&#x141;" horiz-adv-x="609" 
d="M72 0v279l-73 -32v92l73 31v278h116v-228l171 73v-91l-171 -74v-228h388v-100h-504z" />
    <glyph glyph-name="lslash" unicode="&#x142;" horiz-adv-x="235" 
d="M62 0v337l-55 -24v92l55 23v230h111v-182l55 24v-91l-55 -25v-384h-111z" />
    <glyph glyph-name="Nacute" unicode="&#x143;" horiz-adv-x="709" 
d="M72 0v648h118l232 -318q20 -28 45 -66.5t39 -62.5l15 -24v471h116v-648h-120l-221 302q-25 34 -52 75.5t-42 65.5l-14 24v-467h-116zM287 693l89 147h114l-104 -147h-99z" />
    <glyph glyph-name="nacute" unicode="&#x144;" horiz-adv-x="564" 
d="M62 0v495h111v-71q54 81 160 81q96 0 137 -57.5t41 -163.5v-284h-111v270q0 66 -21 97t-80 31q-55 0 -90.5 -39t-35.5 -100v-259h-111zM208 567l89 147h114l-104 -147h-99z" />
    <glyph glyph-name="Ncommaaccent" unicode="&#x145;" horiz-adv-x="709" 
d="M72 0v648h118l232 -318q20 -28 45 -66.5t39 -62.5l15 -24v471h116v-648h-120l-221 302q-25 34 -52 75.5t-42 65.5l-14 24v-467h-116zM285 -235q59 62 59 126q0 16 -14 44l73 26q19 -27 19 -57q0 -80 -75 -139h-62z" />
    <glyph glyph-name="ncommaaccent" unicode="&#x146;" horiz-adv-x="564" 
d="M62 0v495h111v-71q54 81 160 81q96 0 137 -57.5t41 -163.5v-284h-111v270q0 66 -21 97t-80 31q-55 0 -90.5 -39t-35.5 -100v-259h-111zM210 -235q59 62 59 126q0 16 -14 44l73 26q19 -27 19 -57q0 -80 -75 -139h-62z" />
    <glyph glyph-name="Ncaron" unicode="&#x147;" horiz-adv-x="709" 
d="M72 0v648h118l232 -318q20 -28 45 -66.5t39 -62.5l15 -24v471h116v-648h-120l-221 302q-25 34 -52 75.5t-42 65.5l-14 24v-467h-116zM298 692l-103 148h85l74 -91l74 91h85l-102 -148h-113z" />
    <glyph glyph-name="ncaron" unicode="&#x148;" horiz-adv-x="564" 
d="M62 0v495h111v-71q54 81 160 81q96 0 137 -57.5t41 -163.5v-284h-111v270q0 66 -21 97t-80 31q-55 0 -90.5 -39t-35.5 -100v-259h-111zM231 564l-103 148h85l74 -91l74 91h85l-102 -148h-113z" />
    <glyph glyph-name="Eng" unicode="&#x14a;" horiz-adv-x="709" 
d="M72 0v648h118l239 -327q19 -25 42 -61t37 -60l13 -23v471h116v-639q0 -76 -53.5 -137t-142.5 -84l-27 89q96 34 101 126l-226 307q-24 32 -49 71t-38 63l-14 23v-467h-116z" />
    <glyph glyph-name="eng" unicode="&#x14b;" horiz-adv-x="564" 
d="M62 0v495h111v-71q54 81 160 81q96 0 137 -57.5t41 -163.5v-226q0 -98 -56 -169t-142 -96l-27 88q51 19 82.5 64t31.5 111v214q0 64 -23.5 96t-77.5 32q-55 0 -90.5 -39t-35.5 -100v-259h-111z" />
    <glyph glyph-name="Omacron" unicode="&#x14c;" horiz-adv-x="766" 
d="M384 94q93 0 156 67.5t63 162.5t-63 162t-156 67q-94 0 -157.5 -67t-63.5 -162t63.5 -162.5t157.5 -67.5zM383 658q146 0 243.5 -97t97.5 -237q0 -141 -97.5 -238t-243.5 -97t-243.5 97t-97.5 238q0 140 97.5 237t243.5 97zM273 703v81h221v-81h-221z" />
    <glyph glyph-name="omacron" unicode="&#x14d;" horiz-adv-x="600" 
d="M37 247q0 107 77 182.5t186 75.5t186 -75.5t77 -182.5q0 -106 -77 -181.5t-186 -75.5t-186 75.5t-77 181.5zM150 247q0 -63 44 -106.5t106 -43.5t106 43.5t44 106.5q0 62 -44 106.5t-106 44.5t-106 -44.5t-44 -106.5zM189 566v81h221v-81h-221z" />
    <glyph glyph-name="Obreve" unicode="&#x14e;" horiz-adv-x="766" 
d="M384 94q93 0 156 67.5t63 162.5t-63 162t-156 67q-94 0 -157.5 -67t-63.5 -162t63.5 -162.5t157.5 -67.5zM383 658q146 0 243.5 -97t97.5 -237q0 -141 -97.5 -238t-243.5 -97t-243.5 97t-97.5 238q0 140 97.5 237t243.5 97zM384 688q-53 0 -85.5 35.5t-32.5 86.5h60
q1 -23 18 -38t40 -15t39 15t17 38h62q0 -51 -32.5 -86.5t-85.5 -35.5z" />
    <glyph glyph-name="obreve" unicode="&#x14f;" horiz-adv-x="600" 
d="M37 247q0 107 77 182.5t186 75.5t186 -75.5t77 -182.5q0 -106 -77 -181.5t-186 -75.5t-186 75.5t-77 181.5zM150 247q0 -63 44 -106.5t106 -43.5t106 43.5t44 106.5q0 62 -44 106.5t-106 44.5t-106 -44.5t-44 -106.5zM300 555q-53 0 -85.5 35.5t-32.5 86.5h60
q1 -23 18 -38t40 -15t39 15t17 38h62q0 -51 -32.5 -86.5t-85.5 -35.5z" />
    <glyph glyph-name="Ohungarumlaut" unicode="&#x150;" horiz-adv-x="766" 
d="M384 94q93 0 156 67.5t63 162.5t-63 162t-156 67q-94 0 -157.5 -67t-63.5 -162t63.5 -162.5t157.5 -67.5zM383 658q146 0 243.5 -97t97.5 -237q0 -141 -97.5 -238t-243.5 -97t-243.5 97t-97.5 238q0 140 97.5 237t243.5 97zM259 693l75 134h113l-109 -134h-79zM411 693
l75 134h114l-109 -134h-80z" />
    <glyph glyph-name="ohungarumlaut" unicode="&#x151;" horiz-adv-x="600" 
d="M37 247q0 107 77 182.5t186 75.5t186 -75.5t77 -182.5q0 -106 -77 -181.5t-186 -75.5t-186 75.5t-77 181.5zM150 247q0 -63 44 -106.5t106 -43.5t106 43.5t44 106.5q0 62 -44 106.5t-106 44.5t-106 -44.5t-44 -106.5zM160 561l75 134h113l-109 -134h-79zM312 561l75 134
h114l-109 -134h-80z" />
    <glyph glyph-name="OE" unicode="&#x152;" horiz-adv-x="1058" 
d="M42 324q0 140 97.5 237t243.5 97q92 0 170 -54v44h458v-100h-342v-158h320v-99h-320v-191h356v-100h-472v43q-74 -54 -170 -54q-146 0 -243.5 97t-97.5 238zM163 324q0 -95 65.5 -162.5t163.5 -67.5q102 0 161 66v325q-59 68 -161 68q-98 0 -163.5 -67t-65.5 -162z" />
    <glyph glyph-name="oe" unicode="&#x153;" horiz-adv-x="975" 
d="M37 247q0 107 77 182.5t186 75.5q62 0 115 -30t87 -81q32 51 84 81t113 30q99 0 169 -75t70 -179l-3 -43h-375q12 -59 54.5 -91t100.5 -32q76 0 139 47l45 -83q-76 -59 -182 -59q-69 0 -127.5 29t-88.5 81q-33 -51 -86.5 -80.5t-114.5 -29.5q-109 0 -186 75.5t-77 181.5z
M150 247q0 -63 44 -106.5t106 -43.5t106 43.5t44 106.5q0 62 -44 106.5t-106 44.5t-106 -44.5t-44 -106.5zM558 290h271q-7 53 -45.5 85.5t-90.5 32.5q-48 0 -86 -32.5t-49 -85.5z" />
    <glyph glyph-name="Racute" unicode="&#x154;" horiz-adv-x="677" 
d="M72 0v648h272q138 0 212 -69.5t74 -177.5q0 -67 -35 -125t-98 -87l142 -189h-142l-113 156q-29 -2 -103 -2h-93v-154h-116zM188 254h163q72 0 115 42t43 105t-43 105t-114 42h-164v-294zM231 693l89 147h114l-104 -147h-99z" />
    <glyph glyph-name="racute" unicode="&#x155;" horiz-adv-x="372" 
d="M62 0v495h111v-98q17 44 61.5 76t117.5 32v-121q-179 0 -179 -182v-202h-111zM124 567l89 147h114l-104 -147h-99z" />
    <glyph glyph-name="Rcommaaccent" unicode="&#x156;" horiz-adv-x="677" 
d="M72 0v648h272q138 0 212 -69.5t74 -177.5q0 -67 -35 -125t-98 -87l142 -189h-142l-113 156q-29 -2 -103 -2h-93v-154h-116zM188 254h163q72 0 115 42t43 105t-43 105t-114 42h-164v-294zM230 -235q59 62 59 126q0 16 -14 44l73 26q19 -27 19 -57q0 -80 -75 -139h-62z" />
    <glyph glyph-name="rcommaaccent" unicode="&#x157;" horiz-adv-x="372" 
d="M62 0v495h111v-98q17 44 61.5 76t117.5 32v-121q-179 0 -179 -182v-202h-111zM40 -235q59 62 59 126q0 16 -14 44l73 26q19 -27 19 -57q0 -80 -75 -139h-62z" />
    <glyph glyph-name="Rcaron" unicode="&#x158;" horiz-adv-x="677" 
d="M72 0v648h272q138 0 212 -69.5t74 -177.5q0 -67 -35 -125t-98 -87l142 -189h-142l-113 156q-29 -2 -103 -2h-93v-154h-116zM188 254h163q72 0 115 42t43 105t-43 105t-114 42h-164v-294zM254 692l-103 148h85l74 -91l74 91h85l-102 -148h-113z" />
    <glyph glyph-name="rcaron" unicode="&#x159;" horiz-adv-x="372" 
d="M62 0v495h111v-98q17 44 61.5 76t117.5 32v-121q-179 0 -179 -182v-202h-111zM149 564l-103 148h85l74 -91l74 91h85l-102 -148h-113z" />
    <glyph glyph-name="Sacute" unicode="&#x15a;" horiz-adv-x="606" 
d="M42 83l45 88q94 -76 215 -76q56 0 98 25t42 67q0 28 -22 47.5t-45 27.5t-66 18t-72 18.5t-64 25t-56 35.5t-35.5 49t-14.5 67q0 86 69 134.5t166 48.5q127 0 230 -70l-45 -89q-85 54 -185 54q-25 0 -50 -6.5t-46 -25t-21 -45.5q0 -35 32.5 -53t103.5 -35q53 -12 91 -26.5
t75 -37t56.5 -57.5t19.5 -80q0 -95 -78 -146t-184 -51q-159 0 -259 93zM244 693l89 147h114l-104 -147h-99z" />
    <glyph glyph-name="sacute" unicode="&#x15b;" horiz-adv-x="484" 
d="M37 62l42 91q73 -59 157 -59q38 0 68 14t30 38q0 6 -1.5 11t-5.5 9.5t-7.5 8t-10.5 6.5t-12.5 5.5t-14.5 5t-14.5 4.5t-16 4.5t-16.5 4.5q-42 12 -68 21.5t-53 26.5t-40 42.5t-13 60.5q0 68 57 108.5t129 40.5q91 0 177 -51l-41 -90q-65 37 -135 37q-29 0 -51.5 -12
t-22.5 -31q0 -16 14 -26.5t28 -14.5t43 -10q84 -18 136 -54t52 -105q0 -79 -65 -118.5t-146 -39.5q-68 0 -119.5 22.5t-79.5 49.5zM181 567l89 147h114l-104 -147h-99z" />
    <glyph glyph-name="Scircumflex" unicode="&#x15c;" horiz-adv-x="606" 
d="M42 83l45 88q94 -76 215 -76q56 0 98 25t42 67q0 28 -22 47.5t-45 27.5t-66 18t-72 18.5t-64 25t-56 35.5t-35.5 49t-14.5 67q0 86 69 134.5t166 48.5q127 0 230 -70l-45 -89q-85 54 -185 54q-25 0 -50 -6.5t-46 -25t-21 -45.5q0 -35 32.5 -53t103.5 -35q53 -12 91 -26.5
t75 -37t56.5 -57.5t19.5 -80q0 -95 -78 -146t-184 -51q-159 0 -259 93zM146 692l102 148h113l102 -148h-85l-74 91l-73 -91h-85z" />
    <glyph glyph-name="scircumflex" unicode="&#x15d;" horiz-adv-x="484" 
d="M37 62l42 91q73 -59 157 -59q38 0 68 14t30 38q0 6 -1.5 11t-5.5 9.5t-7.5 8t-10.5 6.5t-12.5 5.5t-14.5 5t-14.5 4.5t-16 4.5t-16.5 4.5q-42 12 -68 21.5t-53 26.5t-40 42.5t-13 60.5q0 68 57 108.5t129 40.5q91 0 177 -51l-41 -90q-65 37 -135 37q-29 0 -51.5 -12
t-22.5 -31q0 -16 14 -26.5t28 -14.5t43 -10q84 -18 136 -54t52 -105q0 -79 -65 -118.5t-146 -39.5q-68 0 -119.5 22.5t-79.5 49.5zM91 564l102 148h113l102 -148h-85l-74 91l-73 -91h-85z" />
    <glyph glyph-name="Scedilla" unicode="&#x15e;" horiz-adv-x="606" 
d="M193 -187l27 45q41 -23 82 -23q27 0 44 14.5t17 31.5q0 28 -37 28q-32 0 -46 -27l-57 20l53 89q-144 7 -234 92l45 88q94 -76 215 -76q56 0 98 25t42 67q0 28 -22 47.5t-45 27.5t-66 18t-72 18.5t-64 25t-56 35.5t-35.5 49t-14.5 67q0 86 69 134.5t166 48.5
q127 0 230 -70l-45 -89q-85 54 -185 54q-25 0 -50 -6.5t-46 -25t-21 -45.5q0 -35 32.5 -53t103.5 -35q53 -12 91 -26.5t75 -37t56.5 -57.5t19.5 -80q0 -85 -63.5 -135t-156.5 -59l-25 -44q16 6 29 6q38 0 61.5 -21t23.5 -52q0 -40 -35 -69.5t-94 -29.5q-68 0 -110 30z" />
    <glyph glyph-name="scedilla" unicode="&#x15f;" horiz-adv-x="484" 
d="M131 -187l27 45q41 -23 82 -23q27 0 44 14.5t17 31.5q0 28 -37 28q-32 0 -46 -27l-57 20l53 89q-60 4 -106 25.5t-71 45.5l42 91q73 -59 157 -59q38 0 68 14t30 38q0 6 -1.5 11t-5.5 9.5t-7.5 8t-10.5 6.5t-12.5 5.5t-14.5 5t-14.5 4.5t-16 4.5t-16.5 4.5
q-42 12 -68 21.5t-53 26.5t-40 42.5t-13 60.5q0 68 57 108.5t129 40.5q91 0 177 -51l-41 -90q-65 37 -135 37q-29 0 -51.5 -12t-22.5 -31q0 -16 14 -26.5t28 -14.5t43 -10q84 -18 136 -54t52 -105q0 -68 -48 -106.5t-118 -47.5l-25 -45q16 6 29 6q38 0 61.5 -21t23.5 -52
q0 -40 -35 -69.5t-94 -29.5q-68 0 -110 30z" />
    <glyph glyph-name="Scaron" unicode="&#x160;" horiz-adv-x="606" 
d="M42 83l45 88q94 -76 215 -76q56 0 98 25t42 67q0 28 -22 47.5t-45 27.5t-66 18t-72 18.5t-64 25t-56 35.5t-35.5 49t-14.5 67q0 86 69 134.5t166 48.5q127 0 230 -70l-45 -89q-85 54 -185 54q-25 0 -50 -6.5t-46 -25t-21 -45.5q0 -35 32.5 -53t103.5 -35q53 -12 91 -26.5
t75 -37t56.5 -57.5t19.5 -80q0 -95 -78 -146t-184 -51q-159 0 -259 93zM248 692l-103 148h85l74 -91l74 91h85l-102 -148h-113z" />
    <glyph glyph-name="scaron" unicode="&#x161;" horiz-adv-x="484" 
d="M37 62l42 91q73 -59 157 -59q38 0 68 14t30 38q0 6 -1.5 11t-5.5 9.5t-7.5 8t-10.5 6.5t-12.5 5.5t-14.5 5t-14.5 4.5t-16 4.5t-16.5 4.5q-42 12 -68 21.5t-53 26.5t-40 42.5t-13 60.5q0 68 57 108.5t129 40.5q91 0 177 -51l-41 -90q-65 37 -135 37q-29 0 -51.5 -12
t-22.5 -31q0 -16 14 -26.5t28 -14.5t43 -10q84 -18 136 -54t52 -105q0 -79 -65 -118.5t-146 -39.5q-68 0 -119.5 22.5t-79.5 49.5zM194 564l-103 148h85l74 -91l74 91h85l-102 -148h-113z" />
    <glyph glyph-name="Tcommaaccent" unicode="&#x162;" horiz-adv-x="612" 
d="M248 0v548h-228v100h572v-100h-228v-548h-116zM223 -235q59 62 59 126q0 16 -14 44l73 26q19 -27 19 -57q0 -80 -75 -139h-62z" />
    <glyph glyph-name="tcommaaccent" unicode="&#x163;" horiz-adv-x="371" 
d="M84 159v245h-73v91h73v97l111 23v-120h149v-91h-149v-248q0 -70 53 -70q17 0 35 6t27 12l10 6l33 -83q-57 -37 -119 -37q-150 0 -150 169zM123 -235q59 62 59 126q0 16 -14 44l73 26q19 -27 19 -57q0 -80 -75 -139h-62z" />
    <glyph glyph-name="Tcaron" unicode="&#x164;" horiz-adv-x="612" 
d="M248 0v548h-228v100h572v-100h-228v-548h-116zM250 692l-103 148h85l74 -91l74 91h85l-102 -148h-113z" />
    <glyph glyph-name="tcaron" unicode="&#x165;" horiz-adv-x="371" 
d="M84 159v245h-73v91h73v97l111 23v-120h149v-91h-149v-248q0 -70 53 -70q17 0 35 6t27 12l10 6l33 -83q-57 -37 -119 -37q-150 0 -150 169zM230 531q55 47 55 96q0 10 -13 33l68 20q18 -18 18 -43q0 -62 -70 -106h-58z" />
    <glyph glyph-name="Tbar" unicode="&#x166;" horiz-adv-x="612" 
d="M248 0v337h-146v76h146v135h-228v100h572v-100h-228v-135h146v-76h-146v-337h-116z" />
    <glyph glyph-name="tbar" unicode="&#x167;" horiz-adv-x="371" 
d="M84 165v83h-54v57h54v99h-77v91h77v97l111 23v-120h149v-91h-149v-99h112v-57h-112v-92q0 -70 53 -70q17 0 35 6t27 12l10 6l33 -83q-55 -37 -119 -37q-150 0 -150 175z" />
    <glyph glyph-name="Utilde" unicode="&#x168;" horiz-adv-x="673" 
d="M336 -10q-115 0 -194.5 73t-79.5 190v395h116v-391q0 -71 46 -116.5t112 -45.5t112 45.5t46 116.5v391h116v-395q0 -117 -79.5 -190t-194.5 -73zM185 688q0 54 23 87t59 33q33 0 75.5 -25t52.5 -25q32 0 32 50h61q0 -54 -22.5 -87t-59.5 -33q-32 0 -75 25.5t-53 25.5
q-31 0 -31 -51h-62z" />
    <glyph glyph-name="utilde" unicode="&#x169;" horiz-adv-x="561" 
d="M52 204v291h111v-271q0 -64 24 -95.5t81 -31.5q56 0 88 37t32 106v255h111v-495h-111v69q-55 -79 -153 -79q-96 0 -139.5 61t-43.5 153zM125 562q0 54 23 87t59 33q33 0 75.5 -25t52.5 -25q32 0 32 50h61q0 -54 -22.5 -87t-59.5 -33q-32 0 -75 25.5t-53 25.5
q-31 0 -31 -51h-62z" />
    <glyph glyph-name="Umacron" unicode="&#x16a;" horiz-adv-x="673" 
d="M336 -10q-115 0 -194.5 73t-79.5 190v395h116v-391q0 -71 46 -116.5t112 -45.5t112 45.5t46 116.5v391h116v-395q0 -117 -79.5 -190t-194.5 -73zM226 703v81h221v-81h-221z" />
    <glyph glyph-name="umacron" unicode="&#x16b;" horiz-adv-x="561" 
d="M52 204v291h111v-271q0 -64 24 -95.5t81 -31.5q56 0 88 37t32 106v255h111v-495h-111v69q-55 -79 -153 -79q-96 0 -139.5 61t-43.5 153zM166 566v81h221v-81h-221z" />
    <glyph glyph-name="Ubreve" unicode="&#x16c;" horiz-adv-x="673" 
d="M336 -10q-115 0 -194.5 73t-79.5 190v395h116v-391q0 -71 46 -116.5t112 -45.5t112 45.5t46 116.5v391h116v-395q0 -117 -79.5 -190t-194.5 -73zM337 688q-53 0 -85.5 35.5t-32.5 86.5h60q1 -23 18 -38t40 -15t39 15t17 38h62q0 -51 -32.5 -86.5t-85.5 -35.5z" />
    <glyph glyph-name="ubreve" unicode="&#x16d;" horiz-adv-x="561" 
d="M52 204v291h111v-271q0 -64 24 -95.5t81 -31.5q56 0 88 37t32 106v255h111v-495h-111v69q-55 -79 -153 -79q-96 0 -139.5 61t-43.5 153zM277 555q-53 0 -85.5 35.5t-32.5 86.5h60q1 -23 18 -38t40 -15t39 15t17 38h62q0 -51 -32.5 -86.5t-85.5 -35.5z" />
    <glyph glyph-name="Uring" unicode="&#x16e;" horiz-adv-x="673" 
d="M336 -10q-115 0 -194.5 73t-79.5 190v395h116v-391q0 -71 46 -116.5t112 -45.5t112 45.5t46 116.5v391h116v-395q0 -117 -79.5 -190t-194.5 -73zM232 778q0 44 31 74.5t74 30.5t74 -31t31 -74t-31 -74t-74 -31t-74 30.5t-31 74.5zM287 778q0 -21 14.5 -37t35.5 -16
t35.5 16t14.5 37t-14.5 37t-35.5 16t-35.5 -16t-14.5 -37z" />
    <glyph glyph-name="uring" unicode="&#x16f;" horiz-adv-x="561" 
d="M52 204v291h111v-271q0 -64 24 -95.5t81 -31.5q56 0 88 37t32 106v255h111v-495h-111v69q-55 -79 -153 -79q-96 0 -139.5 61t-43.5 153zM172 635q0 43 31 74t74 31t74 -31t31 -74t-31 -74t-74 -31t-74 31t-31 74zM227 635q0 -21 14.5 -37t35.5 -16t35.5 16t14.5 37
t-14.5 37t-35.5 16t-35.5 -16t-14.5 -37z" />
    <glyph glyph-name="Uhungarumlaut" unicode="&#x170;" horiz-adv-x="673" 
d="M336 -10q-115 0 -194.5 73t-79.5 190v395h116v-391q0 -71 46 -116.5t112 -45.5t112 45.5t46 116.5v391h116v-395q0 -117 -79.5 -190t-194.5 -73zM204 692l75 134h113l-109 -134h-79zM356 692l75 134h114l-109 -134h-80z" />
    <glyph glyph-name="uhungarumlaut" unicode="&#x171;" horiz-adv-x="561" 
d="M52 204v291h111v-271q0 -64 24 -95.5t81 -31.5q56 0 88 37t32 106v255h111v-495h-111v69q-55 -79 -153 -79q-96 0 -139.5 61t-43.5 153zM131 561l75 134h113l-109 -134h-79zM283 561l75 134h114l-109 -134h-80z" />
    <glyph glyph-name="Uogonek" unicode="&#x172;" horiz-adv-x="673" 
d="M310 -128q0 63 41 119q-5 -1 -15 -1q-115 0 -194.5 73t-79.5 190v395h116v-391q0 -71 46 -116.5t112 -45.5t112 45.5t46 116.5v391h116v-395q0 -92 -51 -158.5t-134 -91.5q-19 -16 -32 -44t-13 -53q0 -26 16 -42t40 -16q14 0 36 9l18 -48q-41 -29 -86 -29q-38 0 -66 24.5
t-28 67.5z" />
    <glyph glyph-name="uogonek" unicode="&#x173;" horiz-adv-x="561" 
d="M334 -128q0 74 54 133v64q-55 -79 -153 -79q-96 0 -139.5 61t-43.5 153v291h111v-271q0 -64 24 -95.5t81 -31.5q56 0 88 37t32 106v255h111v-495h-53q-18 -17 -30 -43.5t-12 -50.5q0 -26 16 -42t40 -16q14 0 36 9l18 -48q-41 -29 -86 -29q-38 0 -66 24.5t-28 67.5z" />
    <glyph glyph-name="Wcircumflex" unicode="&#x174;" horiz-adv-x="940" 
d="M216 -1l-206 649h116l123 -390l30 -108l27 108l102 390h124l102 -390l26 -108q15 56 31 108l123 390h116l-207 -649h-123l-104 375q-7 25 -13.5 57t-9.5 51l-3 20q-11 -72 -26 -128l-104 -375h-124zM312 692l102 148h113l102 -148h-85l-74 91l-73 -91h-85z" />
    <glyph glyph-name="wcircumflex" unicode="&#x175;" horiz-adv-x="725" 
d="M168 -1l-163 496h108l88 -274q6 -18 10.5 -41t6.5 -38l2 -14q5 53 15 92l73 275h109l73 -275q4 -17 8 -40t6 -38l1 -14q6 53 19 93l88 274h108l-163 -496h-100l-77 275l-17 92q-7 -55 -17 -92l-78 -275h-100zM204 564l102 148h113l102 -148h-85l-74 91l-73 -91h-85z" />
    <glyph glyph-name="Ycircumflex" unicode="&#x176;" horiz-adv-x="636" 
d="M261 0v299l-251 349h133l98 -132l78 -118q52 80 79 118l95 132h133l-249 -348v-300h-116zM161 692l102 148h113l102 -148h-85l-74 91l-73 -91h-85z" />
    <glyph glyph-name="ycircumflex" unicode="&#x177;" horiz-adv-x="536" 
d="M102 -147v104q44 0 67.5 16t41.5 55l10 20l-214 447h114l119 -264l32 -78l32 83l107 259h112l-226 -517q-55 -125 -195 -125zM113 564l102 148h113l102 -148h-85l-74 91l-73 -91h-85z" />
    <glyph glyph-name="Ydieresis" unicode="&#x178;" horiz-adv-x="636" 
d="M261 0v299l-251 349h133l98 -132l78 -118q52 80 79 118l95 132h133l-249 -348v-300h-116zM174 745q0 23 16.5 39.5t39.5 16.5t39.5 -16.5t16.5 -39.5t-16.5 -39.5t-39.5 -16.5t-39.5 16.5t-16.5 39.5zM352 745q0 23 16.5 39.5t39.5 16.5t39.5 -16.5t16.5 -39.5
t-16.5 -39.5t-39.5 -16.5t-39.5 16.5t-16.5 39.5z" />
    <glyph glyph-name="Zacute" unicode="&#x179;" horiz-adv-x="602" 
d="M32 0v88l322 391q16 20 32 37.5t24 24.5l8 7h-369v100h511v-89l-311 -378l-72 -81h393v-100h-538zM232 693l89 147h114l-104 -147h-99z" />
    <glyph glyph-name="zacute" unicode="&#x17a;" horiz-adv-x="458" 
d="M22 0v82l191 237l71 78h-252v98h390v-82l-190 -231l-75 -84h273v-98h-408zM158 567l89 147h114l-104 -147h-99z" />
    <glyph glyph-name="Zdotaccent" unicode="&#x17b;" horiz-adv-x="602" 
d="M32 0v88l322 391q16 20 32 37.5t24 24.5l8 7h-369v100h511v-89l-311 -378l-72 -81h393v-100h-538zM233 756q0 28 19.5 48t47.5 20t48 -20t20 -48t-20 -47.5t-48 -19.5t-47.5 19.5t-19.5 47.5z" />
    <glyph glyph-name="zdotaccent" unicode="&#x17c;" horiz-adv-x="452" 
d="M22 0v82l191 237l71 78h-252v98h390v-82l-190 -231l-75 -84h273v-98h-408zM159 627q0 28 19.5 48t47.5 20t48 -20t20 -48t-20 -47.5t-48 -19.5t-47.5 19.5t-19.5 47.5z" />
    <glyph glyph-name="Zcaron" unicode="&#x17d;" horiz-adv-x="602" 
d="M32 0v88l322 391q16 20 32 37.5t24 24.5l8 7h-369v100h511v-89l-311 -378l-72 -81h393v-100h-538zM245 692l-103 148h85l74 -91l74 91h85l-102 -148h-113z" />
    <glyph glyph-name="zcaron" unicode="&#x17e;" horiz-adv-x="455" 
d="M22 0v82l191 237l71 78h-252v98h390v-82l-190 -231l-75 -84h273v-98h-408zM171 564l-103 148h85l74 -91l74 91h85l-102 -148h-113z" />
    <glyph glyph-name="florin" unicode="&#x192;" 
d="M-28 -52l57 68q27 -31 62 -31q50 0 66 57l79 299h-68l22 77h67l32 114q36 126 136 126q27 0 56 -10t45 -20l15 -9l-33 -76q-23 18 -51 18q-44 0 -61 -64l-22 -79h115l-21 -77h-115l-79 -296q-24 -87 -67 -123.5t-107 -36.5q-45 0 -78 20t-50 43z" />
    <glyph glyph-name="Aringacute" unicode="&#x1fa;" horiz-adv-x="706" 
d="M6 0l292 648h110l292 -648h-118l-51 112h-356l-51 -112h-118zM248 776q0 56 47 88l76 144h99l-82 -133q31 -11 50.5 -38.5t19.5 -60.5q0 -43 -31 -74t-74 -31t-74 30.5t-31 74.5zM215 204h276l-76 164q-19 42 -62 156q0 -1 -9.5 -26.5t-24.5 -63.5t-28 -66zM303 776
q0 -21 14.5 -37t35.5 -16t35.5 16t14.5 37t-14.5 37t-35.5 16t-35.5 -16t-14.5 -37z" />
    <glyph glyph-name="aringacute" unicode="&#x1fb;" horiz-adv-x="604" 
d="M37 247q0 109 65.5 183.5t167.5 74.5q101 0 161 -88v78h111v-495h-111v77q-59 -87 -161 -87t-167.5 74.5t-65.5 182.5zM150 247q0 -65 40.5 -107.5t103.5 -42.5q59 0 98 42t39 108q0 65 -39 108t-98 43q-63 0 -103.5 -43t-40.5 -108zM182 655q0 56 47 88l76 144h99
l-82 -133q31 -11 50.5 -38.5t19.5 -60.5q0 -43 -31 -74t-74 -31t-74 31t-31 74zM237 655q0 -21 14.5 -37t35.5 -16t35.5 16t14.5 37t-14.5 37t-35.5 16t-35.5 -16t-14.5 -37z" />
    <glyph glyph-name="AEacute" unicode="&#x1fc;" horiz-adv-x="968" 
d="M6 0l408 648h508v-100h-343v-158h320v-99h-320v-191h357v-100h-473v112h-259l-70 -112h-128zM261 204h202v345q-21 -45 -53 -98zM558 693l89 147h114l-104 -147h-99z" />
    <glyph glyph-name="aeacute" unicode="&#x1fd;" horiz-adv-x="916" 
d="M37 140q0 60 39 100t94 55.5t123 15.5q46 0 86 -5q-9 103 -118 103q-37 0 -72.5 -8.5t-52.5 -17.5l-16 -9l-38 78q8 6 22 15t59.5 23.5t93.5 14.5q135 0 190 -108q33 50 84.5 79t112.5 29q99 0 169 -75t70 -179l-4 -43h-375q12 -57 57.5 -89.5t105.5 -32.5q76 0 133 43
l42 -83q-78 -56 -182 -56q-71 0 -129.5 28t-85.5 80q-33 -50 -91.5 -79t-130.5 -29q-89 0 -137.5 40.5t-48.5 109.5zM146 151q0 -32 24.5 -49.5t60.5 -17.5q76 0 116 37.5t40 85.5v21q-21 4 -94 4q-61 0 -104 -20t-43 -61zM503 290h271q-7 53 -45.5 85.5t-90.5 32.5
q-48 0 -86 -32.5t-49 -85.5zM367 567l89 147h114l-104 -147h-99z" />
    <glyph glyph-name="Oslashacute" unicode="&#x1fe;" horiz-adv-x="766" 
d="M325 693l89 147h114l-104 -147h-99zM383 658q79 0 150 -33l55 92l47 -28l-54 -91q67 -46 105 -117.5t38 -156.5q0 -141 -97.5 -238t-243.5 -97q-80 0 -148 31l-55 -91l-48 29l54 90q-67 45 -105.5 118t-38.5 158q0 140 97.5 237t243.5 97zM163 324q0 -111 81 -179
l233 387q-45 21 -93 21q-94 0 -157.5 -67t-63.5 -162zM384 94q93 0 156 67.5t63 162.5q0 108 -80 177l-232 -387q43 -20 93 -20z" />
    <glyph glyph-name="oslashacute" unicode="&#x1ff;" horiz-adv-x="600" 
d="M234 567l89 147h114l-104 -147h-99zM37 247q0 107 77 182.5t186 75.5q54 0 107 -24l47 80l47 -28l-47 -78q50 -35 79.5 -90t29.5 -118q0 -106 -77 -181.5t-186 -75.5q-57 0 -111 24l-44 -75l-47 28l45 74q-49 36 -77.5 90t-28.5 116zM245 107q24 -10 55 -10q62 0 106 44
t44 106q0 70 -53 115zM150 247q0 -68 49 -111l152 253q-29 9 -51 9q-62 0 -106 -44.5t-44 -106.5z" />
    <glyph glyph-name="Scommaaccent" unicode="&#x218;" horiz-adv-x="606" 
d="M42 83l45 88q94 -76 215 -76q56 0 98 25t42 67q0 28 -22 47.5t-45 27.5t-66 18t-72 18.5t-64 25t-56 35.5t-35.5 49t-14.5 67q0 86 69 134.5t166 48.5q127 0 230 -70l-45 -89q-85 54 -185 54q-25 0 -50 -6.5t-46 -25t-21 -45.5q0 -35 32.5 -53t103.5 -35q53 -12 91 -26.5
t75 -37t56.5 -57.5t19.5 -80q0 -95 -78 -146t-184 -51q-159 0 -259 93zM223 -235q59 62 59 126q0 16 -14 44l73 26q19 -27 19 -57q0 -80 -75 -139h-62z" />
    <glyph glyph-name="scommaaccent" unicode="&#x219;" horiz-adv-x="484" 
d="M37 62l42 91q73 -59 157 -59q38 0 68 14t30 38q0 6 -1.5 11t-5.5 9.5t-7.5 8t-10.5 6.5t-12.5 5.5t-14.5 5t-14.5 4.5t-16 4.5t-16.5 4.5q-42 12 -68 21.5t-53 26.5t-40 42.5t-13 60.5q0 68 57 108.5t129 40.5q91 0 177 -51l-41 -90q-65 37 -135 37q-29 0 -51.5 -12
t-22.5 -31q0 -16 14 -26.5t28 -14.5t43 -10q84 -18 136 -54t52 -105q0 -79 -65 -118.5t-146 -39.5q-68 0 -119.5 22.5t-79.5 49.5zM161 -235q59 62 59 126q0 16 -14 44l73 26q19 -27 19 -57q0 -80 -75 -139h-62z" />
    <glyph glyph-name="circumflex" unicode="&#x2c6;" horiz-adv-x="375" 
d="M29 564l102 148h113l102 -148h-85l-74 91l-73 -91h-85z" />
    <glyph glyph-name="caron" unicode="&#x2c7;" horiz-adv-x="375" 
d="M131 564l-103 148h85l74 -91l74 91h85l-102 -148h-113z" />
    <glyph glyph-name="breve" unicode="&#x2d8;" horiz-adv-x="375" 
d="M188 555q-53 0 -85.5 35.5t-32.5 86.5h60q1 -23 18 -38t40 -15t39 15t17 38h62q0 -51 -32.5 -86.5t-85.5 -35.5z" />
    <glyph glyph-name="dotaccent" unicode="&#x2d9;" horiz-adv-x="375" 
d="M120 627q0 28 19.5 48t47.5 20t48 -20t20 -48t-20 -47.5t-48 -19.5t-47.5 19.5t-19.5 47.5z" />
    <glyph glyph-name="ring" unicode="&#x2da;" horiz-adv-x="375" 
d="M83 635q0 43 30.5 74t74.5 31q43 0 74 -31t31 -74t-31 -74t-74 -31q-44 0 -74.5 31t-30.5 74zM138 635q0 -21 14.5 -37t35.5 -16t35.5 16t14.5 37t-14.5 37t-35.5 16t-35.5 -16t-14.5 -37z" />
    <glyph glyph-name="ogonek" unicode="&#x2db;" horiz-adv-x="375" 
d="M98 -128q0 74 54 133h64q-20 -16 -34 -45t-14 -54q0 -26 16 -42t40 -16q14 0 36 9l18 -48q-41 -29 -86 -29q-38 0 -66 24.5t-28 67.5z" />
    <glyph glyph-name="tilde" unicode="&#x2dc;" horiz-adv-x="375" 
d="M35 562q0 54 23 87t59 33q33 0 75.5 -25t52.5 -25q32 0 32 50h61q0 -54 -22.5 -87t-59.5 -33q-32 0 -75 25.5t-53 25.5q-31 0 -31 -51h-62z" />
    <glyph glyph-name="hungarumlaut" unicode="&#x2dd;" horiz-adv-x="375" 
d="M17 561l75 134h113l-109 -134h-79zM169 561l75 134h114l-109 -134h-80z" />
    <glyph glyph-name="pi" unicode="&#x3c0;" horiz-adv-x="750" 
d="M40 325q0 139 98.5 237t236.5 98q139 0 237 -98t98 -237t-98 -237t-237 -98q-138 0 -236.5 98t-98.5 237zM236 126v395h179q68 0 114.5 -46.5t46.5 -113.5q0 -68 -46.5 -115t-114.5 -47h-125v-73h-54zM290 254h125q44 0 75 31t31 76q0 44 -31 76t-75 32h-125v-215z
M91 324q0 -117 83 -201.5t200 -84.5t200 84.5t83 201.5t-83 201.5t-200 84.5t-200 -84.5t-83 -201.5z" />
    <glyph glyph-name="Wgrave" unicode="&#x1e80;" horiz-adv-x="940" 
d="M216 -1l-206 649h116l123 -390l30 -108l27 108l102 390h124l102 -390l26 -108q15 56 31 108l123 390h116l-207 -649h-123l-104 375q-7 25 -13.5 57t-9.5 51l-3 20q-11 -72 -26 -128l-104 -375h-124zM440 693l-104 147h114l88 -147h-98z" />
    <glyph glyph-name="wgrave" unicode="&#x1e81;" horiz-adv-x="725" 
d="M168 -1l-163 496h108l88 -274q6 -18 10.5 -41t6.5 -38l2 -14q5 53 15 92l73 275h109l73 -275q4 -17 8 -40t6 -38l1 -14q6 53 19 93l88 274h108l-163 -496h-100l-77 275l-17 92q-7 -55 -17 -92l-78 -275h-100zM329 567l-104 147h114l88 -147h-98z" />
    <glyph glyph-name="Wacute" unicode="&#x1e82;" horiz-adv-x="940" 
d="M216 -1l-206 649h116l123 -390l30 -108l27 108l102 390h124l102 -390l26 -108q15 56 31 108l123 390h116l-207 -649h-123l-104 375q-7 25 -13.5 57t-9.5 51l-3 20q-11 -72 -26 -128l-104 -375h-124zM395 693l89 147h114l-104 -147h-99z" />
    <glyph glyph-name="wacute" unicode="&#x1e83;" horiz-adv-x="725" 
d="M168 -1l-163 496h108l88 -274q6 -18 10.5 -41t6.5 -38l2 -14q5 53 15 92l73 275h109l73 -275q4 -17 8 -40t6 -38l1 -14q6 53 19 93l88 274h108l-163 -496h-100l-77 275l-17 92q-7 -55 -17 -92l-78 -275h-100zM297 567l89 147h114l-104 -147h-99z" />
    <glyph glyph-name="Wdieresis" unicode="&#x1e84;" horiz-adv-x="940" 
d="M216 -1l-206 649h116l123 -390l30 -108l27 108l102 390h124l102 -390l26 -108q15 56 31 108l123 390h116l-207 -649h-123l-104 375q-7 25 -13.5 57t-9.5 51l-3 20q-11 -72 -26 -128l-104 -375h-124zM325 748q0 23 16.5 39.5t39.5 16.5t39.5 -16.5t16.5 -39.5t-16.5 -39.5
t-39.5 -16.5t-39.5 16.5t-16.5 39.5zM503 748q0 23 16.5 39.5t39.5 16.5t39.5 -16.5t16.5 -39.5t-16.5 -39.5t-39.5 -16.5t-39.5 16.5t-16.5 39.5z" />
    <glyph glyph-name="wdieresis" unicode="&#x1e85;" horiz-adv-x="725" 
d="M168 -1l-163 496h108l88 -274q6 -18 10.5 -41t6.5 -38l2 -14q5 53 15 92l73 275h109l73 -275q4 -17 8 -40t6 -38l1 -14q6 53 19 93l88 274h108l-163 -496h-100l-77 275l-17 92q-7 -55 -17 -92l-78 -275h-100zM218 626q0 23 16.5 39.5t39.5 16.5t39.5 -16.5t16.5 -39.5
t-16.5 -39.5t-39.5 -16.5t-39.5 16.5t-16.5 39.5zM396 626q0 23 16.5 39.5t39.5 16.5t39.5 -16.5t16.5 -39.5t-16.5 -39.5t-39.5 -16.5t-39.5 16.5t-16.5 39.5z" />
    <glyph glyph-name="Ygrave" unicode="&#x1ef2;" horiz-adv-x="636" 
d="M261 0v299l-251 349h133l98 -132l78 -118q52 80 79 118l95 132h133l-249 -348v-300h-116zM281 693l-104 147h114l88 -147h-98z" />
    <glyph glyph-name="ygrave" unicode="&#x1ef3;" horiz-adv-x="536" 
d="M102 -147v104q44 0 67.5 16t41.5 55l10 20l-214 447h114l119 -264l32 -78l32 83l107 259h112l-226 -517q-55 -125 -195 -125zM241 567l-104 147h114l88 -147h-98z" />
    <glyph glyph-name="endash" unicode="&#x2013;" horiz-adv-x="610" 
d="M20 197v91h570v-91h-570z" />
    <glyph glyph-name="emdash" unicode="&#x2014;" horiz-adv-x="715" 
d="M20 197v91h675v-91h-675z" />
    <glyph glyph-name="quoteleft" unicode="&#x2018;" horiz-adv-x="252" 
d="M46 394l85 254h74l-55 -254h-104z" />
    <glyph glyph-name="quoteright" unicode="&#x2019;" horiz-adv-x="252" 
d="M46 394l55 254h104l-84 -254h-75z" />
    <glyph glyph-name="quotesinglbase" unicode="&#x201a;" horiz-adv-x="252" 
d="M46 -137l55 254h104l-84 -254h-75z" />
    <glyph glyph-name="quotedblleft" unicode="&#x201c;" horiz-adv-x="431" 
d="M46 394l85 254h74l-55 -254h-104zM226 394l85 254h74l-55 -254h-104z" />
    <glyph glyph-name="quotedblright" unicode="&#x201d;" horiz-adv-x="431" 
d="M46 394l55 254h104l-84 -254h-75zM226 394l55 254h104l-85 -254h-74z" />
    <glyph glyph-name="quotedblbase" unicode="&#x201e;" horiz-adv-x="431" 
d="M46 -137l55 254h104l-84 -254h-75zM226 -137l55 254h104l-85 -254h-74z" />
    <glyph glyph-name="dagger" unicode="&#x2020;" horiz-adv-x="429" 
d="M170 137v336h-138v75h138v167h84v-167h137v-75h-137v-336h-84z" />
    <glyph glyph-name="daggerdbl" unicode="&#x2021;" horiz-adv-x="429" 
d="M170 7v210h-138v75h138v181h-138v75h138v167h84v-167h137v-75h-137v-181h137v-75h-137v-210h-84z" />
    <glyph glyph-name="bullet" unicode="&#x2022;" horiz-adv-x="389" 
d="M52 287q0 59 42 100.5t101 41.5t100.5 -41.5t41.5 -100.5t-41.5 -101t-100.5 -42t-101 42t-42 101z" />
    <glyph glyph-name="ellipsis" unicode="&#x2026;" horiz-adv-x="738" 
d="M56 59q0 29 20 49.5t49 20.5t49.5 -20.5t20.5 -49.5q0 -28 -20.5 -48.5t-49.5 -20.5t-49 20t-20 49zM299 59q0 29 20 49.5t49 20.5t49.5 -20.5t20.5 -49.5t-20.5 -49t-49.5 -20q-28 0 -48.5 20t-20.5 49zM542 59q0 29 20 49.5t49 20.5t49.5 -20.5t20.5 -49.5t-20.5 -49
t-49.5 -20t-49 20t-20 49z" />
    <glyph glyph-name="perthousand" unicode="&#x2030;" horiz-adv-x="1264" 
d="M131 459q0 -53 20.5 -87.5t55.5 -34.5q34 0 55.5 34.5t21.5 87.5t-21.5 88t-55.5 35q-35 0 -55.5 -34.5t-20.5 -88.5zM50 459q0 88 44 143.5t113 55.5t113 -55.5t44 -143.5q0 -87 -44 -142.5t-113 -55.5t-113 55.5t-44 142.5zM605 189q0 -54 21 -88t56 -34q34 0 55 34.5
t21 87.5t-21 87.5t-55 34.5q-35 0 -56 -34t-21 -88zM524 189q0 87 44.5 142.5t113.5 55.5t112.5 -55t43.5 -143t-43.5 -143t-112.5 -55t-113.5 55.5t-44.5 142.5zM982 189q0 -54 20.5 -88t55.5 -34q34 0 55 34.5t21 87.5t-21 87.5t-55 34.5q-35 0 -55.5 -34t-20.5 -88z
M901 189q0 88 44 143t113 55t112.5 -55t43.5 -143t-43.5 -143t-112.5 -55t-113 55t-44 143zM223 20l397 660l55 -32l-397 -660z" />
    <glyph glyph-name="guilsinglleft" unicode="&#x2039;" horiz-adv-x="286" 
d="M29 219v48l175 172l50 -51l-128 -144l128 -146l-50 -50z" />
    <glyph glyph-name="guilsinglright" unicode="&#x203a;" horiz-adv-x="286" 
d="M80 48l-50 50l128 146l-128 144l50 51l175 -172v-48z" />
    <glyph glyph-name="fraction" unicode="&#x2044;" horiz-adv-x="495" 
d="M44 20l397 660l55 -32l-397 -660z" />
    <glyph glyph-name="zerosuperior" unicode="&#x2070;" horiz-adv-x="440" 
d="M127 521q0 -70 25 -113t67 -43t67.5 43t25.5 113q0 69 -25.5 113t-67.5 44t-67 -44t-25 -113zM32 521q0 104 52.5 170.5t134.5 66.5q83 0 135.5 -66.5t52.5 -170.5t-53 -170t-135 -66t-134.5 66.5t-52.5 169.5z" />
    <glyph glyph-name="foursuperior" unicode="&#x2074;" horiz-adv-x="426" 
d="M248 291v95h-217v60l183 313l77 -36l-155 -256h112v91h89v-91h53v-81h-53v-95h-89z" />
    <glyph glyph-name="fivesuperior" unicode="&#x2075;" horiz-adv-x="421" 
d="M46 330l34 69q42 -36 110 -36q46 0 71 22t25 53q0 37 -26.5 56.5t-67.5 19.5q-45 0 -88 -28l-41 30v232h289v-81h-204v-84q30 8 60 8q73 0 120.5 -41t47.5 -112t-49 -115.5t-133 -44.5q-87 0 -148 52z" />
    <glyph glyph-name="sixsuperior" unicode="&#x2076;" horiz-adv-x="434" 
d="M46 451q0 51 42 109l157 212l67 -54l-92 -114q8 1 10 1q68 0 113 -45t45 -109q0 -72 -46.5 -119.5t-124.5 -47.5t-124.5 47.5t-46.5 119.5zM136 447q0 -34 23 -57.5t57 -23.5t57.5 23.5t23.5 57.5q0 37 -23.5 60.5t-57.5 23.5t-57 -23.5t-23 -60.5z" />
    <glyph glyph-name="sevensuperior" unicode="&#x2077;" horiz-adv-x="378" 
d="M62 290l188 381h-229v80h338v-58l-200 -403h-97z" />
    <glyph glyph-name="eightsuperior" unicode="&#x2078;" horiz-adv-x="434" 
d="M43 432q0 82 71 118q-43 33 -43 87t40 87.5t106 33.5q65 0 105 -33.5t40 -87.5q0 -52 -43 -87q71 -36 71 -118q0 -66 -47 -107t-126 -41t-126.5 41t-47.5 107zM139 438q0 -30 21 -49.5t57 -19.5t56.5 19.5t20.5 49.5q0 28 -19.5 47.5t-57.5 19.5t-58 -19.5t-20 -47.5z
M154 629q0 -23 16.5 -38.5t46.5 -15.5t46 15.5t16 38.5t-17 38t-45 15q-29 0 -46 -15t-17 -38z" />
    <glyph glyph-name="ninesuperior" unicode="&#x2079;" horiz-adv-x="434" 
d="M129 335l84 102q-5 -1 -10 -1q-68 0 -112.5 45.5t-44.5 109.5q0 71 46.5 118.5t124.5 47.5t124.5 -47.5t46.5 -118.5q0 -53 -42 -109l-149 -202zM136 594q0 -37 23.5 -60.5t57.5 -23.5t57 23.5t23 60.5q0 34 -23 57.5t-57 23.5t-57.5 -23.5t-23.5 -57.5z" />
    <glyph glyph-name="n.sups" unicode="&#x207f;" horiz-adv-x="384" 
d="M45 331v326h83v-31q36 38 94 38q120 0 120 -146v-187h-83v177q0 39 -12 56.5t-46 17.5q-32 0 -52.5 -22.5t-20.5 -58.5v-170h-83z" />
    <glyph glyph-name="zeroinferior" unicode="&#x2080;" horiz-adv-x="440" 
d="M127 121q0 -70 25 -113t67 -43t67.5 43t25.5 113q0 69 -25.5 113t-67.5 44t-67 -44t-25 -113zM32 121q0 104 52.5 170.5t134.5 66.5q83 0 135.5 -66.5t52.5 -170.5t-53 -170t-135 -66t-134.5 66.5t-52.5 169.5z" />
    <glyph glyph-name="oneinferior" unicode="&#x2081;" horiz-adv-x="349" 
d="M167 -109v346l-96 -68l-38 60l155 123h68v-461h-89z" />
    <glyph glyph-name="twoinferior" unicode="&#x2082;" horiz-adv-x="401" 
d="M36 -109v60q125 114 171 167.5t46 95.5q0 28 -18.5 45.5t-53.5 17.5q-53 0 -97 -53l-46 61q63 73 152 73q72 0 115 -38t43 -99q0 -63 -47.5 -121.5t-133.5 -128.5h193v-80h-324z" />
    <glyph glyph-name="threeinferior" unicode="&#x2083;" horiz-adv-x="424" 
d="M39 -56l43 62q47 -41 110 -41q48 0 73 24.5t25 57.5q0 32 -23.5 53.5t-71.5 21.5q-33 0 -67 -22l-33 53l140 119h-179v80h303v-70l-115 -100h4q52 0 94.5 -38t42.5 -101q0 -67 -51 -112.5t-138 -45.5q-96 0 -157 59z" />
    <glyph glyph-name="fourinferior" unicode="&#x2084;" horiz-adv-x="426" 
d="M248 -108v95h-217v60l183 313l77 -36l-155 -256h112v91h89v-91h53v-81h-53v-95h-89z" />
    <glyph glyph-name="fiveinferior" unicode="&#x2085;" horiz-adv-x="421" 
d="M46 -68l34 69q42 -36 110 -36q46 0 71 22t25 53q0 37 -26.5 56.5t-67.5 19.5q-45 0 -88 -28l-41 30v232h289v-81h-204v-84q30 8 60 8q73 0 120.5 -41t47.5 -112t-49 -115.5t-133 -44.5q-87 0 -148 52z" />
    <glyph glyph-name="sixinferior" unicode="&#x2086;" horiz-adv-x="434" 
d="M46 52q0 51 42 109l157 212l67 -54l-92 -114q8 1 10 1q68 0 113 -45t45 -109q0 -72 -46.5 -119.5t-124.5 -47.5t-124.5 47.5t-46.5 119.5zM136 48q0 -34 23 -57.5t57 -23.5t57.5 23.5t23.5 57.5q0 37 -23.5 60.5t-57.5 23.5t-57 -23.5t-23 -60.5z" />
    <glyph glyph-name="seveninferior" unicode="&#x2087;" horiz-adv-x="378" 
d="M62 -109l188 381h-229v80h338v-58l-200 -403h-97z" />
    <glyph glyph-name="eightinferior" unicode="&#x2088;" horiz-adv-x="434" 
d="M43 33q0 83 71 118q-43 33 -43 87t40 87.5t106 33.5q65 0 105 -33.5t40 -87.5q0 -52 -43 -87q71 -35 71 -118q0 -66 -47 -107t-126 -41t-126.5 41t-47.5 107zM139 39q0 -30 21 -49.5t57 -19.5t56.5 19.5t20.5 49.5q0 28 -19.5 47.5t-57.5 19.5t-58 -19.5t-20 -47.5z
M154 230q0 -22 16.5 -38t46.5 -16t46 15.5t16 38.5t-17 38t-45 15q-29 0 -46 -15t-17 -38z" />
    <glyph glyph-name="nineinferior" unicode="&#x2089;" horiz-adv-x="434" 
d="M129 -64l84 102q-5 -1 -10 -1q-68 0 -112.5 45.5t-44.5 109.5q0 71 46.5 118.5t124.5 47.5t124.5 -47.5t46.5 -118.5q0 -53 -42 -109l-149 -202zM136 195q0 -37 23.5 -60.5t57.5 -23.5t57 23.5t23 60.5q0 34 -23 57.5t-57 23.5t-57.5 -23.5t-23.5 -57.5z" />
    <glyph glyph-name="Euro" unicode="&#x20ac;" 
d="M35 224l19 72h51q0 1 -0.5 13t-0.5 19t0.5 16t0.5 12h-60l19 71h51q26 106 95 168.5t165 62.5q119 0 193 -92l-65 -68q-49 60 -121 60q-53 0 -92.5 -36t-57.5 -95h243l-19 -71h-238q-2 -10 -2 -27l2 -33h226l-19 -72h-194q17 -62 56.5 -98.5t93.5 -36.5q78 0 131 75
l73 -61q-79 -114 -210 -114q-96 0 -166.5 64t-93.5 171h-80z" />
    <glyph glyph-name="trademark" unicode="&#x2122;" horiz-adv-x="811" 
d="M316 354v294h52l98 -98l97 98h52v-294h-71v178l-78 -76l-79 77v-179h-71zM115 354v230h-94v64h259v-64h-94v-230h-71z" />
    <glyph glyph-name="minus" unicode="&#x2212;" 
d="M58 229v90h459v-90h-459z" />
    <glyph glyph-name="approxequal" unicode="&#x2248;" 
d="M74 304q0 146 116 146q38 0 92 -28t75 -28q14 0 24.5 10.5t10.5 31.5h109q0 -145 -117 -145q-41 0 -94 28t-72 28q-14 0 -24.5 -10.5t-10.5 -32.5h-109zM74 104q0 146 116 146q38 0 92 -28t75 -28q14 0 24.5 10t10.5 32h109q0 -145 -117 -145q-41 0 -94 28t-72 28
q-14 0 -24.5 -10.5t-10.5 -32.5h-109z" />
    <glyph glyph-name="notequal" unicode="&#x2260;" 
d="M105 33l67 111h-114v90h169l53 88h-222v91h278l85 139l47 -27l-69 -112h118v-91h-173l-53 -88h226v-90h-281l-84 -138z" />
    <glyph glyph-name="lessequal" unicode="&#x2264;" 
d="M58 28v90h459v-90h-459zM58 310v97l459 138v-96q-27 -8 -85 -24.5t-95 -27t-85 -22t-84 -16.5q52 -10 106 -24t138 -37.5t105 -29.5v-96z" />
    <glyph glyph-name="greaterequal" unicode="&#x2265;" 
d="M58 28v90h459v-90h-459zM58 172v96l200 59q31 9 68.5 17t59.5 12l21 3q-75 9 -149 31l-200 59v96l459 -138v-97z" />
    <glyph glyph-name="commainferior" unicode="&#xf6e1;" horiz-adv-x="177" 
d="M10 -187l41 199h88l-72 -199h-57z" />
    <glyph glyph-name="commasuperior" unicode="&#xf6e2;" horiz-adv-x="177" 
d="M10 213l41 199h88l-72 -199h-57z" />
    <glyph glyph-name="periodinferior" unicode="&#xf6e7;" horiz-adv-x="177" 
d="M27 -55q0 25 18 42.5t42 17.5q25 0 42.5 -17.5t17.5 -42.5t-17.5 -42.5t-42.5 -17.5t-42.5 17.5t-17.5 42.5z" />
    <glyph glyph-name="periodsuperior" unicode="&#xf6e8;" horiz-adv-x="177" 
d="M27 345q0 25 18 42.5t42 17.5q25 0 42.5 -17.5t17.5 -42.5t-17.5 -42.5t-42.5 -17.5t-42.5 17.5t-17.5 42.5z" />
    <glyph glyph-name="apple" unicode="&#xf8ff;" horiz-adv-x="805" 
d="M-2 -9q1 6 14 13.5t34.5 17t30.5 14.5q1 5 5 27q3 12 45 118q-16 2 -96 19q14 91 19 110q0 5 2 15t2 16v4q-3 3 -12 3.5t-11 1.5q0 16 9.5 45t10.5 41q4 13 13 41.5t14 44.5q80 18 96 19q0 15 -10 33q0 1 4.5 5.5t8 9t3.5 7.5t-2 4q-19 7 -35 7v4h37v71q88 3 99 4
q-5 -18 -14 -37l-8 -39q1 0 67 3l1 9q3 19 16 39l2 5q10 -2 32 -3t36 -4q5 -17 5 -31q0 -9 -1 -14l47 -7l33 4v8q0 64 -7 93q5 -1 22 -1q35 0 39 2q32 5 44 5q-1 -12 -4 -31t-5 -34t-2 -31v-8q6 -2 23.5 -3t23.5 -3q-4 -1 -19.5 -2.5t-21.5 -4.5l20 -35q-7 -19 -10 -42
q66 15 78 16q1 -2 1 -5q0 -4 -2.5 -14.5t-2.5 -16.5q7 -9 16 -26t15 -30l6 -12l28 -132q2 -1 3.5 -21.5t3 -54t2.5 -46.5l1 -9h-48q26 -50 47 -83l18 -26l-15 -11l28 -21q-4 -1 -11 -1q-8 0 -22.5 5t-20.5 6q0 -4 -1.5 -6t-2.5 -2.5t-4.5 -0.5h-5.5q-6 1 -12 19q-4 6 -5 11
q-6 10 -18.5 32.5t-22 40t-16.5 34.5q-5 3 -11 3l-19 -1q-12 -34 -27 -62q-1 -7 -1.5 -15t-1 -17.5t-0.5 -14.5q0 -18 -6 -30l-24 -6v5q0 3 -2 4q-4 -1 -16 -10.5t-20 -9.5l12 47q2 7 9 25.5t10.5 28.5t7 26t4.5 30q-6 -1 -24 -5.5t-30 -4.5h-13q-6 -30 -6 -57q0 -22 3 -43
q2 -14 12 -65q3 -13 4 -14q-18 2 -47 26q-3 4 -8 6l-6 -4l-12 2q1 9 3.5 25t2.5 24q10 67 12 105q-11 3 -19 3l-23 -1l-4 -7v-37q-2 -28 -2 -38v-25q0 -3 0.5 -12.5t1.5 -15.5l-3 -18l-18 -4q0 7 -4 7q-2 0 -5 -1.5t-4 -1.5q-2 0 -18 -5t-25 -5q1 6 7.5 13.5t8.5 11.5v31
q-6 60 -6 89v12l-1 5q-9 -3 -10 -3l-11 2h-34q-11 0 -16 -3q17 -81 19 -102q1 -7 1 -18q2 -11 13 -35.5t12 -39.5q-9 3 -23.5 16t-19.5 16l-14 9l-4 -9l-22 12q-1 12 -5 49q-8 74 -20 109q-3 2 -10 2h-6q-8 0 -11 2q-22 -47 -25 -113q-2 -10 -2 -13l1 -16l-1 -17l-19 -1
q-5 0 -8 1q2 0 2 3v6q-18 -2 -55 -18t-61 -17zM561 557l9 6q0 9 -13 16q-1 1 -5 11t-4 11h-6q-24 -2 -30 -5q-4 -8 -4 -13v-7q0 -7 -1 -10q13 -14 17 -29q7 -1 22.5 -7.5t19.5 -6.5q3 0 3 1q1 1 1 5l-3 11l1 7q-1 0 -4 4t-3 6zM498 529q8 8 8 12l-18 39q1 3 4.5 7.5t3.5 7.5
q0 4 -1 5q-11 2 -29 2h-19q-18 0 -26 1q1 -11 8 -23q-3 -8 -5.5 -25.5t-6.5 -26.5q13 5 35 5zM656 384q-1 5 -10 12.5t-11 13.5v5q0 3 2 13l-11 1q-3 -2 -4 -6.5t-1 -9.5v-6q-18 15 -45 15q-16 0 -22 -3v-9q2 -1 5 -1l13 1q6 0 9 -4l-1 -4q-5 2 -17 2q-18 0 -31 -14l1 -6
l3 1q18 7 27 7q5 0 7 -3h-4q-14 0 -26 -25l6 -3q5 7 9.5 10t11.5 5t10 3q4 0 4 -7q-13 -7 -13 -23q3 -4 7 -4q1 0 5 2q0 5 3 8.5t5.5 4.5t8.5 3t8 3q4 0 8 -3t6 -4q7 -7 10 -7q6 0 13.5 15.5t13.5 16.5zM364 594v10q-24 -2 -27 -4q2 -2 2 -8q0 -7 -8 -16.5t-9 -16.5
q6 -26 15 -36q2 0 6.5 -1.5t6.5 -1.5t5 1t4 1q-5 10 -5 11q0 5 7 24q-12 0 -12 5q0 4 7 8q8 6 8 24zM329 603q-4 4 -20 4l-19 -2l-30 -4l-3 -5l19 -27q-13 -22 -13 -27l42 -9l3 35q20 22 21 35zM390 453l-41 -8q1 1 1 3v2l-1 2l9 6q8 5 11 11l3 7q-36 -13 -55 -28q0 -3 1 -4
q3 -6 3 -10t-5 -7t-11.5 -5t-8.5 -4q2 -2 5.5 -9.5t8 -12t11.5 -4.5q11 9 25 9h41zM205 570q0 8 -9 8q-8 0 -8 -8t8 -8q9 0 9 8zM218 600h-25q0 -17 2 -17q13 0 13 -13t-13 -13t-13 16l-4 -2q1 -6 2 -18.5t2.5 -19.5t3.5 -9q16 -7 17 -7q3 0 4 2l4 25q-9 0 -9 3q0 4 5.5 8
t5.5 7q3 17 5 38zM251 369l-13 11q-3 3 -12.5 10.5t-13 10t-11 6.5t-15.5 5q-8 -3 -26 -14t-28 -14l10 -16q7 1 32 11q1 -5 5.5 -16.5t5.5 -19.5l-9 -18l22 15l-3 18q1 3 4 3l7 -8q3 -5 3 -8q0 -11 -7 -20q2 -2 5 -2l4 1l11 20q-1 2 -5 20q14 -5 19 -12q-1 -4 -5.5 -9.5
t-4.5 -6.5l7 -5l16 26q-3 3 -3 4q0 3 5 8zM236 370l-20 6q1 3 4 3t9 -4.5t7 -4.5z" />
    <glyph glyph-name="a_alt" horiz-adv-x="558" 
d="M150 153q0 -33 24 -50.5t60 -17.5q54 0 103.5 35t49.5 95v16q-50 6 -94 6q-59 0 -101 -21t-42 -63zM37 142q0 46 22 81t59.5 54.5t81 29t93.5 9.5q52 0 86 -7q-9 100 -118 100q-37 0 -72.5 -8.5t-52.5 -17.5l-16 -9l-38 78q7 6 22 15t65.5 23.5t108.5 14.5
q106 0 163 -61.5t57 -184.5v-259h-111v71q-68 -81 -180 -81q-76 0 -123 42.5t-47 109.5z" />
    <glyph glyph-name="one.onum" horiz-adv-x="504" 
d="M264 0v352l-127 -87l-52 80l190 150h99v-495h-110z" />
    <glyph glyph-name="two.onum" horiz-adv-x="542" 
d="M60 0v75q177 112 237 163.5t60 92.5q0 33 -25.5 53.5t-71.5 20.5q-72 0 -153 -52l-46 83q92 69 199 69q99 0 154.5 -48.5t55.5 -125.5q0 -41 -17 -76.5t-50 -64t-64 -48.5t-78 -44h231v-98h-432z" />
    <glyph glyph-name="three.onum" horiz-adv-x="547" 
d="M45 -44l50 80q65 -54 161 -54q61 0 97.5 29.5t36.5 70.5q0 42 -36.5 70.5t-97.5 28.5q-46 0 -95 -22l-40 66l212 172h-273v98h415v-97l-158 -136q81 -5 133 -54t52 -125q0 -93 -69.5 -146.5t-176.5 -53.5q-135 0 -211 73z" />
    <glyph glyph-name="four.onum" horiz-adv-x="544" 
d="M336 -109v130h-312v78l248 417l94 -53l-207 -345h177v150h110v-150h80v-97h-80v-130h-110z" />
    <glyph glyph-name="five.onum" horiz-adv-x="547" 
d="M49 -53l41 82q64 -48 155 -48q65 0 102.5 30.5t37.5 73.5q0 41 -38 70t-102 29q-80 0 -135 -37l-43 37v311h392v-98h-282v-127q42 14 94 14q101 0 163.5 -52t62.5 -143q0 -92 -67.5 -149.5t-175.5 -57.5q-125 0 -205 65z" />
    <glyph glyph-name="six.onum" horiz-adv-x="557" 
d="M39 216q0 90 57 165l211 277l89 -65l-125 -159q6 3 25 3q96 0 158.5 -62.5t62.5 -153.5q0 -99 -64.5 -165t-174.5 -66q-111 0 -175 64t-64 162zM151 217q0 -52 35.5 -90t91.5 -38q55 0 91 38t36 90q0 53 -36 89t-91 36q-56 0 -91.5 -36t-35.5 -89z" />
    <glyph glyph-name="seven.onum" horiz-adv-x="541" 
d="M130 -118l262 515h-353v98h481v-74l-269 -539h-121z" />
    <glyph glyph-name="eight.onum" horiz-adv-x="560" 
d="M42 193q0 55 26.5 97t73.5 66q-62 45 -62 131q0 75 55 123t145 48t145 -48t55 -123q0 -85 -63 -131q101 -50 101 -163q0 -90 -65 -146.5t-173 -56.5t-173 56.5t-65 146.5zM155 199q0 -47 34 -78.5t91 -31.5t91 31.5t34 78.5q0 45 -33.5 77.5t-91.5 32.5t-91.5 -32.5
t-33.5 -77.5zM185 479q0 -36 25.5 -61.5t69.5 -25.5t69.5 25.5t25.5 61.5q0 37 -25.5 61.5t-69.5 24.5t-69.5 -24.5t-25.5 -61.5z" />
    <glyph glyph-name="nine.onum" horiz-adv-x="557" 
d="M195 -53l90 113q-3 -3 -25 -3q-96 0 -158.5 63t-62.5 153q0 99 65 165.5t175 66.5t174.5 -64.5t64.5 -161.5q0 -90 -57 -165l-177 -233zM151 277q0 -53 36.5 -89t91.5 -36q56 0 91 36t35 88q0 55 -34 92t-92 37t-93 -37t-35 -91z" />
    <glyph glyph-name="zero.onum" horiz-adv-x="548" 
d="M45 247q0 112 64.5 185t164.5 73t164.5 -72.5t64.5 -185.5t-64.5 -185t-164.5 -72t-164.5 72.5t-64.5 184.5zM157 247q0 -68 33 -113t84 -45q52 0 84.5 45t32.5 113q0 67 -32.5 112.5t-84.5 45.5q-51 0 -84 -45.5t-33 -112.5z" />
    <glyph glyph-name="zero.pnum" 
d="M153 324q0 -105 36 -169.5t99 -64.5t98.5 64.5t35.5 169.5t-35.5 169.5t-98.5 64.5t-99 -64.5t-36 -169.5zM35 324q0 147 70.5 240.5t182.5 93.5q111 0 181.5 -93.5t70.5 -240.5t-70.5 -240.5t-181.5 -93.5q-112 0 -182.5 93.5t-70.5 240.5z" />
    <glyph glyph-name="one.pnum" horiz-adv-x="478" 
d="M256 0v503l-141 -96l-52 79l205 162h99v-648h-111z" />
    <glyph glyph-name="two.pnum" 
d="M50 0v73q189 164 259.5 244.5t70.5 138.5q0 44 -29 73t-81 29q-71 0 -150 -74l-60 72q90 102 219 102q95 0 157 -53.5t62 -139.5q0 -88 -81 -185t-194 -180h295v-100h-468z" />
    <glyph glyph-name="three.pnum" 
d="M48 69l56 78q59 -58 151 -58q69 0 110.5 34.5t41.5 87.5q0 45 -38.5 76t-101.5 31q-53 0 -93 -24l-44 74l204 180h-258v100h415v-97l-167 -147q87 -6 144 -58t57 -136q0 -104 -73.5 -162t-187.5 -58q-137 0 -216 79z" />
    <glyph glyph-name="four.pnum" horiz-adv-x="591" 
d="M356 0v130h-312v78l265 448l95 -54l-223 -372h175v148h111v-148h80v-100h-80v-130h-111z" />
    <glyph glyph-name="five.pnum" 
d="M63 58l41 84q28 -21 72 -37t86 -16q67 0 104.5 35t37.5 84q0 57 -43 88.5t-110 31.5q-62 0 -124 -37l-45 39v318h406v-100h-295v-141q45 15 90 15q104 0 171.5 -56t67.5 -154t-70 -160t-188 -62q-120 0 -201 68z" />
    <glyph glyph-name="six.pnum" 
d="M48 216q0 90 57 165l211 277l89 -65l-126 -159q24 3 26 3q96 0 158.5 -62.5t62.5 -153.5q0 -99 -64.5 -165t-174.5 -66q-111 0 -175 64t-64 162zM166 218q0 -56 32.5 -92.5t88.5 -36.5q54 0 87.5 37t33.5 92q0 53 -34 89t-87 36q-54 0 -87.5 -36t-33.5 -89z" />
    <glyph glyph-name="seven.pnum" horiz-adv-x="548" 
d="M118 0l275 548h-353v100h481v-73l-282 -575h-121z" />
    <glyph glyph-name="eight.pnum" 
d="M43 193q0 113 107 163q-63 46 -63 131q0 75 55 123t146 48q90 0 145 -48t55 -123q0 -85 -64 -131q51 -23 79.5 -65.5t28.5 -97.5q0 -90 -66.5 -146.5t-177.5 -56.5t-178 56.5t-67 146.5zM161 199q0 -47 34.5 -78.5t92.5 -31.5q57 0 91.5 31.5t34.5 78.5q0 45 -34 77.5
t-92 32.5q-59 0 -93 -32.5t-34 -77.5zM192 479q0 -36 25.5 -61.5t70.5 -25.5q44 0 69.5 25.5t25.5 61.5q0 37 -25.5 61.5t-69.5 24.5t-70 -24.5t-26 -61.5z" />
    <glyph glyph-name="nine.pnum" 
d="M169 55l125 159q-6 -3 -25 -3q-96 0 -158.5 62.5t-62.5 153.5q0 99 64.5 165t175.5 66t174.5 -64t63.5 -162q0 -90 -57 -165l-211 -277zM166 431q0 -53 34.5 -89.5t87.5 -36.5t86.5 36.5t33.5 89.5q0 55 -32.5 91.5t-87.5 36.5t-88.5 -37t-33.5 -91z" />
    <glyph glyph-name="zero.onumtab" horiz-adv-x="556" 
d="M49 247q0 112 64.5 185t164.5 73t164.5 -72.5t64.5 -185.5t-64.5 -185t-164.5 -72t-164.5 72.5t-64.5 184.5zM161 247q0 -68 33 -113t84 -45q52 0 84.5 45t32.5 113q0 67 -32.5 112.5t-84.5 45.5q-51 0 -84 -45.5t-33 -112.5z" />
    <glyph glyph-name="one.onumtab" horiz-adv-x="556" 
d="M115 0v95h149v256l-127 -86l-50 78l188 152h99v-400h132v-95h-391z" />
    <glyph glyph-name="two.onumtab" horiz-adv-x="556" 
d="M71 0v75q177 112 237 163.5t60 92.5q0 33 -25.5 53.5t-71.5 20.5q-72 0 -153 -52l-46 83q92 69 199 69q99 0 154.5 -48.5t55.5 -125.5q0 -41 -17 -76.5t-50 -64t-64 -48.5t-78 -44h231v-98h-432z" />
    <glyph glyph-name="three.onumtab" horiz-adv-x="556" 
d="M51 -44l50 80q65 -54 161 -54q61 0 97.5 29.5t36.5 70.5q0 42 -36.5 70.5t-97.5 28.5q-46 0 -95 -22l-40 66l212 172h-273v98h415v-97l-158 -136q81 -5 133 -54t52 -125q0 -93 -69.5 -146.5t-176.5 -53.5q-135 0 -211 73z" />
    <glyph glyph-name="four.onumtab" horiz-adv-x="556" 
d="M339 -109v130h-312v78l248 417l94 -53l-207 -345h177v150h110v-150h80v-97h-80v-130h-110z" />
    <glyph glyph-name="five.onumtab" horiz-adv-x="556" 
d="M58 -53l41 82q65 -48 155 -48q65 0 102.5 30.5t37.5 73.5q0 41 -38 70t-102 29q-80 0 -135 -37l-43 37v311h392v-98h-282v-127q42 14 94 14q101 0 163.5 -52t62.5 -143q0 -92 -67.5 -149.5t-175.5 -57.5q-125 0 -205 65z" />
    <glyph glyph-name="six.onumtab" horiz-adv-x="556" 
d="M39 216q0 90 57 165l211 277l89 -65l-125 -159q6 3 25 3q96 0 158.5 -62.5t62.5 -153.5q0 -99 -64.5 -165t-174.5 -66q-111 0 -175 64t-64 162zM151 217q0 -52 35.5 -90t91.5 -38q55 0 91 38t36 90q0 53 -36 89t-91 36q-56 0 -91.5 -36t-35.5 -89z" />
    <glyph glyph-name="seven.onumtab" horiz-adv-x="556" 
d="M136 -118l262 515h-353v98h481v-74l-269 -539h-121z" />
    <glyph glyph-name="eight.onumtab" horiz-adv-x="556" 
d="M40 193q0 55 26.5 97t73.5 66q-62 45 -62 131q0 75 55 123t145 48t145 -48t55 -123q0 -85 -63 -131q101 -50 101 -163q0 -90 -65 -146.5t-173 -56.5t-173 56.5t-65 146.5zM153 199q0 -47 34 -78.5t91 -31.5t91 31.5t34 78.5q0 45 -33.5 77.5t-91.5 32.5t-91.5 -32.5
t-33.5 -77.5zM183 479q0 -36 25.5 -61.5t69.5 -25.5t69.5 25.5t25.5 61.5q0 37 -25.5 61.5t-69.5 24.5t-69.5 -24.5t-25.5 -61.5z" />
    <glyph glyph-name="nine.onumtab" horiz-adv-x="556" 
d="M195 -53l90 113q-3 -3 -25 -3q-96 0 -158.5 63t-62.5 153q0 99 65 165.5t175 66.5t174.5 -64.5t64.5 -161.5q0 -90 -57 -165l-177 -233zM151 277q0 -53 36.5 -89t91.5 -36q56 0 91 36t35 88q0 55 -34 92t-92 37t-93 -37t-35 -91z" />
    <glyph glyph-name="aacute_alt" horiz-adv-x="558" 
d="M150 153q0 -33 24 -50.5t60 -17.5q54 0 103.5 35t49.5 95v16q-50 6 -94 6q-59 0 -101 -21t-42 -63zM37 142q0 46 22 81t59.5 54.5t81 29t93.5 9.5q52 0 86 -7q-9 100 -118 100q-37 0 -72.5 -8.5t-52.5 -17.5l-16 -9l-38 78q7 6 22 15t65.5 23.5t108.5 14.5
q106 0 163 -61.5t57 -184.5v-259h-111v71q-68 -81 -180 -81q-76 0 -123 42.5t-47 109.5zM200 567l89 147h114l-104 -147h-99z" />
    <glyph glyph-name="agrave_alt" horiz-adv-x="558" 
d="M150 153q0 -33 24 -50.5t60 -17.5q54 0 103.5 35t49.5 95v16q-50 6 -94 6q-59 0 -101 -21t-42 -63zM37 142q0 46 22 81t59.5 54.5t81 29t93.5 9.5q52 0 86 -7q-9 100 -118 100q-37 0 -72.5 -8.5t-52.5 -17.5l-16 -9l-38 78q7 6 22 15t65.5 23.5t108.5 14.5
q106 0 163 -61.5t57 -184.5v-259h-111v71q-68 -81 -180 -81q-76 0 -123 42.5t-47 109.5zM237 567l-104 147h114l88 -147h-98z" />
    <glyph glyph-name="acircumflex_alt" horiz-adv-x="558" 
d="M150 153q0 -33 24 -50.5t60 -17.5q54 0 103.5 35t49.5 95v16q-50 6 -94 6q-59 0 -101 -21t-42 -63zM37 142q0 46 22 81t59.5 54.5t81 29t93.5 9.5q52 0 86 -7q-9 100 -118 100q-37 0 -72.5 -8.5t-52.5 -17.5l-16 -9l-38 78q7 6 22 15t65.5 23.5t108.5 14.5
q106 0 163 -61.5t57 -184.5v-259h-111v71q-68 -81 -180 -81q-76 0 -123 42.5t-47 109.5zM124 564l102 148h113l102 -148h-85l-74 91l-73 -91h-85z" />
    <glyph glyph-name="adieresis_alt" horiz-adv-x="558" 
d="M150 153q0 -33 24 -50.5t60 -17.5q54 0 103.5 35t49.5 95v16q-50 6 -94 6q-59 0 -101 -21t-42 -63zM37 142q0 46 22 81t59.5 54.5t81 29t93.5 9.5q52 0 86 -7q-9 100 -118 100q-37 0 -72.5 -8.5t-52.5 -17.5l-16 -9l-38 78q7 6 22 15t65.5 23.5t108.5 14.5
q106 0 163 -61.5t57 -184.5v-259h-111v71q-68 -81 -180 -81q-76 0 -123 42.5t-47 109.5zM139 626q0 23 16.5 39.5t39.5 16.5t39.5 -16.5t16.5 -39.5t-16.5 -39.5t-39.5 -16.5t-39.5 16.5t-16.5 39.5zM317 626q0 23 16.5 39.5t39.5 16.5t39.5 -16.5t16.5 -39.5t-16.5 -39.5
t-39.5 -16.5t-39.5 16.5t-16.5 39.5z" />
    <glyph glyph-name="atilde_alt" horiz-adv-x="558" 
d="M150 153q0 -33 24 -50.5t60 -17.5q54 0 103.5 35t49.5 95v16q-50 6 -94 6q-59 0 -101 -21t-42 -63zM37 142q0 46 22 81t59.5 54.5t81 29t93.5 9.5q52 0 86 -7q-9 100 -118 100q-37 0 -72.5 -8.5t-52.5 -17.5l-16 -9l-38 78q7 6 22 15t65.5 23.5t108.5 14.5
q106 0 163 -61.5t57 -184.5v-259h-111v71q-68 -81 -180 -81q-76 0 -123 42.5t-47 109.5zM119 562q0 54 23 87t59 33q33 0 75.5 -25t52.5 -25q32 0 32 50h61q0 -54 -22.5 -87t-59.5 -33q-32 0 -75 25.5t-53 25.5q-31 0 -31 -51h-62z" />
    <glyph glyph-name="aring_alt" horiz-adv-x="558" 
d="M173 635q0 43 30.5 74t74.5 31q43 0 74 -31t31 -74t-31 -74t-74 -31q-44 0 -74.5 31t-30.5 74zM228 635q0 -21 14.5 -37t35.5 -16t35.5 16t14.5 37t-14.5 37t-35.5 16t-35.5 -16t-14.5 -37zM150 153q0 -33 24 -50.5t60 -17.5q54 0 103.5 35t49.5 95v16q-50 6 -94 6
q-59 0 -101 -21t-42 -63zM37 142q0 46 22 81t59.5 54.5t81 29t93.5 9.5q52 0 86 -7q-9 100 -118 100q-37 0 -72.5 -8.5t-52.5 -17.5l-16 -9l-38 78q7 6 22 15t65.5 23.5t108.5 14.5q106 0 163 -61.5t57 -184.5v-259h-111v71q-68 -81 -180 -81q-76 0 -123 42.5t-47 109.5z
" />
    <glyph glyph-name="amacron_alt" horiz-adv-x="558" 
d="M150 153q0 -33 24 -50.5t60 -17.5q54 0 103.5 35t49.5 95v16q-50 6 -94 6q-59 0 -101 -21t-42 -63zM37 142q0 46 22 81t59.5 54.5t81 29t93.5 9.5q52 0 86 -7q-9 100 -118 100q-37 0 -72.5 -8.5t-52.5 -17.5l-16 -9l-38 78q7 6 22 15t65.5 23.5t108.5 14.5
q106 0 163 -61.5t57 -184.5v-259h-111v71q-68 -81 -180 -81q-76 0 -123 42.5t-47 109.5zM165 566v81h221v-81h-221z" />
    <glyph glyph-name="abreve_alt" horiz-adv-x="558" 
d="M150 153q0 -33 24 -50.5t60 -17.5q54 0 103.5 35t49.5 95v16q-50 6 -94 6q-59 0 -101 -21t-42 -63zM37 142q0 46 22 81t59.5 54.5t81 29t93.5 9.5q52 0 86 -7q-9 100 -118 100q-37 0 -72.5 -8.5t-52.5 -17.5l-16 -9l-38 78q7 6 22 15t65.5 23.5t108.5 14.5
q106 0 163 -61.5t57 -184.5v-259h-111v71q-68 -81 -180 -81q-76 0 -123 42.5t-47 109.5zM278 555q-53 0 -85.5 35.5t-32.5 86.5h60q1 -23 18 -38t40 -15t39 15t17 38h62q0 -51 -32.5 -86.5t-85.5 -35.5z" />
    <glyph glyph-name="aringacute_alt" horiz-adv-x="558" 
d="M37 142q0 46 22 81t59.5 54.5t81 29t93.5 9.5q52 0 86 -7q-9 100 -118 100q-37 0 -72.5 -8.5t-52.5 -17.5l-16 -9l-38 78q7 6 22 15t65.5 23.5t108.5 14.5q106 0 163 -61.5t57 -184.5v-259h-111v71q-68 -81 -180 -81q-76 0 -123 42.5t-47 109.5zM169 650q0 60 49 89
l75 143h99l-82 -134q31 -11 50 -38t19 -60q0 -43 -31 -74t-74 -31q-44 0 -74.5 30.5t-30.5 74.5zM150 153q0 -33 24 -50.5t60 -17.5q54 0 103.5 35t49.5 95v16q-50 6 -94 6q-59 0 -101 -21t-42 -63zM224 650q0 -21 14.5 -37t35.5 -16t35.5 16t14.5 37t-14.5 37t-35.5 16
t-35.5 -16t-14.5 -37z" />
    <glyph glyph-name="aogonek_alt" horiz-adv-x="558" 
d="M333 -128q0 74 54 133v66q-68 -81 -180 -81q-76 0 -123 42.5t-47 109.5q0 46 22 81t59.5 54.5t81 29t93.5 9.5q52 0 86 -7q-9 100 -118 100q-37 0 -72.5 -8.5t-52.5 -17.5l-16 -9l-38 78q7 6 22 15t65.5 23.5t108.5 14.5q106 0 163 -61.5t57 -184.5v-259h-53
q-18 -17 -30 -43.5t-12 -50.5q0 -26 16 -42t40 -16q14 0 36 9l18 -48q-41 -29 -86 -29q-38 0 -66 24.5t-28 67.5zM150 153q0 -33 24 -50.5t60 -17.5q54 0 103.5 35t49.5 95v16q-50 6 -94 6q-59 0 -101 -21t-42 -63z" />
    <glyph glyph-name="questiondown.cap" horiz-adv-x="476" 
d="M193 590q0 29 20.5 49t49.5 20t49 -20t20 -49t-20 -49.5t-49 -20.5t-49.5 20.5t-20.5 49.5zM45 196q0 72 45 125t114 66l10 68h97l13 -137q-80 0 -123 -33.5t-43 -88.5q0 -41 30.5 -70t73.5 -29q74 0 106 68l91 -42q-24 -63 -77 -98t-125 -35q-96 0 -154 59.5t-58 146.5z
" />
    <glyph glyph-name="exclamdown.cap" horiz-adv-x="251" 
d="M69 0l9 455h95l9 -455h-113zM56 588q0 29 20.5 49.5t48.5 20.5q29 0 49.5 -20.5t20.5 -49.5t-20.5 -49t-49.5 -20q-28 0 -48.5 20.5t-20.5 48.5z" />
    <glyph glyph-name="hyphen.cap" horiz-adv-x="464" 
d="M30 269v91h404v-91h-404z" />
    <glyph glyph-name="endash.cap" horiz-adv-x="610" 
d="M20 269v91h570v-91h-570z" />
    <glyph glyph-name="emdash.cap" horiz-adv-x="715" 
d="M20 269v91h675v-91h-675z" />
    <glyph glyph-name="periodcentered.cap" horiz-adv-x="184" 
d="M23 361q0 29 20 49.5t49 20.5t49 -20.5t20 -49.5t-20.5 -49t-48.5 -20t-48.5 20t-20.5 49z" />
    <glyph glyph-name="parenleft.cap" horiz-adv-x="336" 
d="M56 315q0 245 181 396l62 -68q-131 -143 -131 -328t131 -328l-62 -68q-181 151 -181 396z" />
    <glyph glyph-name="parenright.cap" horiz-adv-x="336" 
d="M99 -79l-61 69q130 142 130 327q0 186 -130 328l61 68q181 -149 181 -396q0 -245 -181 -396z" />
    <glyph glyph-name="bracketleft.cap" horiz-adv-x="309" 
d="M56 -69v793h217v-77h-106v-639h106v-77h-217z" />
    <glyph glyph-name="bracketright.cap" horiz-adv-x="309" 
d="M36 -69v77h106v639h-106v77h217v-793h-217z" />
    <glyph glyph-name="braceleft.cap" horiz-adv-x="417" 
d="M54 284v82h21q29 0 45.5 17.5t16.5 48.5v72q0 226 177 226h66v-85q-75 0 -104 -27.5t-29 -111.5v-69q0 -21 -5.5 -42.5t-26 -43.5t-53.5 -26q85 -17 85 -111v-69q0 -85 29 -112t104 -27v-85h-66q-177 0 -177 225v72q0 31 -16.5 48.5t-45.5 17.5h-21z" />
    <glyph glyph-name="braceright.cap" horiz-adv-x="417" 
d="M36 -79v85q75 0 104 27t29 112v69q0 94 86 111q-47 6 -66.5 41.5t-19.5 70.5v69q0 84 -29 111.5t-104 27.5v85h67q177 0 177 -226v-72q0 -31 16 -48.5t46 -17.5h20v-82h-20q-30 0 -46 -17.5t-16 -48.5v-72q0 -225 -177 -225h-67z" />
    <glyph glyph-name="zero.slash" 
d="M35 324q0 147 70.5 240.5t182.5 93.5q111 0 181.5 -93.5t70.5 -240.5t-70.5 -240.5t-181.5 -93.5q-112 0 -182.5 93.5t-70.5 240.5zM403 447l-195 -320q30 -37 80 -37q63 0 98.5 64.5t35.5 169.5q0 70 -19 123zM153 324q0 -68 17 -116l194 316q-32 34 -76 34
q-63 0 -99 -64.5t-36 -169.5z" />
    <glyph glyph-name="a.sups" horiz-adv-x="374" 
d="M111 431q0 -19 14.5 -28.5t36.5 -9.5q45 0 66.5 21.5t21.5 43.5v19q-16 3 -55 3q-34 0 -59 -12.5t-25 -36.5zM28 427q0 58 48.5 85.5t118.5 27.5q25 0 49 -3q-11 58 -70 58q-23 0 -46.5 -6.5t-35.5 -12.5l-11 -7l-29 59q5 4 15.5 10.5t45 17t72.5 10.5q148 0 148 -164
v-171h-83v39q-42 -46 -111 -46q-50 0 -80.5 29t-30.5 74z" />
    <glyph glyph-name="b.sups" horiz-adv-x="398" 
d="M45 331v430h83v-140q37 42 92 42q67 0 110.5 -49t43.5 -121q0 -71 -43.5 -120t-110.5 -49q-55 0 -92 42v-35h-83zM128 493q0 -38 22.5 -63t57.5 -25q36 0 59 25t23 63q0 39 -23 64t-59 25q-35 0 -57.5 -25t-22.5 -64z" />
    <glyph glyph-name="c.sups" horiz-adv-x="337" 
d="M24 493q0 71 50.5 120.5t122.5 49.5q67 0 121 -46l-52 -59q-30 24 -68 24t-64 -24.5t-26 -64.5t27 -64t66 -24q43 0 77 30l46 -63q-56 -48 -127 -48q-72 0 -122.5 49.5t-50.5 119.5z" />
    <glyph glyph-name="d.sups" horiz-adv-x="397" 
d="M24 494q0 72 43 120.5t110 48.5q55 0 93 -41v139h83v-430h-83v35q-37 -42 -93 -42q-67 0 -110 49t-43 121zM108 494q0 -38 23 -64t58 -26q34 0 57.5 26t23.5 64t-23 62.5t-58 24.5t-58 -24.5t-23 -62.5z" />
    <glyph glyph-name="e.sups" horiz-adv-x="373" 
d="M112 528h153q-7 27 -28.5 44t-50.5 17q-26 0 -46.5 -16.5t-27.5 -44.5zM24 493q0 71 48 120.5t118 49.5q66 0 112.5 -49t46.5 -118l-3 -33h-234q8 -31 32 -47.5t57 -16.5q50 0 91 31l41 -61q-62 -45 -133 -45q-74 0 -125 46t-51 123z" />
    <glyph glyph-name="f.sups" horiz-adv-x="230" 
d="M54 241v343h-45v71h45v14q0 59 32 84.5t69 25.5q27 0 51.5 -8.5t35.5 -17.5l10 -9l-40 -54q-27 16 -47 16q-27 0 -27 -40v-11h86v-71h-87v-343h-83z" />
    <glyph glyph-name="g.sups" horiz-adv-x="397" 
d="M45 277l37 54q42 -36 96 -36q33 0 63.5 21.5t30.5 65.5q-38 -40 -96 -40q-68 0 -111.5 46t-43.5 114q0 67 43.5 112t111.5 45q56 0 96 -43v36h83v-252q0 -84 -53.5 -127.5t-119.5 -43.5q-80 0 -137 48zM103 496q0 -38 22.5 -61t59.5 -23q36 0 58.5 23.5t22.5 60.5
q0 39 -22.5 62.5t-58.5 23.5q-37 0 -59.5 -23.5t-22.5 -62.5z" />
    <glyph glyph-name="h.sups" horiz-adv-x="384" 
d="M45 331v430h83v-135q36 37 94 37q120 0 120 -145v-187h-83v177q0 38 -13.5 56t-47.5 18q-32 0 -51 -22t-19 -59v-170h-83z" />
    <glyph glyph-name="i.sups" horiz-adv-x="171" 
d="M44 331v327h83v-327h-83zM36 740q0 21 15 35.5t36 14.5q20 0 34.5 -14.5t14.5 -35.5q0 -20 -15 -35t-34 -15q-21 0 -36 15t-15 35z" />
    <glyph glyph-name="j.sups" horiz-adv-x="169" 
d="M-6 277q48 28 48 89v291h83v-280q0 -115 -99 -161zM34 740q0 20 15 35t35 15t35 -15t15 -35q0 -21 -15 -35.5t-35 -14.5t-35 14.5t-15 35.5z" />
    <glyph glyph-name="k.sups" horiz-adv-x="362" 
d="M45 331v430h83v-243l118 140h101l-130 -146l153 -181h-99l-103 124q-37 -42 -40 -46v-78h-83z" />
    <glyph glyph-name="l.sups" horiz-adv-x="173" 
d="M45 331v430h83v-430h-83z" />
    <glyph glyph-name="m.sups" horiz-adv-x="582" 
d="M45 331v326h83v-32q36 39 85 39q71 0 100 -52q38 52 102 52q125 0 125 -146v-187h-83v177q0 35 -12 54.5t-46 19.5q-30 0 -47.5 -20t-17.5 -50v-181h-83v177q0 35 -12 54.5t-46 19.5q-30 0 -47.5 -22t-17.5 -53v-176h-83z" />
    <glyph glyph-name="o.sups" horiz-adv-x="393" 
d="M196 663q71 0 121.5 -49.5t50.5 -120.5q0 -70 -50.5 -119.5t-121.5 -49.5t-121.5 49.5t-50.5 119.5q0 71 50.5 120.5t121.5 49.5zM196 405q36 0 62 26t26 62q0 37 -26 63t-62 26t-62 -26t-26 -63q0 -36 26 -62t62 -26z" />
    <glyph glyph-name="p.sups" horiz-adv-x="398" 
d="M45 244v414h83v-36q37 42 92 42q67 0 110.5 -49t43.5 -121q0 -71 -43.5 -120.5t-110.5 -49.5q-55 0 -92 42v-122h-83zM128 494q0 -38 22.5 -63.5t57.5 -25.5q36 0 59 25.5t23 63.5q0 39 -23 63.5t-59 24.5q-35 0 -57.5 -24.5t-22.5 -63.5z" />
    <glyph glyph-name="q.sups" horiz-adv-x="397" 
d="M24 494q0 72 43 121t110 49q56 0 93 -42v35h83v-413h-83v122q-37 -42 -93 -42q-67 0 -110 49t-43 121zM108 494q0 -38 23 -63.5t58 -25.5t58 25.5t23 63.5q0 39 -23 63.5t-58 24.5t-58 -25t-23 -63z" />
    <glyph glyph-name="r.sups" horiz-adv-x="252" 
d="M45 331v326h83v-41q35 48 114 48v-90q-114 0 -114 -109v-134h-83z" />
    <glyph glyph-name="s.sups" horiz-adv-x="321" 
d="M24 373l34 65q44 -39 99 -39q23 0 40 7.5t17 22.5q0 19 -60 33q-56 14 -85 34.5t-29 66.5q0 47 37.5 73.5t87.5 26.5q60 0 119 -35l-32 -64q-44 25 -87 25q-18 0 -29.5 -7t-11.5 -18q0 -16 49 -28q57 -13 91 -36t34 -69q0 -53 -44 -80t-96 -27q-82 0 -134 49z" />
    <glyph glyph-name="t.sups" horiz-adv-x="267" 
d="M68 442v145h-45v70h45v61l83 18v-79h95v-70h-95v-150q0 -38 27 -38q10 0 22 4.5t19 9.5l7 5l28 -65q-41 -29 -85 -29q-101 0 -101 118z" />
    <glyph glyph-name="u.sups" horiz-adv-x="383" 
d="M165 324q-64 0 -93.5 43t-29.5 104v186h83v-177q0 -38 13.5 -56.5t47.5 -18.5q32 0 50.5 21t18.5 60v171h83v-326h-83v31q-37 -38 -90 -38z" />
    <glyph glyph-name="v.sups" horiz-adv-x="345" 
d="M134 329l-136 327h83l67 -161l24 -73q16 51 25 73l66 161h83l-136 -327h-76z" />
    <glyph glyph-name="w.sups" horiz-adv-x="470" 
d="M106 329l-108 328h80l59 -178l6 -31q3 22 5 30l49 179h77l49 -179q1 -6 2 -11t2 -8t1 -5.5v-3.5l1 -2q2 20 6 31l58 178h80l-108 -328h-72l-50 176l-7 58q-2 -35 -8 -58l-50 -176h-72z" />
    <glyph glyph-name="x.sups" horiz-adv-x="327" 
d="M0 331l115 166l-115 160h90l53 -73l21 -34q19 32 20 33l53 74h90l-114 -160l114 -166h-90l-51 72q-22 32 -22 37q-2 -4 -24 -36l-50 -73h-90z" />
    <glyph glyph-name="y.sups" horiz-adv-x="358" 
d="M64 232v77q29 0 44 10t27 34l5 11l-141 293h86l79 -169l16 -43q7 23 16 45l72 167h85l-152 -342q-37 -83 -137 -83z" />
    <glyph glyph-name="z.sups" horiz-adv-x="296" 
d="M12 331v61l122 151l35 38h-151v76h260v-60l-122 -148l-36 -42h163v-76h-271z" />
    <glyph glyph-name="commaaccentcomb" horiz-adv-x="375" 
d="M119 -235q59 62 59 126q0 16 -14 44l73 26q19 -27 19 -57q0 -80 -75 -139h-62z" />
    <glyph glyph-name="zero.dnom" horiz-adv-x="440" 
d="M127 227q0 -70 25 -113t67 -43t67.5 43t25.5 113q0 69 -25.5 113t-67.5 44t-67 -44t-25 -113zM32 227q0 104 52.5 170.5t134.5 66.5q83 0 135.5 -66.5t52.5 -170.5t-53 -170t-135 -66t-134.5 66.5t-52.5 169.5z" />
    <glyph glyph-name="one.dnom" horiz-adv-x="349" 
d="M167 0v346l-96 -68l-38 60l155 123h68v-461h-89z" />
    <glyph glyph-name="two.dnom" horiz-adv-x="401" 
d="M36 0v60q125 114 171 167.5t46 95.5q0 28 -18.5 45.5t-53.5 17.5q-53 0 -97 -53l-46 61q63 73 152 73q72 0 115 -38t43 -99q0 -63 -47.5 -121.5t-133.5 -128.5h193v-80h-324z" />
    <glyph glyph-name="three.dnom" horiz-adv-x="424" 
d="M39 50l43 62q47 -41 110 -41q48 0 73 24.5t25 57.5q0 32 -23.5 53.5t-71.5 21.5q-33 0 -67 -22l-33 53l140 119h-179v80h303v-70l-115 -100h4q52 0 94.5 -38t42.5 -101q0 -67 -51 -112.5t-138 -45.5q-96 0 -157 59z" />
    <glyph glyph-name="four.dnom" horiz-adv-x="429" 
d="M248 0v95h-217v60l183 313l77 -36l-155 -256h112v91h89v-91h53v-81h-53v-95h-89z" />
    <glyph glyph-name="five.dnom" horiz-adv-x="421" 
d="M46 40l34 69q42 -36 110 -36q46 0 71 22t25 53q0 37 -26.5 56.5t-67.5 19.5q-45 0 -88 -28l-41 30v232h289v-81h-204v-84q30 8 60 8q73 0 120.5 -41t47.5 -112t-49 -115.5t-133 -44.5q-87 0 -148 52z" />
    <glyph glyph-name="six.dnom" horiz-adv-x="434" 
d="M46 158q0 51 42 109l157 212l67 -54l-92 -114q8 1 10 1q68 0 113 -45t45 -109q0 -72 -46.5 -119.5t-124.5 -47.5t-124.5 47.5t-46.5 119.5zM136 154q0 -34 23 -57.5t57 -23.5t57.5 23.5t23.5 57.5q0 37 -23.5 60.5t-57.5 23.5t-57 -23.5t-23 -60.5z" />
    <glyph glyph-name="seven.dnom" horiz-adv-x="378" 
d="M62 0l188 381h-229v80h338v-58l-200 -403h-97z" />
    <glyph glyph-name="eight.dnom" horiz-adv-x="434" 
d="M43 139q0 83 71 118q-43 33 -43 87t40 87.5t106 33.5q65 0 105 -33.5t40 -87.5q0 -52 -43 -87q71 -35 71 -118q0 -66 -47 -107t-126 -41t-126.5 41t-47.5 107zM139 145q0 -30 21 -49.5t57 -19.5t56.5 19.5t20.5 49.5q0 28 -19.5 47.5t-57.5 19.5t-58 -19.5t-20 -47.5z
M154 336q0 -22 16.5 -38t46.5 -16t46 15.5t16 38.5t-17 38t-45 15q-29 0 -46 -15t-17 -38z" />
    <glyph glyph-name="nine.dnom" horiz-adv-x="434" 
d="M129 42l84 102q-5 -1 -10 -1q-68 0 -112.5 45.5t-44.5 109.5q0 71 46.5 118.5t124.5 47.5t124.5 -47.5t46.5 -118.5q0 -53 -42 -109l-149 -202zM136 301q0 -37 23.5 -60.5t57.5 -23.5t57 23.5t23 60.5q0 34 -23 57.5t-57 23.5t-57.5 -23.5t-23.5 -57.5z" />
    <glyph glyph-name="at.cap" horiz-adv-x="934" 
d="M70 294q0 163 117 278t281 115q158 0 270.5 -100.5t112.5 -251.5q0 -106 -45 -170t-115 -64q-76 0 -102 67q-48 -76 -151 -76q-72 0 -127 59.5t-55 141.5q0 81 55 140t127 59q81 0 133 -58v49h80v-235q0 -30 10.5 -52t34.5 -22q33 0 56.5 44.5t23.5 116.5
q0 123 -85.5 202.5t-222.5 79.5q-131 0 -224 -95t-93 -228q0 -142 91.5 -229.5t223.5 -87.5q84 0 160 37l33 -63q-85 -43 -194 -43q-165 0 -280 107t-115 279zM338 293q0 -52 35 -90t85 -38t81.5 35.5t31.5 92.5q0 59 -31 92.5t-82 33.5t-85.5 -37.5t-34.5 -88.5z" />
    <glyph glyph-name="zero.numerator" horiz-adv-x="440" 
d="M127 421q0 -70 25 -113t67 -43t67.5 43t25.5 113q0 69 -25.5 113t-67.5 44t-67 -44t-25 -113zM32 421q0 104 52.5 170.5t134.5 66.5q83 0 135.5 -66.5t52.5 -170.5t-53 -170t-135 -66t-134.5 66.5t-52.5 169.5z" />
    <glyph glyph-name="one.numerator" horiz-adv-x="349" 
d="M167 190v346l-96 -68l-38 60l155 123h68v-461h-89z" />
    <glyph glyph-name="two.numerator" horiz-adv-x="401" 
d="M36 190v60q125 114 171 167.5t46 95.5q0 28 -18.5 45.5t-53.5 17.5q-53 0 -97 -53l-46 61q63 73 152 73q72 0 115 -38t43 -99q0 -63 -47.5 -121.5t-133.5 -128.5h193v-80h-324z" />
    <glyph glyph-name="three.numerator" horiz-adv-x="424" 
d="M39 243l43 62q47 -41 110 -41q48 0 73 24.5t25 57.5q0 32 -23.5 53.5t-71.5 21.5q-33 0 -67 -22l-33 53l140 119h-179v80h303v-70l-115 -100h4q52 0 94.5 -38t42.5 -101q0 -67 -51 -112.5t-138 -45.5q-96 0 -157 59z" />
    <glyph glyph-name="four.numerator" horiz-adv-x="426" 
d="M248 191v95h-217v60l183 313l77 -36l-155 -256h112v91h89v-91h53v-81h-53v-95h-89z" />
    <glyph glyph-name="five.numerator" horiz-adv-x="421" 
d="M46 230l34 69q42 -36 110 -36q46 0 71 22t25 53q0 37 -26.5 56.5t-67.5 19.5q-45 0 -88 -28l-41 30v232h289v-81h-204v-84q30 8 60 8q73 0 120.5 -41t47.5 -112t-49 -115.5t-133 -44.5q-87 0 -148 52z" />
    <glyph glyph-name="six.numerator" horiz-adv-x="434" 
d="M46 351q0 51 42 109l157 212l67 -54l-92 -114q8 1 10 1q68 0 113 -45t45 -109q0 -72 -46.5 -119.5t-124.5 -47.5t-124.5 47.5t-46.5 119.5zM136 347q0 -34 23 -57.5t57 -23.5t57.5 23.5t23.5 57.5q0 37 -23.5 60.5t-57.5 23.5t-57 -23.5t-23 -60.5z" />
    <glyph glyph-name="seven.numerator" horiz-adv-x="378" 
d="M62 190l188 381h-229v80h338v-58l-200 -403h-97z" />
    <glyph glyph-name="eight.numerator" horiz-adv-x="434" 
d="M43 332q0 82 71 118q-43 33 -43 87t40 87.5t106 33.5q65 0 105 -33.5t40 -87.5q0 -52 -43 -87q71 -36 71 -118q0 -66 -47 -107t-126 -41t-126.5 41t-47.5 107zM139 338q0 -30 21 -49.5t57 -19.5t56.5 19.5t20.5 49.5q0 28 -19.5 47.5t-57.5 19.5t-58 -19.5t-20 -47.5z
M154 529q0 -23 16.5 -38.5t46.5 -15.5t46 15.5t16 38.5t-17 38t-45 15q-29 0 -46 -15t-17 -38z" />
    <glyph glyph-name="nine.numerator" horiz-adv-x="434" 
d="M129 235l84 102q-5 -1 -10 -1q-68 0 -112.5 45.5t-44.5 109.5q0 71 46.5 118.5t124.5 47.5t124.5 -47.5t46.5 -118.5q0 -53 -42 -109l-149 -202zM136 494q0 -37 23.5 -60.5t57.5 -23.5t57 23.5t23 60.5q0 34 -23 57.5t-57 23.5t-57.5 -23.5t-23.5 -57.5z" />
    <glyph glyph-name="comma.dnom" horiz-adv-x="177" 
d="M10 -82l41 199h88l-72 -199h-57z" />
    <glyph glyph-name="period.dnom" horiz-adv-x="177" 
d="M27 50q0 25 18 42.5t42 17.5q25 0 42.5 -17.5t17.5 -42.5t-17.5 -42.5t-42.5 -17.5t-42.5 17.5t-17.5 42.5z" />
    <glyph glyph-name="period.numerator" horiz-adv-x="177" 
d="M27 245q0 25 18 42.5t42 17.5q25 0 42.5 -17.5t17.5 -42.5t-17.5 -42.5t-42.5 -17.5t-42.5 17.5t-17.5 42.5z" />
    <glyph glyph-name="comma.numerator" horiz-adv-x="177" 
d="M10 113l41 199h88l-72 -199h-57z" />
    <glyph glyph-name="A.small" horiz-adv-x="618" 
d="M4 0l249 565h112l248 -565h-116l-38 83h-301l-36 -83h-118zM198 174h222l-63 141q-12 26 -24 58t-18 50l-6 18q-22 -66 -48 -125z" />
    <glyph glyph-name="B.small" horiz-adv-x="589" 
d="M61 0v564h263q77 0 125.5 -36t48.5 -110q0 -31 -16.5 -59t-40.5 -41q48 -11 78.5 -50t30.5 -91q0 -87 -58 -132t-156 -45h-275zM176 99h151q103 0 103 76q0 40 -26 59.5t-70 19.5h-158v-155zM176 353h139q63 0 63 55q0 57 -65 57h-137v-112z" />
    <glyph glyph-name="C.small" horiz-adv-x="558" 
d="M35 282q0 122 85 206t213 84q109 0 187 -62l-66 -78q-48 36 -113 36q-82 0 -134 -54t-52 -132t51.5 -133t127.5 -55q78 0 132 49l69 -79q-84 -74 -202 -74q-128 0 -213 84.5t-85 207.5z" />
    <glyph glyph-name="D.small" horiz-adv-x="622" 
d="M176 99h105q82 0 133.5 51.5t51.5 131.5t-51.5 131.5t-133.5 51.5h-105v-366zM61 0v564h224q135 0 218 -81.5t83 -200.5t-83 -200.5t-218 -81.5h-224z" />
    <glyph glyph-name="E.small" horiz-adv-x="549" 
d="M61 0v564h450v-99h-335v-121h316v-98h-316v-147h347v-99h-462z" />
    <glyph glyph-name="F.small" horiz-adv-x="495" 
d="M61 0v564h424v-99h-309v-121h253v-98h-253v-246h-115z" />
    <glyph glyph-name="G.small" horiz-adv-x="624" 
d="M35 281q0 122 85 206.5t213 84.5q107 0 192 -65l-68 -79q-49 40 -123 40q-76 0 -127.5 -55t-51.5 -132t51.5 -132t127.5 -55q80 0 132 60v88h-95v96h205v-228q-38 -56 -102.5 -88t-140.5 -32q-129 0 -213.5 84t-84.5 207z" />
    <glyph glyph-name="H.small" horiz-adv-x="605" 
d="M61 0v564h115v-219h252v219h115v-564h-115v246h-252v-246h-115z" />
    <glyph glyph-name="I.small" horiz-adv-x="237" 
d="M61 0v564h115v-564h-115z" />
    <glyph glyph-name="J.small" horiz-adv-x="496" 
d="M18 107l83 63q36 -75 114 -75q54 0 83.5 34.5t29.5 96.5v338h115v-327q0 -127 -64 -187t-165 -60q-137 0 -196 117z" />
    <glyph glyph-name="K.small" horiz-adv-x="584" 
d="M61 0v564h115v-322q40 60 64 92l176 230h134l-200 -264l225 -300h-135l-161 219l-103 -129v-90h-115z" />
    <glyph glyph-name="L.small" horiz-adv-x="533" 
d="M61 0v564h115v-465h330v-99h-445z" />
    <glyph glyph-name="M.small" horiz-adv-x="712" 
d="M61 0v564h96l200 -272l199 272h95v-564h-115v367q-19 -38 -60 -94l-119 -159l-121 161q-10 13 -24.5 35t-24.5 38t-11 18v-366h-115z" />
    <glyph glyph-name="N.small" horiz-adv-x="619" 
d="M61 0v564h120l170 -239q18 -26 41 -62.5t37 -60.5l14 -23v385h115v-564h-121l-160 224q-23 32 -48.5 71.5t-38.5 62.5l-14 23v-381h-115z" />
    <glyph glyph-name="O.small" horiz-adv-x="666" 
d="M35 282q0 122 85 206t213 84t213 -84t85 -206q0 -123 -85 -207.5t-213 -84.5t-213 84.5t-85 207.5zM155 282q0 -78 51.5 -133t127.5 -55q75 0 126 55t51 133q0 77 -51 131.5t-126 54.5q-76 0 -127.5 -54.5t-51.5 -131.5z" />
    <glyph glyph-name="P.small" horiz-adv-x="593" 
d="M61 0v564h240q121 0 186 -61.5t65 -155.5q0 -95 -65 -155.5t-186 -60.5h-125v-131h-115zM308 465h-132v-236h131q57 0 91 33.5t34 84.5q0 50 -33.5 84t-90.5 34z" />
    <glyph glyph-name="Q.small" horiz-adv-x="666" 
d="M35 282q0 122 85 206t213 84t213 -84t85 -206q0 -100 -58 -177l41 -41l-71 -72l-46 45q-71 -47 -164 -47q-128 0 -213 84.5t-85 207.5zM155 282q0 -78 51.5 -133t127.5 -55q45 0 83 24l-69 71l72 71l68 -69q23 40 23 91q0 77 -51 131.5t-126 54.5q-76 0 -127.5 -54.5
t-51.5 -131.5z" />
    <glyph glyph-name="R.small" horiz-adv-x="593" 
d="M61 0v564h239q121 0 186.5 -61.5t65.5 -155.5q0 -57 -28 -106t-80 -77l118 -164h-141l-90 132q-28 -1 -84 -1h-71v-131h-115zM176 229h130q58 0 92 33.5t34 84.5t-34 84.5t-91 33.5h-131v-236z" />
    <glyph glyph-name="S.small" horiz-adv-x="530" 
d="M32 64l50 91q73 -62 177 -62q51 0 83 20.5t32 51.5q0 24 -23.5 41t-59 25.5t-76.5 22t-76.5 29t-59 48.5t-23.5 79q0 77 61.5 119.5t146.5 42.5q113 0 208 -62l-45 -90q-76 48 -163 48q-35 0 -61.5 -15.5t-26.5 -39.5q0 -26 33 -43t79.5 -29.5t93 -30t79.5 -54t33 -91.5
q0 -84 -68 -129.5t-163 -45.5q-145 0 -231 74z" />
    <glyph glyph-name="T.small" horiz-adv-x="539" 
d="M522 564v-99h-195v-465h-115v465h-195v99h505z" />
    <glyph glyph-name="U.small" horiz-adv-x="587" 
d="M293 -10q-101 0 -171 64t-70 166v344h115v-339q0 -57 36.5 -94t89.5 -37t89.5 37t36.5 94v339h115v-344q0 -102 -70 -166t-171 -64z" />
    <glyph glyph-name="V.small" horiz-adv-x="583" 
d="M232 -1l-223 565h115l120 -299l47 -136q30 93 47 136l120 299h116l-225 -565h-117z" />
    <glyph glyph-name="W.small" horiz-adv-x="821" 
d="M184 -1l-175 565h114l95 -316l30 -102l25 102l75 316h124l76 -316l24 -102q14 52 30 103l97 315h113l-176 -565h-125l-77 297l-24 123q-9 -70 -23 -123l-78 -297h-125z" />
    <glyph glyph-name="X.small" horiz-adv-x="545" 
d="M9 0l199 282l-194 282h130l68 -96l60 -98q50 79 63 98l66 96h131l-195 -282l199 -282h-133l-70 103l-61 91l-60 -93l-71 -101h-132z" />
    <glyph glyph-name="Y.small" horiz-adv-x="559" 
d="M223 0v257l-214 307h129l72 -101l70 -107l72 107l69 101h129l-212 -306v-258h-115z" />
    <glyph glyph-name="Z.small" horiz-adv-x="523" 
d="M26 0v86l260 314q16 19 31.5 35.5t22.5 22.5l7 7h-306v99h448v-87l-249 -300l-70 -78h327v-99h-471z" />
    <glyph glyph-name="Agrave.small" horiz-adv-x="618" 
d="M265 611l-104 147h114l88 -147h-98zM4 0l249 565h112l248 -565h-116l-38 83h-301l-36 -83h-118zM198 174h222l-63 141q-12 26 -24 58t-18 50l-6 18q-22 -66 -48 -125z" />
    <glyph glyph-name="Aacute.small" horiz-adv-x="618" 
d="M254 611l89 147h114l-104 -147h-99zM4 0l249 565h112l248 -565h-116l-38 83h-301l-36 -83h-118zM198 174h222l-63 141q-12 26 -24 58t-18 50l-6 18q-22 -66 -48 -125z" />
    <glyph glyph-name="Acircumflex.small" horiz-adv-x="618" 
d="M4 0l249 565h112l248 -565h-116l-38 83h-301l-36 -83h-118zM198 174h222l-63 141q-12 26 -24 58t-18 50l-6 18q-22 -66 -48 -125zM150 610l102 148h113l102 -148h-85l-74 91l-73 -91h-85z" />
    <glyph glyph-name="Atilde.small" horiz-adv-x="618" 
d="M157 606q0 54 23 87t59 33q33 0 75.5 -25t52.5 -25q32 0 32 50h61q0 -54 -22.5 -87t-59.5 -33q-32 0 -75 25.5t-53 25.5q-31 0 -31 -51h-62zM4 0l249 565h112l248 -565h-116l-38 83h-301l-36 -83h-118zM198 174h222l-63 141q-12 26 -24 58t-18 50l-6 18q-22 -66 -48 -125
z" />
    <glyph glyph-name="Adieresis.small" horiz-adv-x="618" 
d="M4 0l249 565h112l248 -565h-116l-38 83h-301l-36 -83h-118zM198 174h222l-63 141q-12 26 -24 58t-18 50l-6 18q-22 -66 -48 -125zM164 662q0 23 16.5 39.5t39.5 16.5t39.5 -16.5t16.5 -39.5t-16.5 -39.5t-39.5 -16.5t-39.5 16.5t-16.5 39.5zM342 662q0 23 16.5 39.5
t39.5 16.5t39.5 -16.5t16.5 -39.5t-16.5 -39.5t-39.5 -16.5t-39.5 16.5t-16.5 39.5z" />
    <glyph glyph-name="Amacron.small" horiz-adv-x="618" 
d="M199 621v81h221v-81h-221zM4 0l249 565h112l248 -565h-116l-38 83h-301l-36 -83h-118zM198 174h222l-63 141q-12 26 -24 58t-18 50l-6 18q-22 -66 -48 -125z" />
    <glyph glyph-name="Abreve.small" horiz-adv-x="618" 
d="M309 606q-53 0 -85.5 35.5t-32.5 86.5h60q1 -23 18 -38t40 -15t39 15t17 38h62q0 -51 -32.5 -86.5t-85.5 -35.5zM4 0l249 565h112l248 -565h-116l-38 83h-301l-36 -83h-118zM198 174h222l-63 141q-12 26 -24 58t-18 50l-6 18q-22 -66 -48 -125z" />
    <glyph glyph-name="Aring.small" horiz-adv-x="618" 
d="M206 697q0 43 31 74t74 31t74 -31t31 -74t-31 -74t-74 -31t-74 31t-31 74zM261 697q0 -21 14.5 -37t35.5 -16t35.5 16t14.5 37t-14.5 37t-35.5 16t-35.5 -16t-14.5 -37zM4 0l249 565h112l248 -565h-116l-38 83h-301l-36 -83h-118zM198 174h222l-63 141q-12 26 -24 58
t-18 50l-6 18q-22 -66 -48 -125z" />
    <glyph glyph-name="Aringacute.small" horiz-adv-x="618" 
d="M4 0l249 565h112l248 -565h-116l-38 83h-301l-36 -83h-118zM206 697q0 56 46 87l76 145h99l-82 -133q31 -11 51 -38.5t20 -60.5q0 -43 -31 -74t-74 -31t-74 31t-31 74zM198 174h222l-63 141q-12 26 -24 58t-18 50l-6 18q-22 -66 -48 -125zM261 697q0 -21 14.5 -37
t35.5 -16t35.5 16t14.5 37t-14.5 37t-35.5 16t-35.5 -16t-14.5 -37z" />
    <glyph glyph-name="Aogonek.small" horiz-adv-x="618" 
d="M4 0l249 565h112l248 -565h-53q-18 -17 -30 -43.5t-12 -50.5q0 -26 16 -42t40 -16q14 0 36 9l18 -48q-41 -29 -86 -29q-38 0 -66 24.5t-28 67.5q0 71 49 128l-38 83h-301l-36 -83h-118zM198 174h222l-63 141q-12 26 -24 58t-18 50l-6 18q-22 -66 -48 -125z" />
    <glyph glyph-name="AE.small" horiz-adv-x="859" 
d="M4 0l350 564h467v-99h-303v-122h283v-98h-283v-146h315v-99h-430v83h-220l-52 -83h-127zM238 174h165v293q-17 -40 -46 -89z" />
    <glyph glyph-name="AEacute.small" horiz-adv-x="867" 
d="M496 611l89 147h114l-104 -147h-99zM4 0l350 564h467v-99h-303v-122h283v-98h-283v-146h315v-99h-430v83h-220l-52 -83h-127zM238 174h165v293q-17 -40 -46 -89z" />
    <glyph glyph-name="Cacute.small" horiz-adv-x="558" 
d="M266 611l89 147h114l-104 -147h-99zM35 282q0 122 85 206t213 84q109 0 187 -62l-66 -78q-48 36 -113 36q-82 0 -134 -54t-52 -132t51.5 -133t127.5 -55q78 0 132 49l69 -79q-84 -74 -202 -74q-128 0 -213 84.5t-85 207.5z" />
    <glyph glyph-name="Ccircumflex.small" horiz-adv-x="558" 
d="M35 282q0 122 85 206t213 84q109 0 187 -62l-66 -78q-48 36 -113 36q-82 0 -134 -54t-52 -132t51.5 -133t127.5 -55q78 0 132 49l69 -79q-84 -74 -202 -74q-128 0 -213 84.5t-85 207.5zM176 610l102 148h113l102 -148h-85l-74 91l-73 -91h-85z" />
    <glyph glyph-name="Ccaron.small" horiz-adv-x="558" 
d="M278 610l-103 148h85l74 -91l74 91h85l-102 -148h-113zM35 282q0 122 85 206t213 84q109 0 187 -62l-66 -78q-48 36 -113 36q-82 0 -134 -54t-52 -132t51.5 -133t127.5 -55q78 0 132 49l69 -79q-84 -74 -202 -74q-128 0 -213 84.5t-85 207.5z" />
    <glyph glyph-name="Cdotaccent.small" horiz-adv-x="558" 
d="M35 282q0 122 85 206t213 84q109 0 187 -62l-66 -78q-48 36 -113 36q-82 0 -134 -54t-52 -132t51.5 -133t127.5 -55q78 0 132 49l69 -79q-84 -74 -202 -74q-128 0 -213 84.5t-85 207.5zM268 673q0 28 19.5 48t47.5 20t48 -20t20 -48t-20 -47.5t-48 -19.5t-47.5 19.5
t-19.5 47.5z" />
    <glyph glyph-name="Ccedilla.small" horiz-adv-x="558" 
d="M199 -187l27 45q41 -23 82 -23q27 0 44 14.5t17 31.5q0 28 -37 28q-32 0 -46 -27l-57 20l55 92q-110 16 -179.5 96.5t-69.5 191.5q0 122 85 206t213 84q109 0 187 -62l-66 -78q-48 36 -113 36q-82 0 -134 -54t-52 -132t51.5 -133t127.5 -55q78 0 132 49l69 -79
q-79 -70 -188 -74l-23 -41q16 6 29 6q38 0 61.5 -21t23.5 -52q0 -40 -35 -69.5t-94 -29.5q-68 0 -110 30z" />
    <glyph glyph-name="Dcaron.small" horiz-adv-x="622" 
d="M213 610l-103 148h85l74 -91l74 91h85l-102 -148h-113zM176 99h105q82 0 133.5 51.5t51.5 131.5t-51.5 131.5t-133.5 51.5h-105v-366zM61 0v564h224q135 0 218 -81.5t83 -200.5t-83 -200.5t-218 -81.5h-224z" />
    <glyph glyph-name="Dcroat.small" horiz-adv-x="622" 
d="M61 0v249h-70v82h70v233h226q133 0 216 -81.5t83 -200.5t-83 -200.5t-216 -81.5h-226zM176 99h105q82 0 133.5 51.5t51.5 131.5q0 85 -54.5 134t-144.5 49h-91v-134h115v-82h-115v-150z" />
    <glyph glyph-name="Egrave.small" horiz-adv-x="549" 
d="M270 611l-104 147h114l88 -147h-98zM61 0v564h450v-99h-335v-121h316v-98h-316v-147h347v-99h-462z" />
    <glyph glyph-name="Eacute.small" horiz-adv-x="549" 
d="M212 611l89 147h114l-104 -147h-99zM61 0v564h450v-99h-335v-121h316v-98h-316v-147h347v-99h-462z" />
    <glyph glyph-name="Ecircumflex.small" horiz-adv-x="549" 
d="M61 0v564h450v-99h-335v-121h316v-98h-316v-147h347v-99h-462zM133 610l102 148h113l102 -148h-85l-74 91l-73 -91h-85z" />
    <glyph glyph-name="Ecaron.small" horiz-adv-x="549" 
d="M242 610l-103 148h85l74 -91l74 91h85l-102 -148h-113zM61 0v564h450v-99h-335v-121h316v-98h-316v-147h347v-99h-462z" />
    <glyph glyph-name="Edieresis.small" horiz-adv-x="549" 
d="M61 0v564h450v-99h-335v-121h316v-98h-316v-147h347v-99h-462zM147 662q0 23 16.5 39.5t39.5 16.5t39.5 -16.5t16.5 -39.5t-16.5 -39.5t-39.5 -16.5t-39.5 16.5t-16.5 39.5zM325 662q0 23 16.5 39.5t39.5 16.5t39.5 -16.5t16.5 -39.5t-16.5 -39.5t-39.5 -16.5t-39.5 16.5
t-16.5 39.5z" />
    <glyph glyph-name="Emacron.small" horiz-adv-x="549" 
d="M180 621v81h221v-81h-221zM61 0v564h450v-99h-335v-121h316v-98h-316v-147h347v-99h-462z" />
    <glyph glyph-name="Ebreve.small" horiz-adv-x="549" 
d="M299 606q-53 0 -85.5 35.5t-32.5 86.5h60q1 -23 18 -38t40 -15t39 15t17 38h62q0 -51 -32.5 -86.5t-85.5 -35.5zM61 0v564h450v-99h-335v-121h316v-98h-316v-147h347v-99h-462z" />
    <glyph glyph-name="Edotaccent.small" horiz-adv-x="549" 
d="M61 0v564h450v-99h-335v-121h316v-98h-316v-147h347v-99h-462zM224 673q0 28 19.5 48t47.5 20t48 -20t20 -48t-20 -47.5t-48 -19.5t-47.5 19.5t-19.5 47.5z" />
    <glyph glyph-name="Eogonek.small" horiz-adv-x="552" 
d="M61 0v564h450v-99h-335v-121h316v-98h-316v-147h347v-99h-77q-18 -17 -30 -43.5t-12 -50.5q0 -26 16 -42t40 -16q14 0 36 9l18 -48q-41 -29 -86 -29q-38 0 -66 24.5t-28 67.5q0 71 49 128h-322z" />
    <glyph glyph-name="Gcircumflex.small" horiz-adv-x="624" 
d="M35 281q0 122 85 206.5t213 84.5q107 0 192 -65l-68 -79q-49 40 -123 40q-76 0 -127.5 -55t-51.5 -132t51.5 -132t127.5 -55q80 0 132 60v88h-95v96h205v-228q-38 -56 -102.5 -88t-140.5 -32q-129 0 -213.5 84t-84.5 207zM158 610l102 148h113l102 -148h-85l-74 91
l-73 -91h-85z" />
    <glyph glyph-name="Gbreve.small" horiz-adv-x="624" 
d="M325 606q-53 0 -85.5 35.5t-32.5 86.5h60q1 -23 18 -38t40 -15t39 15t17 38h62q0 -51 -32.5 -86.5t-85.5 -35.5zM35 281q0 122 85 206.5t213 84.5q107 0 192 -65l-68 -79q-49 40 -123 40q-76 0 -127.5 -55t-51.5 -132t51.5 -132t127.5 -55q80 0 132 60v88h-95v96h205
v-228q-38 -56 -102.5 -88t-140.5 -32q-129 0 -213.5 84t-84.5 207z" />
    <glyph glyph-name="Gdotaccent.small" horiz-adv-x="624" 
d="M35 281q0 122 85 206.5t213 84.5q107 0 192 -65l-68 -79q-49 40 -123 40q-76 0 -127.5 -55t-51.5 -132t51.5 -132t127.5 -55q80 0 132 60v88h-95v96h205v-228q-38 -56 -102.5 -88t-140.5 -32q-129 0 -213.5 84t-84.5 207zM258 673q0 28 19.5 48t47.5 20t48 -20t20 -48
t-20 -47.5t-48 -19.5t-47.5 19.5t-19.5 47.5z" />
    <glyph glyph-name="Gcommaaccent.small" horiz-adv-x="624" 
d="M35 281q0 122 85 206.5t213 84.5q107 0 192 -65l-68 -79q-49 40 -123 40q-76 0 -127.5 -55t-51.5 -132t51.5 -132t127.5 -55q80 0 132 60v88h-95v96h205v-228q-38 -56 -102.5 -88t-140.5 -32q-129 0 -213.5 84t-84.5 207zM267 -235q59 62 59 126q0 16 -14 44l73 26
q19 -27 19 -57q0 -80 -75 -139h-62z" />
    <glyph glyph-name="Hcircumflex.small" horiz-adv-x="605" 
d="M61 0v564h115v-219h252v219h115v-564h-115v246h-252v-246h-115zM151 610l102 148h113l102 -148h-85l-74 91l-73 -91h-85z" />
    <glyph glyph-name="Hbar.small" horiz-adv-x="605" 
d="M61 0v421h-35v74h35v69h115v-69h252v69h115v-69h35v-74h-35v-421h-115v246h-252v-246h-115zM176 345h252v76h-252v-76z" />
    <glyph glyph-name="Igrave.small" horiz-adv-x="237" 
d="M81 611l-104 147h114l88 -147h-98zM61 0v564h115v-564h-115z" />
    <glyph glyph-name="Iacute.small" horiz-adv-x="237" 
d="M58 611l89 147h114l-104 -147h-99zM61 0v564h115v-564h-115z" />
    <glyph glyph-name="Icircumflex.small" horiz-adv-x="237" 
d="M61 0v564h115v-564h-115zM-40 610l102 148h113l102 -148h-85l-74 91l-73 -91h-85z" />
    <glyph glyph-name="Itilde.small" horiz-adv-x="237" 
d="M-33 606q0 54 23 87t59 33q33 0 75.5 -25t52.5 -25q32 0 32 50h61q0 -54 -22.5 -87t-59.5 -33q-32 0 -75 25.5t-53 25.5q-31 0 -31 -51h-62zM61 0v564h115v-564h-115z" />
    <glyph glyph-name="Idieresis.small" horiz-adv-x="237" 
d="M61 0v564h115v-564h-115zM-27 662q0 23 16.5 39.5t39.5 16.5t39.5 -16.5t16.5 -39.5t-16.5 -39.5t-39.5 -16.5t-39.5 16.5t-16.5 39.5zM151 662q0 23 16.5 39.5t39.5 16.5t39.5 -16.5t16.5 -39.5t-16.5 -39.5t-39.5 -16.5t-39.5 16.5t-16.5 39.5z" />
    <glyph glyph-name="Imacron.small" horiz-adv-x="237" 
d="M8 621v81h221v-81h-221zM61 0v564h115v-564h-115z" />
    <glyph glyph-name="Ibreve.small" horiz-adv-x="237" 
d="M119 606q-53 0 -85.5 35.5t-32.5 86.5h60q1 -23 18 -38t40 -15t39 15t17 38h62q0 -51 -32.5 -86.5t-85.5 -35.5zM61 0v564h115v-564h-115z" />
    <glyph glyph-name="Idotaccent.small" horiz-adv-x="237" 
d="M61 0v564h115v-564h-115zM52 673q0 28 19.5 48t47.5 20t48 -20t20 -48t-20 -47.5t-48 -19.5t-47.5 19.5t-19.5 47.5z" />
    <glyph glyph-name="Iogonek.small" horiz-adv-x="237" 
d="M7 -128q0 74 54 133v559h115v-564h-57q-18 -17 -30 -43.5t-12 -50.5q0 -26 16 -42t40 -16q14 0 36 9l18 -48q-41 -29 -86 -29q-38 0 -66 24.5t-28 67.5z" />
    <glyph glyph-name="Jcircumflex.small" horiz-adv-x="496" 
d="M18 107l83 63q36 -75 114 -75q54 0 83.5 34.5t29.5 96.5v338h115v-327q0 -127 -64 -187t-165 -60q-137 0 -196 117zM222 610l102 148h113l102 -148h-85l-74 91l-73 -91h-85z" />
    <glyph glyph-name="Kcommaaccent.small" horiz-adv-x="584" 
d="M61 0v564h115v-322q40 60 64 92l176 230h134l-200 -264l225 -300h-135l-161 219l-103 -129v-90h-115zM185 -235q59 62 59 126q0 16 -14 44l73 26q19 -27 19 -57q0 -80 -75 -139h-62z" />
    <glyph glyph-name="Lacute.small" horiz-adv-x="533" 
d="M58 611l89 147h114l-104 -147h-99zM61 0v564h115v-465h330v-99h-445z" />
    <glyph glyph-name="Lcaron.small" horiz-adv-x="533" 
d="M61 0v564h115v-465h330v-99h-445zM217 364q61 66 61 135q0 16 -14 47l76 27q19 -29 19 -61q0 -83 -78 -148h-64z" />
    <glyph glyph-name="Lcommaaccent.small" horiz-adv-x="533" 
d="M61 0v564h115v-465h330v-99h-445zM221 -235q59 62 59 126q0 16 -14 44l73 26q19 -27 19 -57q0 -80 -75 -139h-62z" />
    <glyph glyph-name="Lslash.small" horiz-adv-x="533" 
d="M61 0v238l-67 -29v89l67 29v237h115v-188l145 63v-89l-145 -63v-188h330v-99h-445z" />
    <glyph glyph-name="Nacute.small" horiz-adv-x="619" 
d="M239 611l89 147h114l-104 -147h-99zM61 0v564h120l170 -239q18 -26 41 -62.5t37 -60.5l14 -23v385h115v-564h-121l-160 224q-23 32 -48.5 71.5t-38.5 62.5l-14 23v-381h-115z" />
    <glyph glyph-name="Ncaron.small" horiz-adv-x="619" 
d="M253 610l-103 148h85l74 -91l74 91h85l-102 -148h-113zM61 0v564h120l170 -239q18 -26 41 -62.5t37 -60.5l14 -23v385h115v-564h-121l-160 224q-23 32 -48.5 71.5t-38.5 62.5l-14 23v-381h-115z" />
    <glyph glyph-name="Ntilde.small" horiz-adv-x="619" 
d="M158 606q0 54 23 87t59 33q33 0 75.5 -25t52.5 -25q32 0 32 50h61q0 -54 -22.5 -87t-59.5 -33q-32 0 -75 25.5t-53 25.5q-31 0 -31 -51h-62zM61 0v564h120l170 -239q18 -26 41 -62.5t37 -60.5l14 -23v385h115v-564h-121l-160 224q-23 32 -48.5 71.5t-38.5 62.5l-14 23
v-381h-115z" />
    <glyph glyph-name="Ncommaaccent.small" horiz-adv-x="619" 
d="M61 0v564h120l170 -239q18 -26 41 -62.5t37 -60.5l14 -23v385h115v-564h-121l-160 224q-23 32 -48.5 71.5t-38.5 62.5l-14 23v-381h-115zM240 -235q59 62 59 126q0 16 -14 44l73 26q19 -27 19 -57q0 -80 -75 -139h-62z" />
    <glyph glyph-name="Ograve.small" horiz-adv-x="666" 
d="M296 611l-104 147h114l88 -147h-98zM35 282q0 122 85 206t213 84t213 -84t85 -206q0 -123 -85 -207.5t-213 -84.5t-213 84.5t-85 207.5zM155 282q0 -78 51.5 -133t127.5 -55q75 0 126 55t51 133q0 77 -51 131.5t-126 54.5q-76 0 -127.5 -54.5t-51.5 -131.5z" />
    <glyph glyph-name="Oacute.small" horiz-adv-x="666" 
d="M272 611l89 147h114l-104 -147h-99zM35 282q0 122 85 206t213 84t213 -84t85 -206q0 -123 -85 -207.5t-213 -84.5t-213 84.5t-85 207.5zM155 282q0 -78 51.5 -133t127.5 -55q75 0 126 55t51 133q0 77 -51 131.5t-126 54.5q-76 0 -127.5 -54.5t-51.5 -131.5z" />
    <glyph glyph-name="Ocircumflex.small" horiz-adv-x="666" 
d="M35 282q0 122 85 206t213 84t213 -84t85 -206q0 -123 -85 -207.5t-213 -84.5t-213 84.5t-85 207.5zM155 282q0 -78 51.5 -133t127.5 -55q75 0 126 55t51 133q0 77 -51 131.5t-126 54.5q-76 0 -127.5 -54.5t-51.5 -131.5zM174 610l102 148h113l102 -148h-85l-74 91
l-73 -91h-85z" />
    <glyph glyph-name="Otilde.small" horiz-adv-x="666" 
d="M181 606q0 54 23 87t59 33q33 0 75.5 -25t52.5 -25q32 0 32 50h61q0 -54 -22.5 -87t-59.5 -33q-32 0 -75 25.5t-53 25.5q-31 0 -31 -51h-62zM35 282q0 122 85 206t213 84t213 -84t85 -206q0 -123 -85 -207.5t-213 -84.5t-213 84.5t-85 207.5zM155 282q0 -78 51.5 -133
t127.5 -55q75 0 126 55t51 133q0 77 -51 131.5t-126 54.5q-76 0 -127.5 -54.5t-51.5 -131.5z" />
    <glyph glyph-name="Odieresis.small" horiz-adv-x="666" 
d="M35 282q0 122 85 206t213 84t213 -84t85 -206q0 -123 -85 -207.5t-213 -84.5t-213 84.5t-85 207.5zM155 282q0 -78 51.5 -133t127.5 -55q75 0 126 55t51 133q0 77 -51 131.5t-126 54.5q-76 0 -127.5 -54.5t-51.5 -131.5zM188 662q0 23 16.5 39.5t39.5 16.5t39.5 -16.5
t16.5 -39.5t-16.5 -39.5t-39.5 -16.5t-39.5 16.5t-16.5 39.5zM366 662q0 23 16.5 39.5t39.5 16.5t39.5 -16.5t16.5 -39.5t-16.5 -39.5t-39.5 -16.5t-39.5 16.5t-16.5 39.5z" />
    <glyph glyph-name="Omacron.small" horiz-adv-x="666" 
d="M223 621v81h221v-81h-221zM35 282q0 122 85 206t213 84t213 -84t85 -206q0 -123 -85 -207.5t-213 -84.5t-213 84.5t-85 207.5zM155 282q0 -78 51.5 -133t127.5 -55q75 0 126 55t51 133q0 77 -51 131.5t-126 54.5q-76 0 -127.5 -54.5t-51.5 -131.5z" />
    <glyph glyph-name="Obreve.small" horiz-adv-x="666" 
d="M334 606q-53 0 -85.5 35.5t-32.5 86.5h60q1 -23 18 -38t40 -15t39 15t17 38h62q0 -51 -32.5 -86.5t-85.5 -35.5zM35 282q0 122 85 206t213 84t213 -84t85 -206q0 -123 -85 -207.5t-213 -84.5t-213 84.5t-85 207.5zM155 282q0 -78 51.5 -133t127.5 -55q75 0 126 55t51 133
q0 77 -51 131.5t-126 54.5q-76 0 -127.5 -54.5t-51.5 -131.5z" />
    <glyph glyph-name="Ohungarumlaut.small" horiz-adv-x="666" 
d="M35 282q0 122 85 206t213 84t213 -84t85 -206q0 -123 -85 -207.5t-213 -84.5t-213 84.5t-85 207.5zM155 282q0 -78 51.5 -133t127.5 -55q75 0 126 55t51 133q0 77 -51 131.5t-126 54.5q-76 0 -127.5 -54.5t-51.5 -131.5zM205 611l75 134h113l-109 -134h-79zM357 611
l75 134h114l-109 -134h-80z" />
    <glyph glyph-name="Oslash.small" horiz-adv-x="666" 
d="M158 -63l-45 26l47 79q-59 39 -92 102t-33 138q0 122 85 206t213 84q66 0 128 -26l49 79l44 -26l-48 -79q58 -39 91.5 -102t33.5 -136q0 -123 -85 -207.5t-213 -84.5q-68 0 -128 27zM155 282q0 -88 63 -145l188 315q-34 16 -72 16q-76 0 -127.5 -54.5t-51.5 -131.5z
M260 109q37 -15 74 -15q75 0 126 55t51 133q0 84 -62 143z" />
    <glyph glyph-name="Oslashacute.small" horiz-adv-x="666" 
d="M272 611l89 147h114l-104 -147h-99zM158 -63l-45 26l47 79q-59 39 -92 102t-33 138q0 122 85 206t213 84q66 0 128 -26l49 79l44 -26l-48 -79q58 -39 91.5 -102t33.5 -136q0 -123 -85 -207.5t-213 -84.5q-68 0 -128 27zM155 282q0 -88 63 -145l188 315q-34 16 -72 16
q-76 0 -127.5 -54.5t-51.5 -131.5zM260 109q37 -15 74 -15q75 0 126 55t51 133q0 84 -62 143z" />
    <glyph glyph-name="OE.small" horiz-adv-x="937" 
d="M35 282q0 122 85 206t213 84q81 0 148 -48v40h417v-99h-302v-122h282v-98h-282v-146h314v-99h-429v38q-66 -48 -148 -48q-128 0 -213 84.5t-85 207.5zM155 282q0 -78 53.5 -133t134.5 -55q90 0 138 60v252q-49 62 -138 62q-81 0 -134.5 -54.5t-53.5 -131.5z" />
    <glyph glyph-name="Racute.small" horiz-adv-x="593" 
d="M193 611l89 147h114l-104 -147h-99zM61 0v564h239q121 0 186.5 -61.5t65.5 -155.5q0 -57 -28 -106t-80 -77l118 -164h-141l-90 132q-28 -1 -84 -1h-71v-131h-115zM176 229h130q58 0 92 33.5t34 84.5t-34 84.5t-91 33.5h-131v-236z" />
    <glyph glyph-name="Rcaron.small" horiz-adv-x="593" 
d="M217 610l-103 148h85l74 -91l74 91h85l-102 -148h-113zM61 0v564h239q121 0 186.5 -61.5t65.5 -155.5q0 -57 -28 -106t-80 -77l118 -164h-141l-90 132q-28 -1 -84 -1h-71v-131h-115zM176 229h130q58 0 92 33.5t34 84.5t-34 84.5t-91 33.5h-131v-236z" />
    <glyph glyph-name="Rcommaaccent.small" horiz-adv-x="593" 
d="M61 0v564h239q121 0 186.5 -61.5t65.5 -155.5q0 -57 -28 -106t-80 -77l118 -164h-141l-90 132q-28 -1 -84 -1h-71v-131h-115zM176 229h130q58 0 92 33.5t34 84.5t-34 84.5t-91 33.5h-131v-236zM195 -235q59 62 59 126q0 16 -14 44l73 26q19 -27 19 -57q0 -80 -75 -139
h-62z" />
    <glyph glyph-name="Sacute.small" horiz-adv-x="530" 
d="M203 611l89 147h114l-104 -147h-99zM32 64l50 91q73 -62 177 -62q51 0 83 20.5t32 51.5q0 24 -23.5 41t-59 25.5t-76.5 22t-76.5 29t-59 48.5t-23.5 79q0 77 61.5 119.5t146.5 42.5q113 0 208 -62l-45 -90q-76 48 -163 48q-35 0 -61.5 -15.5t-26.5 -39.5q0 -26 33 -43
t79.5 -29.5t93 -30t79.5 -54t33 -91.5q0 -84 -68 -129.5t-163 -45.5q-145 0 -231 74z" />
    <glyph glyph-name="Scircumflex.small" horiz-adv-x="530" 
d="M32 64l50 91q73 -62 177 -62q51 0 83 20.5t32 51.5q0 24 -23.5 41t-59 25.5t-76.5 22t-76.5 29t-59 48.5t-23.5 79q0 77 61.5 119.5t146.5 42.5q113 0 208 -62l-45 -90q-76 48 -163 48q-35 0 -61.5 -15.5t-26.5 -39.5q0 -26 33 -43t79.5 -29.5t93 -30t79.5 -54t33 -91.5
q0 -84 -68 -129.5t-163 -45.5q-145 0 -231 74zM107 610l102 148h113l102 -148h-85l-74 91l-73 -91h-85z" />
    <glyph glyph-name="Scaron.small" horiz-adv-x="530" 
d="M209 610l-103 148h85l74 -91l74 91h85l-102 -148h-113zM32 64l50 91q73 -62 177 -62q51 0 83 20.5t32 51.5q0 24 -23.5 41t-59 25.5t-76.5 22t-76.5 29t-59 48.5t-23.5 79q0 77 61.5 119.5t146.5 42.5q113 0 208 -62l-45 -90q-76 48 -163 48q-35 0 -61.5 -15.5
t-26.5 -39.5q0 -26 33 -43t79.5 -29.5t93 -30t79.5 -54t33 -91.5q0 -84 -68 -129.5t-163 -45.5q-145 0 -231 74z" />
    <glyph glyph-name="Scedilla.small" horiz-adv-x="530" 
d="M152 -187l27 45q41 -23 82 -23q27 0 44 14.5t17 31.5q0 28 -37 28q-14 0 -27 -7.5t-19 -19.5l-57 20l53 89q-128 7 -203 73l50 91q73 -62 177 -62q51 0 83 20.5t32 51.5q0 24 -23.5 41t-59 25.5t-76.5 22t-76.5 29t-59 48.5t-23.5 79q0 77 61.5 119.5t146.5 42.5
q113 0 208 -62l-45 -90q-76 48 -163 48q-35 0 -61.5 -15.5t-26.5 -39.5q0 -26 33 -43t79.5 -29.5t93 -30t79.5 -54t33 -91.5q0 -75 -55 -119.5t-138 -53.5l-24 -43q16 6 29 6q38 0 61.5 -21t23.5 -52q0 -40 -35 -69.5t-94 -29.5q-68 0 -110 30z" />
    <glyph glyph-name="Scommaaccent.small" horiz-adv-x="530" 
d="M32 64l50 91q73 -62 177 -62q51 0 83 20.5t32 51.5q0 24 -23.5 41t-59 25.5t-76.5 22t-76.5 29t-59 48.5t-23.5 79q0 77 61.5 119.5t146.5 42.5q113 0 208 -62l-45 -90q-76 48 -163 48q-35 0 -61.5 -15.5t-26.5 -39.5q0 -26 33 -43t79.5 -29.5t93 -30t79.5 -54t33 -91.5
q0 -84 -68 -129.5t-163 -45.5q-145 0 -231 74zM186 -235q59 62 59 126q0 16 -14 44l73 26q19 -27 19 -57q0 -80 -75 -139h-62z" />
    <glyph glyph-name="germandbls.small" horiz-adv-x="492" 
d="M52 0v382q0 93 46 141.5t123 48.5q73 0 123.5 -47t50.5 -114q0 -77 -50 -121q51 -12 83.5 -52t32.5 -93q0 -72 -46 -113.5t-118 -41.5q-54 0 -91 25l34 96q14 -14 44 -14q29 0 47 18.5t18 46.5q0 32 -27 51.5t-82 19.5h-19v83h9q24 0 41 20t17 57q0 31 -17.5 52t-45.5 21
t-45 -21.5t-17 -55.5v-389h-111z" />
    <glyph glyph-name="Tcaron.small" horiz-adv-x="539" 
d="M212 610l-103 148h85l74 -91l74 91h85l-102 -148h-113zM522 564v-99h-195v-465h-115v465h-195v99h505z" />
    <glyph glyph-name="Tcommaaccent.small" horiz-adv-x="539" 
d="M522 564v-99h-195v-465h-115v465h-195v99h505zM187 -235q59 62 59 126q0 16 -14 44l73 26q19 -27 19 -57q0 -80 -75 -139h-62z" />
    <glyph glyph-name="Tbar.small" horiz-adv-x="539" 
d="M522 564v-99h-195v-103h125v-73h-125v-289h-115v289h-124v73h124v103h-195v99h505z" />
    <glyph glyph-name="Ugrave.small" horiz-adv-x="587" 
d="M259 611l-104 147h114l88 -147h-98zM293 -10q-101 0 -171 64t-70 166v344h115v-339q0 -57 36.5 -94t89.5 -37t89.5 37t36.5 94v339h115v-344q0 -102 -70 -166t-171 -64z" />
    <glyph glyph-name="Uacute.small" horiz-adv-x="587" 
d="M239 611l89 147h114l-104 -147h-99zM293 -10q-101 0 -171 64t-70 166v344h115v-339q0 -57 36.5 -94t89.5 -37t89.5 37t36.5 94v339h115v-344q0 -102 -70 -166t-171 -64z" />
    <glyph glyph-name="Ucircumflex.small" horiz-adv-x="587" 
d="M293 -10q-101 0 -171 64t-70 166v344h115v-339q0 -57 36.5 -94t89.5 -37t89.5 37t36.5 94v339h115v-344q0 -102 -70 -166t-171 -64zM136 610l102 148h113l102 -148h-85l-74 91l-73 -91h-85z" />
    <glyph glyph-name="Utilde.small" horiz-adv-x="587" 
d="M142 606q0 54 23 87t59 33q33 0 75.5 -25t52.5 -25q32 0 32 50h61q0 -54 -22.5 -87t-59.5 -33q-32 0 -75 25.5t-53 25.5q-31 0 -31 -51h-62zM293 -10q-101 0 -171 64t-70 166v344h115v-339q0 -57 36.5 -94t89.5 -37t89.5 37t36.5 94v339h115v-344q0 -102 -70 -166
t-171 -64z" />
    <glyph glyph-name="Udieresis.small" horiz-adv-x="587" 
d="M293 -10q-101 0 -171 64t-70 166v344h115v-339q0 -57 36.5 -94t89.5 -37t89.5 37t36.5 94v339h115v-344q0 -102 -70 -166t-171 -64zM148 662q0 23 16.5 39.5t39.5 16.5t39.5 -16.5t16.5 -39.5t-16.5 -39.5t-39.5 -16.5t-39.5 16.5t-16.5 39.5zM326 662q0 23 16.5 39.5
t39.5 16.5t39.5 -16.5t16.5 -39.5t-16.5 -39.5t-39.5 -16.5t-39.5 16.5t-16.5 39.5z" />
    <glyph glyph-name="Umacron.small" horiz-adv-x="587" 
d="M183 621v81h221v-81h-221zM293 -10q-101 0 -171 64t-70 166v344h115v-339q0 -57 36.5 -94t89.5 -37t89.5 37t36.5 94v339h115v-344q0 -102 -70 -166t-171 -64z" />
    <glyph glyph-name="Ubreve.small" horiz-adv-x="587" 
d="M294 606q-53 0 -85.5 35.5t-32.5 86.5h60q1 -23 18 -38t40 -15t39 15t17 38h62q0 -51 -32.5 -86.5t-85.5 -35.5zM293 -10q-101 0 -171 64t-70 166v344h115v-339q0 -57 36.5 -94t89.5 -37t89.5 37t36.5 94v339h115v-344q0 -102 -70 -166t-171 -64z" />
    <glyph glyph-name="Uring.small" horiz-adv-x="587" 
d="M191 694q0 44 30.5 74.5t74.5 30.5q43 0 74 -31t31 -74t-31 -74t-74 -31q-44 0 -74.5 30.5t-30.5 74.5zM246 694q0 -21 14.5 -37t35.5 -16t35.5 16t14.5 37t-14.5 37t-35.5 16t-35.5 -16t-14.5 -37zM293 -10q-101 0 -171 64t-70 166v344h115v-339q0 -57 36.5 -94
t89.5 -37t89.5 37t36.5 94v339h115v-344q0 -102 -70 -166t-171 -64z" />
    <glyph glyph-name="Uhungarumlaut.small" horiz-adv-x="587" 
d="M293 -10q-101 0 -171 64t-70 166v344h115v-339q0 -57 36.5 -94t89.5 -37t89.5 37t36.5 94v339h115v-344q0 -102 -70 -166t-171 -64zM158 611l75 134h113l-109 -134h-79zM310 611l75 134h114l-109 -134h-80z" />
    <glyph glyph-name="Uogonek.small" horiz-adv-x="587" 
d="M293 -10q-101 0 -171 64t-70 166v344h115v-339q0 -57 36.5 -94t89.5 -37t89.5 37t36.5 94v339h115v-344q0 -80 -44.5 -138t-116.5 -80q-19 -17 -31.5 -44t-12.5 -52q0 -26 16 -42t40 -16q14 0 36 9l18 -48q-41 -29 -86 -29q-38 0 -66 24.5t-28 67.5q0 64 41 118h-7z" />
    <glyph glyph-name="Wgrave.small" horiz-adv-x="821" 
d="M384 611l-104 147h114l88 -147h-98zM184 -1l-175 565h114l95 -316l30 -102l25 102l75 316h124l76 -316l24 -102q14 52 30 103l97 315h113l-176 -565h-125l-77 297l-24 123q-9 -70 -23 -123l-78 -297h-125z" />
    <glyph glyph-name="Wacute.small" horiz-adv-x="821" 
d="M331 611l89 147h114l-104 -147h-99zM184 -1l-175 565h114l95 -316l30 -102l25 102l75 316h124l76 -316l24 -102q14 52 30 103l97 315h113l-176 -565h-125l-77 297l-24 123q-9 -70 -23 -123l-78 -297h-125z" />
    <glyph glyph-name="Wcircumflex.small" horiz-adv-x="821" 
d="M184 -1l-175 565h114l95 -316l30 -102l25 102l75 316h124l76 -316l24 -102q14 52 30 103l97 315h113l-176 -565h-125l-77 297l-24 123q-9 -70 -23 -123l-78 -297h-125zM252 610l102 148h113l102 -148h-85l-74 91l-73 -91h-85z" />
    <glyph glyph-name="Wdieresis.small" horiz-adv-x="821" 
d="M184 -1l-175 565h114l95 -316l30 -102l25 102l75 316h124l76 -316l24 -102q14 52 30 103l97 315h113l-176 -565h-125l-77 297l-24 123q-9 -70 -23 -123l-78 -297h-125zM264 662q0 23 16.5 39.5t39.5 16.5t39.5 -16.5t16.5 -39.5t-16.5 -39.5t-39.5 -16.5t-39.5 16.5
t-16.5 39.5zM442 662q0 23 16.5 39.5t39.5 16.5t39.5 -16.5t16.5 -39.5t-16.5 -39.5t-39.5 -16.5t-39.5 16.5t-16.5 39.5z" />
    <glyph glyph-name="Ygrave.small" horiz-adv-x="559" 
d="M245 611l-104 147h114l88 -147h-98zM223 0v257l-214 307h129l72 -101l70 -107l72 107l69 101h129l-212 -306v-258h-115z" />
    <glyph glyph-name="Yacute.small" horiz-adv-x="559" 
d="M216 611l89 147h114l-104 -147h-99zM223 0v257l-214 307h129l72 -101l70 -107l72 107l69 101h129l-212 -306v-258h-115z" />
    <glyph glyph-name="Ycircumflex.small" horiz-adv-x="559" 
d="M223 0v257l-214 307h129l72 -101l70 -107l72 107l69 101h129l-212 -306v-258h-115zM122 610l102 148h113l102 -148h-85l-74 91l-73 -91h-85z" />
    <glyph glyph-name="Ydieresis.small" horiz-adv-x="559" 
d="M223 0v257l-214 307h129l72 -101l70 -107l72 107l69 101h129l-212 -306v-258h-115zM134 662q0 23 16.5 39.5t39.5 16.5t39.5 -16.5t16.5 -39.5t-16.5 -39.5t-39.5 -16.5t-39.5 16.5t-16.5 39.5zM312 662q0 23 16.5 39.5t39.5 16.5t39.5 -16.5t16.5 -39.5t-16.5 -39.5
t-39.5 -16.5t-39.5 16.5t-16.5 39.5z" />
    <glyph glyph-name="Zacute.small" horiz-adv-x="523" 
d="M190 611l89 147h114l-104 -147h-99zM26 0v86l260 314q16 19 31.5 35.5t22.5 22.5l7 7h-306v99h448v-87l-249 -300l-70 -78h327v-99h-471z" />
    <glyph glyph-name="Zcaron.small" horiz-adv-x="523" 
d="M205 610l-103 148h85l74 -91l74 91h85l-102 -148h-113zM26 0v86l260 314q16 19 31.5 35.5t22.5 22.5l7 7h-306v99h448v-87l-249 -300l-70 -78h327v-99h-471z" />
    <glyph glyph-name="Zdotaccent.small" horiz-adv-x="523" 
d="M26 0v86l260 314q16 19 31.5 35.5t22.5 22.5l7 7h-306v99h448v-87l-249 -300l-70 -78h327v-99h-471zM194 673q0 28 19.5 48t47.5 20t48 -20t20 -48t-20 -47.5t-48 -19.5t-47.5 19.5t-19.5 47.5z" />
    <glyph glyph-name="Eng.small" horiz-adv-x="619" 
d="M61 0v564h120l175 -246q17 -24 38.5 -59t35.5 -57l13 -23v385h115v-555q0 -67 -49 -121t-131 -74l-26 88q78 28 83 100l-163 229q-22 31 -46 68.5t-37 60.5l-13 22v-382h-115z" />
    <glyph glyph-name="Eth.small" horiz-adv-x="622" 
d="M61 0v249h-70v82h70v233h226q133 0 216 -81.5t83 -200.5t-83 -200.5t-216 -81.5h-226zM176 99h105q82 0 133.5 51.5t51.5 131.5q0 85 -54.5 134t-144.5 49h-91v-134h115v-82h-115v-150z" />
    <glyph glyph-name="Thorn.small" horiz-adv-x="519" 
d="M61 0v564h115v-82h114q83 0 142 -57.5t59 -138.5t-59 -139t-142 -58h-114v-89h-115zM176 187h101q39 0 66.5 29t27.5 70t-27.5 70t-66.5 29h-101v-198z" />
    <glyph glyph-name="cent.oldstyle" horiz-adv-x="556" 
d="M408 366q-38 33 -86 33t-84 -33.5t-36 -86.5q0 -57 37 -88.5t87 -31.5q56 0 97 37l62 -89q-52 -43 -121 -51v-99h-81v98q-81 14 -136.5 76t-55.5 148q0 85 56 146.5t136 74.5v96h81v-96q65 -12 113 -50z" />
    <glyph glyph-name="sterling.oldstyle" horiz-adv-x="556" 
d="M76 0v89h61v154h-59v74h59v70q0 90 52 137.5t132 47.5q90 0 147 -51l-60 -77q-44 31 -85 31q-34 0 -55 -21.5t-21 -60.5v-76h144v-74h-144v-147h233v-96h-404z" />
    <glyph glyph-name="florin.oldstyle" horiz-adv-x="556" 
d="M10 -44l57 67q22 -27 50 -27q41 0 53 45l66 251h-56l20 75h56l22 83q31 122 124 122q47 0 104 -33l-28 -79q-18 16 -42 16q-40 0 -50 -54l-15 -55h98l-21 -75h-96l-66 -249q-39 -145 -162 -145q-42 0 -71.5 19.5t-42.5 38.5z" />
    <glyph glyph-name="yen.oldstyle" horiz-adv-x="556" 
d="M223 0v94h-102v66h102v44h-102v66h102v8l-176 286h129l71 -127l31 -72q20 51 30 72l72 127h128l-175 -286v-8h101v-66h-101v-44h101v-66h-101v-94h-110z" />
    <glyph glyph-name="Euro.oldstyle" horiz-adv-x="556" 
d="M59 192l17 66h42q-1 18 -1 25q0 4 0.5 12t0.5 12h-49l18 67h40q24 92 84.5 145t143.5 53q102 0 168 -79l-64 -66q-38 47 -97 47q-43 0 -74 -26.5t-45 -73.5h205l-17 -67h-201q-2 -18 -2 -24l2 -25h191l-18 -66h-161q15 -48 45.5 -75.5t72.5 -27.5q63 0 106 59l72 -60
q-67 -98 -183 -98q-84 0 -145 55t-83 147h-68z" />
    <glyph glyph-name="dollar.oldstyle" horiz-adv-x="556" 
d="M61 80l39 85q12 -12 29.5 -24t56 -25t80.5 -13q40 0 68 20t28 49q0 26 -29 42.5t-70.5 28.5t-83 27.5t-70.5 48.5t-29 82q0 62 42.5 100.5t106.5 48.5v104h81v-104q72 -7 140 -54l-40 -85q-72 51 -137 51q-32 0 -56.5 -16.5t-24.5 -41.5q0 -26 29 -42.5t70.5 -28
t83.5 -27t71 -49.5t29 -85q0 -69 -47 -110t-118 -52v-114h-81v112q-105 9 -168 72z" />
    </font>
</defs>
</svg>
