<?xml version="1.0" standalone="no"?>
<!DOCTYPE svg PUBLIC "-//W3C//DTD SVG 1.1//EN" "http://www.w3.org/Graphics/SVG/1.1/DTD/svg11.dtd" >
<svg xmlns="http://www.w3.org/2000/svg" xmlns:xlink="http://www.w3.org/1999/xlink" version="1.1">
<metadata>
Created by FontForge 20170731 at Mon Mar 25 15:52:22 2013
 By Aleksey,,,
Copyright (c) 2013 Type-O-Tones. v1.0 by Jose M. Uros. Barcelona. All rights reserved.
</metadata>
<defs>
<font id="Arboria-Light" horiz-adv-x="560" >
  <font-face 
    font-family="Arboria-Light"
    font-weight="400"
    font-stretch="normal"
    units-per-em="1000"
    panose-1="2 0 5 6 2 0 0 2 0 4"
    ascent="800"
    descent="-200"
    x-height="478"
    cap-height="648"
    bbox="-20 -235 1103 959"
    underline-thickness="36"
    underline-position="-112"
    unicode-range="U+0020-FB02"
  />
<missing-glyph horiz-adv-x="280" 
 />
    <glyph glyph-name="fi" unicode="fi" horiz-adv-x="466" 
d="M70 0v442h-80v36h80v31q0 87 35 123t89 36q29 0 57 -10t41 -20l14 -11l-23 -26q-45 31 -89 31q-86 0 -86 -123v-31h175v-36h-175v-442h-38zM358 0v478h38v-478h-38zM347 611q0 13 9 22t22 9t22 -9t9 -22t-9 -22t-22 -9t-22 9t-9 22z" />
    <glyph glyph-name="fl" unicode="fl" horiz-adv-x="466" 
d="M70 0v442h-80v36h80v31q0 87 35 123t89 36q29 0 57 -10t41 -20l14 -11l-23 -26q-45 31 -89 31q-86 0 -86 -123v-31h175v-36h-175v-442h-38zM358 0v658h38v-658h-38z" />
    <glyph glyph-name=".notdef" horiz-adv-x="280" 
 />
    <glyph glyph-name=".null" horiz-adv-x="0" 
 />
    <glyph glyph-name="nonmarkingreturn" horiz-adv-x="333" 
 />
    <glyph glyph-name="space" unicode=" " horiz-adv-x="220" 
 />
    <glyph glyph-name="exclam" unicode="!" horiz-adv-x="198" 
d="M60 29q0 17 11 28t28 11t28 -11t11 -28t-11 -28t-28 -11t-28 11t-11 28zM80 144l-8 504h52l-8 -504h-36z" />
    <glyph glyph-name="quotedbl" unicode="&#x22;" horiz-adv-x="300" 
d="M80 449v199h40v-199h-40zM180 449v199h40v-199h-40z" />
    <glyph glyph-name="numbersign" unicode="#" 
d="M96 0l43 181h-82l9 38h82l53 219h-83l9 38h83l42 172h39l-42 -172h135l42 172h39l-42 -172h80l-9 -38h-80l-53 -219h81l-9 -38h-81l-43 -181h-39l43 181h-135l-43 -181h-39zM187 219h135l53 219h-135z" />
    <glyph glyph-name="dollar" unicode="$" 
d="M41 98l27 27q75 -96 207 -96q85 0 143 41t58 108q0 28 -12.5 51t-30 36.5t-47 25t-52 17t-55.5 11.5q-41 8 -69.5 17.5t-60.5 27.5t-48.5 48t-16.5 72q0 77 53 121.5t121 51.5v117h40v-117q58 -3 104 -29.5t70 -56.5l-27 -27q-23 28 -65.5 52t-96.5 24
q-58 0 -107.5 -36.5t-49.5 -99.5q0 -96 153 -123q42 -7 73.5 -15.5t64.5 -23t53.5 -33t34 -47t13.5 -64.5q0 -84 -63 -133.5t-157 -53.5v-132h-40v131q-141 7 -217 108z" />
    <glyph glyph-name="percent" unicode="%" horiz-adv-x="810" 
d="M88 460q0 -70 29 -115.5t76 -45.5t76 45.5t29 115.5t-29 116t-76 46t-76 -46t-29 -116zM50 460q0 87 40.5 142.5t102.5 55.5t102.5 -55.5t40.5 -142.5q0 -86 -40.5 -141.5t-102.5 -55.5t-102.5 55.5t-40.5 141.5zM512 187q0 -70 29 -115.5t76 -45.5t76 45.5t29 115.5
q0 71 -29 116.5t-76 45.5t-76 -45.5t-29 -116.5zM474 187q0 87 40.5 142.5t102.5 55.5t102.5 -55.5t40.5 -142.5q0 -86 -40.5 -141.5t-102.5 -55.5t-102.5 55.5t-40.5 141.5zM190 0l400 666l31 -18l-400 -666z" />
    <glyph glyph-name="ampersand" unicode="&#x26;" horiz-adv-x="550" 
d="M34 178q0 56 35 104.5t102 75.5q-55 79 -55 148q0 58 45 105t123 47q46 0 91.5 -27.5t67.5 -85.5l-38 -14q-17 45 -51.5 67t-69.5 22q-60 0 -93 -35t-33 -79q0 -49 34 -102t102 -130l136 -153q16 18 30 53t14 77h40q0 -48 -17.5 -93t-38.5 -68l68 -76l-30 -26l-65 73
q-74 -71 -179 -71q-88 0 -153 48.5t-65 139.5zM76 178q0 -71 53 -110.5t122 -39.5q90 0 154 62l-209 235q-60 -22 -90 -61.5t-30 -85.5z" />
    <glyph glyph-name="quotesingle" unicode="'" horiz-adv-x="200" 
d="M80 449v199h40v-199h-40z" />
    <glyph glyph-name="parenleft" unicode="(" horiz-adv-x="264" 
d="M60 285q0 233 145 396l29 -29q-132 -145 -132 -367t132 -367l-29 -29q-145 163 -145 396z" />
    <glyph glyph-name="parenright" unicode=")" horiz-adv-x="264" 
d="M30 -82q132 145 132 367t-132 367l29 29q145 -163 145 -396t-145 -396z" />
    <glyph glyph-name="asterisk" unicode="*" horiz-adv-x="408" 
d="M184 305l5 148l-126 -78l-20 35l131 69l-131 70l20 35l126 -79l-5 149h40l-5 -149l126 79l20 -35l-131 -70l131 -69l-20 -35l-126 78l5 -148h-40z" />
    <glyph glyph-name="plus" unicode="+" 
d="M260 38v198h-196v36h196v197h38v-197h197v-36h-197v-198h-38z" />
    <glyph glyph-name="comma" unicode="," horiz-adv-x="165" 
d="M35 -137l42 200h53l-53 -200h-42z" />
    <glyph glyph-name="hyphen" unicode="-" horiz-adv-x="411" 
d="M30 213v38h351v-38h-351z" />
    <glyph glyph-name="period" unicode="." horiz-adv-x="165" 
d="M43 29q0 17 11.5 28t27.5 11t27.5 -11t11.5 -28t-11.5 -28t-27.5 -11t-27.5 11t-11.5 28z" />
    <glyph glyph-name="slash" unicode="/" horiz-adv-x="466" 
d="M18 -19l428 712h43l-428 -712h-43z" />
    <glyph glyph-name="zero" unicode="0" 
d="M88 324q0 -129 54 -212.5t138 -83.5t138 83.5t54 212.5t-54 212.5t-138 83.5t-138 -83.5t-54 -212.5zM46 324q0 146 66 240t168 94t168 -94t66 -240t-66 -240t-168 -94t-168 94t-66 240z" />
    <glyph glyph-name="one" unicode="1" 
d="M143 0v38h145v551l-141 -110l-24 30l171 139h34v-610h145v-38h-330z" />
    <glyph glyph-name="two" unicode="2" 
d="M70 0v34q369 280 369 437q0 64 -46.5 105.5t-114.5 41.5q-57 0 -96 -22.5t-85 -70.5l-26 29q88 104 207 104q96 0 149.5 -57t53.5 -128q0 -100 -103.5 -217t-246.5 -218h370v-38h-431z" />
    <glyph glyph-name="three" unicode="3" 
d="M59 67l28 32q23 -33 70 -52.5t103 -19.5q84 0 137.5 50t53.5 127q0 70 -52 116t-127 46q-52 0 -93 -29l-18 27l248 246h-337v38h393v-38l-205 -207q104 0 168.5 -54.5t64.5 -144.5q0 -96 -65 -155t-168 -59q-141 0 -201 77z" />
    <glyph glyph-name="four" unicode="4" 
d="M366 0v146h-301v38l274 464l33 -20l-263 -444h257v171h40v-171h89v-38h-89v-146h-40z" />
    <glyph glyph-name="five" unicode="5" 
d="M75 57l23 37q2 -3 6.5 -7.5t21 -16t35 -20.5t48.5 -16t63 -7q81 0 130 50.5t49 117.5q0 70 -52.5 118.5t-126.5 48.5q-87 0 -153 -54l-32 20v320h375v-38h-335v-251q69 40 145 40q93 0 157 -58.5t64 -145.5q0 -84 -60 -144.5t-161 -60.5q-120 0 -197 67z" />
    <glyph glyph-name="six" unicode="6" 
d="M50 219q0 85 66 160l247 279l28 -25l-175 -197q19 11 60 11q96 0 164.5 -65t68.5 -163q0 -95 -67.5 -162t-162.5 -67t-162 67t-67 162zM92 219q0 -79 54.5 -135.5t132.5 -56.5t133 56.5t55 135.5t-55 136t-133 57t-132.5 -57t-54.5 -136z" />
    <glyph glyph-name="seven" unicode="7" 
d="M146 0l332 610h-395v38h434v-40l-327 -608h-44z" />
    <glyph glyph-name="eight" unicode="8" 
d="M50 194q0 66 37.5 115.5t100.5 72.5q-35 20 -55.5 53.5t-20.5 73.5q0 64 48 106.5t120 42.5t120 -42.5t48 -106.5q0 -40 -21 -73.5t-56 -53.5q63 -24 101 -73.5t38 -114.5q0 -88 -65.5 -146t-164.5 -58q-100 0 -165 58t-65 146zM92 194q0 -70 53.5 -118.5t134.5 -48.5
q82 0 135 47t53 120q0 72 -54.5 119.5t-133.5 47.5t-133.5 -47.5t-54.5 -119.5zM154 509q0 -47 37 -79.5t89 -32.5t89 32.5t37 79.5q0 49 -35.5 80.5t-90.5 31.5t-90.5 -31.5t-35.5 -80.5z" />
    <glyph glyph-name="nine" unicode="9" 
d="M168 15l175 197q-19 -11 -60 -11q-96 0 -164.5 65t-68.5 163q0 95 67.5 162t162.5 67t162 -67t67 -162q0 -85 -66 -160l-247 -279zM92 429q0 -79 55 -136t133 -57t132.5 57t54.5 136t-54.5 135.5t-132.5 56.5t-133 -56.5t-55 -135.5z" />
    <glyph glyph-name="colon" unicode=":" horiz-adv-x="165" 
d="M43 399q0 17 11.5 28t27.5 11t27.5 -11t11.5 -28t-11.5 -28t-27.5 -11t-27.5 11t-11.5 28zM43 29q0 17 11.5 28t27.5 11t27.5 -11t11.5 -28t-11.5 -28t-27.5 -11t-27.5 11t-11.5 28z" />
    <glyph glyph-name="semicolon" unicode=";" horiz-adv-x="174" 
d="M50 399q0 17 11 28t28 11t28 -11t11 -28t-11 -28t-28 -11t-28 11t-11 28zM35 -137l42 200h53l-53 -200h-42z" />
    <glyph glyph-name="less" unicode="&#x3c;" 
d="M80 237v34l400 179v-39l-355 -157l355 -157v-39z" />
    <glyph glyph-name="equal" unicode="=" 
d="M64 193v36h431v-36h-431zM64 311v36h431v-36h-431z" />
    <glyph glyph-name="greater" unicode="&#x3e;" 
d="M80 58v39l355 157l-355 157v39l400 -179v-34z" />
    <glyph glyph-name="question" unicode="?" horiz-adv-x="479" 
d="M191 143l-2 138q52 0 91 17t59 45t29 56.5t9 57.5q0 66 -47.5 114.5t-117.5 48.5q-53 0 -95 -30.5t-60 -78.5l-36 19q24 59 75.5 93.5t120.5 34.5q87 0 144.5 -60t57.5 -142q0 -83 -53.5 -141t-132.5 -64l-6 -108h-36zM171 29q0 17 11.5 28t27.5 11t27.5 -11t11.5 -28
t-11.5 -28t-27.5 -11t-27.5 11t-11.5 28z" />
    <glyph glyph-name="at" unicode="@" horiz-adv-x="918" 
d="M70 244q0 163 115.5 278.5t278.5 115.5q159 0 271.5 -107.5t112.5 -259.5q0 -93 -43 -151t-106 -58q-34 0 -63 17t-40 56q-48 -83 -155 -83q-72 0 -124 56.5t-52 134.5t52 134.5t124 56.5q104 0 153 -81v71h40v-227q0 -39 16 -67.5t53 -28.5q45 0 75 46.5t30 123.5
q0 137 -100.5 234t-243.5 97q-146 0 -250 -105t-104 -253q0 -144 104 -246t250 -102q94 0 160 34l15 -32q-73 -38 -175 -38q-167 0 -280.5 112t-113.5 272zM306 243q0 -62 42.5 -107t104.5 -45q60 0 100.5 44.5t40.5 107.5q0 66 -39.5 108.5t-101.5 42.5t-104.5 -44.5
t-42.5 -106.5z" />
    <glyph glyph-name="A" unicode="A" horiz-adv-x="686" 
d="M10 0l322 648h22l322 -648h-42l-70 141h-442l-70 -141h-42zM140 178h405l-148 300l-54 116q-27 -62 -54 -117z" />
    <glyph glyph-name="B" unicode="B" horiz-adv-x="659" 
d="M80 0v648h299q76 0 121.5 -42.5t45.5 -106.5q0 -42 -24 -77.5t-54 -42.5q61 -8 103.5 -60.5t42.5 -124.5q0 -83 -67 -138.5t-178 -55.5h-289zM120 38h249q93 0 148 44.5t55 111.5q0 70 -44.5 115t-131.5 45h-276v-316zM120 392h275q50 0 79.5 30.5t29.5 76.5q0 47 -34 79
t-91 32h-259v-218z" />
    <glyph glyph-name="C" unicode="C" horiz-adv-x="650" 
d="M50 324q0 138 97.5 236t235.5 98q135 0 232 -94l-28 -28q-87 84 -203 84q-121 0 -206.5 -87t-85.5 -209t85.5 -209t206.5 -87q130 0 218 99l28 -29q-98 -108 -246 -108q-138 0 -236 98t-98 236z" />
    <glyph glyph-name="D" unicode="D" horiz-adv-x="701" 
d="M120 38h192q133 0 215 81t82 205t-82 205t-215 81h-192v-572zM80 0v648h237q149 0 241.5 -93.5t92.5 -230.5t-92.5 -230.5t-241.5 -93.5h-237z" />
    <glyph glyph-name="E" unicode="E" horiz-adv-x="612" 
d="M80 0v648h477v-38h-437v-239h406v-38h-406v-295h452v-38h-492z" />
    <glyph glyph-name="F" unicode="F" horiz-adv-x="552" 
d="M80 0v648h452v-38h-412v-239h340v-38h-340v-333h-40z" />
    <glyph glyph-name="G" unicode="G" horiz-adv-x="735" 
d="M50 324q0 138 98 236t236 98q133 0 231 -93l-29 -29q-84 84 -202 84q-121 0 -206.5 -87t-85.5 -209t85.5 -209t206.5 -87q74 0 137 34.5t104 93.5v160h-167v38h207v-211q-46 -70 -120 -111.5t-161 -41.5q-138 0 -236 98t-98 236z" />
    <glyph glyph-name="H" unicode="H" horiz-adv-x="680" 
d="M80 0v648h40v-276h440v276h40v-648h-40v334h-440v-334h-40z" />
    <glyph glyph-name="I" unicode="I" horiz-adv-x="200" 
d="M80 0v648h40v-648h-40z" />
    <glyph glyph-name="J" unicode="J" horiz-adv-x="517" 
d="M30 100l31 23q49 -93 151 -93q88 0 141.5 56.5t53.5 179.5v382h40v-397q0 -132 -65.5 -196.5t-169.5 -64.5q-58 0 -106 28t-76 82z" />
    <glyph glyph-name="K" unicode="K" horiz-adv-x="624" 
d="M597 648l-280 -295l297 -353h-51l-273 325l-170 -178v-147h-40v648h40v-449l54 60l371 389h52z" />
    <glyph glyph-name="L" unicode="L" horiz-adv-x="592" 
d="M80 0v648h40v-610h432v-38h-472z" />
    <glyph glyph-name="M" unicode="M" horiz-adv-x="820" 
d="M410 176l-227 312l-63 88v-576h-40v648h35l295 -406l295 406h35v-648h-40v576l-63 -88z" />
    <glyph glyph-name="N" unicode="N" horiz-adv-x="698" 
d="M578 66v582h40v-648h-35l-463 578v-578h-40v648h32z" />
    <glyph glyph-name="O" unicode="O" horiz-adv-x="768" 
d="M92 324q0 -122 85.5 -209t206.5 -87t206.5 87t85.5 209t-85.5 209t-206.5 87t-206.5 -87t-85.5 -209zM50 324q0 138 98 236t236 98t236 -98t98 -236t-98 -236t-236 -98t-236 98t-98 236z" />
    <glyph glyph-name="P" unicode="P" horiz-adv-x="652" 
d="M80 0v648h258q123 0 196 -68.5t73 -170.5t-73 -170t-197 -68h-217v-171h-40zM120 209h226q96 0 157.5 58t61.5 142q0 85 -61.5 143t-156.5 58h-227v-401z" />
    <glyph glyph-name="Q" unicode="Q" horiz-adv-x="768" 
d="M50 324q0 138 98 236t236 98t236 -98t98 -236q0 -127 -85 -222l75 -75l-26 -27l-76 75q-95 -85 -222 -85q-138 0 -236 98t-98 236zM92 324q0 -122 85.5 -209t206.5 -87q113 0 194 75l-86 87l27 26l86 -86q71 84 71 194q0 122 -85.5 209t-206.5 87t-206.5 -87t-85.5 -209z
" />
    <glyph glyph-name="R" unicode="R" horiz-adv-x="652" 
d="M80 0v648h258q123 0 196 -68.5t73 -170.5q0 -77 -43.5 -137t-121.5 -85l165 -187h-54l-153 175q-25 -4 -133 -4h-147v-171h-40zM120 209h226q95 0 157 58t62 142q0 85 -61.5 143t-156.5 58h-227v-401z" />
    <glyph glyph-name="S" unicode="S" horiz-adv-x="592" 
d="M50 97l26 29q85 -98 218 -98q49 0 93 12.5t78.5 47t34.5 85.5q0 27 -11.5 48.5t-27.5 35t-45 26t-50.5 19t-58.5 15.5q-115 30 -155 53q-71 41 -71 119q0 75 65 122t150 47q115 0 208 -75l-25 -30q-80 67 -183 67q-63 0 -118 -34t-55 -96q0 -21 6.5 -38t23.5 -30.5
t29 -21.5t42 -18t42.5 -13.5t49.5 -12.5q44 -11 68 -18.5t59 -23t53 -32.5t32 -45t14 -64q0 -87 -73.5 -135t-173.5 -48q-147 0 -245 107z" />
    <glyph glyph-name="T" unicode="T" horiz-adv-x="588" 
d="M274 0v610h-254v38h548v-38h-254v-610h-40z" />
    <glyph glyph-name="U" unicode="U" horiz-adv-x="662" 
d="M331 -10q-110 0 -185.5 71t-75.5 185v402h40v-405q0 -94 64 -155t157 -61t157 61t64 155v405h40v-402q0 -114 -75.5 -185t-185.5 -71z" />
    <glyph glyph-name="V" unicode="V" horiz-adv-x="668" 
d="M325 -5l-315 653h43l237 -498l44 -93l43 93l238 498h43l-315 -653h-18z" />
    <glyph glyph-name="W" unicode="W" horiz-adv-x="926" 
d="M239 -5l-229 653h41l181 -518l21 -65q11 41 19 65l172 518h38l171 -518l20 -65l21 65l182 518h40l-229 -653h-29l-174 525l-21 71q-9 -34 -21 -71l-174 -525h-29z" />
    <glyph glyph-name="X" unicode="X" horiz-adv-x="598" 
d="M10 0l263 324l-263 324h49l190 -231l50 -64l51 65l189 230h49l-263 -324l263 -324h-49l-187 228l-53 68q-20 -28 -52 -67l-188 -229h-49z" />
    <glyph glyph-name="Y" unicode="Y" horiz-adv-x="607" 
d="M284 0v316l-274 332h49l170 -203l75 -95l76 95l168 203h49l-273 -331v-317h-40z" />
    <glyph glyph-name="Z" unicode="Z" horiz-adv-x="602" 
d="M40 0v40l429 528l38 42h-447v38h492v-40l-430 -530l-36 -40h476v-38h-522z" />
    <glyph glyph-name="bracketleft" unicode="[" horiz-adv-x="247" 
d="M60 -99v793h162v-36h-122v-721h122v-36h-162z" />
    <glyph glyph-name="backslash" unicode="\" horiz-adv-x="539" 
d="M492 -19l-498 712h46l498 -712h-46z" />
    <glyph glyph-name="bracketright" unicode="]" horiz-adv-x="247" 
d="M25 -99v36h122v721h-122v36h162v-793h-162z" />
    <glyph glyph-name="asciicircum" unicode="^" horiz-adv-x="530" 
d="M64 338l189 310h24l189 -310h-42l-159 259l-159 -259h-42z" />
    <glyph glyph-name="underscore" unicode="_" horiz-adv-x="472" 
d="M-3 -95v36h478v-36h-478z" />
    <glyph glyph-name="grave" unicode="`" horiz-adv-x="300" 
d="M171 563l-83 116h53l72 -116h-42z" />
    <glyph glyph-name="a" unicode="a" horiz-adv-x="587" 
d="M45 239q0 103 69.5 176t167.5 73q65 0 116.5 -32.5t80.5 -89.5v112h38v-478h-38v112q-29 -57 -80.5 -89.5t-116.5 -32.5q-98 0 -167.5 73t-69.5 176zM85 239q0 -88 57 -150.5t140 -62.5q82 0 139.5 61t57.5 152q0 88 -57 150.5t-140 62.5t-140 -62.5t-57 -150.5z" />
    <glyph glyph-name="b" unicode="b" horiz-adv-x="587" 
d="M70 0v658h38v-292q28 57 80 89.5t117 32.5q98 0 167.5 -73t69.5 -176t-69.5 -176t-167.5 -73q-66 0 -117.5 32.5t-79.5 89.5v-112h-38zM108 239q0 -88 57 -150.5t140 -62.5t140 62.5t57 150.5t-57 150.5t-140 62.5t-140 -62.5t-57 -150.5z" />
    <glyph glyph-name="c" unicode="c" horiz-adv-x="508" 
d="M45 239q0 103 73 176t176 73q99 0 172 -70l-26 -26q-62 60 -146 60q-87 0 -148 -62.5t-61 -150.5t61 -150.5t148 -62.5q94 0 158 71l26 -25q-75 -82 -184 -82q-103 0 -176 73t-73 176z" />
    <glyph glyph-name="d" unicode="d" horiz-adv-x="587" 
d="M45 239q0 103 69.5 176t167.5 73q65 0 116.5 -32.5t80.5 -89.5v292h38v-658h-38v112q-29 -57 -80.5 -89.5t-116.5 -32.5q-98 0 -167.5 73t-69.5 176zM85 239q0 -88 57 -150.5t140 -62.5q82 0 139.5 60.5t57.5 152.5q0 88 -57 150.5t-140 62.5t-140 -62.5t-57 -150.5z" />
    <glyph glyph-name="e" unicode="e" horiz-adv-x="552" 
d="M85 258h381q-6 81 -60 137.5t-128 56.5q-75 0 -130.5 -56.5t-62.5 -137.5zM45 239q0 103 68.5 176t164.5 73q94 0 161.5 -72.5t67.5 -172.5l-1 -21h-421q7 -83 65.5 -139.5t139.5 -56.5q95 0 158 71l26 -25q-77 -82 -184 -82q-101 0 -173 73t-72 176z" />
    <glyph glyph-name="f" unicode="f" horiz-adv-x="288" 
d="M70 0v442h-80v36h80v31q0 87 35 123t89 36q29 0 57 -10t41 -20l14 -11l-23 -26q-45 31 -89 31q-86 0 -86 -123v-31h175v-36h-175v-442h-38z" />
    <glyph glyph-name="g" unicode="g" horiz-adv-x="587" 
d="M45 254q0 101 69 167.5t168 66.5q65 0 117 -29t80 -82v101h38v-372q0 -70 -24 -121.5t-54 -76t-69.5 -38t-57 -15.5t-30.5 -2q-109 0 -184 82l26 25q63 -71 158 -71q8 0 21.5 1t47.5 12.5t59.5 32t47 65.5t21.5 106v24q-28 -53 -79.5 -81.5t-117.5 -28.5q-99 0 -168 66.5
t-69 167.5zM85 254q0 -87 56.5 -142.5t140.5 -55.5t140.5 55.5t56.5 142.5t-56.5 142.5t-140.5 55.5t-140.5 -55.5t-56.5 -142.5z" />
    <glyph glyph-name="h" unicode="h" horiz-adv-x="520" 
d="M70 0v658h38v-267q53 97 172 97q82 0 131 -46.5t49 -129.5v-312h-38v301q0 151 -147 151q-74 0 -120.5 -49t-46.5 -112v-291h-38z" />
    <glyph glyph-name="i" unicode="i" horiz-adv-x="178" 
d="M70 0v478h38v-478h-38zM59 611q0 13 9 22t22 9t22 -9t9 -22t-9 -22t-22 -9t-22 9t-9 22z" />
    <glyph glyph-name="j" unicode="j" horiz-adv-x="178" 
d="M0 -158l-12 35q82 52 82 198v403h38v-402q0 -176 -108 -234zM59 611q0 13 9 22t22 9t22 -9t9 -22t-9 -22t-22 -9t-22 9t-9 22z" />
    <glyph glyph-name="k" unicode="k" horiz-adv-x="479" 
d="M70 0v658h38v-489l282 309h53l-192 -211l223 -267h-55l-195 241l-116 -130v-111h-38z" />
    <glyph glyph-name="l" unicode="l" horiz-adv-x="178" 
d="M70 0v658h38v-658h-38z" />
    <glyph glyph-name="m" unicode="m" horiz-adv-x="834" 
d="M70 0v478h38v-84q52 94 163 94q122 0 158 -100q27 50 73.5 75t101.5 25q81 0 125.5 -46t44.5 -130v-312h-38v301q0 74 -32 112.5t-105 38.5q-64 0 -111 -43t-47 -115v-294h-38v301q0 74 -32 112.5t-105 38.5q-62 0 -110 -47t-48 -117v-288h-38z" />
    <glyph glyph-name="n" unicode="n" horiz-adv-x="520" 
d="M70 0v478h38v-87q53 97 172 97q82 0 131 -46.5t49 -129.5v-312h-38v301q0 151 -147 151q-66 0 -116.5 -47t-50.5 -117v-288h-38z" />
    <glyph glyph-name="o" unicode="o" horiz-adv-x="588" 
d="M45 239q0 103 73 176t176 73t176 -73t73 -176t-73 -176t-176 -73t-176 73t-73 176zM85 239q0 -88 61 -150.5t148 -62.5t148 62.5t61 150.5t-61 150.5t-148 62.5t-148 -62.5t-61 -150.5z" />
    <glyph glyph-name="p" unicode="p" horiz-adv-x="587" 
d="M70 -137v615h38v-112q28 57 80 89.5t117 32.5q98 0 167.5 -73t69.5 -176t-69.5 -176t-167.5 -73q-66 0 -117.5 32.5t-79.5 89.5v-249h-38zM108 239q0 -88 57 -150.5t140 -62.5t140 62.5t57 150.5t-57 150.5t-140 62.5t-140 -62.5t-57 -150.5z" />
    <glyph glyph-name="q" unicode="q" horiz-adv-x="587" 
d="M45 239q0 103 69.5 176t167.5 73q65 0 116.5 -32.5t80.5 -89.5v112h38v-615h-38v249q-29 -57 -80.5 -89.5t-116.5 -32.5q-98 0 -167.5 73t-69.5 176zM85 239q0 -88 57 -150.5t140 -62.5t140 62.5t57 150.5q0 90 -57.5 151.5t-139.5 61.5q-83 0 -140 -62.5t-57 -150.5z
" />
    <glyph glyph-name="r" unicode="r" horiz-adv-x="325" 
d="M70 0v478h38v-110q55 120 197 120v-43q-35 0 -67.5 -10.5t-63 -33.5t-48.5 -67t-18 -103v-231h-38z" />
    <glyph glyph-name="s" unicode="s" horiz-adv-x="458" 
d="M45 70l25 28q59 -72 155 -72q67 0 108 29.5t41 72.5q0 23 -11 40.5t-34 29t-42.5 18t-52.5 14.5q-36 9 -51.5 13t-44 15.5t-40.5 23t-23 32t-11 46.5q0 56 49.5 92t111.5 36q89 0 158 -57l-24 -27q-58 48 -131 48q-51 0 -87.5 -27t-36.5 -65q0 -18 8.5 -32t19 -22.5
t33 -17t35.5 -11.5t42 -10q33 -8 51.5 -13.5t44.5 -17t40 -24.5t24.5 -34t10.5 -48q0 -65 -54.5 -102.5t-131.5 -37.5q-111 0 -182 80z" />
    <glyph glyph-name="t" unicode="t" horiz-adv-x="346" 
d="M88 149v293h-73v36h73v119h38v-119h185v-36h-185v-293q0 -123 86 -123q23 0 45.5 8t32.5 16l11 7l17 -31q-45 -36 -106 -36q-54 0 -89 36t-35 123z" />
    <glyph glyph-name="u" unicode="u" horiz-adv-x="510" 
d="M60 166v312h38v-301q0 -151 147 -151q65 0 111 46.5t46 117.5v288h38v-478h-38v81q-50 -91 -162 -91q-82 0 -131 46.5t-49 129.5z" />
    <glyph glyph-name="v" unicode="v" horiz-adv-x="492" 
d="M232 -5l-227 483h42l174 -378l25 -56l25 55l174 379h42l-227 -483h-28z" />
    <glyph glyph-name="w" unicode="w" horiz-adv-x="698" 
d="M176 -5l-171 483h38l134 -378l15 -47q6 23 14 47l124 378h38l124 -378l14 -47q7 23 16 47l133 378h38l-171 -483h-34l-125 381l-14 48q-7 -26 -14 -48l-125 -381h-34z" />
    <glyph glyph-name="x" unicode="x" horiz-adv-x="442" 
d="M5 0l194 240l-194 238h46l118 -146l52 -67l53 68l117 145h46l-194 -240l194 -238h-46l-118 146l-52 67l-52 -67l-118 -146h-46z" />
    <glyph glyph-name="y" unicode="y" horiz-adv-x="515" 
d="M110 -147v36q43 0 70 18.5t56 81.5l11 24l-232 465h43l174 -352l34 -74l34 76l158 350h42l-230 -504q-19 -42 -38.5 -67.5t-41.5 -36.5t-38.5 -14t-41.5 -3z" />
    <glyph glyph-name="z" unicode="z" horiz-adv-x="453" 
d="M30 0v36l285 342l56 64h-331v36h374v-36l-284 -341l-57 -65h350v-36h-393z" />
    <glyph glyph-name="braceleft" unicode="{" horiz-adv-x="351" 
d="M52 274v41h9q74 0 74 51v100q0 233 177 233h14v-40q-85 0 -118 -49t-33 -144v-90q0 -72 -51 -82q51 -19 51 -81v-90q0 -94 33 -143t118 -49v-40h-14q-177 0 -177 232v100q0 51 -74 51h-9z" />
    <glyph glyph-name="bar" unicode="|" horiz-adv-x="190" 
d="M75 -189v927h38v-927h-38z" />
    <glyph glyph-name="braceright" unicode="}" horiz-adv-x="351" 
d="M25 -109v40q85 0 118 49t33 143v90q0 62 51 81q-51 10 -51 82v90q0 95 -33 144t-118 49v40h14q177 0 177 -233v-100q0 -51 74 -51h9v-41h-9q-74 0 -74 -51v-100q0 -232 -177 -232h-14z" />
    <glyph glyph-name="asciitilde" unicode="~" horiz-adv-x="551" 
d="M87 205q0 26 21.5 57.5t70.5 31.5q37 0 97 -32.5t95 -32.5q29 0 41.5 18.5t12.5 34.5h38q0 -26 -21.5 -57.5t-70.5 -31.5q-47 0 -107 32.5t-85 32.5q-29 0 -41.5 -18.5t-12.5 -34.5h-38z" />
    <glyph glyph-name="nbspace" unicode="&#xa0;" horiz-adv-x="648" 
 />
    <glyph glyph-name="exclamdown" unicode="&#xa1;" horiz-adv-x="198" 
d="M60 449q0 17 11 28t28 11t28 -11t11 -28t-11 -28t-28 -11t-28 11t-11 28zM74 -170l8 504h36l8 -504h-52z" />
    <glyph glyph-name="cent" unicode="&#xa2;" 
d="M470 179l26 -25q-70 -76 -170 -82v-112h-38v113q-93 10 -159 79t-66 168q0 101 66 170.5t159 77.5v110h38v-109q93 -6 158 -70l-26 -26q-61 61 -146 61q-87 0 -148 -62.5t-61 -151.5q0 -87 61 -149.5t148 -62.5q46 0 88.5 19.5t69.5 51.5z" />
    <glyph glyph-name="sterling" unicode="&#xa3;" 
d="M42 0v33h85v271h-78v38h78v131q0 85 58.5 135t146.5 50t150 -64l-27 -27q-53 53 -123 53q-68 0 -116.5 -43t-48.5 -104v-131h225v-38h-225v-266h351v-38h-476z" />
    <glyph glyph-name="currency" unicode="&#xa4;" 
d="M96 79l-28 28l74 74q-38 47 -38 110q0 61 38 109l-74 75l28 28l74 -75q49 39 110 39q60 0 109 -39l75 75l28 -28l-75 -75q39 -49 39 -109q0 -61 -39 -110l75 -74l-28 -28l-75 74q-47 -38 -109 -38t-110 38zM144 291q0 -58 40 -99t96 -41t96 41t40 99t-40 99t-96 41
t-96 -41t-40 -99z" />
    <glyph glyph-name="yen" unicode="&#xa5;" 
d="M260 0v135h-154v38h154v79h-154v38h154v26l-224 332h46l158 -234l40 -62q22 37 39 62l158 234h46l-223 -331v-27h152v-38h-152v-79h152v-38h-152v-135h-40z" />
    <glyph glyph-name="brokenbar" unicode="&#xa6;" horiz-adv-x="190" 
d="M76 384v420h38v-420h-38zM76 -190v481h38v-481h-38z" />
    <glyph glyph-name="section" unicode="&#xa7;" horiz-adv-x="505" 
d="M413 288q0 65 -69 91l-150 56q-18 6 -25 6q-21 0 -40.5 -14.5t-29.5 -37.5q-7 -17 -7 -34q0 -31 22 -58.5t66 -43.5l104 -39q38 -14 52 -14q31 0 54 27t23 61zM68 40l28 31q59 -54 150 -54q19 0 38.5 2.5t43 10t38 24t14.5 40.5q0 28 -22.5 44t-82.5 39l-109 42
q-116 44 -116 134q0 43 24.5 74.5t56.5 40.5q-21 9 -34.5 29.5t-13.5 45.5q0 57 46.5 86t110.5 29q111 0 184 -50l-22 -32q-65 45 -160 45q-45 0 -81 -16.5t-36 -56.5q0 -30 22 -46t83 -40l109 -42q61 -23 88.5 -55t27.5 -81q0 -40 -26.5 -73t-63.5 -38q25 -8 42 -30t17 -50
q0 -33 -17.5 -56.5t-46 -35t-57 -16.5t-59.5 -5q-47 0 -95.5 15.5t-80.5 44.5z" />
    <glyph glyph-name="dieresis" unicode="&#xa8;" horiz-adv-x="300" 
d="M51 603q0 14 9.5 23.5t23.5 9.5q13 0 22 -9.5t9 -23.5q0 -13 -9 -22t-22 -9q-14 0 -23.5 9t-9.5 22zM186 603q0 14 9.5 23.5t23.5 9.5q13 0 22 -9.5t9 -23.5q0 -13 -9 -22t-22 -9q-14 0 -23.5 9t-9.5 22z" />
    <glyph glyph-name="copyright" unicode="&#xa9;" horiz-adv-x="748" 
d="M40 324q0 138 98 236t236 98t236 -98t98 -236t-98 -236t-236 -98t-236 98t-98 236zM181 322q0 83 59 142.5t142 59.5q80 0 138 -55l-26 -26q-47 44 -112 44q-66 0 -112.5 -49t-46.5 -116t46.5 -115.5t112.5 -48.5q71 0 125 58l26 -27q-60 -68 -151 -68q-83 0 -142 59
t-59 142zM68 324q0 -128 89.5 -218.5t216.5 -90.5t216.5 90.5t89.5 218.5t-89.5 218.5t-216.5 90.5t-216.5 -90.5t-89.5 -218.5z" />
    <glyph glyph-name="ordfeminine" unicode="&#xaa;" horiz-adv-x="361" 
d="M74 422q0 -30 23.5 -45.5t58.5 -15.5q33 0 58 10t37 24t17 26t5 20v43q-28 7 -71 7q-128 0 -128 -69zM35 422q0 57 48.5 81t118.5 24q34 0 70 -8q-2 46 -28 71t-67 25q-28 0 -52 -8t-35 -16l-10 -8l-21 30q5 4 14 10.5t40 17.5t64 11q134 0 134 -156v-165h-38v37
q-46 -44 -117 -44q-50 0 -85.5 25t-35.5 73z" />
    <glyph glyph-name="guillemotleft" unicode="&#xab;" horiz-adv-x="406" 
d="M37 227v30l166 162l25 -24l-152 -153l151 -153l-24 -24zM177 227v30l166 162l25 -24l-152 -153l151 -153l-24 -24z" />
    <glyph glyph-name="logicalnot" unicode="&#xac;" 
d="M456 111v158h-392v36h431l-1 -194h-38z" />
    <glyph glyph-name="registered" unicode="&#xae;" horiz-adv-x="748" 
d="M40 324q0 138 98 236t236 98t236 -98t98 -236t-98 -236t-236 -98t-236 98t-98 236zM236 127v392h167q66 0 112 -46.5t46 -111.5q0 -45 -22 -81.5t-59 -57.5l73 -95h-51l-61 80q-16 -4 -38 -4h-127v-76h-40zM276 243h127q49 0 82.5 34t33.5 84q0 49 -33.5 83.5t-82.5 34.5
h-127v-236zM68 324q0 -128 89.5 -218.5t216.5 -90.5t216.5 90.5t89.5 218.5t-89.5 218.5t-216.5 90.5t-216.5 -90.5t-89.5 -218.5z" />
    <glyph glyph-name="macron" unicode="&#xaf;" horiz-adv-x="300" 
d="M62 574v35h176v-35h-176z" />
    <glyph glyph-name="degree" unicode="&#xb0;" horiz-adv-x="346" 
d="M50 540q0 49 34.5 83.5t83.5 34.5t83.5 -34.5t34.5 -83.5t-34.5 -83.5t-83.5 -34.5t-83.5 34.5t-34.5 83.5zM92 540q0 -32 22.5 -55t53.5 -23t53.5 23t22.5 55t-22.5 55t-53.5 23t-53.5 -23t-22.5 -55z" />
    <glyph glyph-name="plusminus" unicode="&#xb1;" 
d="M64 33v36h431v-36h-431zM64 269v36h196v157h38v-157h197v-36h-197v-158h-38v158h-196z" />
    <glyph glyph-name="twosuperior" unicode="&#xb2;" horiz-adv-x="372" 
d="M25 293v31q155 129 198 176q65 70 65 124q0 40 -28 67t-77 27q-74 0 -128 -58l-24 27q63 67 152 67q68 0 106.5 -36.5t38.5 -93.5q0 -35 -14 -66.5t-52.5 -72t-70 -68.5t-102.5 -88h246v-36h-310z" />
    <glyph glyph-name="threesuperior" unicode="&#xb3;" horiz-adv-x="375" 
d="M20 338l24 26q41 -41 119 -41q58 0 92 35.5t34 81.5q0 43 -30 73.5t-85 30.5q-38 0 -66 -18l-18 25l169 162h-224v36h274v-33l-138 -137h5q72 0 112.5 -42t40.5 -99q0 -60 -46 -105.5t-122 -45.5q-94 0 -141 51z" />
    <glyph glyph-name="acute" unicode="&#xb4;" horiz-adv-x="300" 
d="M86 563l72 116h53l-83 -116h-42z" />
    <glyph glyph-name="mu" unicode="&#xb5;" horiz-adv-x="510" 
d="M60 -137v615h38v-283q0 -86 41 -127.5t108 -41.5q70 0 117.5 48t47.5 139v265h38v-207q0 -188 64 -255l-26 -26q-46 46 -63 123q-48 -123 -177 -123q-103 0 -150 72v-199h-38z" />
    <glyph glyph-name="paragraph" unicode="&#xb6;" horiz-adv-x="501" 
d="M259 0v257q-91 7 -150 57.5t-59 137.5q0 81 61.5 138.5t147.5 57.5h161v-648h-40v610h-81v-610h-40z" />
    <glyph glyph-name="periodcentered" unicode="&#xb7;" horiz-adv-x="139" 
d="M31 278q0 16 11.5 27.5t27.5 11.5t27 -11.5t11 -27.5t-11 -27t-27 -11t-27.5 11t-11.5 27z" />
    <glyph glyph-name="cedilla" unicode="&#xb8;" horiz-adv-x="300" 
d="M40 -182l15 25q36 -24 85 -24q37 0 58.5 17t21.5 39q0 39 -53 39q-21 0 -42 -8.5t-31 -18.5l-27 13l61 103h31l-44 -75q24 13 56 13q34 0 58.5 -16t24.5 -48q0 -40 -34.5 -63t-80.5 -23q-59 0 -99 27z" />
    <glyph glyph-name="onesuperior" unicode="&#xb9;" horiz-adv-x="286" 
d="M154 293v399l-114 -87l-20 28l142 115h30v-455h-38z" />
    <glyph glyph-name="ordmasculine" unicode="&#xba;" horiz-adv-x="398" 
d="M35 488q0 68 48 116t116 48q67 0 115.5 -48t48.5 -116t-48.5 -116t-115.5 -48q-68 0 -116 48t-48 116zM73 488q0 -53 37 -90t89 -37t88.5 37t36.5 90t-36.5 90t-88.5 37t-89 -37t-37 -90z" />
    <glyph glyph-name="guillemotright" unicode="&#xbb;" horiz-adv-x="406" 
d="M39 89l151 153l-151 153l24 24l166 -162v-30l-166 -162zM179 89l151 153l-151 153l24 24l166 -162v-30l-166 -162z" />
    <glyph glyph-name="onequarter" unicode="&#xbc;" horiz-adv-x="812" 
d="M154 193v399l-114 -87l-20 28l142 115h30v-455h-38zM185 0l400 666l31 -18l-400 -666zM669 0v99h-214v33l196 332l31 -17l-184 -312h171v119h38v-119h56v-36h-56v-99h-38z" />
    <glyph glyph-name="onehalf" unicode="&#xbd;" horiz-adv-x="922" 
d="M154 193v399l-114 -87l-20 28l142 115h30v-455h-38zM185 0l400 666l31 -18l-400 -666zM546 0v31q155 129 198 176q65 70 65 124q0 40 -28 67t-77 27q-74 0 -128 -58l-24 27q63 67 152 67q68 0 106.5 -36.5t38.5 -93.5q0 -35 -14 -66.5t-52.5 -72t-70 -68.5t-102.5 -88
h246v-36h-310z" />
    <glyph glyph-name="threequarters" unicode="&#xbe;" horiz-adv-x="912" 
d="M285 0l400 666l31 -18l-400 -666zM769 0v99h-214v33l196 332l31 -17l-184 -312h171v119h38v-119h56v-36h-56v-99h-38zM20 238l24 26q41 -41 119 -41q58 0 92 35.5t34 81.5q0 43 -30 73.5t-85 30.5q-38 0 -66 -18l-18 25l169 162h-224v36h274v-33l-138 -137h5
q72 0 112.5 -42t40.5 -99q0 -60 -46 -105.5t-122 -45.5q-94 0 -141 51z" />
    <glyph glyph-name="questiondown" unicode="&#xbf;" horiz-adv-x="479" 
d="M60 26q0 82 53.5 140t132.5 64l6 108h36l2 -138q-53 0 -91.5 -17t-58.5 -45t-29 -56.5t-9 -57.5q0 -65 48.5 -114t116.5 -49q53 0 95 30.5t60 78.5l36 -19q-24 -59 -75.5 -93.5t-120.5 -34.5q-87 0 -144.5 60t-57.5 143zM230 452q0 16 11 27.5t28 11.5t28 -11.5t11 -27.5
t-11 -27.5t-28 -11.5t-28 11.5t-11 27.5z" />
    <glyph glyph-name="Agrave" unicode="&#xc0;" horiz-adv-x="686" 
d="M10 0l322 648h22l322 -648h-42l-70 141h-442l-70 -141h-42zM140 178h405l-148 300l-54 116q-27 -62 -54 -117zM321 704l-83 116h53l72 -116h-42z" />
    <glyph glyph-name="Aacute" unicode="&#xc1;" horiz-adv-x="686" 
d="M10 0l322 648h22l322 -648h-42l-70 141h-442l-70 -141h-42zM140 178h405l-148 300l-54 116q-27 -62 -54 -117zM318 704l72 116h53l-83 -116h-42z" />
    <glyph glyph-name="Acircumflex" unicode="&#xc2;" horiz-adv-x="686" 
d="M10 0l322 648h22l322 -648h-42l-70 141h-442l-70 -141h-42zM140 178h405l-148 300l-54 116q-27 -62 -54 -117zM245 704l72 116h53l72 -116h-42l-57 83l-56 -83h-42z" />
    <glyph glyph-name="Atilde" unicode="&#xc3;" horiz-adv-x="686" 
d="M10 0l322 648h22l322 -648h-42l-70 141h-442l-70 -141h-42zM140 178h405l-148 300l-54 116q-27 -62 -54 -117zM237 684q0 34 16 58t42 24q21 0 53 -21.5t44 -21.5q13 0 20 12.5t7 30.5h33q0 -34 -16 -58t-42 -24q-20 0 -53 21.5t-44 21.5q-13 0 -20 -12.5t-7 -30.5h-33z
" />
    <glyph glyph-name="Adieresis" unicode="&#xc4;" horiz-adv-x="686" 
d="M10 0l322 648h22l322 -648h-42l-70 141h-442l-70 -141h-42zM140 178h405l-148 300l-54 116q-27 -62 -54 -117zM244 730q0 14 9.5 23.5t23.5 9.5q13 0 22 -9.5t9 -23.5q0 -13 -9 -22t-22 -9q-14 0 -23.5 9t-9.5 22zM379 730q0 14 9.5 23.5t23.5 9.5q13 0 22 -9.5t9 -23.5
q0 -13 -9 -22t-22 -9q-14 0 -23.5 9t-9.5 22z" />
    <glyph glyph-name="Aring" unicode="&#xc5;" horiz-adv-x="686" 
d="M10 0l322 648h22l322 -648h-42l-70 141h-442l-70 -141h-42zM140 178h405l-148 300l-54 116q-27 -62 -54 -117zM250 772q0 38 27.5 65.5t65.5 27.5t65.5 -27.5t27.5 -65.5t-27.5 -65.5t-65.5 -27.5t-65.5 27.5t-27.5 65.5zM284 772q0 -26 17 -44.5t42 -18.5t42 18.5
t17 44.5t-17 44.5t-42 18.5t-42 -18.5t-17 -44.5z" />
    <glyph glyph-name="AE" unicode="&#xc6;" horiz-adv-x="921" 
d="M10 0l436 648h421v-38h-366v-238h336v-38h-336v-296h380v-38h-420v141h-311l-93 -141h-47zM177 178h284v426l-53 -81z" />
    <glyph glyph-name="Ccedilla" unicode="&#xc7;" horiz-adv-x="650" 
d="M267 -182l15 25q36 -24 85 -24q37 0 58.5 17t21.5 39q0 39 -53 39q-21 0 -42 -8.5t-31 -18.5l-27 13l54 92q-126 13 -212 108.5t-86 223.5q0 138 97.5 236t235.5 98q135 0 232 -94l-28 -28q-87 84 -203 84q-121 0 -206.5 -87t-85.5 -209t85.5 -209t206.5 -87
q130 0 218 99l28 -29q-98 -108 -246 -108h-6l-36 -62q24 13 56 13q34 0 58.5 -16t24.5 -48q0 -40 -34.5 -63t-80.5 -23q-58 0 -99 27z" />
    <glyph glyph-name="Egrave" unicode="&#xc8;" horiz-adv-x="612" 
d="M80 0v648h477v-38h-437v-239h406v-38h-406v-295h452v-38h-492zM326 704l-83 116h53l72 -116h-42z" />
    <glyph glyph-name="Eacute" unicode="&#xc9;" horiz-adv-x="612" 
d="M80 0v648h477v-38h-437v-239h406v-38h-406v-295h452v-38h-492zM275 704l72 116h53l-83 -116h-42z" />
    <glyph glyph-name="Ecircumflex" unicode="&#xca;" horiz-adv-x="612" 
d="M80 0v648h477v-38h-437v-239h406v-38h-406v-295h452v-38h-492zM238 704l72 116h53l72 -116h-42l-57 83l-56 -83h-42z" />
    <glyph glyph-name="Edieresis" unicode="&#xcb;" horiz-adv-x="612" 
d="M80 0v648h477v-38h-437v-239h406v-38h-406v-295h452v-38h-492zM238 745q0 14 9.5 23.5t23.5 9.5q13 0 22 -9.5t9 -23.5q0 -13 -9 -22t-22 -9q-14 0 -23.5 9t-9.5 22zM373 745q0 14 9.5 23.5t23.5 9.5q13 0 22 -9.5t9 -23.5q0 -13 -9 -22t-22 -9q-14 0 -23.5 9t-9.5 22z
" />
    <glyph glyph-name="Igrave" unicode="&#xcc;" horiz-adv-x="200" 
d="M80 0v648h40v-648h-40zM90 704l-83 116h53l72 -116h-42z" />
    <glyph glyph-name="Iacute" unicode="&#xcd;" horiz-adv-x="200" 
d="M80 0v648h40v-648h-40zM68 704l72 116h53l-83 -116h-42z" />
    <glyph glyph-name="Icircumflex" unicode="&#xce;" horiz-adv-x="200" 
d="M80 0v648h40v-648h-40zM2 704l72 116h53l72 -116h-42l-57 83l-56 -83h-42z" />
    <glyph glyph-name="Idieresis" unicode="&#xcf;" horiz-adv-x="200" 
d="M80 0v648h40v-648h-40zM1 730q0 14 9.5 23.5t23.5 9.5q13 0 22 -9.5t9 -23.5q0 -13 -9 -22t-22 -9q-14 0 -23.5 9t-9.5 22zM136 730q0 14 9.5 23.5t23.5 9.5q13 0 22 -9.5t9 -23.5q0 -13 -9 -22t-22 -9q-14 0 -23.5 9t-9.5 22z" />
    <glyph glyph-name="Eth" unicode="&#xd0;" horiz-adv-x="701" 
d="M80 0v312h-100v38h100v298h247q134 0 229 -95t95 -229t-95 -229t-229 -95h-247zM120 38h207q117 0 199.5 84t82.5 202t-82.5 202t-199.5 84h-207v-260h224v-38h-224v-274z" />
    <glyph glyph-name="Ntilde" unicode="&#xd1;" horiz-adv-x="698" 
d="M578 66v582h40v-648h-35l-463 578v-578h-40v648h32zM242 699q0 34 16 58t42 24q20 0 53 -21.5t44 -21.5q13 0 20 12.5t7 30.5h33q0 -34 -16 -58t-42 -24q-21 0 -53 21.5t-44 21.5q-13 0 -20 -12.5t-7 -30.5h-33z" />
    <glyph glyph-name="Ograve" unicode="&#xd2;" horiz-adv-x="768" 
d="M92 324q0 -122 85.5 -209t206.5 -87t206.5 87t85.5 209t-85.5 209t-206.5 87t-206.5 -87t-85.5 -209zM50 324q0 138 98 236t236 98t236 -98t98 -236t-98 -236t-236 -98t-236 98t-98 236zM376 704l-83 116h53l72 -116h-42z" />
    <glyph glyph-name="Oacute" unicode="&#xd3;" horiz-adv-x="768" 
d="M92 324q0 -122 85.5 -209t206.5 -87t206.5 87t85.5 209t-85.5 209t-206.5 87t-206.5 -87t-85.5 -209zM50 324q0 138 98 236t236 98t236 -98t98 -236t-98 -236t-236 -98t-236 98t-98 236zM352 704l72 116h53l-83 -116h-42z" />
    <glyph glyph-name="Ocircumflex" unicode="&#xd4;" horiz-adv-x="768" 
d="M92 324q0 -122 85.5 -209t206.5 -87t206.5 87t85.5 209t-85.5 209t-206.5 87t-206.5 -87t-85.5 -209zM50 324q0 138 98 236t236 98t236 -98t98 -236t-98 -236t-236 -98t-236 98t-98 236zM288 704l72 116h53l72 -116h-42l-57 83l-56 -83h-42z" />
    <glyph glyph-name="Otilde" unicode="&#xd5;" horiz-adv-x="768" 
d="M92 324q0 -122 85.5 -209t206.5 -87t206.5 87t85.5 209t-85.5 209t-206.5 87t-206.5 -87t-85.5 -209zM50 324q0 138 98 236t236 98t236 -98t98 -236t-98 -236t-236 -98t-236 98t-98 236zM277 699q0 34 16 58t42 24q21 0 53 -21.5t44 -21.5q13 0 20 12.5t7 30.5h33
q0 -34 -16 -58t-42 -24q-20 0 -53 21.5t-44 21.5q-13 0 -20 -12.5t-7 -30.5h-33z" />
    <glyph glyph-name="Odieresis" unicode="&#xd6;" horiz-adv-x="768" 
d="M92 324q0 -122 85.5 -209t206.5 -87t206.5 87t85.5 209t-85.5 209t-206.5 87t-206.5 -87t-85.5 -209zM50 324q0 138 98 236t236 98t236 -98t98 -236t-98 -236t-236 -98t-236 98t-98 236zM285 730q0 14 9.5 23.5t23.5 9.5q13 0 22 -9.5t9 -23.5q0 -13 -9 -22t-22 -9
q-14 0 -23.5 9t-9.5 22zM420 730q0 14 9.5 23.5t23.5 9.5q13 0 22 -9.5t9 -23.5q0 -13 -9 -22t-22 -9q-14 0 -23.5 9t-9.5 22z" />
    <glyph glyph-name="multiply" unicode="&#xd7;" 
d="M108 56l-24 25l171 171l-173 173l25 24l172 -172l173 172l25 -24l-173 -173l171 -171l-24 -25l-172 171z" />
    <glyph glyph-name="Oslash" unicode="&#xd8;" horiz-adv-x="768" 
d="M50 324q0 138 98 236t236 98q84 0 156 -39l56 93l32 -19l-56 -93q67 -46 106.5 -119t39.5 -157q0 -138 -98 -236t-236 -98q-82 0 -156 38l-56 -94l-32 19l57 94q-68 46 -107.5 119t-39.5 158zM92 324q0 -75 33.5 -139t91.5 -104l303 505q-62 34 -136 34
q-121 0 -206.5 -87t-85.5 -209zM248 61q64 -33 136 -33q121 0 206.5 87t85.5 209q0 74 -33.5 138t-90.5 104z" />
    <glyph glyph-name="Ugrave" unicode="&#xd9;" horiz-adv-x="662" 
d="M331 -10q-110 0 -185.5 71t-75.5 185v402h40v-405q0 -94 64 -155t157 -61t157 61t64 155v405h40v-402q0 -114 -75.5 -185t-185.5 -71zM337 704l-83 116h53l72 -116h-42z" />
    <glyph glyph-name="Uacute" unicode="&#xda;" horiz-adv-x="662" 
d="M331 -10q-110 0 -185.5 71t-75.5 185v402h40v-405q0 -94 64 -155t157 -61t157 61t64 155v405h40v-402q0 -114 -75.5 -185t-185.5 -71zM282 704l72 116h53l-83 -116h-42z" />
    <glyph glyph-name="Ucircumflex" unicode="&#xdb;" horiz-adv-x="661" 
d="M331 -10q-110 0 -185.5 71t-75.5 185v402h40v-405q0 -94 64 -155t157 -61t157 61t64 155v405h40v-402q0 -114 -75.5 -185t-185.5 -71zM234 704l72 116h53l72 -116h-42l-57 83l-56 -83h-42z" />
    <glyph glyph-name="Udieresis" unicode="&#xdc;" horiz-adv-x="661" 
d="M331 -10q-110 0 -185.5 71t-75.5 185v402h40v-405q0 -94 64 -155t157 -61t157 61t64 155v405h40v-402q0 -114 -75.5 -185t-185.5 -71zM232 730q0 14 9.5 23.5t23.5 9.5q13 0 22 -9.5t9 -23.5q0 -13 -9 -22t-22 -9q-14 0 -23.5 9t-9.5 22zM367 730q0 14 9.5 23.5t23.5 9.5
q13 0 22 -9.5t9 -23.5q0 -13 -9 -22t-22 -9q-14 0 -23.5 9t-9.5 22z" />
    <glyph glyph-name="Yacute" unicode="&#xdd;" horiz-adv-x="607" 
d="M284 0v316l-274 332h49l170 -203l75 -95l76 95l168 203h49l-273 -331v-317h-40zM271 704l72 116h53l-83 -116h-42z" />
    <glyph glyph-name="Thorn" unicode="&#xde;" horiz-adv-x="595" 
d="M80 0v648h40v-115h211q86 0 147.5 -61.5t61.5 -147.5t-61.5 -147t-147.5 -61h-211v-116h-40zM120 154h210q70 0 119 49.5t49 120.5t-49 121t-119 50h-210v-341z" />
    <glyph glyph-name="germandbls" unicode="&#xdf;" horiz-adv-x="533" 
d="M80 0v459q0 97 46 148t123 51q76 0 126 -52t50 -128q0 -55 -20 -94t-50 -56q63 -8 105.5 -56.5t42.5 -109.5q0 -72 -50.5 -122t-122.5 -50t-122 50l27 27q39 -41 95 -41q55 0 94 40t39 96q0 58 -41 96t-116 38h-44v34h6q44 3 80.5 37.5t36.5 110.5q0 60 -38 102t-98 42
q-58 0 -94.5 -41t-36.5 -115v-466h-38z" />
    <glyph glyph-name="agrave" unicode="&#xe0;" horiz-adv-x="587" 
d="M45 239q0 103 69.5 176t167.5 73q65 0 116.5 -32.5t80.5 -89.5v112h38v-478h-38v112q-29 -57 -80.5 -89.5t-116.5 -32.5q-98 0 -167.5 73t-69.5 176zM85 239q0 -88 57 -150.5t140 -62.5q82 0 139.5 61t57.5 152q0 88 -57 150.5t-140 62.5t-140 -62.5t-57 -150.5zM272 563
l-83 116h53l72 -116h-42z" />
    <glyph glyph-name="aacute" unicode="&#xe1;" horiz-adv-x="587" 
d="M45 239q0 103 69.5 176t167.5 73q65 0 116.5 -32.5t80.5 -89.5v112h38v-478h-38v112q-29 -57 -80.5 -89.5t-116.5 -32.5q-98 0 -167.5 73t-69.5 176zM85 239q0 -88 57 -150.5t140 -62.5q82 0 139.5 61t57.5 152q0 88 -57 150.5t-140 62.5t-140 -62.5t-57 -150.5zM250 563
l72 116h53l-83 -116h-42z" />
    <glyph glyph-name="acircumflex" unicode="&#xe2;" horiz-adv-x="587" 
d="M45 239q0 103 69.5 176t167.5 73q65 0 116.5 -32.5t80.5 -89.5v112h38v-478h-38v112q-29 -57 -80.5 -89.5t-116.5 -32.5q-98 0 -167.5 73t-69.5 176zM85 239q0 -88 57 -150.5t140 -62.5q82 0 139.5 61t57.5 152q0 88 -57 150.5t-140 62.5t-140 -62.5t-57 -150.5zM184 553
l72 116h53l72 -116h-42l-57 83l-56 -83h-42z" />
    <glyph glyph-name="atilde" unicode="&#xe3;" horiz-adv-x="587" 
d="M45 239q0 103 69.5 176t167.5 73q65 0 116.5 -32.5t80.5 -89.5v112h38v-478h-38v112q-29 -57 -80.5 -89.5t-116.5 -32.5q-98 0 -167.5 73t-69.5 176zM85 239q0 -88 57 -150.5t140 -62.5q82 0 139.5 61t57.5 152q0 88 -57 150.5t-140 62.5t-140 -62.5t-57 -150.5zM175 564
q0 34 16 58t42 24q21 0 53 -21.5t44 -21.5q13 0 20 12.5t7 30.5h33q0 -34 -16 -58t-42 -24q-20 0 -53 21.5t-44 21.5q-13 0 -20 -12.5t-7 -30.5h-33z" />
    <glyph glyph-name="adieresis" unicode="&#xe4;" horiz-adv-x="587" 
d="M45 239q0 103 69.5 176t167.5 73q65 0 116.5 -32.5t80.5 -89.5v112h38v-478h-38v112q-29 -57 -80.5 -89.5t-116.5 -32.5q-98 0 -167.5 73t-69.5 176zM85 239q0 -88 57 -150.5t140 -62.5q82 0 139.5 61t57.5 152q0 88 -57 150.5t-140 62.5t-140 -62.5t-57 -150.5zM182 603
q0 14 9.5 23.5t23.5 9.5q13 0 22 -9.5t9 -23.5q0 -13 -9 -22t-22 -9q-14 0 -23.5 9t-9.5 22zM317 603q0 14 9.5 23.5t23.5 9.5q13 0 22 -9.5t9 -23.5q0 -13 -9 -22t-22 -9q-14 0 -23.5 9t-9.5 22z" />
    <glyph glyph-name="aring" unicode="&#xe5;" horiz-adv-x="587" 
d="M45 239q0 103 69.5 176t167.5 73q65 0 116.5 -32.5t80.5 -89.5v112h38v-478h-38v112q-29 -57 -80.5 -89.5t-116.5 -32.5q-98 0 -167.5 73t-69.5 176zM85 239q0 -88 57 -150.5t140 -62.5q82 0 139.5 61t57.5 152q0 88 -57 150.5t-140 62.5t-140 -62.5t-57 -150.5zM200 637
q0 38 27.5 65.5t65.5 27.5t65.5 -27.5t27.5 -65.5t-27.5 -65.5t-65.5 -27.5t-65.5 27.5t-27.5 65.5zM234 637q0 -26 17 -44.5t42 -18.5t42 18.5t17 44.5t-17 44.5t-42 18.5t-42 -18.5t-17 -44.5z" />
    <glyph glyph-name="ae" unicode="&#xe6;" horiz-adv-x="916" 
d="M45 125q0 44 20.5 75.5t56.5 48t75.5 24t85.5 7.5q55 0 143 -5q0 85 -44 131t-118 46q-49 0 -89.5 -11t-56.5 -23l-16 -11l-21 29q7 6 20 14.5t60.5 23t102.5 14.5q151 0 191 -128q31 58 85.5 93t118.5 35q94 0 161.5 -73t67.5 -174l-1 -19h-421q7 -83 65.5 -139.5
t139.5 -56.5q95 0 158 71l26 -25q-77 -82 -184 -82q-73 0 -133 39.5t-90 104.5q-26 -71 -92 -107.5t-147 -36.5q-69 0 -116.5 35t-47.5 100zM85 125q0 -49 35 -74.5t89 -25.5q101 0 160 55t59 151v11q-36 2 -145 2q-53 0 -94.5 -9.5t-72.5 -37t-31 -72.5zM466 258h381
q-6 81 -60 137.5t-128 56.5q-75 0 -130.5 -56.5t-62.5 -137.5z" />
    <glyph glyph-name="ccedilla" unicode="&#xe7;" horiz-adv-x="508" 
d="M188 -182l15 25q36 -24 85 -24q37 0 58.5 17t21.5 39q0 39 -53 39q-21 0 -42 -8.5t-31 -18.5l-27 13l54 92q-95 9 -159.5 80t-64.5 167q0 103 73 176t176 73q99 0 172 -70l-26 -26q-62 60 -146 60q-87 0 -148 -62.5t-61 -150.5t61 -150.5t148 -62.5q94 0 158 71l26 -25
q-73 -79 -179 -82l-36 -62q24 13 56 13q34 0 58.5 -16t24.5 -48q0 -40 -34.5 -63t-80.5 -23q-59 0 -99 27z" />
    <glyph glyph-name="egrave" unicode="&#xe8;" horiz-adv-x="552" 
d="M85 258h381q-6 81 -60 137.5t-128 56.5q-75 0 -130.5 -56.5t-62.5 -137.5zM45 239q0 103 68.5 176t164.5 73q94 0 161.5 -72.5t67.5 -172.5l-1 -21h-421q7 -83 65.5 -139.5t139.5 -56.5q95 0 158 71l26 -25q-77 -82 -184 -82q-101 0 -173 73t-72 176zM262 563l-83 116h53
l72 -116h-42z" />
    <glyph glyph-name="eacute" unicode="&#xe9;" horiz-adv-x="552" 
d="M85 258h381q-6 81 -60 137.5t-128 56.5q-75 0 -130.5 -56.5t-62.5 -137.5zM45 239q0 103 68.5 176t164.5 73q94 0 161.5 -72.5t67.5 -172.5l-1 -21h-421q7 -83 65.5 -139.5t139.5 -56.5q95 0 158 71l26 -25q-77 -82 -184 -82q-101 0 -173 73t-72 176zM241 563l72 116h53
l-83 -116h-42z" />
    <glyph glyph-name="ecircumflex" unicode="&#xea;" horiz-adv-x="552" 
d="M85 258h381q-6 81 -60 137.5t-128 56.5q-75 0 -130.5 -56.5t-62.5 -137.5zM45 239q0 103 68.5 176t164.5 73q94 0 161.5 -72.5t67.5 -172.5l-1 -21h-421q7 -83 65.5 -139.5t139.5 -56.5q95 0 158 71l26 -25q-77 -82 -184 -82q-101 0 -173 73t-72 176zM174 553l72 116h53
l72 -116h-42l-57 83l-56 -83h-42z" />
    <glyph glyph-name="edieresis" unicode="&#xeb;" horiz-adv-x="552" 
d="M85 258h381q-6 81 -60 137.5t-128 56.5q-75 0 -130.5 -56.5t-62.5 -137.5zM45 239q0 103 68.5 176t164.5 73q94 0 161.5 -72.5t67.5 -172.5l-1 -21h-421q7 -83 65.5 -139.5t139.5 -56.5q95 0 158 71l26 -25q-77 -82 -184 -82q-101 0 -173 73t-72 176zM173 603
q0 14 9.5 23.5t23.5 9.5q13 0 22 -9.5t9 -23.5q0 -13 -9 -22t-22 -9q-14 0 -23.5 9t-9.5 22zM308 603q0 14 9.5 23.5t23.5 9.5q13 0 22 -9.5t9 -23.5q0 -13 -9 -22t-22 -9q-14 0 -23.5 9t-9.5 22z" />
    <glyph glyph-name="igrave" unicode="&#xec;" horiz-adv-x="178" 
d="M78 563l-83 116h53l72 -116h-42zM70 0v478h38v-478h-38z" />
    <glyph glyph-name="iacute" unicode="&#xed;" horiz-adv-x="178" 
d="M57 563l72 116h53l-83 -116h-42zM70 0v478h38v-478h-38z" />
    <glyph glyph-name="icircumflex" unicode="&#xee;" horiz-adv-x="178" 
d="M70 0v478h38v-478h-38zM-10 553l72 116h53l72 -116h-42l-57 83l-56 -83h-42z" />
    <glyph glyph-name="idieresis" unicode="&#xef;" horiz-adv-x="178" 
d="M-10 603q0 14 9.5 23.5t23.5 9.5q13 0 22 -9.5t9 -23.5q0 -13 -9 -22t-22 -9q-14 0 -23.5 9t-9.5 22zM125 603q0 14 9.5 23.5t23.5 9.5q13 0 22 -9.5t9 -23.5q0 -13 -9 -22t-22 -9q-14 0 -23.5 9t-9.5 22zM70 0v478h38v-478h-38z" />
    <glyph glyph-name="eth" unicode="&#xf0;" horiz-adv-x="588" 
d="M45 239q0 103 73 176t176 73q85 0 136 -50q-56 82 -143 136l-94 -42l-15 30l72 32q-39 20 -84 33l13 32q58 -17 111 -47l103 46l15 -30l-83 -37q85 -59 151.5 -157.5t66.5 -194.5q0 -103 -73 -176t-176 -73t-176 73t-73 176zM85 239q0 -88 61 -150.5t148 -62.5t148 62.5
t61 150.5t-61 150.5t-148 62.5t-148 -62.5t-61 -150.5z" />
    <glyph glyph-name="ntilde" unicode="&#xf1;" horiz-adv-x="520" 
d="M70 0v478h38v-87q53 97 172 97q82 0 131 -46.5t49 -129.5v-312h-38v301q0 151 -147 151q-66 0 -116.5 -47t-50.5 -117v-288h-38zM158 564q0 34 16 58t42 24q20 0 53 -21.5t44 -21.5q13 0 20 12.5t7 30.5h33q0 -34 -16 -58t-42 -24q-21 0 -53 21.5t-44 21.5
q-13 0 -20 -12.5t-7 -30.5h-33z" />
    <glyph glyph-name="ograve" unicode="&#xf2;" horiz-adv-x="588" 
d="M45 239q0 103 73 176t176 73t176 -73t73 -176t-73 -176t-176 -73t-176 73t-73 176zM85 239q0 -88 61 -150.5t148 -62.5t148 62.5t61 150.5t-61 150.5t-148 62.5t-148 -62.5t-61 -150.5zM286 563l-83 116h53l72 -116h-42z" />
    <glyph glyph-name="oacute" unicode="&#xf3;" horiz-adv-x="588" 
d="M45 239q0 103 73 176t176 73t176 -73t73 -176t-73 -176t-176 -73t-176 73t-73 176zM85 239q0 -88 61 -150.5t148 -62.5t148 62.5t61 150.5t-61 150.5t-148 62.5t-148 -62.5t-61 -150.5zM263 563l72 116h53l-83 -116h-42z" />
    <glyph glyph-name="ocircumflex" unicode="&#xf4;" horiz-adv-x="588" 
d="M45 239q0 103 73 176t176 73t176 -73t73 -176t-73 -176t-176 -73t-176 73t-73 176zM85 239q0 -88 61 -150.5t148 -62.5t148 62.5t61 150.5t-61 150.5t-148 62.5t-148 -62.5t-61 -150.5zM195 553l72 116h53l72 -116h-42l-57 83l-56 -83h-42z" />
    <glyph glyph-name="otilde" unicode="&#xf5;" horiz-adv-x="588" 
d="M45 239q0 103 73 176t176 73t176 -73t73 -176t-73 -176t-176 -73t-176 73t-73 176zM85 239q0 -88 61 -150.5t148 -62.5t148 62.5t61 150.5t-61 150.5t-148 62.5t-148 -62.5t-61 -150.5zM187 564q0 34 16 58t42 24q21 0 53 -21.5t44 -21.5q13 0 20 12.5t7 30.5h33
q0 -34 -16 -58t-42 -24q-20 0 -53 21.5t-44 21.5q-13 0 -20 -12.5t-7 -30.5h-33z" />
    <glyph glyph-name="odieresis" unicode="&#xf6;" horiz-adv-x="588" 
d="M45 239q0 103 73 176t176 73t176 -73t73 -176t-73 -176t-176 -73t-176 73t-73 176zM85 239q0 -88 61 -150.5t148 -62.5t148 62.5t61 150.5t-61 150.5t-148 62.5t-148 -62.5t-61 -150.5zM195 603q0 14 9.5 23.5t23.5 9.5q13 0 22 -9.5t9 -23.5q0 -13 -9 -22t-22 -9
q-14 0 -23.5 9t-9.5 22zM330 603q0 14 9.5 23.5t23.5 9.5q13 0 22 -9.5t9 -23.5q0 -13 -9 -22t-22 -9q-14 0 -23.5 9t-9.5 22z" />
    <glyph glyph-name="divide" unicode="&#xf7;" 
d="M237 373q0 17 12.5 29.5t29.5 12.5t29.5 -12.5t12.5 -29.5t-12.5 -29.5t-29.5 -12.5t-29.5 12.5t-12.5 29.5zM237 134q0 17 12.5 29.5t29.5 12.5t29.5 -12.5t12.5 -29.5t-12.5 -29.5t-29.5 -12.5t-29.5 12.5t-12.5 29.5zM64 236v36h431v-36h-431z" />
    <glyph glyph-name="oslash" unicode="&#xf8;" horiz-adv-x="588" 
d="M45 239q0 103 73 176t176 73q57 0 111 -27l46 77l30 -18l-46 -76q50 -34 79 -88.5t29 -116.5q0 -103 -73 -176t-176 -73q-59 0 -113 27l-44 -73l-30 18l44 73q-49 34 -77.5 88t-28.5 116zM199 48q44 -22 95 -22q87 0 148 62.5t61 150.5q0 51 -23.5 97.5t-63.5 75.5z
M85 239q0 -108 85 -172l216 363q-42 22 -92 22q-87 0 -148 -62.5t-61 -150.5z" />
    <glyph glyph-name="ugrave" unicode="&#xf9;" horiz-adv-x="510" 
d="M60 166v312h38v-301q0 -151 147 -151q65 0 111 46.5t46 117.5v288h38v-478h-38v81q-50 -91 -162 -91q-82 0 -131 46.5t-49 129.5zM263 563l-83 116h53l72 -116h-42z" />
    <glyph glyph-name="uacute" unicode="&#xfa;" horiz-adv-x="510" 
d="M60 166v312h38v-301q0 -151 147 -151q65 0 111 46.5t46 117.5v288h38v-478h-38v81q-50 -91 -162 -91q-82 0 -131 46.5t-49 129.5zM213 563l72 116h53l-83 -116h-42z" />
    <glyph glyph-name="ucircumflex" unicode="&#xfb;" horiz-adv-x="510" 
d="M60 166v312h38v-301q0 -151 147 -151q65 0 111 46.5t46 117.5v288h38v-478h-38v81q-50 -91 -162 -91q-82 0 -131 46.5t-49 129.5zM146 553l72 116h53l72 -116h-42l-57 83l-56 -83h-42z" />
    <glyph glyph-name="udieresis" unicode="&#xfc;" horiz-adv-x="510" 
d="M60 166v312h38v-301q0 -151 147 -151q65 0 111 46.5t46 117.5v288h38v-478h-38v81q-50 -91 -162 -91q-82 0 -131 46.5t-49 129.5zM146 603q0 14 9.5 23.5t23.5 9.5q13 0 22 -9.5t9 -23.5q0 -13 -9 -22t-22 -9q-14 0 -23.5 9t-9.5 22zM281 603q0 14 9.5 23.5t23.5 9.5
q13 0 22 -9.5t9 -23.5q0 -13 -9 -22t-22 -9q-14 0 -23.5 9t-9.5 22z" />
    <glyph glyph-name="yacute" unicode="&#xfd;" horiz-adv-x="515" 
d="M110 -147v36q43 0 70 18.5t56 81.5l11 24l-232 465h43l174 -352l34 -74l34 76l158 350h42l-230 -504q-19 -42 -38.5 -67.5t-41.5 -36.5t-38.5 -14t-41.5 -3zM236 563l72 116h53l-83 -116h-42z" />
    <glyph glyph-name="thorn" unicode="&#xfe;" horiz-adv-x="587" 
d="M70 -137v785h38v-282q28 57 80 89.5t117 32.5q98 0 167.5 -73t69.5 -176t-69.5 -176t-167.5 -73q-66 0 -117.5 32.5t-79.5 89.5v-249h-38zM108 239q0 -88 57 -150.5t140 -62.5t140 62.5t57 150.5t-57 150.5t-140 62.5t-140 -62.5t-57 -150.5z" />
    <glyph glyph-name="ydieresis" unicode="&#xff;" horiz-adv-x="515" 
d="M110 -147v36q43 0 70 18.5t56 81.5l11 24l-232 465h43l174 -352l34 -74l34 76l158 350h42l-230 -504q-19 -42 -38.5 -67.5t-41.5 -36.5t-38.5 -14t-41.5 -3zM168 603q0 14 9.5 23.5t23.5 9.5q13 0 22 -9.5t9 -23.5q0 -13 -9 -22t-22 -9q-14 0 -23.5 9t-9.5 22zM303 603
q0 14 9.5 23.5t23.5 9.5q13 0 22 -9.5t9 -23.5q0 -13 -9 -22t-22 -9q-14 0 -23.5 9t-9.5 22z" />
    <glyph glyph-name="Amacron" unicode="&#x100;" horiz-adv-x="686" 
d="M10 0l322 648h22l322 -648h-42l-70 141h-442l-70 -141h-42zM140 178h405l-148 300l-54 116q-27 -62 -54 -117zM255 714v35h176v-35h-176z" />
    <glyph glyph-name="amacron" unicode="&#x101;" horiz-adv-x="587" 
d="M45 239q0 103 69.5 176t167.5 73q65 0 116.5 -32.5t80.5 -89.5v112h38v-478h-38v112q-29 -57 -80.5 -89.5t-116.5 -32.5q-98 0 -167.5 73t-69.5 176zM85 239q0 -88 57 -150.5t140 -62.5q82 0 139.5 61t57.5 152q0 88 -57 150.5t-140 62.5t-140 -62.5t-57 -150.5zM205 574
v35h176v-35h-176z" />
    <glyph glyph-name="Abreve" unicode="&#x102;" horiz-adv-x="686" 
d="M10 0l322 648h22l322 -648h-42l-70 141h-442l-70 -141h-42zM140 178h405l-148 300l-54 116q-27 -62 -54 -117zM343 699q-39 0 -63.5 26t-24.5 64h30q8 -52 58 -52t58 52h30q0 -38 -24.5 -64t-63.5 -26z" />
    <glyph glyph-name="abreve" unicode="&#x103;" horiz-adv-x="587" 
d="M45 239q0 103 69.5 176t167.5 73q65 0 116.5 -32.5t80.5 -89.5v112h38v-478h-38v112q-29 -57 -80.5 -89.5t-116.5 -32.5q-98 0 -167.5 73t-69.5 176zM85 239q0 -88 57 -150.5t140 -62.5q82 0 139.5 61t57.5 152q0 88 -57 150.5t-140 62.5t-140 -62.5t-57 -150.5zM293 553
q-39 0 -63.5 26t-24.5 64h30q8 -52 58 -52t58 52h30q0 -38 -24.5 -64t-63.5 -26z" />
    <glyph glyph-name="Aogonek" unicode="&#x104;" horiz-adv-x="686" 
d="M569 -128q0 78 62 132l-67 137h-442l-70 -141h-42l322 648h22l322 -648h-12q-23 -22 -39 -57.5t-16 -66.5q0 -26 15.5 -42t40.5 -16q22 0 45 13l15 -30q-27 -21 -62 -21q-38 0 -66 24.5t-28 67.5zM140 178h405l-148 300q-37 73 -54 115q-1 -1 -8.5 -18.5t-21 -46
t-24.5 -51.5z" />
    <glyph glyph-name="aogonek" unicode="&#x105;" horiz-adv-x="587" 
d="M416 -128q0 78 63 133v107q-29 -57 -80.5 -89.5t-116.5 -32.5q-98 0 -167.5 73t-69.5 176t69.5 176t167.5 73q65 0 116.5 -32.5t80.5 -89.5v112h38v-478h-6q-23 -22 -39 -57.5t-16 -66.5q0 -26 16 -42t40 -16q22 0 45 13l15 -30q-27 -21 -62 -21q-38 0 -66 24.5t-28 67.5
zM85 239q0 -88 57 -150.5t140 -62.5q82 0 139.5 61t57.5 152q0 88 -57 150.5t-140 62.5t-140 -62.5t-57 -150.5z" />
    <glyph glyph-name="Cacute" unicode="&#x106;" horiz-adv-x="650" 
d="M50 324q0 138 97.5 236t235.5 98q135 0 232 -94l-28 -28q-87 84 -203 84q-121 0 -206.5 -87t-85.5 -209t85.5 -209t206.5 -87q130 0 218 99l28 -29q-98 -108 -246 -108q-138 0 -236 98t-98 236zM356 704l72 116h53l-83 -116h-42z" />
    <glyph glyph-name="cacute" unicode="&#x107;" horiz-adv-x="508" 
d="M45 239q0 103 73 176t176 73q99 0 172 -70l-26 -26q-62 60 -146 60q-87 0 -148 -62.5t-61 -150.5t61 -150.5t148 -62.5q94 0 158 71l26 -25q-75 -82 -184 -82q-103 0 -176 73t-73 176zM251 563l72 116h53l-83 -116h-42z" />
    <glyph glyph-name="Ccircumflex" unicode="&#x108;" horiz-adv-x="650" 
d="M50 324q0 138 97.5 236t235.5 98q135 0 232 -94l-28 -28q-87 84 -203 84q-121 0 -206.5 -87t-85.5 -209t85.5 -209t206.5 -87q130 0 218 99l28 -29q-98 -108 -246 -108q-138 0 -236 98t-98 236zM286 704l72 116h53l72 -116h-42l-57 83l-56 -83h-42z" />
    <glyph glyph-name="ccircumflex" unicode="&#x109;" horiz-adv-x="508" 
d="M45 239q0 103 73 176t176 73q99 0 172 -70l-26 -26q-62 60 -146 60q-87 0 -148 -62.5t-61 -150.5t61 -150.5t148 -62.5q94 0 158 71l26 -25q-75 -82 -184 -82q-103 0 -176 73t-73 176zM194 553l72 116h53l72 -116h-42l-57 83l-56 -83h-42z" />
    <glyph glyph-name="Cdotaccent" unicode="&#x10a;" horiz-adv-x="650" 
d="M50 324q0 138 97.5 236t235.5 98q135 0 232 -94l-28 -28q-87 84 -203 84q-121 0 -206.5 -87t-85.5 -209t85.5 -209t206.5 -87q130 0 218 99l28 -29q-98 -108 -246 -108q-138 0 -236 98t-98 236zM344 730q0 13 9 22t22 9t22 -9t9 -22t-9 -22t-22 -9t-22 9t-9 22z" />
    <glyph glyph-name="cdotaccent" unicode="&#x10b;" horiz-adv-x="508" 
d="M45 239q0 103 73 176t176 73q99 0 172 -70l-26 -26q-62 60 -146 60q-87 0 -148 -62.5t-61 -150.5t61 -150.5t148 -62.5q94 0 158 71l26 -25q-75 -82 -184 -82q-103 0 -176 73t-73 176zM263 621q0 13 9 22t22 9t22 -9t9 -22t-9 -22t-22 -9t-22 9t-9 22z" />
    <glyph glyph-name="Ccaron" unicode="&#x10c;" horiz-adv-x="650" 
d="M50 324q0 138 97.5 236t235.5 98q135 0 232 -94l-28 -28q-87 84 -203 84q-121 0 -206.5 -87t-85.5 -209t85.5 -209t206.5 -87q130 0 218 99l28 -29q-98 -108 -246 -108q-138 0 -236 98t-98 236zM358 704l-72 116h42l56 -83l57 83h42l-72 -116h-53z" />
    <glyph glyph-name="ccaron" unicode="&#x10d;" horiz-adv-x="508" 
d="M45 239q0 103 73 176t176 73q99 0 172 -70l-26 -26q-62 60 -146 60q-87 0 -148 -62.5t-61 -150.5t61 -150.5t148 -62.5q94 0 158 71l26 -25q-75 -82 -184 -82q-103 0 -176 73t-73 176zM266 553l-72 116h42l56 -83l57 83h42l-72 -116h-53z" />
    <glyph glyph-name="Dcaron" unicode="&#x10e;" horiz-adv-x="701" 
d="M120 38h192q133 0 215 81t82 205t-82 205t-215 81h-192v-572zM80 0v648h237q149 0 241.5 -93.5t92.5 -230.5t-92.5 -230.5t-241.5 -93.5h-237zM274 704l-72 116h42l56 -83l57 83h42l-72 -116h-53z" />
    <glyph glyph-name="dcaron" unicode="&#x10f;" horiz-adv-x="587" 
d="M45 239q0 103 69.5 176t167.5 73q65 0 116.5 -32.5t80.5 -89.5v292h38v-658h-38v112q-29 -57 -80.5 -89.5t-116.5 -32.5q-98 0 -167.5 73t-69.5 176zM85 239q0 -88 57 -150.5t140 -62.5q82 0 139.5 60.5t57.5 152.5q0 88 -57 150.5t-140 62.5t-140 -62.5t-57 -150.5z
M532 471q62 62 62 147q0 15 -2 26l39 13q3 -18 3 -34q0 -54 -22 -94t-47 -58h-33z" />
    <glyph glyph-name="Dcroat" unicode="&#x110;" horiz-adv-x="701" 
d="M80 0v312h-100v38h100v298h247q134 0 229 -95t95 -229t-95 -229t-229 -95h-247zM120 38h207q117 0 199.5 84t82.5 202t-82.5 202t-199.5 84h-207v-260h224v-38h-224v-274z" />
    <glyph glyph-name="dcroat" unicode="&#x111;" horiz-adv-x="587" 
d="M45 239q0 103 69.5 176t167.5 73q65 0 116.5 -32.5t80.5 -89.5v182h-191v34h191v76h38v-76h59v-34h-59v-548h-38v112q-29 -57 -80.5 -89.5t-116.5 -32.5q-98 0 -167.5 73t-69.5 176zM85 239q0 -88 57 -150.5t140 -62.5q82 0 139.5 61t57.5 152q0 88 -57 150.5t-140 62.5
t-140 -62.5t-57 -150.5z" />
    <glyph glyph-name="Emacron" unicode="&#x112;" horiz-adv-x="612" 
d="M80 0v648h477v-38h-437v-239h406v-38h-406v-295h452v-38h-492zM228 714v35h176v-35h-176z" />
    <glyph glyph-name="emacron" unicode="&#x113;" horiz-adv-x="552" 
d="M85 258h381q-6 81 -60 137.5t-128 56.5q-75 0 -130.5 -56.5t-62.5 -137.5zM45 239q0 103 68.5 176t164.5 73q94 0 161.5 -72.5t67.5 -172.5l-1 -21h-421q7 -83 65.5 -139.5t139.5 -56.5q95 0 158 71l26 -25q-77 -82 -184 -82q-101 0 -173 73t-72 176zM188 574v35h176v-35
h-176z" />
    <glyph glyph-name="Ebreve" unicode="&#x114;" horiz-adv-x="612" 
d="M80 0v648h477v-38h-437v-239h406v-38h-406v-295h452v-38h-492zM316 699q-39 0 -63.5 26t-24.5 64h30q8 -52 58 -52t58 52h30q0 -38 -24.5 -64t-63.5 -26z" />
    <glyph glyph-name="ebreve" unicode="&#x115;" horiz-adv-x="552" 
d="M85 258h381q-6 81 -60 137.5t-128 56.5q-75 0 -130.5 -56.5t-62.5 -137.5zM45 239q0 103 68.5 176t164.5 73q94 0 161.5 -72.5t67.5 -172.5l-1 -21h-421q7 -83 65.5 -139.5t139.5 -56.5q95 0 158 71l26 -25q-77 -82 -184 -82q-101 0 -173 73t-72 176zM276 553
q-39 0 -63.5 26t-24.5 64h30q8 -52 58 -52t58 52h30q0 -38 -24.5 -64t-63.5 -26z" />
    <glyph glyph-name="Edotaccent" unicode="&#x116;" horiz-adv-x="612" 
d="M80 0v648h477v-38h-437v-239h406v-38h-406v-295h452v-38h-492zM295 730q0 13 9 22t22 9t22 -9t9 -22t-9 -22t-22 -9t-22 9t-9 22z" />
    <glyph glyph-name="edotaccent" unicode="&#x117;" horiz-adv-x="552" 
d="M85 258h381q-6 81 -60 137.5t-128 56.5q-75 0 -130.5 -56.5t-62.5 -137.5zM45 239q0 103 68.5 176t164.5 73q94 0 161.5 -72.5t67.5 -172.5l-1 -21h-421q7 -83 65.5 -139.5t139.5 -56.5q95 0 158 71l26 -25q-77 -82 -184 -82q-101 0 -173 73t-72 176zM245 621q0 13 9 22
t22 9t22 -9t9 -22t-9 -22t-22 -9t-22 9t-9 22z" />
    <glyph glyph-name="Eogonek" unicode="&#x118;" horiz-adv-x="632" 
d="M80 0v648h477v-38h-437v-239h406v-38h-406v-295h452v-38h-70q-23 -22 -39 -57.5t-16 -66.5q0 -26 15.5 -42t40.5 -16q22 0 45 13l15 -30q-27 -21 -62 -21q-38 0 -66 24.5t-28 67.5q0 74 57 128h-384z" />
    <glyph glyph-name="eogonek" unicode="&#x119;" horiz-adv-x="552" 
d="M261 -128q0 66 48 119q-3 0 -9.5 -0.5t-9.5 -0.5q-101 0 -173 73t-72 176t68.5 176t164.5 73q94 0 161.5 -72.5t67.5 -172.5l-1 -21h-421q7 -83 65.5 -139.5t139.5 -56.5q95 0 158 71l26 -25q-52 -56 -119 -73q-23 -23 -38.5 -57.5t-15.5 -65.5q0 -26 15.5 -42t40.5 -16
q22 0 45 13l15 -30q-27 -21 -62 -21q-38 0 -66 24.5t-28 67.5zM85 258h381q-6 81 -60 137.5t-128 56.5q-75 0 -130.5 -56.5t-62.5 -137.5z" />
    <glyph glyph-name="Ecaron" unicode="&#x11a;" horiz-adv-x="612" 
d="M80 0v648h477v-38h-437v-239h406v-38h-406v-295h452v-38h-492zM289 704l-72 116h42l56 -83l57 83h42l-72 -116h-53z" />
    <glyph glyph-name="ecaron" unicode="&#x11b;" horiz-adv-x="552" 
d="M85 258h381q-6 81 -60 137.5t-128 56.5q-75 0 -130.5 -56.5t-62.5 -137.5zM45 239q0 103 68.5 176t164.5 73q94 0 161.5 -72.5t67.5 -172.5l-1 -21h-421q7 -83 65.5 -139.5t139.5 -56.5q95 0 158 71l26 -25q-77 -82 -184 -82q-101 0 -173 73t-72 176zM249 553l-72 116h42
l56 -83l57 83h42l-72 -116h-53z" />
    <glyph glyph-name="Gcircumflex" unicode="&#x11c;" horiz-adv-x="735" 
d="M50 324q0 138 98 236t236 98q133 0 231 -93l-29 -29q-84 84 -202 84q-121 0 -206.5 -87t-85.5 -209t85.5 -209t206.5 -87q74 0 137 34.5t104 93.5v160h-167v38h207v-211q-46 -70 -120 -111.5t-161 -41.5q-138 0 -236 98t-98 236zM274 704l72 116h53l72 -116h-42l-57 83
l-56 -83h-42z" />
    <glyph glyph-name="gcircumflex" unicode="&#x11d;" horiz-adv-x="587" 
d="M45 254q0 101 69 167.5t168 66.5q65 0 117 -29t80 -82v101h38v-372q0 -70 -24 -121.5t-54 -76t-69.5 -38t-57 -15.5t-30.5 -2q-109 0 -184 82l26 25q63 -71 158 -71q8 0 21.5 1t47.5 12.5t59.5 32t47 65.5t21.5 106v24q-28 -53 -79.5 -81.5t-117.5 -28.5q-99 0 -168 66.5
t-69 167.5zM85 254q0 -87 56.5 -142.5t140.5 -55.5t140.5 55.5t56.5 142.5t-56.5 142.5t-140.5 55.5t-140.5 -55.5t-56.5 -142.5zM195 553l72 116h53l72 -116h-42l-57 83l-56 -83h-42z" />
    <glyph glyph-name="Gbreve" unicode="&#x11e;" horiz-adv-x="735" 
d="M50 324q0 138 98 236t236 98q133 0 231 -93l-29 -29q-84 84 -202 84q-121 0 -206.5 -87t-85.5 -209t85.5 -209t206.5 -87q74 0 137 34.5t104 93.5v160h-167v38h207v-211q-46 -70 -120 -111.5t-161 -41.5q-138 0 -236 98t-98 236zM377 699q-39 0 -63.5 26t-24.5 64h30
q8 -52 58 -52t58 52h30q0 -38 -24.5 -64t-63.5 -26z" />
    <glyph glyph-name="gbreve" unicode="&#x11f;" horiz-adv-x="587" 
d="M45 254q0 101 69 167.5t168 66.5q65 0 117 -29t80 -82v101h38v-372q0 -70 -24 -121.5t-54 -76t-69.5 -38t-57 -15.5t-30.5 -2q-109 0 -184 82l26 25q63 -71 158 -71q8 0 21.5 1t47.5 12.5t59.5 32t47 65.5t21.5 106v24q-28 -53 -79.5 -81.5t-117.5 -28.5q-99 0 -168 66.5
t-69 167.5zM85 254q0 -87 56.5 -142.5t140.5 -55.5t140.5 55.5t56.5 142.5t-56.5 142.5t-140.5 55.5t-140.5 -55.5t-56.5 -142.5zM293 553q-39 0 -63.5 26t-24.5 64h30q8 -52 58 -52t58 52h30q0 -38 -24.5 -64t-63.5 -26z" />
    <glyph glyph-name="Gdotaccent" unicode="&#x120;" horiz-adv-x="735" 
d="M50 324q0 138 98 236t236 98q133 0 231 -93l-29 -29q-84 84 -202 84q-121 0 -206.5 -87t-85.5 -209t85.5 -209t206.5 -87q74 0 137 34.5t104 93.5v160h-167v38h207v-211q-46 -70 -120 -111.5t-161 -41.5q-138 0 -236 98t-98 236zM346 730q0 13 9 22t22 9t22 -9t9 -22
t-9 -22t-22 -9t-22 9t-9 22z" />
    <glyph glyph-name="gdotaccent" unicode="&#x121;" horiz-adv-x="587" 
d="M45 254q0 101 69 167.5t168 66.5q65 0 117 -29t80 -82v101h38v-372q0 -70 -24 -121.5t-54 -76t-69.5 -38t-57 -15.5t-30.5 -2q-109 0 -184 82l26 25q63 -71 158 -71q8 0 21.5 1t47.5 12.5t59.5 32t47 65.5t21.5 106v24q-28 -53 -79.5 -81.5t-117.5 -28.5q-99 0 -168 66.5
t-69 167.5zM85 254q0 -87 56.5 -142.5t140.5 -55.5t140.5 55.5t56.5 142.5t-56.5 142.5t-140.5 55.5t-140.5 -55.5t-56.5 -142.5zM262 621q0 13 9 22t22 9t22 -9t9 -22t-9 -22t-22 -9t-22 9t-9 22z" />
    <glyph glyph-name="Gcommaaccent" unicode="&#x122;" horiz-adv-x="735" 
d="M50 324q0 138 98 236t236 98q133 0 231 -93l-29 -29q-84 84 -202 84q-121 0 -206.5 -87t-85.5 -209t85.5 -209t206.5 -87q74 0 137 34.5t104 93.5v160h-167v38h207v-211q-46 -70 -120 -111.5t-161 -41.5q-138 0 -236 98t-98 236zM316 -235q62 62 62 147q0 15 -2 26l39 13
q3 -18 3 -34q0 -54 -22 -94t-47 -58h-33z" />
    <glyph glyph-name="gcommaaccent" unicode="&#x123;" horiz-adv-x="587" 
d="M271 551q-56 43 -67 123q-2 18 -2 29q0 16 3 34l39 -13q-2 -11 -2 -26q0 -85 62 -147h-33zM45 254q0 101 69 167.5t168 66.5q65 0 117 -29t80 -82v101h38v-372q0 -70 -24 -121.5t-54 -76t-69.5 -38t-57 -15.5t-30.5 -2q-109 0 -184 82l26 25q63 -71 158 -71q8 0 21.5 1
t47.5 12.5t59.5 32t47 65.5t21.5 106v24q-28 -53 -79.5 -81.5t-117.5 -28.5q-99 0 -168 66.5t-69 167.5zM85 254q0 -87 56.5 -142.5t140.5 -55.5t140.5 55.5t56.5 142.5t-56.5 142.5t-140.5 55.5t-140.5 -55.5t-56.5 -142.5z" />
    <glyph glyph-name="Hcircumflex" unicode="&#x124;" horiz-adv-x="680" 
d="M80 0v648h40v-276h440v276h40v-648h-40v334h-440v-334h-40zM241 704l72 116h53l72 -116h-42l-57 83l-56 -83h-42z" />
    <glyph glyph-name="hcircumflex" unicode="&#x125;" horiz-adv-x="520" 
d="M70 0v658h38v-267q53 97 172 97q82 0 131 -46.5t49 -129.5v-312h-38v301q0 151 -147 151q-74 0 -120.5 -49t-46.5 -112v-291h-38zM-7 674l72 116h53l72 -116h-42l-57 83l-56 -83h-42z" />
    <glyph glyph-name="Hbar" unicode="&#x126;" horiz-adv-x="680" 
d="M80 0v499h-40v38h40v111h40v-111h440v111h40v-111h40v-38h-40v-499h-40v334h-440v-334h-40zM120 372h440v127h-440v-127z" />
    <glyph glyph-name="hbar" unicode="&#x127;" horiz-adv-x="520" 
d="M70 0v548h-53v34h53v76h38v-76h197v-34h-197v-157q53 97 172 97q82 0 131 -46.5t49 -129.5v-312h-38v301q0 151 -147 151q-66 0 -116.5 -45.5t-50.5 -115.5v-291h-38z" />
    <glyph glyph-name="Itilde" unicode="&#x128;" horiz-adv-x="200" 
d="M80 0v648h40v-648h-40zM-7 699q0 34 16 58t42 24q21 0 53 -21.5t44 -21.5q13 0 20 12.5t7 30.5h33q0 -34 -16 -58t-42 -24q-20 0 -53 21.5t-44 21.5q-13 0 -20 -12.5t-7 -30.5h-33z" />
    <glyph glyph-name="itilde" unicode="&#x129;" horiz-adv-x="178" 
d="M-18 564q0 34 16 58t42 24q20 0 53 -21.5t44 -21.5q13 0 20 12.5t7 30.5h33q0 -34 -16 -58t-42 -24q-20 0 -52.5 21.5t-44.5 21.5q-13 0 -20 -12.5t-7 -30.5h-33zM70 0v478h38v-478h-38z" />
    <glyph glyph-name="Imacron" unicode="&#x12a;" horiz-adv-x="200" 
d="M80 0v648h40v-648h-40zM12 714v35h176v-35h-176z" />
    <glyph glyph-name="imacron" unicode="&#x12b;" horiz-adv-x="178" 
d="M1 574v35h176v-35h-176zM70 0v478h38v-478h-38z" />
    <glyph glyph-name="Ibreve" unicode="&#x12c;" horiz-adv-x="200" 
d="M80 0v648h40v-648h-40zM100 699q-39 0 -63.5 26t-24.5 64h30q8 -52 58 -52t58 52h30q0 -38 -24.5 -64t-63.5 -26z" />
    <glyph glyph-name="ibreve" unicode="&#x12d;" horiz-adv-x="178" 
d="M89 553q-39 0 -63.5 26t-24.5 64h30q8 -52 58 -52t58 52h30q0 -38 -24.5 -64t-63.5 -26zM70 0v478h38v-478h-38z" />
    <glyph glyph-name="Iogonek" unicode="&#x12e;" horiz-adv-x="200" 
d="M17 -128q0 78 63 133v643h40v-648h-8q-23 -22 -39 -57.5t-16 -66.5q0 -26 15.5 -42t40.5 -16q22 0 45 13l15 -30q-27 -21 -62 -21q-38 0 -66 24.5t-28 67.5z" />
    <glyph glyph-name="iogonek" unicode="&#x12f;" horiz-adv-x="178" 
d="M7 -128q0 78 63 133v473h38v-478h-6q-23 -22 -39 -57.5t-16 -66.5q0 -26 15.5 -42t40.5 -16q22 0 45 13l15 -30q-27 -21 -62 -21q-38 0 -66 24.5t-28 67.5zM59 611q0 13 9 22t22 9t22 -9t9 -22t-9 -22t-22 -9t-22 9t-9 22z" />
    <glyph glyph-name="Idotaccent" unicode="&#x130;" horiz-adv-x="200" 
d="M80 0v648h40v-648h-40zM69 730q0 13 9 22t22 9t22 -9t9 -22t-9 -22t-22 -9t-22 9t-9 22z" />
    <glyph glyph-name="dotlessi" unicode="&#x131;" horiz-adv-x="178" 
d="M70 0v478h38v-478h-38z" />
    <glyph glyph-name="Jcircumflex" unicode="&#x134;" horiz-adv-x="517" 
d="M30 100l31 23q49 -93 151 -93q88 0 141.5 56.5t53.5 179.5v382h40v-397q0 -132 -65.5 -196.5t-169.5 -64.5q-58 0 -106 28t-76 82zM330 704l72 116h53l72 -116h-42l-57 83l-56 -83h-42z" />
    <glyph glyph-name="jcircumflex" unicode="&#x135;" horiz-adv-x="178" 
d="M0 -178l-12 35q82 52 82 198v423h38v-422q0 -176 -108 -234zM-9 553l72 116h53l72 -116h-42l-57 83l-56 -83h-42z" />
    <glyph glyph-name="Kcommaaccent" unicode="&#x136;" horiz-adv-x="624" 
d="M597 648l-280 -295l297 -353h-51l-273 325l-170 -178v-147h-40v648h40v-449l54 60l371 389h52zM200 -235q62 62 62 147q0 15 -2 26l39 13q3 -18 3 -34q0 -54 -22 -94t-47 -58h-33z" />
    <glyph glyph-name="kcommaaccent" unicode="&#x137;" horiz-adv-x="479" 
d="M70 0v658h38v-489l282 309h53l-192 -211l223 -267h-55l-195 241l-116 -130v-111h-38zM166 -235q62 62 62 147q0 15 -2 26l39 13q3 -18 3 -34q0 -54 -22 -94t-47 -58h-33z" />
    <glyph glyph-name="Lacute" unicode="&#x139;" horiz-adv-x="592" 
d="M80 0v648h40v-610h432v-38h-472zM75 704l72 116h53l-83 -116h-42z" />
    <glyph glyph-name="lacute" unicode="&#x13a;" horiz-adv-x="178" 
d="M70 0v658h38v-658h-38zM56 734l72 116h53l-83 -116h-42z" />
    <glyph glyph-name="Lcommaaccent" unicode="&#x13b;" horiz-adv-x="592" 
d="M80 0v648h40v-610h432v-38h-472zM248 -235q62 62 62 147q0 15 -2 26l39 13q3 -18 3 -34q0 -54 -22 -94t-47 -58h-33z" />
    <glyph glyph-name="lcommaaccent" unicode="&#x13c;" horiz-adv-x="178" 
d="M70 0v658h38v-658h-38zM8 -235q62 62 62 147q0 15 -2 26l39 13q3 -18 3 -34q0 -54 -22 -94t-47 -58h-33z" />
    <glyph glyph-name="Lcaron" unicode="&#x13d;" horiz-adv-x="592" 
d="M80 0v648h40v-610h432v-38h-472zM169 469q62 62 62 147q0 15 -2 26l39 13q3 -18 3 -34q0 -54 -22 -94t-47 -58h-33z" />
    <glyph glyph-name="lcaron" unicode="&#x13e;" horiz-adv-x="178" 
d="M70 0v658h38v-658h-38zM132 471q62 62 62 147q0 15 -2 26l39 13q3 -18 3 -34q0 -54 -22 -94t-47 -58h-33z" />
    <glyph glyph-name="Lslash" unicode="&#x141;" horiz-adv-x="592" 
d="M80 0v302l-55 -23v42l55 23v304h40v-287l193 82v-40l-193 -83v-282h432v-38h-472z" />
    <glyph glyph-name="lslash" unicode="&#x142;" horiz-adv-x="178" 
d="M70 0v409l-55 -23v42l55 22v208h38v-192l57 23v-40l-57 -24v-425h-38z" />
    <glyph glyph-name="Nacute" unicode="&#x143;" horiz-adv-x="698" 
d="M578 66v582h40v-648h-35l-463 578v-578h-40v648h32zM316 704l72 116h53l-83 -116h-42z" />
    <glyph glyph-name="nacute" unicode="&#x144;" horiz-adv-x="520" 
d="M70 0v478h38v-87q53 97 172 97q82 0 131 -46.5t49 -129.5v-312h-38v301q0 151 -147 151q-66 0 -116.5 -47t-50.5 -117v-288h-38zM222 563l72 116h53l-83 -116h-42z" />
    <glyph glyph-name="Ncommaaccent" unicode="&#x145;" horiz-adv-x="698" 
d="M578 66v582h40v-648h-35l-463 578v-578h-40v648h32zM288 -235q62 62 62 147q0 15 -2 26l39 13q3 -18 3 -34q0 -54 -22 -94t-47 -58h-33z" />
    <glyph glyph-name="ncommaaccent" unicode="&#x146;" horiz-adv-x="520" 
d="M70 0v478h38v-87q53 97 172 97q82 0 131 -46.5t49 -129.5v-312h-38v301q0 151 -147 151q-66 0 -116.5 -47t-50.5 -117v-288h-38zM198 -235q62 62 62 147q0 15 -2 26l39 13q3 -18 3 -34q0 -54 -22 -94t-47 -58h-33z" />
    <glyph glyph-name="Ncaron" unicode="&#x147;" horiz-adv-x="698" 
d="M578 66v582h40v-648h-35l-463 578v-578h-40v648h32zM322 704l-72 116h42l56 -83l57 83h42l-72 -116h-53z" />
    <glyph glyph-name="ncaron" unicode="&#x148;" horiz-adv-x="520" 
d="M70 0v478h38v-87q53 97 172 97q82 0 131 -46.5t49 -129.5v-312h-38v301q0 151 -147 151q-66 0 -116.5 -47t-50.5 -117v-288h-38zM238 553l-72 116h42l56 -83l57 83h42l-72 -116h-53z" />
    <glyph glyph-name="Eng" unicode="&#x14a;" horiz-adv-x="698" 
d="M579 5l-387 484l-71 95v-584h-40v648h32l465 -586v586h40v-646q0 -73 -40 -127.5t-106 -78.5l-12 35q54 21 86.5 66.5t32.5 107.5z" />
    <glyph glyph-name="eng" unicode="&#x14b;" horiz-adv-x="520" 
d="M70 0v478h38v-87q53 97 172 97q82 0 131 -46.5t49 -129.5v-312q0 -72 -40 -126t-106 -78l-11 35q54 21 86.5 66.5t32.5 107.5v296q0 151 -147 151q-66 0 -116.5 -47t-50.5 -117v-288h-38z" />
    <glyph glyph-name="Omacron" unicode="&#x14c;" horiz-adv-x="768" 
d="M92 324q0 -122 85.5 -209t206.5 -87t206.5 87t85.5 209t-85.5 209t-206.5 87t-206.5 -87t-85.5 -209zM50 324q0 138 98 236t236 98t236 -98t98 -236t-98 -236t-236 -98t-236 98t-98 236zM296 714v35h176v-35h-176z" />
    <glyph glyph-name="omacron" unicode="&#x14d;" horiz-adv-x="588" 
d="M45 239q0 103 73 176t176 73t176 -73t73 -176t-73 -176t-176 -73t-176 73t-73 176zM85 239q0 -88 61 -150.5t148 -62.5t148 62.5t61 150.5t-61 150.5t-148 62.5t-148 -62.5t-61 -150.5zM206 574v35h176v-35h-176z" />
    <glyph glyph-name="Obreve" unicode="&#x14e;" horiz-adv-x="768" 
d="M92 324q0 -122 85.5 -209t206.5 -87t206.5 87t85.5 209t-85.5 209t-206.5 87t-206.5 -87t-85.5 -209zM50 324q0 138 98 236t236 98t236 -98t98 -236t-98 -236t-236 -98t-236 98t-98 236zM384 699q-39 0 -63.5 26t-24.5 64h30q8 -52 58 -52t58 52h30q0 -38 -24.5 -64
t-63.5 -26z" />
    <glyph glyph-name="obreve" unicode="&#x14f;" horiz-adv-x="588" 
d="M45 239q0 103 73 176t176 73t176 -73t73 -176t-73 -176t-176 -73t-176 73t-73 176zM85 239q0 -88 61 -150.5t148 -62.5t148 62.5t61 150.5t-61 150.5t-148 62.5t-148 -62.5t-61 -150.5zM294 553q-39 0 -63.5 26t-24.5 64h30q8 -52 58 -52t58 52h30q0 -38 -24.5 -64
t-63.5 -26z" />
    <glyph glyph-name="Ohungarumlaut" unicode="&#x150;" horiz-adv-x="768" 
d="M92 324q0 -122 85.5 -209t206.5 -87t206.5 87t85.5 209t-85.5 209t-206.5 87t-206.5 -87t-85.5 -209zM50 324q0 138 98 236t236 98t236 -98t98 -236t-98 -236t-236 -98t-236 98t-98 236zM305 704l72 116h53l-83 -116h-42zM405 704l72 116h53l-83 -116h-42z" />
    <glyph glyph-name="ohungarumlaut" unicode="&#x151;" horiz-adv-x="588" 
d="M45 239q0 103 73 176t176 73t176 -73t73 -176t-73 -176t-176 -73t-176 73t-73 176zM85 239q0 -88 61 -150.5t148 -62.5t148 62.5t61 150.5t-61 150.5t-148 62.5t-148 -62.5t-61 -150.5zM206 553l72 116h53l-83 -116h-42zM306 553l72 116h53l-83 -116h-42z" />
    <glyph glyph-name="OE" unicode="&#x152;" horiz-adv-x="1012" 
d="M50 324q0 138 98 236t236 98q94 0 168 -52v42h406v-38h-366v-239h337v-38h-337v-295h380v-38h-420v40q-70 -50 -168 -50q-138 0 -236 98t-98 236zM92 324q0 -122 85.5 -209t206.5 -87q92 0 168 54v484q-76 54 -168 54q-121 0 -206.5 -87t-85.5 -209z" />
    <glyph glyph-name="oe" unicode="&#x153;" horiz-adv-x="1013" 
d="M45 239q0 103 73 176t176 73q77 0 139 -44.5t89 -115.5q26 71 85 115.5t132 44.5q94 0 161.5 -73t67.5 -174l-1 -19h-421q7 -83 65.5 -139.5t139.5 -56.5q95 0 157 72l27 -26q-77 -82 -184 -82q-77 0 -139.5 44.5t-89.5 115.5q-26 -72 -88 -116t-140 -44q-103 0 -176 73
t-73 176zM85 239q0 -88 61 -150.5t148 -62.5t148 62.5t61 150.5t-61 150.5t-148 62.5t-148 -62.5t-61 -150.5zM546 258h381q-6 81 -60 137.5t-128 56.5q-75 0 -130.5 -56.5t-62.5 -137.5z" />
    <glyph glyph-name="Racute" unicode="&#x154;" horiz-adv-x="652" 
d="M80 0v648h258q123 0 196 -68.5t73 -170.5q0 -77 -43.5 -137t-121.5 -85l165 -187h-54l-153 175q-25 -4 -133 -4h-147v-171h-40zM120 209h226q95 0 157 58t62 142q0 85 -61.5 143t-156.5 58h-227v-401zM245 704l72 116h53l-83 -116h-42z" />
    <glyph glyph-name="racute" unicode="&#x155;" horiz-adv-x="325" 
d="M70 0v478h38v-110q55 120 197 120v-43q-35 0 -67.5 -10.5t-63 -33.5t-48.5 -67t-18 -103v-231h-38zM130 563l72 116h53l-83 -116h-42z" />
    <glyph glyph-name="Rcommaaccent" unicode="&#x156;" horiz-adv-x="652" 
d="M80 0v648h258q123 0 196 -68.5t73 -170.5q0 -77 -43.5 -137t-121.5 -85l165 -187h-54l-153 175q-25 -4 -133 -4h-147v-171h-40zM120 209h226q95 0 157 58t62 142q0 85 -61.5 143t-156.5 58h-227v-401zM218 -235q62 62 62 147q0 15 -2 26l39 13q3 -18 3 -34q0 -54 -22 -94
t-47 -58h-33z" />
    <glyph glyph-name="rcommaaccent" unicode="&#x157;" horiz-adv-x="325" 
d="M70 0v478h38v-110q55 120 197 120v-43q-35 0 -67.5 -10.5t-63 -33.5t-48.5 -67t-18 -103v-231h-38zM16 -235q62 62 62 147q0 15 -2 26l39 13q3 -18 3 -34q0 -54 -22 -94t-47 -58h-33z" />
    <glyph glyph-name="Rcaron" unicode="&#x158;" horiz-adv-x="652" 
d="M80 0v648h258q123 0 196 -68.5t73 -170.5q0 -77 -43.5 -137t-121.5 -85l165 -187h-54l-153 175q-25 -4 -133 -4h-147v-171h-40zM120 209h226q95 0 157 58t62 142q0 85 -61.5 143t-156.5 58h-227v-401zM261 704l-72 116h42l56 -83l57 83h42l-72 -116h-53z" />
    <glyph glyph-name="rcaron" unicode="&#x159;" horiz-adv-x="325" 
d="M70 0v478h38v-110q55 120 197 120v-43q-35 0 -67.5 -10.5t-63 -33.5t-48.5 -67t-18 -103v-231h-38zM156 553l-72 116h42l56 -83l57 83h42l-72 -116h-53z" />
    <glyph glyph-name="Sacute" unicode="&#x15a;" horiz-adv-x="592" 
d="M50 97l26 29q85 -98 218 -98q49 0 93 12.5t78.5 47t34.5 85.5q0 27 -11.5 48.5t-27.5 35t-45 26t-50.5 19t-58.5 15.5q-115 30 -155 53q-71 41 -71 119q0 75 65 122t150 47q115 0 208 -75l-25 -30q-80 67 -183 67q-63 0 -118 -34t-55 -96q0 -21 6.5 -38t23.5 -30.5
t29 -21.5t42 -18t42.5 -13.5t49.5 -12.5q44 -11 68 -18.5t59 -23t53 -32.5t32 -45t14 -64q0 -87 -73.5 -135t-173.5 -48q-147 0 -245 107zM268 704l72 116h53l-83 -116h-42z" />
    <glyph glyph-name="sacute" unicode="&#x15b;" horiz-adv-x="458" 
d="M45 70l25 28q59 -72 155 -72q67 0 108 29.5t41 72.5q0 23 -11 40.5t-34 29t-42.5 18t-52.5 14.5q-36 9 -51.5 13t-44 15.5t-40.5 23t-23 32t-11 46.5q0 56 49.5 92t111.5 36q89 0 158 -57l-24 -27q-58 48 -131 48q-51 0 -87.5 -27t-36.5 -65q0 -18 8.5 -32t19 -22.5
t33 -17t35.5 -11.5t42 -10q33 -8 51.5 -13.5t44.5 -17t40 -24.5t24.5 -34t10.5 -48q0 -65 -54.5 -102.5t-131.5 -37.5q-111 0 -182 80zM197 563l72 116h53l-83 -116h-42z" />
    <glyph glyph-name="Scircumflex" unicode="&#x15c;" horiz-adv-x="592" 
d="M50 97l26 29q85 -98 218 -98q49 0 93 12.5t78.5 47t34.5 85.5q0 27 -11.5 48.5t-27.5 35t-45 26t-50.5 19t-58.5 15.5q-115 30 -155 53q-71 41 -71 119q0 75 65 122t150 47q115 0 208 -75l-25 -30q-80 67 -183 67q-63 0 -118 -34t-55 -96q0 -21 6.5 -38t23.5 -30.5
t29 -21.5t42 -18t42.5 -13.5t49.5 -12.5q44 -11 68 -18.5t59 -23t53 -32.5t32 -45t14 -64q0 -87 -73.5 -135t-173.5 -48q-147 0 -245 107zM202 704l72 116h53l72 -116h-42l-57 83l-56 -83h-42z" />
    <glyph glyph-name="scircumflex" unicode="&#x15d;" horiz-adv-x="458" 
d="M45 70l25 28q59 -72 155 -72q67 0 108 29.5t41 72.5q0 23 -11 40.5t-34 29t-42.5 18t-52.5 14.5q-36 9 -51.5 13t-44 15.5t-40.5 23t-23 32t-11 46.5q0 56 49.5 92t111.5 36q89 0 158 -57l-24 -27q-58 48 -131 48q-51 0 -87.5 -27t-36.5 -65q0 -18 8.5 -32t19 -22.5
t33 -17t35.5 -11.5t42 -10q33 -8 51.5 -13.5t44.5 -17t40 -24.5t24.5 -34t10.5 -48q0 -65 -54.5 -102.5t-131.5 -37.5q-111 0 -182 80zM131 553l72 116h53l72 -116h-42l-57 83l-56 -83h-42z" />
    <glyph glyph-name="Scedilla" unicode="&#x15e;" horiz-adv-x="592" 
d="M216 -182l15 25q36 -24 85 -24q37 0 58.5 17t21.5 39q0 39 -53 39q-21 0 -42 -8.5t-31 -18.5l-27 13l53 90q-148 0 -246 107l26 29q85 -98 218 -98q49 0 93 12.5t78.5 47t34.5 85.5q0 27 -11.5 48.5t-27.5 35t-45 26t-50.5 19t-58.5 15.5q-115 30 -155 53q-71 41 -71 119
q0 75 65 122t150 47q115 0 208 -75l-25 -30q-80 67 -183 67q-63 0 -118 -34t-55 -96q0 -21 6.5 -38t23.5 -30.5t29 -21.5t42 -18t42.5 -13.5t49.5 -12.5q44 -11 68 -18.5t59 -23t53 -32.5t32 -45t14 -64q0 -80 -62 -127t-152 -54l-37 -64q24 13 56 13q34 0 58.5 -16
t24.5 -48q0 -40 -34.5 -63t-80.5 -23q-59 0 -99 27z" />
    <glyph glyph-name="scedilla" unicode="&#x15f;" horiz-adv-x="458" 
d="M146 -182l15 25q36 -24 85 -24q37 0 58.5 17t21.5 39q0 39 -53 39q-21 0 -42 -8.5t-31 -18.5l-27 13l53 90q-110 0 -181 80l25 28q59 -72 155 -72q67 0 108 29.5t41 72.5q0 23 -11 40.5t-34 29t-42.5 18t-52.5 14.5q-36 9 -51.5 13t-44 15.5t-40.5 23t-23 32t-11 46.5
q0 56 49.5 92t111.5 36q89 0 158 -57l-24 -27q-58 48 -131 48q-51 0 -87.5 -27t-36.5 -65q0 -18 8.5 -32t19 -22.5t33 -17t35.5 -11.5t42 -10q33 -8 51.5 -13.5t44.5 -17t40 -24.5t24.5 -34t10.5 -48q0 -58 -44 -94.5t-111 -43.5l-37 -64q24 13 56 13q34 0 58.5 -16
t24.5 -48q0 -40 -34.5 -63t-80.5 -23q-59 0 -99 27z" />
    <glyph glyph-name="Scaron" unicode="&#x160;" horiz-adv-x="592" 
d="M50 97l26 29q85 -98 218 -98q49 0 93 12.5t78.5 47t34.5 85.5q0 27 -11.5 48.5t-27.5 35t-45 26t-50.5 19t-58.5 15.5q-115 30 -155 53q-71 41 -71 119q0 75 65 122t150 47q115 0 208 -75l-25 -30q-80 67 -183 67q-63 0 -118 -34t-55 -96q0 -21 6.5 -38t23.5 -30.5
t29 -21.5t42 -18t42.5 -13.5t49.5 -12.5q44 -11 68 -18.5t59 -23t53 -32.5t32 -45t14 -64q0 -87 -73.5 -135t-173.5 -48q-147 0 -245 107zM273 704l-72 116h42l56 -83l57 83h42l-72 -116h-53z" />
    <glyph glyph-name="scaron" unicode="&#x161;" horiz-adv-x="458" 
d="M45 70l25 28q59 -72 155 -72q67 0 108 29.5t41 72.5q0 23 -11 40.5t-34 29t-42.5 18t-52.5 14.5q-36 9 -51.5 13t-44 15.5t-40.5 23t-23 32t-11 46.5q0 56 49.5 92t111.5 36q89 0 158 -57l-24 -27q-58 48 -131 48q-51 0 -87.5 -27t-36.5 -65q0 -18 8.5 -32t19 -22.5
t33 -17t35.5 -11.5t42 -10q33 -8 51.5 -13.5t44.5 -17t40 -24.5t24.5 -34t10.5 -48q0 -65 -54.5 -102.5t-131.5 -37.5q-111 0 -182 80zM203 553l-72 116h42l56 -83l57 83h42l-72 -116h-53z" />
    <glyph glyph-name="Tcommaaccent" unicode="&#x162;" horiz-adv-x="588" 
d="M274 0v610h-254v38h548v-38h-254v-610h-40zM218 -235q62 62 62 147q0 15 -2 26l39 13q3 -18 3 -34q0 -54 -22 -94t-47 -58h-33z" />
    <glyph glyph-name="tcommaaccent" unicode="&#x163;" horiz-adv-x="346" 
d="M88 149v293h-73v36h73v119h38v-119h185v-36h-185v-293q0 -123 86 -123q23 0 45.5 8t32.5 16l11 7l17 -31q-45 -36 -106 -36q-54 0 -89 36t-35 123zM118 -235q62 62 62 147q0 15 -2 26l39 13q3 -18 3 -34q0 -54 -22 -94t-47 -58h-33z" />
    <glyph glyph-name="Tcaron" unicode="&#x164;" horiz-adv-x="588" 
d="M274 0v610h-254v38h548v-38h-254v-610h-40zM267 704l-72 116h42l56 -83l57 83h42l-72 -116h-53z" />
    <glyph glyph-name="tcaron" unicode="&#x165;" horiz-adv-x="346" 
d="M88 149v293h-73v36h73v119h38v-119h185v-36h-185v-293q0 -123 86 -123q23 0 45.5 8t32.5 16l11 7l17 -31q-45 -36 -106 -36q-54 0 -89 36t-35 123zM181 516q58 48 58 112q0 11 -2 20l37 10q2 -20 2 -26q0 -41 -21 -72t-43 -44h-31z" />
    <glyph glyph-name="Tbar" unicode="&#x166;" horiz-adv-x="588" 
d="M274 0v361h-164v38h164v211h-254v38h548v-38h-254v-211h164v-38h-164v-361h-40z" />
    <glyph glyph-name="tbar" unicode="&#x167;" horiz-adv-x="346" 
d="M88 149v122h-50v35h50v136h-73v36h73v119h38v-119h185v-36h-185v-136h152v-35h-152v-122q0 -123 86 -123q23 0 45.5 8t32.5 16l11 7l18 -30q-50 -37 -107 -37q-54 0 -89 36t-35 123z" />
    <glyph glyph-name="Utilde" unicode="&#x168;" horiz-adv-x="662" 
d="M331 -10q-110 0 -185.5 71t-75.5 185v402h40v-405q0 -94 64 -155t157 -61t157 61t64 155v405h40v-402q0 -114 -75.5 -185t-185.5 -71zM223 699q0 34 16 58t42 24q21 0 53 -21.5t44 -21.5q13 0 20 12.5t7 30.5h33q0 -34 -16 -58t-42 -24q-20 0 -53 21.5t-44 21.5
q-13 0 -20 -12.5t-7 -30.5h-33z" />
    <glyph glyph-name="utilde" unicode="&#x169;" horiz-adv-x="510" 
d="M60 166v312h38v-301q0 -151 147 -151q65 0 111 46.5t46 117.5v288h38v-478h-38v81q-50 -91 -162 -91q-82 0 -131 46.5t-49 129.5zM147 564q0 34 16 58t42 24q20 0 52.5 -21.5t44.5 -21.5q13 0 20 12.5t7 30.5h33q0 -34 -16 -58t-42 -24q-20 0 -53 21.5t-44 21.5
q-13 0 -20 -12.5t-7 -30.5h-33z" />
    <glyph glyph-name="Umacron" unicode="&#x16a;" horiz-adv-x="662" 
d="M331 -10q-110 0 -185.5 71t-75.5 185v402h40v-405q0 -94 64 -155t157 -61t157 61t64 155v405h40v-402q0 -114 -75.5 -185t-185.5 -71zM243 714v35h176v-35h-176z" />
    <glyph glyph-name="umacron" unicode="&#x16b;" horiz-adv-x="510" 
d="M60 166v312h38v-301q0 -151 147 -151q65 0 111 46.5t46 117.5v288h38v-478h-38v81q-50 -91 -162 -91q-82 0 -131 46.5t-49 129.5zM167 574v35h176v-35h-176z" />
    <glyph glyph-name="Ubreve" unicode="&#x16c;" horiz-adv-x="662" 
d="M331 -10q-110 0 -185.5 71t-75.5 185v402h40v-405q0 -94 64 -155t157 -61t157 61t64 155v405h40v-402q0 -114 -75.5 -185t-185.5 -71zM331 699q-39 0 -63.5 26t-24.5 64h30q8 -52 58 -52t58 52h30q0 -38 -24.5 -64t-63.5 -26z" />
    <glyph glyph-name="ubreve" unicode="&#x16d;" horiz-adv-x="510" 
d="M60 166v312h38v-301q0 -151 147 -151q65 0 111 46.5t46 117.5v288h38v-478h-38v81q-50 -91 -162 -91q-82 0 -131 46.5t-49 129.5zM255 553q-39 0 -63.5 26t-24.5 64h30q8 -52 58 -52t58 52h30q0 -38 -24.5 -64t-63.5 -26z" />
    <glyph glyph-name="Uring" unicode="&#x16e;" horiz-adv-x="662" 
d="M331 -10q-110 0 -185.5 71t-75.5 185v402h40v-405q0 -94 64 -155t157 -61t157 61t64 155v405h40v-402q0 -114 -75.5 -185t-185.5 -71zM238 777q0 38 27.5 65.5t65.5 27.5t65.5 -27.5t27.5 -65.5t-27.5 -65.5t-65.5 -27.5t-65.5 27.5t-27.5 65.5zM272 777q0 -26 17 -44.5
t42 -18.5t42 18.5t17 44.5t-17 44.5t-42 18.5t-42 -18.5t-17 -44.5z" />
    <glyph glyph-name="uring" unicode="&#x16f;" horiz-adv-x="510" 
d="M60 166v312h38v-301q0 -151 147 -151q65 0 111 46.5t46 117.5v288h38v-478h-38v81q-50 -91 -162 -91q-82 0 -131 46.5t-49 129.5zM162 617q0 38 27.5 65.5t65.5 27.5t65.5 -27.5t27.5 -65.5t-27.5 -65.5t-65.5 -27.5t-65.5 27.5t-27.5 65.5zM196 617q0 -26 17 -44.5
t42 -18.5t42 18.5t17 44.5t-17 44.5t-42 18.5t-42 -18.5t-17 -44.5z" />
    <glyph glyph-name="Uhungarumlaut" unicode="&#x170;" horiz-adv-x="662" 
d="M331 -10q-110 0 -185.5 71t-75.5 185v402h40v-405q0 -94 64 -155t157 -61t157 61t64 155v405h40v-402q0 -114 -75.5 -185t-185.5 -71zM248 699l72 116h53l-83 -116h-42zM348 699l72 116h53l-83 -116h-42z" />
    <glyph glyph-name="uhungarumlaut" unicode="&#x171;" horiz-adv-x="510" 
d="M60 166v312h38v-301q0 -151 147 -151q65 0 111 46.5t46 117.5v288h38v-478h-38v81q-50 -91 -162 -91q-82 0 -131 46.5t-49 129.5zM162 553l72 116h53l-83 -116h-42zM262 553l72 116h53l-83 -116h-42z" />
    <glyph glyph-name="Uogonek" unicode="&#x172;" horiz-adv-x="662" 
d="M307 -128q0 66 48 119q-4 0 -12 -0.5t-12 -0.5q-110 0 -185.5 71t-75.5 185v402h40v-405q0 -94 64 -155t157 -61t157 61t64 155v405h40v-402q0 -94 -53.5 -160.5t-138.5 -87.5q-23 -22 -38 -56.5t-15 -65.5q0 -26 15.5 -42t40.5 -16q22 0 45 13l15 -30q-27 -21 -62 -21
q-38 0 -66 24.5t-28 67.5z" />
    <glyph glyph-name="uogonek" unicode="&#x173;" horiz-adv-x="510" 
d="M339 -128q0 78 63 133v76q-50 -91 -162 -91q-82 0 -131 46.5t-49 129.5v312h38v-301q0 -151 147 -151q65 0 111 46.5t46 117.5v288h38v-478h-6q-23 -22 -39 -57.5t-16 -66.5q0 -26 15.5 -42t40.5 -16q22 0 45 13l15 -30q-27 -21 -62 -21q-38 0 -66 24.5t-28 67.5z" />
    <glyph glyph-name="Wcircumflex" unicode="&#x174;" horiz-adv-x="926" 
d="M239 -5l-229 653h41l181 -518l21 -65q11 41 19 65l172 518h38l171 -518l20 -65l21 65l182 518h40l-229 -653h-29l-174 525l-21 71q-9 -34 -21 -71l-174 -525h-29zM364 704l72 116h53l72 -116h-42l-57 83l-56 -83h-42z" />
    <glyph glyph-name="wcircumflex" unicode="&#x175;" horiz-adv-x="698" 
d="M176 -5l-171 483h38l134 -378l15 -47q6 23 14 47l124 378h38l124 -378l14 -47q7 23 16 47l133 378h38l-171 -483h-34l-125 381l-14 48q-7 -26 -14 -48l-125 -381h-34zM250 553l72 116h53l72 -116h-42l-57 83l-56 -83h-42z" />
    <glyph glyph-name="Ycircumflex" unicode="&#x176;" horiz-adv-x="607" 
d="M284 0v316l-274 332h49l170 -203l75 -95l76 95l168 203h49l-273 -331v-317h-40zM205 704l72 116h53l72 -116h-42l-57 83l-56 -83h-42z" />
    <glyph glyph-name="ycircumflex" unicode="&#x177;" horiz-adv-x="515" 
d="M110 -147v36q43 0 70 18.5t56 81.5l11 24l-232 465h43l174 -352l34 -74l34 76l158 350h42l-230 -504q-19 -42 -38.5 -67.5t-41.5 -36.5t-38.5 -14t-41.5 -3zM159 553l72 116h53l72 -116h-42l-57 83l-56 -83h-42z" />
    <glyph glyph-name="Ydieresis" unicode="&#x178;" horiz-adv-x="607" 
d="M284 0v316l-274 332h49l170 -203l75 -95l76 95l168 203h49l-273 -331v-317h-40zM205 730q0 14 9.5 23.5t23.5 9.5q13 0 22 -9.5t9 -23.5q0 -13 -9 -22t-22 -9q-14 0 -23.5 9t-9.5 22zM340 730q0 14 9.5 23.5t23.5 9.5q13 0 22 -9.5t9 -23.5q0 -13 -9 -22t-22 -9
q-14 0 -23.5 9t-9.5 22z" />
    <glyph glyph-name="Zacute" unicode="&#x179;" horiz-adv-x="602" 
d="M40 0v40l429 528l38 42h-447v38h492v-40l-430 -530l-36 -40h476v-38h-522zM268 704l72 116h53l-83 -116h-42z" />
    <glyph glyph-name="zacute" unicode="&#x17a;" horiz-adv-x="453" 
d="M30 0v36l285 342l56 64h-331v36h374v-36l-284 -341l-57 -65h350v-36h-393zM194 563l72 116h53l-83 -116h-42z" />
    <glyph glyph-name="Zdotaccent" unicode="&#x17b;" horiz-adv-x="602" 
d="M40 0v40l429 528l38 42h-447v38h492v-40l-430 -530l-36 -40h476v-38h-522zM270 730q0 13 9 22t22 9t22 -9t9 -22t-9 -22t-22 -9t-22 9t-9 22z" />
    <glyph glyph-name="zdotaccent" unicode="&#x17c;" horiz-adv-x="453" 
d="M30 0v36l285 342l56 64h-331v36h374v-36l-284 -341l-57 -65h350v-36h-393zM195 621q0 13 9 22t22 9t22 -9t9 -22t-9 -22t-22 -9t-22 9t-9 22z" />
    <glyph glyph-name="Zcaron" unicode="&#x17d;" horiz-adv-x="602" 
d="M40 0v40l429 528l38 42h-447v38h492v-40l-430 -530l-36 -40h476v-38h-522zM275 704l-72 116h42l56 -83l57 83h42l-72 -116h-53z" />
    <glyph glyph-name="zcaron" unicode="&#x17e;" horiz-adv-x="453" 
d="M30 0v36l285 342l56 64h-331v36h374v-36l-284 -341l-57 -65h350v-36h-393zM200 553l-72 116h42l56 -83l57 83h42l-72 -116h-53z" />
    <glyph glyph-name="florin" unicode="&#x192;" 
d="M-5 -59l22 28q37 -35 83 -35q65 0 87 85l94 345h-81l10 37h81l45 162q26 94 110 94q20 0 38 -6t26 -12l8 -6l-9 -34q-33 20 -63 20q-33 0 -49.5 -20.5t-26.5 -57.5l-38 -140h133l-10 -37h-132l-98 -355q-13 -50 -43 -81.5t-77 -31.5q-58 0 -110 45z" />
    <glyph glyph-name="Aringacute" unicode="&#x1fa;" horiz-adv-x="686" 
d="M10 0l322 648h22l322 -648h-42l-70 141h-442l-70 -141h-42zM140 178h405l-148 300q-37 73 -54 115q-1 -1 -8.5 -18.5t-21 -46t-24.5 -51.5zM250 767q0 27 15.5 50.5t39.5 34.5l67 107h53l-71 -100q35 -4 58.5 -30.5t23.5 -61.5q0 -38 -27.5 -65.5t-65.5 -27.5t-65.5 27.5
t-27.5 65.5zM284 767q0 -26 17 -44.5t42 -18.5t42 18.5t17 44.5t-17 44.5t-42 18.5t-42 -18.5t-17 -44.5z" />
    <glyph glyph-name="aringacute" unicode="&#x1fb;" horiz-adv-x="587" 
d="M45 239q0 103 69.5 176t167.5 73q65 0 116.5 -32.5t80.5 -89.5v112h38v-478h-38v112q-29 -57 -80.5 -89.5t-116.5 -32.5q-98 0 -167.5 73t-69.5 176zM85 239q0 -88 57 -150.5t140 -62.5q82 0 139.5 61t57.5 152q0 88 -57 150.5t-140 62.5t-140 -62.5t-57 -150.5zM194 637
q0 27 15.5 50.5t39.5 34.5l67 107h53l-71 -100q35 -4 58.5 -30.5t23.5 -61.5q0 -38 -27.5 -65.5t-65.5 -27.5t-65.5 27.5t-27.5 65.5zM228 637q0 -26 17 -44.5t42 -18.5t42 18.5t17 44.5t-17 44.5t-42 18.5t-42 -18.5t-17 -44.5z" />
    <glyph glyph-name="AEacute" unicode="&#x1fc;" horiz-adv-x="921" 
d="M10 0l436 648h421v-38h-366v-238h336v-38h-336v-296h380v-38h-420v141h-311l-93 -141h-47zM177 178h284v426l-53 -81zM553 704l72 116h53l-83 -116h-42z" />
    <glyph glyph-name="aeacute" unicode="&#x1fd;" horiz-adv-x="916" 
d="M45 125q0 44 20.5 75.5t56.5 48t75.5 24t85.5 7.5q55 0 143 -5q0 85 -44 131t-118 46q-49 0 -89.5 -11t-56.5 -23l-16 -11l-21 29q7 6 20 14.5t60.5 23t102.5 14.5q151 0 191 -128q31 58 85.5 93t118.5 35q94 0 161.5 -73t67.5 -174l-1 -19h-421q7 -83 65.5 -139.5
t139.5 -56.5q95 0 158 71l26 -25q-77 -82 -184 -82q-73 0 -133 39.5t-90 104.5q-26 -71 -92 -107.5t-147 -36.5q-69 0 -116.5 35t-47.5 100zM85 125q0 -49 35 -74.5t89 -25.5q101 0 160 55t59 151v11q-36 2 -145 2q-53 0 -94.5 -9.5t-72.5 -37t-31 -72.5zM466 258h381
q-6 81 -60 137.5t-128 56.5q-75 0 -130.5 -56.5t-62.5 -137.5zM405 563l72 116h53l-83 -116h-42z" />
    <glyph glyph-name="Oslashacute" unicode="&#x1fe;" horiz-adv-x="768" 
d="M354 704l72 116h53l-83 -116h-42zM50 324q0 138 98 236t236 98q84 0 156 -39l56 93l32 -19l-56 -93q67 -46 106.5 -119t39.5 -157q0 -138 -98 -236t-236 -98q-82 0 -156 38l-56 -94l-32 19l57 94q-68 46 -107.5 119t-39.5 158zM92 324q0 -75 33.5 -139t91.5 -104l303 505
q-62 34 -136 34q-121 0 -206.5 -87t-85.5 -209zM248 61q64 -33 136 -33q121 0 206.5 87t85.5 209q0 74 -33.5 138t-90.5 104z" />
    <glyph glyph-name="oslashacute" unicode="&#x1ff;" horiz-adv-x="588" 
d="M263 563l72 116h53l-83 -116h-42zM45 239q0 103 73 176t176 73q57 0 111 -27l46 77l30 -18l-46 -76q50 -34 79 -88.5t29 -116.5q0 -103 -73 -176t-176 -73q-59 0 -113 27l-44 -73l-30 18l44 73q-49 34 -77.5 88t-28.5 116zM199 48q44 -22 95 -22q87 0 148 62.5t61 150.5
q0 51 -23.5 97.5t-63.5 75.5zM85 239q0 -108 85 -172l216 363q-42 22 -92 22q-87 0 -148 -62.5t-61 -150.5z" />
    <glyph glyph-name="Scommaaccent" unicode="&#x218;" horiz-adv-x="592" 
d="M50 97l26 29q85 -98 218 -98q49 0 93 12.5t78.5 47t34.5 85.5q0 27 -11.5 48.5t-27.5 35t-45 26t-50.5 19t-58.5 15.5q-115 30 -155 53q-71 41 -71 119q0 75 65 122t150 47q115 0 208 -75l-25 -30q-80 67 -183 67q-63 0 -118 -34t-55 -96q0 -21 6.5 -38t23.5 -30.5
t29 -21.5t42 -18t42.5 -13.5t49.5 -12.5q44 -11 68 -18.5t59 -23t53 -32.5t32 -45t14 -64q0 -87 -73.5 -135t-173.5 -48q-147 0 -245 107zM229 -235q62 62 62 147q0 15 -2 26l39 13q3 -18 3 -34q0 -54 -22 -94t-47 -58h-33z" />
    <glyph glyph-name="scommaaccent" unicode="&#x219;" horiz-adv-x="458" 
d="M45 70l25 28q59 -72 155 -72q67 0 108 29.5t41 72.5q0 23 -11 40.5t-34 29t-42.5 18t-52.5 14.5q-36 9 -51.5 13t-44 15.5t-40.5 23t-23 32t-11 46.5q0 56 49.5 92t111.5 36q89 0 158 -57l-24 -27q-58 48 -131 48q-51 0 -87.5 -27t-36.5 -65q0 -18 8.5 -32t19 -22.5
t33 -17t35.5 -11.5t42 -10q33 -8 51.5 -13.5t44.5 -17t40 -24.5t24.5 -34t10.5 -48q0 -65 -54.5 -102.5t-131.5 -37.5q-111 0 -182 80zM158 -235q62 62 62 147q0 15 -2 26l39 13q3 -18 3 -34q0 -54 -22 -94t-47 -58h-33z" />
    <glyph glyph-name="circumflex" unicode="&#x2c6;" horiz-adv-x="300" 
d="M52 553l72 116h53l72 -116h-42l-57 83l-56 -83h-42z" />
    <glyph glyph-name="caron" unicode="&#x2c7;" horiz-adv-x="300" 
d="M123 553l-72 116h42l56 -83l57 83h42l-72 -116h-53z" />
    <glyph glyph-name="breve" unicode="&#x2d8;" horiz-adv-x="300" 
d="M150 553q-39 0 -63.5 26t-24.5 64h30q8 -52 58 -52t58 52h30q0 -38 -24.5 -64t-63.5 -26z" />
    <glyph glyph-name="dotaccent" unicode="&#x2d9;" horiz-adv-x="300" 
d="M119 621q0 13 9 22t22 9t22 -9t9 -22t-9 -22t-22 -9t-22 9t-9 22z" />
    <glyph glyph-name="ring" unicode="&#x2da;" horiz-adv-x="300" 
d="M57 617q0 38 27.5 65.5t65.5 27.5t65.5 -27.5t27.5 -65.5t-27.5 -65.5t-65.5 -27.5t-65.5 27.5t-27.5 65.5zM91 617q0 -26 17 -44.5t42 -18.5t42 18.5t17 44.5t-17 44.5t-42 18.5t-42 -18.5t-17 -44.5z" />
    <glyph glyph-name="ogonek" unicode="&#x2db;" horiz-adv-x="300" 
d="M72 -128q0 78 63 133h38q-26 -21 -43.5 -58.5t-17.5 -70.5q0 -26 16 -42t40 -16q22 0 45 13l15 -30q-27 -21 -62 -21q-38 0 -66 24.5t-28 67.5z" />
    <glyph glyph-name="tilde" unicode="&#x2dc;" horiz-adv-x="300" 
d="M42 564q0 34 16 58t42 24q20 0 53 -21.5t44 -21.5q13 0 20 12.5t7 30.5h33q0 -34 -16 -58t-42 -24q-21 0 -53.5 21.5t-43.5 21.5q-13 0 -20 -12.5t-7 -30.5h-33z" />
    <glyph glyph-name="hungarumlaut" unicode="&#x2dd;" horiz-adv-x="300" 
d="M37 553l72 116h53l-83 -116h-42zM137 553l72 116h53l-83 -116h-42z" />
    <glyph glyph-name="pi" unicode="&#x3c0;" horiz-adv-x="748" 
d="M40 324q0 138 98 236t236 98t236 -98t98 -236t-98 -236t-236 -98t-236 98t-98 236zM236 127v392h177q66 0 112 -46.5t46 -111.5q0 -67 -46 -112.5t-112 -45.5h-137v-76h-40zM276 243h137q49 0 82.5 34t33.5 84q0 49 -33.5 83.5t-82.5 34.5h-137v-236zM68 324
q0 -128 89.5 -218.5t216.5 -90.5t216.5 90.5t89.5 218.5t-89.5 218.5t-216.5 90.5t-216.5 -90.5t-89.5 -218.5z" />
    <glyph glyph-name="Wgrave" unicode="&#x1e80;" horiz-adv-x="926" 
d="M239 -5l-229 653h41l181 -518l21 -65q11 41 19 65l172 518h38l171 -518l20 -65l21 65l182 518h40l-229 -653h-29l-174 525l-21 71q-9 -34 -21 -71l-174 -525h-29zM446 704l-83 116h53l72 -116h-42z" />
    <glyph glyph-name="wgrave" unicode="&#x1e81;" horiz-adv-x="698" 
d="M176 -5l-171 483h38l134 -378l15 -47q6 23 14 47l124 378h38l124 -378l14 -47q7 23 16 47l133 378h38l-171 -483h-34l-125 381l-14 48q-7 -26 -14 -48l-125 -381h-34zM339 563l-83 116h53l72 -116h-42z" />
    <glyph glyph-name="Wacute" unicode="&#x1e82;" horiz-adv-x="926" 
d="M239 -5l-229 653h41l181 -518l21 -65q11 41 19 65l172 518h38l171 -518l20 -65l21 65l182 518h40l-229 -653h-29l-174 525l-21 71q-9 -34 -21 -71l-174 -525h-29zM433 704l72 116h53l-83 -116h-42z" />
    <glyph glyph-name="wacute" unicode="&#x1e83;" horiz-adv-x="698" 
d="M176 -5l-171 483h38l134 -378l15 -47q6 23 14 47l124 378h38l124 -378l14 -47q7 23 16 47l133 378h38l-171 -483h-34l-125 381l-14 48q-7 -26 -14 -48l-125 -381h-34zM318 563l72 116h53l-83 -116h-42z" />
    <glyph glyph-name="Wdieresis" unicode="&#x1e84;" horiz-adv-x="926" 
d="M239 -5l-229 653h41l181 -518l21 -65q11 41 19 65l172 518h38l171 -518l20 -65l21 65l182 518h40l-229 -653h-29l-174 525l-21 71q-9 -34 -21 -71l-174 -525h-29zM363 745q0 14 9.5 23.5t23.5 9.5q13 0 22 -9.5t9 -23.5q0 -13 -9 -22t-22 -9q-14 0 -23.5 9t-9.5 22z
M498 745q0 14 9.5 23.5t23.5 9.5q13 0 22 -9.5t9 -23.5q0 -13 -9 -22t-22 -9q-14 0 -23.5 9t-9.5 22z" />
    <glyph glyph-name="wdieresis" unicode="&#x1e85;" horiz-adv-x="698" 
d="M176 -5l-171 483h38l134 -378l15 -47q6 23 14 47l124 378h38l124 -378l14 -47q7 23 16 47l133 378h38l-171 -483h-34l-125 381l-14 48q-7 -26 -14 -48l-125 -381h-34zM249 603q0 14 9.5 23.5t23.5 9.5q13 0 22 -9.5t9 -23.5q0 -13 -9 -22t-22 -9q-14 0 -23.5 9t-9.5 22z
M384 603q0 14 9.5 23.5t23.5 9.5q13 0 22 -9.5t9 -23.5q0 -13 -9 -22t-22 -9q-14 0 -23.5 9t-9.5 22z" />
    <glyph glyph-name="Ygrave" unicode="&#x1ef2;" horiz-adv-x="607" 
d="M284 0v316l-274 332h49l170 -203l75 -95l76 95l168 203h49l-273 -331v-317h-40zM293 704l-83 116h53l72 -116h-42z" />
    <glyph glyph-name="ygrave" unicode="&#x1ef3;" horiz-adv-x="515" 
d="M110 -147v36q43 0 70 18.5t56 81.5l11 24l-232 465h43l174 -352l34 -74l34 76l158 350h42l-230 -504q-19 -42 -38.5 -67.5t-41.5 -36.5t-38.5 -14t-41.5 -3zM248 563l-83 116h53l72 -116h-42z" />
    <glyph glyph-name="endash" unicode="&#x2013;" horiz-adv-x="578" 
d="M20 211v40h538v-40h-538z" />
    <glyph glyph-name="emdash" unicode="&#x2014;" horiz-adv-x="700" 
d="M20 211v40h660v-40h-660z" />
    <glyph glyph-name="quoteleft" unicode="&#x2018;" horiz-adv-x="165" 
d="M35 448l53 200h42l-42 -200h-53z" />
    <glyph glyph-name="quoteright" unicode="&#x2019;" horiz-adv-x="165" 
d="M35 448l42 200h53l-53 -200h-42z" />
    <glyph glyph-name="quotesinglbase" unicode="&#x201a;" horiz-adv-x="165" 
d="M35 -137l42 200h53l-53 -200h-42z" />
    <glyph glyph-name="quotedblleft" unicode="&#x201c;" horiz-adv-x="283" 
d="M35 448l53 200h42l-42 -200h-53zM153 448l53 200h42l-42 -200h-53z" />
    <glyph glyph-name="quotedblright" unicode="&#x201d;" horiz-adv-x="283" 
d="M35 448l42 200h53l-53 -200h-42zM153 448l42 200h53l-53 -200h-42z" />
    <glyph glyph-name="quotedblbase" unicode="&#x201e;" horiz-adv-x="283" 
d="M35 -137l42 200h53l-53 -200h-42zM153 -137l42 200h53l-53 -200h-42z" />
    <glyph glyph-name="dagger" unicode="&#x2020;" horiz-adv-x="416" 
d="M185 155v344h-145v38h145v177h40v-177h146v-38h-146v-344h-40z" />
    <glyph glyph-name="daggerdbl" unicode="&#x2021;" horiz-adv-x="416" 
d="M185 30v206h-145v38h145v225h-145v38h145v177h40v-177h146v-38h-146v-225h146v-38h-146v-206h-40z" />
    <glyph glyph-name="bullet" unicode="&#x2022;" horiz-adv-x="348" 
d="M60 271q0 47 33.5 80.5t80.5 33.5t80.5 -33.5t33.5 -80.5t-33.5 -80.5t-80.5 -33.5t-80.5 33.5t-33.5 80.5z" />
    <glyph glyph-name="ellipsis" unicode="&#x2026;" horiz-adv-x="609" 
d="M43 29q0 17 11.5 28t27.5 11t27.5 -11t11.5 -28t-11.5 -28t-27.5 -11t-27.5 11t-11.5 28zM266 29q0 17 11 28t28 11t28 -11t11 -28t-11 -28t-28 -11t-28 11t-11 28zM487 29q0 17 11.5 28t27.5 11t27.5 -11t11.5 -28t-11.5 -28t-27.5 -11t-27.5 11t-11.5 28z" />
    <glyph glyph-name="perthousand" unicode="&#x2030;" horiz-adv-x="1153" 
d="M88 460q0 -70 29 -115.5t76 -45.5t76 45.5t29 115.5t-29 116t-76 46t-76 -46t-29 -116zM50 460q0 87 40.5 142.5t102.5 55.5t102.5 -55.5t40.5 -142.5q0 -86 -40.5 -141.5t-102.5 -55.5t-102.5 55.5t-40.5 141.5zM512 187q0 -70 29 -115.5t76 -45.5t76 45.5t29 115.5
q0 71 -29 116.5t-76 45.5t-76 -45.5t-29 -116.5zM474 187q0 87 40.5 142.5t102.5 55.5t102.5 -55.5t40.5 -142.5q0 -86 -40.5 -141.5t-102.5 -55.5t-102.5 55.5t-40.5 141.5zM855 187q0 -70 29 -115.5t76 -45.5t76 45.5t29 115.5q0 71 -29 116.5t-76 45.5t-76 -45.5
t-29 -116.5zM817 187q0 87 40.5 142.5t102.5 55.5t102.5 -55.5t40.5 -142.5q0 -86 -40.5 -141.5t-102.5 -55.5t-102.5 55.5t-40.5 141.5zM190 0l400 666l31 -18l-400 -666z" />
    <glyph glyph-name="guilsinglleft" unicode="&#x2039;" horiz-adv-x="266" 
d="M37 227v30l166 162l24 -24l-151 -153l151 -153l-24 -24z" />
    <glyph glyph-name="guilsinglright" unicode="&#x203a;" horiz-adv-x="266" 
d="M63 65l-24 24l151 153l-151 153l24 24l166 -162v-30z" />
    <glyph glyph-name="fraction" unicode="&#x2044;" horiz-adv-x="471" 
d="M33 0l400 666l31 -18l-400 -666z" />
    <glyph glyph-name="zerosuperior" unicode="&#x2070;" horiz-adv-x="440" 
d="M90 523q0 -87 36.5 -143t93.5 -56t93.5 56t36.5 143t-36.5 143t-93.5 56t-93.5 -56t-36.5 -143zM50 523q0 103 48 169t122 66t122 -66t48 -169t-48 -169t-122 -66t-122 66t-48 169z" />
    <glyph glyph-name="foursuperior" unicode="&#x2074;" horiz-adv-x="384" 
d="M255 293v99h-214v33l196 332l31 -17l-184 -312h171v119h38v-119h56v-36h-56v-99h-38z" />
    <glyph glyph-name="fivesuperior" unicode="&#x2075;" horiz-adv-x="365" 
d="M34 324l20 31q45 -39 117 -39q57 0 90.5 33t33.5 78q0 53 -35 83t-85 30q-56 0 -105 -34l-24 19v223h265v-36h-228v-158q42 21 95 21q63 0 109.5 -40.5t46.5 -107.5q0 -60 -44 -103.5t-122 -43.5q-81 0 -134 44z" />
    <glyph glyph-name="sixsuperior" unicode="&#x2076;" horiz-adv-x="414" 
d="M45 449q0 60 46 113l173 196l26 -24l-111 -126q19 3 27 3q68 0 115.5 -47.5t47.5 -114.5t-48 -114.5t-115 -47.5t-114 47.5t-47 114.5zM85 449q0 -52 35 -89t86 -37q52 0 87.5 37t35.5 89t-35.5 89t-87.5 37q-51 0 -86 -37t-35 -89z" />
    <glyph glyph-name="sevensuperior" unicode="&#x2077;" horiz-adv-x="341" 
d="M57 293l225 419h-259v36h303v-34l-227 -421h-42z" />
    <glyph glyph-name="eightsuperior" unicode="&#x2078;" horiz-adv-x="414" 
d="M43 434q0 44 24.5 81t63.5 52q-47 35 -47 84q0 46 35 75.5t87 29.5t87 -29.5t35 -75.5q0 -49 -47 -84q39 -15 63.5 -52t24.5 -81q0 -65 -45.5 -106t-117.5 -41t-117.5 41t-45.5 106zM83 434q0 -50 34 -81t89 -31t89 31t34 81t-32 80.5t-91 30.5t-91 -30.5t-32 -80.5z
M124 651q0 -30 22.5 -50.5t59.5 -20.5t59.5 20.5t22.5 50.5q0 31 -23.5 50.5t-58.5 19.5t-58.5 -19.5t-23.5 -50.5z" />
    <glyph glyph-name="ninesuperior" unicode="&#x2079;" horiz-adv-x="414" 
d="M124 308l111 126q-15 -3 -27 -3q-68 0 -115.5 47.5t-47.5 114.5t48 114.5t115 47.5t114 -47.5t47 -114.5q0 -60 -46 -113l-173 -196zM85 593q0 -52 35.5 -89t87.5 -37q51 0 86 37t35 89t-35 89t-86 37q-52 0 -87.5 -37t-35.5 -89z" />
    <glyph glyph-name="n.sups" unicode="&#x207f;" horiz-adv-x="370" 
d="M60 331v315h38v-39q35 46 102 46q55 0 87.5 -31.5t32.5 -86.5v-204h-37v197q0 88 -87 88q-38 0 -68 -27.5t-30 -68.5v-189h-38z" />
    <glyph glyph-name="zeroinferior" unicode="&#x2080;" horiz-adv-x="440" 
d="M90 120q0 -87 36.5 -143t93.5 -56t93.5 56t36.5 143t-36.5 143t-93.5 56t-93.5 -56t-36.5 -143zM50 120q0 103 48 169t122 66t122 -66t48 -169t-48 -169t-122 -66t-122 66t-48 169z" />
    <glyph glyph-name="oneinferior" unicode="&#x2081;" horiz-adv-x="286" 
d="M154 -110v399l-114 -87l-20 28l142 115h30v-455h-38z" />
    <glyph glyph-name="twoinferior" unicode="&#x2082;" horiz-adv-x="372" 
d="M25 -110v31q155 129 198 176q65 70 65 124q0 40 -28 67t-77 27q-74 0 -128 -58l-24 27q63 67 152 67q68 0 106.5 -36.5t38.5 -93.5q0 -35 -14 -66.5t-52.5 -72t-70 -68.5t-102.5 -88h246v-36h-310z" />
    <glyph glyph-name="threeinferior" unicode="&#x2083;" horiz-adv-x="375" 
d="M20 -65l24 26q41 -41 119 -41q58 0 92 35.5t34 81.5q0 43 -30 73.5t-85 30.5q-38 0 -66 -18l-18 25l169 162h-224v36h274v-33l-138 -137h5q72 0 112.5 -42t40.5 -99q0 -60 -46 -105.5t-122 -45.5q-94 0 -141 51z" />
    <glyph glyph-name="fourinferior" unicode="&#x2084;" horiz-adv-x="384" 
d="M255 -110v99h-214v33l196 332l31 -17l-184 -312h171v119h38v-119h56v-36h-56v-99h-38z" />
    <glyph glyph-name="fiveinferior" unicode="&#x2085;" horiz-adv-x="365" 
d="M34 -79l20 31q45 -39 117 -39q57 0 90.5 33t33.5 78q0 53 -35 83t-85 30q-56 0 -105 -34l-24 19v223h265v-36h-228v-158q42 21 95 21q63 0 109.5 -40.5t46.5 -107.5q0 -60 -44 -103.5t-122 -43.5q-81 0 -134 44z" />
    <glyph glyph-name="sixinferior" unicode="&#x2086;" horiz-adv-x="414" 
d="M45 46q0 60 46 113l173 196l26 -24l-111 -126q19 3 27 3q68 0 115.5 -47.5t47.5 -114.5t-48 -114.5t-115 -47.5t-114 47.5t-47 114.5zM85 46q0 -52 35 -89t86 -37q52 0 87.5 37t35.5 89t-35.5 89t-87.5 37q-51 0 -86 -37t-35 -89z" />
    <glyph glyph-name="seveninferior" unicode="&#x2087;" horiz-adv-x="341" 
d="M57 -110l225 419h-259v36h303v-34l-227 -421h-42z" />
    <glyph glyph-name="eightinferior" unicode="&#x2088;" horiz-adv-x="414" 
d="M43 31q0 44 24.5 81t63.5 52q-47 35 -47 84q0 46 35 75.5t87 29.5t87 -29.5t35 -75.5q0 -49 -47 -84q39 -15 63.5 -52t24.5 -81q0 -65 -45.5 -106t-117.5 -41t-117.5 41t-45.5 106zM83 31q0 -50 34 -81t89 -31t89 31t34 81t-32 80.5t-91 30.5t-91 -30.5t-32 -80.5z
M124 248q0 -30 22.5 -50.5t59.5 -20.5t59.5 20.5t22.5 50.5q0 31 -23.5 50.5t-58.5 19.5t-58.5 -19.5t-23.5 -50.5z" />
    <glyph glyph-name="nineinferior" unicode="&#x2089;" horiz-adv-x="414" 
d="M124 -95l111 126q-15 -3 -27 -3q-68 0 -115.5 47.5t-47.5 114.5t48 114.5t115 47.5t114 -47.5t47 -114.5q0 -60 -46 -113l-173 -196zM85 190q0 -52 35.5 -89t87.5 -37q51 0 86 37t35 89t-35 89t-86 37q-52 0 -87.5 -37t-35.5 -89z" />
    <glyph glyph-name="Euro" unicode="&#x20ac;" 
d="M24 241l10 38h65q-1 19 -1 44l2 41h-66l10 38h59q19 115 89 185.5t169 70.5q115 0 188 -100l-26 -27q-67 89 -162 89q-81 0 -139 -60t-76 -158h276l-10 -38h-271q-2 -24 -2 -40l2 -45h254l-10 -38h-238q19 -97 76 -155t138 -58q104 0 174 106l30 -24q-75 -120 -204 -120
q-98 0 -167.5 68.5t-89.5 182.5h-80z" />
    <glyph glyph-name="trademark" unicode="&#x2122;" horiz-adv-x="778" 
d="M302 364v284h30l112 -112l112 112h30v-284h-40v217l-102 -99l-103 101v-219h-39zM122 364v246h-101v38h240v-38h-100v-246h-39z" />
    <glyph glyph-name="minus" unicode="&#x2212;" 
d="M64 236v36h431v-36h-431z" />
    <glyph glyph-name="approxequal" unicode="&#x2248;" 
d="M92 269q0 14 6 32t27 37.5t54 19.5q38 0 99.5 -32.5t97.5 -32.5q29 0 41.5 18.5t12.5 34.5h38q0 -26 -21.5 -57.5t-70.5 -31.5q-46 0 -106 32.5t-86 32.5q-29 0 -41.5 -18.5t-12.5 -34.5h-38zM92 129q0 14 6 32t27 37.5t54 19.5q38 0 99.5 -32.5t97.5 -32.5
q29 0 41.5 18.5t12.5 34.5h38q0 -26 -21.5 -57.5t-70.5 -31.5q-46 0 -106 32.5t-86 32.5q-29 0 -41.5 -18.5t-12.5 -34.5h-38z" />
    <glyph glyph-name="notequal" unicode="&#x2260;" 
d="M137 68l75 125h-148v36h169l49 82h-218v36h240l86 143l31 -18l-75 -125h149v-36h-171l-49 -82h220v-36h-241l-86 -143z" />
    <glyph glyph-name="lessequal" unicode="&#x2264;" 
d="M64 33v36h431v-36h-431zM64 274v32l431 158v-38q-17 -6 -127 -47.5t-173.5 -62.5t-95.5 -26q74 -23 226.5 -76.5t169.5 -59.5v-38z" />
    <glyph glyph-name="greaterequal" unicode="&#x2265;" 
d="M64 33v36h431v-36h-431zM64 116v38l331 117l65 19q-37 9 -65 19l-331 117v38l431 -158v-32z" />
    <glyph glyph-name="commainferior" unicode="&#xf6e1;" horiz-adv-x="145" 
d="M11 -182l28 140h49l-44 -140h-33z" />
    <glyph glyph-name="commasuperior" unicode="&#xf6e2;" horiz-adv-x="145" 
d="M11 221l28 140h49l-44 -140h-33z" />
    <glyph glyph-name="periodinferior" unicode="&#xf6e7;" horiz-adv-x="145" 
d="M30 -78q0 16 11 27t26 11q16 0 27 -11t11 -27q0 -15 -11 -26t-27 -11q-15 0 -26 11t-11 26z" />
    <glyph glyph-name="periodsuperior" unicode="&#xf6e8;" horiz-adv-x="145" 
d="M30 325q0 16 11 27t26 11q16 0 27 -11t11 -27q0 -15 -11 -26t-27 -11q-15 0 -26 11t-11 26z" />
    <glyph glyph-name="apple" unicode="&#xf8ff;" horiz-adv-x="805" 
d="M-2 -9q1 6 14 13.5t34.5 17t30.5 14.5q1 5 5 27q3 12 45 118q-16 2 -96 19q14 91 19 110q0 5 2 15t2 16v4q-3 3 -12 3.5t-11 1.5q0 16 9.5 45t10.5 41q4 13 13 41.5t14 44.5q80 18 96 19q0 15 -10 33q0 1 4.5 5.5t8 9t3.5 7.5t-2 4q-19 7 -35 7v4h37v71q88 3 99 4
q-5 -18 -14 -37l-8 -39q1 0 67 3l1 9q3 19 16 39l2 5q10 -2 32 -3t36 -4q5 -17 5 -31q0 -9 -1 -14l47 -7l33 4v8q0 64 -7 93q5 -1 22 -1q35 0 39 2q32 5 44 5q-1 -12 -4 -31t-5 -34t-2 -31v-8q6 -2 23.5 -3t23.5 -3q-4 -1 -19.5 -2.5t-21.5 -4.5l20 -35q-7 -19 -10 -42
q66 15 78 16q1 -2 1 -5q0 -4 -2.5 -14.5t-2.5 -16.5q7 -9 16 -26t15 -30l6 -12l28 -132q2 -1 3.5 -21.5t3 -54t2.5 -46.5l1 -9h-48q26 -50 47 -83l18 -26l-15 -11l28 -21q-4 -1 -11 -1q-8 0 -22.5 5t-20.5 6q0 -4 -1.5 -6t-2.5 -2.5t-4.5 -0.5h-5.5q-6 1 -12 19q-4 6 -5 11
q-6 10 -18.5 32.5t-22 40t-16.5 34.5q-5 3 -11 3l-19 -1q-12 -34 -27 -62q-1 -7 -1.5 -15t-1 -17.5t-0.5 -14.5q0 -18 -6 -30l-24 -6v5q0 3 -2 4q-4 -1 -16 -10.5t-20 -9.5l12 47q2 7 9 25.5t10.5 28.5t7 26t4.5 30q-6 -1 -24 -5.5t-30 -4.5h-13q-6 -30 -6 -57q0 -22 3 -43
q2 -14 12 -65q3 -13 4 -14q-18 2 -47 26q-3 4 -8 6l-6 -4l-12 2q1 9 3.5 25t2.5 24q10 67 12 105q-11 3 -19 3l-23 -1l-4 -7v-37q-2 -28 -2 -38v-25q0 -3 0.5 -12.5t1.5 -15.5l-3 -18l-18 -4q0 7 -4 7q-2 0 -5 -1.5t-4 -1.5q-2 0 -18 -5t-25 -5q1 6 7.5 13.5t8.5 11.5v31
q-6 60 -6 89v12l-1 5q-9 -3 -10 -3l-11 2h-34q-11 0 -16 -3q17 -81 19 -102q1 -7 1 -18q2 -11 13 -35.5t12 -39.5q-9 3 -23.5 16t-19.5 16l-14 9l-4 -9l-22 12q-1 12 -5 49q-8 74 -20 109q-3 2 -10 2h-6q-8 0 -11 2q-22 -47 -25 -113q-2 -10 -2 -13l1 -16l-1 -17l-19 -1
q-5 0 -8 1q2 0 2 3v6q-18 -2 -55 -18t-61 -17zM561 557l9 6q0 9 -13 16q-1 1 -5 11t-4 11h-6q-24 -2 -30 -5q-4 -8 -4 -13v-7q0 -7 -1 -10q13 -14 17 -29q7 -1 22.5 -7.5t19.5 -6.5q3 0 3 1q1 1 1 5l-3 11l1 7q-1 0 -4 4t-3 6zM498 529q8 8 8 12l-18 39q1 3 4.5 7.5t3.5 7.5
q0 4 -1 5q-11 2 -29 2h-19q-18 0 -26 1q1 -11 8 -23q-3 -8 -5.5 -25.5t-6.5 -26.5q13 5 35 5zM656 384q-1 5 -10 12.5t-11 13.5v5q0 3 2 13l-11 1q-3 -2 -4 -6.5t-1 -9.5v-6q-18 15 -45 15q-16 0 -22 -3v-9q2 -1 5 -1l13 1q6 0 9 -4l-1 -4q-5 2 -17 2q-18 0 -31 -14l1 -6
l3 1q18 7 27 7q5 0 7 -3h-4q-14 0 -26 -25l6 -3q5 7 9.5 10t11.5 5t10 3q4 0 4 -7q-13 -7 -13 -23q3 -4 7 -4q1 0 5 2q0 5 3 8.5t5.5 4.5t8.5 3t8 3q4 0 8 -3t6 -4q7 -7 10 -7q6 0 13.5 15.5t13.5 16.5zM364 594v10q-24 -2 -27 -4q2 -2 2 -8q0 -7 -8 -16.5t-9 -16.5
q6 -26 15 -36q2 0 6.5 -1.5t6.5 -1.5t5 1t4 1q-5 10 -5 11q0 5 7 24q-12 0 -12 5q0 4 7 8q8 6 8 24zM329 603q-4 4 -20 4l-19 -2l-30 -4l-3 -5l19 -27q-13 -22 -13 -27l42 -9l3 35q20 22 21 35zM390 453l-41 -8q1 1 1 3v2l-1 2l9 6q8 5 11 11l3 7q-36 -13 -55 -28q0 -3 1 -4
q3 -6 3 -10t-5 -7t-11.5 -5t-8.5 -4q2 -2 5.5 -9.5t8 -12t11.5 -4.5q11 9 25 9h41zM205 570q0 8 -9 8q-8 0 -8 -8t8 -8q9 0 9 8zM218 600h-25q0 -17 2 -17q13 0 13 -13t-13 -13t-13 16l-4 -2q1 -6 2 -18.5t2.5 -19.5t3.5 -9q16 -7 17 -7q3 0 4 2l4 25q-9 0 -9 3q0 4 5.5 8
t5.5 7q3 17 5 38zM251 369l-13 11q-3 3 -12.5 10.5t-13 10t-11 6.5t-15.5 5q-8 -3 -26 -14t-28 -14l10 -16q7 1 32 11q1 -5 5.5 -16.5t5.5 -19.5l-9 -18l22 15l-3 18q1 3 4 3l7 -8q3 -5 3 -8q0 -11 -7 -20q2 -2 5 -2l4 1l11 20q-1 2 -5 20q14 -5 19 -12q-1 -4 -5.5 -9.5
t-4.5 -6.5l7 -5l16 26q-3 3 -3 4q0 3 5 8zM236 370l-20 6q1 3 4 3t9 -4.5t7 -4.5z" />
    <glyph glyph-name="a_alt" horiz-adv-x="526" 
d="M85 134q0 -53 39 -80.5t96 -27.5q32 0 65.5 9t67 28t54.5 55.5t21 84.5v39q-62 12 -145 12q-53 0 -94.5 -9.5t-72.5 -37.5t-31 -73zM45 134q0 44 20.5 76t56.5 48.5t75.5 24t85.5 7.5q68 0 143 -15q0 85 -44 131t-118 46q-49 0 -89.5 -11t-56.5 -23l-16 -11l-21 29
q7 6 20 14.5t60.5 23t102.5 14.5q98 0 150 -59t52 -178v-251h-38v90q-26 -39 -80.5 -69.5t-127.5 -30.5t-124 36.5t-51 107.5z" />
    <glyph glyph-name="one.onum" horiz-adv-x="332" 
d="M184 0v427l-109 -84l-21 28l134 107h34v-478h-38z" />
    <glyph glyph-name="two.onum" horiz-adv-x="488" 
d="M40 0v34q64 38 106.5 65t89 60.5t73.5 61t44.5 58.5t17.5 60q0 48 -40 80.5t-106 32.5q-86 0 -153 -67l-24 29q24 25 70.5 49.5t106.5 24.5q84 0 135 -42t51 -107q0 -35 -17.5 -70t-39.5 -60t-67.5 -59.5t-73.5 -52t-86 -53.5q-9 -5 -13 -8h319v-36h-393z" />
    <glyph glyph-name="three.onum" horiz-adv-x="507" 
d="M28 -40l26 30q64 -71 174 -71q82 0 137 47t55 113q0 68 -52 110t-121 42q-58 0 -100 -30l-18 25l251 216h-340v36h393v-38l-199 -173q104 0 165 -53t61 -135t-66 -139t-166 -57q-132 0 -200 77z" />
    <glyph glyph-name="four.onum" horiz-adv-x="495" 
d="M342 -126v146h-300v38l268 444l32 -18l-258 -428h258v173h38v-173h90v-36h-90v-146h-38z" />
    <glyph glyph-name="five.onum" horiz-adv-x="507" 
d="M47 -47l23 35q67 -69 173 -69q74 0 127.5 47.5t53.5 111.5q0 66 -50 112t-131 46q-88 0 -152 -57l-33 22v277h375v-36h-337v-211q64 41 147 41q98 0 159.5 -55.5t61.5 -138.5q0 -82 -64.5 -138.5t-156.5 -56.5q-123 0 -196 70z" />
    <glyph glyph-name="six.onum" horiz-adv-x="549" 
d="M44 219q0 85 66 160l247 279l28 -25l-175 -197q19 11 60 11q96 0 164.5 -65t68.5 -163q0 -95 -67 -162t-162 -67q-96 0 -163 67t-67 162zM84 219q0 -79 55 -136t134 -57t134.5 57t55.5 136t-55.5 135.5t-134.5 56.5t-134 -56.5t-55 -135.5z" />
    <glyph glyph-name="seven.onum" horiz-adv-x="484" 
d="M105 -117l324 559h-395v36h435v-40l-322 -555h-42z" />
    <glyph glyph-name="eight.onum" 
d="M50 194q0 66 37.5 115.5t100.5 72.5q-35 20 -55.5 53.5t-20.5 73.5q0 64 48 106.5t120 42.5t120 -42.5t48 -106.5q0 -40 -21 -73.5t-56 -53.5q63 -24 101 -73.5t38 -114.5q0 -88 -65.5 -146t-164.5 -58q-100 0 -165 58t-65 146zM92 194q0 -70 53.5 -118.5t134.5 -48.5
q82 0 135 47t53 120q0 72 -54.5 119.5t-133.5 47.5t-133.5 -47.5t-54.5 -119.5zM154 509q0 -47 37 -79.5t89 -32.5t89 32.5t37 79.5q0 49 -35.5 80.5t-90.5 31.5t-90.5 -31.5t-35.5 -80.5z" />
    <glyph glyph-name="nine.onum" horiz-adv-x="549" 
d="M217 -92l121 134q-19 -11 -60 -11q-96 0 -164.5 65t-68.5 163q0 95 67 162t162 67q96 0 163 -67t67 -162q0 -85 -66 -160l-193 -216zM85 259q0 -79 55.5 -135.5t134.5 -56.5t134 56.5t55 135.5t-55 136t-134 57t-134.5 -57t-55.5 -136z" />
    <glyph glyph-name="zero.onum" horiz-adv-x="513" 
d="M45 239q0 108 59.5 178.5t152.5 70.5q92 0 151.5 -70.5t59.5 -178.5t-59.5 -178.5t-151.5 -70.5q-93 0 -152.5 70.5t-59.5 178.5zM85 239q0 -95 48 -154t124 -59t123.5 59.5t47.5 153.5q0 92 -48 152.5t-123 60.5q-76 0 -124 -60.5t-48 -152.5z" />
    <glyph glyph-name="zero.pnum" 
d="M88 324q0 -129 54 -212.5t138 -83.5t138 83.5t54 212.5t-54 212.5t-138 83.5t-138 -83.5t-54 -212.5zM46 324q0 146 66 240t168 94t168 -94t66 -240t-66 -240t-168 -94t-168 94t-66 240z" />
    <glyph glyph-name="one.pnum" horiz-adv-x="410" 
d="M231 0v589l-142 -109l-24 30l172 138h34v-648h-40z" />
    <glyph glyph-name="two.pnum" 
d="M70 0v34q369 280 369 437q0 64 -46.5 105.5t-114.5 41.5q-57 0 -96 -22.5t-85 -70.5l-26 29q88 104 207 104q96 0 149.5 -57t53.5 -128q0 -100 -103.5 -217t-246.5 -218h370v-38h-431z" />
    <glyph glyph-name="three.pnum" 
d="M59 67l28 32q23 -33 70 -52.5t103 -19.5q84 0 137.5 50t53.5 127q0 70 -52 116t-127 46q-52 0 -93 -29l-18 27l248 246h-337v38h393v-38l-205 -207q104 0 168.5 -54.5t64.5 -144.5q0 -96 -65 -155t-168 -59q-141 0 -201 77z" />
    <glyph glyph-name="four.pnum" horiz-adv-x="536" 
d="M356 0v146h-301v38l274 464l33 -20l-263 -444h257v171h40v-171h89v-38h-89v-146h-40z" />
    <glyph glyph-name="five.pnum" 
d="M75 57l23 37q2 -3 6.5 -7.5t21 -16t35 -20.5t48.5 -16t63 -7q81 0 130 50.5t49 117.5q0 70 -52.5 118.5t-126.5 48.5q-87 0 -153 -54l-32 20v320h375v-38h-335v-251q69 40 145 40q93 0 157 -58.5t64 -145.5q0 -84 -60 -144.5t-161 -60.5q-120 0 -197 67z" />
    <glyph glyph-name="six.pnum" horiz-adv-x="559" 
d="M50 219q0 85 66 160l247 279l28 -25l-175 -197q19 11 60 11q96 0 164.5 -65t68.5 -163q0 -95 -67.5 -162t-162.5 -67t-162 67t-67 162zM92 219q0 -79 54.5 -135.5t132.5 -56.5t133 56.5t55 135.5t-55 136t-133 57t-132.5 -57t-54.5 -136z" />
    <glyph glyph-name="seven.pnum" horiz-adv-x="512" 
d="M106 0l332 610h-395v38h434v-40l-327 -608h-44z" />
    <glyph glyph-name="eight.pnum" 
d="M50 194q0 66 37.5 115.5t100.5 72.5q-35 20 -55.5 53.5t-20.5 73.5q0 64 48 106.5t120 42.5t120 -42.5t48 -106.5q0 -40 -21 -73.5t-56 -53.5q63 -24 101 -73.5t38 -114.5q0 -88 -65.5 -146t-164.5 -58q-100 0 -165 58t-65 146zM92 194q0 -70 53.5 -118.5t134.5 -48.5
q82 0 135 47t53 120q0 72 -54.5 119.5t-133.5 47.5t-133.5 -47.5t-54.5 -119.5zM154 509q0 -47 37 -79.5t89 -32.5t89 32.5t37 79.5q0 49 -35.5 80.5t-90.5 31.5t-90.5 -31.5t-35.5 -80.5z" />
    <glyph glyph-name="nine.pnum" horiz-adv-x="559" 
d="M168 15l175 197q-19 -11 -60 -11q-96 0 -164.5 65t-68.5 163q0 95 67.5 162t162.5 67t162 -67t67 -162q0 -85 -66 -160l-247 -279zM92 429q0 -79 55 -136t133 -57t132.5 57t54.5 136t-54.5 135.5t-132.5 56.5t-133 -56.5t-55 -135.5z" />
    <glyph glyph-name="zero.onumtab" horiz-adv-x="545" 
d="M61 239q0 108 59.5 178.5t152.5 70.5q92 0 151.5 -70.5t59.5 -178.5t-59.5 -178.5t-151.5 -70.5q-93 0 -152.5 70.5t-59.5 178.5zM101 239q0 -95 48 -154t124 -59t123.5 59.5t47.5 153.5q0 92 -48 152.5t-123 60.5q-76 0 -124 -60.5t-48 -152.5z" />
    <glyph glyph-name="one.onumtab" horiz-adv-x="545" 
d="M135 0v36h147v388l-128 -97l-21 27l153 124h34v-442h126v-36h-311z" />
    <glyph glyph-name="two.onumtab" horiz-adv-x="545" 
d="M83 0v34q64 38 106.5 65t89 60.5t73.5 61t44.5 58.5t17.5 60q0 48 -40 80.5t-106 32.5q-86 0 -153 -67l-24 29q24 25 70.5 49.5t106.5 24.5q84 0 135 -42t51 -107q0 -35 -17.5 -70t-39.5 -60t-67.5 -59.5t-73.5 -52t-86 -53.5q-9 -5 -13 -8h319v-36h-393z" />
    <glyph glyph-name="three.onumtab" horiz-adv-x="545" 
d="M55 -40l26 30q64 -71 174 -71q82 0 137 47t55 113q0 68 -52 110t-121 42q-58 0 -100 -30l-18 25l251 216h-340v36h393v-38l-199 -173q104 0 165 -53t61 -135t-66 -139t-166 -57q-132 0 -200 77z" />
    <glyph glyph-name="four.onumtab" horiz-adv-x="545" 
d="M354 -126v146h-300v38l268 444l32 -18l-258 -428h258v173h38v-173h90v-36h-90v-146h-38z" />
    <glyph glyph-name="five.onumtab" horiz-adv-x="545" 
d="M82 -47l23 35q67 -69 173 -69q74 0 127.5 47.5t53.5 111.5q0 66 -50 112t-131 46q-88 0 -152 -57l-33 22v277h375v-36h-337v-211q64 41 147 41q98 0 159.5 -55.5t61.5 -138.5q0 -82 -64.5 -138.5t-156.5 -56.5q-122 0 -196 70z" />
    <glyph glyph-name="six.onumtab" horiz-adv-x="545" 
d="M42 219q0 85 66 160l247 279l28 -25l-175 -197q19 11 60 11q96 0 164.5 -65t68.5 -163q0 -95 -67 -162t-162 -67q-96 0 -163 67t-67 162zM82 219q0 -79 55 -136t134 -57t134.5 57t55.5 136t-55.5 135.5t-134.5 56.5t-134 -56.5t-55 -135.5z" />
    <glyph glyph-name="seven.onumtab" horiz-adv-x="545" 
d="M130 -117l324 559h-395v36h435v-40l-322 -555h-42z" />
    <glyph glyph-name="eight.onumtab" horiz-adv-x="545" 
d="M42 194q0 66 37.5 115.5t100.5 72.5q-35 20 -55.5 53.5t-20.5 73.5q0 64 48 106.5t120 42.5t120 -42.5t48 -106.5q0 -40 -21 -73.5t-56 -53.5q63 -24 101 -73.5t38 -114.5q0 -88 -65.5 -146t-164.5 -58q-100 0 -165 58t-65 146zM84 194q0 -70 53.5 -118.5t134.5 -48.5
q82 0 135 47t53 120q0 72 -54.5 119.5t-133.5 47.5t-133.5 -47.5t-54.5 -119.5zM146 509q0 -47 37 -79.5t89 -32.5t89 32.5t37 79.5q0 49 -35.5 80.5t-90.5 31.5t-90.5 -31.5t-35.5 -80.5z" />
    <glyph glyph-name="nine.onumtab" horiz-adv-x="545" 
d="M215 -92l121 134q-19 -11 -60 -11q-96 0 -164.5 65t-68.5 163q0 95 67 162t162 67q96 0 163 -67t67 -162q0 -85 -66 -160l-193 -216zM83 259q0 -79 55.5 -135.5t134.5 -56.5t134 56.5t55 135.5t-55 136t-134 57t-134.5 -57t-55.5 -136z" />
    <glyph glyph-name="aacute_alt" horiz-adv-x="526" 
d="M85 134q0 -53 39 -80.5t96 -27.5q32 0 65.5 9t67 28t54.5 55.5t21 84.5v39q-62 12 -145 12q-53 0 -94.5 -9.5t-72.5 -37.5t-31 -73zM45 134q0 44 20.5 76t56.5 48.5t75.5 24t85.5 7.5q68 0 143 -15q0 85 -44 131t-118 46q-49 0 -89.5 -11t-56.5 -23l-16 -11l-21 29
q7 6 20 14.5t60.5 23t102.5 14.5q98 0 150 -59t52 -178v-251h-38v90q-26 -39 -80.5 -69.5t-127.5 -30.5t-124 36.5t-51 107.5zM231 563l72 116h53l-83 -116h-42z" />
    <glyph glyph-name="agrave_alt" horiz-adv-x="526" 
d="M85 134q0 -53 39 -80.5t96 -27.5q32 0 65.5 9t67 28t54.5 55.5t21 84.5v39q-62 12 -145 12q-53 0 -94.5 -9.5t-72.5 -37.5t-31 -73zM45 134q0 44 20.5 76t56.5 48.5t75.5 24t85.5 7.5q68 0 143 -15q0 85 -44 131t-118 46q-49 0 -89.5 -11t-56.5 -23l-16 -11l-21 29
q7 6 20 14.5t60.5 23t102.5 14.5q98 0 150 -59t52 -178v-251h-38v90q-26 -39 -80.5 -69.5t-127.5 -30.5t-124 36.5t-51 107.5zM246 563l-83 116h53l72 -116h-42z" />
    <glyph glyph-name="acircumflex_alt" horiz-adv-x="526" 
d="M85 134q0 -53 39 -80.5t96 -27.5q32 0 65.5 9t67 28t54.5 55.5t21 84.5v39q-62 12 -145 12q-53 0 -94.5 -9.5t-72.5 -37.5t-31 -73zM45 134q0 44 20.5 76t56.5 48.5t75.5 24t85.5 7.5q68 0 143 -15q0 85 -44 131t-118 46q-49 0 -89.5 -11t-56.5 -23l-16 -11l-21 29
q7 6 20 14.5t60.5 23t102.5 14.5q98 0 150 -59t52 -178v-251h-38v90q-26 -39 -80.5 -69.5t-127.5 -30.5t-124 36.5t-51 107.5zM172 553l72 116h53l72 -116h-42l-57 83l-56 -83h-42z" />
    <glyph glyph-name="adieresis_alt" horiz-adv-x="526" 
d="M85 134q0 -53 39 -80.5t96 -27.5q32 0 65.5 9t67 28t54.5 55.5t21 84.5v39q-62 12 -145 12q-53 0 -94.5 -9.5t-72.5 -37.5t-31 -73zM45 134q0 44 20.5 76t56.5 48.5t75.5 24t85.5 7.5q68 0 143 -15q0 85 -44 131t-118 46q-49 0 -89.5 -11t-56.5 -23l-16 -11l-21 29
q7 6 20 14.5t60.5 23t102.5 14.5q98 0 150 -59t52 -178v-251h-38v90q-26 -39 -80.5 -69.5t-127.5 -30.5t-124 36.5t-51 107.5zM174 603q0 14 9.5 23.5t23.5 9.5q13 0 22 -9.5t9 -23.5q0 -13 -9 -22t-22 -9q-14 0 -23.5 9t-9.5 22zM309 603q0 14 9.5 23.5t23.5 9.5
q13 0 22 -9.5t9 -23.5q0 -13 -9 -22t-22 -9q-14 0 -23.5 9t-9.5 22z" />
    <glyph glyph-name="atilde_alt" horiz-adv-x="526" 
d="M85 134q0 -53 39 -80.5t96 -27.5q32 0 65.5 9t67 28t54.5 55.5t21 84.5v39q-62 12 -145 12q-53 0 -94.5 -9.5t-72.5 -37.5t-31 -73zM45 134q0 44 20.5 76t56.5 48.5t75.5 24t85.5 7.5q68 0 143 -15q0 85 -44 131t-118 46q-49 0 -89.5 -11t-56.5 -23l-16 -11l-21 29
q7 6 20 14.5t60.5 23t102.5 14.5q98 0 150 -59t52 -178v-251h-38v90q-26 -39 -80.5 -69.5t-127.5 -30.5t-124 36.5t-51 107.5zM158 564q0 34 16 58t42 24q20 0 53 -21.5t44 -21.5q13 0 20 12.5t7 30.5h33q0 -34 -16 -58t-42 -24q-21 0 -53 21.5t-44 21.5q-13 0 -20 -12.5
t-7 -30.5h-33z" />
    <glyph glyph-name="aring_alt" horiz-adv-x="526" 
d="M172 617q0 38 27.5 65.5t65.5 27.5t65.5 -27.5t27.5 -65.5t-27.5 -65.5t-65.5 -27.5t-65.5 27.5t-27.5 65.5zM206 617q0 -26 17 -44.5t42 -18.5t42 18.5t17 44.5t-17 44.5t-42 18.5t-42 -18.5t-17 -44.5zM85 134q0 -53 39 -80.5t96 -27.5q32 0 65.5 9t67 28t54.5 55.5
t21 84.5v39q-62 12 -145 12q-53 0 -94.5 -9.5t-72.5 -37.5t-31 -73zM45 134q0 44 20.5 76t56.5 48.5t75.5 24t85.5 7.5q68 0 143 -15q0 85 -44 131t-118 46q-49 0 -89.5 -11t-56.5 -23l-16 -11l-21 29q7 6 20 14.5t60.5 23t102.5 14.5q98 0 150 -59t52 -178v-251h-38v90
q-26 -39 -80.5 -69.5t-127.5 -30.5t-124 36.5t-51 107.5z" />
    <glyph glyph-name="amacron_alt" horiz-adv-x="526" 
d="M85 134q0 -53 39 -80.5t96 -27.5q32 0 65.5 9t67 28t54.5 55.5t21 84.5v39q-62 12 -145 12q-53 0 -94.5 -9.5t-72.5 -37.5t-31 -73zM45 134q0 44 20.5 76t56.5 48.5t75.5 24t85.5 7.5q68 0 143 -15q0 85 -44 131t-118 46q-49 0 -89.5 -11t-56.5 -23l-16 -11l-21 29
q7 6 20 14.5t60.5 23t102.5 14.5q98 0 150 -59t52 -178v-251h-38v90q-26 -39 -80.5 -69.5t-127.5 -30.5t-124 36.5t-51 107.5zM175 574v35h176v-35h-176z" />
    <glyph glyph-name="abreve_alt" horiz-adv-x="526" 
d="M85 134q0 -53 39 -80.5t96 -27.5q32 0 65.5 9t67 28t54.5 55.5t21 84.5v39q-62 12 -145 12q-53 0 -94.5 -9.5t-72.5 -37.5t-31 -73zM45 134q0 44 20.5 76t56.5 48.5t75.5 24t85.5 7.5q68 0 143 -15q0 85 -44 131t-118 46q-49 0 -89.5 -11t-56.5 -23l-16 -11l-21 29
q7 6 20 14.5t60.5 23t102.5 14.5q98 0 150 -59t52 -178v-251h-38v90q-26 -39 -80.5 -69.5t-127.5 -30.5t-124 36.5t-51 107.5zM265 553q-39 0 -63.5 26t-24.5 64h30q8 -52 58 -52t58 52h30q0 -38 -24.5 -64t-63.5 -26z" />
    <glyph glyph-name="aringacute_alt" horiz-adv-x="526" 
d="M45 134q0 44 20.5 76t56.5 48.5t75.5 24t85.5 7.5q68 0 143 -15q0 85 -44 131t-118 46q-49 0 -89.5 -11t-56.5 -23l-16 -11l-21 29q7 6 20 14.5t60.5 23t102.5 14.5q98 0 150 -59t52 -178v-251h-38v90q-26 -39 -80.5 -69.5t-127.5 -30.5t-124 36.5t-51 107.5zM85 134
q0 -53 39 -80.5t96 -27.5q32 0 65.5 9t67 28t54.5 55.5t21 84.5v39q-62 12 -145 12q-53 0 -94.5 -9.5t-72.5 -37.5t-31 -73zM169 617q0 27 15.5 50.5t39.5 34.5l67 107h53l-71 -100q35 -4 58.5 -30.5t23.5 -61.5q0 -38 -27.5 -65.5t-65.5 -27.5t-65.5 27.5t-27.5 65.5z
M203 617q0 -26 17 -44.5t42 -18.5t42 18.5t17 44.5t-17 44.5t-42 18.5t-42 -18.5t-17 -44.5z" />
    <glyph glyph-name="aogonek_alt" horiz-adv-x="526" 
d="M365 -128q0 78 63 133v85q-26 -39 -80.5 -69.5t-127.5 -30.5t-124 36.5t-51 107.5q0 44 20.5 76t56.5 48.5t75.5 24t85.5 7.5q68 0 143 -15q0 85 -44 131t-118 46q-49 0 -89.5 -11t-56.5 -23l-16 -11l-21 29q7 6 20 14.5t60.5 23t102.5 14.5q98 0 150 -59t52 -178v-251
h-6q-23 -22 -39 -57.5t-16 -66.5q0 -26 15.5 -42t40.5 -16q22 0 45 13l15 -30q-27 -21 -62 -21q-38 0 -66 24.5t-28 67.5zM85 134q0 -53 39 -80.5t96 -27.5q32 0 65.5 9t67 28t54.5 55.5t21 84.5v39q-62 12 -145 12q-53 0 -94.5 -9.5t-72.5 -37.5t-31 -73z" />
    <glyph glyph-name="questiondown.cap" horiz-adv-x="479" 
d="M230 619q0 17 11 28t28 11t28 -11t11 -28t-11 -28t-28 -11t-28 11t-11 28zM60 194q0 81 53.5 139t132.5 64l6 108h36l1 -138q-52 0 -90.5 -17t-58.5 -44.5t-29 -56t-9 -57.5q0 -66 48.5 -115t116.5 -49q53 0 95 30.5t60 78.5l36 -19q-24 -59 -75.5 -93.5t-120.5 -34.5
q-87 0 -144.5 60t-57.5 144z" />
    <glyph glyph-name="exclamdown.cap" horiz-adv-x="198" 
d="M74 0l8 504h36l8 -504h-52zM60 619q0 17 11 28t28 11t28 -11t11 -28t-11 -28t-28 -11t-28 11t-11 28z" />
    <glyph glyph-name="hyphen.cap" horiz-adv-x="411" 
d="M30 291v38h351v-38h-351z" />
    <glyph glyph-name="endash.cap" horiz-adv-x="578" 
d="M20 291v40h538v-40h-538z" />
    <glyph glyph-name="emdash.cap" horiz-adv-x="700" 
d="M20 291v40h660v-40h-660z" />
    <glyph glyph-name="periodcentered.cap" horiz-adv-x="139" 
d="M31 359q0 16 11.5 27.5t27.5 11.5t27 -11.5t11 -27.5t-11 -27t-27 -11t-27.5 11t-11.5 27z" />
    <glyph glyph-name="parenleft.cap" horiz-adv-x="264" 
d="M60 315q0 233 145 396l29 -29q-132 -145 -132 -367t132 -367l-29 -29q-145 163 -145 396z" />
    <glyph glyph-name="parenright.cap" horiz-adv-x="264" 
d="M59 -71l-29 29q132 145 132 367t-132 367l29 29q145 -163 145 -396t-145 -396z" />
    <glyph glyph-name="bracketleft.cap" horiz-adv-x="247" 
d="M60 -68v792h162v-36h-122v-720h122v-36h-162z" />
    <glyph glyph-name="bracketright.cap" horiz-adv-x="247" 
d="M25 -69v36h122v721h-122v36h162v-793h-162z" />
    <glyph glyph-name="braceleft.cap" horiz-adv-x="351" 
d="M52 304v41h9q74 0 74 51v100q0 233 177 233h14v-40q-85 0 -118 -49t-33 -144v-90q0 -72 -51 -82q51 -19 51 -81v-89q0 -95 33 -144t118 -49v-40h-14q-177 0 -177 233v99q0 51 -74 51h-9z" />
    <glyph glyph-name="braceright.cap" horiz-adv-x="351" 
d="M25 -79v40q85 0 118 49t33 143v90q0 62 51 81q-51 10 -51 82v90q0 95 -33 144t-118 49v40h14q177 0 177 -233v-100q0 -51 74 -51h9v-41h-9q-74 0 -74 -51v-99q0 -233 -177 -233h-14z" />
    <glyph glyph-name="zero.slash" 
d="M46 324q0 146 66 240t168 94t168 -94t66 -240t-66 -240t-168 -94t-168 94t-66 240zM425 525l-266 -437q51 -60 121 -60q84 0 138 83.5t54 212.5q0 118 -47 201zM88 324q0 -122 47 -203l267 438q-51 61 -122 61q-84 0 -138 -83.5t-54 -212.5z" />
    <glyph glyph-name="a.sups" horiz-adv-x="361" 
d="M73 423q0 -29 22 -45t54 -16q34 0 60 10t38.5 24t18 26t5.5 20v42q-35 7 -79 7q-50 0 -84.5 -16t-34.5 -52zM32 423q0 57 46 81.5t114 24.5q34 0 78 -8q-3 45 -28.5 70t-62.5 25q-30 0 -56 -8t-37 -16l-12 -9l-22 31q5 4 15 10.5t43 17t69 10.5q63 0 97.5 -39t34.5 -116
v-166h-40v37q-45 -43 -122 -43q-49 0 -83 24.5t-34 73.5z" />
    <glyph glyph-name="b.sups" horiz-adv-x="406" 
d="M60 331v428h37v-167q43 60 118 60q64 0 110 -48t46 -116t-46 -116t-110 -48q-75 0 -118 59v-52h-37zM97 488q0 -53 34.5 -90.5t83.5 -37.5t83 37.5t34 90.5t-34 90t-83 37t-83.5 -37t-34.5 -90z" />
    <glyph glyph-name="c.sups" horiz-adv-x="345" 
d="M35 488q0 68 48.5 116t116.5 48q64 0 117 -51l-25 -26q-37 40 -92 40q-52 0 -89 -37t-37 -90t37 -90t89 -37q56 0 100 45l25 -24q-55 -58 -125 -58q-68 0 -116.5 48t-48.5 116z" />
    <glyph glyph-name="d.sups" horiz-adv-x="405" 
d="M35 488q0 68 46 116t110 48q75 0 118 -60v167h36v-428h-36v52q-46 -59 -118 -59q-64 0 -110 48t-46 116zM73 488q0 -53 34 -90.5t84 -37.5q49 0 83.5 36.5t34.5 91.5q0 53 -34.5 90t-83.5 37q-50 0 -84 -37t-34 -90z" />
    <glyph glyph-name="e.sups" horiz-adv-x="375" 
d="M74 506h226q-5 47 -37 78t-75 31t-75 -31t-39 -78zM35 488q0 68 45 116t108 48t107.5 -48t44.5 -114l-2 -19h-264q8 -48 42 -79t80 -31q57 0 98 46l28 -25q-56 -58 -126 -58q-67 0 -114 48t-47 116z" />
    <glyph glyph-name="f.sups" horiz-adv-x="177" 
d="M40 243v365h-35v37h35v13q0 107 84 107q20 0 39.5 -6.5t29.5 -12.5l10 -7l-22 -26q-30 16 -57 16q-47 0 -47 -71v-13h110v-37h-110v-365h-37z" />
    <glyph glyph-name="g.sups" horiz-adv-x="405" 
d="M65 276l28 26q39 -47 98 -47q12 0 25 2.5t30.5 10.5t30.5 20.5t22.5 35.5t9.5 53q-42 -53 -118 -53q-65 0 -110.5 43.5t-45.5 110.5t45.5 111t110.5 44q77 0 118 -54v47h36v-241q0 -46 -15.5 -80.5t-35.5 -50t-45.5 -25t-37.5 -10.5t-20 -1q-71 0 -126 58zM73 478
q0 -52 33.5 -85t84.5 -33q50 0 84 33t34 85t-34 85t-84 33q-51 0 -84.5 -33t-33.5 -85z" />
    <glyph glyph-name="h.sups" horiz-adv-x="370" 
d="M60 331v429h38v-153q35 45 102 45q55 0 87.5 -31t32.5 -86v-204h-37v197q0 88 -87 88q-38 0 -68 -27t-30 -68v-190h-38z" />
    <glyph glyph-name="i.sups" horiz-adv-x="149" 
d="M56 331v316h38v-316h-38zM49 723q0 12 8 20t19 8t18.5 -8t7.5 -20q0 -11 -8 -18.5t-18 -7.5q-11 0 -19 7.5t-8 18.5z" />
    <glyph glyph-name="j.sups" horiz-adv-x="142" 
d="M23 272q25 19 25 47v326h38v-326q0 -50 -47 -78zM41 723q0 11 8 18.5t19 7.5t19 -7.5t8 -18.5q0 -12 -8 -19.5t-19 -7.5t-19 7.5t-8 19.5z" />
    <glyph glyph-name="k.sups" horiz-adv-x="330" 
d="M60 331v429h37v-298l169 184h52l-129 -140l146 -175h-50l-121 149l-67 -75v-74h-37z" />
    <glyph glyph-name="l.sups" horiz-adv-x="157" 
d="M60 331v429h37v-429h-37z" />
    <glyph glyph-name="m.sups" horiz-adv-x="568" 
d="M60 331v315h38v-38q34 45 96 45q71 0 102 -54q36 54 108 54q54 0 84 -31t30 -87v-204h-38v197q0 88 -79 88q-38 0 -66 -25t-28 -68v-192h-36v197q0 88 -80 88q-37 0 -65 -27.5t-28 -68.5v-189h-38z" />
    <glyph glyph-name="o.sups" horiz-adv-x="398" 
d="M35 488q0 68 48 116t116 48q67 0 115.5 -48t48.5 -116t-48.5 -116t-115.5 -48q-68 0 -116 48t-48 116zM73 488q0 -53 37 -90t89 -37t88.5 37t36.5 90t-36.5 90t-88.5 37t-89 -37t-37 -90z" />
    <glyph glyph-name="p.sups" horiz-adv-x="406" 
d="M60 245v402h37v-53q43 60 118 60q64 0 110 -48t46 -116t-45.5 -116.5t-110.5 -48.5q-75 0 -118 60v-140h-37zM97 490q0 -53 34.5 -91t83.5 -38t83 38t34 91t-34 90t-83 37t-83.5 -37t-34.5 -90z" />
    <glyph glyph-name="q.sups" horiz-adv-x="405" 
d="M35 489q0 68 46 116t110 48q74 0 118 -60v53h36v-402h-36v140q-47 -60 -118 -60q-65 0 -110.5 48.5t-45.5 116.5zM73 489q0 -53 34 -91t84 -38q49 0 83.5 38t34.5 91t-34.5 90t-83.5 37q-50 0 -84 -37t-34 -90z" />
    <glyph glyph-name="r.sups" horiz-adv-x="232" 
d="M60 331v315h38v-50q40 57 124 57v-41q-49 0 -86.5 -30.5t-37.5 -97.5v-153h-38z" />
    <glyph glyph-name="s.sups" horiz-adv-x="319" 
d="M38 375l27 27q34 -41 93 -41q40 0 64 16t24 41q0 16 -14 27.5t-29.5 17t-41.5 11.5q-27 6 -42 11t-34.5 15t-28 26t-8.5 38q0 40 31 64t79 24q56 0 106 -39l-25 -29q-38 31 -79 31q-32 0 -51.5 -14.5t-19.5 -36.5q0 -15 14 -25.5t28 -15t40 -10.5q52 -11 83 -31.5
t31 -62.5q0 -45 -34 -70t-91 -25q-75 0 -122 51z" />
    <glyph glyph-name="t.sups" horiz-adv-x="236" 
d="M58 432v178h-35v36h35v76h37v-76h118v-36h-118v-178q0 -71 48 -71q14 0 28.5 5.5t21.5 11.5l7 5l21 -28q-37 -31 -78 -31q-36 0 -60.5 24.5t-24.5 83.5z" />
    <glyph glyph-name="u.sups" horiz-adv-x="364" 
d="M171 324q-55 0 -88 31.5t-33 86.5v204h38v-197q0 -88 87 -88q37 0 64.5 27t27.5 69v189h37v-315h-37v36q-34 -43 -96 -43z" />
    <glyph glyph-name="v.sups" horiz-adv-x="317" 
d="M146 324l-151 317h42l112 -241l9 -23q6 14 10 22l112 242h42l-151 -317h-25z" />
    <glyph glyph-name="w.sups" horiz-adv-x="444" 
d="M108 324l-113 317h39l86 -242l2 -12q2 9 3 12l81 242h33l80 -242l3 -12q1 8 2 12l87 242h38l-113 -317h-31l-76 230l-7 19l-2 -3q-1 -4 -2.5 -8.5l-2.5 -7.5l-76 -230h-31z" />
    <glyph glyph-name="x.sups" horiz-adv-x="289" 
d="M-5 331l128 158l-128 156h44l81 -99l25 -33q12 18 22 30l82 102h45l-128 -158l128 -156h-45l-80 98l-25 34l-24 -33l-80 -99h-45z" />
    <glyph glyph-name="y.sups" horiz-adv-x="338" 
d="M67 230v39q31 0 49.5 10.5t32.5 48.5l5 13l-153 304h46l113 -229l15 -37q7 20 15 38l103 228h43l-152 -332q-17 -37 -38 -56.5t-37 -23t-42 -3.5z" />
    <glyph glyph-name="z.sups" horiz-adv-x="301" 
d="M20 331v31l181 217l28 30h-204v36h250v-31l-181 -218l-27 -29h214v-36h-261z" />
    <glyph glyph-name="commaaccentcomb" horiz-adv-x="300" 
d="M99 -235q62 62 62 147q0 15 -2 26l39 13q3 -18 3 -34q0 -54 -22 -94t-47 -58h-33z" />
    <glyph glyph-name="zero.dnom" horiz-adv-x="440" 
d="M90 230q0 -87 36.5 -143t93.5 -56t93.5 56t36.5 143t-36.5 143t-93.5 56t-93.5 -56t-36.5 -143zM50 230q0 103 48 169t122 66t122 -66t48 -169t-48 -169t-122 -66t-122 66t-48 169z" />
    <glyph glyph-name="one.dnom" horiz-adv-x="286" 
d="M154 0v399l-114 -87l-20 28l142 115h30v-455h-38z" />
    <glyph glyph-name="two.dnom" horiz-adv-x="372" 
d="M25 0v31q155 129 198 176q65 70 65 124q0 40 -28 67t-77 27q-74 0 -128 -58l-24 27q63 67 152 67q68 0 106.5 -36.5t38.5 -93.5q0 -35 -14 -66.5t-52.5 -72t-70 -68.5t-102.5 -88h246v-36h-310z" />
    <glyph glyph-name="three.dnom" horiz-adv-x="375" 
d="M20 44l24 26q41 -41 119 -41q58 0 92 35.5t34 81.5q0 43 -30 73.5t-85 30.5q-38 0 -66 -18l-18 25l169 162h-224v36h274v-33l-138 -137h5q72 0 112.5 -42t40.5 -99q0 -60 -46 -105.5t-122 -45.5q-94 0 -141 51z" />
    <glyph glyph-name="four.dnom" horiz-adv-x="394" 
d="M255 0v99h-214v33l196 332l31 -17l-184 -312h171v119h38v-119h56v-36h-56v-99h-38z" />
    <glyph glyph-name="five.dnom" horiz-adv-x="365" 
d="M34 31l20 31q45 -39 117 -39q57 0 90.5 33t33.5 78q0 53 -35 83t-85 30q-56 0 -105 -34l-24 19v223h265v-36h-228v-158q42 21 95 21q63 0 109.5 -40.5t46.5 -107.5q0 -60 -44 -103.5t-122 -43.5q-81 0 -134 44z" />
    <glyph glyph-name="six.dnom" horiz-adv-x="414" 
d="M45 156q0 60 46 113l173 196l26 -24l-111 -126q19 3 27 3q68 0 115.5 -47.5t47.5 -114.5t-48 -114.5t-115 -47.5t-114 47.5t-47 114.5zM85 156q0 -52 35 -89t86 -37q52 0 87.5 37t35.5 89t-35.5 89t-87.5 37q-51 0 -86 -37t-35 -89z" />
    <glyph glyph-name="seven.dnom" horiz-adv-x="341" 
d="M57 0l225 419h-259v36h303v-34l-227 -421h-42z" />
    <glyph glyph-name="eight.dnom" horiz-adv-x="414" 
d="M43 141q0 44 24.5 81t63.5 52q-47 35 -47 84q0 46 35 75.5t87 29.5t87 -29.5t35 -75.5q0 -49 -47 -84q39 -15 63.5 -52t24.5 -81q0 -65 -45.5 -106t-117.5 -41t-117.5 41t-45.5 106zM83 141q0 -50 34 -81t89 -31t89 31t34 81t-32 80.5t-91 30.5t-91 -30.5t-32 -80.5z
M124 358q0 -30 22.5 -50.5t59.5 -20.5t59.5 20.5t22.5 50.5q0 31 -23.5 50.5t-58.5 19.5t-58.5 -19.5t-23.5 -50.5z" />
    <glyph glyph-name="nine.dnom" horiz-adv-x="414" 
d="M124 15l111 126q-15 -3 -27 -3q-68 0 -115.5 47.5t-47.5 114.5t48 114.5t115 47.5t114 -47.5t47 -114.5q0 -60 -46 -113l-173 -196zM85 300q0 -52 35.5 -89t87.5 -37q51 0 86 37t35 89t-35 89t-86 37q-52 0 -87.5 -37t-35.5 -89z" />
    <glyph glyph-name="at.cap" horiz-adv-x="918" 
d="M70 284q0 163 115.5 278.5t278.5 115.5q159 0 271.5 -107.5t112.5 -259.5q0 -93 -43 -151t-106 -58q-34 0 -63 17t-40 56q-48 -83 -155 -83q-72 0 -124 56.5t-52 134.5t52 134.5t124 56.5q104 0 153 -81v71h40v-227q0 -39 16 -67.5t53 -28.5q45 0 75 46.5t30 123.5
q0 137 -100.5 234t-243.5 97q-146 0 -250 -105t-104 -253q0 -144 104 -246t250 -102q94 0 160 34l15 -32q-73 -38 -175 -38q-167 0 -280.5 112t-113.5 272zM306 283q0 -62 42.5 -107t104.5 -45q60 0 100.5 44.5t40.5 107.5q0 66 -39.5 108.5t-101.5 42.5t-104.5 -44.5
t-42.5 -106.5z" />
    <glyph glyph-name="zero.numerator" horiz-adv-x="440" 
d="M90 423q0 -87 36.5 -143t93.5 -56t93.5 56t36.5 143t-36.5 143t-93.5 56t-93.5 -56t-36.5 -143zM50 423q0 103 48 169t122 66t122 -66t48 -169t-48 -169t-122 -66t-122 66t-48 169z" />
    <glyph glyph-name="one.numerator" horiz-adv-x="286" 
d="M154 193v399l-114 -87l-20 28l142 115h30v-455h-38z" />
    <glyph glyph-name="two.numerator" horiz-adv-x="372" 
d="M25 193v31q155 129 198 176q65 70 65 124q0 40 -28 67t-77 27q-74 0 -128 -58l-24 27q63 67 152 67q68 0 106.5 -36.5t38.5 -93.5q0 -35 -14 -66.5t-52.5 -72t-70 -68.5t-102.5 -88h246v-36h-310z" />
    <glyph glyph-name="three.numerator" horiz-adv-x="375" 
d="M20 238l24 26q41 -41 119 -41q58 0 92 35.5t34 81.5q0 43 -30 73.5t-85 30.5q-38 0 -66 -18l-18 25l169 162h-224v36h274v-33l-138 -137h5q72 0 112.5 -42t40.5 -99q0 -60 -46 -105.5t-122 -45.5q-94 0 -141 51z" />
    <glyph glyph-name="four.numerator" horiz-adv-x="384" 
d="M255 193v99h-214v33l196 332l31 -17l-184 -312h171v119h38v-119h56v-36h-56v-99h-38z" />
    <glyph glyph-name="five.numerator" horiz-adv-x="365" 
d="M34 224l20 31q45 -39 117 -39q57 0 90.5 33t33.5 78q0 53 -35 83t-85 30q-56 0 -105 -34l-24 19v223h265v-36h-228v-158q42 21 95 21q63 0 109.5 -40.5t46.5 -107.5q0 -60 -44 -103.5t-122 -43.5q-81 0 -134 44z" />
    <glyph glyph-name="six.numerator" horiz-adv-x="414" 
d="M45 349q0 60 46 113l173 196l26 -24l-111 -126q19 3 27 3q68 0 115.5 -47.5t47.5 -114.5t-48 -114.5t-115 -47.5t-114 47.5t-47 114.5zM85 349q0 -52 35 -89t86 -37q52 0 87.5 37t35.5 89t-35.5 89t-87.5 37q-51 0 -86 -37t-35 -89z" />
    <glyph glyph-name="seven.numerator" horiz-adv-x="341" 
d="M57 193l225 419h-259v36h303v-34l-227 -421h-42z" />
    <glyph glyph-name="eight.numerator" horiz-adv-x="414" 
d="M43 334q0 44 24.5 81t63.5 52q-47 35 -47 84q0 46 35 75.5t87 29.5t87 -29.5t35 -75.5q0 -49 -47 -84q39 -15 63.5 -52t24.5 -81q0 -65 -45.5 -106t-117.5 -41t-117.5 41t-45.5 106zM83 334q0 -50 34 -81t89 -31t89 31t34 81t-32 80.5t-91 30.5t-91 -30.5t-32 -80.5z
M124 551q0 -30 22.5 -50.5t59.5 -20.5t59.5 20.5t22.5 50.5q0 31 -23.5 50.5t-58.5 19.5t-58.5 -19.5t-23.5 -50.5z" />
    <glyph glyph-name="nine.numerator" horiz-adv-x="414" 
d="M124 208l111 126q-15 -3 -27 -3q-68 0 -115.5 47.5t-47.5 114.5t48 114.5t115 47.5t114 -47.5t47 -114.5q0 -60 -46 -113l-173 -196zM85 493q0 -52 35.5 -89t87.5 -37q51 0 86 37t35 89t-35 89t-86 37q-52 0 -87.5 -37t-35.5 -89z" />
    <glyph glyph-name="comma.dnom" horiz-adv-x="145" 
d="M11 -77l28 140h49l-44 -140h-33z" />
    <glyph glyph-name="period.dnom" horiz-adv-x="145" 
d="M30 27q0 16 11 27t26 11q16 0 27 -11t11 -27q0 -15 -11 -26t-27 -11q-15 0 -26 11t-11 26z" />
    <glyph glyph-name="period.numerator" horiz-adv-x="145" 
d="M30 225q0 16 11 27t26 11q16 0 27 -11t11 -27q0 -15 -11 -26t-27 -11q-15 0 -26 11t-11 26z" />
    <glyph glyph-name="comma.numerator" horiz-adv-x="145" 
d="M11 121l28 140h49l-44 -140h-33z" />
    <glyph glyph-name="A.small" horiz-adv-x="598" 
d="M8 0l280 568h22l280 -568h-42l-55 112h-388l-55 -112h-42zM123 148h352l-127 258q-48 100 -49 103q-23 -54 -47 -102z" />
    <glyph glyph-name="B.small" horiz-adv-x="574" 
d="M69 0v564h260q68 0 108 -37t40 -94q0 -36 -21 -67t-47 -37q53 -7 89.5 -52.5t36.5 -107.5q0 -73 -58.5 -121t-154.5 -48h-253zM109 37h212q79 0 125.5 37.5t46.5 94.5q0 60 -37.5 97.5t-111.5 37.5h-235v-267zM109 342h233q42 0 67.5 25.5t25.5 64.5q0 40 -28.5 67
t-77.5 27h-220v-184z" />
    <glyph glyph-name="C.small" horiz-adv-x="564" 
d="M43 281q0 120 84.5 205t205.5 85q118 0 201 -80l-27 -28q-74 71 -172 71q-104 0 -177 -74t-73 -179q0 -104 73 -178.5t176 -74.5q112 0 186 84l27 -29q-85 -93 -213 -93q-121 0 -206 85.5t-85 205.5z" />
    <glyph glyph-name="D.small" horiz-adv-x="611" 
d="M109 37h163q113 0 183.5 69.5t70.5 175.5t-70.5 175t-183.5 69h-163v-489zM69 0v564h207q130 0 211 -81.5t81 -200.5t-81 -200.5t-211 -81.5h-207z" />
    <glyph glyph-name="E.small" horiz-adv-x="540" 
d="M69 0v564h424v-38h-384v-205h365v-37h-365v-247h397v-37h-437z" />
    <glyph glyph-name="F.small" horiz-adv-x="484" 
d="M69 0v564h398v-38h-358v-205h311v-37h-311v-284h-40z" />
    <glyph glyph-name="G.small" horiz-adv-x="621" 
d="M43 281q0 120 85 205t206 85q116 0 200 -79l-28 -29q-71 71 -172 71q-103 0 -176 -74.5t-73 -178.5t73 -178.5t176 -74.5q62 0 116 29t89 79v136h-142v37h181v-186q-40 -61 -104 -97t-140 -36q-121 0 -206 85.5t-85 205.5z" />
    <glyph glyph-name="H.small" horiz-adv-x="592" 
d="M69 0v564h40v-242h374v242h40v-564h-40v284h-374v-284h-40z" />
    <glyph glyph-name="I.small" horiz-adv-x="178" 
d="M69 0v564h40v-564h-40z" />
    <glyph glyph-name="J.small" horiz-adv-x="446" 
d="M25 81l33 23q38 -74 123 -74q73 0 119 46.5t46 141.5v346h40v-346q0 -115 -57 -171.5t-148 -56.5q-105 0 -156 91z" />
    <glyph glyph-name="K.small" horiz-adv-x="546" 
d="M69 0v564h40v-388l48 55l313 333h51l-240 -257l256 -307h-50l-233 279l-145 -154v-125h-40z" />
    <glyph glyph-name="L.small" horiz-adv-x="516" 
d="M69 0v564h40v-527h373v-37h-413z" />
    <glyph glyph-name="M.small" horiz-adv-x="713" 
d="M69 0v564h33l255 -349l254 349h33v-564h-40v493q-6 -12 -129 -180l-118 -163l-119 163q-14 19 -51.5 70t-56.5 77.5t-21 32.5v-493h-40z" />
    <glyph glyph-name="N.small" horiz-adv-x="608" 
d="M69 0v564h34l335 -418l61 -82v500h40v-564h-36l-328 409l-66 87v-496h-40z" />
    <glyph glyph-name="O.small" horiz-adv-x="668" 
d="M43 281q0 120 85 205t206 85t206 -85t85 -205t-85 -205.5t-206 -85.5t-206 85.5t-85 205.5zM85 281q0 -104 73 -178.5t176 -74.5t176 74.5t73 178.5t-73 178.5t-176 74.5t-176 -74.5t-73 -178.5z" />
    <glyph glyph-name="P.small" horiz-adv-x="570" 
d="M69 0v564h226q107 0 171 -60t64 -149q0 -88 -64 -147.5t-172 -59.5h-185v-148h-40zM302 526h-193v-341h192q82 0 134.5 49.5t52.5 120.5q0 72 -52.5 121.5t-133.5 49.5z" />
    <glyph glyph-name="Q.small" horiz-adv-x="668" 
d="M43 281q0 120 85 205t206 85t206 -85t85 -205q0 -109 -73 -193l64 -64l-24 -26l-66 65q-83 -73 -192 -73q-121 0 -206 85.5t-85 205.5zM85 281q0 -104 73 -178.5t176 -74.5q96 0 164 63l-74 75l25 25l75 -75q59 74 59 165q0 104 -73 178.5t-176 74.5t-176 -74.5
t-73 -178.5z" />
    <glyph glyph-name="R.small" horiz-adv-x="570" 
d="M69 0v564h226q110 0 172.5 -59.5t62.5 -149.5q0 -66 -37 -118t-104 -74l142 -163h-53l-130 151q-18 -3 -114 -3h-125v-148h-40zM109 185h193q81 0 133.5 49.5t52.5 120.5q0 72 -52 121.5t-133 49.5h-194v-341z" />
    <glyph glyph-name="S.small" horiz-adv-x="516" 
d="M45 80l27 29q76 -81 183 -81q79 0 127.5 35.5t48.5 87.5q0 46 -37.5 73t-91 39.5t-107 26.5t-91 46.5t-37.5 86.5q0 66 57 107t131 41q98 0 182 -63l-24 -30q-69 56 -159 56q-53 0 -99 -29.5t-46 -80.5q0 -43 37.5 -68t91 -37.5t107 -27t91 -49t37.5 -91.5
q0 -68 -60 -114.5t-158 -46.5q-123 0 -210 90z" />
    <glyph glyph-name="T.small" horiz-adv-x="513" 
d="M496 564v-38h-219v-526h-40v526h-220v38h479z" />
    <glyph glyph-name="U.small" horiz-adv-x="576" 
d="M288 -10q-96 0 -162 62t-66 161v351h40v-353q0 -80 54.5 -132t133.5 -52t133.5 51.5t54.5 132.5v353h40v-351q0 -99 -66 -161t-162 -62z" />
    <glyph glyph-name="V.small" horiz-adv-x="582" 
d="M302 -4h-22l-271 568h43l201 -424l38 -85l38 85l201 424h43z" />
    <glyph glyph-name="W.small" horiz-adv-x="807" 
d="M206 -4l-197 568h41l153 -442l19 -59q10 37 17 59l145 442h39l145 -442l17 -59q11 37 19 59l154 442h40l-198 -568h-32l-146 446l-19 66q-7 -33 -18 -66l-147 -446h-32z" />
    <glyph glyph-name="X.small" horiz-adv-x="522" 
d="M9 0l228 282l-228 282h49l158 -194l45 -59q18 26 45 60l158 193h49l-228 -282l228 -282h-48l-157 192l-47 61q-20 -28 -46 -60l-158 -193h-48z" />
    <glyph glyph-name="Y.small" horiz-adv-x="530" 
d="M246 0v274l-237 290h48l143 -174l66 -81l66 81l141 174h48l-235 -289v-275h-40z" />
    <glyph glyph-name="Z.small" horiz-adv-x="523" 
d="M34 0v38l368 450l31 38h-382v38h430v-38l-368 -451l-32 -38h408v-37h-455z" />
    <glyph glyph-name="Agrave.small" horiz-adv-x="598" 
d="M282 615l-83 116h53l72 -116h-42zM8 0l280 568h22l280 -568h-42l-55 112h-388l-55 -112h-42zM123 148h352l-127 258q-48 100 -49 103q-23 -54 -47 -102z" />
    <glyph glyph-name="Aacute.small" horiz-adv-x="598" 
d="M272 615l72 116h53l-83 -116h-42zM8 0l280 568h22l280 -568h-42l-55 112h-388l-55 -112h-42zM123 148h352l-127 258q-48 100 -49 103q-23 -54 -47 -102z" />
    <glyph glyph-name="Acircumflex.small" horiz-adv-x="598" 
d="M8 0l280 568h22l280 -568h-42l-55 112h-388l-55 -112h-42zM123 148h352l-127 258q-48 100 -49 103q-23 -54 -47 -102zM201 615l72 116h53l72 -116h-42l-57 83l-56 -83h-42z" />
    <glyph glyph-name="Atilde.small" horiz-adv-x="598" 
d="M194 610q0 34 16 58t42 24q20 0 53 -21.5t44 -21.5q13 0 20 12.5t7 30.5h33q0 -34 -16 -58t-42 -24q-21 0 -53 21.5t-44 21.5q-13 0 -20 -12.5t-7 -30.5h-33zM8 0l280 568h22l280 -568h-42l-55 112h-388l-55 -112h-42zM123 148h352l-127 258q-48 100 -49 103
q-23 -54 -47 -102z" />
    <glyph glyph-name="Adieresis.small" horiz-adv-x="598" 
d="M8 0l280 568h22l280 -568h-42l-55 112h-388l-55 -112h-42zM123 148h352l-127 258q-48 100 -49 103q-23 -54 -47 -102zM201 641q0 14 9.5 23.5t23.5 9.5q13 0 22 -9.5t9 -23.5q0 -13 -9 -22t-22 -9q-14 0 -23.5 9t-9.5 22zM336 641q0 14 9.5 23.5t23.5 9.5q13 0 22 -9.5
t9 -23.5q0 -13 -9 -22t-22 -9q-14 0 -23.5 9t-9.5 22z" />
    <glyph glyph-name="Amacron.small" horiz-adv-x="598" 
d="M213 625v35h176v-35h-176zM8 0l280 568h22l280 -568h-42l-55 112h-388l-55 -112h-42zM123 148h352l-127 258q-48 100 -49 103q-23 -54 -47 -102z" />
    <glyph glyph-name="Abreve.small" horiz-adv-x="598" 
d="M301 610q-39 0 -63.5 26t-24.5 64h30q8 -52 58 -52t58 52h30q0 -38 -24.5 -64t-63.5 -26zM8 0l280 568h22l280 -568h-42l-55 112h-388l-55 -112h-42zM123 148h352l-127 258q-48 100 -49 103q-23 -54 -47 -102z" />
    <glyph glyph-name="Aring.small" horiz-adv-x="598" 
d="M210 693q0 38 27.5 65.5t65.5 27.5t65.5 -27.5t27.5 -65.5t-27.5 -65.5t-65.5 -27.5t-65.5 27.5t-27.5 65.5zM244 693q0 -26 17 -44.5t42 -18.5t42 18.5t17 44.5t-17 44.5t-42 18.5t-42 -18.5t-17 -44.5zM8 0l280 568h22l280 -568h-42l-55 112h-388l-55 -112h-42z
M123 148h352l-127 258q-48 100 -49 103q-23 -54 -47 -102z" />
    <glyph glyph-name="Aringacute.small" horiz-adv-x="598" 
d="M8 0l280 568h22l280 -568h-42l-55 112h-388l-55 -112h-42zM123 148h352l-127 258q-43 86 -49 102l-3 -6q-3 -7 -7.5 -17t-10 -22.5t-13 -27.5t-13.5 -28zM210 693q0 27 15 50t39 34l67 108h53l-71 -100q35 -4 59 -30.5t24 -61.5q0 -38 -27.5 -65.5t-65.5 -27.5
t-65.5 27.5t-27.5 65.5zM244 693q0 -26 17 -44.5t42 -18.5t42 18.5t17 44.5t-17 44.5t-42 18.5t-42 -18.5t-17 -44.5z" />
    <glyph glyph-name="Aogonek.small" horiz-adv-x="598" 
d="M8 0l280 568h22l280 -568h-9q-23 -22 -39 -57.5t-16 -66.5q0 -26 16 -42t40 -16q22 0 45 13l15 -30q-27 -21 -62 -21q-38 0 -66 24.5t-28 67.5q0 76 60 131l-53 109h-388l-55 -112h-42zM123 148h352l-127 258q-43 86 -49 102l-3 -6q-3 -7 -7.5 -17t-10 -22.5t-13 -27.5
t-13.5 -28z" />
    <glyph glyph-name="AE.small" horiz-adv-x="805" 
d="M8 0l378 564h373v-38h-318v-206h297v-37h-297v-246h330v-37h-370v112h-274l-74 -112h-45zM151 148h250v376l-46 -72z" />
    <glyph glyph-name="AEacute.small" horiz-adv-x="805" 
d="M477 615l72 116h53l-83 -116h-42zM8 0l378 564h373v-38h-318v-206h297v-37h-297v-246h330v-37h-370v112h-274l-74 -112h-45zM151 148h250v376l-46 -72z" />
    <glyph glyph-name="Cacute.small" horiz-adv-x="564" 
d="M302 615l72 116h53l-83 -116h-42zM43 281q0 120 84.5 205t205.5 85q118 0 201 -80l-27 -28q-74 71 -172 71q-104 0 -177 -74t-73 -179q0 -104 73 -178.5t176 -74.5q112 0 186 84l27 -29q-85 -93 -213 -93q-121 0 -206 85.5t-85 205.5z" />
    <glyph glyph-name="Ccircumflex.small" horiz-adv-x="564" 
d="M43 281q0 120 84.5 205t205.5 85q118 0 201 -80l-27 -28q-74 71 -172 71q-104 0 -177 -74t-73 -179q0 -104 73 -178.5t176 -74.5q112 0 186 84l27 -29q-85 -93 -213 -93q-121 0 -206 85.5t-85 205.5zM236 615l72 116h53l72 -116h-42l-57 83l-56 -83h-42z" />
    <glyph glyph-name="Ccaron.small" horiz-adv-x="564" 
d="M308 615l-72 116h42l56 -83l57 83h42l-72 -116h-53zM43 281q0 120 84.5 205t205.5 85q118 0 201 -80l-27 -28q-74 71 -172 71q-104 0 -177 -74t-73 -179q0 -104 73 -178.5t176 -74.5q112 0 186 84l27 -29q-85 -93 -213 -93q-121 0 -206 85.5t-85 205.5z" />
    <glyph glyph-name="Cdotaccent.small" horiz-adv-x="564" 
d="M43 281q0 120 84.5 205t205.5 85q118 0 201 -80l-27 -28q-74 71 -172 71q-104 0 -177 -74t-73 -179q0 -104 73 -178.5t176 -74.5q112 0 186 84l27 -29q-85 -93 -213 -93q-121 0 -206 85.5t-85 205.5zM296 641q0 13 9 22t22 9t22 -9t9 -22t-9 -22t-22 -9t-22 9t-9 22z" />
    <glyph glyph-name="Ccedilla.small" horiz-adv-x="564" 
d="M219 -182l15 25q36 -24 85 -24q37 0 58.5 17t21.5 39q0 39 -53 39q-21 0 -42 -8.5t-31 -18.5l-27 13l54 92q-109 12 -183 95t-74 194q0 120 84.5 205t205.5 85q118 0 201 -80l-27 -28q-74 71 -172 71q-104 0 -177 -74t-73 -179q0 -104 73 -178.5t176 -74.5q112 0 186 84
l27 -29q-85 -93 -213 -93h-4l-36 -62q24 13 56 13q34 0 58.5 -16t24.5 -48q0 -40 -34.5 -63t-80.5 -23q-58 0 -99 27z" />
    <glyph glyph-name="Dcaron.small" horiz-adv-x="611" 
d="M235 615l-72 116h42l56 -83l57 83h42l-72 -116h-53zM109 37h163q113 0 183.5 69.5t70.5 175.5t-70.5 175t-183.5 69h-163v-489zM69 0v564h207q130 0 211 -81.5t81 -200.5t-81 -200.5t-211 -81.5h-207z" />
    <glyph glyph-name="Dcroat.small" horiz-adv-x="611" 
d="M69 0v270h-86v36h86v258h216q118 0 200.5 -82.5t82.5 -199.5t-82.5 -199.5t-200.5 -82.5h-216zM109 37h175q101 0 171.5 71.5t70.5 173.5q0 123 -84 183.5t-216 60.5h-117v-220h190v-36h-190v-233z" />
    <glyph glyph-name="Egrave.small" horiz-adv-x="540" 
d="M285 615l-83 116h53l72 -116h-42zM69 0v564h424v-38h-384v-205h365v-37h-365v-247h397v-37h-437z" />
    <glyph glyph-name="Eacute.small" horiz-adv-x="540" 
d="M233 615l72 116h53l-83 -116h-42zM69 0v564h424v-38h-384v-205h365v-37h-365v-247h397v-37h-437z" />
    <glyph glyph-name="Ecircumflex.small" horiz-adv-x="540" 
d="M69 0v564h424v-38h-384v-205h365v-37h-365v-247h397v-37h-437zM194 615l72 116h53l72 -116h-42l-57 83l-56 -83h-42z" />
    <glyph glyph-name="Ecaron.small" horiz-adv-x="540" 
d="M249 615l-72 116h42l56 -83l57 83h42l-72 -116h-53zM69 0v564h424v-38h-384v-205h365v-37h-365v-247h397v-37h-437z" />
    <glyph glyph-name="Edieresis.small" horiz-adv-x="540" 
d="M69 0v564h424v-38h-384v-205h365v-37h-365v-247h397v-37h-437zM193 641q0 14 9.5 23.5t23.5 9.5q13 0 22 -9.5t9 -23.5q0 -13 -9 -22t-22 -9q-14 0 -23.5 9t-9.5 22zM328 641q0 14 9.5 23.5t23.5 9.5q13 0 22 -9.5t9 -23.5q0 -13 -9 -22t-22 -9q-14 0 -23.5 9t-9.5 22z
" />
    <glyph glyph-name="Emacron.small" horiz-adv-x="540" 
d="M188 625v35h176v-35h-176zM69 0v564h424v-38h-384v-205h365v-37h-365v-247h397v-37h-437z" />
    <glyph glyph-name="Ebreve.small" horiz-adv-x="540" 
d="M276 610q-39 0 -63.5 26t-24.5 64h30q8 -52 58 -52t58 52h30q0 -38 -24.5 -64t-63.5 -26zM69 0v564h424v-38h-384v-205h365v-37h-365v-247h397v-37h-437z" />
    <glyph glyph-name="Edotaccent.small" horiz-adv-x="540" 
d="M69 0v564h424v-38h-384v-205h365v-37h-365v-247h397v-37h-437zM253 641q0 13 9 22t22 9t22 -9t9 -22t-9 -22t-22 -9t-22 9t-9 22z" />
    <glyph glyph-name="Eogonek.small" horiz-adv-x="550" 
d="M69 0v564h424v-38h-384v-205h365v-37h-365v-247h397v-37h-68q-23 -22 -39 -57.5t-16 -66.5q0 -26 15.5 -42t40.5 -16q22 0 45 13l15 -30q-27 -21 -62 -21q-38 0 -66 24.5t-28 67.5q0 74 57 128h-331z" />
    <glyph glyph-name="Gcircumflex.small" horiz-adv-x="621" 
d="M43 281q0 120 85 205t206 85q116 0 200 -79l-28 -29q-71 71 -172 71q-103 0 -176 -74.5t-73 -178.5t73 -178.5t176 -74.5q62 0 116 29t89 79v136h-142v37h181v-186q-40 -61 -104 -97t-140 -36q-121 0 -206 85.5t-85 205.5zM226 615l72 116h53l72 -116h-42l-57 83l-56 -83
h-42z" />
    <glyph glyph-name="Gbreve.small" horiz-adv-x="621" 
d="M328 610q-39 0 -63.5 26t-24.5 64h30q8 -52 58 -52t58 52h30q0 -38 -24.5 -64t-63.5 -26zM43 281q0 120 85 205t206 85q116 0 200 -79l-28 -29q-71 71 -172 71q-103 0 -176 -74.5t-73 -178.5t73 -178.5t176 -74.5q62 0 116 29t89 79v136h-142v37h181v-186
q-40 -61 -104 -97t-140 -36q-121 0 -206 85.5t-85 205.5z" />
    <glyph glyph-name="Gdotaccent.small" horiz-adv-x="621" 
d="M43 281q0 120 85 205t206 85q116 0 200 -79l-28 -29q-71 71 -172 71q-103 0 -176 -74.5t-73 -178.5t73 -178.5t176 -74.5q62 0 116 29t89 79v136h-142v37h181v-186q-40 -61 -104 -97t-140 -36q-121 0 -206 85.5t-85 205.5zM298 641q0 13 9 22t22 9t22 -9t9 -22t-9 -22
t-22 -9t-22 9t-9 22z" />
    <glyph glyph-name="Gcommaaccent.small" horiz-adv-x="621" 
d="M43 281q0 120 85 205t206 85q116 0 200 -79l-28 -29q-71 71 -172 71q-103 0 -176 -74.5t-73 -178.5t73 -178.5t176 -74.5q62 0 116 29t89 79v136h-142v37h181v-186q-40 -61 -104 -97t-140 -36q-121 0 -206 85.5t-85 205.5zM268 -235q62 62 62 147q0 15 -2 26l39 13
q3 -18 3 -34q0 -54 -22 -94t-47 -58h-33z" />
    <glyph glyph-name="Hcircumflex.small" horiz-adv-x="592" 
d="M69 0v564h40v-242h374v242h40v-564h-40v284h-374v-284h-40zM197 615l72 116h53l72 -116h-42l-57 83l-56 -83h-42z" />
    <glyph glyph-name="Hbar.small" horiz-adv-x="592" 
d="M69 0v442h-35v36h35v86h40v-86h374v86h40v-86h35v-36h-35v-442h-40v284h-374v-284h-40zM109 322h374v120h-374v-120z" />
    <glyph glyph-name="Igrave.small" horiz-adv-x="178" 
d="M81 615l-83 116h53l72 -116h-42zM69 0v564h40v-564h-40z" />
    <glyph glyph-name="Iacute.small" horiz-adv-x="178" 
d="M54 615l72 116h53l-83 -116h-42zM69 0v564h40v-564h-40z" />
    <glyph glyph-name="Icircumflex.small" horiz-adv-x="178" 
d="M69 0v564h40v-564h-40zM-9 615l72 116h53l72 -116h-42l-57 83l-56 -83h-42z" />
    <glyph glyph-name="Itilde.small" horiz-adv-x="178" 
d="M-18 610q0 34 16 58t42 24q20 0 53 -21.5t44 -21.5q13 0 20 12.5t7 30.5h33q0 -34 -16 -58t-42 -24q-20 0 -52.5 21.5t-44.5 21.5q-13 0 -20 -12.5t-7 -30.5h-33zM69 0v564h40v-564h-40z" />
    <glyph glyph-name="Idieresis.small" horiz-adv-x="178" 
d="M69 0v564h40v-564h-40zM-11 641q0 14 9.5 23.5t23.5 9.5q13 0 22 -9.5t9 -23.5q0 -13 -9 -22t-22 -9q-14 0 -23.5 9t-9.5 22zM124 641q0 14 9.5 23.5t23.5 9.5q13 0 22 -9.5t9 -23.5q0 -13 -9 -22t-22 -9q-14 0 -23.5 9t-9.5 22z" />
    <glyph glyph-name="Imacron.small" horiz-adv-x="178" 
d="M1 625v35h176v-35h-176zM69 0v564h40v-564h-40z" />
    <glyph glyph-name="Ibreve.small" horiz-adv-x="178" 
d="M89 610q-39 0 -63.5 26t-24.5 64h30q8 -52 58 -52t58 52h30q0 -38 -24.5 -64t-63.5 -26zM69 0v564h40v-564h-40z" />
    <glyph glyph-name="Idotaccent.small" horiz-adv-x="178" 
d="M69 0v564h40v-564h-40zM58 641q0 13 9 22t22 9t22 -9t9 -22t-9 -22t-22 -9t-22 9t-9 22z" />
    <glyph glyph-name="Iogonek.small" horiz-adv-x="178" 
d="M6 -128q0 78 63 133v559h40v-564h-8q-23 -22 -39 -57.5t-16 -66.5q0 -26 16 -42t40 -16q22 0 45 13l15 -30q-27 -21 -62 -21q-38 0 -66 24.5t-28 67.5z" />
    <glyph glyph-name="Jcircumflex.small" horiz-adv-x="446" 
d="M25 81l33 23q38 -74 123 -74q73 0 119 46.5t46 141.5v346h40v-346q0 -115 -57 -171.5t-148 -56.5q-105 0 -156 91zM268 615l72 116h53l72 -116h-42l-57 83l-56 -83h-42z" />
    <glyph glyph-name="Kcommaaccent.small" horiz-adv-x="546" 
d="M69 0v564h40v-388l48 55l313 333h51l-240 -257l256 -307h-50l-233 279l-145 -154v-125h-40zM168 -235q62 62 62 147q0 15 -2 26l39 13q3 -18 3 -34q0 -54 -22 -94t-47 -58h-33z" />
    <glyph glyph-name="Lacute.small" horiz-adv-x="516" 
d="M60 615l72 116h53l-83 -116h-42zM69 0v564h40v-527h373v-37h-413z" />
    <glyph glyph-name="Lcaron.small" horiz-adv-x="516" 
d="M69 0v564h40v-527h373v-37h-413zM145 378q62 62 62 147q0 15 -2 26l39 13q3 -18 3 -34q0 -54 -22 -94t-47 -58h-33z" />
    <glyph glyph-name="Lcommaaccent.small" horiz-adv-x="516" 
d="M69 0v564h40v-527h373v-37h-413zM209 -235q62 62 62 147q0 15 -2 26l39 13q3 -18 3 -34q0 -54 -22 -94t-47 -58h-33z" />
    <glyph glyph-name="Lslash.small" horiz-adv-x="516" 
d="M69 0v261l-49 -20v40l49 20v263h40v-246l166 71v-38l-166 -72v-242h373v-37h-413z" />
    <glyph glyph-name="Nacute.small" horiz-adv-x="608" 
d="M268 615l72 116h53l-83 -116h-42zM69 0v564h34l335 -418l61 -82v500h40v-564h-36l-328 409l-66 87v-496h-40z" />
    <glyph glyph-name="Ncaron.small" horiz-adv-x="608" 
d="M277 615l-72 116h42l56 -83l57 83h42l-72 -116h-53zM69 0v564h34l335 -418l61 -82v500h40v-564h-36l-328 409l-66 87v-496h-40z" />
    <glyph glyph-name="Ntilde.small" horiz-adv-x="608" 
d="M197 610q0 34 16 58t42 24q21 0 53 -21.5t44 -21.5q13 0 20 12.5t7 30.5h33q0 -34 -16 -58t-42 -24q-20 0 -53 21.5t-44 21.5q-13 0 -20 -12.5t-7 -30.5h-33zM69 0v564h34l335 -418l61 -82v500h40v-564h-36l-328 409l-66 87v-496h-40z" />
    <glyph glyph-name="Ncommaaccent.small" horiz-adv-x="608" 
d="M69 0v564h34l335 -418l61 -82v500h40v-564h-36l-328 409l-66 87v-496h-40zM243 -235q62 62 62 147q0 15 -2 26l39 13q3 -18 3 -34q0 -54 -22 -94t-47 -58h-33z" />
    <glyph glyph-name="Ograve.small" horiz-adv-x="668" 
d="M327 615l-83 116h53l72 -116h-42zM43 281q0 120 85 205t206 85t206 -85t85 -205t-85 -205.5t-206 -85.5t-206 85.5t-85 205.5zM85 281q0 -104 73 -178.5t176 -74.5t176 74.5t73 178.5t-73 178.5t-176 74.5t-176 -74.5t-73 -178.5z" />
    <glyph glyph-name="Oacute.small" horiz-adv-x="668" 
d="M300 615l72 116h53l-83 -116h-42zM43 281q0 120 85 205t206 85t206 -85t85 -205t-85 -205.5t-206 -85.5t-206 85.5t-85 205.5zM85 281q0 -104 73 -178.5t176 -74.5t176 74.5t73 178.5t-73 178.5t-176 74.5t-176 -74.5t-73 -178.5z" />
    <glyph glyph-name="Ocircumflex.small" horiz-adv-x="668" 
d="M43 281q0 120 85 205t206 85t206 -85t85 -205t-85 -205.5t-206 -85.5t-206 85.5t-85 205.5zM85 281q0 -104 73 -178.5t176 -74.5t176 74.5t73 178.5t-73 178.5t-176 74.5t-176 -74.5t-73 -178.5zM237 615l72 116h53l72 -116h-42l-57 83l-56 -83h-42z" />
    <glyph glyph-name="Otilde.small" horiz-adv-x="668" 
d="M227 610q0 34 16 58t42 24q21 0 53 -21.5t44 -21.5q13 0 20 12.5t7 30.5h33q0 -34 -16 -58t-42 -24q-20 0 -53 21.5t-44 21.5q-13 0 -20 -12.5t-7 -30.5h-33zM43 281q0 120 85 205t206 85t206 -85t85 -205t-85 -205.5t-206 -85.5t-206 85.5t-85 205.5zM85 281
q0 -104 73 -178.5t176 -74.5t176 74.5t73 178.5t-73 178.5t-176 74.5t-176 -74.5t-73 -178.5z" />
    <glyph glyph-name="Odieresis.small" horiz-adv-x="668" 
d="M43 281q0 120 85 205t206 85t206 -85t85 -205t-85 -205.5t-206 -85.5t-206 85.5t-85 205.5zM85 281q0 -104 73 -178.5t176 -74.5t176 74.5t73 178.5t-73 178.5t-176 74.5t-176 -74.5t-73 -178.5zM234 641q0 14 9.5 23.5t23.5 9.5q13 0 22 -9.5t9 -23.5q0 -13 -9 -22
t-22 -9q-14 0 -23.5 9t-9.5 22zM369 641q0 14 9.5 23.5t23.5 9.5q13 0 22 -9.5t9 -23.5q0 -13 -9 -22t-22 -9q-14 0 -23.5 9t-9.5 22z" />
    <glyph glyph-name="Omacron.small" horiz-adv-x="668" 
d="M246 625v35h176v-35h-176zM43 281q0 120 85 205t206 85t206 -85t85 -205t-85 -205.5t-206 -85.5t-206 85.5t-85 205.5zM85 281q0 -104 73 -178.5t176 -74.5t176 74.5t73 178.5t-73 178.5t-176 74.5t-176 -74.5t-73 -178.5z" />
    <glyph glyph-name="Obreve.small" horiz-adv-x="668" 
d="M334 610q-39 0 -63.5 26t-24.5 64h30q8 -52 58 -52t58 52h30q0 -38 -24.5 -64t-63.5 -26zM43 281q0 120 85 205t206 85t206 -85t85 -205t-85 -205.5t-206 -85.5t-206 85.5t-85 205.5zM85 281q0 -104 73 -178.5t176 -74.5t176 74.5t73 178.5t-73 178.5t-176 74.5
t-176 -74.5t-73 -178.5z" />
    <glyph glyph-name="Ohungarumlaut.small" horiz-adv-x="668" 
d="M43 281q0 120 85 205t206 85t206 -85t85 -205t-85 -205.5t-206 -85.5t-206 85.5t-85 205.5zM85 281q0 -104 73 -178.5t176 -74.5t176 74.5t73 178.5t-73 178.5t-176 74.5t-176 -74.5t-73 -178.5zM252 615l72 116h53l-83 -116h-42zM352 615l72 116h53l-83 -116h-42z" />
    <glyph glyph-name="Oslash.small" horiz-adv-x="668" 
d="M150 -59l-29 17l50 82q-59 40 -93.5 103.5t-34.5 137.5q0 120 85 205t206 85q72 0 135 -33l49 81l29 -17l-49 -81q59 -40 93 -103.5t34 -136.5q0 -120 -85 -205.5t-206 -85.5q-71 0 -135 33zM85 281q0 -64 28.5 -118.5t77.5 -88.5l258 431q-52 29 -115 29
q-103 0 -176 -74.5t-73 -178.5zM219 56q53 -28 115 -28q103 0 176 74.5t73 178.5q0 63 -28 117.5t-77 88.5z" />
    <glyph glyph-name="Oslashacute.small" horiz-adv-x="668" 
d="M301 615l72 116h53l-83 -116h-42zM150 -59l-29 17l50 82q-59 40 -93.5 103.5t-34.5 137.5q0 120 85 205t206 85q72 0 135 -33l49 81l29 -17l-49 -81q59 -40 93 -103.5t34 -136.5q0 -120 -85 -205.5t-206 -85.5q-71 0 -135 33zM85 281q0 -64 28.5 -118.5t77.5 -88.5
l258 431q-52 29 -115 29q-103 0 -176 -74.5t-73 -178.5zM219 56q53 -28 115 -28q103 0 176 74.5t73 178.5q0 63 -28 117.5t-77 88.5z" />
    <glyph glyph-name="OE.small" horiz-adv-x="884" 
d="M43 281q0 120 85 205t206 85q82 0 146 -45v38h358v-38h-318v-206h299v-37h-299v-246h330v-37h-370v34q-62 -44 -146 -44q-121 0 -206 85.5t-85 205.5zM85 281q0 -105 73 -179t177 -74q82 0 145 48v410q-66 48 -145 48q-104 0 -177 -74t-73 -179z" />
    <glyph glyph-name="Racute.small" horiz-adv-x="570" 
d="M207 615l72 116h53l-83 -116h-42zM69 0v564h226q110 0 172.5 -59.5t62.5 -149.5q0 -66 -37 -118t-104 -74l142 -163h-53l-130 151q-18 -3 -114 -3h-125v-148h-40zM109 185h193q81 0 133.5 49.5t52.5 120.5q0 72 -52 121.5t-133 49.5h-194v-341z" />
    <glyph glyph-name="Rcaron.small" horiz-adv-x="570" 
d="M225 615l-72 116h42l56 -83l57 83h42l-72 -116h-53zM69 0v564h226q110 0 172.5 -59.5t62.5 -149.5q0 -66 -37 -118t-104 -74l142 -163h-53l-130 151q-18 -3 -114 -3h-125v-148h-40zM109 185h193q81 0 133.5 49.5t52.5 120.5q0 72 -52 121.5t-133 49.5h-194v-341z" />
    <glyph glyph-name="Rcommaaccent.small" horiz-adv-x="570" 
d="M69 0v564h226q110 0 172.5 -59.5t62.5 -149.5q0 -66 -37 -118t-104 -74l142 -163h-53l-130 151q-18 -3 -114 -3h-125v-148h-40zM109 185h193q81 0 133.5 49.5t52.5 120.5q0 72 -52 121.5t-133 49.5h-194v-341zM183 -235q62 62 62 147q0 15 -2 26l39 13q3 -18 3 -34
q0 -54 -22 -94t-47 -58h-33z" />
    <glyph glyph-name="Sacute.small" horiz-adv-x="516" 
d="M225 615l72 116h53l-83 -116h-42zM45 80l27 29q76 -81 183 -81q79 0 127.5 35.5t48.5 87.5q0 46 -37.5 73t-91 39.5t-107 26.5t-91 46.5t-37.5 86.5q0 66 57 107t131 41q98 0 182 -63l-24 -30q-69 56 -159 56q-53 0 -99 -29.5t-46 -80.5q0 -43 37.5 -68t91 -37.5t107 -27
t91 -49t37.5 -91.5q0 -68 -60 -114.5t-158 -46.5q-123 0 -210 90z" />
    <glyph glyph-name="Scircumflex.small" horiz-adv-x="516" 
d="M45 80l27 29q76 -81 183 -81q79 0 127.5 35.5t48.5 87.5q0 46 -37.5 73t-91 39.5t-107 26.5t-91 46.5t-37.5 86.5q0 66 57 107t131 41q98 0 182 -63l-24 -30q-69 56 -159 56q-53 0 -99 -29.5t-46 -80.5q0 -43 37.5 -68t91 -37.5t107 -27t91 -49t37.5 -91.5
q0 -68 -60 -114.5t-158 -46.5q-123 0 -210 90zM161 615l72 116h53l72 -116h-42l-57 83l-56 -83h-42z" />
    <glyph glyph-name="Scaron.small" horiz-adv-x="516" 
d="M232 615l-72 116h42l56 -83l57 83h42l-72 -116h-53zM45 80l27 29q76 -81 183 -81q79 0 127.5 35.5t48.5 87.5q0 46 -37.5 73t-91 39.5t-107 26.5t-91 46.5t-37.5 86.5q0 66 57 107t131 41q98 0 182 -63l-24 -30q-69 56 -159 56q-53 0 -99 -29.5t-46 -80.5q0 -43 37.5 -68
t91 -37.5t107 -27t91 -49t37.5 -91.5q0 -68 -60 -114.5t-158 -46.5q-123 0 -210 90z" />
    <glyph glyph-name="Scedilla.small" horiz-adv-x="516" 
d="M173 -182l15 25q36 -24 85 -24q37 0 58.5 17t21.5 39q0 39 -53 39q-21 0 -42 -8.5t-31 -18.5l-27 13l53 90q-124 1 -208 90l27 29q76 -81 183 -81q79 0 127.5 35.5t48.5 87.5q0 46 -37.5 73t-91 39.5t-107 26.5t-91 46.5t-37.5 86.5q0 66 57 107t131 41q98 0 182 -63
l-24 -30q-69 56 -159 56q-53 0 -99 -29.5t-46 -80.5q0 -43 37.5 -68t91 -37.5t107 -27t91 -49t37.5 -91.5q0 -63 -51.5 -108t-136.5 -52l-37 -63q24 13 56 13q34 0 58.5 -16t24.5 -48q0 -40 -34.5 -63t-80.5 -23q-59 0 -99 27z" />
    <glyph glyph-name="Scommaaccent.small" horiz-adv-x="516" 
d="M45 80l27 29q76 -81 183 -81q79 0 127.5 35.5t48.5 87.5q0 46 -37.5 73t-91 39.5t-107 26.5t-91 46.5t-37.5 86.5q0 66 57 107t131 41q98 0 182 -63l-24 -30q-69 56 -159 56q-53 0 -99 -29.5t-46 -80.5q0 -43 37.5 -68t91 -37.5t107 -27t91 -49t37.5 -91.5
q0 -68 -60 -114.5t-158 -46.5q-123 0 -210 90zM190 -235q62 62 62 147q0 15 -2 26l39 13q3 -18 3 -34q0 -54 -22 -94t-47 -58h-33z" />
    <glyph glyph-name="germandbls.small" horiz-adv-x="466" 
d="M60 0v398q0 86 40.5 130t108.5 44q66 0 110 -45t44 -111q0 -96 -60 -130q55 -7 91.5 -49.5t36.5 -95.5q0 -64 -41 -107.5t-110 -43.5q-67 0 -108 42l24 27q31 -33 83 -33q49 0 80.5 33.5t31.5 82.5t-35 81.5t-100 32.5h-37v33h6q35 0 67 31t32 94q0 51 -32 86.5t-83 35.5
q-49 0 -80 -35t-31 -97v-404h-38z" />
    <glyph glyph-name="Tcaron.small" horiz-adv-x="513" 
d="M229 615l-72 116h42l56 -83l57 83h42l-72 -116h-53zM496 564v-38h-219v-526h-40v526h-220v38h479z" />
    <glyph glyph-name="Tcommaaccent.small" horiz-adv-x="513" 
d="M496 564v-38h-219v-526h-40v526h-220v38h479zM183 -235q62 62 62 147q0 15 -2 26l39 13q3 -18 3 -34q0 -54 -22 -94t-47 -58h-33z" />
    <glyph glyph-name="Tbar.small" horiz-adv-x="513" 
d="M496 564v-38h-219v-178h141v-36h-141v-312h-40v312h-142v36h142v178h-220v38h479z" />
    <glyph glyph-name="Ugrave.small" horiz-adv-x="576" 
d="M295 615l-83 116h53l72 -116h-42zM288 -10q-96 0 -162 62t-66 161v351h40v-353q0 -80 54.5 -132t133.5 -52t133.5 51.5t54.5 132.5v353h40v-351q0 -99 -66 -161t-162 -62z" />
    <glyph glyph-name="Uacute.small" horiz-adv-x="576" 
d="M240 615l72 116h53l-83 -116h-42zM288 -10q-96 0 -162 62t-66 161v351h40v-353q0 -80 54.5 -132t133.5 -52t133.5 51.5t54.5 132.5v353h40v-351q0 -99 -66 -161t-162 -62z" />
    <glyph glyph-name="Ucircumflex.small" horiz-adv-x="576" 
d="M288 -10q-96 0 -162 62t-66 161v351h40v-353q0 -80 54.5 -132t133.5 -52t133.5 51.5t54.5 132.5v353h40v-351q0 -99 -66 -161t-162 -62zM191 615l72 116h53l72 -116h-42l-57 83l-56 -83h-42z" />
    <glyph glyph-name="Utilde.small" horiz-adv-x="576" 
d="M180 610q0 34 16 58t42 24q20 0 53 -21.5t44 -21.5q13 0 20 12.5t7 30.5h33q0 -34 -16 -58t-42 -24q-21 0 -53 21.5t-44 21.5q-13 0 -20 -12.5t-7 -30.5h-33zM288 -10q-96 0 -162 62t-66 161v351h40v-353q0 -80 54.5 -132t133.5 -52t133.5 51.5t54.5 132.5v353h40v-351
q0 -99 -66 -161t-162 -62z" />
    <glyph glyph-name="Udieresis.small" horiz-adv-x="576" 
d="M288 -10q-96 0 -162 62t-66 161v351h40v-353q0 -80 54.5 -132t133.5 -52t133.5 51.5t54.5 132.5v353h40v-351q0 -99 -66 -161t-162 -62zM188 641q0 14 9.5 23.5t23.5 9.5q13 0 22 -9.5t9 -23.5q0 -13 -9 -22t-22 -9q-14 0 -23.5 9t-9.5 22zM323 641q0 14 9.5 23.5
t23.5 9.5q13 0 22 -9.5t9 -23.5q0 -13 -9 -22t-22 -9q-14 0 -23.5 9t-9.5 22z" />
    <glyph glyph-name="Umacron.small" horiz-adv-x="576" 
d="M200 625v35h176v-35h-176zM288 -10q-96 0 -162 62t-66 161v351h40v-353q0 -80 54.5 -132t133.5 -52t133.5 51.5t54.5 132.5v353h40v-351q0 -99 -66 -161t-162 -62z" />
    <glyph glyph-name="Ubreve.small" horiz-adv-x="576" 
d="M288 610q-39 0 -63.5 26t-24.5 64h30q8 -52 58 -52t58 52h30q0 -38 -24.5 -64t-63.5 -26zM288 -10q-96 0 -162 62t-66 161v351h40v-353q0 -80 54.5 -132t133.5 -52t133.5 51.5t54.5 132.5v353h40v-351q0 -99 -66 -161t-162 -62z" />
    <glyph glyph-name="Uring.small" horiz-adv-x="576" 
d="M197 678q0 38 27.5 65.5t65.5 27.5t65.5 -27.5t27.5 -65.5t-27.5 -65.5t-65.5 -27.5t-65.5 27.5t-27.5 65.5zM231 678q0 -26 17 -44.5t42 -18.5t42 18.5t17 44.5t-17 44.5t-42 18.5t-42 -18.5t-17 -44.5zM288 -10q-96 0 -162 62t-66 161v351h40v-353q0 -80 54.5 -132
t133.5 -52t133.5 51.5t54.5 132.5v353h40v-351q0 -99 -66 -161t-162 -62z" />
    <glyph glyph-name="Uhungarumlaut.small" horiz-adv-x="576" 
d="M288 -10q-96 0 -162 62t-66 161v351h40v-353q0 -80 54.5 -132t133.5 -52t133.5 51.5t54.5 132.5v353h40v-351q0 -99 -66 -161t-162 -62zM202 615l72 116h53l-83 -116h-42zM302 615l72 116h53l-83 -116h-42z" />
    <glyph glyph-name="Uogonek.small" horiz-adv-x="576" 
d="M288 -10q-96 0 -162 62t-66 161v351h40v-353q0 -80 54.5 -132t133.5 -52t133.5 51.5t54.5 132.5v353h40v-351q0 -82 -47 -139.5t-121 -75.5q-23 -23 -37.5 -57t-14.5 -65q0 -26 16 -42t40 -16q22 0 45 13l15 -30q-27 -21 -62 -21q-38 0 -66 24.5t-28 67.5q0 66 48 119
q-6 -1 -16 -1z" />
    <glyph glyph-name="Wgrave.small" horiz-adv-x="807" 
d="M390 615l-83 116h53l72 -116h-42zM206 -4l-197 568h41l153 -442l19 -59q10 37 17 59l145 442h39l145 -442l17 -59q11 37 19 59l154 442h40l-198 -568h-32l-146 446l-19 66q-7 -33 -18 -66l-147 -446h-32z" />
    <glyph glyph-name="Wacute.small" horiz-adv-x="807" 
d="M369 615l72 116h53l-83 -116h-42zM206 -4l-197 568h41l153 -442l19 -59q10 37 17 59l145 442h39l145 -442l17 -59q11 37 19 59l154 442h40l-198 -568h-32l-146 446l-19 66q-7 -33 -18 -66l-147 -446h-32z" />
    <glyph glyph-name="Wcircumflex.small" horiz-adv-x="807" 
d="M206 -4l-197 568h41l153 -442l19 -59q10 37 17 59l145 442h39l145 -442l17 -59q11 37 19 59l154 442h40l-198 -568h-32l-146 446l-19 66q-7 -33 -18 -66l-147 -446h-32zM304 615l72 116h53l72 -116h-42l-57 83l-56 -83h-42z" />
    <glyph glyph-name="Wdieresis.small" horiz-adv-x="807" 
d="M206 -4l-197 568h41l153 -442l19 -59q10 37 17 59l145 442h39l145 -442l17 -59q11 37 19 59l154 442h40l-198 -568h-32l-146 446l-19 66q-7 -33 -18 -66l-147 -446h-32zM302 641q0 14 9.5 23.5t23.5 9.5q13 0 22 -9.5t9 -23.5q0 -13 -9 -22t-22 -9q-14 0 -23.5 9t-9.5 22
zM437 641q0 14 9.5 23.5t23.5 9.5q13 0 22 -9.5t9 -23.5q0 -13 -9 -22t-22 -9q-14 0 -23.5 9t-9.5 22z" />
    <glyph glyph-name="Ygrave.small" horiz-adv-x="530" 
d="M257 615l-83 116h53l72 -116h-42zM246 0v274l-237 290h48l143 -174l66 -81l66 81l141 174h48l-235 -289v-275h-40z" />
    <glyph glyph-name="Yacute.small" horiz-adv-x="530" 
d="M230 615l72 116h53l-83 -116h-42zM246 0v274l-237 290h48l143 -174l66 -81l66 81l141 174h48l-235 -289v-275h-40z" />
    <glyph glyph-name="Ycircumflex.small" horiz-adv-x="530" 
d="M246 0v274l-237 290h48l143 -174l66 -81l66 81l141 174h48l-235 -289v-275h-40zM166 615l72 116h53l72 -116h-42l-57 83l-56 -83h-42z" />
    <glyph glyph-name="Ydieresis.small" horiz-adv-x="530" 
d="M246 0v274l-237 290h48l143 -174l66 -81l66 81l141 174h48l-235 -289v-275h-40zM165 641q0 14 9.5 23.5t23.5 9.5q13 0 22 -9.5t9 -23.5q0 -13 -9 -22t-22 -9q-14 0 -23.5 9t-9.5 22zM300 641q0 14 9.5 23.5t23.5 9.5q13 0 22 -9.5t9 -23.5q0 -13 -9 -22t-22 -9
q-14 0 -23.5 9t-9.5 22z" />
    <glyph glyph-name="Zacute.small" horiz-adv-x="523" 
d="M226 615l72 116h53l-83 -116h-42zM34 0v38l368 450l31 38h-382v38h430v-38l-368 -451l-32 -38h408v-37h-455z" />
    <glyph glyph-name="Zcaron.small" horiz-adv-x="523" 
d="M235 615l-72 116h42l56 -83l57 83h42l-72 -116h-53zM34 0v38l368 450l31 38h-382v38h430v-38l-368 -451l-32 -38h408v-37h-455z" />
    <glyph glyph-name="Zdotaccent.small" horiz-adv-x="523" 
d="M34 0v38l368 450l31 38h-382v38h430v-38l-368 -451l-32 -38h408v-37h-455zM231 641q0 13 9 22t22 9t22 -9t9 -22t-9 -22t-22 -9t-22 9t-9 22z" />
    <glyph glyph-name="Eng.small" horiz-adv-x="608" 
d="M69 0v564h34l358 -449l38 -53v502h40v-562q0 -64 -35.5 -111.5t-94.5 -68.5l-12 34q47 18 74.5 57t27.5 91l-346 435l-44 61v-500h-40z" />
    <glyph glyph-name="Eth.small" horiz-adv-x="611" 
d="M69 0v270h-86v36h86v258h216q118 0 200.5 -82.5t82.5 -199.5t-82.5 -199.5t-200.5 -82.5h-216zM109 37h175q101 0 171.5 71.5t70.5 173.5q0 123 -84 183.5t-216 60.5h-117v-220h190v-36h-190v-233z" />
    <glyph glyph-name="Thorn.small" horiz-adv-x="518" 
d="M69 0v564h40v-99h179q76 0 129.5 -53.5t53.5 -129.5q0 -75 -53.5 -128.5t-129.5 -53.5h-179v-100h-40zM109 137h177q60 0 101.5 42.5t41.5 102.5t-42 103t-102 43h-176v-291z" />
    <glyph glyph-name="cent.oldstyle" horiz-adv-x="545" 
d="M424 407q-24 26 -59.5 39t-64.5 13q-70 0 -123.5 -51t-53.5 -130q0 -84 54.5 -132.5t120.5 -48.5q81 0 137 61l26 -27q-58 -64 -147 -70v-101h-34v102q-83 8 -140 70t-57 146t57 145.5t140 69.5v101h34v-100q78 -6 137 -60z" />
    <glyph glyph-name="sterling.oldstyle" horiz-adv-x="545" 
d="M66 0v33h73v230h-67v36h67v110q0 74 51 118t128 44q78 0 131 -55l-26 -27q-45 45 -105 45q-58 0 -98.5 -36.5t-40.5 -88.5v-110h192v-36h-192v-226h300v-37h-413z" />
    <glyph glyph-name="florin.oldstyle" horiz-adv-x="545" 
d="M43 -51l22 27q33 -30 73 -30q50 0 71 72l81 297h-69l9 35h70l19 71q10 36 14 50t14.5 39t20.5 34.5t28 18t42 8.5q36 0 63 -21l-10 -33q-28 18 -53 18q-49 0 -66 -67l-32 -118h115l-10 -35h-113l-75 -272q-18 -67 -43.5 -100.5t-75.5 -33.5t-95 40z" />
    <glyph glyph-name="yen.oldstyle" horiz-adv-x="545" 
d="M253 0v116h-131v35h131v67h-131v35h131v22l-194 289h46l133 -199l35 -55q24 41 33 55l133 199h46l-193 -288v-23h131v-35h-131v-67h131v-35h-131v-116h-39z" />
    <glyph glyph-name="Euro.oldstyle" horiz-adv-x="545" 
d="M52 208l9 35h55l-1 38q0 5 0.5 17t0.5 17h-54l10 36h48q17 99 78 159.5t147 60.5q100 0 164 -86l-25 -26q-57 75 -139 75q-69 0 -117.5 -50t-64.5 -133h238l-10 -36h-233l-2 -34l2 -38h219l-9 -35h-204q16 -82 64.5 -131t116.5 -49q90 0 149 90l29 -24
q-66 -104 -178 -104q-85 0 -145.5 59.5t-78.5 158.5h-69z" />
    <glyph glyph-name="dollar.oldstyle" horiz-adv-x="545" 
d="M65 85l24 27q13 -17 31.5 -33t59 -32.5t88.5 -16.5q72 0 121 35t49 91q0 42 -34.5 67t-84 38t-99.5 27.5t-84.5 47t-34.5 84.5q0 66 46.5 105t105.5 45v107h36v-107q88 -4 152 -73l-25 -28q-57 65 -139 65q-50 0 -92.5 -32t-42.5 -82q0 -41 35 -65.5t84.5 -37t99 -27
t84.5 -48t35 -86.5q0 -73 -54.5 -116t-136.5 -47v-120h-36v119q-55 0 -105.5 26.5t-82.5 66.5z" />
    </font>
</defs>
</svg>
