<?xml version="1.0" standalone="no"?>
<!DOCTYPE svg PUBLIC "-//W3C//DTD SVG 1.1//EN" "http://www.w3.org/Graphics/SVG/1.1/DTD/svg11.dtd" >
<svg xmlns="http://www.w3.org/2000/svg" xmlns:xlink="http://www.w3.org/1999/xlink" version="1.1">
<metadata>
Created by FontForge 20170731 at Mon Mar 25 10:51:07 2013
 By Aleksey,,,
Copyright (c) 2013 Type-O-Tones. v1.0 by Jose M. Uros. Barcelona. All rights reserved.
</metadata>
<defs>
<font id="Arboria-BookItalic" horiz-adv-x="568" >
  <font-face 
    font-family="Arboria-BookItalic"
    font-weight="400"
    font-style="italic"
    font-stretch="normal"
    units-per-em="1000"
    panose-1="2 0 5 6 2 0 0 2 0 4"
    ascent="800"
    descent="-200"
    x-height="487"
    cap-height="648"
    bbox="-96 -235 1167 985"
    underline-thickness="36"
    underline-position="-112"
    unicode-range="U+0020-FB02"
  />
<missing-glyph horiz-adv-x="280" 
 />
    <glyph glyph-name="fi" unicode="fi" horiz-adv-x="514" 
d="M26 0l81 422h-79l13 65h79l8 34q19 87 65.5 123t97.5 36q33 0 62 -9.5t41 -18.5l13 -10l-39 -52q-33 24 -76 24q-68 0 -89 -97l-6 -30h154l-12 -65h-155l-82 -422h-76zM326 0l95 487h76l-95 -487h-76zM432 618q0 21 15 36t35 15q21 0 36 -15t15 -36t-15 -35.5t-36 -14.5
q-20 0 -35 14.5t-15 35.5z" />
    <glyph glyph-name="fl" unicode="fl" horiz-adv-x="514" 
d="M26 0l81 422h-79l13 65h79l8 34q19 87 65.5 123t97.5 36q33 0 62 -9.5t41 -18.5l13 -10l-39 -52q-33 24 -76 24q-68 0 -89 -97l-6 -30h154l-12 -65h-155l-82 -422h-76zM326 0l127 658h76l-127 -658h-76z" />
    <glyph glyph-name=".notdef" horiz-adv-x="280" 
 />
    <glyph glyph-name=".null" horiz-adv-x="0" 
 />
    <glyph glyph-name="nonmarkingreturn" horiz-adv-x="333" 
 />
    <glyph glyph-name="space" unicode=" " horiz-adv-x="244" 
 />
    <glyph glyph-name="exclam" unicode="!" horiz-adv-x="226" 
d="M18 45q0 23 16 39t39 16t39.5 -16t16.5 -39t-16.5 -39t-39.5 -16t-39 16t-16 39zM60 170l80 478h87l-99 -478h-68z" />
    <glyph glyph-name="quotedbl" unicode="&#x22;" horiz-adv-x="352" 
d="M88 420l53 228h65l-53 -228h-65zM222 420l53 228h65l-53 -228h-65z" />
    <glyph glyph-name="numbersign" unicode="#" 
d="M48 0l65 181h-79l21 58h79l68 187h-79l20 58h80l60 164h62l-60 -164h117l61 164h60l-60 -164h76l-20 -58h-77l-68 -187h77l-21 -58h-77l-65 -181h-60l65 181h-118l-65 -181h-62zM196 239h118l68 187h-118z" />
    <glyph glyph-name="dollar" unicode="$" 
d="M19 88l43 57q66 -81 195 -81q69 0 116 31t47 89q0 73 -127 113q-42 14 -70 26t-58.5 32.5t-46 50t-15.5 66.5q0 81 54 131t147 54l20 105h66l-20 -108q91 -13 161 -67l-37 -65q-25 23 -73 42.5t-102 19.5q-60 0 -98.5 -28t-38.5 -82q0 -38 32 -61t93 -44
q89 -30 140.5 -72t51.5 -109q0 -96 -66.5 -145t-159.5 -53l-23 -119h-66l23 122q-55 6 -105.5 30.5t-82.5 64.5z" />
    <glyph glyph-name="percent" unicode="%" horiz-adv-x="852" 
d="M108 429q0 -49 20.5 -79t54.5 -30q37 0 63 29t36.5 66t10.5 75q0 50 -20.5 80t-55.5 30q-38 0 -64 -30.5t-35.5 -67t-9.5 -73.5zM48 423q0 56 16.5 107t57.5 89.5t100 38.5t95 -44t36 -118q0 -56 -17 -107t-58 -89t-99 -38q-59 0 -95 44t-36 117zM562 157q0 -49 20 -79
t54 -30q54 0 82 54t28 116q0 49 -20.5 79.5t-54.5 30.5q-38 0 -64 -30.5t-35.5 -67t-9.5 -73.5zM501 151q0 55 16.5 106.5t58 90t99.5 38.5q59 0 95 -44t36 -118q0 -56 -17 -107t-58 -89t-99 -38q-59 0 -95 44t-36 117zM135 13l555 662l37 -28l-555 -662z" />
    <glyph glyph-name="ampersand" unicode="&#x26;" horiz-adv-x="576" 
d="M12 158q0 66 40.5 118t106.5 86q-33 59 -33 112q0 78 52 131t134 53q125 0 169 -116l-69 -39q-10 39 -39 61.5t-63 22.5q-46 0 -75 -28.5t-29 -75.5q0 -66 92 -179l115 -140q34 43 34 101h74q0 -89 -60 -156l58 -69l-57 -51l-59 69q-83 -68 -192 -68q-82 0 -140.5 43
t-58.5 125zM196 306q-44 -20 -73 -54.5t-29 -79.5q0 -51 38 -80.5t96 -29.5q72 0 130 47z" />
    <glyph glyph-name="quotesingle" unicode="'" horiz-adv-x="218" 
d="M88 420l53 228h65l-53 -228h-65z" />
    <glyph glyph-name="parenleft" unicode="(" horiz-adv-x="302" 
d="M217 -64l-58 -49q-103 127 -103 319q0 147 66.5 278.5t186.5 197.5l36 -50q-101 -62 -156 -177.5t-55 -244.5q0 -163 83 -274z" />
    <glyph glyph-name="parenright" unicode=")" horiz-adv-x="302" 
d="M-1 -111l-35 56q92 68 142.5 178.5t50.5 231.5q0 160 -81 280l60 48q98 -139 98 -329q0 -139 -59.5 -263.5t-175.5 -201.5z" />
    <glyph glyph-name="asterisk" unicode="*" horiz-adv-x="414" 
d="M145 309l30 132l-127 -48l-18 53l132 39l-108 87l37 43l100 -94l22 136l56 -12l-31 -133l128 49l18 -53l-132 -40l108 -86l-37 -42l-100 93l-22 -135z" />
    <glyph glyph-name="plus" unicode="+" 
d="M201 46l35 187h-187l13 64h188l35 188h70l-35 -188h187l-12 -64h-189l-35 -187h-70z" />
    <glyph glyph-name="comma" unicode="," horiz-adv-x="211" 
d="M-38 -137l99 229h82l-122 -229h-59z" />
    <glyph glyph-name="hyphen" unicode="-" horiz-adv-x="439" 
d="M23 205l13 66h379l-13 -66h-379z" />
    <glyph glyph-name="period" unicode="." horiz-adv-x="211" 
d="M22 45q0 23 16 39t39 16t39 -16t16 -39t-16 -39t-39 -16t-39 16t-16 39z" />
    <glyph glyph-name="slash" unicode="/" horiz-adv-x="495" 
d="M-52 -19l561 712h78l-562 -712h-77z" />
    <glyph glyph-name="zero" unicode="0" 
d="M318 587q-52 0 -92.5 -31.5t-62 -81.5t-32.5 -103t-11 -104q0 -95 33.5 -150.5t99.5 -55.5q65 0 112 51t67 122t20 148q0 94 -34.5 149.5t-99.5 55.5zM38 270q0 98 29.5 184t95 145t154.5 59q101 0 159 -75.5t58 -202.5q0 -65 -16.5 -131t-48.5 -125.5t-87.5 -96.5
t-126.5 -37q-104 0 -160.5 75t-56.5 205z" />
    <glyph glyph-name="one" unicode="1" 
d="M70 0l13 71h147l89 464l-149 -89l-28 58l216 144h62l-112 -577h148l-14 -71h-372z" />
    <glyph glyph-name="two" unicode="2" 
d="M31 0l11 55q202 153 292 255.5t90 175.5q0 49 -30 74.5t-86 25.5q-92 0 -170 -78l-38 51q91 99 220 99q82 0 134.5 -43.5t52.5 -116.5q0 -183 -339 -428h308l-13 -70h-432z" />
    <glyph glyph-name="three" unicode="3" 
d="M20 60l39 58q65 -58 168 -58q84 0 134 49t50 112q0 53 -37 89.5t-108 36.5q-47 0 -97 -26l-22 49l250 208h-283l13 70h394l-12 -62l-215 -182q8 3 20 3q90 -4 135.5 -55.5t45.5 -123.5q0 -99 -74 -168.5t-194 -69.5q-125 0 -207 70z" />
    <glyph glyph-name="four" unicode="4" 
d="M313 0l27 142h-312l11 59l306 457l63 -41l-271 -405h217l29 151h78l-30 -151h84l-13 -70h-84l-27 -142h-78z" />
    <glyph glyph-name="five" unicode="5" 
d="M38 51l40 58q66 -49 169 -49q80 0 128.5 44.5t48.5 108.5q0 63 -42.5 97.5t-113.5 34.5q-80 0 -147 -45l-35 29l61 319h368l-14 -70h-291l-36 -193q60 25 118 25q91 0 152.5 -48.5t61.5 -145.5q0 -99 -72.5 -162.5t-184.5 -63.5q-129 0 -211 61z" />
    <glyph glyph-name="six" unicode="6" 
d="M38 203q0 101 67 173l269 291l57 -50l-173 -179q26 3 39 3q95 0 153 -58.5t58 -143.5q0 -105 -69.5 -177t-175.5 -72q-101 0 -163 60t-62 153zM119 204q0 -62 40 -103t105 -41q70 0 116 50t46 122q0 61 -39.5 101.5t-105.5 40.5q-70 0 -116 -49.5t-46 -120.5z" />
    <glyph glyph-name="seven" unicode="7" 
d="M68 0l395 578h-372l13 70h464l-11 -58l-401 -590h-88z" />
    <glyph glyph-name="eight" unicode="8" 
d="M39 184q0 68 38.5 118.5t105.5 72.5q-64 40 -64 118q0 72 54 118.5t137 46.5q80 0 130 -44t50 -111q0 -92 -91 -136q54 -24 83.5 -68.5t29.5 -98.5q0 -94 -68.5 -152t-175.5 -58q-102 0 -165.5 54t-63.5 140zM279 333q-68 0 -112.5 -40.5t-44.5 -101.5q0 -56 41 -93.5
t107 -37.5q69 0 114.5 40t45.5 100q0 56 -42.5 94.5t-108.5 38.5zM195 490q0 -40 29.5 -67.5t76.5 -27.5q50 0 81.5 29.5t31.5 72.5q0 41 -29 67.5t-77 26.5q-49 0 -81 -28.5t-32 -72.5z" />
    <glyph glyph-name="nine" unicode="9" 
d="M142 36l167 173q-24 -3 -37 -3q-93 0 -151.5 59t-58.5 146q0 106 70 176.5t174 70.5q101 0 163.5 -58t62.5 -152q0 -48 -17 -93.5t-45 -74.5l-272 -290zM144 417q0 -61 39.5 -101.5t105.5 -40.5q70 0 116 50t46 120q0 62 -40 103t-106 41q-69 0 -115 -50t-46 -122z" />
    <glyph glyph-name="colon" unicode=":" horiz-adv-x="211" 
d="M93 409q0 23 16 39.5t39 16.5t39 -16.5t16 -39.5t-16 -39t-39 -16t-39 16t-16 39zM22 45q0 23 16 39t39 16t39 -16t16 -39t-16 -39t-39 -16t-39 16t-16 39z" />
    <glyph glyph-name="semicolon" unicode=";" horiz-adv-x="220" 
d="M101 409q0 23 16 39.5t39 16.5t39 -16.5t16 -39.5t-16 -39t-39 -16q-22 0 -38.5 16t-16.5 39zM-38 -137l98 229h82l-122 -229h-58z" />
    <glyph glyph-name="less" unicode="&#x3c;" 
d="M53 239l10 52l463 186l-14 -76l-357 -138l303 -141l-14 -69z" />
    <glyph glyph-name="equal" unicode="=" 
d="M39 167l14 65h446l-14 -65h-446zM68 317l13 65h446l-13 -65h-446z" />
    <glyph glyph-name="greater" unicode="&#x3e;" 
d="M31 53l15 75l357 143l-304 138l14 68l391 -186l-10 -52z" />
    <glyph glyph-name="question" unicode="?" horiz-adv-x="477" 
d="M139 169l25 149q15 -5 42 -5q68 0 108 42.5t40 103.5q0 53 -34.5 88.5t-89.5 35.5q-95 0 -134 -87l-61 35q24 58 75.5 92.5t121.5 34.5q91 0 146 -56.5t55 -138.5q0 -89 -56 -148t-149 -63l-25 -83h-64zM98 45q0 23 16 39t39 16t39 -16t16 -39t-16 -39t-39 -16t-39 16
t-16 39z" />
    <glyph glyph-name="at" unicode="@" horiz-adv-x="920" 
d="M63 212q0 178 125 302.5t312 124.5q157 0 255.5 -94t98.5 -236q0 -107 -55 -179.5t-135 -72.5q-32 0 -57 18.5t-30 51.5q-55 -80 -159 -80q-73 0 -119 44t-46 119q0 93 64 161.5t157 68.5q96 0 132 -73l13 62h62l-50 -231q-4 -28 -4 -34q0 -54 47 -54q52 0 88 58.5
t36 141.5q0 119 -84 197t-214 78q-161 0 -268 -105.5t-107 -265.5q0 -128 85.5 -213.5t222.5 -85.5q97 0 165 35l16 -50q-73 -38 -181 -38q-165 0 -267.5 100.5t-102.5 249.5zM475 382q-65 0 -111 -50t-46 -122q0 -49 28.5 -77t73.5 -28q68 0 115.5 51t47.5 121q0 49 -31 77
t-77 28z" />
    <glyph glyph-name="A" unicode="A" horiz-adv-x="697" 
d="M-53 0l430 648h69l181 -648h-81l-36 126h-395l-83 -126h-85zM157 192h335l-97 362z" />
    <glyph glyph-name="B" unicode="B" horiz-adv-x="667" 
d="M14 0l125 648h301q74 0 114 -35.5t40 -96.5q0 -48 -26 -89t-72 -60q46 -10 76 -47.5t30 -92.5q0 -107 -75 -167t-214 -60h-299zM107 71h216q83 0 138.5 37.5t55.5 117.5q0 47 -33 74t-93 27h-234zM171 398h225q47 0 79.5 30t32.5 76q0 33 -22.5 53t-64.5 20h-215z" />
    <glyph glyph-name="C" unicode="C" horiz-adv-x="642" 
d="M547 130l46 -58q-93 -82 -231 -82q-139 0 -228 88t-89 222q0 150 101.5 254t250.5 104q153 0 241 -93l-58 -53q-77 72 -184 72q-114 0 -191.5 -81t-77.5 -203q0 -102 68 -169t174 -67q107 0 178 66z" />
    <glyph glyph-name="D" unicode="D" horiz-adv-x="707" 
d="M107 71h160q137 0 224 87.5t87 218.5q0 91 -57 145.5t-160 54.5h-155zM14 0l125 648h240q135 0 209 -72t74 -192q0 -75 -26.5 -144t-75.5 -122.5t-125 -85.5t-169 -32h-252z" />
    <glyph glyph-name="E" unicode="E" horiz-adv-x="617" 
d="M14 0l125 648h491l-14 -71h-410l-38 -196h384l-14 -70h-384l-47 -240h425l-13 -71h-505z" />
    <glyph glyph-name="F" unicode="F" horiz-adv-x="557" 
d="M14 0l125 648h465l-14 -71h-384l-38 -196h321l-14 -70h-321l-60 -311h-80z" />
    <glyph glyph-name="G" unicode="G" horiz-adv-x="730" 
d="M45 296q0 153 101 257.5t251 104.5q148 0 240 -90l-57 -57q-70 73 -184 73t-191.5 -81t-77.5 -203q0 -102 68 -169t174 -67q130 0 199 100l25 136h-141l13 69h220l-45 -233q-93 -146 -278 -146q-137 0 -227 87t-90 219z" />
    <glyph glyph-name="H" unicode="H" horiz-adv-x="687" 
d="M14 0l125 648h80l-51 -267h374l52 267h80l-125 -648h-80l59 310h-374l-60 -310h-80z" />
    <glyph glyph-name="I" unicode="I" horiz-adv-x="232" 
d="M14 0l125 648h80l-125 -648h-80z" />
    <glyph glyph-name="J" unicode="J" horiz-adv-x="543" 
d="M1 84l52 55q46 -74 134 -74q161 0 200 202l74 381h79l-75 -389q-52 -269 -279 -269q-126 0 -185 94z" />
    <glyph glyph-name="K" unicode="K" horiz-adv-x="644" 
d="M14 0l125 648h80l-79 -407l436 407h100l-317 -300l212 -348h-91l-180 294l-182 -166l-24 -128h-80z" />
    <glyph glyph-name="L" unicode="L" horiz-adv-x="601" 
d="M14 0l125 648h80l-112 -577h409l-13 -71h-489z" />
    <glyph glyph-name="M" unicode="M" horiz-adv-x="820" 
d="M14 0l125 648h70l181 -368l346 368h71l-125 -648h-80l97 508l-330 -352l-177 349l-98 -505h-80z" />
    <glyph glyph-name="N" unicode="N" horiz-adv-x="705" 
d="M14 0l125 648h78l294 -521l101 521h80l-125 -648h-78l-295 518l-100 -518h-80z" />
    <glyph glyph-name="O" unicode="O" horiz-adv-x="767" 
d="M390 584q-112 0 -187.5 -81t-75.5 -203q0 -102 69.5 -169t178.5 -67q113 0 189.5 81t76.5 202q0 103 -70 170t-181 67zM45 296q0 153 99.5 257.5t246.5 104.5t239 -85.5t92 -222.5q0 -151 -100.5 -255.5t-247.5 -104.5q-143 0 -236 87t-93 219z" />
    <glyph glyph-name="P" unicode="P" horiz-adv-x="665" 
d="M14 0l125 648h232q132 0 194 -55.5t62 -144.5q0 -131 -93 -208.5t-249 -77.5h-160l-31 -162h-80zM139 233h158q116 0 180.5 57t64.5 150q0 63 -42.5 100t-121.5 37h-172z" />
    <glyph glyph-name="Q" unicode="Q" horiz-adv-x="767" 
d="M45 296q0 153 101 257.5t251 104.5q145 0 235 -85.5t90 -222.5q0 -143 -92 -244l53 -58l-56 -52l-54 59q-90 -65 -205 -65q-141 0 -232 87t-91 219zM127 300q0 -102 68 -169t174 -67q87 0 152 48l-82 91l56 51l83 -90q63 75 63 183q0 103 -68.5 170t-176.5 67
q-114 0 -191.5 -81t-77.5 -203z" />
    <glyph glyph-name="R" unicode="R" horiz-adv-x="665" 
d="M14 0l125 648h276q119 0 177.5 -54.5t58.5 -145.5q0 -94 -51.5 -163.5t-145.5 -103.5l116 -181h-94l-102 165q-25 -3 -120 -3h-129l-31 -162h-80zM139 233h198q104 0 166.5 57.5t62.5 147.5q0 62 -39.5 100.5t-116.5 38.5h-204z" />
    <glyph glyph-name="S" unicode="S" horiz-adv-x="599" 
d="M16 84l44 63q76 -83 208 -83q74 0 129.5 31.5t55.5 89.5q0 43 -39 67t-109 44q-43 12 -74.5 24.5t-63 32.5t-48 48.5t-16.5 65.5q0 90 65.5 140.5t172.5 50.5q131 0 223 -70l-43 -64q-70 60 -185 60q-64 0 -107.5 -28t-43.5 -83q0 -36 35 -58.5t103 -42.5
q101 -30 156.5 -70t55.5 -113q0 -95 -78.5 -147t-191.5 -52q-167 0 -249 94z" />
    <glyph glyph-name="T" unicode="T" horiz-adv-x="601" 
d="M200 0l111 577h-240l13 71h561l-13 -71h-241l-111 -577h-80z" />
    <glyph glyph-name="U" unicode="U" horiz-adv-x="668" 
d="M281 -10q-112 0 -172 55t-60 149q0 43 8 83l72 371h80l-73 -374q-6 -35 -6 -64q0 -66 38.5 -106.5t113.5 -40.5q94 0 151.5 54t77.5 154l74 377h80l-74 -383q-26 -132 -105 -203.5t-205 -71.5z" />
    <glyph glyph-name="V" unicode="V" horiz-adv-x="668" 
d="M236 -3l-163 651h82l132 -544l337 544h90l-409 -651h-69z" />
    <glyph glyph-name="W" unicode="W" horiz-adv-x="933" 
d="M163 -3l-92 651h81l71 -532l261 532h87l53 -532l269 532h87l-337 -651h-79l-55 542l-267 -542h-79z" />
    <glyph glyph-name="X" unicode="X" horiz-adv-x="610" 
d="M-49 0l305 325l-184 323h90l152 -265l246 265h99l-308 -327l184 -321h-93l-149 264l-242 -264h-100z" />
    <glyph glyph-name="Y" unicode="Y" horiz-adv-x="623" 
d="M209 0l59 307l-196 341h90l154 -272l261 272h98l-327 -340l-59 -308h-80z" />
    <glyph glyph-name="Z" unicode="Z" horiz-adv-x="602" 
d="M-26 0l12 66l512 511h-395l13 71h502l-11 -69l-509 -508h418l-13 -71h-529z" />
    <glyph glyph-name="bracketleft" unicode="[" horiz-adv-x="280" 
d="M-7 -99l157 793h191l-12 -58h-113l-134 -677h113l-12 -58h-190z" />
    <glyph glyph-name="backslash" unicode="\" horiz-adv-x="569" 
d="M421 -19l-358 712h77l358 -712h-77z" />
    <glyph glyph-name="bracketright" unicode="]" horiz-adv-x="280" 
d="M-61 -99l12 58h113l135 677h-114l12 58h191l-158 -793h-191z" />
    <glyph glyph-name="asciicircum" unicode="^" horiz-adv-x="554" 
d="M55 323l256 325h46l129 -325h-70l-97 230l-188 -230h-76z" />
    <glyph glyph-name="underscore" unicode="_" horiz-adv-x="480" 
d="M-64 -117v50h486v-50h-486z" />
    <glyph glyph-name="grave" unicode="`" horiz-adv-x="340" 
d="M177 565l-71 133h86l50 -133h-65z" />
    <glyph glyph-name="a" unicode="a" horiz-adv-x="596" 
d="M45 219q0 114 69.5 196t176.5 82q68 0 118 -35.5t70 -91.5l23 117h76l-94 -487h-72l13 70q-63 -80 -168 -80q-93 0 -152.5 65.5t-59.5 163.5zM123 225q0 -71 42.5 -116t108.5 -45q79 0 129.5 56.5t50.5 140.5q0 68 -43.5 115t-112.5 47q-75 0 -125 -56t-50 -142z" />
    <glyph glyph-name="b" unicode="b" horiz-adv-x="593" 
d="M20 0l127 658h76l-50 -244q55 83 168 83q96 0 156 -65t60 -165q0 -114 -71.5 -195.5t-182.5 -81.5q-65 0 -115 32t-69 89l-23 -111h-76zM323 423q-76 0 -127.5 -59t-51.5 -139q0 -67 43.5 -114t112.5 -47q77 0 128 56t51 141q0 71 -44.5 116.5t-111.5 45.5z" />
    <glyph glyph-name="c" unicode="c" horiz-adv-x="507" 
d="M45 223q0 115 77 194.5t190 79.5q115 0 184 -72l-60 -52q-45 50 -125 50q-79 0 -132.5 -56t-53.5 -140q0 -70 46.5 -116.5t120.5 -46.5q79 0 135 55l49 -53q-75 -76 -187 -76q-108 0 -176 65.5t-68 167.5z" />
    <glyph glyph-name="d" unicode="d" horiz-adv-x="593" 
d="M44 219q0 114 70 196t177 82q67 0 116 -35.5t69 -91.5l56 288h77l-127 -658h-73l13 70q-62 -80 -166 -80q-93 0 -152.5 65.5t-59.5 163.5zM123 225q0 -71 42.5 -116t108.5 -45q79 0 128 56.5t49 140.5q0 68 -42.5 115t-111.5 47q-75 0 -124.5 -56t-49.5 -142z" />
    <glyph glyph-name="e" unicode="e" horiz-adv-x="560" 
d="M128 275h320q-2 69 -40 111.5t-104 42.5q-64 0 -113 -44t-63 -110zM45 223q0 115 74.5 194.5t182.5 79.5q104 0 163 -65.5t59 -163.5q0 -23 -5 -53h-395q4 -72 52 -114.5t116 -42.5q81 0 135 51l46 -50q-77 -69 -185 -69q-106 0 -174.5 66.5t-68.5 166.5z" />
    <glyph glyph-name="f" unicode="f" horiz-adv-x="306" 
d="M26 0l81 422h-79l13 65h79l8 34q19 87 65.5 123t97.5 36q33 0 62 -9.5t41 -18.5l13 -10l-39 -52q-33 24 -76 24q-68 0 -89 -97l-6 -30h154l-12 -65h-155l-82 -422h-76z" />
    <glyph glyph-name="g" unicode="g" horiz-adv-x="593" 
d="M46 230q0 105 70 186t176 81q67 0 115.5 -35t68.5 -92l23 117h77l-73 -375q-12 -63 -36.5 -111t-52 -75.5t-61.5 -44.5t-61.5 -22.5t-56.5 -5.5q-116 0 -180 81l49 48q49 -63 135 -63q126 0 178 159l10 31q-68 -85 -169 -85q-88 0 -150 52.5t-62 153.5zM124 237
q0 -66 42 -104t109 -38q77 0 127 53t50 130q0 59 -43 104t-108 45q-76 0 -126.5 -55t-50.5 -135z" />
    <glyph glyph-name="h" unicode="h" horiz-adv-x="543" 
d="M20 0l127 658h76l-47 -249q70 88 180 88q75 0 112.5 -37.5t37.5 -100.5q0 -22 -7 -62l-58 -297h-76l55 285q6 28 6 55q0 83 -103 83q-65 0 -113.5 -44t-60.5 -104l-53 -275h-76z" />
    <glyph glyph-name="i" unicode="i" horiz-adv-x="208" 
d="M20 0l95 487h76l-95 -487h-76zM126 618q0 21 15 36t35 15q21 0 36 -15t15 -36t-15 -35.5t-36 -14.5q-20 0 -35 14.5t-15 35.5z" />
    <glyph glyph-name="j" unicode="j" horiz-adv-x="208" 
d="M-72 -168l-24 56q60 35 89 76.5t44 120.5l77 402h76l-77 -403q-20 -102 -62 -158.5t-123 -93.5zM127 618q0 21 15 36t36 15q20 0 35 -15t15 -36q0 -20 -15 -35t-35 -15q-21 0 -36 15t-15 35z" />
    <glyph glyph-name="k" unicode="k" horiz-adv-x="515" 
d="M20 0l127 658h76l-83 -430l277 259h107l-236 -216l179 -271h-95l-141 219l-113 -106l-22 -113h-76z" />
    <glyph glyph-name="l" unicode="l" horiz-adv-x="208" 
d="M20 0l127 658h76l-127 -658h-76z" />
    <glyph glyph-name="m" unicode="m" horiz-adv-x="856" 
d="M20 0l95 487h76l-15 -78q32 42 75.5 65t88.5 23q125 0 146 -98q75 98 184 98q74 0 112 -37.5t38 -100.5q0 -26 -8 -62l-58 -297h-76l55 285q7 33 7 55q0 83 -103 83q-58 0 -101.5 -37.5t-55.5 -99.5l-55 -286h-76l55 285q6 28 6 55q0 83 -103 83q-53 0 -99 -42.5
t-58 -103.5l-54 -277h-76z" />
    <glyph glyph-name="n" unicode="n" horiz-adv-x="543" 
d="M20 0l95 487h76l-15 -78q70 88 181 88q74 0 111.5 -37.5t38.5 -101.5q0 -16 -8 -61l-58 -297h-76l56 285q5 23 5 55q0 83 -103 83q-65 0 -113.5 -44.5t-60.5 -105.5l-53 -273h-76z" />
    <glyph glyph-name="o" unicode="o" horiz-adv-x="594" 
d="M45 223q0 115 77 194.5t190 79.5q110 0 178.5 -65t68.5 -169q0 -114 -77.5 -193.5t-190.5 -79.5q-107 0 -176.5 66.5t-69.5 166.5zM125 227q0 -70 46.5 -116.5t120.5 -46.5q79 0 132.5 56.5t53.5 139.5q0 70 -46.5 116.5t-120.5 46.5q-79 0 -132.5 -56t-53.5 -140z" />
    <glyph glyph-name="p" unicode="p" horiz-adv-x="593" 
d="M-6 -137l120 624h74l-16 -78q55 88 169 88q96 0 156 -65t60 -165q0 -114 -71.5 -195.5t-182.5 -81.5q-65 0 -115 32t-69 89l-49 -248h-76zM144 226q0 -68 43.5 -115t112.5 -47q77 0 128 56t51 141q0 71 -44.5 116.5t-111.5 45.5q-76 0 -127.5 -59t-51.5 -138z" />
    <glyph glyph-name="q" unicode="q" horiz-adv-x="593" 
d="M45 219q0 116 69.5 197t176.5 81q67 0 116 -35.5t69 -91.5l23 117h77l-121 -624h-76l41 204q-59 -77 -163 -77q-93 0 -152.5 65.5t-59.5 163.5zM123 225q0 -71 42.5 -116t108.5 -45q79 0 128 56.5t49 140.5q0 68 -42 115t-111 47q-75 0 -125 -56t-50 -142z" />
    <glyph glyph-name="r" unicode="r" horiz-adv-x="350" 
d="M20 0l95 487h76l-20 -103q31 49 87.5 81t122.5 32l-16 -84q-81 0 -144.5 -49.5t-82.5 -148.5l-42 -215h-76z" />
    <glyph glyph-name="s" unicode="s" horiz-adv-x="472" 
d="M16 70l43 55q53 -68 152 -68q55 0 90.5 22t35.5 57q0 30 -25 47.5t-72 33.5q-33 11 -56.5 21.5t-48 27t-37 39t-12.5 50.5q0 68 49.5 105t132.5 37q103 0 174 -53l-36 -59q-54 45 -142 45q-43 0 -70.5 -19t-27.5 -51q0 -45 90 -73q76 -25 118.5 -57.5t42.5 -87.5
q0 -71 -59 -111.5t-151 -40.5q-130 0 -191 80z" />
    <glyph glyph-name="t" unicode="t" horiz-adv-x="359" 
d="M66 154l52 268h-76l13 65h75l21 108l79 12l-24 -120h166l-12 -65h-166l-51 -262q-5 -33 -5 -44q0 -58 54 -58q20 0 41.5 7t32.5 13l11 7l14 -59q-57 -36 -120 -36q-53 0 -82.5 27.5t-29.5 81.5q0 22 7 55z" />
    <glyph glyph-name="u" unicode="u" horiz-adv-x="537" 
d="M59 198l56 289h76l-55 -285q-7 -35 -7 -49q0 -89 103 -89q59 0 106 42t60 108l53 273h76l-95 -487h-76l15 75q-69 -85 -172 -85q-75 0 -111.5 37t-36.5 103q0 30 8 68z" />
    <glyph glyph-name="v" unicode="v" horiz-adv-x="510" 
d="M180 -3l-129 490h82l97 -390l229 390h93l-300 -490h-72z" />
    <glyph glyph-name="w" unicode="w" horiz-adv-x="712" 
d="M134 -3l-84 490h83l56 -369l177 369h73l42 -369l190 369h85l-252 -490h-77l-44 365l-174 -365h-75z" />
    <glyph glyph-name="x" unicode="x" horiz-adv-x="472" 
d="M-43 0l236 245l-135 242h85l100 -187l180 187h96l-233 -242l139 -245h-85l-106 189l-179 -189h-98z" />
    <glyph glyph-name="y" unicode="y" horiz-adv-x="523" 
d="M24 -147l16 72q38 0 66 16.5t60 64.5l14 21l-129 460h82l104 -387l230 387h91l-302 -486q-57 -92 -106.5 -120t-125.5 -28z" />
    <glyph glyph-name="z" unicode="z" horiz-adv-x="453" 
d="M-17 0l11 60l351 358h-272l14 69h382l-12 -60l-352 -358h291l-14 -69h-399z" />
    <glyph glyph-name="braceleft" unicode="{" horiz-adv-x="386" 
d="M50 263l12 63h15q66 0 78 59l19 95q23 112 70.5 165.5t148.5 53.5h42l-12 -64q-87 0 -121 -34.5t-53 -129.5l-17 -86q-5 -24 -11.5 -40t-26 -31t-49.5 -20q55 -15 55 -66q0 -6 -5 -39l-16 -72q-9 -42 -9 -71q0 -92 119 -92l-13 -64h-39q-69 0 -107.5 38t-38.5 104
q0 26 11 81l15 73q6 22 6 35q0 42 -58 42h-15z" />
    <glyph glyph-name="bar" unicode="|" horiz-adv-x="215" 
d="M75 -189v927h63v-927h-63z" />
    <glyph glyph-name="braceright" unicode="}" horiz-adv-x="386" 
d="M-60 -109l13 64q83 0 118 36t54 127l18 85q15 79 86 93q-28 4 -41 22t-13 40q0 15 4 35l14 73q11 53 11 76q0 93 -118 93l12 64l51 -2q65 -2 99 -37.5t34 -100.5q0 -33 -9 -78l-15 -75q-5 -20 -5 -38q0 -42 59 -42h15l-13 -63h-15q-67 0 -79 -59l-21 -104
q-21 -105 -71 -157t-146 -52h-42z" />
    <glyph glyph-name="asciitilde" unicode="~" horiz-adv-x="555" 
d="M64 211q10 51 41 86t85 35q41 0 91 -29t75 -29q26 0 40 14t17 34h76q-25 -121 -126 -121q-42 0 -92.5 29t-70.5 29q-23 0 -40 -14.5t-20 -33.5h-76z" />
    <glyph glyph-name="nbspace" unicode="&#xa0;" horiz-adv-x="648" 
 />
    <glyph glyph-name="exclamdown" unicode="&#xa1;" horiz-adv-x="226" 
d="M86 441q0 23 16 39.5t39 16.5t39 -16.5t16 -39.5t-16 -39t-39 -16t-39 16t-16 39zM-13 -170l100 478h67l-80 -478h-87z" />
    <glyph glyph-name="cent" unicode="&#xa2;" 
d="M453 194l50 -53q-77 -76 -192 -76l-25 -125h-65l26 134q-76 18 -125.5 76.5t-49.5 147.5q0 117 76.5 195.5t193.5 78.5l21 102h65l-22 -110q69 -15 117 -63l-60 -52q-46 49 -125 49q-80 0 -133 -56t-53 -140q0 -71 46.5 -117t120.5 -46q76 0 134 55z" />
    <glyph glyph-name="sterling" unicode="&#xa3;" 
d="M19 0l12 63h78l45 230h-74l11 59h74l20 104q19 103 82.5 152.5t147.5 49.5q92 0 152 -59l-43 -59q-45 46 -111 46q-53 0 -95.5 -32.5t-55.5 -99.5l-19 -102h199l-11 -59h-200l-43 -223h315l-13 -70h-471z" />
    <glyph glyph-name="currency" unicode="&#xa4;" 
d="M72 77l-34 42l83 70q-22 37 -22 83q0 82 52 137l-53 66l43 35l53 -66q49 25 96 25q73 0 119 -39l80 67l36 -43l-80 -66q22 -39 22 -86q0 -81 -51 -134l52 -64l-44 -37l-52 66q-42 -27 -97 -27q-69 0 -118 40zM171 277q0 -45 29.5 -74.5t76.5 -29.5q50 0 84 36t34 89
q0 44 -30 74t-77 30q-50 0 -83.5 -36t-33.5 -89z" />
    <glyph glyph-name="yen" unicode="&#xa5;" 
d="M176 0l24 124h-138l10 54h138l14 67h-138l10 54h138l4 19l-151 330h80l118 -265l221 265h87l-278 -330l-4 -19h138l-11 -54h-137l-13 -67h137l-11 -54h-137l-23 -124h-78z" />
    <glyph glyph-name="brokenbar" unicode="&#xa6;" horiz-adv-x="207" 
d="M72 384v420h63v-420h-63zM72 -190v481h63v-481h-63z" />
    <glyph glyph-name="section" unicode="&#xa7;" horiz-adv-x="519" 
d="M335 220q26 0 44.5 24.5t18.5 51.5q0 47 -54 68l-128 51q-19 7 -26 7q-25 0 -43.5 -23.5t-18.5 -50.5q0 -53 68 -79l76 -28q6 -2 21 -8.5t24.5 -9.5t17.5 -3zM34 44l41 58q56 -54 151 -54q19 0 36 2.5t36 8.5t30.5 19t11.5 32q0 18 -17.5 29.5t-62.5 28.5l-101 40
q-107 42 -107 127q0 39 23 75t61 54q-29 25 -29 64q0 66 54 98t135 32q108 0 184 -50l-38 -58q-66 39 -152 39q-38 0 -71 -13.5t-33 -45.5q0 -19 18 -31t62 -29l98 -37q109 -40 109 -132q0 -43 -24 -77t-66 -47q37 -24 37 -66q0 -67 -59.5 -99t-140.5 -32q-62 0 -111.5 19
t-74.5 45z" />
    <glyph glyph-name="dieresis" unicode="&#xa8;" horiz-adv-x="340" 
d="M47 615q0 19 13 32t32 13q18 0 31 -13t13 -32q0 -18 -13 -31t-31 -13q-19 0 -32 13t-13 31zM204 615q0 19 13.5 32t32.5 13q18 0 31 -13t13 -32q0 -18 -13 -31t-31 -13q-19 0 -32.5 13t-13.5 31z" />
    <glyph glyph-name="copyright" unicode="&#xa9;" horiz-adv-x="748" 
d="M40 324q0 138 98 236t236 98t236 -98t98 -236t-98 -236t-236 -98t-236 98t-98 236zM181 322q0 84 59 143.5t142 59.5q80 0 141 -58l-31 -31q-49 44 -110 44q-63 0 -107.5 -46t-44.5 -112t45 -111.5t108 -45.5q68 0 122 59l31 -32q-64 -71 -154 -71q-83 0 -142 59t-59 142
zM80 324q0 -122 86.5 -209.5t207.5 -87.5q122 0 208 87t86 210t-86 210t-208 87q-121 0 -207.5 -87.5t-86.5 -209.5z" />
    <glyph glyph-name="ordfeminine" unicode="&#xaa;" horiz-adv-x="368" 
d="M205 485q-25 0 -48.5 -4.5t-45 -20.5t-21.5 -42q0 -40 54 -40q55 0 85 24.5t35 47.5l7 30q-23 5 -66 5zM28 410q0 62 54.5 93.5t132.5 31.5q34 0 61 -6q0 2 1.5 9.5t1.5 15.5q0 22 -16.5 36t-51.5 14q-57 0 -104 -29l-20 44q6 4 16.5 10.5t46 17.5t74.5 11
q116 0 116 -104q0 -24 -6 -54l-32 -169h-60l7 41q-48 -48 -116 -48q-48 0 -76.5 21.5t-28.5 64.5z" />
    <glyph glyph-name="guillemotleft" unicode="&#xab;" horiz-adv-x="451" 
d="M28 223l9 39l204 163l31 -39l-171 -151l118 -145l-40 -34zM202 223l10 39l204 163l30 -39l-171 -151l119 -145l-41 -34z" />
    <glyph glyph-name="logicalnot" unicode="&#xac;" 
d="M398 109l31 161h-375l13 65h445l-44 -226h-70z" />
    <glyph glyph-name="registered" unicode="&#xae;" horiz-adv-x="748" 
d="M40 324q0 138 98 236t236 98t236 -98t98 -236t-98 -236t-236 -98t-236 98t-98 236zM231 126v394h168q66 0 112.5 -47t46.5 -112q0 -92 -77 -139l73 -96h-60l-59 79q-16 -4 -36 -4h-121v-75h-47zM278 249h121q46 0 78 32.5t32 79.5q0 46 -32 79t-78 33h-121v-224zM80 324
q0 -122 86.5 -209.5t207.5 -87.5q122 0 208 87t86 210t-86 210t-208 87q-121 0 -207.5 -87.5t-86.5 -209.5z" />
    <glyph glyph-name="macron" unicode="&#xaf;" horiz-adv-x="340" 
d="M63 570l13 59h200l-13 -59h-200z" />
    <glyph glyph-name="degree" unicode="&#xb0;" horiz-adv-x="363" 
d="M40 521q0 58 40.5 98.5t96.5 40.5q58 0 99 -40.5t41 -98.5q0 -56 -41 -97t-99 -41q-56 0 -96.5 41t-40.5 97zM102 521q0 -32 22 -55.5t53 -23.5q32 0 54.5 23.5t22.5 55.5t-22.5 55.5t-54.5 23.5q-31 0 -53 -23.5t-22 -55.5z" />
    <glyph glyph-name="plusminus" unicode="&#xb1;" 
d="M18 30l13 65h447l-13 -65h-447zM65 292l13 65h187l29 149h70l-29 -149h190l-13 -65h-190l-29 -149h-70l29 149h-187z" />
    <glyph glyph-name="twosuperior" unicode="&#xb2;" horiz-adv-x="387" 
d="M11 291l10 45q258 199 258 294q0 66 -76 66q-59 0 -113 -56l-32 43q66 73 154 73q63 0 100 -32t37 -83q0 -61 -48.5 -130t-176.5 -160h194l-12 -60h-295z" />
    <glyph glyph-name="threesuperior" unicode="&#xb3;" horiz-adv-x="401" 
d="M8 336l33 49q39 -39 110 -39q54 0 90 30t36 74q0 36 -24.5 58.5t-68.5 22.5q-35 0 -67 -20l-22 45l157 135h-177l12 59h273l-9 -49l-140 -118h10q55 0 90 -36t35 -92q0 -74 -54.5 -121.5t-140.5 -47.5q-93 0 -143 50z" />
    <glyph glyph-name="acute" unicode="&#xb4;" horiz-adv-x="340" 
d="M65 565l107 133h92l-129 -133h-70z" />
    <glyph glyph-name="mu" unicode="&#xb5;" horiz-adv-x="543" 
d="M-6 -137l121 624h76l-53 -275q-5 -28 -5 -51q0 -50 26 -73.5t67 -23.5q56 0 105 45.5t68 146.5l45 231h76l-41 -214q-15 -87 -15 -121q0 -78 34 -120l-59 -52q-45 56 -46 112q-66 -102 -177 -102q-81 0 -111 54l-35 -181h-76z" />
    <glyph glyph-name="paragraph" unicode="&#xb6;" horiz-adv-x="537" 
d="M196 0l49 257q-77 6 -126 52.5t-49 117.5q0 97 73 159t178 62h197l-125 -648h-60l114 590h-77l-114 -590h-60z" />
    <glyph glyph-name="periodcentered" unicode="&#xb7;" horiz-adv-x="163" 
d="M24 282q0 22 16 38.5t39 16.5q22 0 38 -16t16 -39t-15.5 -39t-38.5 -16t-39 16t-16 39z" />
    <glyph glyph-name="cedilla" unicode="&#xb8;" horiz-adv-x="340" 
d="M33 -185l29 35q37 -23 78 -23q28 0 55.5 15.5t27.5 42.5t-37 27q-17 0 -36 -8t-29 -19l-40 16l86 102h50l-52 -63q24 8 42 8q70 0 70 -58q0 -43 -43 -73t-100 -30q-65 0 -101 28z" />
    <glyph glyph-name="onesuperior" unicode="&#xb9;" horiz-adv-x="320" 
d="M116 291l69 361l-112 -67l-25 51l172 114h50l-89 -459h-65z" />
    <glyph glyph-name="ordmasculine" unicode="&#xba;" horiz-adv-x="395" 
d="M56 477q0 76 50 128.5t125 52.5q73 0 118.5 -43t45.5 -112q0 -75 -51 -127t-125 -52q-72 0 -117.5 43.5t-45.5 109.5zM120 481q0 -42 28 -69.5t72 -27.5q47 0 79 33.5t32 82.5q0 42 -28 69.5t-73 27.5q-47 0 -78.5 -33t-31.5 -83z" />
    <glyph glyph-name="guillemotright" unicode="&#xbb;" horiz-adv-x="451" 
d="M-9 97l173 155l-121 143l41 34l151 -167l-10 -39l-203 -167zM165 97l174 156l-122 142l42 34l151 -167l-10 -39l-204 -167z" />
    <glyph glyph-name="onequarter" unicode="&#xbc;" horiz-adv-x="895" 
d="M576 0l19 97h-222l9 47l220 326l52 -33l-190 -282h142l21 106h65l-20 -106h58l-11 -58h-59l-19 -97h-65zM116 191l69 361l-112 -67l-25 51l172 114h50l-89 -459h-65zM94 13l555 662l37 -28l-555 -662z" />
    <glyph glyph-name="onehalf" unicode="&#xbd;" horiz-adv-x="967" 
d="M116 191l69 361l-112 -67l-25 51l172 114h50l-89 -459h-65zM484 0l10 45q258 199 258 294q0 66 -76 66q-59 0 -113 -56l-32 43q66 73 154 73q63 0 100 -32t37 -83q0 -61 -48.5 -130t-176.5 -160h194l-12 -60h-295zM94 13l555 662l37 -28l-555 -662z" />
    <glyph glyph-name="threequarters" unicode="&#xbe;" horiz-adv-x="968" 
d="M661 0l19 97h-222l9 47l220 326l52 -33l-190 -282h142l21 106h65l-20 -106h58l-11 -58h-59l-19 -97h-65zM11 236l33 49q39 -39 110 -39q54 0 90 30t36 74q0 36 -24.5 58.5t-68.5 22.5q-35 0 -67 -20l-22 45l157 135h-177l12 59h273l-9 -49l-140 -118h10q55 0 90 -36
t35 -92q0 -74 -54.5 -121.5t-140.5 -47.5q-93 0 -143 50zM178 13l555 662l37 -28l-555 -662z" />
    <glyph glyph-name="questiondown" unicode="&#xbf;" horiz-adv-x="477" 
d="M18 25q0 89 56 148t150 63l24 83h64l-25 -148q-16 4 -42 4q-68 0 -107.5 -42.5t-39.5 -103.5q0 -53 34.5 -88.5t89.5 -35.5q46 0 80.5 23t52.5 64l61 -35q-23 -57 -75 -92t-122 -35q-90 0 -145.5 56.5t-55.5 138.5zM238 442q0 23 16.5 39t39.5 16t39 -16t16 -39
t-16 -39.5t-39 -16.5t-39.5 16.5t-16.5 39.5z" />
    <glyph glyph-name="Agrave" unicode="&#xc0;" horiz-adv-x="697" 
d="M-53 0l430 648h69l181 -648h-81l-36 126h-395l-83 -126h-85zM157 192h335l-97 362zM397 698l-71 133h86l50 -133h-65z" />
    <glyph glyph-name="Aacute" unicode="&#xc1;" horiz-adv-x="697" 
d="M-53 0l430 648h69l181 -648h-81l-36 126h-395l-83 -126h-85zM157 192h335l-97 362zM374 698l107 133h92l-129 -133h-70z" />
    <glyph glyph-name="Acircumflex" unicode="&#xc2;" horiz-adv-x="697" 
d="M-53 0l430 648h69l181 -648h-81l-36 126h-395l-83 -126h-85zM157 192h335l-97 362zM292 698l119 133h82l52 -133h-60l-42 87l-89 -87h-62z" />
    <glyph glyph-name="Atilde" unicode="&#xc3;" horiz-adv-x="697" 
d="M-53 0l430 648h69l181 -648h-81l-36 126h-395l-83 -126h-85zM157 192h335l-97 362zM284 684q9 46 33 74t60 28q29 0 61.5 -23.5t42.5 -23.5q29 0 39 47h48q-9 -46 -33 -74t-60 -28q-30 0 -61.5 23.5t-41.5 23.5q-31 0 -40 -47h-48z" />
    <glyph glyph-name="Adieresis" unicode="&#xc4;" horiz-adv-x="697" 
d="M-53 0l430 648h69l181 -648h-81l-36 126h-395l-83 -126h-85zM157 192h335l-97 362zM298 738q0 19 13 32t32 13q18 0 31 -13t13 -32q0 -18 -13 -31t-31 -13q-19 0 -32 13t-13 31zM455 738q0 19 13.5 32t32.5 13q18 0 31 -13t13 -32q0 -18 -13 -31t-31 -13q-19 0 -32.5 13
t-13.5 31z" />
    <glyph glyph-name="Aring" unicode="&#xc5;" horiz-adv-x="697" 
d="M-53 0l430 648h69l181 -648h-81l-36 126h-395l-83 -126h-85zM157 192h335l-97 362zM320 772q0 41 29 70t70 29t70 -29t29 -70t-29 -70.5t-70 -29.5t-70 29.5t-29 70.5zM365 772q0 -24 15.5 -41t38.5 -17t38.5 17t15.5 41q0 23 -15.5 40t-38.5 17t-38.5 -17t-15.5 -40z
" />
    <glyph glyph-name="AE" unicode="&#xc6;" horiz-adv-x="946" 
d="M-53 0l532 648h480l-13 -71h-354l-38 -195h328l-14 -71h-328l-46 -240h367l-13 -71h-448l25 126h-285l-104 -126h-89zM195 192h242l75 384z" />
    <glyph glyph-name="Ccedilla" unicode="&#xc7;" horiz-adv-x="642" 
d="M195 -185l29 35q37 -23 78 -23q28 0 55.5 15.5t27.5 42.5t-37 27q-17 0 -36 -8t-29 -19l-40 16l77 91q-123 13 -199 98.5t-76 209.5q0 150 101.5 254t250.5 104q153 0 241 -93l-58 -53q-77 72 -184 72q-114 0 -191.5 -81t-77.5 -203q0 -102 68 -169t174 -67q107 0 178 66
l46 -58q-90 -79 -225 -82l-41 -50q24 8 42 8q70 0 70 -58q0 -43 -43 -73t-100 -30q-65 0 -101 28z" />
    <glyph glyph-name="Egrave" unicode="&#xc8;" horiz-adv-x="617" 
d="M14 0l125 648h491l-14 -71h-410l-38 -196h384l-14 -70h-384l-47 -240h425l-13 -71h-505zM392 698l-71 133h86l50 -133h-65z" />
    <glyph glyph-name="Eacute" unicode="&#xc9;" horiz-adv-x="617" 
d="M14 0l125 648h491l-14 -71h-410l-38 -196h384l-14 -70h-384l-47 -240h425l-13 -71h-505zM365 698l107 133h92l-129 -133h-70z" />
    <glyph glyph-name="Ecircumflex" unicode="&#xca;" horiz-adv-x="617" 
d="M14 0l125 648h491l-14 -71h-410l-38 -196h384l-14 -70h-384l-47 -240h425l-13 -71h-505zM275 698l119 133h82l52 -133h-60l-42 87l-89 -87h-62z" />
    <glyph glyph-name="Edieresis" unicode="&#xcb;" horiz-adv-x="617" 
d="M14 0l125 648h491l-14 -71h-410l-38 -196h384l-14 -70h-384l-47 -240h425l-13 -71h-505zM279 747q0 19 13 32t32 13q18 0 31 -13t13 -32q0 -18 -13 -31t-31 -13q-19 0 -32 13t-13 31zM436 747q0 19 13.5 32t32.5 13q18 0 31 -13t13 -32q0 -18 -13 -31t-31 -13
q-19 0 -32.5 13t-13.5 31z" />
    <glyph glyph-name="Igrave" unicode="&#xcc;" horiz-adv-x="232" 
d="M14 0l125 648h80l-125 -648h-80zM167 698l-71 133h86l50 -133h-65z" />
    <glyph glyph-name="Iacute" unicode="&#xcd;" horiz-adv-x="232" 
d="M14 0l125 648h80l-125 -648h-80zM133 698l107 133h92l-129 -133h-70z" />
    <glyph glyph-name="Icircumflex" unicode="&#xce;" horiz-adv-x="232" 
d="M14 0l125 648h80l-125 -648h-80zM58 698l119 133h82l52 -133h-60l-42 87l-89 -87h-62z" />
    <glyph glyph-name="Idieresis" unicode="&#xcf;" horiz-adv-x="232" 
d="M61 738q0 19 13 32t32 13q18 0 31 -13t13 -32q0 -18 -13 -31t-31 -13q-19 0 -32 13t-13 31zM218 738q0 19 13.5 32t32.5 13q18 0 31 -13t13 -32q0 -18 -13 -31t-31 -13q-19 0 -32.5 13t-13.5 31zM14 0l125 648h80l-125 -648h-80z" />
    <glyph glyph-name="Eth" unicode="&#xd0;" horiz-adv-x="707" 
d="M14 0l58 301h-91l12 62h91l55 285h240q135 0 209 -72t74 -192q0 -75 -26.5 -144t-75.5 -122.5t-125 -85.5t-169 -32h-252zM107 71h160q137 0 224 87.5t87 218.5q0 91 -57 145.5t-160 54.5h-155l-42 -214h184l-12 -62h-184z" />
    <glyph glyph-name="Ntilde" unicode="&#xd1;" horiz-adv-x="705" 
d="M14 0l125 648h78l294 -521l101 521h80l-125 -648h-78l-295 518l-100 -518h-80zM291 693q9 46 33 74t60 28q29 0 61.5 -23.5t42.5 -23.5q29 0 39 47h48q-9 -46 -33 -74t-60 -28q-30 0 -61.5 23.5t-41.5 23.5q-31 0 -40 -47h-48z" />
    <glyph glyph-name="Ograve" unicode="&#xd2;" horiz-adv-x="767" 
d="M390 584q-112 0 -187.5 -81t-75.5 -203q0 -102 69.5 -169t178.5 -67q113 0 189.5 81t76.5 202q0 103 -70 170t-181 67zM45 296q0 153 99.5 257.5t246.5 104.5t239 -85.5t92 -222.5q0 -151 -100.5 -255.5t-247.5 -104.5q-143 0 -236 87t-93 219zM416 698l-71 133h86
l50 -133h-65z" />
    <glyph glyph-name="Oacute" unicode="&#xd3;" horiz-adv-x="767" 
d="M390 584q-112 0 -187.5 -81t-75.5 -203q0 -102 69.5 -169t178.5 -67q113 0 189.5 81t76.5 202q0 103 -70 170t-181 67zM45 296q0 153 99.5 257.5t246.5 104.5t239 -85.5t92 -222.5q0 -151 -100.5 -255.5t-247.5 -104.5q-143 0 -236 87t-93 219zM386 698l107 133h92
l-129 -133h-70z" />
    <glyph glyph-name="Ocircumflex" unicode="&#xd4;" horiz-adv-x="767" 
d="M390 584q-112 0 -187.5 -81t-75.5 -203q0 -102 69.5 -169t178.5 -67q113 0 189.5 81t76.5 202q0 103 -70 170t-181 67zM45 296q0 153 99.5 257.5t246.5 104.5t239 -85.5t92 -222.5q0 -151 -100.5 -255.5t-247.5 -104.5q-143 0 -236 87t-93 219zM311 698l119 133h82
l52 -133h-60l-42 87l-89 -87h-62z" />
    <glyph glyph-name="Otilde" unicode="&#xd5;" horiz-adv-x="767" 
d="M390 584q-112 0 -187.5 -81t-75.5 -203q0 -102 69.5 -169t178.5 -67q113 0 189.5 81t76.5 202q0 103 -70 170t-181 67zM45 296q0 153 99.5 257.5t246.5 104.5t239 -85.5t92 -222.5q0 -151 -100.5 -255.5t-247.5 -104.5q-143 0 -236 87t-93 219zM292 693q9 46 33 74t60 28
q29 0 61.5 -23.5t42.5 -23.5q29 0 39 47h48q-9 -46 -33 -74t-60 -28q-30 0 -61.5 23.5t-41.5 23.5q-31 0 -40 -47h-48z" />
    <glyph glyph-name="Odieresis" unicode="&#xd6;" horiz-adv-x="767" 
d="M390 584q-112 0 -187.5 -81t-75.5 -203q0 -102 69.5 -169t178.5 -67q113 0 189.5 81t76.5 202q0 103 -70 170t-181 67zM45 296q0 153 99.5 257.5t246.5 104.5t239 -85.5t92 -222.5q0 -151 -100.5 -255.5t-247.5 -104.5q-143 0 -236 87t-93 219zM301 738q0 19 13 32t32 13
q18 0 31 -13t13 -32q0 -18 -13 -31t-31 -13q-19 0 -32 13t-13 31zM458 738q0 19 13.5 32t32.5 13q18 0 31 -13t13 -32q0 -18 -13 -31t-31 -13q-19 0 -32.5 13t-13.5 31z" />
    <glyph glyph-name="multiply" unicode="&#xd7;" 
d="M72 50l-41 51l198 166l-134 164l55 44l132 -164l200 168l42 -50l-201 -168l132 -165l-52 -44l-134 164z" />
    <glyph glyph-name="Oslash" unicode="&#xd8;" horiz-adv-x="767" 
d="M45 296q0 153 101 257.5t251 104.5q108 0 186 -49l83 107l36 -28l-83 -104q103 -87 103 -234q0 -151 -102 -255.5t-252 -104.5q-100 0 -181 48l-84 -109l-36 28l84 106q-106 93 -106 233zM127 300q0 -105 74 -174l332 421q-58 37 -137 37q-114 0 -191.5 -81t-77.5 -203z
M569 520l-333 -421q60 -35 133 -35q116 0 194 81t78 202q0 111 -72 173z" />
    <glyph glyph-name="Ugrave" unicode="&#xd9;" horiz-adv-x="668" 
d="M281 -10q-112 0 -172 55t-60 149q0 43 8 83l72 371h80l-73 -374q-6 -35 -6 -64q0 -66 38.5 -106.5t113.5 -40.5q94 0 151.5 54t77.5 154l74 377h80l-74 -383q-26 -132 -105 -203.5t-205 -71.5zM391 698l-71 133h86l50 -133h-65z" />
    <glyph glyph-name="Uacute" unicode="&#xda;" horiz-adv-x="668" 
d="M281 -10q-112 0 -172 55t-60 149q0 43 8 83l72 371h80l-73 -374q-6 -35 -6 -64q0 -66 38.5 -106.5t113.5 -40.5q94 0 151.5 54t77.5 154l74 377h80l-74 -383q-26 -132 -105 -203.5t-205 -71.5zM355 698l107 133h92l-129 -133h-70z" />
    <glyph glyph-name="Ucircumflex" unicode="&#xdb;" horiz-adv-x="668" 
d="M281 -10q-112 0 -172 55t-60 149q0 43 8 83l72 371h80l-73 -374q-6 -35 -6 -64q0 -66 38.5 -106.5t113.5 -40.5q94 0 151.5 54t77.5 154l74 377h80l-74 -383q-26 -132 -105 -203.5t-205 -71.5zM279 698l119 133h82l52 -133h-60l-42 87l-89 -87h-62z" />
    <glyph glyph-name="Udieresis" unicode="&#xdc;" horiz-adv-x="668" 
d="M281 -10q-112 0 -172 55t-60 149q0 43 8 83l72 371h80l-73 -374q-6 -35 -6 -64q0 -66 38.5 -106.5t113.5 -40.5q94 0 151.5 54t77.5 154l74 377h80l-74 -383q-26 -132 -105 -203.5t-205 -71.5zM281 738q0 19 13 32t32 13q18 0 31 -13t13 -32q0 -18 -13 -31t-31 -13
q-19 0 -32 13t-13 31zM438 738q0 19 13.5 32t32.5 13q18 0 31 -13t13 -32q0 -18 -13 -31t-31 -13q-19 0 -32.5 13t-13.5 31z" />
    <glyph glyph-name="Yacute" unicode="&#xdd;" horiz-adv-x="623" 
d="M209 0l59 307l-196 341h90l154 -272l261 272h98l-327 -340l-59 -308h-80zM306 698l107 133h92l-129 -133h-70z" />
    <glyph glyph-name="Thorn" unicode="&#xde;" horiz-adv-x="595" 
d="M14 0l125 648h80l-20 -106h176q79 0 130 -50t51 -125q0 -104 -72 -180.5t-202 -76.5h-167l-21 -110h-80zM128 180h160q84 0 133.5 51t49.5 123q0 51 -32.5 84.5t-84.5 33.5h-168z" />
    <glyph glyph-name="germandbls" unicode="&#xdf;" horiz-adv-x="547" 
d="M14 0l87 451q40 207 211 207q77 0 120 -42t43 -109q0 -52 -24 -100.5t-74 -78.5q54 -12 84 -51.5t30 -90.5q0 -79 -52.5 -137.5t-140.5 -58.5q-78 0 -124 41l42 63q28 -30 78 -30q54 0 86 35.5t32 83.5q0 44 -31 72.5t-92 28.5h-34l12 60h8q52 3 86.5 48t34.5 101
q0 41 -23.5 66t-67.5 25q-102 0 -127 -129l-88 -455h-76z" />
    <glyph glyph-name="agrave" unicode="&#xe0;" horiz-adv-x="596" 
d="M45 219q0 114 69.5 196t176.5 82q68 0 118 -35.5t70 -91.5l23 117h76l-94 -487h-72l13 70q-63 -80 -168 -80q-93 0 -152.5 65.5t-59.5 163.5zM123 225q0 -71 42.5 -116t108.5 -45q79 0 129.5 56.5t50.5 140.5q0 68 -43.5 115t-112.5 47q-75 0 -125 -56t-50 -142zM301 565
l-71 133h86l50 -133h-65z" />
    <glyph glyph-name="aacute" unicode="&#xe1;" horiz-adv-x="596" 
d="M45 219q0 114 69.5 196t176.5 82q68 0 118 -35.5t70 -91.5l23 117h76l-94 -487h-72l13 70q-63 -80 -168 -80q-93 0 -152.5 65.5t-59.5 163.5zM123 225q0 -71 42.5 -116t108.5 -45q79 0 129.5 56.5t50.5 140.5q0 68 -43.5 115t-112.5 47q-75 0 -125 -56t-50 -142zM279 565
l107 133h92l-129 -133h-70z" />
    <glyph glyph-name="acircumflex" unicode="&#xe2;" horiz-adv-x="596" 
d="M45 219q0 114 69.5 196t176.5 82q68 0 118 -35.5t70 -91.5l23 117h76l-94 -487h-72l13 70q-63 -80 -168 -80q-93 0 -152.5 65.5t-59.5 163.5zM123 225q0 -71 42.5 -116t108.5 -45q79 0 129.5 56.5t50.5 140.5q0 68 -43.5 115t-112.5 47q-75 0 -125 -56t-50 -142zM208 559
l119 133h82l52 -133h-60l-42 87l-89 -87h-62z" />
    <glyph glyph-name="atilde" unicode="&#xe3;" horiz-adv-x="596" 
d="M45 219q0 114 69.5 196t176.5 82q68 0 118 -35.5t70 -91.5l23 117h76l-94 -487h-72l13 70q-63 -80 -168 -80q-93 0 -152.5 65.5t-59.5 163.5zM123 225q0 -71 42.5 -116t108.5 -45q79 0 129.5 56.5t50.5 140.5q0 68 -43.5 115t-112.5 47q-75 0 -125 -56t-50 -142zM207 563
q9 46 33 74t60 28q29 0 61.5 -23.5t42.5 -23.5q29 0 39 47h48q-9 -46 -33 -74t-60 -28q-30 0 -61.5 23.5t-41.5 23.5q-31 0 -40 -47h-48z" />
    <glyph glyph-name="adieresis" unicode="&#xe4;" horiz-adv-x="596" 
d="M45 219q0 114 69.5 196t176.5 82q68 0 118 -35.5t70 -91.5l23 117h76l-94 -487h-72l13 70q-63 -80 -168 -80q-93 0 -152.5 65.5t-59.5 163.5zM123 225q0 -71 42.5 -116t108.5 -45q79 0 129.5 56.5t50.5 140.5q0 68 -43.5 115t-112.5 47q-75 0 -125 -56t-50 -142zM205 615
q0 19 13 32t32 13q18 0 31 -13t13 -32q0 -18 -13 -31t-31 -13q-19 0 -32 13t-13 31zM362 615q0 19 13.5 32t32.5 13q18 0 31 -13t13 -32q0 -18 -13 -31t-31 -13q-19 0 -32.5 13t-13.5 31z" />
    <glyph glyph-name="aring" unicode="&#xe5;" horiz-adv-x="596" 
d="M45 219q0 114 69.5 196t176.5 82q68 0 118 -35.5t70 -91.5l23 117h76l-94 -487h-72l13 70q-63 -80 -168 -80q-93 0 -152.5 65.5t-59.5 163.5zM123 225q0 -71 42.5 -116t108.5 -45q79 0 129.5 56.5t50.5 140.5q0 68 -43.5 115t-112.5 47q-75 0 -125 -56t-50 -142zM220 647
q0 41 29 70t70 29t70 -29t29 -70t-29 -70.5t-70 -29.5t-70 29.5t-29 70.5zM265 647q0 -24 15.5 -41t38.5 -17t38.5 17t15.5 41q0 23 -15.5 40t-38.5 17t-38.5 -17t-15.5 -40z" />
    <glyph glyph-name="ae" unicode="&#xe6;" horiz-adv-x="926" 
d="M41 124q0 59 39.5 99.5t96.5 56.5t126 16t112 -6q1 6 1 18q-2 59 -35.5 90t-92.5 31q-43 0 -81 -9.5t-55 -19.5l-16 -9l-29 53q8 6 22.5 15t62 23.5t98.5 14.5q144 0 177 -110q78 110 199 110q102 0 163 -66t61 -163l-6 -53h-392q4 -73 48.5 -115t111.5 -42q81 0 135 51
l46 -50q-77 -69 -185 -69q-146 0 -207 126q-72 -126 -230 -126q-78 0 -124 35t-46 99zM300 238q-29 0 -57 -4t-58 -14.5t-48.5 -32t-18.5 -52.5q0 -38 29 -58t73 -20q83 0 136 43t58 118l1 14q-50 6 -115 6zM497 275h318q-2 68 -41.5 111t-106.5 43q-63 0 -109 -43t-61 -111
z" />
    <glyph glyph-name="ccedilla" unicode="&#xe7;" horiz-adv-x="507" 
d="M123 -185l29 35q37 -23 78 -23q28 0 55.5 15.5t27.5 42.5t-37 27q-17 0 -36 -8t-29 -19l-40 16l77 92q-91 12 -147 75t-56 155q0 115 77 194.5t190 79.5q115 0 184 -72l-60 -52q-45 50 -125 50q-79 0 -132.5 -56t-53.5 -140q0 -70 46.5 -116.5t120.5 -46.5q79 0 135 55
l49 -53q-73 -73 -180 -76l-41 -50q24 8 42 8q70 0 70 -58q0 -43 -43 -73t-100 -30q-65 0 -101 28z" />
    <glyph glyph-name="egrave" unicode="&#xe8;" horiz-adv-x="560" 
d="M128 275h320q-2 69 -40 111.5t-104 42.5q-64 0 -113 -44t-63 -110zM45 223q0 115 74.5 194.5t182.5 79.5q104 0 163 -65.5t59 -163.5q0 -23 -5 -53h-395q4 -72 52 -114.5t116 -42.5q81 0 135 51l46 -50q-77 -69 -185 -69q-106 0 -174.5 66.5t-68.5 166.5zM306 565
l-71 133h86l50 -133h-65z" />
    <glyph glyph-name="eacute" unicode="&#xe9;" horiz-adv-x="560" 
d="M128 275h320q-2 69 -40 111.5t-104 42.5q-64 0 -113 -44t-63 -110zM45 223q0 115 74.5 194.5t182.5 79.5q104 0 163 -65.5t59 -163.5q0 -23 -5 -53h-395q4 -72 52 -114.5t116 -42.5q81 0 135 51l46 -50q-77 -69 -185 -69q-106 0 -174.5 66.5t-68.5 166.5zM270 565
l107 133h92l-129 -133h-70z" />
    <glyph glyph-name="ecircumflex" unicode="&#xea;" horiz-adv-x="560" 
d="M128 275h320q-2 69 -40 111.5t-104 42.5q-64 0 -113 -44t-63 -110zM45 223q0 115 74.5 194.5t182.5 79.5q104 0 163 -65.5t59 -163.5q0 -23 -5 -53h-395q4 -72 52 -114.5t116 -42.5q81 0 135 51l46 -50q-77 -69 -185 -69q-106 0 -174.5 66.5t-68.5 166.5zM199 559
l119 133h82l52 -133h-60l-42 87l-89 -87h-62z" />
    <glyph glyph-name="edieresis" unicode="&#xeb;" horiz-adv-x="560" 
d="M128 275h320q-2 69 -40 111.5t-104 42.5q-64 0 -113 -44t-63 -110zM45 223q0 115 74.5 194.5t182.5 79.5q104 0 163 -65.5t59 -163.5q0 -23 -5 -53h-395q4 -72 52 -114.5t116 -42.5q81 0 135 51l46 -50q-77 -69 -185 -69q-106 0 -174.5 66.5t-68.5 166.5zM203 615
q0 19 13 32t32 13q18 0 31 -13t13 -32q0 -18 -13 -31t-31 -13q-19 0 -32 13t-13 31zM360 615q0 19 13.5 32t32.5 13q18 0 31 -13t13 -32q0 -18 -13 -31t-31 -13q-19 0 -32.5 13t-13.5 31z" />
    <glyph glyph-name="igrave" unicode="&#xec;" horiz-adv-x="208" 
d="M20 0l95 487h76l-94 -487h-77zM138 565l-71 133h86l50 -133h-65z" />
    <glyph glyph-name="iacute" unicode="&#xed;" horiz-adv-x="208" 
d="M20 0l95 487h76l-94 -487h-77zM108 565l107 133h92l-129 -133h-70z" />
    <glyph glyph-name="icircumflex" unicode="&#xee;" horiz-adv-x="208" 
d="M20 0l95 487h76l-94 -487h-77zM30 559l119 133h82l52 -133h-60l-42 87l-89 -87h-62z" />
    <glyph glyph-name="idieresis" unicode="&#xef;" horiz-adv-x="208" 
d="M44 615q0 19 13 32t32 13q18 0 31 -13t13 -32q0 -18 -13 -31t-31 -13q-19 0 -32 13t-13 31zM201 615q0 19 13.5 32t32.5 13q18 0 31 -13t13 -32q0 -18 -13 -31t-31 -13q-19 0 -32.5 13t-13.5 31zM20 0l95 487h76l-94 -487h-77z" />
    <glyph glyph-name="eth" unicode="&#xf0;" horiz-adv-x="594" 
d="M45 223q0 115 77.5 190t189.5 75q74 0 112 -33q-43 63 -115 109l-100 -42l-15 37l68 29q-31 15 -74 28l36 47q60 -17 111 -45l105 44l15 -36l-77 -33q80 -57 130.5 -144t50.5 -186q0 -114 -77.5 -193.5t-191.5 -79.5q-107 0 -176 66.5t-69 166.5zM125 227
q0 -71 46.5 -117.5t120.5 -46.5q79 0 133 57t54 140q0 70 -47 116.5t-121 46.5q-79 0 -132.5 -56t-53.5 -140z" />
    <glyph glyph-name="ntilde" unicode="&#xf1;" horiz-adv-x="543" 
d="M20 0l95 487h76l-15 -78q70 88 181 88q74 0 111.5 -37.5t38.5 -101.5q0 -16 -8 -61l-58 -297h-76l56 285q5 23 5 55q0 83 -103 83q-65 0 -113.5 -44.5t-60.5 -105.5l-53 -273h-76zM197 563q9 46 33 74t60 28q29 0 61.5 -23.5t42.5 -23.5q29 0 39 47h48q-9 -46 -33 -74
t-60 -28q-30 0 -61.5 23.5t-41.5 23.5q-31 0 -40 -47h-48z" />
    <glyph glyph-name="ograve" unicode="&#xf2;" horiz-adv-x="594" 
d="M45 223q0 115 77 194.5t190 79.5q110 0 178.5 -65t68.5 -169q0 -114 -77.5 -193.5t-190.5 -79.5q-107 0 -176.5 66.5t-69.5 166.5zM125 227q0 -70 46.5 -116.5t120.5 -46.5q79 0 132.5 56.5t53.5 139.5q0 70 -46.5 116.5t-120.5 46.5q-79 0 -132.5 -56t-53.5 -140z
M315 565l-71 133h86l50 -133h-65z" />
    <glyph glyph-name="oacute" unicode="&#xf3;" horiz-adv-x="594" 
d="M45 223q0 115 77 194.5t190 79.5q110 0 178.5 -65t68.5 -169q0 -114 -77.5 -193.5t-190.5 -79.5q-107 0 -176.5 66.5t-69.5 166.5zM125 227q0 -70 46.5 -116.5t120.5 -46.5q79 0 132.5 56.5t53.5 139.5q0 70 -46.5 116.5t-120.5 46.5q-79 0 -132.5 -56t-53.5 -140z
M291 565l107 133h92l-129 -133h-70z" />
    <glyph glyph-name="ocircumflex" unicode="&#xf4;" horiz-adv-x="594" 
d="M45 223q0 115 77 194.5t190 79.5q110 0 178.5 -65t68.5 -169q0 -114 -77.5 -193.5t-190.5 -79.5q-107 0 -176.5 66.5t-69.5 166.5zM125 227q0 -70 46.5 -116.5t120.5 -46.5q79 0 132.5 56.5t53.5 139.5q0 70 -46.5 116.5t-120.5 46.5q-79 0 -132.5 -56t-53.5 -140z
M230 559l119 133h82l52 -133h-60l-42 87l-89 -87h-62z" />
    <glyph glyph-name="otilde" unicode="&#xf5;" horiz-adv-x="594" 
d="M45 223q0 115 77 194.5t190 79.5q110 0 178.5 -65t68.5 -169q0 -114 -77.5 -193.5t-190.5 -79.5q-107 0 -176.5 66.5t-69.5 166.5zM125 227q0 -70 46.5 -116.5t120.5 -46.5q79 0 132.5 56.5t53.5 139.5q0 70 -46.5 116.5t-120.5 46.5q-79 0 -132.5 -56t-53.5 -140z
M216 563q9 46 33 74t60 28q29 0 61.5 -23.5t42.5 -23.5q29 0 39 47h48q-9 -46 -33 -74t-60 -28q-30 0 -61.5 23.5t-41.5 23.5q-31 0 -40 -47h-48z" />
    <glyph glyph-name="odieresis" unicode="&#xf6;" horiz-adv-x="594" 
d="M45 223q0 115 77 194.5t190 79.5q110 0 178.5 -65t68.5 -169q0 -114 -77.5 -193.5t-190.5 -79.5q-107 0 -176.5 66.5t-69.5 166.5zM125 227q0 -70 46.5 -116.5t120.5 -46.5q79 0 132.5 56.5t53.5 139.5q0 70 -46.5 116.5t-120.5 46.5q-79 0 -132.5 -56t-53.5 -140z
M225 615q0 19 13 32t32 13q18 0 31 -13t13 -32q0 -18 -13 -31t-31 -13q-19 0 -32 13t-13 31zM382 615q0 19 13.5 32t32.5 13q18 0 31 -13t13 -32q0 -18 -13 -31t-31 -13q-19 0 -32.5 13t-13.5 31z" />
    <glyph glyph-name="divide" unicode="&#xf7;" 
d="M252 415q0 23 16.5 40t39.5 17q24 0 41 -17t17 -40q0 -24 -17 -40.5t-41 -16.5q-23 0 -39.5 16.5t-16.5 40.5zM192 115q0 23 16.5 40t40.5 17q23 0 40 -17t17 -40q0 -24 -17 -40.5t-40 -16.5q-24 0 -40.5 16.5t-16.5 40.5zM50 232l12 65h446l-12 -65h-446z" />
    <glyph glyph-name="oslash" unicode="&#xf8;" horiz-adv-x="594" 
d="M45 223q0 115 77 194.5t190 79.5q73 0 133 -32l67 85l37 -26l-67 -85q77 -64 77 -176q0 -114 -77.5 -193.5t-190.5 -79.5q-72 0 -136 36l-68 -86l-35 28l67 83q-74 71 -74 172zM432 376l-229 -290q36 -22 89 -22q79 0 133 56.5t54 139.5q0 70 -47 116zM125 227
q0 -66 43 -113l228 289q-38 20 -85 20q-79 0 -132.5 -56t-53.5 -140z" />
    <glyph glyph-name="ugrave" unicode="&#xf9;" horiz-adv-x="537" 
d="M59 198l56 289h76l-55 -285q-7 -35 -7 -49q0 -89 103 -89q59 0 106 42t60 108l53 273h76l-95 -487h-76l15 75q-69 -85 -172 -85q-75 0 -111.5 37t-36.5 103q0 30 8 68zM320 565l-71 133h86l50 -133h-65z" />
    <glyph glyph-name="uacute" unicode="&#xfa;" horiz-adv-x="537" 
d="M59 198l56 289h76l-55 -285q-7 -35 -7 -49q0 -89 103 -89q59 0 106 42t60 108l53 273h76l-95 -487h-76l15 75q-69 -85 -172 -85q-75 0 -111.5 37t-36.5 103q0 30 8 68zM282 565l107 133h92l-129 -133h-70z" />
    <glyph glyph-name="ucircumflex" unicode="&#xfb;" horiz-adv-x="537" 
d="M59 198l56 289h76l-55 -285q-7 -35 -7 -49q0 -89 103 -89q59 0 106 42t60 108l53 273h76l-95 -487h-76l15 75q-69 -85 -172 -85q-75 0 -111.5 37t-36.5 103q0 30 8 68zM203 559l119 133h82l52 -133h-60l-42 87l-89 -87h-62z" />
    <glyph glyph-name="udieresis" unicode="&#xfc;" horiz-adv-x="537" 
d="M59 198l56 289h76l-55 -285q-7 -35 -7 -49q0 -89 103 -89q59 0 106 42t60 108l53 273h76l-95 -487h-76l15 75q-69 -85 -172 -85q-75 0 -111.5 37t-36.5 103q0 30 8 68zM212 615q0 19 13 32t32 13q18 0 31 -13t13 -32q0 -18 -13 -31t-31 -13q-19 0 -32 13t-13 31zM369 615
q0 19 13.5 32t32.5 13q18 0 31 -13t13 -32q0 -18 -13 -31t-31 -13q-19 0 -32.5 13t-13.5 31z" />
    <glyph glyph-name="yacute" unicode="&#xfd;" horiz-adv-x="526" 
d="M27 -147l16 72q38 0 66 16.5t60 64.5l14 21l-129 460h82l104 -387l230 387h91l-302 -486q-57 -92 -106.5 -120t-125.5 -28zM266 565l107 133h92l-129 -133h-70z" />
    <glyph glyph-name="thorn" unicode="&#xfe;" horiz-adv-x="593" 
d="M-6 -137l152 789h76l-50 -241q30 45 77.5 65.5t91.5 20.5q96 0 156 -65t60 -165q0 -113 -72.5 -195t-179.5 -82q-67 0 -116 31.5t-70 91.5l-49 -250h-76zM144 226q0 -68 42 -115t111 -47q78 0 130 56t52 141q0 71 -44.5 116.5t-111.5 45.5q-76 0 -127.5 -59t-51.5 -138z
" />
    <glyph glyph-name="ydieresis" unicode="&#xff;" horiz-adv-x="526" 
d="M27 -147l16 72q38 0 66 16.5t60 64.5l14 21l-129 460h82l104 -387l230 387h91l-302 -486q-57 -92 -106.5 -120t-125.5 -28zM190 615q0 19 13 32t32 13q18 0 31 -13t13 -32q0 -18 -13 -31t-31 -13q-19 0 -32 13t-13 31zM347 615q0 19 13.5 32t32.5 13q18 0 31 -13t13 -32
q0 -18 -13 -31t-31 -13q-19 0 -32.5 13t-13.5 31z" />
    <glyph glyph-name="Amacron" unicode="&#x100;" horiz-adv-x="697" 
d="M-53 0l430 648h69l181 -648h-81l-36 126h-395l-83 -126h-85zM157 192h335l-97 362zM316 708l13 59h200l-13 -59h-200z" />
    <glyph glyph-name="amacron" unicode="&#x101;" horiz-adv-x="596" 
d="M45 219q0 114 69.5 196t176.5 82q68 0 118 -35.5t70 -91.5l23 117h76l-94 -487h-72l13 70q-63 -80 -168 -80q-93 0 -152.5 65.5t-59.5 163.5zM123 225q0 -71 42.5 -116t108.5 -45q79 0 129.5 56.5t50.5 140.5q0 68 -43.5 115t-112.5 47q-75 0 -125 -56t-50 -142zM223 570
l13 59h200l-13 -59h-200z" />
    <glyph glyph-name="Abreve" unicode="&#x102;" horiz-adv-x="697" 
d="M-53 0l430 648h69l181 -648h-81l-36 126h-395l-83 -126h-85zM157 192h335l-97 362zM414 693q-41 0 -64 21t-23 54q0 17 4 32h46q0 -1 -0.5 -5t-0.5 -7q0 -19 11 -29.5t31 -10.5q54 0 72 52h49q-26 -107 -125 -107z" />
    <glyph glyph-name="abreve" unicode="&#x103;" horiz-adv-x="596" 
d="M45 219q0 114 69.5 196t176.5 82q68 0 118 -35.5t70 -91.5l23 117h76l-94 -487h-72l13 70q-63 -80 -168 -80q-93 0 -152.5 65.5t-59.5 163.5zM123 225q0 -71 42.5 -116t108.5 -45q79 0 129.5 56.5t50.5 140.5q0 68 -43.5 115t-112.5 47q-75 0 -125 -56t-50 -142zM322 554
q-41 0 -64 21t-23 54q0 17 4 32h46q0 -1 -0.5 -5t-0.5 -7q0 -19 11 -29.5t31 -10.5q54 0 72 52h49q-26 -107 -125 -107z" />
    <glyph glyph-name="Aogonek" unicode="&#x104;" horiz-adv-x="697" 
d="M453 -151q0 78 93 151l-36 126h-395l-83 -126h-85l430 648h69l181 -648h-31q-32 -24 -57 -58t-25 -68q0 -18 12.5 -29t32.5 -11q18 0 42 11l8 -40q-37 -25 -79 -25q-33 0 -55 18.5t-22 50.5zM157 192h335l-97 362z" />
    <glyph glyph-name="aogonek" unicode="&#x105;" horiz-adv-x="596" 
d="M318 -151q0 77 94 151l13 70q-63 -80 -168 -80q-93 0 -152.5 65.5t-59.5 163.5q0 114 69.5 196t176.5 82q68 0 118 -35.5t70 -91.5l23 117h76l-94 -487h-23q-32 -24 -57 -58t-25 -68q0 -18 12.5 -29t32.5 -11q18 0 42 11l8 -40q-38 -25 -79 -25q-33 0 -55 18.5t-22 50.5z
M123 225q0 -71 42.5 -116t108.5 -45q79 0 129.5 56.5t50.5 140.5q0 68 -43.5 115t-112.5 47q-75 0 -125 -56t-50 -142z" />
    <glyph glyph-name="Cacute" unicode="&#x106;" horiz-adv-x="642" 
d="M547 130l46 -58q-93 -82 -231 -82q-139 0 -228 88t-89 222q0 150 101.5 254t250.5 104q153 0 241 -93l-58 -53q-77 72 -184 72q-114 0 -191.5 -81t-77.5 -203q0 -102 68 -169t174 -67q107 0 178 66zM379 698l107 133h92l-129 -133h-70z" />
    <glyph glyph-name="cacute" unicode="&#x107;" horiz-adv-x="507" 
d="M45 223q0 115 77 194.5t190 79.5q115 0 184 -72l-60 -52q-45 50 -125 50q-79 0 -132.5 -56t-53.5 -140q0 -70 46.5 -116.5t120.5 -46.5q79 0 135 55l49 -53q-75 -76 -187 -76q-108 0 -176 65.5t-68 167.5zM289 565l107 133h92l-129 -133h-70z" />
    <glyph glyph-name="Ccircumflex" unicode="&#x108;" horiz-adv-x="642" 
d="M547 130l46 -58q-93 -82 -231 -82q-139 0 -228 88t-89 222q0 150 101.5 254t250.5 104q153 0 241 -93l-58 -53q-77 72 -184 72q-114 0 -191.5 -81t-77.5 -203q0 -102 68 -169t174 -67q107 0 178 66zM300 698l119 133h82l52 -133h-60l-42 87l-89 -87h-62z" />
    <glyph glyph-name="ccircumflex" unicode="&#x109;" horiz-adv-x="507" 
d="M45 223q0 115 77 194.5t190 79.5q115 0 184 -72l-60 -52q-45 50 -125 50q-79 0 -132.5 -56t-53.5 -140q0 -70 46.5 -116.5t120.5 -46.5q79 0 135 55l49 -53q-75 -76 -187 -76q-108 0 -176 65.5t-68 167.5zM202 559l119 133h82l52 -133h-60l-42 87l-89 -87h-62z" />
    <glyph glyph-name="Cdotaccent" unicode="&#x10a;" horiz-adv-x="642" 
d="M547 130l46 -58q-93 -82 -231 -82q-139 0 -228 88t-89 222q0 150 101.5 254t250.5 104q153 0 241 -93l-58 -53q-77 72 -184 72q-114 0 -191.5 -81t-77.5 -203q0 -102 68 -169t174 -67q107 0 178 66zM379 743q0 21 15 36t36 15q20 0 35 -15t15 -36q0 -20 -15 -35t-35 -15
q-21 0 -36 15t-15 35z" />
    <glyph glyph-name="cdotaccent" unicode="&#x10b;" horiz-adv-x="507" 
d="M45 223q0 115 77 194.5t190 79.5q115 0 184 -72l-60 -52q-45 50 -125 50q-79 0 -132.5 -56t-53.5 -140q0 -70 46.5 -116.5t120.5 -46.5q79 0 135 55l49 -53q-75 -76 -187 -76q-108 0 -176 65.5t-68 167.5zM290 624q0 21 15 36t36 15q20 0 35 -15t15 -36q0 -20 -15 -35
t-35 -15q-21 0 -36 15t-15 35z" />
    <glyph glyph-name="Ccaron" unicode="&#x10c;" horiz-adv-x="642" 
d="M388 698l-53 133h60l38 -87l84 87h69l-119 -133h-79zM547 130l46 -58q-93 -82 -231 -82q-139 0 -228 88t-89 222q0 150 101.5 254t250.5 104q153 0 241 -93l-58 -53q-77 72 -184 72q-114 0 -191.5 -81t-77.5 -203q0 -102 68 -169t174 -67q107 0 178 66z" />
    <glyph glyph-name="ccaron" unicode="&#x10d;" horiz-adv-x="507" 
d="M291 559l-53 133h60l38 -87l84 87h69l-119 -133h-79zM45 223q0 115 77 194.5t190 79.5q115 0 184 -72l-60 -52q-45 50 -125 50q-79 0 -132.5 -56t-53.5 -140q0 -70 46.5 -116.5t120.5 -46.5q79 0 135 55l49 -53q-75 -76 -187 -76q-108 0 -176 65.5t-68 167.5z" />
    <glyph glyph-name="Dcaron" unicode="&#x10e;" horiz-adv-x="707" 
d="M107 71h160q137 0 224 87.5t87 218.5q0 91 -57 145.5t-160 54.5h-155zM14 0l125 648h240q135 0 209 -72t74 -192q0 -75 -26.5 -144t-75.5 -122.5t-125 -85.5t-169 -32h-252zM331 698l-53 133h60l38 -87l84 87h69l-119 -133h-79z" />
    <glyph glyph-name="dcaron" unicode="&#x10f;" horiz-adv-x="593" 
d="M44 219q0 114 70 196t177 82q67 0 116 -35.5t69 -91.5l56 288h77l-127 -658h-73l13 70q-62 -80 -166 -80q-93 0 -152.5 65.5t-59.5 163.5zM123 225q0 -71 42.5 -116t108.5 -45q79 0 128 56.5t49 140.5q0 68 -42.5 115t-111.5 47q-75 0 -124.5 -56t-49.5 -142zM628 469
h-47q33 30 60.5 71.5t27.5 77.5q0 10 -2 24l61 20q2 -16 2 -23q0 -48 -29.5 -94t-72.5 -76z" />
    <glyph glyph-name="Dcroat" unicode="&#x110;" horiz-adv-x="707" 
d="M14 0l58 301h-91l12 62h91l55 285h240q135 0 209 -72t74 -192q0 -75 -26.5 -144t-75.5 -122.5t-125 -85.5t-169 -32h-252zM107 71h160q137 0 224 87.5t87 218.5q0 91 -57 145.5t-160 54.5h-155l-42 -214h184l-12 -62h-184z" />
    <glyph glyph-name="dcroat" unicode="&#x111;" horiz-adv-x="593" 
d="M44 219q0 114 70 196t177 82q67 0 115.5 -35.5t68.5 -91.5l35 178h-167l9 46h167l12 64h77l-12 -64h60l-9 -46h-60l-106 -548h-73l13 70q-62 -80 -165 -80q-93 0 -152.5 65.5t-59.5 163.5zM123 225q0 -71 42.5 -116t108.5 -45q79 0 128 56.5t49 140.5q0 68 -42.5 115
t-111.5 47q-75 0 -124.5 -56t-49.5 -142z" />
    <glyph glyph-name="Emacron" unicode="&#x112;" horiz-adv-x="617" 
d="M14 0l125 648h491l-14 -71h-410l-38 -196h384l-14 -70h-384l-47 -240h425l-13 -71h-505zM297 708l13 59h200l-13 -59h-200z" />
    <glyph glyph-name="emacron" unicode="&#x113;" horiz-adv-x="560" 
d="M128 275h320q-2 69 -40 111.5t-104 42.5q-64 0 -113 -44t-63 -110zM45 223q0 115 74.5 194.5t182.5 79.5q104 0 163 -65.5t59 -163.5q0 -23 -5 -53h-395q4 -72 52 -114.5t116 -42.5q81 0 135 51l46 -50q-77 -69 -185 -69q-106 0 -174.5 66.5t-68.5 166.5zM218 570l13 59
h200l-13 -59h-200z" />
    <glyph glyph-name="Ebreve" unicode="&#x114;" horiz-adv-x="617" 
d="M14 0l125 648h491l-14 -71h-410l-38 -196h384l-14 -70h-384l-47 -240h425l-13 -71h-505zM391 693q-41 0 -64 21t-23 54q0 17 4 32h46q0 -1 -0.5 -5t-0.5 -7q0 -19 11 -29.5t31 -10.5q54 0 72 52h49q-26 -107 -125 -107z" />
    <glyph glyph-name="ebreve" unicode="&#x115;" horiz-adv-x="560" 
d="M128 275h320q-2 69 -40 111.5t-104 42.5q-64 0 -113 -44t-63 -110zM45 223q0 115 74.5 194.5t182.5 79.5q104 0 163 -65.5t59 -163.5q0 -23 -5 -53h-395q4 -72 52 -114.5t116 -42.5q81 0 135 51l46 -50q-77 -69 -185 -69q-106 0 -174.5 66.5t-68.5 166.5zM320 554
q-41 0 -64 21t-23 54q0 17 4 32h46q0 -1 -0.5 -5t-0.5 -7q0 -19 11 -29.5t31 -10.5q54 0 72 52h49q-26 -107 -125 -107z" />
    <glyph glyph-name="Edotaccent" unicode="&#x116;" horiz-adv-x="617" 
d="M14 0l125 648h491l-14 -71h-410l-38 -196h384l-14 -70h-384l-47 -240h425l-13 -71h-505zM346 743q0 21 15 36t36 15q20 0 35 -15t15 -36q0 -20 -15 -35t-35 -15q-21 0 -36 15t-15 35z" />
    <glyph glyph-name="edotaccent" unicode="&#x117;" horiz-adv-x="560" 
d="M128 275h320q-2 69 -40 111.5t-104 42.5q-64 0 -113 -44t-63 -110zM45 223q0 115 74.5 194.5t182.5 79.5q104 0 163 -65.5t59 -163.5q0 -23 -5 -53h-395q4 -72 52 -114.5t116 -42.5q81 0 135 51l46 -50q-77 -69 -185 -69q-106 0 -174.5 66.5t-68.5 166.5zM278 624
q0 21 15 36t36 15q20 0 35 -15t15 -36q0 -20 -15 -35t-35 -15q-21 0 -36 15t-15 35z" />
    <glyph glyph-name="Eogonek" unicode="&#x118;" horiz-adv-x="617" 
d="M14 0l125 648h491l-14 -71h-410l-38 -196h384l-14 -70h-384l-47 -240h425l-13 -71h-60q-32 -24 -57 -58t-25 -68q0 -18 12.5 -29t32.5 -11q18 0 42 11l8 -40q-38 -25 -79 -25q-33 0 -55 18.5t-22 50.5q0 78 93 151h-395z" />
    <glyph glyph-name="eogonek" unicode="&#x119;" horiz-adv-x="560" 
d="M218 -151q0 74 81 141h-11q-106 0 -174.5 66.5t-68.5 166.5q0 115 74.5 194.5t182.5 79.5q104 0 163 -65.5t59 -163.5q0 -23 -5 -53h-395q4 -72 52 -114.5t116 -42.5q81 0 135 51l46 -50q-51 -46 -115 -61q-32 -25 -55.5 -58t-23.5 -66q0 -18 12.5 -29t32.5 -11
q18 0 42 11l8 -40q-38 -25 -79 -25q-33 0 -55 18.5t-22 50.5zM128 275h320q-2 69 -40 111.5t-104 42.5q-64 0 -113 -44t-63 -110z" />
    <glyph glyph-name="Ecaron" unicode="&#x11a;" horiz-adv-x="617" 
d="M14 0l125 648h491l-14 -71h-410l-38 -196h384l-14 -70h-384l-47 -240h425l-13 -71h-505zM362 698l-53 133h60l38 -87l84 87h69l-119 -133h-79z" />
    <glyph glyph-name="ecaron" unicode="&#x11b;" horiz-adv-x="560" 
d="M128 275h320q-2 69 -40 111.5t-104 42.5q-64 0 -113 -44t-63 -110zM45 223q0 115 74.5 194.5t182.5 79.5q104 0 163 -65.5t59 -163.5q0 -23 -5 -53h-395q4 -72 52 -114.5t116 -42.5q81 0 135 51l46 -50q-77 -69 -185 -69q-106 0 -174.5 66.5t-68.5 166.5zM290 559
l-53 133h60l38 -87l84 87h69l-119 -133h-79z" />
    <glyph glyph-name="Gcircumflex" unicode="&#x11c;" horiz-adv-x="730" 
d="M45 296q0 153 101 257.5t251 104.5q148 0 240 -90l-57 -57q-70 73 -184 73t-191.5 -81t-77.5 -203q0 -102 68 -169t174 -67q130 0 199 100l25 136h-141l13 69h220l-45 -233q-93 -146 -278 -146q-137 0 -227 87t-90 219zM284 698l119 133h82l52 -133h-60l-42 87l-89 -87
h-62z" />
    <glyph glyph-name="gcircumflex" unicode="&#x11d;" horiz-adv-x="593" 
d="M46 230q0 105 70 186t176 81q67 0 115.5 -35t68.5 -92l23 117h77l-73 -375q-12 -63 -36.5 -111t-52 -75.5t-61.5 -44.5t-61.5 -22.5t-56.5 -5.5q-116 0 -180 81l49 48q49 -63 135 -63q126 0 178 159l10 31q-68 -85 -169 -85q-88 0 -150 52.5t-62 153.5zM124 237
q0 -66 42 -104t109 -38q77 0 127 53t50 130q0 59 -43 104t-108 45q-76 0 -126.5 -55t-50.5 -135zM194 559l119 133h82l52 -133h-60l-42 87l-89 -87h-62z" />
    <glyph glyph-name="Gbreve" unicode="&#x11e;" horiz-adv-x="730" 
d="M45 296q0 153 101 257.5t251 104.5q148 0 240 -90l-57 -57q-70 73 -184 73t-191.5 -81t-77.5 -203q0 -102 68 -169t174 -67q130 0 199 100l25 136h-141l13 69h220l-45 -233q-93 -146 -278 -146q-137 0 -227 87t-90 219zM408 693q-41 0 -64 21t-23 54q0 17 4 32h46
q0 -1 -0.5 -5t-0.5 -7q0 -19 11 -29.5t31 -10.5q54 0 72 52h49q-26 -107 -125 -107z" />
    <glyph glyph-name="gbreve" unicode="&#x11f;" horiz-adv-x="593" 
d="M46 230q0 105 70 186t176 81q67 0 115.5 -35t68.5 -92l23 117h77l-73 -375q-12 -63 -36.5 -111t-52 -75.5t-61.5 -44.5t-61.5 -22.5t-56.5 -5.5q-116 0 -180 81l49 48q49 -63 135 -63q126 0 178 159l10 31q-68 -85 -169 -85q-88 0 -150 52.5t-62 153.5zM124 237
q0 -66 42 -104t109 -38q77 0 127 53t50 130q0 59 -43 104t-108 45q-76 0 -126.5 -55t-50.5 -135zM328 554q-41 0 -64 21t-23 54q0 17 4 32h46q0 -1 -0.5 -5t-0.5 -7q0 -19 11 -29.5t31 -10.5q54 0 72 52h49q-26 -107 -125 -107z" />
    <glyph glyph-name="Gdotaccent" unicode="&#x120;" horiz-adv-x="730" 
d="M45 296q0 153 101 257.5t251 104.5q148 0 240 -90l-57 -57q-70 73 -184 73t-191.5 -81t-77.5 -203q0 -102 68 -169t174 -67q130 0 199 100l25 136h-141l13 69h220l-45 -233q-93 -146 -278 -146q-137 0 -227 87t-90 219zM364 743q0 21 15 36t36 15q20 0 35 -15t15 -36
q0 -20 -15 -35t-35 -15q-21 0 -36 15t-15 35z" />
    <glyph glyph-name="gdotaccent" unicode="&#x121;" horiz-adv-x="593" 
d="M46 230q0 105 70 186t176 81q67 0 115.5 -35t68.5 -92l23 117h77l-73 -375q-12 -63 -36.5 -111t-52 -75.5t-61.5 -44.5t-61.5 -22.5t-56.5 -5.5q-116 0 -180 81l49 48q49 -63 135 -63q126 0 178 159l10 31q-68 -85 -169 -85q-88 0 -150 52.5t-62 153.5zM124 237
q0 -66 42 -104t109 -38q77 0 127 53t50 130q0 59 -43 104t-108 45q-76 0 -126.5 -55t-50.5 -135zM283 624q0 21 15 36t36 15q20 0 35 -15t15 -36q0 -20 -15 -35t-35 -15q-21 0 -36 15t-15 35z" />
    <glyph glyph-name="Gcommaaccent" unicode="&#x122;" horiz-adv-x="730" 
d="M45 296q0 153 101 257.5t251 104.5q148 0 240 -90l-57 -57q-70 73 -184 73t-191.5 -81t-77.5 -203q0 -102 68 -169t174 -67q130 0 199 100l25 136h-141l13 69h220l-45 -233q-93 -146 -278 -146q-137 0 -227 87t-90 219zM299 -235h-50q34 28 63.5 69.5t29.5 77.5
q0 10 -2 24l65 20q2 -16 2 -23q0 -47 -31.5 -93t-76.5 -75z" />
    <glyph glyph-name="gcommaaccent" unicode="&#x123;" horiz-adv-x="593" 
d="M319 551q-71 54 -71 127q0 36 10 64l58 -20q-9 -21 -9 -42q0 -64 61 -129h-49zM46 230q0 105 70 186t176 81q67 0 115.5 -35t68.5 -92l23 117h77l-73 -375q-12 -63 -36.5 -111t-52 -75.5t-61.5 -44.5t-61.5 -22.5t-56.5 -5.5q-116 0 -180 81l49 48q49 -63 135 -63
q126 0 178 159l10 31q-68 -85 -169 -85q-88 0 -150 52.5t-62 153.5zM124 237q0 -66 42 -104t109 -38q77 0 127 53t50 130q0 59 -43 104t-108 45q-76 0 -126.5 -55t-50.5 -135z" />
    <glyph glyph-name="Hcircumflex" unicode="&#x124;" horiz-adv-x="687" 
d="M14 0l125 648h80l-51 -267h374l52 267h80l-125 -648h-80l59 310h-374l-60 -310h-80zM282 698l119 133h82l52 -133h-60l-42 87l-89 -87h-62z" />
    <glyph glyph-name="hcircumflex" unicode="&#x125;" horiz-adv-x="543" 
d="M20 0l127 658h76l-47 -249q70 88 180 88q75 0 112.5 -37.5t37.5 -100.5q0 -22 -7 -62l-58 -297h-76l55 285q6 28 6 55q0 83 -103 83q-65 0 -113.5 -44t-60.5 -104l-53 -275h-76zM56 676l119 133h82l52 -133h-60l-42 87l-89 -87h-62z" />
    <glyph glyph-name="Hbar" unicode="&#x126;" horiz-adv-x="687" 
d="M14 0l96 494h-40l11 58h40l18 96h80l-18 -96h375l18 96h80l-18 -96h40l-11 -58h-40l-96 -494h-80l60 314h-375l-60 -314h-80zM168 385h375l22 109h-375z" />
    <glyph glyph-name="hbar" unicode="&#x127;" horiz-adv-x="543" 
d="M20 0l106 548h-56l10 46h55l12 64h76l-11 -64h171l-10 -46h-171l-26 -139q70 88 180 88q75 0 112.5 -37.5t37.5 -100.5q0 -22 -7 -62l-58 -297h-76l55 285q6 28 6 55q0 83 -103 83q-65 0 -113.5 -44t-60.5 -104l-53 -275h-76z" />
    <glyph glyph-name="Itilde" unicode="&#x128;" horiz-adv-x="232" 
d="M46 693q9 46 33 74t60 28q29 0 61.5 -23.5t42.5 -23.5q29 0 39 47h48q-9 -46 -33 -74t-60 -28q-30 0 -61.5 23.5t-41.5 23.5q-31 0 -40 -47h-48zM14 0l125 648h80l-125 -648h-80z" />
    <glyph glyph-name="itilde" unicode="&#x129;" horiz-adv-x="208" 
d="M28 563q9 46 33 74t60 28q29 0 61.5 -23.5t42.5 -23.5q29 0 39 47h48q-9 -46 -33 -74t-60 -28q-30 0 -61.5 23.5t-41.5 23.5q-31 0 -40 -47h-48zM20 0l95 487h76l-94 -487h-77z" />
    <glyph glyph-name="Imacron" unicode="&#x12a;" horiz-adv-x="232" 
d="M14 0l125 648h80l-125 -648h-80zM84 708l13 59h200l-13 -59h-200z" />
    <glyph glyph-name="imacron" unicode="&#x12b;" horiz-adv-x="208" 
d="M20 0l95 487h76l-94 -487h-77zM63 570l13 59h200l-13 -59h-200z" />
    <glyph glyph-name="Ibreve" unicode="&#x12c;" horiz-adv-x="232" 
d="M181 693q-41 0 -64 21t-23 54q0 17 4 32h46q0 -1 -0.5 -5t-0.5 -7q0 -19 11 -29.5t31 -10.5q54 0 72 52h49q-26 -107 -125 -107zM14 0l125 648h80l-125 -648h-80z" />
    <glyph glyph-name="ibreve" unicode="&#x12d;" horiz-adv-x="208" 
d="M161 554q-41 0 -64 21t-23 54q0 17 4 32h46q0 -1 -0.5 -5t-0.5 -7q0 -19 11 -29.5t31 -10.5q54 0 72 52h49q-26 -107 -125 -107zM20 0l95 487h76l-94 -487h-77z" />
    <glyph glyph-name="Iogonek" unicode="&#x12e;" horiz-adv-x="232" 
d="M14 0l125 648h80l-125 -648h-30q-32 -24 -57 -58t-25 -68q0 -18 12.5 -29t32.5 -11q18 0 42 11l8 -40q-38 -25 -79 -25q-33 0 -55 18.5t-22 50.5q0 77 93 151z" />
    <glyph glyph-name="iogonek" unicode="&#x12f;" horiz-adv-x="208" 
d="M-74 -151q0 77 94 151l95 487h76l-95 -487h-27q-32 -24 -57 -58t-25 -68q0 -18 12.5 -29t32.5 -11q18 0 42 11l8 -40q-38 -25 -79 -25q-33 0 -55 18.5t-22 50.5zM126 618q0 21 15 36t35 15q21 0 36 -15t15 -36t-15 -35.5t-36 -14.5q-20 0 -35 14.5t-15 35.5z" />
    <glyph glyph-name="Idotaccent" unicode="&#x130;" horiz-adv-x="232" 
d="M14 0l125 648h80l-125 -648h-80zM140 743q0 21 15 36t36 15q20 0 35 -15t15 -36q0 -20 -15 -35t-35 -15q-21 0 -36 15t-15 35z" />
    <glyph glyph-name="dotlessi" unicode="&#x131;" horiz-adv-x="208" 
d="M20 0l95 487h76l-94 -487h-77z" />
    <glyph glyph-name="Jcircumflex" unicode="&#x134;" horiz-adv-x="543" 
d="M1 84l52 55q46 -74 134 -74q161 0 200 202l74 381h79l-75 -389q-52 -269 -279 -269q-126 0 -185 94zM379 698l119 133h82l52 -133h-60l-42 87l-89 -87h-62z" />
    <glyph glyph-name="jcircumflex" unicode="&#x135;" horiz-adv-x="208" 
d="M-72 -168l-24 56q60 35 89 76.5t44 120.5l77 402h76l-77 -403q-20 -102 -62 -158.5t-123 -93.5zM29 559l119 133h82l52 -133h-60l-42 87l-89 -87h-62z" />
    <glyph glyph-name="Kcommaaccent" unicode="&#x136;" horiz-adv-x="644" 
d="M14 0l125 648h80l-79 -407l436 407h100l-317 -300l212 -348h-91l-180 294l-182 -166l-24 -128h-80zM180 -235h-50q34 28 63.5 69.5t29.5 77.5q0 10 -2 24l65 20q2 -16 2 -23q0 -47 -31.5 -93t-76.5 -75z" />
    <glyph glyph-name="kcommaaccent" unicode="&#x137;" horiz-adv-x="515" 
d="M20 0l127 658h76l-83 -430l277 259h107l-236 -216l179 -271h-95l-141 219l-113 -106l-22 -113h-76zM142 -235h-50q34 28 63.5 69.5t29.5 77.5q0 10 -2 24l65 20q2 -16 2 -23q0 -47 -31.5 -93t-76.5 -75z" />
    <glyph glyph-name="Lacute" unicode="&#x139;" horiz-adv-x="601" 
d="M14 0l125 648h80l-112 -577h409l-13 -71h-489zM136 698l107 133h92l-129 -133h-70z" />
    <glyph glyph-name="lacute" unicode="&#x13a;" horiz-adv-x="208" 
d="M20 0l127 658h76l-127 -658h-76zM142 736l107 133h92l-129 -133h-70z" />
    <glyph glyph-name="Lcommaaccent" unicode="&#x13b;" horiz-adv-x="601" 
d="M14 0l125 648h80l-112 -577h409l-13 -71h-489zM191 -235h-50q34 28 63.5 69.5t29.5 77.5q0 10 -2 24l65 20q2 -16 2 -23q0 -47 -31.5 -93t-76.5 -75z" />
    <glyph glyph-name="lcommaaccent" unicode="&#x13c;" horiz-adv-x="208" 
d="M20 0l127 658h76l-127 -658h-76zM-28 -235h-50q34 28 63.5 69.5t29.5 77.5q0 10 -2 24l65 20q2 -16 2 -23q0 -47 -31.5 -93t-76.5 -75z" />
    <glyph glyph-name="Lcaron" unicode="&#x13d;" horiz-adv-x="601" 
d="M14 0l125 648h80l-112 -577h409l-13 -71h-489zM291 461h-51q35 30 65 73t30 80q0 9 -2 25l66 20q2 -16 2 -23q0 -49 -32 -96.5t-78 -78.5z" />
    <glyph glyph-name="lcaron" unicode="&#x13e;" horiz-adv-x="208" 
d="M20 0l127 658h76l-127 -658h-76zM265 471h-50q34 28 63.5 69.5t29.5 77.5q0 10 -2 24l65 20q2 -16 2 -23q0 -47 -31.5 -93t-76.5 -75z" />
    <glyph glyph-name="Lslash" unicode="&#x141;" horiz-adv-x="601" 
d="M14 0l56 290l-70 -28l13 69l70 27l56 290h80l-49 -256l197 78l-14 -67l-196 -79l-50 -253h409l-13 -71h-489z" />
    <glyph glyph-name="lslash" unicode="&#x142;" horiz-adv-x="209" 
d="M21 0l71 371l-65 -26l13 68l65 25l42 220h77l-36 -187l68 26l-14 -67l-67 -27l-78 -403h-76z" />
    <glyph glyph-name="Nacute" unicode="&#x143;" horiz-adv-x="705" 
d="M14 0l125 648h78l294 -521l101 521h80l-125 -648h-78l-295 518l-100 -518h-80zM384 698l107 133h92l-129 -133h-70z" />
    <glyph glyph-name="nacute" unicode="&#x144;" horiz-adv-x="543" 
d="M20 0l95 487h76l-15 -78q70 88 181 88q74 0 111.5 -37.5t38.5 -101.5q0 -16 -8 -61l-58 -297h-76l56 285q5 23 5 55q0 83 -103 83q-65 0 -113.5 -44.5t-60.5 -105.5l-53 -273h-76zM288 565l107 133h92l-129 -133h-70z" />
    <glyph glyph-name="Ncommaaccent" unicode="&#x145;" horiz-adv-x="705" 
d="M14 0l125 648h78l294 -521l101 521h80l-125 -648h-78l-295 518l-100 -518h-80zM227 -235h-50q34 28 63.5 69.5t29.5 77.5q0 10 -2 24l65 20q2 -16 2 -23q0 -47 -31.5 -93t-76.5 -75z" />
    <glyph glyph-name="ncommaaccent" unicode="&#x146;" horiz-adv-x="543" 
d="M20 0l95 487h76l-15 -78q70 88 181 88q74 0 111.5 -37.5t38.5 -101.5q0 -16 -8 -61l-58 -297h-76l56 285q5 23 5 55q0 83 -103 83q-65 0 -113.5 -44.5t-60.5 -105.5l-53 -273h-76zM155 -235h-50q34 28 63.5 69.5t29.5 77.5q0 10 -2 24l65 20q2 -16 2 -23q0 -47 -31.5 -93
t-76.5 -75z" />
    <glyph glyph-name="Ncaron" unicode="&#x147;" horiz-adv-x="705" 
d="M14 0l125 648h78l294 -521l101 521h80l-125 -648h-78l-295 518l-100 -518h-80zM383 698l-53 133h60l38 -87l84 87h69l-119 -133h-79z" />
    <glyph glyph-name="ncaron" unicode="&#x148;" horiz-adv-x="543" 
d="M20 0l95 487h76l-15 -78q70 88 181 88q74 0 111.5 -37.5t38.5 -101.5q0 -16 -8 -61l-58 -297h-76l56 285q5 23 5 55q0 83 -103 83q-65 0 -113.5 -44.5t-60.5 -105.5l-53 -273h-76zM301 559l-53 133h60l38 -87l84 87h69l-119 -133h-79z" />
    <glyph glyph-name="Eng" unicode="&#x14a;" horiz-adv-x="705" 
d="M14 0l125 648h78l295 -521l100 521h80l-124 -644q-15 -80 -73 -138t-141 -74l-8 63q57 17 92 57.5t47 94.5l-290 511l-101 -518h-80z" />
    <glyph glyph-name="eng" unicode="&#x14b;" horiz-adv-x="542" 
d="M20 0l95 487h76l-16 -78q71 88 181 88q74 0 112 -37.5t38 -101.5q0 -16 -8 -61l-53 -272q-17 -89 -74.5 -148t-142.5 -83l-7 58q123 43 149 177l49 256q7 33 7 55q0 83 -103 83q-66 0 -114 -44t-60 -106l-53 -273h-76z" />
    <glyph glyph-name="Omacron" unicode="&#x14c;" horiz-adv-x="767" 
d="M390 584q-112 0 -187.5 -81t-75.5 -203q0 -102 69.5 -169t178.5 -67q113 0 189.5 81t76.5 202q0 103 -70 170t-181 67zM45 296q0 153 99.5 257.5t246.5 104.5t239 -85.5t92 -222.5q0 -151 -100.5 -255.5t-247.5 -104.5q-143 0 -236 87t-93 219zM323 708l13 59h200
l-13 -59h-200z" />
    <glyph glyph-name="omacron" unicode="&#x14d;" horiz-adv-x="594" 
d="M45 223q0 115 77 194.5t190 79.5q110 0 178.5 -65t68.5 -169q0 -114 -77.5 -193.5t-190.5 -79.5q-107 0 -176.5 66.5t-69.5 166.5zM125 227q0 -70 46.5 -116.5t120.5 -46.5q79 0 132.5 56.5t53.5 139.5q0 70 -46.5 116.5t-120.5 46.5q-79 0 -132.5 -56t-53.5 -140z
M241 570l13 59h200l-13 -59h-200z" />
    <glyph glyph-name="Obreve" unicode="&#x14e;" horiz-adv-x="767" 
d="M390 584q-112 0 -187.5 -81t-75.5 -203q0 -102 69.5 -169t178.5 -67q113 0 189.5 81t76.5 202q0 103 -70 170t-181 67zM45 296q0 153 99.5 257.5t246.5 104.5t239 -85.5t92 -222.5q0 -151 -100.5 -255.5t-247.5 -104.5q-143 0 -236 87t-93 219zM415 693q-41 0 -64 21
t-23 54q0 17 4 32h46q0 -1 -0.5 -5t-0.5 -7q0 -19 11 -29.5t31 -10.5q54 0 72 52h49q-26 -107 -125 -107z" />
    <glyph glyph-name="obreve" unicode="&#x14f;" horiz-adv-x="594" 
d="M45 223q0 115 77 194.5t190 79.5q110 0 178.5 -65t68.5 -169q0 -114 -77.5 -193.5t-190.5 -79.5q-107 0 -176.5 66.5t-69.5 166.5zM125 227q0 -70 46.5 -116.5t120.5 -46.5q79 0 132.5 56.5t53.5 139.5q0 70 -46.5 116.5t-120.5 46.5q-79 0 -132.5 -56t-53.5 -140z
M331 554q-41 0 -64 21t-23 54q0 17 4 32h46q0 -1 -0.5 -5t-0.5 -7q0 -19 11 -29.5t31 -10.5q54 0 72 52h49q-26 -107 -125 -107z" />
    <glyph glyph-name="Ohungarumlaut" unicode="&#x150;" horiz-adv-x="767" 
d="M390 584q-112 0 -187.5 -81t-75.5 -203q0 -102 69.5 -169t178.5 -67q113 0 189.5 81t76.5 202q0 103 -70 170t-181 67zM45 296q0 153 99.5 257.5t246.5 104.5t239 -85.5t92 -222.5q0 -151 -100.5 -255.5t-247.5 -104.5q-143 0 -236 87t-93 219zM304 698l100 126h87
l-124 -126h-63zM432 698l100 126h87l-124 -126h-63z" />
    <glyph glyph-name="ohungarumlaut" unicode="&#x151;" horiz-adv-x="596" 
d="M45 223q0 115 77 194.5t190 79.5q110 0 178.5 -65t68.5 -169q0 -114 -77.5 -193.5t-190.5 -79.5q-107 0 -176.5 66.5t-69.5 166.5zM125 227q0 -70 46.5 -116.5t120.5 -46.5q79 0 132.5 56.5t53.5 139.5q0 70 -46.5 116.5t-120.5 46.5q-79 0 -132.5 -56t-53.5 -140z
M216 557l100 126h87l-124 -126h-63zM344 557l100 126h87l-124 -126h-63z" />
    <glyph glyph-name="OE" unicode="&#x152;" horiz-adv-x="1036" 
d="M45 296q0 153 101 257.5t251 104.5q134 0 213 -70l12 60h427l-14 -71h-347l-37 -196h321l-14 -70h-322l-46 -240h361l-13 -71h-442l5 25q-64 -35 -144 -35q-135 0 -223.5 87t-88.5 219zM127 300q0 -102 68 -169t174 -67q79 0 149 46l75 389q-72 85 -193 85
q-118 0 -195.5 -81t-77.5 -203z" />
    <glyph glyph-name="oe" unicode="&#x153;" horiz-adv-x="993" 
d="M45 223q0 115 77 194.5t190 79.5q72 0 130.5 -34.5t81.5 -94.5q78 129 210 129q102 0 162.5 -66t60.5 -163l-6 -53h-391q4 -73 48 -115t111 -42q81 0 135 51l46 -50q-77 -69 -185 -69q-142 0 -203 127q-33 -59 -92 -93t-129 -34q-107 0 -176.5 66.5t-69.5 166.5zM125 227
q0 -70 46.5 -116.5t120.5 -46.5q79 0 133 56.5t54 139.5q0 70 -47 116.5t-121 46.5q-79 0 -132.5 -56t-53.5 -140zM564 275h315q-2 69 -40 111.5t-105 42.5q-63 0 -109.5 -43.5t-60.5 -110.5z" />
    <glyph glyph-name="Racute" unicode="&#x154;" horiz-adv-x="665" 
d="M14 0l125 648h276q119 0 177.5 -54.5t58.5 -145.5q0 -94 -51.5 -163.5t-145.5 -103.5l116 -181h-94l-102 165q-25 -3 -120 -3h-129l-31 -162h-80zM139 233h198q104 0 166.5 57.5t62.5 147.5q0 62 -39.5 100.5t-116.5 38.5h-204zM329 698l107 133h92l-129 -133h-70z" />
    <glyph glyph-name="racute" unicode="&#x155;" horiz-adv-x="350" 
d="M20 0l95 487h76l-20 -103q31 49 87.5 81t122.5 32l-16 -84q-81 0 -144.5 -49.5t-82.5 -148.5l-42 -215h-76zM196 565l107 133h92l-129 -133h-70z" />
    <glyph glyph-name="Rcommaaccent" unicode="&#x156;" horiz-adv-x="665" 
d="M14 0l125 648h276q119 0 177.5 -54.5t58.5 -145.5q0 -94 -51.5 -163.5t-145.5 -103.5l116 -181h-94l-102 165q-25 -3 -120 -3h-129l-31 -162h-80zM139 233h198q104 0 166.5 57.5t62.5 147.5q0 62 -39.5 100.5t-116.5 38.5h-204zM195 -235h-50q34 28 63.5 69.5t29.5 77.5
q0 10 -2 24l65 20q2 -16 2 -23q0 -47 -31.5 -93t-76.5 -75z" />
    <glyph glyph-name="rcommaaccent" unicode="&#x157;" horiz-adv-x="350" 
d="M20 0l95 487h76l-20 -103q31 49 87.5 81t122.5 32l-16 -84q-81 0 -144.5 -49.5t-82.5 -148.5l-42 -215h-76zM-23 -235h-50q34 28 63.5 69.5t29.5 77.5q0 10 -2 24l65 20q2 -16 2 -23q0 -47 -31.5 -93t-76.5 -75z" />
    <glyph glyph-name="Rcaron" unicode="&#x158;" horiz-adv-x="665" 
d="M14 0l125 648h276q119 0 177.5 -54.5t58.5 -145.5q0 -94 -51.5 -163.5t-145.5 -103.5l116 -181h-94l-102 165q-25 -3 -120 -3h-129l-31 -162h-80zM139 233h198q104 0 166.5 57.5t62.5 147.5q0 62 -39.5 100.5t-116.5 38.5h-204zM342 698l-53 133h60l38 -87l84 87h69
l-119 -133h-79z" />
    <glyph glyph-name="rcaron" unicode="&#x159;" horiz-adv-x="350" 
d="M20 0l95 487h76l-20 -103q31 49 87.5 81t122.5 32l-16 -84q-81 0 -144.5 -49.5t-82.5 -148.5l-42 -215h-76zM197 559l-53 133h60l38 -87l84 87h69l-119 -133h-79z" />
    <glyph glyph-name="Sacute" unicode="&#x15a;" horiz-adv-x="599" 
d="M16 84l44 63q76 -83 208 -83q74 0 129.5 31.5t55.5 89.5q0 43 -39 67t-109 44q-43 12 -74.5 24.5t-63 32.5t-48 48.5t-16.5 65.5q0 90 65.5 140.5t172.5 50.5q131 0 223 -70l-43 -64q-70 60 -185 60q-64 0 -107.5 -28t-43.5 -83q0 -36 35 -58.5t103 -42.5
q101 -30 156.5 -70t55.5 -113q0 -95 -78.5 -147t-191.5 -52q-167 0 -249 94zM311 698l107 133h92l-129 -133h-70z" />
    <glyph glyph-name="sacute" unicode="&#x15b;" horiz-adv-x="472" 
d="M16 70l43 55q53 -68 152 -68q55 0 90.5 22t35.5 57q0 30 -25 47.5t-72 33.5q-33 11 -56.5 21.5t-48 27t-37 39t-12.5 50.5q0 68 49.5 105t132.5 37q103 0 174 -53l-36 -59q-54 45 -142 45q-43 0 -70.5 -19t-27.5 -51q0 -45 90 -73q76 -25 118.5 -57.5t42.5 -87.5
q0 -71 -59 -111.5t-151 -40.5q-130 0 -191 80zM238 565l107 133h92l-129 -133h-70z" />
    <glyph glyph-name="Scircumflex" unicode="&#x15c;" horiz-adv-x="599" 
d="M16 84l44 63q76 -83 208 -83q74 0 129.5 31.5t55.5 89.5q0 43 -39 67t-109 44q-43 12 -74.5 24.5t-63 32.5t-48 48.5t-16.5 65.5q0 90 65.5 140.5t172.5 50.5q131 0 223 -70l-43 -64q-70 60 -185 60q-64 0 -107.5 -28t-43.5 -83q0 -36 35 -58.5t103 -42.5
q101 -30 156.5 -70t55.5 -113q0 -95 -78.5 -147t-191.5 -52q-167 0 -249 94zM230 698l119 133h82l52 -133h-60l-42 87l-89 -87h-62z" />
    <glyph glyph-name="scircumflex" unicode="&#x15d;" horiz-adv-x="472" 
d="M16 70l43 55q53 -68 152 -68q55 0 90.5 22t35.5 57q0 30 -25 47.5t-72 33.5q-33 11 -56.5 21.5t-48 27t-37 39t-12.5 50.5q0 68 49.5 105t132.5 37q103 0 174 -53l-36 -59q-54 45 -142 45q-43 0 -70.5 -19t-27.5 -51q0 -45 90 -73q76 -25 118.5 -57.5t42.5 -87.5
q0 -71 -59 -111.5t-151 -40.5q-130 0 -191 80zM161 559l119 133h82l52 -133h-60l-42 87l-89 -87h-62z" />
    <glyph glyph-name="Scedilla" unicode="&#x15e;" horiz-adv-x="599" 
d="M119 -185l29 35q37 -23 78 -23q28 0 55.5 15.5t27.5 42.5t-37 27q-17 0 -36 -8t-29 -19l-40 16l75 90q-153 6 -226 93l44 63q76 -83 208 -83q74 0 129.5 31.5t55.5 89.5q0 43 -39 67t-109 44q-43 12 -74.5 24.5t-63 32.5t-48 48.5t-16.5 65.5q0 90 65.5 140.5t172.5 50.5
q131 0 223 -70l-43 -64q-70 60 -185 60q-64 0 -107.5 -28t-43.5 -83q0 -36 35 -58.5t103 -42.5q101 -30 156.5 -70t55.5 -113q0 -89 -69 -140.5t-173 -57.5l-42 -51q24 8 42 8q70 0 70 -58q0 -43 -43 -73t-100 -30q-65 0 -101 28z" />
    <glyph glyph-name="scedilla" unicode="&#x15f;" horiz-adv-x="472" 
d="M64 -185l29 35q37 -23 78 -23q28 0 55.5 15.5t27.5 42.5t-37 27q-17 0 -36 -8t-29 -19l-40 16l75 90q-115 7 -171 79l43 55q53 -68 152 -68q55 0 90.5 22t35.5 57q0 30 -25 47.5t-72 33.5q-33 11 -56.5 21.5t-48 27t-37 39t-12.5 50.5q0 68 49.5 105t132.5 37
q103 0 174 -53l-36 -59q-54 45 -142 45q-43 0 -70.5 -19t-27.5 -51q0 -45 90 -73q76 -25 118.5 -57.5t42.5 -87.5q0 -65 -49.5 -104.5t-129.5 -45.5l-42 -52q24 8 42 8q70 0 70 -58q0 -43 -43 -73t-100 -30q-65 0 -101 28z" />
    <glyph glyph-name="Scaron" unicode="&#x160;" horiz-adv-x="599" 
d="M16 84l44 63q76 -83 208 -83q74 0 129.5 31.5t55.5 89.5q0 43 -39 67t-109 44q-43 12 -74.5 24.5t-63 32.5t-48 48.5t-16.5 65.5q0 90 65.5 140.5t172.5 50.5q131 0 223 -70l-43 -64q-70 60 -185 60q-64 0 -107.5 -28t-43.5 -83q0 -36 35 -58.5t103 -42.5
q101 -30 156.5 -70t55.5 -113q0 -95 -78.5 -147t-191.5 -52q-167 0 -249 94zM319 698l-53 133h60l38 -87l84 87h69l-119 -133h-79z" />
    <glyph glyph-name="scaron" unicode="&#x161;" horiz-adv-x="472" 
d="M16 70l43 55q53 -68 152 -68q55 0 90.5 22t35.5 57q0 30 -25 47.5t-72 33.5q-33 11 -56.5 21.5t-48 27t-37 39t-12.5 50.5q0 68 49.5 105t132.5 37q103 0 174 -53l-36 -59q-54 45 -142 45q-43 0 -70.5 -19t-27.5 -51q0 -45 90 -73q76 -25 118.5 -57.5t42.5 -87.5
q0 -71 -59 -111.5t-151 -40.5q-130 0 -191 80zM249 559l-53 133h60l38 -87l84 87h69l-119 -133h-79z" />
    <glyph glyph-name="Tcommaaccent" unicode="&#x162;" horiz-adv-x="601" 
d="M200 0l111 577h-240l13 71h561l-13 -71h-241l-111 -577h-80zM159 -235h-50q34 28 63.5 69.5t29.5 77.5q0 10 -2 24l65 20q2 -16 2 -23q0 -47 -31.5 -93t-76.5 -75z" />
    <glyph glyph-name="tcommaaccent" unicode="&#x163;" horiz-adv-x="359" 
d="M66 154l52 268h-76l13 65h75l21 108l79 12l-24 -120h166l-12 -65h-166l-51 -262q-5 -33 -5 -44q0 -58 54 -58q20 0 41.5 7t32.5 13l11 7l14 -59q-57 -36 -120 -36q-53 0 -82.5 27.5t-29.5 81.5q0 22 7 55zM82 -235h-50q34 28 63.5 69.5t29.5 77.5q0 10 -2 24l65 20
q2 -16 2 -23q0 -47 -31.5 -93t-76.5 -75z" />
    <glyph glyph-name="Tcaron" unicode="&#x164;" horiz-adv-x="601" 
d="M326 698l-53 133h60l38 -87l84 87h69l-119 -133h-79zM200 0l111 577h-240l13 71h561l-13 -71h-241l-111 -577h-80z" />
    <glyph glyph-name="tcaron" unicode="&#x165;" horiz-adv-x="359" 
d="M66 154l52 268h-76l13 65h75l21 108l79 12l-24 -120h166l-12 -65h-166l-51 -262q-5 -33 -5 -44q0 -58 54 -58q20 0 41.5 7t32.5 13l11 7l14 -59q-57 -36 -120 -36q-53 0 -82.5 27.5t-29.5 81.5q0 22 7 55zM293 524h-47q31 21 59 52.5t28 59.5q0 8 -2 18l61 15
q2 -12 2 -17q0 -36 -29.5 -71t-71.5 -57z" />
    <glyph glyph-name="Tbar" unicode="&#x166;" horiz-adv-x="601" 
d="M200 0l67 348h-155l12 59h154l33 170h-240l13 71h561l-13 -71h-241l-33 -170h155l-12 -59h-154l-67 -348h-80z" />
    <glyph glyph-name="tbar" unicode="&#x167;" horiz-adv-x="359" 
d="M66 155l20 104h-53l9 47h53l23 116h-76l13 65h75l21 108l79 12l-24 -120h166l-12 -65h-166l-22 -116h130l-9 -47h-130l-20 -99q-5 -33 -5 -44q0 -58 54 -58q20 0 41.5 7t32.5 13l11 7l14 -59q-57 -36 -120 -36q-53 0 -82.5 27.5t-29.5 81.5q0 21 7 56z" />
    <glyph glyph-name="Utilde" unicode="&#x168;" horiz-adv-x="668" 
d="M281 -10q-112 0 -172 55t-60 149q0 43 8 83l72 371h80l-73 -374q-6 -35 -6 -64q0 -66 38.5 -106.5t113.5 -40.5q94 0 151.5 54t77.5 154l74 377h80l-74 -383q-26 -132 -105 -203.5t-205 -71.5zM270 693q9 46 33 74t60 28q29 0 61.5 -23.5t42.5 -23.5q29 0 39 47h48
q-9 -46 -33 -74t-60 -28q-30 0 -61.5 23.5t-41.5 23.5q-31 0 -40 -47h-48z" />
    <glyph glyph-name="utilde" unicode="&#x169;" horiz-adv-x="537" 
d="M59 198l56 289h76l-55 -285q-7 -35 -7 -49q0 -89 103 -89q59 0 106 42t60 108l53 273h76l-95 -487h-76l15 75q-69 -85 -172 -85q-75 0 -111.5 37t-36.5 103q0 30 8 68zM198 563q9 46 33 74t60 28q29 0 61.5 -23.5t42.5 -23.5q29 0 39 47h48q-9 -46 -33 -74t-60 -28
q-30 0 -61.5 23.5t-41.5 23.5q-31 0 -40 -47h-48z" />
    <glyph glyph-name="Umacron" unicode="&#x16a;" horiz-adv-x="668" 
d="M281 -10q-112 0 -172 55t-60 149q0 43 8 83l72 371h80l-73 -374q-6 -35 -6 -64q0 -66 38.5 -106.5t113.5 -40.5q94 0 151.5 54t77.5 154l74 377h80l-74 -383q-26 -132 -105 -203.5t-205 -71.5zM302 708l13 59h200l-13 -59h-200z" />
    <glyph glyph-name="umacron" unicode="&#x16b;" horiz-adv-x="537" 
d="M59 198l56 289h76l-55 -285q-7 -35 -7 -49q0 -89 103 -89q59 0 106 42t60 108l53 273h76l-95 -487h-76l15 75q-69 -85 -172 -85q-75 0 -111.5 37t-36.5 103q0 30 8 68zM231 570l13 59h200l-13 -59h-200z" />
    <glyph glyph-name="Ubreve" unicode="&#x16c;" horiz-adv-x="668" 
d="M281 -10q-112 0 -172 55t-60 149q0 43 8 83l72 371h80l-73 -374q-6 -35 -6 -64q0 -66 38.5 -106.5t113.5 -40.5q94 0 151.5 54t77.5 154l74 377h80l-74 -383q-26 -132 -105 -203.5t-205 -71.5zM396 693q-41 0 -64 21t-23 54q0 17 4 32h46q0 -1 -0.5 -5t-0.5 -7
q0 -19 11 -29.5t31 -10.5q54 0 72 52h49q-26 -107 -125 -107z" />
    <glyph glyph-name="ubreve" unicode="&#x16d;" horiz-adv-x="537" 
d="M59 198l56 289h76l-55 -285q-7 -35 -7 -49q0 -89 103 -89q59 0 106 42t60 108l53 273h76l-95 -487h-76l15 75q-69 -85 -172 -85q-75 0 -111.5 37t-36.5 103q0 30 8 68zM324 554q-41 0 -64 21t-23 54q0 17 4 32h46q0 -1 -0.5 -5t-0.5 -7q0 -19 11 -29.5t31 -10.5
q54 0 72 52h49q-26 -107 -125 -107z" />
    <glyph glyph-name="Uring" unicode="&#x16e;" horiz-adv-x="668" 
d="M281 -10q-112 0 -172 55t-60 149q0 43 8 83l72 371h80l-73 -374q-6 -35 -6 -64q0 -66 38.5 -106.5t113.5 -40.5q94 0 151.5 54t77.5 154l74 377h80l-74 -383q-26 -132 -105 -203.5t-205 -71.5zM298 778q0 41 29 70t70 29t70 -29t29 -70t-29 -70.5t-70 -29.5t-70 29.5
t-29 70.5zM343 778q0 -24 15.5 -41t38.5 -17t38.5 17t15.5 41q0 23 -15.5 40t-38.5 17t-38.5 -17t-15.5 -40z" />
    <glyph glyph-name="uring" unicode="&#x16f;" horiz-adv-x="537" 
d="M59 198l56 289h76l-55 -285q-7 -35 -7 -49q0 -89 103 -89q59 0 106 42t60 108l53 273h76l-95 -487h-76l15 75q-69 -85 -172 -85q-75 0 -111.5 37t-36.5 103q0 30 8 68zM227 627q0 41 29 70t70 29t70 -29t29 -70t-29 -70.5t-70 -29.5t-70 29.5t-29 70.5zM272 627
q0 -24 15.5 -41t38.5 -17t38.5 17t15.5 41q0 23 -15.5 40t-38.5 17t-38.5 -17t-15.5 -40z" />
    <glyph glyph-name="Uhungarumlaut" unicode="&#x170;" horiz-adv-x="668" 
d="M281 -10q-112 0 -172 55t-60 149q0 43 8 83l72 371h80l-73 -374q-6 -35 -6 -64q0 -66 38.5 -106.5t113.5 -40.5q94 0 151.5 54t77.5 154l74 377h80l-74 -383q-26 -132 -105 -203.5t-205 -71.5zM282 695l100 126h87l-124 -126h-63zM410 695l100 126h87l-124 -126h-63z" />
    <glyph glyph-name="uhungarumlaut" unicode="&#x171;" horiz-adv-x="537" 
d="M59 198l56 289h76l-55 -285q-7 -35 -7 -49q0 -89 103 -89q59 0 106 42t60 108l53 273h76l-95 -487h-76l15 75q-69 -85 -172 -85q-75 0 -111.5 37t-36.5 103q0 30 8 68zM207 557l100 126h87l-124 -126h-63zM335 557l100 126h87l-124 -126h-63z" />
    <glyph glyph-name="Uogonek" unicode="&#x172;" horiz-adv-x="668" 
d="M219 -151q0 72 81 142q-6 -1 -19 -1q-112 0 -172 55t-60 149q0 43 8 83l72 371h80l-73 -374q-6 -35 -6 -64q0 -66 38.5 -106.5t113.5 -40.5q94 0 151.5 54t77.5 154l74 377h80l-74 -383q-45 -227 -232 -267q-32 -25 -55.5 -58t-23.5 -66q0 -18 12.5 -29t32.5 -11
q18 0 42 11l8 -40q-37 -25 -79 -25q-33 0 -55 18.5t-22 50.5z" />
    <glyph glyph-name="uogonek" unicode="&#x173;" horiz-adv-x="537" 
d="M263 -151q0 78 93 151l15 75q-69 -85 -172 -85q-75 0 -111.5 37t-36.5 103q0 30 8 68l56 289h76l-55 -285q-7 -35 -7 -49q0 -89 103 -89q59 0 106 42t60 108l53 273h76l-95 -487h-26q-32 -24 -57 -58t-25 -68q0 -18 12.5 -29t32.5 -11q18 0 42 11l8 -40q-37 -25 -79 -25
q-33 0 -55 18.5t-22 50.5z" />
    <glyph glyph-name="Wcircumflex" unicode="&#x174;" horiz-adv-x="933" 
d="M163 -3l-92 651h81l71 -532l261 532h87l53 -532l269 532h87l-337 -651h-79l-55 542l-267 -542h-79zM406 698l119 133h82l52 -133h-60l-42 87l-89 -87h-62z" />
    <glyph glyph-name="wcircumflex" unicode="&#x175;" horiz-adv-x="712" 
d="M134 -3l-84 490h83l56 -369l177 369h73l42 -369l190 369h85l-252 -490h-77l-44 365l-174 -365h-75zM281 559l119 133h82l52 -133h-60l-42 87l-89 -87h-62z" />
    <glyph glyph-name="Ycircumflex" unicode="&#x176;" horiz-adv-x="623" 
d="M209 0l59 307l-196 341h90l154 -272l261 272h98l-327 -340l-59 -308h-80zM248 698l119 133h82l52 -133h-60l-42 87l-89 -87h-62z" />
    <glyph glyph-name="ycircumflex" unicode="&#x177;" horiz-adv-x="526" 
d="M27 -147l16 72q38 0 66 16.5t60 64.5l14 21l-129 460h82l104 -387l230 387h91l-302 -486q-57 -92 -106.5 -120t-125.5 -28zM181 559l119 133h82l52 -133h-60l-42 87l-89 -87h-62z" />
    <glyph glyph-name="Ydieresis" unicode="&#x178;" horiz-adv-x="623" 
d="M209 0l59 307l-196 341h90l154 -272l261 272h98l-327 -340l-59 -308h-80zM248 738q0 19 13 32t32 13q18 0 31 -13t13 -32q0 -18 -13 -31t-31 -13q-19 0 -32 13t-13 31zM405 738q0 19 13.5 32t32.5 13q18 0 31 -13t13 -32q0 -18 -13 -31t-31 -13q-19 0 -32.5 13t-13.5 31z
" />
    <glyph glyph-name="Zacute" unicode="&#x179;" horiz-adv-x="602" 
d="M-26 0l12 66l512 511h-395l13 71h502l-11 -69l-509 -508h418l-13 -71h-529zM317 698l107 133h92l-129 -133h-70z" />
    <glyph glyph-name="zacute" unicode="&#x17a;" horiz-adv-x="453" 
d="M-10 0l11 60l351 358h-272l14 69h382l-12 -60l-352 -358h291l-14 -69h-399zM230 565l107 133h92l-129 -133h-70z" />
    <glyph glyph-name="Zdotaccent" unicode="&#x17b;" horiz-adv-x="602" 
d="M-26 0l12 66l512 511h-395l13 71h502l-11 -69l-509 -508h418l-13 -71h-529zM314 743q0 21 15 36t36 15q20 0 35 -15t15 -36q0 -20 -15 -35t-35 -15q-21 0 -36 15t-15 35z" />
    <glyph glyph-name="zdotaccent" unicode="&#x17c;" horiz-adv-x="453" 
d="M-10 0l11 60l351 358h-272l14 69h382l-12 -60l-352 -358h291l-14 -69h-399zM243 624q0 21 15 36t36 15q20 0 35 -15t15 -36q0 -20 -15 -35t-35 -15q-21 0 -36 15t-15 35z" />
    <glyph glyph-name="Zcaron" unicode="&#x17d;" horiz-adv-x="602" 
d="M327 698l-53 133h60l38 -87l84 87h69l-119 -133h-79zM-26 0l12 66l512 511h-395l13 71h502l-11 -69l-509 -508h418l-13 -71h-529z" />
    <glyph glyph-name="zcaron" unicode="&#x17e;" horiz-adv-x="453" 
d="M245 559l-53 133h60l38 -87l84 87h69l-119 -133h-79zM-10 0l11 60l351 358h-272l14 69h382l-12 -60l-352 -358h291l-14 -69h-399z" />
    <glyph glyph-name="florin" unicode="&#x192;" 
d="M-62 -55l45 49q29 -33 69 -33q57 0 85 81l110 310h-74l21 58h74l51 137q21 56 51 83t84 27q24 0 46.5 -7.5t33.5 -15.5l11 -8l-27 -57q-27 19 -55 19q-30 0 -45.5 -17t-28.5 -54l-39 -107h119l-21 -58h-119l-116 -324q-49 -138 -161 -138q-64 0 -114 55z" />
    <glyph glyph-name="Aringacute" unicode="&#x1fa;" horiz-adv-x="697" 
d="M-53 0l430 648h69l181 -648h-81l-36 126h-395l-83 -126h-85zM157 192h335l-97 362zM316 772q0 30 16.5 54.5t43.5 36.5l92 122h85l-107 -119q30 -10 49 -36t19 -58q0 -41 -29 -70.5t-70 -29.5t-70 29.5t-29 70.5zM361 772q0 -24 15.5 -41t38.5 -17t38.5 17t15.5 41
q0 23 -15.5 40t-38.5 17t-38.5 -17t-15.5 -40z" />
    <glyph glyph-name="aringacute" unicode="&#x1fb;" horiz-adv-x="596" 
d="M45 219q0 114 69.5 196t176.5 82q68 0 118 -35.5t70 -91.5l23 117h76l-94 -487h-72l13 70q-63 -80 -168 -80q-93 0 -152.5 65.5t-59.5 163.5zM123 225q0 -71 42.5 -116t108.5 -45q79 0 129.5 56.5t50.5 140.5q0 68 -43.5 115t-112.5 47q-75 0 -125 -56t-50 -142zM227 647
q0 30 16.5 54.5t43.5 36.5l92 122h85l-107 -119q30 -10 49 -36t19 -58q0 -41 -29 -70.5t-70 -29.5t-70 29.5t-29 70.5zM272 647q0 -24 15.5 -41t38.5 -17t38.5 17t15.5 41q0 23 -15.5 40t-38.5 17t-38.5 -17t-15.5 -40z" />
    <glyph glyph-name="AEacute" unicode="&#x1fc;" horiz-adv-x="946" 
d="M-53 0l532 648h480l-13 -71h-354l-38 -195h328l-14 -71h-328l-46 -240h367l-13 -71h-448l25 126h-285l-104 -126h-89zM195 192h242l75 384zM596 698l107 133h92l-129 -133h-70z" />
    <glyph glyph-name="aeacute" unicode="&#x1fd;" horiz-adv-x="926" 
d="M41 124q0 59 39.5 99.5t96.5 56.5t126 16t112 -6q1 6 1 18q-2 59 -35.5 90t-92.5 31q-43 0 -81 -9.5t-55 -19.5l-16 -9l-29 53q8 6 22.5 15t62 23.5t98.5 14.5q144 0 177 -110q78 110 199 110q102 0 163 -66t61 -163l-6 -53h-392q4 -73 48.5 -115t111.5 -42q81 0 135 51
l46 -50q-77 -69 -185 -69q-146 0 -207 126q-72 -126 -230 -126q-78 0 -124 35t-46 99zM300 238q-29 0 -57 -4t-58 -14.5t-48.5 -32t-18.5 -52.5q0 -38 29 -58t73 -20q83 0 136 43t58 118l1 14q-50 6 -115 6zM497 275h318q-2 68 -41.5 111t-106.5 43q-63 0 -109 -43t-61 -111
zM442 565l107 133h92l-129 -133h-70z" />
    <glyph glyph-name="Oslashacute" unicode="&#x1fe;" horiz-adv-x="767" 
d="M45 296q0 153 101 257.5t251 104.5q108 0 186 -49l83 107l36 -28l-83 -104q103 -87 103 -234q0 -151 -102 -255.5t-252 -104.5q-100 0 -181 48l-84 -109l-36 28l84 106q-106 93 -106 233zM127 300q0 -105 74 -174l332 421q-58 37 -137 37q-114 0 -191.5 -81t-77.5 -203z
M569 520l-333 -421q60 -35 133 -35q116 0 194 81t78 202q0 111 -72 173zM374 698l107 133h92l-129 -133h-70z" />
    <glyph glyph-name="oslashacute" unicode="&#x1ff;" horiz-adv-x="594" 
d="M45 223q0 115 77 194.5t190 79.5q73 0 133 -32l67 85l37 -26l-67 -85q77 -64 77 -176q0 -114 -77.5 -193.5t-190.5 -79.5q-72 0 -136 36l-68 -86l-35 28l67 83q-74 71 -74 172zM432 376l-229 -290q36 -22 89 -22q79 0 133 56.5t54 139.5q0 70 -47 116zM125 227
q0 -66 43 -113l228 289q-38 20 -85 20q-79 0 -132.5 -56t-53.5 -140zM283 565l107 133h92l-129 -133h-70z" />
    <glyph glyph-name="Scommaaccent" unicode="&#x218;" horiz-adv-x="599" 
d="M16 84l44 63q76 -83 208 -83q74 0 129.5 31.5t55.5 89.5q0 43 -39 67t-109 44q-43 12 -74.5 24.5t-63 32.5t-48 48.5t-16.5 65.5q0 90 65.5 140.5t172.5 50.5q131 0 223 -70l-43 -64q-70 60 -185 60q-64 0 -107.5 -28t-43.5 -83q0 -36 35 -58.5t103 -42.5
q101 -30 156.5 -70t55.5 -113q0 -95 -78.5 -147t-191.5 -52q-167 0 -249 94zM219 -235h-50q34 28 63.5 69.5t29.5 77.5q0 10 -2 24l65 20q2 -16 2 -23q0 -47 -31.5 -93t-76.5 -75z" />
    <glyph glyph-name="scommaaccent" unicode="&#x219;" horiz-adv-x="472" 
d="M16 70l43 55q53 -68 152 -68q55 0 90.5 22t35.5 57q0 30 -25 47.5t-72 33.5q-33 11 -56.5 21.5t-48 27t-37 39t-12.5 50.5q0 68 49.5 105t132.5 37q103 0 174 -53l-36 -59q-54 45 -142 45q-43 0 -70.5 -19t-27.5 -51q0 -45 90 -73q76 -25 118.5 -57.5t42.5 -87.5
q0 -71 -59 -111.5t-151 -40.5q-130 0 -191 80zM155 -235h-50q34 28 63.5 69.5t29.5 77.5q0 10 -2 24l65 20q2 -16 2 -23q0 -47 -31.5 -93t-76.5 -75z" />
    <glyph glyph-name="circumflex" unicode="&#x2c6;" horiz-adv-x="340" 
d="M26 559l119 133h82l52 -133h-60l-42 87l-89 -87h-62z" />
    <glyph glyph-name="caron" unicode="&#x2c7;" horiz-adv-x="340" 
d="M111 559l-53 133h60l38 -87l84 87h69l-119 -133h-79z" />
    <glyph glyph-name="breve" unicode="&#x2d8;" horiz-adv-x="340" 
d="M161 554q-41 0 -64 21t-23 54q0 17 4 32h46q0 -1 -0.5 -5t-0.5 -7q0 -19 11 -29.5t31 -10.5q54 0 72 52h49q-26 -107 -125 -107z" />
    <glyph glyph-name="dotaccent" unicode="&#x2d9;" horiz-adv-x="340" 
d="M119 624q0 21 15 36t36 15q20 0 35 -15t15 -36q0 -20 -15 -35t-35 -15q-21 0 -36 15t-15 35z" />
    <glyph glyph-name="ring" unicode="&#x2da;" horiz-adv-x="340" 
d="M71 627q0 41 29 70t70 29t70 -29t29 -70t-29 -70.5t-70 -29.5t-70 29.5t-29 70.5zM116 627q0 -24 15.5 -41t38.5 -17t38.5 17t15.5 41q0 23 -15.5 40t-38.5 17t-38.5 -17t-15.5 -40z" />
    <glyph glyph-name="ogonek" unicode="&#x2db;" horiz-adv-x="340" 
d="M77 -151q0 77 96 153h50q-33 -24 -59 -59t-26 -69q0 -18 12.5 -29t32.5 -11q18 0 42 11l8 -40q-38 -25 -79 -25q-33 0 -55 18.5t-22 50.5z" />
    <glyph glyph-name="tilde" unicode="&#x2dc;" horiz-adv-x="340" 
d="M27 563q9 46 33 74t60 28q29 0 61.5 -23.5t42.5 -23.5q29 0 39 47h48q-9 -46 -33 -74t-60 -28q-30 0 -61.5 23.5t-41.5 23.5q-31 0 -40 -47h-48z" />
    <glyph glyph-name="hungarumlaut" unicode="&#x2dd;" horiz-adv-x="340" 
d="M11 557l100 126h87l-124 -126h-63zM139 557l100 126h87l-124 -126h-63z" />
    <glyph glyph-name="pi" unicode="&#x3c0;" horiz-adv-x="749" 
d="M40 324q0 139 98 237t236 98q139 0 237 -98t98 -237q0 -138 -98 -236t-237 -98q-138 0 -236 98t-98 236zM236 127v393h178q67 0 113 -46.5t46 -112.5q0 -67 -46 -113.5t-113 -46.5h-131v-74h-47zM283 249h131q47 0 79 32.5t32 79.5q0 46 -32 79.5t-79 33.5h-131v-225z
M80 324q0 -122 86.5 -209.5t207.5 -87.5q122 0 208 87t86 210t-86 210t-208 87q-121 0 -207.5 -87.5t-86.5 -209.5z" />
    <glyph glyph-name="Wgrave" unicode="&#x1e80;" horiz-adv-x="933" 
d="M163 -3l-92 651h81l71 -532l261 532h87l53 -532l269 532h87l-337 -651h-79l-55 542l-267 -542h-79zM511 698l-71 133h86l50 -133h-65z" />
    <glyph glyph-name="wgrave" unicode="&#x1e81;" horiz-adv-x="712" 
d="M134 -3l-84 490h83l56 -369l177 369h73l42 -369l190 369h85l-252 -490h-77l-44 365l-174 -365h-75zM377 565l-71 133h86l50 -133h-65z" />
    <glyph glyph-name="Wacute" unicode="&#x1e82;" horiz-adv-x="933" 
d="M163 -3l-92 651h81l71 -532l261 532h87l53 -532l269 532h87l-337 -651h-79l-55 542l-267 -542h-79zM473 698l107 133h92l-129 -133h-70z" />
    <glyph glyph-name="wacute" unicode="&#x1e83;" horiz-adv-x="712" 
d="M134 -3l-84 490h83l56 -369l177 369h73l42 -369l190 369h85l-252 -490h-77l-44 365l-174 -365h-75zM369 565l107 133h92l-129 -133h-70z" />
    <glyph glyph-name="Wdieresis" unicode="&#x1e84;" horiz-adv-x="933" 
d="M163 -3l-92 651h81l71 -532l261 532h87l53 -532l269 532h87l-337 -651h-79l-55 542l-267 -542h-79zM413 747q0 19 13 32t32 13q18 0 31 -13t13 -32q0 -18 -13 -31t-31 -13q-19 0 -32 13t-13 31zM570 747q0 19 13.5 32t32.5 13q18 0 31 -13t13 -32q0 -18 -13 -31t-31 -13
q-19 0 -32.5 13t-13.5 31z" />
    <glyph glyph-name="wdieresis" unicode="&#x1e85;" horiz-adv-x="712" 
d="M134 -3l-84 490h83l56 -369l177 369h73l42 -369l190 369h85l-252 -490h-77l-44 365l-174 -365h-75zM293 615q0 19 13 32t32 13q18 0 31 -13t13 -32q0 -18 -13 -31t-31 -13q-19 0 -32 13t-13 31zM450 615q0 19 13.5 32t32.5 13q18 0 31 -13t13 -32q0 -18 -13 -31t-31 -13
q-19 0 -32.5 13t-13.5 31z" />
    <glyph glyph-name="Ygrave" unicode="&#x1ef2;" horiz-adv-x="623" 
d="M209 0l59 307l-196 341h90l154 -272l261 272h98l-327 -340l-59 -308h-80zM343 698l-71 133h86l50 -133h-65z" />
    <glyph glyph-name="ygrave" unicode="&#x1ef3;" horiz-adv-x="526" 
d="M27 -147l16 72q38 0 66 16.5t60 64.5l14 21l-129 460h82l104 -387l230 387h91l-302 -486q-57 -92 -106.5 -120t-125.5 -28zM276 565l-71 133h86l50 -133h-65z" />
    <glyph glyph-name="endash" unicode="&#x2013;" horiz-adv-x="595" 
d="M8 203l14 68h554l-13 -68h-555z" />
    <glyph glyph-name="emdash" unicode="&#x2014;" horiz-adv-x="708" 
d="M8 203l14 68h668l-14 -68h-668z" />
    <glyph glyph-name="quoteleft" unicode="&#x2018;" horiz-adv-x="211" 
d="M61 419l123 229h59l-100 -229h-82z" />
    <glyph glyph-name="quoteright" unicode="&#x2019;" horiz-adv-x="211" 
d="M43 419l99 229h83l-123 -229h-59z" />
    <glyph glyph-name="quotesinglbase" unicode="&#x201a;" horiz-adv-x="211" 
d="M-44 -137l99 229h83l-123 -229h-59z" />
    <glyph glyph-name="quotedblleft" unicode="&#x201c;" horiz-adv-x="362" 
d="M61 419l123 229h59l-100 -229h-82zM212 419l122 229h60l-100 -229h-82z" />
    <glyph glyph-name="quotedblright" unicode="&#x201d;" horiz-adv-x="362" 
d="M43 419l99 229h83l-123 -229h-59zM194 419l99 229h83l-123 -229h-59z" />
    <glyph glyph-name="quotedblbase" unicode="&#x201e;" horiz-adv-x="362" 
d="M-44 -137l99 229h83l-123 -229h-59zM107 -137l99 229h83l-123 -229h-59z" />
    <glyph glyph-name="dagger" unicode="&#x2020;" horiz-adv-x="423" 
d="M121 145l66 340h-141l11 58h141l34 171h63l-34 -171h142l-11 -58h-142l-66 -340h-63z" />
    <glyph glyph-name="daggerdbl" unicode="&#x2021;" horiz-adv-x="423" 
d="M108 18l40 208h-141l12 58h141l39 201h-141l12 58h141l33 171h63l-33 -171h142l-12 -58h-141l-40 -201h141l-11 -58h-142l-40 -208h-63z" />
    <glyph glyph-name="bullet" unicode="&#x2022;" horiz-adv-x="370" 
d="M56 279q0 54 38 91.5t91 37.5q54 0 91.5 -37.5t37.5 -91.5q0 -53 -37.5 -91t-91.5 -38q-53 0 -91 38t-38 91z" />
    <glyph glyph-name="ellipsis" unicode="&#x2026;" horiz-adv-x="677" 
d="M16 45q0 23 16 39t39 16t39 -16t16 -39t-16 -39t-39 -16t-39 16t-16 39zM249 45q0 23 16 39t39 16t39.5 -16t16.5 -39t-16.5 -39t-39.5 -16t-39 16t-16 39zM482 45q0 23 16 39t39 16t39 -16t16 -39t-16 -39t-39 -16t-39 16t-16 39z" />
    <glyph glyph-name="perthousand" unicode="&#x2030;" horiz-adv-x="1212" 
d="M108 429q0 -49 20.5 -79t54.5 -30q37 0 63 29t36.5 66t10.5 75q0 50 -20.5 80t-55.5 30q-38 0 -64 -30.5t-35.5 -67t-9.5 -73.5zM48 423q0 56 16.5 107t57.5 89.5t100 38.5t95 -44t36 -118q0 -56 -17 -107t-58 -89t-99 -38q-59 0 -95 44t-36 117zM562 157q0 -49 20 -79
t54 -30q54 0 82 54t28 116q0 49 -20.5 79.5t-54.5 30.5q-38 0 -64 -30.5t-35.5 -67t-9.5 -73.5zM501 151q0 55 16.5 106.5t58 90t99.5 38.5q59 0 95 -44t36 -118q0 -56 -17 -107t-58 -89t-99 -38q-59 0 -95 44t-36 117zM922 157q0 -49 20 -79t55 -30q37 0 63 29.5t36 66
t10 74.5q0 49 -20 79.5t-55 30.5q-38 0 -64 -30.5t-35.5 -67t-9.5 -73.5zM861 151q0 55 16.5 106.5t58 90t99.5 38.5q60 0 96 -44t36 -118q0 -56 -17 -107t-58 -89t-99 -38q-59 0 -95.5 44.5t-36.5 116.5zM135 13l555 662l37 -28l-555 -662z" />
    <glyph glyph-name="guilsinglleft" unicode="&#x2039;" horiz-adv-x="277" 
d="M28 223l9 39l204 163l31 -39l-171 -151l118 -145l-40 -34z" />
    <glyph glyph-name="guilsinglright" unicode="&#x203a;" horiz-adv-x="277" 
d="M25 56l-31 41l173 156l-121 142l41 34l151 -167l-10 -39z" />
    <glyph glyph-name="fraction" unicode="&#x2044;" horiz-adv-x="484" 
d="M-35 13l555 662l37 -28l-555 -662z" />
    <glyph glyph-name="zerosuperior" unicode="&#x2070;" horiz-adv-x="440" 
d="M240 698q-46 0 -78 -38t-44 -84.5t-12 -92.5q0 -62 24.5 -99.5t66.5 -37.5q65 0 100 68.5t35 145.5q0 62 -25 100t-67 38zM37 477q0 66 20 127.5t69 107.5t118 46q71 0 114 -52.5t43 -140.5q0 -67 -20.5 -128t-69 -106t-117.5 -45q-70 0 -113.5 53t-43.5 138z" />
    <glyph glyph-name="foursuperior" unicode="&#x2074;" horiz-adv-x="406" 
d="M214 292l19 97h-222l9 47l220 326l52 -33l-190 -282h142l21 106h65l-20 -106h58l-11 -58h-59l-19 -97h-65z" />
    <glyph glyph-name="fivesuperior" unicode="&#x2075;" horiz-adv-x="395" 
d="M19 330l33 50q44 -36 116 -36q50 0 83.5 29.5t33.5 76.5q0 38 -27 59.5t-69 21.5q-51 0 -98 -34l-35 28l43 223h265l-12 -60h-200l-23 -118q38 18 75 18q63 0 106 -34.5t43 -99.5q0 -74 -55 -122t-137 -48q-89 0 -142 46z" />
    <glyph glyph-name="sixsuperior" unicode="&#x2076;" horiz-adv-x="424" 
d="M41 437q0 72 49 125l182 200l48 -39l-109 -114h18q66 0 107 -41.5t41 -105.5q0 -75 -49 -126t-125 -51q-74 0 -118 42t-44 110zM109 440q0 -41 26.5 -68t68.5 -27q45 0 75 32t30 81q0 40 -26.5 67t-67.5 27q-46 0 -76 -32t-30 -80z" />
    <glyph glyph-name="sevensuperior" unicode="&#x2077;" horiz-adv-x="361" 
d="M24 291l270 399h-248l12 60h330l-9 -47l-279 -412h-76z" />
    <glyph glyph-name="eightsuperior" unicode="&#x2078;" horiz-adv-x="424" 
d="M39 420q0 95 91 138q-37 30 -37 77q0 55 39.5 88.5t101.5 33.5q55 0 91.5 -27t36.5 -78q0 -65 -57 -94q34 -14 54 -45.5t20 -69.5q0 -68 -47 -113t-132 -45q-71 0 -116 37.5t-45 97.5zM217 524q-47 0 -78 -26t-31 -72q0 -36 26.5 -58.5t66.5 -22.5q52 0 80.5 26.5
t28.5 71.5q0 34 -24.5 57.5t-68.5 23.5zM155 633q0 -24 18 -39.5t49 -15.5q34 0 55.5 18.5t21.5 48.5q0 25 -19 40t-48 15q-33 0 -55 -17t-22 -50z" />
    <glyph glyph-name="ninesuperior" unicode="&#x2079;" horiz-adv-x="424" 
d="M112 328l100 104h-17q-65 0 -106.5 41t-41.5 105q0 76 49 127t125 51q74 0 117.5 -42t43.5 -110q0 -71 -48 -125l-174 -190zM114 583q0 -40 26.5 -67t68.5 -27q45 0 75.5 32t30.5 80q0 41 -27 68t-69 27q-45 0 -75 -32t-30 -81z" />
    <glyph glyph-name="n.sups" unicode="&#x207f;" horiz-adv-x="378" 
d="M38 331l62 320h61l-7 -37q44 44 106 44q99 0 99 -91q0 -19 -5 -41l-37 -195h-62l36 187q3 12 3 28q0 52 -60 52q-34 0 -63.5 -25t-36.5 -62l-35 -180h-61z" />
    <glyph glyph-name="zeroinferior" unicode="&#x2080;" horiz-adv-x="440" 
d="M240 297q-46 0 -78 -38t-44 -84.5t-12 -92.5q0 -62 24.5 -99.5t66.5 -37.5q65 0 100 68.5t35 145.5q0 62 -25 100t-67 38zM37 76q0 66 20 127.5t69 107.5t118 46q71 0 114 -52.5t43 -140.5q0 -67 -20.5 -128t-69 -106t-117.5 -45q-70 0 -113.5 53t-43.5 138z" />
    <glyph glyph-name="oneinferior" unicode="&#x2081;" horiz-adv-x="320" 
d="M116 -110l69 361l-112 -67l-25 51l172 114h50l-89 -459h-65z" />
    <glyph glyph-name="twoinferior" unicode="&#x2082;" horiz-adv-x="387" 
d="M11 -110l10 45q258 199 258 294q0 66 -76 66q-59 0 -113 -56l-32 43q66 73 154 73q63 0 100 -32t37 -83q0 -61 -48.5 -130t-176.5 -160h194l-12 -60h-295z" />
    <glyph glyph-name="threeinferior" unicode="&#x2083;" horiz-adv-x="401" 
d="M8 -65l33 49q39 -39 110 -39q54 0 90 30t36 74q0 36 -24.5 58.5t-68.5 22.5q-35 0 -67 -20l-22 45l157 135h-177l12 59h273l-9 -49l-140 -118h10q55 0 90 -36t35 -92q0 -74 -54.5 -121.5t-140.5 -47.5q-93 0 -143 50z" />
    <glyph glyph-name="fourinferior" unicode="&#x2084;" horiz-adv-x="406" 
d="M214 -109l19 97h-222l9 47l220 326l52 -33l-190 -282h142l21 106h65l-20 -106h58l-11 -58h-59l-19 -97h-65z" />
    <glyph glyph-name="fiveinferior" unicode="&#x2085;" horiz-adv-x="395" 
d="M19 -70l33 50q44 -36 116 -36q50 0 83.5 29.5t33.5 76.5q0 38 -27 59.5t-69 21.5q-51 0 -98 -34l-35 28l43 223h265l-12 -60h-200l-23 -118q37 18 75 18q63 0 106 -34.5t43 -99.5q0 -74 -55 -122t-137 -48q-89 0 -142 46z" />
    <glyph glyph-name="sixinferior" unicode="&#x2086;" horiz-adv-x="424" 
d="M41 36q0 72 49 125l182 200l48 -39l-109 -114h18q66 0 107 -41.5t41 -105.5q0 -75 -49 -126t-125 -51q-74 0 -118 42t-44 110zM109 39q0 -41 26.5 -68t68.5 -27q45 0 75 32t30 81q0 40 -26.5 67t-67.5 27q-46 0 -76 -32t-30 -80z" />
    <glyph glyph-name="seveninferior" unicode="&#x2087;" horiz-adv-x="361" 
d="M24 -110l270 399h-248l12 60h330l-9 -47l-279 -412h-76z" />
    <glyph glyph-name="eightinferior" unicode="&#x2088;" horiz-adv-x="424" 
d="M39 19q0 95 91 138q-37 30 -37 77q0 55 39.5 88.5t101.5 33.5q55 0 91.5 -27t36.5 -78q0 -65 -57 -94q34 -14 54 -45.5t20 -69.5q0 -68 -47 -113t-132 -45q-71 0 -116 37.5t-45 97.5zM217 123q-47 0 -78 -26t-31 -72q0 -36 26.5 -58.5t66.5 -22.5q52 0 80.5 26.5
t28.5 71.5q0 34 -24.5 57.5t-68.5 23.5zM155 232q0 -24 18 -39.5t49 -15.5q34 0 55.5 18.5t21.5 48.5q0 25 -19 40t-48 15q-33 0 -55 -17t-22 -50z" />
    <glyph glyph-name="nineinferior" unicode="&#x2089;" horiz-adv-x="424" 
d="M112 -73l100 104h-17q-65 0 -106.5 41.5t-41.5 104.5q0 76 49 127t125 51q74 0 117.5 -42t43.5 -110q0 -71 -48 -125l-174 -190zM114 182q0 -40 26.5 -67t68.5 -27q45 0 75.5 32t30.5 80q0 41 -27 68t-69 27q-45 0 -75 -32t-30 -81z" />
    <glyph glyph-name="Euro" unicode="&#x20ac;" 
d="M16 232l21 57h61q2 50 6 71h-61l19 56h54q72 242 281 242q115 0 181 -96l-49 -46q-48 71 -133 71q-143 0 -198 -171h255l-20 -56h-250q-4 -30 -6 -71h236l-21 -57h-210q11 -78 54.5 -125t110.5 -47q55 0 89 21.5t70 68.5l49 -44q-43 -58 -94 -87t-123 -29q-97 0 -161 66
t-77 176h-84z" />
    <glyph glyph-name="trademark" unicode="&#x2122;" horiz-adv-x="796" 
d="M281 359l56 289h39l82 -105l127 105h44l-56 -289h-57l38 195l-110 -87l-69 88l-38 -196h-56zM90 359l46 237h-99l10 52h251l-10 -52h-96l-46 -237h-56z" />
    <glyph glyph-name="minus" unicode="&#x2212;" 
d="M54 232l13 65h445l-12 -65h-446z" />
    <glyph glyph-name="approxequal" unicode="&#x2248;" 
d="M156 288h-76q7 50 37 83.5t87 33.5q44 0 93 -29t76 -29q43 0 56 47h76q-8 -50 -37 -83.5t-83 -33.5q-46 0 -97 29t-73 29q-49 0 -59 -47zM122 116h-76q8 50 38 83.5t87 33.5q44 0 92.5 -29t75.5 -29q46 0 56 47h76q-7 -49 -36.5 -83t-83.5 -34q-45 0 -96 29t-73 29
q-21 0 -35 -9t-17.5 -17t-7.5 -21z" />
    <glyph glyph-name="notequal" unicode="&#x2260;" 
d="M73 51l92 116h-127l13 65h166l68 85h-218l12 65h258l114 143l37 -26l-94 -117h131l-12 -65h-171l-68 -85h223l-13 -65h-261l-113 -141z" />
    <glyph glyph-name="lessequal" unicode="&#x2264;" 
d="M16 30l13 65h446l-13 -65h-446zM67 293l13 67l474 147l-13 -70l-383 -112l340 -112l-14 -67z" />
    <glyph glyph-name="greaterequal" unicode="&#x2265;" 
d="M10 30l13 65h446l-13 -65h-446zM33 146l16 70l371 115l-330 111l13 65l417 -147l-13 -67z" />
    <glyph glyph-name="commainferior" unicode="&#xf6e1;" horiz-adv-x="162" 
d="M20 -184l72 171h72l-98 -171h-46z" />
    <glyph glyph-name="commasuperior" unicode="&#xf6e2;" horiz-adv-x="162" 
d="M4 217l72 171h72l-98 -171h-46z" />
    <glyph glyph-name="periodinferior" unicode="&#xf6e7;" horiz-adv-x="162" 
d="M36 -66q0 20 14.5 35t34.5 15q21 0 35.5 -15t14.5 -35t-14.5 -34.5t-35.5 -14.5q-20 0 -34.5 14.5t-14.5 34.5z" />
    <glyph glyph-name="periodsuperior" unicode="&#xf6e8;" horiz-adv-x="162" 
d="M20 335q0 21 14.5 35.5t34.5 14.5q21 0 35.5 -14.5t14.5 -35.5q0 -20 -14.5 -34.5t-35.5 -14.5q-19 0 -34 15t-15 34z" />
    <glyph glyph-name="apple" unicode="&#xf8ff;" horiz-adv-x="805" 
d="M-2 -9q1 6 14 13.5t34.5 17t30.5 14.5q1 5 5 27q3 12 45 118q-16 2 -96 19q14 91 19 110q0 5 2 15t2 16v4q-3 3 -12 3.5t-11 1.5q0 16 9.5 45t10.5 41q4 13 13 41.5t14 44.5q80 18 96 19q0 15 -10 33q0 1 4.5 5.5t8 9t3.5 7.5t-2 4q-19 7 -35 7v4h37v71q88 3 99 4
q-5 -18 -14 -37l-8 -39q1 0 67 3l1 9q3 19 16 39l2 5q10 -2 32 -3t36 -4q5 -17 5 -31q0 -9 -1 -14l47 -7l33 4v8q0 64 -7 93q5 -1 22 -1q35 0 39 2q32 5 44 5q-1 -12 -4 -31t-5 -34t-2 -31v-8q6 -2 23.5 -3t23.5 -3q-4 -1 -19.5 -2.5t-21.5 -4.5l20 -35q-7 -19 -10 -42
q66 15 78 16q1 -2 1 -5q0 -4 -2.5 -14.5t-2.5 -16.5q7 -9 16 -26t15 -30l6 -12l28 -132q2 -1 3.5 -21.5t3 -54t2.5 -46.5l1 -9h-48q26 -50 47 -83l18 -26l-15 -11l28 -21q-4 -1 -11 -1q-8 0 -22.5 5t-20.5 6q0 -4 -1.5 -6t-2.5 -2.5t-4.5 -0.5h-5.5q-6 1 -12 19q-4 6 -5 11
q-6 10 -18.5 32.5t-22 40t-16.5 34.5q-5 3 -11 3l-19 -1q-12 -34 -27 -62q-1 -7 -1.5 -15t-1 -17.5t-0.5 -14.5q0 -18 -6 -30l-24 -6v5q0 3 -2 4q-4 -1 -16 -10.5t-20 -9.5l12 47q2 7 9 25.5t10.5 28.5t7 26t4.5 30q-6 -1 -24 -5.5t-30 -4.5h-13q-6 -30 -6 -57q0 -22 3 -43
q2 -14 12 -65q3 -13 4 -14q-18 2 -47 26q-3 4 -8 6l-6 -4l-12 2q1 9 3.5 25t2.5 24q10 67 12 105q-11 3 -19 3l-23 -1l-4 -7v-37q-2 -28 -2 -38v-25q0 -3 0.5 -12.5t1.5 -15.5l-3 -18l-18 -4q0 7 -4 7q-2 0 -5 -1.5t-4 -1.5q-2 0 -18 -5t-25 -5q1 6 7.5 13.5t8.5 11.5v31
q-6 60 -6 89v12l-1 5q-9 -3 -10 -3l-11 2h-34q-11 0 -16 -3q17 -81 19 -102q1 -7 1 -18q2 -11 13 -35.5t12 -39.5q-9 3 -23.5 16t-19.5 16l-14 9l-4 -9l-22 12q-1 12 -5 49q-8 74 -20 109q-3 2 -10 2h-6q-8 0 -11 2q-22 -47 -25 -113q-2 -10 -2 -13l1 -16l-1 -17l-19 -1
q-5 0 -8 1q2 0 2 3v6q-18 -2 -55 -18t-61 -17zM561 557l9 6q0 9 -13 16q-1 1 -5 11t-4 11h-6q-24 -2 -30 -5q-4 -8 -4 -13v-7q0 -7 -1 -10q13 -14 17 -29q7 -1 22.5 -7.5t19.5 -6.5q3 0 3 1q1 1 1 5l-3 11l1 7q-1 0 -4 4t-3 6zM498 529q8 8 8 12l-18 39q1 3 4.5 7.5t3.5 7.5
q0 4 -1 5q-11 2 -29 2h-19q-18 0 -26 1q1 -11 8 -23q-3 -8 -5.5 -25.5t-6.5 -26.5q13 5 35 5zM656 384q-1 5 -10 12.5t-11 13.5v5q0 3 2 13l-11 1q-3 -2 -4 -6.5t-1 -9.5v-6q-18 15 -45 15q-16 0 -22 -3v-9q2 -1 5 -1l13 1q6 0 9 -4l-1 -4q-5 2 -17 2q-18 0 -31 -14l1 -6
l3 1q18 7 27 7q5 0 7 -3h-4q-14 0 -26 -25l6 -3q5 7 9.5 10t11.5 5t10 3q4 0 4 -7q-13 -7 -13 -23q3 -4 7 -4q1 0 5 2q0 5 3 8.5t5.5 4.5t8.5 3t8 3q4 0 8 -3t6 -4q7 -7 10 -7q6 0 13.5 15.5t13.5 16.5zM364 594v10q-24 -2 -27 -4q2 -2 2 -8q0 -7 -8 -16.5t-9 -16.5
q6 -26 15 -36q2 0 6.5 -1.5t6.5 -1.5t5 1t4 1q-5 10 -5 11q0 5 7 24q-12 0 -12 5q0 4 7 8q8 6 8 24zM329 603q-4 4 -20 4l-19 -2l-30 -4l-3 -5l19 -27q-13 -22 -13 -27l42 -9l3 35q20 22 21 35zM390 453l-41 -8q1 1 1 3v2l-1 2l9 6q8 5 11 11l3 7q-36 -13 -55 -28q0 -3 1 -4
q3 -6 3 -10t-5 -7t-11.5 -5t-8.5 -4q2 -2 5.5 -9.5t8 -12t11.5 -4.5q11 9 25 9h41zM205 570q0 8 -9 8q-8 0 -8 -8t8 -8q9 0 9 8zM218 600h-25q0 -17 2 -17q13 0 13 -13t-13 -13t-13 16l-4 -2q1 -6 2 -18.5t2.5 -19.5t3.5 -9q16 -7 17 -7q3 0 4 2l4 25q-9 0 -9 3q0 4 5.5 8
t5.5 7q3 17 5 38zM251 369l-13 11q-3 3 -12.5 10.5t-13 10t-11 6.5t-15.5 5q-8 -3 -26 -14t-28 -14l10 -16q7 1 32 11q1 -5 5.5 -16.5t5.5 -19.5l-9 -18l22 15l-3 18q1 3 4 3l7 -8q3 -5 3 -8q0 -11 -7 -20q2 -2 5 -2l4 1l11 20q-1 2 -5 20q14 -5 19 -12q-1 -4 -5.5 -9.5
t-4.5 -6.5l7 -5l16 26q-3 3 -3 4q0 3 5 8zM236 370l-20 6q1 3 4 3t9 -4.5t7 -4.5z" />
    <glyph glyph-name="one.onum" horiz-adv-x="423" 
d="M189 0l73 378l-137 -81l-27 56l200 134h62l-94 -487h-77z" />
    <glyph glyph-name="two.onum" horiz-adv-x="517" 
d="M37 0l11 56q184 110 259.5 174.5t75.5 116.5q0 38 -29 59t-84 21q-80 0 -154 -61l-36 53q90 78 198 78q84 0 133.5 -38.5t49.5 -105.5q0 -133 -280 -284h284l-14 -69h-414z" />
    <glyph glyph-name="three.onum" horiz-adv-x="528" 
d="M5 -54l39 58q60 -51 155 -51q74 0 123.5 41.5t49.5 102.5q0 53 -38 80.5t-90 27.5q-50 0 -110 -30l-22 48l253 196h-283l14 68h389l-13 -66l-211 -162q13 5 31 5q61 -3 109.5 -44.5t48.5 -119.5q0 -94 -72 -155.5t-177 -61.5q-123 0 -196 63z" />
    <glyph glyph-name="four.onum" horiz-adv-x="521" 
d="M301 -117l26 137h-313l11 60l288 429l62 -40l-254 -380h219l30 152h77l-30 -152h85l-14 -69h-85l-26 -137h-76z" />
    <glyph glyph-name="five.onum" horiz-adv-x="528" 
d="M32 -59l38 58q17 -15 60 -30.5t101 -15.5q77 0 126.5 41t49.5 98q0 53 -39.5 86t-110.5 33q-75 0 -146 -45l-33 28l56 293h358l-14 -69h-280l-31 -159q53 21 108 21q100 0 155 -50.5t55 -131.5q0 -88 -70.5 -151.5t-181.5 -63.5q-75 0 -126 19t-75 39z" />
    <glyph glyph-name="six.onum" horiz-adv-x="553" 
d="M48 203q0 101 67 173l268 291l55 -48l-170 -181q24 3 39 3q95 0 153 -58.5t58 -143.5q0 -105 -69.5 -177t-175.5 -72q-101 0 -163 60t-62 153zM126 204q0 -62 40.5 -103t107.5 -41q71 0 118 50t47 122q0 61 -40.5 101.5t-108.5 40.5q-71 0 -117.5 -49.5t-46.5 -120.5z
" />
    <glyph glyph-name="seven.onum" horiz-adv-x="514" 
d="M46 -117l365 535h-372l13 69h464l-11 -58l-373 -546h-86z" />
    <glyph glyph-name="eight.onum" horiz-adv-x="560" 
d="M47 184q0 68 38.5 118.5t104.5 72.5q-63 40 -63 118q0 72 54 118.5t137 46.5q80 0 130 -44t50 -111q0 -92 -91 -136q53 -24 83 -68.5t30 -98.5q0 -94 -68.5 -152t-175.5 -58q-102 0 -165.5 54t-63.5 140zM287 333q-69 0 -114.5 -40.5t-45.5 -101.5q0 -56 41.5 -93.5
t109.5 -37.5q70 0 116 40t46 100q0 57 -42.5 95t-110.5 38zM203 490q0 -40 29.5 -67.5t76.5 -27.5q50 0 81.5 29.5t31.5 72.5q0 41 -29 67.5t-77 26.5q-49 0 -81 -28.5t-32 -72.5z" />
    <glyph glyph-name="nine.onum" horiz-adv-x="553" 
d="M188 -72l114 121q-21 -4 -38 -4q-93 0 -151.5 59.5t-58.5 146.5q0 105 70 175.5t174 70.5q101 0 163.5 -58t62.5 -152q0 -48 -17 -93.5t-45 -74.5l-221 -236zM133 256q0 -61 40 -101.5t108 -40.5q71 0 118 50t47 120q0 62 -41 103t-108 41q-70 0 -117 -50.5t-47 -121.5z
" />
    <glyph glyph-name="zero.onum" horiz-adv-x="532" 
d="M53 213q0 53 15 102.5t43.5 90.5t75.5 66t106 25q95 0 149.5 -62t54.5 -163q0 -69 -24 -131t-80 -106.5t-135 -44.5q-94 0 -149.5 61.5t-55.5 161.5zM293 427q-77 0 -119.5 -61.5t-42.5 -145.5q0 -71 34.5 -115.5t92.5 -44.5q77 0 119 62.5t42 142.5q0 72 -34 117t-92 45
z" />
    <glyph glyph-name="zero.pnum" 
d="M316 587q-52 0 -92.5 -31.5t-62 -81.5t-32.5 -103t-11 -104q0 -95 33.5 -150.5t99.5 -55.5q65 0 112 51t67 122t20 148q0 94 -34.5 149.5t-99.5 55.5zM36 270q0 98 29.5 184t95 145t154.5 59q101 0 159 -75.5t58 -202.5q0 -65 -16.5 -131t-48.5 -125.5t-87.5 -96.5
t-126.5 -37q-104 0 -160.5 75t-56.5 205z" />
    <glyph glyph-name="one.pnum" horiz-adv-x="446" 
d="M165 0l102 535l-149 -89l-28 58l215 144h62l-125 -648h-77z" />
    <glyph glyph-name="two.pnum" 
d="M19 0l11 55q202 153 292 255.5t90 175.5q0 49 -30 74.5t-86 25.5q-92 0 -170 -78l-38 51q91 99 220 99q82 0 134.5 -43.5t52.5 -116.5q0 -183 -339 -428h308l-13 -70h-432z" />
    <glyph glyph-name="three.pnum" 
d="M17 60l39 58q65 -58 168 -58q84 0 134 49t50 112q0 53 -37 89.5t-108 36.5q-47 0 -97 -26l-22 49l250 208h-283l13 70h394l-12 -62l-215 -182q8 3 20 3q90 -4 135.5 -55.5t45.5 -123.5q0 -99 -74 -168.5t-194 -69.5q-125 0 -207 70z" />
    <glyph glyph-name="four.pnum" horiz-adv-x="565" 
d="M308 0l27 142h-312l11 59l306 457l63 -41l-271 -405h217l29 151h78l-30 -151h84l-13 -70h-84l-27 -142h-78z" />
    <glyph glyph-name="five.pnum" 
d="M32 51l40 58q66 -49 169 -49q80 0 128.5 44.5t48.5 108.5q0 63 -42.5 97.5t-113.5 34.5q-80 0 -147 -45l-35 29l61 319h368l-14 -70h-291l-36 -193q60 25 118 25q91 0 152.5 -48.5t61.5 -145.5q0 -99 -72.5 -162.5t-184.5 -63.5q-129 0 -211 61z" />
    <glyph glyph-name="six.pnum" horiz-adv-x="567" 
d="M42 203q0 101 67 173l269 291l57 -50l-173 -179q25 3 39 3q95 0 153 -58.5t58 -143.5q0 -105 -69.5 -177t-175.5 -72q-101 0 -163 60t-62 153zM123 204q0 -62 40 -103t105 -41q70 0 116 50t46 122q0 61 -39.5 101.5t-105.5 40.5q-70 0 -116 -49.5t-46 -120.5z" />
    <glyph glyph-name="seven.pnum" horiz-adv-x="531" 
d="M41 0l395 578h-372l13 70h464l-11 -58l-401 -590h-88z" />
    <glyph glyph-name="eight.pnum" 
d="M34 184q0 68 38.5 118.5t105.5 72.5q-64 40 -64 118q0 72 54 118.5t137 46.5q80 0 130 -44t50 -111q0 -92 -91 -136q54 -24 83.5 -68.5t29.5 -98.5q0 -94 -68.5 -152t-175.5 -58q-102 0 -165.5 54t-63.5 140zM274 333q-68 0 -112.5 -40.5t-44.5 -101.5q0 -56 41 -93.5
t107 -37.5q69 0 114.5 40t45.5 100q0 56 -42.5 94.5t-108.5 38.5zM190 490q0 -40 29.5 -67.5t76.5 -27.5q50 0 81.5 29.5t31.5 72.5q0 41 -29 67.5t-77 26.5q-49 0 -81 -28.5t-32 -72.5z" />
    <glyph glyph-name="nine.pnum" horiz-adv-x="567" 
d="M139 36l167 173q-24 -3 -37 -3q-93 0 -151.5 59t-58.5 146q0 106 70 176.5t174 70.5q101 0 163.5 -58t62.5 -152q0 -48 -17 -93.5t-45 -74.5l-272 -290zM141 417q0 -61 39.5 -101.5t105.5 -40.5q70 0 116 50t46 120q0 62 -40 103t-106 41q-69 0 -115 -50t-46 -122z" />
    <glyph glyph-name="zero.onumtab" horiz-adv-x="551" 
d="M53 213q0 53 15 102.5t43.5 90.5t75.5 66t106 25q95 0 149.5 -62t54.5 -163q0 -69 -24 -131t-80 -106.5t-135 -44.5q-94 0 -149.5 61.5t-55.5 161.5zM293 427q-77 0 -119.5 -61.5t-42.5 -145.5q0 -71 34.5 -115.5t92.5 -44.5q77 0 119 62.5t42 142.5q0 72 -34 117t-92 45
z" />
    <glyph glyph-name="one.onumtab" horiz-adv-x="551" 
d="M95 0l14 69h135l59 309l-137 -81l-27 56l201 134h62l-82 -418h126l-13 -69h-338z" />
    <glyph glyph-name="two.onumtab" horiz-adv-x="551" 
d="M36 0l11 56q184 110 259.5 174.5t75.5 116.5q0 38 -29 59t-84 21q-80 0 -154 -61l-36 53q90 78 198 78q84 0 133.5 -38.5t49.5 -105.5q0 -133 -280 -284h284l-14 -69h-414z" />
    <glyph glyph-name="three.onumtab" horiz-adv-x="551" 
d="M18 -54l39 58q60 -51 155 -51q74 0 123.5 41.5t49.5 102.5q0 53 -38 80.5t-90 27.5q-50 0 -110 -30l-22 48l253 196h-283l14 68h389l-13 -66l-211 -162q13 5 31 5q61 -3 109.5 -44.5t48.5 -119.5q0 -94 -72 -155.5t-177 -61.5q-123 0 -196 63z" />
    <glyph glyph-name="four.onumtab" horiz-adv-x="551" 
d="M292 -142l27 142h-312l11 59l306 457l63 -41l-271 -405h217l29 151h78l-30 -151h84l-13 -70h-84l-27 -142h-78z" />
    <glyph glyph-name="five.onumtab" horiz-adv-x="551" 
d="M30 -59l38 58q17 -15 60 -30.5t101 -15.5q77 0 126.5 41t49.5 98q0 53 -39.5 86t-110.5 33q-75 0 -146 -45l-33 28l56 293h358l-14 -69h-280l-31 -159q53 21 108 21q100 0 155 -50.5t55 -131.5q0 -88 -70.5 -151.5t-181.5 -63.5q-75 0 -126 19t-75 39z" />
    <glyph glyph-name="six.onumtab" horiz-adv-x="551" 
d="M31 203q0 101 67 173l269 291l57 -50l-173 -179q25 3 39 3q95 0 153 -58.5t58 -143.5q0 -105 -69.5 -177t-175.5 -72q-101 0 -163 60t-62 153zM112 204q0 -62 40 -103t105 -41q70 0 116 50t46 122q0 61 -39.5 101.5t-105.5 40.5q-70 0 -116 -49.5t-46 -120.5z" />
    <glyph glyph-name="seven.onumtab" horiz-adv-x="551" 
d="M49 -170l395 578h-372l13 70h464l-11 -58l-401 -590h-88z" />
    <glyph glyph-name="eight.onumtab" horiz-adv-x="551" 
d="M37 184q0 68 38.5 118.5t105.5 72.5q-64 40 -64 118q0 72 54 118.5t137 46.5q80 0 130 -44t50 -111q0 -92 -91 -136q54 -24 83.5 -68.5t29.5 -98.5q0 -94 -68.5 -152t-175.5 -58q-102 0 -165.5 54t-63.5 140zM277 333q-68 0 -112.5 -40.5t-44.5 -101.5q0 -56 41 -93.5
t107 -37.5q69 0 114.5 40t45.5 100q0 56 -42.5 94.5t-108.5 38.5zM193 490q0 -40 29.5 -67.5t76.5 -27.5q50 0 81.5 29.5t31.5 72.5q0 41 -29 67.5t-77 26.5q-49 0 -81 -28.5t-32 -72.5z" />
    <glyph glyph-name="nine.onumtab" horiz-adv-x="551" 
d="M117 -133l167 173q-24 -3 -37 -3q-93 0 -151.5 59t-58.5 146q0 106 70 176.5t174 70.5q101 0 163.5 -58t62.5 -152q0 -48 -17 -93.5t-45 -74.5l-272 -290zM119 248q0 -61 39.5 -101.5t105.5 -40.5q70 0 116 50t46 120q0 62 -40 103t-106 41q-69 0 -115 -50t-46 -122z" />
    <glyph glyph-name="questiondown.cap" horiz-adv-x="477" 
d="M6 186q0 89 56 148t150 63l24 83h64l-25 -148q-16 4 -42 4q-68 0 -107.5 -42.5t-39.5 -103.5q0 -53 34.5 -88.5t89.5 -35.5q46 0 80.5 23t52.5 64l61 -35q-23 -57 -75 -92t-122 -35q-90 0 -145.5 56.5t-55.5 138.5zM226 603q0 23 16.5 39t39.5 16t39 -16t16 -39
t-16 -39.5t-39 -16.5t-39.5 16.5t-16.5 39.5z" />
    <glyph glyph-name="exclamdown.cap" horiz-adv-x="226" 
d="M17 0l99 478h68l-80 -478h-87zM114 603q0 23 16.5 39t39.5 16q22 0 38.5 -16t16.5 -39t-16 -39t-39 -16t-39.5 16t-16.5 39z" />
    <glyph glyph-name="hyphen.cap" horiz-adv-x="439" 
d="M23 279l13 66h379l-13 -66h-379z" />
    <glyph glyph-name="endash.cap" horiz-adv-x="595" 
d="M8 279l13 68h555l-13 -68h-555z" />
    <glyph glyph-name="emdash.cap" horiz-adv-x="708" 
d="M8 279l14 68h668l-14 -68h-668z" />
    <glyph glyph-name="periodcentered.cap" horiz-adv-x="163" 
d="M27 360q0 23 16 39.5t39 16.5q22 0 38 -16.5t16 -39.5q0 -22 -16 -38t-38 -16q-23 0 -39 15.5t-16 38.5z" />
    <glyph glyph-name="parenleft.cap" horiz-adv-x="302" 
d="M56 237q0 147 66.5 278t186.5 198l36 -50q-101 -62 -156 -178t-55 -244q0 -164 83 -274l-58 -49q-103 127 -103 319z" />
    <glyph glyph-name="parenright.cap" horiz-adv-x="302" 
d="M1 -81l-36 56q92 67 142.5 177.5t50.5 232.5q0 160 -81 280l60 48q99 -140 99 -329q0 -139 -59.5 -263.5t-175.5 -201.5z" />
    <glyph glyph-name="bracketleft.cap" horiz-adv-x="280" 
d="M-5 -69l157 793h191l-11 -58h-114l-134 -677h113l-11 -58h-191z" />
    <glyph glyph-name="bracketright.cap" horiz-adv-x="280" 
d="M-49 -69l12 58h113l135 677h-114l12 58h191l-158 -793h-191z" />
    <glyph glyph-name="braceleft.cap" horiz-adv-x="386" 
d="M60 293l12 63h15q68 0 79 59l18 95q22 112 70 165.5t150 53.5h42l-13 -64q-86 0 -120 -34.5t-53 -129.5l-17 -86q-7 -37 -25.5 -60.5t-61.5 -30.5q55 -15 55 -66q0 -13 -6 -39l-15 -72q-9 -41 -9 -71q0 -92 119 -92l-13 -64h-40q-69 0 -107 38.5t-38 103.5q0 31 10 81
l15 73q6 22 6 35q0 42 -58 42h-15z" />
    <glyph glyph-name="braceright.cap" horiz-adv-x="386" 
d="M-62 -79l13 64q85 0 119.5 36t52.5 127l18 85q4 17 8.5 29t13.5 26.5t25.5 24t38.5 13.5q-28 4 -41 22t-13 40q0 15 6 45l15 79q8 46 8 60q0 93 -118 93l12 64h43q69 0 105 -37.5t36 -101.5q0 -30 -9 -79l-16 -79q-4 -28 -4 -34q0 -42 59 -42h15l-13 -63h-15
q-67 0 -79 -59l-21 -104q-21 -105 -71 -157t-146 -52h-42z" />
    <glyph glyph-name="zero.slash" 
d="M38 270q0 98 29.5 184t95 145t154.5 59q101 0 159 -75.5t58 -202.5q0 -65 -16.5 -131t-48.5 -125.5t-87.5 -96.5t-126.5 -37q-104 0 -160.5 75t-56.5 205zM437 481l-278 -373q36 -47 94 -47q65 0 112 51t67 122t20 148q0 49 -15 99zM318 587q-52 0 -92.5 -31.5t-62 -81.5
t-32.5 -103t-11 -104q0 -54 14 -97l277 370q-36 47 -93 47z" />
    <glyph glyph-name="a.sups" horiz-adv-x="368" 
d="M213 485q-25 0 -48.5 -4.5t-45 -20.5t-21.5 -42q0 -40 54 -40q55 0 85 24.5t35 47.5l7 30q-23 5 -66 5zM36 410q0 62 54.5 93.5t132.5 31.5q34 0 61 -6q0 2 1.5 9.5t1.5 15.5q0 22 -16.5 36t-51.5 14q-57 0 -104 -29l-20 44q6 4 16.5 10.5t46 17.5t74.5 11
q116 0 116 -104q0 -24 -6 -54l-32 -169h-60l7 41q-48 -48 -116 -48q-48 0 -76.5 21.5t-28.5 64.5z" />
    <glyph glyph-name="b.sups" horiz-adv-x="402" 
d="M38 331l83 429h61l-29 -144q37 42 98 42q65 0 105.5 -42.5t40.5 -109.5q0 -71 -48 -126.5t-117 -55.5q-88 0 -121 68l-12 -61h-61zM131 481q0 -40 25.5 -68t71.5 -28q45 0 75 33t30 83q0 42 -26 69t-70 27q-45 0 -75.5 -33t-30.5 -83z" />
    <glyph glyph-name="c.sups" horiz-adv-x="341" 
d="M46 477q0 76 50 128.5t125 52.5q74 0 120 -44l-43 -46q-29 29 -78 29q-47 0 -78.5 -33t-31.5 -83q0 -42 28 -69.5t72 -27.5q48 0 88 40l37 -47q-51 -53 -126 -53q-72 0 -117.5 43.5t-45.5 109.5z" />
    <glyph glyph-name="d.sups" horiz-adv-x="401" 
d="M51 475q0 74 47.5 128.5t121.5 54.5q43 0 75 -20t45 -48l32 170h62l-83 -429h-58l6 37q-36 -44 -102 -44q-63 0 -104.5 43t-41.5 108zM115 480q0 -41 26.5 -68t69.5 -27q45 0 77 33t32 84q0 40 -26.5 68t-69.5 28q-47 0 -78 -33.5t-31 -84.5z" />
    <glyph glyph-name="e.sups" horiz-adv-x="373" 
d="M118 515h188q-1 39 -24 62.5t-59 23.5q-81 0 -105 -86zM51 478q0 76 49.5 128t123.5 52q66 0 105 -43t39 -108l-5 -40h-248q3 -40 31 -63t73 -23q50 0 92 29l31 -46q-54 -40 -128 -40q-71 0 -117 43.5t-46 110.5z" />
    <glyph glyph-name="f.sups" horiz-adv-x="205" 
d="M12 225l72 370h-39l10 55h42l3 14q24 108 110 108q22 0 43 -7t31 -15l10 -7l-36 -41q-22 15 -44 15q-42 0 -54 -55l-2 -12h97l-11 -55h-97l-73 -370h-62z" />
    <glyph glyph-name="g.sups" horiz-adv-x="401" 
d="M49 274l36 40q38 -38 90 -38q38 0 74.5 22.5t49.5 78.5q-37 -43 -101 -43q-67 0 -107 40t-40 101q0 74 47.5 128.5t121.5 54.5q43 0 75 -20.5t45 -48.5l12 62h61l-50 -256q-10 -50 -30.5 -85.5t-48.5 -53t-55.5 -25t-57.5 -7.5q-77 0 -122 50zM114 485q0 -42 26.5 -69.5
t69.5 -27.5q45 0 76.5 33t31.5 85q0 39 -26 67t-69 28q-47 0 -78 -33t-31 -83z" />
    <glyph glyph-name="h.sups" horiz-adv-x="378" 
d="M38 331l83 429h61l-28 -146q44 44 106 44q99 0 99 -91q0 -19 -5 -41l-37 -195h-62l36 187q3 12 3 28q0 52 -60 52q-34 0 -63.5 -25t-36.5 -62l-35 -180h-61z" />
    <glyph glyph-name="i.sups" horiz-adv-x="161" 
d="M38 331l62 320h62l-63 -320h-61zM108 732q0 16 12 28t28 12q15 0 26.5 -12t11.5 -28t-11.5 -27.5t-26.5 -11.5q-16 0 -28 11.5t-12 27.5z" />
    <glyph glyph-name="j.sups" horiz-adv-x="156" 
d="M-16 260q44 20 53 70l64 321h61l-62 -316q-18 -92 -97 -122zM107 732q0 16 12 27.5t28 11.5t27.5 -11.5t11.5 -27.5t-11.5 -27.5t-27.5 -11.5q-17 0 -28.5 11.5t-11.5 27.5z" />
    <glyph glyph-name="k.sups" horiz-adv-x="347" 
d="M38 331l83 429h61l-50 -264l169 155h80l-157 -142l116 -178h-73l-87 138l-66 -62l-15 -76h-61z" />
    <glyph glyph-name="l.sups" horiz-adv-x="165" 
d="M38 331l83 429h61l-83 -429h-61z" />
    <glyph glyph-name="m.sups" horiz-adv-x="576" 
d="M38 331l62 320h62l-8 -37q44 44 101 44q70 0 88 -52q46 52 115 52q99 0 99 -91q0 -19 -5 -41l-37 -195h-62l36 187q3 12 3 28q0 52 -60 52q-32 0 -57 -20.5t-31 -51.5l-38 -195h-61l36 187q3 18 3 28q0 52 -53 52q-34 0 -61.5 -24.5t-34.5 -59.5l-35 -183h-62z" />
    <glyph glyph-name="o.sups" horiz-adv-x="395" 
d="M46 477q0 76 50 128.5t125 52.5q73 0 118.5 -43t45.5 -112q0 -75 -51 -127t-125 -52q-72 0 -117.5 43.5t-45.5 109.5zM110 481q0 -42 28 -69.5t72 -27.5q47 0 79 33.5t32 82.5q0 42 -28 69.5t-73 27.5q-47 0 -78.5 -33t-31.5 -83z" />
    <glyph glyph-name="p.sups" horiz-adv-x="401" 
d="M17 225l83 426h58l-7 -37q39 44 101 44q65 0 105.5 -42.5t40.5 -109.5q0 -71 -47.5 -126.5t-116.5 -55.5q-92 0 -123 68l-33 -167h-61zM131 481q0 -40 26 -68t72 -28q45 0 75 33t30 83q0 42 -26 69t-70 27q-45 0 -76 -33t-31 -83z" />
    <glyph glyph-name="q.sups" horiz-adv-x="400" 
d="M51 475q0 74 47.5 128.5t121.5 54.5q43 0 74 -20t45 -48l11 61h62l-83 -426h-62l28 140q-37 -41 -98 -41q-63 0 -104.5 43t-41.5 108zM115 480q0 -41 26.5 -68t69.5 -27q45 0 76.5 33t31.5 84q0 40 -26 68t-69 28q-47 0 -78 -33.5t-31 -84.5z" />
    <glyph glyph-name="r.sups" horiz-adv-x="242" 
d="M38 331l62 320h62l-11 -51q46 58 130 58l-13 -67q-52 0 -90.5 -27.5t-50.5 -90.5l-28 -142h-61z" />
    <glyph glyph-name="s.sups" horiz-adv-x="320" 
d="M44 372l35 45q36 -36 92 -36q28 0 48 11t20 31q0 16 -14 26t-41 20q-28 10 -45.5 18.5t-33.5 28t-16 46.5q0 44 32 70t87 26q65 0 113 -37l-31 -47q-36 27 -87 27q-21 0 -36 -9t-15 -27q0 -15 11 -23t38 -17q48 -19 74.5 -41.5t26.5 -58.5q0 -53 -39 -77t-98 -24
q-41 0 -73.5 14t-47.5 34z" />
    <glyph glyph-name="t.sups" horiz-adv-x="252" 
d="M82 442l30 155h-40l10 54h40l13 69l64 9l-15 -78h106l-11 -54h-105l-30 -154q-4 -14 -4 -31q0 -31 28 -31q12 0 26 5t22 10l8 5l16 -47q-40 -30 -87 -30q-36 0 -56 19.5t-20 55.5q0 13 5 43z" />
    <glyph glyph-name="u.sups" horiz-adv-x="374" 
d="M165 324q-50 0 -76.5 25.5t-26.5 67.5q0 18 4 40l38 194h62l-36 -186q-3 -12 -3 -27q0 -53 62 -53q33 0 60.5 25t34.5 63l35 178h61l-62 -320h-61l6 33q-43 -40 -98 -40z" />
    <glyph glyph-name="v.sups" horiz-adv-x="332" 
d="M136 329l-81 322h64l56 -240l149 240h69l-205 -322h-52z" />
    <glyph glyph-name="w.sups" horiz-adv-x="458" 
d="M103 329l-48 322h63l28 -228l110 228h58l22 -228l114 228h67l-173 -322h-50l-24 230l-115 -230h-52z" />
    <glyph glyph-name="x.sups" horiz-adv-x="309" 
d="M0 331l155 160l-92 160h66l65 -116l109 116h73l-157 -162l92 -158h-66l-64 115l-108 -115h-73z" />
    <glyph glyph-name="y.sups" horiz-adv-x="349" 
d="M51 224l12 59q50 0 79 49l13 19l-87 300h66l63 -237l145 237h70l-217 -344q-32 -50 -64 -66.5t-80 -16.5z" />
    <glyph glyph-name="z.sups" horiz-adv-x="298" 
d="M13 331l9 47l216 216h-169l11 57h255l-9 -46l-219 -217h183l-12 -57h-265z" />
    <glyph glyph-name="commaaccentcomb" horiz-adv-x="340" 
d="M135 -235h-50q34 28 63.5 69.5t29.5 77.5q0 10 -2 24l65 20q2 -16 2 -23q0 -47 -31.5 -93t-76.5 -75z" />
    <glyph glyph-name="zero.dnom" horiz-adv-x="440" 
d="M240 405q-46 0 -78 -38t-44 -84.5t-12 -92.5q0 -62 24.5 -99.5t66.5 -37.5q65 0 100 68.5t35 145.5q0 62 -25 100t-67 38zM37 184q0 66 20 127.5t69 107.5t118 46q71 0 114 -52.5t43 -140.5q0 -67 -20.5 -128t-69 -106t-117.5 -45q-70 0 -113.5 53t-43.5 138z" />
    <glyph glyph-name="one.dnom" horiz-adv-x="320" 
d="M116 0l69 361l-112 -67l-25 51l172 114h50l-89 -459h-65z" />
    <glyph glyph-name="two.dnom" horiz-adv-x="387" 
d="M11 0l10 45q258 199 258 294q0 66 -76 66q-59 0 -113 -56l-32 43q66 73 154 73q63 0 100 -32t37 -83q0 -61 -48.5 -130t-176.5 -160h194l-12 -60h-295z" />
    <glyph glyph-name="three.dnom" horiz-adv-x="401" 
d="M8 42l33 49q39 -39 110 -39q54 0 90 30t36 74q0 36 -24.5 58.5t-68.5 22.5q-35 0 -67 -20l-22 45l157 135h-177l12 59h273l-9 -49l-140 -118h10q55 0 90 -36t35 -92q0 -74 -54.5 -121.5t-140.5 -47.5q-93 0 -143 50z" />
    <glyph glyph-name="four.dnom" horiz-adv-x="406" 
d="M214 0l19 97h-222l9 47l220 326l52 -33l-190 -282h142l21 106h65l-20 -106h58l-11 -58h-59l-19 -97h-65z" />
    <glyph glyph-name="five.dnom" horiz-adv-x="395" 
d="M19 39l33 50q44 -36 116 -36q50 0 83.5 29.5t33.5 76.5q0 38 -27 59.5t-69 21.5q-51 0 -98 -34l-35 28l43 223h265l-12 -60h-200l-23 -118q37 18 75 18q63 0 106 -34.5t43 -99.5q0 -74 -55 -122t-137 -48q-89 0 -142 46z" />
    <glyph glyph-name="six.dnom" horiz-adv-x="424" 
d="M41 144q0 72 49 125l182 200l48 -39l-109 -114h18q66 0 107 -41.5t41 -105.5q0 -75 -49 -126t-125 -51q-74 0 -118 42t-44 110zM109 147q0 -41 26.5 -68t68.5 -27q45 0 75 32t30 81q0 40 -26.5 67t-67.5 27q-46 0 -76 -32t-30 -80z" />
    <glyph glyph-name="seven.dnom" horiz-adv-x="361" 
d="M24 0l270 399h-248l12 60h330l-9 -47l-279 -412h-76z" />
    <glyph glyph-name="eight.dnom" horiz-adv-x="424" 
d="M39 127q0 95 91 138q-37 30 -37 77q0 55 39.5 88.5t101.5 33.5q55 0 91.5 -27t36.5 -78q0 -65 -57 -94q34 -14 54 -45.5t20 -69.5q0 -68 -47 -113t-132 -45q-71 0 -116 37.5t-45 97.5zM217 231q-47 0 -78 -26t-31 -72q0 -36 26.5 -58.5t66.5 -22.5q52 0 80.5 26.5
t28.5 71.5q0 34 -24.5 57.5t-68.5 23.5zM155 340q0 -24 18 -39.5t49 -15.5q34 0 55.5 18.5t21.5 48.5q0 25 -19 40t-48 15q-33 0 -55 -17t-22 -50z" />
    <glyph glyph-name="nine.dnom" horiz-adv-x="424" 
d="M112 35l100 104h-17q-65 0 -106.5 41.5t-41.5 104.5q0 76 49 127t125 51q74 0 117.5 -42t43.5 -110q0 -71 -48 -125l-174 -190zM114 290q0 -40 26.5 -67t68.5 -27q45 0 75.5 32t30.5 80q0 41 -27 68t-69 27q-45 0 -75 -32t-30 -81z" />
    <glyph glyph-name="at.cap" horiz-adv-x="920" 
d="M63 257q0 178 125 302.5t312 124.5q157 0 255.5 -94t98.5 -236q0 -107 -55 -179.5t-135 -72.5q-32 0 -57 18.5t-30 51.5q-55 -80 -159 -80q-73 0 -119 44t-46 119q0 93 64 161.5t157 68.5q96 0 132 -73l13 62h62l-50 -231q-4 -28 -4 -34q0 -54 47 -54q52 0 88 58.5
t36 141.5q0 119 -84 197t-214 78q-161 0 -268 -105.5t-107 -265.5q0 -127 85.5 -213t222.5 -86q97 0 165 35l16 -50q-73 -38 -181 -38q-165 0 -267.5 100.5t-102.5 249.5zM475 427q-65 0 -111 -50t-46 -122q0 -49 28.5 -77t73.5 -28q68 0 115.5 51t47.5 121q0 49 -31 77
t-77 28z" />
    <glyph glyph-name="zero.numerator" horiz-adv-x="440" 
d="M240 598q-46 0 -78 -38t-44 -84.5t-12 -92.5q0 -62 24.5 -99.5t66.5 -37.5q65 0 100 68.5t35 145.5q0 62 -25 100t-67 38zM37 377q0 66 20 127.5t69 107.5t118 46q71 0 114 -52.5t43 -140.5q0 -67 -20.5 -128t-69 -106t-117.5 -45q-70 0 -113.5 53t-43.5 138z" />
    <glyph glyph-name="one.numerator" horiz-adv-x="320" 
d="M116 191l69 361l-112 -67l-25 51l172 114h50l-89 -459h-65z" />
    <glyph glyph-name="two.numerator" horiz-adv-x="387" 
d="M11 191l10 45q258 199 258 294q0 66 -76 66q-59 0 -113 -56l-32 43q66 73 154 73q63 0 100 -32t37 -83q0 -61 -48.5 -130t-176.5 -160h194l-12 -60h-295z" />
    <glyph glyph-name="three.numerator" horiz-adv-x="401" 
d="M8 236l33 49q39 -39 110 -39q54 0 90 30t36 74q0 36 -24.5 58.5t-68.5 22.5q-35 0 -67 -20l-22 45l157 135h-177l12 59h273l-9 -49l-140 -118h10q55 0 90 -36t35 -92q0 -74 -54.5 -121.5t-140.5 -47.5q-93 0 -143 50z" />
    <glyph glyph-name="four.numerator" horiz-adv-x="406" 
d="M214 192l19 97h-222l9 47l220 326l52 -33l-190 -282h142l21 106h65l-20 -106h58l-11 -58h-59l-19 -97h-65z" />
    <glyph glyph-name="five.numerator" horiz-adv-x="395" 
d="M19 230l33 50q44 -36 116 -36q50 0 83.5 29.5t33.5 76.5q0 38 -27 59.5t-69 21.5q-51 0 -98 -34l-35 28l43 223h265l-12 -60h-200l-23 -118q38 18 75 18q63 0 106 -34.5t43 -99.5q0 -74 -55 -122t-137 -48q-89 0 -142 46z" />
    <glyph glyph-name="six.numerator" horiz-adv-x="424" 
d="M41 337q0 72 49 125l182 200l48 -39l-109 -114h18q66 0 107 -41.5t41 -105.5q0 -75 -49 -126t-125 -51q-74 0 -118 42t-44 110zM109 340q0 -41 26.5 -68t68.5 -27q45 0 75 32t30 81q0 40 -26.5 67t-67.5 27q-46 0 -76 -32t-30 -80z" />
    <glyph glyph-name="seven.numerator" horiz-adv-x="361" 
d="M24 191l270 399h-248l12 60h330l-9 -47l-279 -412h-76z" />
    <glyph glyph-name="eight.numerator" horiz-adv-x="424" 
d="M39 320q0 95 91 138q-37 30 -37 77q0 55 39.5 88.5t101.5 33.5q55 0 91.5 -27t36.5 -78q0 -65 -57 -94q34 -14 54 -45.5t20 -69.5q0 -68 -47 -113t-132 -45q-71 0 -116 37.5t-45 97.5zM217 424q-47 0 -78 -26t-31 -72q0 -36 26.5 -58.5t66.5 -22.5q52 0 80.5 26.5
t28.5 71.5q0 34 -24.5 57.5t-68.5 23.5zM155 533q0 -24 18 -39.5t49 -15.5q34 0 55.5 18.5t21.5 48.5q0 25 -19 40t-48 15q-33 0 -55 -17t-22 -50z" />
    <glyph glyph-name="nine.numerator" horiz-adv-x="424" 
d="M112 228l100 104h-17q-65 0 -106.5 41t-41.5 105q0 76 49 127t125 51q74 0 117.5 -42t43.5 -110q0 -71 -48 -125l-174 -190zM114 483q0 -40 26.5 -67t68.5 -27q45 0 75.5 32t30.5 80q0 41 -27 68t-69 27q-45 0 -75 -32t-30 -81z" />
    <glyph glyph-name="comma.dnom" horiz-adv-x="162" 
d="M20 -79l72 171h72l-98 -171h-46z" />
    <glyph glyph-name="period.dnom" horiz-adv-x="162" 
d="M36 39q0 20 14.5 35t34.5 15q21 0 35.5 -15t14.5 -35t-14.5 -34.5t-35.5 -14.5q-20 0 -34.5 14.5t-14.5 34.5z" />
    <glyph glyph-name="period.numerator" horiz-adv-x="162" 
d="M36 235q0 21 14.5 35.5t34.5 14.5q21 0 35.5 -14.5t14.5 -35.5q0 -20 -14.5 -34.5t-35.5 -14.5q-19 0 -34 15t-15 34z" />
    <glyph glyph-name="comma.numerator" horiz-adv-x="162" 
d="M20 117l72 171h72l-98 -171h-46z" />
    <glyph glyph-name="A.small" horiz-adv-x="608" 
d="M-53 0l373 566h72l153 -566h-80l-27 97h-341l-64 -97h-86zM139 162h283l-82 311z" />
    <glyph glyph-name="B.small" horiz-adv-x="582" 
d="M10 0l109 564h264q60 0 98 -31.5t38 -85.5q0 -40 -25 -78t-67 -51q49 -8 74 -44t25 -78q0 -93 -66.5 -144.5t-175.5 -51.5h-274zM103 70h181q70 0 114 33.5t44 94.5q0 38 -27 59t-76 21h-196zM157 348h186q39 0 65.5 25t26.5 63q0 27 -18 42.5t-53 15.5h-179z" />
    <glyph glyph-name="C.small" horiz-adv-x="561" 
d="M40 257q0 133 88 223.5t219 90.5q64 0 118.5 -20.5t87.5 -56.5l-57 -54q-60 58 -151 58q-96 0 -160 -68t-64 -170q0 -85 56.5 -141t145.5 -56q93 0 159 63l47 -55q-86 -81 -207 -81q-125 0 -203.5 75t-78.5 192z" />
    <glyph glyph-name="D.small" horiz-adv-x="617" 
d="M103 70h132q111 0 185.5 73t74.5 184q0 75 -48.5 121t-132.5 46h-129zM10 0l109 564h212q116 0 182 -63.5t66 -162.5q0 -145 -98.5 -241.5t-248.5 -96.5h-222z" />
    <glyph glyph-name="E.small" horiz-adv-x="545" 
d="M10 0l109 564h438l-14 -70h-358l-31 -161h339l-13 -69h-339l-38 -194h370l-13 -70h-450z" />
    <glyph glyph-name="F.small" horiz-adv-x="490" 
d="M10 0l109 564h412l-14 -70h-332l-31 -161h280l-13 -69h-280l-51 -264h-80z" />
    <glyph glyph-name="G.small" horiz-adv-x="623" 
d="M40 257q0 133 88 223.5t219 90.5q127 0 204 -75l-54 -56q-57 58 -152 58q-96 0 -160 -68t-64 -170q0 -85 56.5 -141t145.5 -56q98 0 152 83l22 110h-117l13 68h194l-40 -208q-78 -126 -225 -126q-123 0 -202.5 76t-79.5 191z" />
    <glyph glyph-name="H.small" horiz-adv-x="599" 
d="M10 0l109 564h80l-45 -230h310l44 230h80l-109 -564h-80l51 264h-309l-51 -264h-80z" />
    <glyph glyph-name="I.small" horiz-adv-x="210" 
d="M10 0l109 564h80l-109 -564h-80z" />
    <glyph glyph-name="J.small" horiz-adv-x="472" 
d="M-16 99l63 41q33 -76 112 -76q63 0 108.5 42.5t62.5 130.5l62 327h79l-65 -338q-46 -236 -247 -236q-59 0 -106.5 27.5t-68.5 81.5z" />
    <glyph glyph-name="K.small" horiz-adv-x="566" 
d="M10 0l109 564h79l-67 -347l363 347h96l-269 -261l181 -303h-89l-149 251l-154 -144l-21 -107h-79z" />
    <glyph glyph-name="L.small" horiz-adv-x="525" 
d="M10 0l109 564h80l-96 -494h350l-13 -70h-430z" />
    <glyph glyph-name="M.small" horiz-adv-x="713" 
d="M10 0l109 564h69l150 -312l296 312h68l-109 -564h-80l82 426l-278 -295l-145 296l-82 -427h-80z" />
    <glyph glyph-name="N.small" horiz-adv-x="614" 
d="M10 0l109 564h80l239 -440l85 440h80l-109 -564h-81l-239 435l-84 -435h-80z" />
    <glyph glyph-name="O.small" horiz-adv-x="667" 
d="M40 257q0 133 88 223.5t219 90.5q126 0 204 -74.5t78 -193.5q0 -131 -88.5 -222t-218.5 -91q-123 0 -202.5 76t-79.5 191zM121 260q0 -85 56.5 -141t145.5 -56q96 0 161 68t65 169q0 86 -57 142t-147 56q-96 0 -160 -68t-64 -170z" />
    <glyph glyph-name="P.small" horiz-adv-x="582" 
d="M10 0l109 564h233q98 0 152.5 -48t54.5 -124q0 -110 -78.5 -181.5t-207.5 -71.5h-157l-26 -139h-80zM346 494h-161l-55 -286h156q81 0 134 48t54 121q0 51 -34.5 84t-93.5 33z" />
    <glyph glyph-name="Q.small" horiz-adv-x="667" 
d="M40 257q0 132 88 223t219 91q126 0 204 -74.5t78 -193.5q0 -125 -79 -212l47 -52l-56 -49l-48 53q-74 -53 -171 -53q-123 0 -202.5 76t-79.5 191zM121 260q0 -85 56.5 -141t145.5 -56q66 0 119 38l-66 74l57 49l65 -74q51 61 51 150q0 86 -57 142t-147 56q-96 0 -160 -68
t-64 -170z" />
    <glyph glyph-name="R.small" horiz-adv-x="583" 
d="M10 0l109 564h244q99 0 153 -47.5t54 -123.5q0 -77 -43.5 -138.5t-121.5 -91.5l99 -163h-90l-85 141q-24 -2 -105 -2h-108l-26 -139h-80zM130 208h165q82 0 136 48.5t54 121.5q0 51 -34.5 83.5t-93.5 32.5h-172z" />
    <glyph glyph-name="S.small" horiz-adv-x="536" 
d="M15 71l43 61q61 -70 173 -70q66 0 109 27.5t43 70.5q0 26 -19 45t-39 27.5t-59 20.5q-40 13 -66 24t-53.5 29t-41 44t-13.5 60q0 75 56 118t149 43q117 0 195 -59l-39 -63q-22 19 -65.5 34.5t-93.5 15.5q-49 0 -85 -22t-36 -60q0 -33 28 -54t81 -37q55 -16 92 -34
t63.5 -51t26.5 -78q0 -80 -65.5 -126.5t-172.5 -46.5q-74 0 -128.5 23.5t-82.5 57.5z" />
    <glyph glyph-name="T.small" horiz-adv-x="527" 
d="M562 564l-13 -70h-205l-96 -494h-80l96 494h-206l13 70h491z" />
    <glyph glyph-name="U.small" horiz-adv-x="582" 
d="M246 -10q-94 0 -150.5 44.5t-56.5 123.5q0 33 8 75l64 331h79l-62 -321q-9 -47 -9 -75q0 -50 34.5 -77.5t97.5 -27.5q81 0 125.5 44t61.5 130l64 327h79l-65 -334q-47 -240 -270 -240z" />
    <glyph glyph-name="V.small" horiz-adv-x="582" 
d="M199 -2l-139 566h83l107 -468l288 468h90l-356 -566h-73z" />
    <glyph glyph-name="W.small" horiz-adv-x="814" 
d="M139 -2l-79 566h82l59 -452l218 452h88l41 -452l228 452h87l-296 -566h-83l-40 458l-222 -458h-83z" />
    <glyph glyph-name="X.small" horiz-adv-x="534" 
d="M-45 0l267 282l-158 282h89l124 -221l206 221h95l-267 -284l157 -280h-91l-121 218l-207 -218h-94z" />
    <glyph glyph-name="Y.small" horiz-adv-x="546" 
d="M179 0l51 265l-167 299h86l129 -231l215 231h98l-281 -298l-51 -266h-80z" />
    <glyph glyph-name="Z.small" horiz-adv-x="523" 
d="M-24 0l12 64l431 430h-333l14 70h439l-12 -64l-431 -430h355l-13 -70h-462z" />
    <glyph glyph-name="Agrave.small" horiz-adv-x="608" 
d="M-53 0l373 566h72l153 -566h-80l-27 97h-341l-64 -97h-86zM139 162h283l-82 311zM338 613l-71 133h86l50 -133h-65z" />
    <glyph glyph-name="Aacute.small" horiz-adv-x="608" 
d="M-53 0l373 566h72l153 -566h-80l-27 97h-341l-64 -97h-86zM139 162h283l-82 311zM309 613l107 133h92l-129 -133h-70z" />
    <glyph glyph-name="Acircumflex.small" horiz-adv-x="608" 
d="M-53 0l373 566h72l153 -566h-80l-27 97h-341l-64 -97h-86zM139 162h283l-82 311zM231 613l119 133h82l52 -133h-60l-42 87l-89 -87h-62z" />
    <glyph glyph-name="Atilde.small" horiz-adv-x="608" 
d="M-53 0l373 566h72l153 -566h-80l-27 97h-341l-64 -97h-86zM139 162h283l-82 311zM227 608q9 46 33 74t60 28q29 0 61.5 -23.5t42.5 -23.5q29 0 39 47h48q-9 -46 -33 -74t-60 -28q-30 0 -61.5 23.5t-41.5 23.5q-31 0 -40 -47h-48z" />
    <glyph glyph-name="Adieresis.small" horiz-adv-x="608" 
d="M-53 0l373 566h72l153 -566h-80l-27 97h-341l-64 -97h-86zM139 162h283l-82 311zM243 652q0 19 13 32t32 13q18 0 31 -13t13 -32q0 -18 -13 -31t-31 -13q-19 0 -32 13t-13 31zM400 652q0 19 13.5 32t32.5 13q18 0 31 -13t13 -32q0 -18 -13 -31t-31 -13q-19 0 -32.5 13
t-13.5 31z" />
    <glyph glyph-name="Amacron.small" horiz-adv-x="608" 
d="M-53 0l373 566h72l153 -566h-80l-27 97h-341l-64 -97h-86zM139 162h283l-82 311zM265 623l13 59h200l-13 -59h-200z" />
    <glyph glyph-name="Abreve.small" horiz-adv-x="608" 
d="M-53 0l373 566h72l153 -566h-80l-27 97h-341l-64 -97h-86zM139 162h283l-82 311zM359 608q-41 0 -64 21t-23 54q0 17 4 32h46q0 -1 -0.5 -5t-0.5 -7q0 -19 11 -29.5t31 -10.5q54 0 72 52h49q-26 -107 -125 -107z" />
    <glyph glyph-name="Aring.small" horiz-adv-x="608" 
d="M-53 0l373 566h72l153 -566h-80l-27 97h-341l-64 -97h-86zM139 162h283l-82 311zM264 696q0 41 29 70t70 29t70 -29t29 -70t-29 -70.5t-70 -29.5t-70 29.5t-29 70.5zM309 696q0 -24 15.5 -41t38.5 -17t38.5 17t15.5 41q0 23 -15.5 40t-38.5 17t-38.5 -17t-15.5 -40z" />
    <glyph glyph-name="Aringacute.small" horiz-adv-x="608" 
d="M-53 0l373 566h72l153 -566h-80l-27 97h-341l-64 -97h-86zM139 162h283l-82 311zM268 696q0 30 17.5 55.5t45.5 36.5l91 121h85l-108 -120q30 -10 48.5 -35.5t18.5 -57.5q0 -41 -29 -70.5t-70 -29.5t-70 29.5t-29 70.5zM313 696q0 -24 15.5 -41t38.5 -17t38.5 17t15.5 41
q0 23 -15.5 40t-38.5 17t-38.5 -17t-15.5 -40z" />
    <glyph glyph-name="Aogonek.small" horiz-adv-x="608" 
d="M-53 0l373 566h72l153 -566h-31q-32 -24 -57 -58t-25 -68q0 -18 12.5 -29t32.5 -11q18 0 42 11l8 -40q-38 -25 -79 -25q-33 0 -55 18.5t-22 50.5q0 77 94 151l-27 97h-341l-64 -97h-86zM139 162h283l-82 311z" />
    <glyph glyph-name="AE.small" horiz-adv-x="834" 
d="M-53 0l459 564h440l-14 -70h-313l-31 -162h293l-14 -69h-293l-37 -193h325l-13 -70h-406l19 97h-246l-80 -97h-89zM169 162h205l65 332z" />
    <glyph glyph-name="AEacute.small" horiz-adv-x="834" 
d="M-53 0l459 564h440l-14 -70h-313l-31 -162h293l-14 -69h-293l-37 -193h325l-13 -70h-406l19 97h-246l-80 -97h-89zM169 162h205l65 332zM527 613l107 133h92l-129 -133h-70z" />
    <glyph glyph-name="Cacute.small" horiz-adv-x="573" 
d="M42 257q0 133 88 223.5t219 90.5q64 0 118.5 -20.5t87.5 -56.5l-57 -54q-60 58 -151 58q-96 0 -160 -68t-64 -170q0 -85 56.5 -141t145.5 -56q93 0 159 63l47 -55q-86 -81 -207 -81q-125 0 -203.5 75t-78.5 192zM327 613l107 133h92l-129 -133h-70z" />
    <glyph glyph-name="Ccircumflex.small" horiz-adv-x="573" 
d="M42 257q0 133 88 223.5t219 90.5q64 0 118.5 -20.5t87.5 -56.5l-57 -54q-60 58 -151 58q-96 0 -160 -68t-64 -170q0 -85 56.5 -141t145.5 -56q93 0 159 63l47 -55q-86 -81 -207 -81q-125 0 -203.5 75t-78.5 192zM242 613l119 133h82l52 -133h-60l-42 87l-89 -87h-62z" />
    <glyph glyph-name="Ccaron.small" horiz-adv-x="573" 
d="M337 613l-53 133h60l38 -87l84 87h69l-119 -133h-79zM42 257q0 133 88 223.5t219 90.5q64 0 118.5 -20.5t87.5 -56.5l-57 -54q-60 58 -151 58q-96 0 -160 -68t-64 -170q0 -85 56.5 -141t145.5 -56q93 0 159 63l47 -55q-86 -81 -207 -81q-125 0 -203.5 75t-78.5 192z" />
    <glyph glyph-name="Cdotaccent.small" horiz-adv-x="573" 
d="M42 257q0 133 88 223.5t219 90.5q64 0 118.5 -20.5t87.5 -56.5l-57 -54q-60 58 -151 58q-96 0 -160 -68t-64 -170q0 -85 56.5 -141t145.5 -56q93 0 159 63l47 -55q-86 -81 -207 -81q-125 0 -203.5 75t-78.5 192zM332 658q0 21 15 36t36 15q20 0 35 -15t15 -36
q0 -20 -15 -35t-35 -15q-21 0 -36 15t-15 35z" />
    <glyph glyph-name="Ccedilla.small" horiz-adv-x="573" 
d="M166 -185l29 35q37 -23 78 -23q28 0 55.5 15.5t27.5 42.5t-37 27q-17 0 -36 -8t-29 -19l-40 16l76 91q-111 10 -179.5 83t-68.5 182q0 133 88 223.5t219 90.5q64 0 118.5 -20.5t87.5 -56.5l-57 -54q-60 58 -151 58q-96 0 -160 -68t-64 -170q0 -85 56.5 -141t145.5 -56
q93 0 159 63l47 -55q-80 -76 -192 -80l-41 -51q24 8 42 8q70 0 70 -58q0 -43 -43 -73t-100 -30q-65 0 -101 28z" />
    <glyph glyph-name="Dcaron.small" horiz-adv-x="617" 
d="M287 613l-53 133h60l38 -87l84 87h69l-119 -133h-79zM103 70h132q111 0 185.5 73t74.5 184q0 75 -48.5 121t-132.5 46h-129zM10 0l109 564h212q116 0 182 -63.5t66 -162.5q0 -145 -98.5 -241.5t-248.5 -96.5h-222z" />
    <glyph glyph-name="Dcroat.small" horiz-adv-x="617" 
d="M10 0l50 259h-77l11 60h78l47 245h212q116 0 182 -63.5t66 -162.5q0 -145 -98.5 -241.5t-248.5 -96.5h-222zM103 70h132q111 0 185.5 73t74.5 184q0 75 -48.5 121t-132.5 46h-129l-34 -175h150l-11 -60h-150z" />
    <glyph glyph-name="Egrave.small" horiz-adv-x="545" 
d="M10 0l109 564h438l-14 -70h-358l-31 -161h339l-13 -69h-339l-38 -194h370l-13 -70h-450zM351 613l-71 133h86l50 -133h-65z" />
    <glyph glyph-name="Eacute.small" horiz-adv-x="545" 
d="M10 0l109 564h438l-14 -70h-358l-31 -161h339l-13 -69h-339l-38 -194h370l-13 -70h-450zM316 613l107 133h92l-129 -133h-70z" />
    <glyph glyph-name="Ecircumflex.small" horiz-adv-x="545" 
d="M10 0l109 564h438l-14 -70h-358l-31 -161h339l-13 -69h-339l-38 -194h370l-13 -70h-450zM221 613l119 133h82l52 -133h-60l-42 87l-89 -87h-62z" />
    <glyph glyph-name="Ecaron.small" horiz-adv-x="545" 
d="M10 0l109 564h438l-14 -70h-358l-31 -161h339l-13 -69h-339l-38 -194h370l-13 -70h-450zM308 613l-53 133h60l38 -87l84 87h69l-119 -133h-79z" />
    <glyph glyph-name="Edieresis.small" horiz-adv-x="545" 
d="M10 0l109 564h438l-14 -70h-358l-31 -161h339l-13 -69h-339l-38 -194h370l-13 -70h-450zM226 652q0 19 13 32t32 13q18 0 31 -13t13 -32q0 -18 -13 -31t-31 -13q-19 0 -32 13t-13 31zM383 652q0 19 13.5 32t32.5 13q18 0 31 -13t13 -32q0 -18 -13 -31t-31 -13
q-19 0 -32.5 13t-13.5 31z" />
    <glyph glyph-name="Emacron.small" horiz-adv-x="545" 
d="M10 0l109 564h438l-14 -70h-358l-31 -161h339l-13 -69h-339l-38 -194h370l-13 -70h-450zM243 623l13 59h200l-13 -59h-200z" />
    <glyph glyph-name="Ebreve.small" horiz-adv-x="545" 
d="M10 0l109 564h438l-14 -70h-358l-31 -161h339l-13 -69h-339l-38 -194h370l-13 -70h-450zM342 608q-41 0 -64 21t-23 54q0 17 4 32h46q0 -1 -0.5 -5t-0.5 -7q0 -19 11 -29.5t31 -10.5q54 0 72 52h49q-26 -107 -125 -107z" />
    <glyph glyph-name="Edotaccent.small" horiz-adv-x="545" 
d="M10 0l109 564h438l-14 -70h-358l-31 -161h339l-13 -69h-339l-38 -194h370l-13 -70h-450zM303 658q0 21 15 36t36 15q20 0 35 -15t15 -36q0 -20 -15 -35t-35 -15q-21 0 -36 15t-15 35z" />
    <glyph glyph-name="Eogonek.small" horiz-adv-x="545" 
d="M10 0l109 564h438l-14 -70h-358l-31 -161h339l-13 -69h-339l-38 -194h370l-13 -70h-50q-32 -24 -57 -58t-25 -68q0 -18 12.5 -29t32.5 -11q18 0 42 11l8 -40q-37 -25 -79 -25q-33 0 -55 18.5t-22 50.5q0 78 93 151h-350z" />
    <glyph glyph-name="Gcircumflex.small" horiz-adv-x="623" 
d="M40 257q0 133 88 223.5t219 90.5q127 0 204 -75l-54 -56q-57 58 -152 58q-96 0 -160 -68t-64 -170q0 -85 56.5 -141t145.5 -56q98 0 152 83l22 110h-117l13 68h194l-40 -208q-78 -126 -225 -126q-123 0 -202.5 76t-79.5 191zM230 613l119 133h82l52 -133h-60l-42 87
l-89 -87h-62z" />
    <glyph glyph-name="Gbreve.small" horiz-adv-x="623" 
d="M40 257q0 133 88 223.5t219 90.5q127 0 204 -75l-54 -56q-57 58 -152 58q-96 0 -160 -68t-64 -170q0 -85 56.5 -141t145.5 -56q98 0 152 83l22 110h-117l13 68h194l-40 -208q-78 -126 -225 -126q-123 0 -202.5 76t-79.5 191zM360 608q-41 0 -64 21t-23 54q0 17 4 32h46
q0 -1 -0.5 -5t-0.5 -7q0 -19 11 -29.5t31 -10.5q54 0 72 52h49q-26 -107 -125 -107z" />
    <glyph glyph-name="Gdotaccent.small" horiz-adv-x="623" 
d="M40 257q0 133 88 223.5t219 90.5q127 0 204 -75l-54 -56q-57 58 -152 58q-96 0 -160 -68t-64 -170q0 -85 56.5 -141t145.5 -56q98 0 152 83l22 110h-117l13 68h194l-40 -208q-78 -126 -225 -126q-123 0 -202.5 76t-79.5 191zM321 658q0 21 15 36t36 15q20 0 35 -15
t15 -36q0 -20 -15 -35t-35 -15q-21 0 -36 15t-15 35z" />
    <glyph glyph-name="Gcommaaccent.small" horiz-adv-x="623" 
d="M40 257q0 133 88 223.5t219 90.5q127 0 204 -75l-54 -56q-57 58 -152 58q-96 0 -160 -68t-64 -170q0 -85 56.5 -141t145.5 -56q98 0 152 83l22 110h-117l13 68h194l-40 -208q-78 -126 -225 -126q-123 0 -202.5 76t-79.5 191zM250 -235h-50q34 28 63.5 69.5t29.5 77.5
q0 10 -2 24l65 20q2 -16 2 -23q0 -47 -31.5 -93t-76.5 -75z" />
    <glyph glyph-name="Hcircumflex.small" horiz-adv-x="599" 
d="M10 0l109 564h80l-45 -230h310l44 230h80l-109 -564h-80l51 264h-309l-51 -264h-80zM226 613l119 133h82l52 -133h-60l-42 87l-89 -87h-62z" />
    <glyph glyph-name="Hbar.small" horiz-adv-x="599" 
d="M10 0l84 431h-35l11 56h35l14 77h80l-15 -77h310l14 77h80l-15 -77h35l-11 -56h-35l-83 -431h-80l51 264h-309l-51 -264h-80zM154 334h310l19 97h-310z" />
    <glyph glyph-name="Igrave.small" horiz-adv-x="210" 
d="M10 0l109 564h80l-109 -564h-80zM148 613l-71 133h86l50 -133h-65z" />
    <glyph glyph-name="Iacute.small" horiz-adv-x="210" 
d="M10 0l109 564h80l-109 -564h-80zM110 613l107 133h92l-129 -133h-70z" />
    <glyph glyph-name="Icircumflex.small" horiz-adv-x="210" 
d="M10 0l109 564h80l-109 -564h-80zM28 613l119 133h82l52 -133h-60l-42 87l-89 -87h-62z" />
    <glyph glyph-name="Itilde.small" horiz-adv-x="210" 
d="M27 608q9 46 33 74t60 28q29 0 61.5 -23.5t42.5 -23.5q29 0 39 47h48q-9 -46 -33 -74t-60 -28q-30 0 -61.5 23.5t-41.5 23.5q-31 0 -40 -47h-48zM10 0l109 564h80l-109 -564h-80z" />
    <glyph glyph-name="Idieresis.small" horiz-adv-x="210" 
d="M41 652q0 19 13 32t32 13q18 0 31 -13t13 -32q0 -18 -13 -31t-31 -13q-19 0 -32 13t-13 31zM198 652q0 19 13.5 32t32.5 13q18 0 31 -13t13 -32q0 -18 -13 -31t-31 -13q-19 0 -32.5 13t-13.5 31zM10 0l109 564h80l-109 -564h-80z" />
    <glyph glyph-name="Imacron.small" horiz-adv-x="210" 
d="M10 0l109 564h80l-109 -564h-80zM64 623l13 59h200l-13 -59h-200z" />
    <glyph glyph-name="Ibreve.small" horiz-adv-x="210" 
d="M160 608q-41 0 -64 21t-23 54q0 17 4 32h46q0 -1 -0.5 -5t-0.5 -7q0 -19 11 -29.5t31 -10.5q54 0 72 52h49q-26 -107 -125 -107zM10 0l109 564h80l-109 -564h-80z" />
    <glyph glyph-name="Idotaccent.small" horiz-adv-x="210" 
d="M10 0l109 564h80l-109 -564h-80zM118 658q0 21 15 36t36 15q20 0 35 -15t15 -36q0 -20 -15 -35t-35 -15q-21 0 -36 15t-15 35z" />
    <glyph glyph-name="Iogonek.small" horiz-adv-x="210" 
d="M10 0l109 564h80l-109 -564h-30q-32 -24 -57 -58t-25 -68q0 -18 12.5 -29t32.5 -11q18 0 42 11l8 -40q-38 -25 -79 -25q-33 0 -55 18.5t-22 50.5q0 77 93 151z" />
    <glyph glyph-name="Jcircumflex.small" horiz-adv-x="472" 
d="M-16 99l63 41q33 -76 112 -76q63 0 108.5 42.5t62.5 130.5l62 327h79l-65 -338q-46 -236 -247 -236q-59 0 -106.5 27.5t-68.5 81.5zM302 613l119 133h82l52 -133h-60l-42 87l-89 -87h-62z" />
    <glyph glyph-name="Kcommaaccent.small" horiz-adv-x="566" 
d="M10 0l109 564h79l-67 -347l363 347h96l-269 -261l181 -303h-89l-149 251l-154 -144l-21 -107h-79zM140 -235h-50q34 28 63.5 69.5t29.5 77.5q0 10 -2 24l65 20q2 -16 2 -23q0 -47 -31.5 -93t-76.5 -75z" />
    <glyph glyph-name="Lacute.small" horiz-adv-x="525" 
d="M10 0l109 564h80l-96 -494h350l-13 -70h-430zM108 613l107 133h92l-129 -133h-70z" />
    <glyph glyph-name="Lcaron.small" horiz-adv-x="525" 
d="M10 0l109 564h80l-96 -494h350l-13 -70h-430zM261 370h-51q35 30 65 73t30 80q0 9 -2 25l66 20q2 -16 2 -23q0 -49 -32 -96.5t-78 -78.5z" />
    <glyph glyph-name="Lcommaaccent.small" horiz-adv-x="525" 
d="M10 0l109 564h80l-96 -494h350l-13 -70h-430zM161 -235h-50q34 28 63.5 69.5t29.5 77.5q0 10 -2 24l65 20q2 -16 2 -23q0 -47 -31.5 -93t-76.5 -75z" />
    <glyph glyph-name="Lslash.small" horiz-adv-x="525" 
d="M10 0l48 249l-63 -25l12 66l64 25l48 249h80l-42 -215l168 66l-13 -64l-168 -68l-41 -213h350l-13 -70h-430z" />
    <glyph glyph-name="Nacute.small" horiz-adv-x="614" 
d="M10 0l109 564h80l239 -440l85 440h80l-109 -564h-81l-239 435l-84 -435h-80zM341 613l107 133h92l-129 -133h-70z" />
    <glyph glyph-name="Ncaron.small" horiz-adv-x="614" 
d="M10 0l109 564h80l239 -440l85 440h80l-109 -564h-81l-239 435l-84 -435h-80zM330 613l-53 133h60l38 -87l84 87h69l-119 -133h-79z" />
    <glyph glyph-name="Ntilde.small" horiz-adv-x="614" 
d="M10 0l109 564h80l239 -440l85 440h80l-109 -564h-81l-239 435l-84 -435h-80zM239 608q9 46 33 74t60 28q29 0 61.5 -23.5t42.5 -23.5q29 0 39 47h48q-9 -46 -33 -74t-60 -28q-30 0 -61.5 23.5t-41.5 23.5q-31 0 -40 -47h-48z" />
    <glyph glyph-name="Ncommaaccent.small" horiz-adv-x="614" 
d="M10 0l109 564h80l239 -440l85 440h80l-109 -564h-81l-239 435l-84 -435h-80zM187 -235h-50q34 28 63.5 69.5t29.5 77.5q0 10 -2 24l65 20q2 -16 2 -23q0 -47 -31.5 -93t-76.5 -75z" />
    <glyph glyph-name="Ograve.small" horiz-adv-x="667" 
d="M40 257q0 133 88 223.5t219 90.5q126 0 204 -74.5t78 -193.5q0 -131 -88.5 -222t-218.5 -91q-123 0 -202.5 76t-79.5 191zM121 260q0 -85 56.5 -141t145.5 -56q96 0 161 68t65 169q0 86 -57 142t-147 56q-96 0 -160 -68t-64 -170zM363 613l-71 133h86l50 -133h-65z" />
    <glyph glyph-name="Oacute.small" horiz-adv-x="667" 
d="M40 257q0 133 88 223.5t219 90.5q126 0 204 -74.5t78 -193.5q0 -131 -88.5 -222t-218.5 -91q-123 0 -202.5 76t-79.5 191zM121 260q0 -85 56.5 -141t145.5 -56q96 0 161 68t65 169q0 86 -57 142t-147 56q-96 0 -160 -68t-64 -170zM327 613l107 133h92l-129 -133h-70z" />
    <glyph glyph-name="Ocircumflex.small" horiz-adv-x="667" 
d="M40 257q0 133 88 223.5t219 90.5q126 0 204 -74.5t78 -193.5q0 -131 -88.5 -222t-218.5 -91q-123 0 -202.5 76t-79.5 191zM121 260q0 -85 56.5 -141t145.5 -56q96 0 161 68t65 169q0 86 -57 142t-147 56q-96 0 -160 -68t-64 -170zM253 613l119 133h82l52 -133h-60l-42 87
l-89 -87h-62z" />
    <glyph glyph-name="Otilde.small" horiz-adv-x="667" 
d="M40 257q0 133 88 223.5t219 90.5q126 0 204 -74.5t78 -193.5q0 -131 -88.5 -222t-218.5 -91q-123 0 -202.5 76t-79.5 191zM121 260q0 -85 56.5 -141t145.5 -56q96 0 161 68t65 169q0 86 -57 142t-147 56q-96 0 -160 -68t-64 -170zM249 608q9 46 33 74t60 28
q29 0 61.5 -23.5t42.5 -23.5q29 0 39 47h48q-9 -46 -33 -74t-60 -28q-30 0 -61.5 23.5t-41.5 23.5q-31 0 -40 -47h-48z" />
    <glyph glyph-name="Odieresis.small" horiz-adv-x="667" 
d="M40 257q0 133 88 223.5t219 90.5q126 0 204 -74.5t78 -193.5q0 -131 -88.5 -222t-218.5 -91q-123 0 -202.5 76t-79.5 191zM121 260q0 -85 56.5 -141t145.5 -56q96 0 161 68t65 169q0 86 -57 142t-147 56q-96 0 -160 -68t-64 -170zM247 652q0 19 13 32t32 13q18 0 31 -13
t13 -32q0 -18 -13 -31t-31 -13q-19 0 -32 13t-13 31zM404 652q0 19 13.5 32t32.5 13q18 0 31 -13t13 -32q0 -18 -13 -31t-31 -13q-19 0 -32.5 13t-13.5 31z" />
    <glyph glyph-name="Omacron.small" horiz-adv-x="667" 
d="M40 257q0 133 88 223.5t219 90.5q126 0 204 -74.5t78 -193.5q0 -131 -88.5 -222t-218.5 -91q-123 0 -202.5 76t-79.5 191zM121 260q0 -85 56.5 -141t145.5 -56q96 0 161 68t65 169q0 86 -57 142t-147 56q-96 0 -160 -68t-64 -170zM254 623l13 59h200l-13 -59h-200z" />
    <glyph glyph-name="Obreve.small" horiz-adv-x="667" 
d="M40 257q0 133 88 223.5t219 90.5q126 0 204 -74.5t78 -193.5q0 -131 -88.5 -222t-218.5 -91q-123 0 -202.5 76t-79.5 191zM121 260q0 -85 56.5 -141t145.5 -56q96 0 161 68t65 169q0 86 -57 142t-147 56q-96 0 -160 -68t-64 -170zM358 608q-41 0 -64 21t-23 54q0 17 4 32
h46q0 -1 -0.5 -5t-0.5 -7q0 -19 11 -29.5t31 -10.5q54 0 72 52h49q-26 -107 -125 -107z" />
    <glyph glyph-name="Ohungarumlaut.small" horiz-adv-x="667" 
d="M40 257q0 133 88 223.5t219 90.5q126 0 204 -74.5t78 -193.5q0 -131 -88.5 -222t-218.5 -91q-123 0 -202.5 76t-79.5 191zM121 260q0 -85 56.5 -141t145.5 -56q96 0 161 68t65 169q0 86 -57 142t-147 56q-96 0 -160 -68t-64 -170zM250 613l100 126h87l-124 -126h-63z
M378 613l100 126h87l-124 -126h-63z" />
    <glyph glyph-name="Oslash.small" horiz-adv-x="667" 
d="M90 -63l-33 27l72 93q-89 79 -89 200q0 133 88 223.5t219 90.5q94 0 157 -40l74 93l35 -26l-73 -92q89 -74 89 -203q0 -131 -88.5 -222t-218.5 -91q-87 0 -157 41zM121 260q0 -86 58 -141l276 351q-45 28 -110 28q-96 0 -160 -68t-64 -170zM490 444l-277 -352
q48 -29 110 -29q96 0 161 68t65 169q0 90 -59 144z" />
    <glyph glyph-name="Oslashacute.small" horiz-adv-x="667" 
d="M90 -63l-33 27l72 93q-89 79 -89 200q0 133 88 223.5t219 90.5q94 0 157 -40l74 93l35 -26l-73 -92q89 -74 89 -203q0 -131 -88.5 -222t-218.5 -91q-87 0 -157 41zM121 260q0 -86 58 -141l276 351q-45 28 -110 28q-96 0 -160 -68t-64 -170zM490 444l-277 -352
q48 -29 110 -29q96 0 161 68t65 169q0 90 -59 144zM316 613l107 133h92l-129 -133h-70z" />
    <glyph glyph-name="OE.small" horiz-adv-x="912" 
d="M40 257q0 133 88 223.5t219 90.5q113 0 182 -65l11 58h384l-15 -70h-303l-31 -162h283l-13 -69h-284l-37 -193h315l-13 -70h-396l4 20q-50 -30 -120 -30q-119 0 -196.5 76t-77.5 191zM121 260q0 -85 56.5 -141t145.5 -56q77 0 130 50l59 305q-57 80 -167 80
q-96 0 -160 -68t-64 -170z" />
    <glyph glyph-name="Racute.small" horiz-adv-x="583" 
d="M10 0l109 564h244q99 0 153 -47.5t54 -123.5q0 -77 -43.5 -138.5t-121.5 -91.5l99 -163h-90l-85 141q-24 -2 -105 -2h-108l-26 -139h-80zM130 208h165q82 0 136 48.5t54 121.5q0 51 -34.5 83.5t-93.5 32.5h-172zM288 613l107 133h92l-129 -133h-70z" />
    <glyph glyph-name="Rcaron.small" horiz-adv-x="583" 
d="M10 0l109 564h244q99 0 153 -47.5t54 -123.5q0 -77 -43.5 -138.5t-121.5 -91.5l99 -163h-90l-85 141q-24 -2 -105 -2h-108l-26 -139h-80zM130 208h165q82 0 136 48.5t54 121.5q0 51 -34.5 83.5t-93.5 32.5h-172zM295 613l-53 133h60l38 -87l84 87h69l-119 -133h-79z" />
    <glyph glyph-name="Rcommaaccent.small" horiz-adv-x="583" 
d="M10 0l109 564h244q99 0 153 -47.5t54 -123.5q0 -77 -43.5 -138.5t-121.5 -91.5l99 -163h-90l-85 141q-24 -2 -105 -2h-108l-26 -139h-80zM130 208h165q82 0 136 48.5t54 121.5q0 51 -34.5 83.5t-93.5 32.5h-172zM155 -235h-50q34 28 63.5 69.5t29.5 77.5q0 10 -2 24
l65 20q2 -16 2 -23q0 -47 -31.5 -93t-76.5 -75z" />
    <glyph glyph-name="Sacute.small" horiz-adv-x="536" 
d="M15 71l43 61q61 -70 173 -70q66 0 109 27.5t43 70.5q0 26 -19 45t-39 27.5t-59 20.5q-40 13 -66 24t-53.5 29t-41 44t-13.5 60q0 75 56 118t149 43q117 0 195 -59l-39 -63q-22 19 -65.5 34.5t-93.5 15.5q-49 0 -85 -22t-36 -60q0 -33 28 -54t81 -37q55 -16 92 -34
t63.5 -51t26.5 -78q0 -80 -65.5 -126.5t-172.5 -46.5q-74 0 -128.5 23.5t-82.5 57.5zM264 613l107 133h92l-129 -133h-70z" />
    <glyph glyph-name="Scircumflex.small" horiz-adv-x="536" 
d="M15 71l43 61q61 -70 173 -70q66 0 109 27.5t43 70.5q0 26 -19 45t-39 27.5t-59 20.5q-40 13 -66 24t-53.5 29t-41 44t-13.5 60q0 75 56 118t149 43q117 0 195 -59l-39 -63q-22 19 -65.5 34.5t-93.5 15.5q-49 0 -85 -22t-36 -60q0 -33 28 -54t81 -37q55 -16 92 -34
t63.5 -51t26.5 -78q0 -80 -65.5 -126.5t-172.5 -46.5q-74 0 -128.5 23.5t-82.5 57.5zM182 613l119 133h82l52 -133h-60l-42 87l-89 -87h-62z" />
    <glyph glyph-name="Scaron.small" horiz-adv-x="536" 
d="M15 71l43 61q61 -70 173 -70q66 0 109 27.5t43 70.5q0 26 -19 45t-39 27.5t-59 20.5q-40 13 -66 24t-53.5 29t-41 44t-13.5 60q0 75 56 118t149 43q117 0 195 -59l-39 -63q-22 19 -65.5 34.5t-93.5 15.5q-49 0 -85 -22t-36 -60q0 -33 28 -54t81 -37q55 -16 92 -34
t63.5 -51t26.5 -78q0 -80 -65.5 -126.5t-172.5 -46.5q-74 0 -128.5 23.5t-82.5 57.5zM272 613l-53 133h60l38 -87l84 87h69l-119 -133h-79z" />
    <glyph glyph-name="Scedilla.small" horiz-adv-x="536" 
d="M61 -185l29 35q37 -23 78 -23q28 0 55.5 15.5t27.5 42.5t-37 27q-17 0 -36 -8t-29 -19l-40 16l76 91q-115 12 -170 79l43 61q61 -70 173 -70q66 0 109 27.5t43 70.5q0 26 -19 45t-39 27.5t-59 20.5q-40 13 -66 24t-53.5 29t-41 44t-13.5 60q0 75 56 118t149 43
q117 0 195 -59l-39 -63q-22 19 -65.5 34.5t-93.5 15.5q-49 0 -85 -22t-36 -60q0 -33 28 -54t81 -37q55 -16 92 -34t63.5 -51t26.5 -78q0 -79 -63 -125t-167 -48l-41 -50q24 8 42 8q70 0 70 -58q0 -43 -43 -73t-100 -30q-65 0 -101 28z" />
    <glyph glyph-name="Scommaaccent.small" horiz-adv-x="536" 
d="M15 71l43 61q61 -70 173 -70q66 0 109 27.5t43 70.5q0 26 -19 45t-39 27.5t-59 20.5q-40 13 -66 24t-53.5 29t-41 44t-13.5 60q0 75 56 118t149 43q117 0 195 -59l-39 -63q-22 19 -65.5 34.5t-93.5 15.5q-49 0 -85 -22t-36 -60q0 -33 28 -54t81 -37q55 -16 92 -34
t63.5 -51t26.5 -78q0 -80 -65.5 -126.5t-172.5 -46.5q-74 0 -128.5 23.5t-82.5 57.5zM157 -235h-50q34 28 63.5 69.5t29.5 77.5q0 10 -2 24l65 20q2 -16 2 -23q0 -47 -31.5 -93t-76.5 -75z" />
    <glyph glyph-name="germandbls.small" horiz-adv-x="480" 
d="M10 0l75 390q35 182 187 182q64 0 104.5 -37t40.5 -92q0 -48 -21 -91t-60 -64q42 -8 68.5 -42t26.5 -76q0 -75 -51 -127.5t-129 -52.5q-65 0 -103 33l41 64q20 -23 64 -23q42 0 71 30t29 75q0 33 -26 54t-78 21h-28l11 59h8q44 0 71.5 36.5t27.5 84.5q0 33 -20 54t-53 21
q-83 0 -104 -108l-76 -391h-76z" />
    <glyph glyph-name="Tcaron.small" horiz-adv-x="527" 
d="M278 613l-53 133h60l38 -87l84 87h69l-119 -133h-79zM562 564l-13 -70h-205l-96 -494h-80l96 494h-206l13 70h491z" />
    <glyph glyph-name="Tcommaaccent.small" horiz-adv-x="527" 
d="M562 564l-13 -70h-205l-96 -494h-80l96 494h-206l13 70h491zM123 -235h-50q34 28 63.5 69.5t29.5 77.5q0 10 -2 24l65 20q2 -16 2 -23q0 -47 -31.5 -93t-76.5 -75z" />
    <glyph glyph-name="Tbar.small" horiz-adv-x="527" 
d="M564 564l-14 -70h-206l-27 -138h132l-11 -56h-132l-58 -300h-80l58 300h-132l11 56h132l27 138h-206l13 70h493z" />
    <glyph glyph-name="Ugrave.small" horiz-adv-x="582" 
d="M246 -10q-94 0 -150.5 44.5t-56.5 123.5q0 33 8 75l64 331h79l-62 -321q-9 -47 -9 -75q0 -50 34.5 -77.5t97.5 -27.5q81 0 125.5 44t61.5 130l64 327h79l-65 -334q-47 -240 -270 -240zM331 613l-71 133h86l50 -133h-65z" />
    <glyph glyph-name="Uacute.small" horiz-adv-x="582" 
d="M246 -10q-94 0 -150.5 44.5t-56.5 123.5q0 33 8 75l64 331h79l-62 -321q-9 -47 -9 -75q0 -50 34.5 -77.5t97.5 -27.5q81 0 125.5 44t61.5 130l64 327h79l-65 -334q-47 -240 -270 -240zM301 613l107 133h92l-129 -133h-70z" />
    <glyph glyph-name="Ucircumflex.small" horiz-adv-x="582" 
d="M246 -10q-94 0 -150.5 44.5t-56.5 123.5q0 33 8 75l64 331h79l-62 -321q-9 -47 -9 -75q0 -50 34.5 -77.5t97.5 -27.5q81 0 125.5 44t61.5 130l64 327h79l-65 -334q-47 -240 -270 -240zM227 613l119 133h82l52 -133h-60l-42 87l-89 -87h-62z" />
    <glyph glyph-name="Utilde.small" horiz-adv-x="582" 
d="M246 -10q-94 0 -150.5 44.5t-56.5 123.5q0 33 8 75l64 331h79l-62 -321q-9 -47 -9 -75q0 -50 34.5 -77.5t97.5 -27.5q81 0 125.5 44t61.5 130l64 327h79l-65 -334q-47 -240 -270 -240zM219 608q9 46 33 74t60 28q29 0 61.5 -23.5t42.5 -23.5q29 0 39 47h48
q-9 -46 -33 -74t-60 -28q-30 0 -61.5 23.5t-41.5 23.5q-31 0 -40 -47h-48z" />
    <glyph glyph-name="Udieresis.small" horiz-adv-x="582" 
d="M246 -10q-94 0 -150.5 44.5t-56.5 123.5q0 33 8 75l64 331h79l-62 -321q-9 -47 -9 -75q0 -50 34.5 -77.5t97.5 -27.5q81 0 125.5 44t61.5 130l64 327h79l-65 -334q-47 -240 -270 -240zM225 652q0 19 13 32t32 13q18 0 31 -13t13 -32q0 -18 -13 -31t-31 -13q-19 0 -32 13
t-13 31zM382 652q0 19 13.5 32t32.5 13q18 0 31 -13t13 -32q0 -18 -13 -31t-31 -13q-19 0 -32.5 13t-13.5 31z" />
    <glyph glyph-name="Umacron.small" horiz-adv-x="582" 
d="M246 -10q-94 0 -150.5 44.5t-56.5 123.5q0 33 8 75l64 331h79l-62 -321q-9 -47 -9 -75q0 -50 34.5 -77.5t97.5 -27.5q81 0 125.5 44t61.5 130l64 327h79l-65 -334q-47 -240 -270 -240zM250 623l13 59h200l-13 -59h-200z" />
    <glyph glyph-name="Ubreve.small" horiz-adv-x="582" 
d="M246 -10q-94 0 -150.5 44.5t-56.5 123.5q0 33 8 75l64 331h79l-62 -321q-9 -47 -9 -75q0 -50 34.5 -77.5t97.5 -27.5q81 0 125.5 44t61.5 130l64 327h79l-65 -334q-47 -240 -270 -240zM343 608q-41 0 -64 21t-23 54q0 17 4 32h46q0 -1 -0.5 -5t-0.5 -7q0 -19 11 -29.5
t31 -10.5q54 0 72 52h49q-26 -107 -125 -107z" />
    <glyph glyph-name="Uring.small" horiz-adv-x="582" 
d="M246 -10q-94 0 -150.5 44.5t-56.5 123.5q0 33 8 75l64 331h79l-62 -321q-9 -47 -9 -75q0 -50 34.5 -77.5t97.5 -27.5q81 0 125.5 44t61.5 130l64 327h79l-65 -334q-47 -240 -270 -240zM249 687q0 41 29 70t70 29t70 -29t29 -70t-29 -70.5t-70 -29.5t-70 29.5t-29 70.5z
M294 687q0 -24 15.5 -41t38.5 -17t38.5 17t15.5 41q0 23 -15.5 40t-38.5 17t-38.5 -17t-15.5 -40z" />
    <glyph glyph-name="Uhungarumlaut.small" horiz-adv-x="582" 
d="M246 -10q-94 0 -150.5 44.5t-56.5 123.5q0 33 8 75l64 331h79l-62 -321q-9 -47 -9 -75q0 -50 34.5 -77.5t97.5 -27.5q81 0 125.5 44t61.5 130l64 327h79l-65 -334q-47 -240 -270 -240zM229 613l100 126h87l-124 -126h-63zM357 613l100 126h87l-124 -126h-63z" />
    <glyph glyph-name="Uogonek.small" horiz-adv-x="582" 
d="M263 -10h-17q-94 0 -150.5 44.5t-56.5 123.5q0 33 8 75l64 331h79l-62 -321q-9 -47 -9 -75q0 -50 34.5 -77.5t97.5 -27.5q81 0 125.5 44t61.5 130l64 327h79l-65 -334q-39 -197 -194 -232q-32 -25 -55.5 -58t-23.5 -66q0 -18 12.5 -29t32.5 -11q18 0 42 11l8 -40
q-38 -25 -79 -25q-33 0 -55 18.5t-22 50.5q0 73 81 141z" />
    <glyph glyph-name="Wgrave.small" horiz-adv-x="814" 
d="M139 -2l-79 566h82l59 -452l218 452h88l41 -452l228 452h87l-296 -566h-83l-40 458l-222 -458h-83zM446 613l-71 133h86l50 -133h-65z" />
    <glyph glyph-name="Wacute.small" horiz-adv-x="814" 
d="M139 -2l-79 566h82l59 -452l218 452h88l41 -452l228 452h87l-296 -566h-83l-40 458l-222 -458h-83zM409 613l107 133h92l-129 -133h-70z" />
    <glyph glyph-name="Wcircumflex.small" horiz-adv-x="814" 
d="M139 -2l-79 566h82l59 -452l218 452h88l41 -452l228 452h87l-296 -566h-83l-40 458l-222 -458h-83zM340 613l119 133h82l52 -133h-60l-42 87l-89 -87h-62z" />
    <glyph glyph-name="Wdieresis.small" horiz-adv-x="814" 
d="M139 -2l-79 566h82l59 -452l218 452h88l41 -452l228 452h87l-296 -566h-83l-40 458l-222 -458h-83zM344 652q0 19 13 32t32 13q18 0 31 -13t13 -32q0 -18 -13 -31t-31 -13q-19 0 -32 13t-13 31zM501 652q0 19 13.5 32t32.5 13q18 0 31 -13t13 -32q0 -18 -13 -31t-31 -13
q-19 0 -32.5 13t-13.5 31z" />
    <glyph glyph-name="Ygrave.small" horiz-adv-x="546" 
d="M179 0l51 265l-167 299h86l129 -231l215 231h98l-281 -298l-51 -266h-80zM291 613l-71 133h86l50 -133h-65z" />
    <glyph glyph-name="Yacute.small" horiz-adv-x="546" 
d="M179 0l51 265l-167 299h86l129 -231l215 231h98l-281 -298l-51 -266h-80zM274 613l107 133h92l-129 -133h-70z" />
    <glyph glyph-name="Ycircumflex.small" horiz-adv-x="546" 
d="M179 0l51 265l-167 299h86l129 -231l215 231h98l-281 -298l-51 -266h-80zM196 613l119 133h82l52 -133h-60l-42 87l-89 -87h-62z" />
    <glyph glyph-name="Ydieresis.small" horiz-adv-x="546" 
d="M179 0l51 265l-167 299h86l129 -231l215 231h98l-281 -298l-51 -266h-80zM203 652q0 19 13 32t32 13q18 0 31 -13t13 -32q0 -18 -13 -31t-31 -13q-19 0 -32 13t-13 31zM360 652q0 19 13.5 32t32.5 13q18 0 31 -13t13 -32q0 -18 -13 -31t-31 -13q-19 0 -32.5 13t-13.5 31z
" />
    <glyph glyph-name="Zacute.small" horiz-adv-x="523" 
d="M-24 0l12 64l431 430h-333l14 70h439l-12 -64l-431 -430h355l-13 -70h-462zM261 613l107 133h92l-129 -133h-70z" />
    <glyph glyph-name="Zcaron.small" horiz-adv-x="523" 
d="M285 613l-53 133h60l38 -87l84 87h69l-119 -133h-79zM-24 0l12 64l431 430h-333l14 70h439l-12 -64l-431 -430h355l-13 -70h-462z" />
    <glyph glyph-name="Zdotaccent.small" horiz-adv-x="523" 
d="M-24 0l12 64l431 430h-333l14 70h439l-12 -64l-431 -430h355l-13 -70h-462zM265 658q0 21 15 36t36 15q20 0 35 -15t15 -36q0 -20 -15 -35t-35 -15q-21 0 -36 15t-15 35z" />
    <glyph glyph-name="Eng.small" horiz-adv-x="614" 
d="M10 0l109 564h79l240 -443l86 443h79l-108 -560q-14 -70 -64.5 -121t-126.5 -65l-9 62q94 29 116 123l-237 432l-85 -435h-79z" />
    <glyph glyph-name="Eth.small" horiz-adv-x="617" 
d="M10 0l50 259h-77l11 60h78l47 245h212q116 0 182 -63.5t66 -162.5q0 -145 -98.5 -241.5t-248.5 -96.5h-222zM103 70h132q111 0 185.5 73t74.5 184q0 75 -48.5 121t-132.5 46h-129l-34 -175h150l-11 -60h-150z" />
    <glyph glyph-name="Thorn.small" horiz-adv-x="518" 
d="M10 0l109 564h80l-17 -90h144q70 0 114.5 -43.5t44.5 -110.5q0 -92 -63.5 -159t-176.5 -67h-138l-17 -94h-80zM121 163h129q67 0 109 42.5t42 101.5q0 42 -27.5 70t-71.5 28h-134z" />
    <glyph glyph-name="cent.oldstyle" horiz-adv-x="551" 
d="M163 262q0 -59 39 -96t94 -37q71 0 125 49l40 -56q-64 -65 -166 -67l-17 -89h-63l19 97q-66 18 -108 70.5t-42 124.5q0 101 66 168t166 71l17 91h63l-19 -98q52 -9 95 -51l-51 -56q-45 40 -104 40q-65 0 -109.5 -45.5t-44.5 -115.5z" />
    <glyph glyph-name="sterling.oldstyle" horiz-adv-x="551" 
d="M15 0l12 63h67l37 189h-63l11 57h63l15 78q18 93 70.5 138.5t125.5 45.5q81 0 137 -49l-42 -57q-41 36 -90 36q-45 0 -78.5 -27t-44.5 -83l-16 -82h167l-11 -57h-167l-36 -183h264l-13 -69h-408z" />
    <glyph glyph-name="florin.oldstyle" horiz-adv-x="551" 
d="M7 -47l43 47q24 -27 58 -27q26 0 42.5 17t31.5 57l91 256h-62l20 56h63l26 77q24 70 52.5 102.5t84.5 32.5q43 0 80 -27l-24 -57q-22 16 -46 16q-42 0 -66 -65l-28 -79h103l-21 -56h-101l-92 -258q-26 -75 -60.5 -108.5t-90.5 -33.5q-63 0 -104 50z" />
    <glyph glyph-name="yen.oldstyle" horiz-adv-x="551" 
d="M182 0l20 104h-115l9 52h116l10 54h-115l10 52h116l2 15l-128 287h76l98 -225l185 225h85l-239 -287l-3 -15h116l-11 -52h-115l-11 -54h116l-10 -52h-115l-20 -104h-77z" />
    <glyph glyph-name="Euro.oldstyle" horiz-adv-x="551" 
d="M41 200l18 51h52q0 33 6 60h-53l19 52h45q29 97 91.5 152.5t150.5 55.5q102 0 161 -82l-47 -46q-42 59 -114 59q-58 0 -99.5 -37.5t-60.5 -101.5h212l-18 -52h-208q-6 -32 -7 -60h197l-18 -51h-173q10 -65 44 -102.5t88 -37.5q46 0 76 17.5t60 56.5l48 -43
q-75 -101 -190 -101q-88 0 -142 56.5t-66 153.5h-72z" />
    <glyph glyph-name="dollar.oldstyle" horiz-adv-x="551" 
d="M21 76l45 55q56 -68 166 -68q59 0 96.5 24t37.5 73q0 59 -103 93q-78 26 -122.5 61.5t-44.5 94.5q0 67 49.5 112.5t124.5 49.5l18 94h64l-18 -97q75 -10 134 -57l-33 -65q-57 53 -148 53q-49 0 -80 -26t-31 -62q0 -32 25.5 -51.5t72.5 -36.5q80 -28 125.5 -64.5
t45.5 -97.5q0 -57 -31 -96t-73 -55.5t-92 -19.5l-21 -105h-64l21 107q-107 13 -164 84z" />
    </font>
</defs>
</svg>
