<?xml version="1.0" standalone="no"?>
<!DOCTYPE svg PUBLIC "-//W3C//DTD SVG 1.1//EN" "http://www.w3.org/Graphics/SVG/1.1/DTD/svg11.dtd" >
<svg xmlns="http://www.w3.org/2000/svg" xmlns:xlink="http://www.w3.org/1999/xlink" version="1.1">
<metadata>
Created by FontForge 20170731 at Sun Apr  7 17:20:32 2013
 By Aleksey,,,
Copyright (c) 2013 Type-O-Tones. v1.0 by Jose M. Uros. Barcelona. All rights reserved.
</metadata>
<defs>
<font id="Arboria-Book" horiz-adv-x="568" >
  <font-face 
    font-family="Arboria-Book"
    font-weight="400"
    font-stretch="normal"
    units-per-em="1000"
    panose-1="2 0 5 6 2 0 0 2 0 4"
    ascent="800"
    descent="-200"
    x-height="487"
    cap-height="648"
    bbox="-27 -235 1162 985"
    underline-thickness="36"
    underline-position="-112"
    unicode-range="U+0020-FB02"
  />
<missing-glyph horiz-adv-x="280" 
 />
    <glyph glyph-name="fi" unicode="fi" horiz-adv-x="514" 
d="M70 0v422h-79v65h79v32q0 87 42 124t96 37q36 0 66.5 -10t43.5 -20l12 -11l-35 -52q-40 27 -78 27q-70 0 -70 -97v-30h154v-65h-155v-422h-76zM372 0v487h76v-487h-76zM361 618q0 21 14.5 36t35.5 15t35.5 -15t14.5 -36q0 -20 -14.5 -35t-35.5 -15t-35.5 15t-14.5 35z
" />
    <glyph glyph-name="fl" unicode="fl" horiz-adv-x="514" 
d="M70 0v422h-79v65h79v32q0 87 42 124t96 37q36 0 66.5 -10t43.5 -20l12 -11l-35 -52q-40 27 -78 27q-70 0 -70 -97v-30h154v-65h-155v-422h-76zM372 0v658h76v-658h-76z" />
    <glyph glyph-name=".notdef" horiz-adv-x="280" 
 />
    <glyph glyph-name=".null" horiz-adv-x="0" 
 />
    <glyph glyph-name="nonmarkingreturn" horiz-adv-x="333" 
 />
    <glyph glyph-name="space" unicode=" " horiz-adv-x="244" 
 />
    <glyph glyph-name="exclam" unicode="!" horiz-adv-x="226" 
d="M58 45q0 23 16 39t39 16t39 -16t16 -39t-16 -39t-39 -16t-39 16t-16 39zM79 170l-9 478h85l-9 -478h-67z" />
    <glyph glyph-name="quotedbl" unicode="&#x22;" horiz-adv-x="352" 
d="M76 420v228h66v-228h-66zM210 420v228h66v-228h-66z" />
    <glyph glyph-name="numbersign" unicode="#" 
d="M86 0l43 181h-79l14 58h78l46 187h-80l14 58h80l40 164h61l-40 -164h118l40 164h60l-40 -164h77l-14 -58h-76l-45 -187h77l-14 -58h-77l-44 -181h-60l44 181h-118l-44 -181h-61zM205 239h117l46 187h-118z" />
    <glyph glyph-name="dollar" unicode="$" 
d="M45 95l35 58q78 -85 201 -85q67 0 114 33t47 85q0 28 -13 48t-39 33t-48.5 19.5t-56.5 13.5q-35 7 -59.5 14.5t-54 21.5t-48 31t-31 44.5t-12.5 62.5q0 74 50 118.5t120 53.5v116h67v-116q89 -6 167 -75l-36 -58q-78 65 -163 65q-48 0 -87 -28t-39 -74q0 -44 35 -67.5
t96 -35.5q51 -10 88 -22.5t72 -33.5t53.5 -54t18.5 -77q0 -81 -58.5 -129.5t-146.5 -56.5v-129h-67v127q-127 9 -205 97z" />
    <glyph glyph-name="percent" unicode="%" horiz-adv-x="852" 
d="M111 460q0 -62 24.5 -101.5t65.5 -39.5q39 0 64 40t25 101t-25 101t-64 40q-41 0 -65.5 -39.5t-24.5 -101.5zM50 460q0 87 42.5 142.5t108.5 55.5q65 0 107.5 -55.5t42.5 -142.5t-42.5 -142.5t-107.5 -55.5q-66 0 -108.5 55.5t-42.5 142.5zM562 188q0 -61 24.5 -100.5
t64.5 -39.5t65 39.5t25 100.5t-25 101t-65 40t-64.5 -39.5t-24.5 -101.5zM501 188q0 87 42 142.5t108 55.5t108.5 -55.5t42.5 -142.5t-42.5 -142.5t-108.5 -55.5q-65 0 -107.5 55.5t-42.5 142.5zM208 10l398 663l44 -25l-398 -663z" />
    <glyph glyph-name="ampersand" unicode="&#x26;" horiz-adv-x="576" 
d="M32 183q0 53 31 101t92 78q-48 71 -48 134t46.5 112.5t130.5 49.5q120 0 171 -119l-66 -38q-15 41 -45 63.5t-60 22.5q-45 0 -70.5 -27.5t-25.5 -63.5q0 -71 113 -192l131 -140q31 41 31 101h75q0 -46 -15 -89.5t-35 -66.5l68 -72l-51 -49l-66 69q-80 -67 -187 -67
q-90 0 -155 49.5t-65 143.5zM112 187q0 -56 43 -90t103 -34q71 0 127 46l-186 197q-43 -19 -65 -51t-22 -68z" />
    <glyph glyph-name="quotesingle" unicode="'" horiz-adv-x="218" 
d="M76 420v228h66v-228h-66z" />
    <glyph glyph-name="parenleft" unicode="(" horiz-adv-x="302" 
d="M58 285q0 236 164 396l46 -50q-131 -144 -131 -346t131 -346l-46 -50q-164 160 -164 396z" />
    <glyph glyph-name="parenright" unicode=")" horiz-adv-x="302" 
d="M34 -61q131 142 131 346t-131 346l46 50q164 -160 164 -396t-164 -396z" />
    <glyph glyph-name="asterisk" unicode="*" horiz-adv-x="414" 
d="M178 300l5 136l-116 -72l-28 49l122 64l-122 64l28 49l116 -73l-5 137h58l-5 -137l116 73l28 -49l-122 -64l122 -64l-28 -49l-116 73l5 -137h-58z" />
    <glyph glyph-name="plus" unicode="+" 
d="M248 46v186h-187v65h187v188h70v-188h189v-65h-189v-186h-70z" />
    <glyph glyph-name="comma" unicode="," horiz-adv-x="211" 
d="M37 -137l49 229h80l-70 -229h-59z" />
    <glyph glyph-name="hyphen" unicode="-" horiz-adv-x="439" 
d="M30 205v66h379v-66h-379z" />
    <glyph glyph-name="period" unicode="." horiz-adv-x="211" 
d="M50 45q0 23 16 39t39 16t39 -16t16 -39t-16 -39t-39 -16t-39 16t-16 39z" />
    <glyph glyph-name="slash" unicode="/" horiz-adv-x="495" 
d="M15 -19l428 712h75l-428 -712h-75z" />
    <glyph glyph-name="zero" unicode="0" 
d="M122 324q0 -116 44.5 -189.5t117.5 -73.5t117.5 73.5t44.5 189.5t-44.5 189.5t-117.5 73.5t-117.5 -73.5t-44.5 -189.5zM40 324q0 146 68.5 240t175.5 94t175.5 -94t68.5 -240t-68.5 -240t-175.5 -94t-175.5 94t-68.5 240z" />
    <glyph glyph-name="one" unicode="1" 
d="M114 0v71h155v472l-135 -98l-38 56l182 147h69v-577h148v-71h-381z" />
    <glyph glyph-name="two" unicode="2" 
d="M60 0v55q181 149 264.5 244t83.5 164q0 53 -37.5 88t-96.5 35q-81 0 -165 -83l-44 52q89 103 213 103q96 0 154 -55t58 -134q0 -65 -50.5 -142.5t-115.5 -138t-144 -117.5h330v-71h-450z" />
    <glyph glyph-name="three" unicode="3" 
d="M53 68l43 57q55 -65 162 -65q76 0 122.5 41.5t46.5 106.5q0 57 -44.5 94.5t-112.5 37.5q-52 0 -94 -26l-31 52l224 211h-295v71h405v-69l-185 -176q95 -3 155.5 -56t60.5 -140q0 -100 -69.5 -158.5t-178.5 -58.5q-139 0 -209 78z" />
    <glyph glyph-name="four" unicode="4" 
d="M357 0v138h-307v59l269 455l66 -38l-242 -406h214v159h78v-159h84v-70h-84v-138h-78z" />
    <glyph glyph-name="five" unicode="5" 
d="M69 57l32 63q77 -60 166 -60q73 0 116 42.5t43 99.5q0 63 -47.5 102.5t-117.5 39.5q-73 0 -138 -45l-38 30v319h391v-71h-314v-192q60 26 116 26q99 0 165 -57t66 -150q0 -91 -65.5 -152.5t-175.5 -61.5q-120 0 -199 67z" />
    <glyph glyph-name="six" unicode="6" 
d="M49 217q0 88 61 163l228 278l61 -46l-149 -177q16 7 42 7q95 0 160.5 -64t65.5 -158q0 -97 -66 -163.5t-169 -66.5q-104 0 -169 65.5t-65 161.5zM131 219q0 -67 43 -113t109 -46t109.5 46t43.5 113q0 64 -44 110t-109 46t-108.5 -45.5t-43.5 -110.5z" />
    <glyph glyph-name="seven" unicode="7" 
d="M145 0l302 577h-373v71h459v-58l-303 -590h-85z" />
    <glyph glyph-name="eight" unicode="8" 
d="M46 194q0 60 33 105.5t89 68.5q-69 45 -69 129q0 70 51.5 115.5t133.5 45.5t133.5 -45.5t51.5 -115.5q0 -83 -70 -129q57 -24 90 -69.5t33 -104.5q0 -90 -66.5 -147t-171.5 -57q-106 0 -172 57t-66 147zM129 196q0 -57 43 -96.5t112 -39.5t112 38.5t43 97.5
q0 58 -43.5 97.5t-111.5 39.5q-69 0 -112 -39.5t-43 -97.5zM174 493q0 -41 31 -69.5t79 -28.5t79 28.5t31 69.5q0 42 -30.5 70t-79.5 28t-79.5 -28t-30.5 -70z" />
    <glyph glyph-name="nine" unicode="9" 
d="M168 36l149 177q-9 -7 -42 -7q-95 0 -160.5 64t-65.5 158q0 97 66 163.5t169 66.5q104 0 169 -65.5t65 -161.5q0 -88 -61 -163l-228 -278zM131 430q0 -65 44 -111t109 -46t108.5 46t43.5 111q0 66 -43 112t-109 46t-109.5 -46t-43.5 -112z" />
    <glyph glyph-name="colon" unicode=":" horiz-adv-x="211" 
d="M50 409q0 23 16 39.5t39 16.5t39 -16.5t16 -39.5t-16 -39t-39 -16t-39 16t-16 39zM50 45q0 23 16 39t39 16t39 -16t16 -39t-16 -39t-39 -16t-39 16t-16 39z" />
    <glyph glyph-name="semicolon" unicode=";" horiz-adv-x="220" 
d="M57 409q0 23 16 39.5t39 16.5t39.5 -16.5t16.5 -39.5t-16.5 -39t-39.5 -16q-22 0 -38.5 16t-16.5 39zM37 -137l49 229h80l-70 -229h-59z" />
    <glyph glyph-name="less" unicode="&#x3c;" horiz-adv-x="544" 
d="M70 239v52l428 186v-74l-329 -138l329 -139v-73z" />
    <glyph glyph-name="equal" unicode="=" 
d="M61 167v65h446v-65h-446zM61 317v65h446v-65h-446z" />
    <glyph glyph-name="greater" unicode="&#x3e;" 
d="M70 53v73l329 139l-329 138v74l428 -186v-52z" />
    <glyph glyph-name="question" unicode="?" horiz-adv-x="477" 
d="M177 169l-8 138q88 0 132 44t44 104q0 52 -38 90t-94 38q-44 0 -78 -23.5t-51 -63.5l-65 32q23 61 75.5 95.5t123.5 34.5q91 0 149 -59.5t58 -144.5q0 -77 -48.5 -132.5t-122.5 -65.5l-9 -87h-68zM157 45q0 23 16 39t39 16q22 0 38.5 -16t16.5 -39t-16 -39t-39 -16
t-39 16t-16 39z" />
    <glyph glyph-name="at" unicode="@" horiz-adv-x="920" 
d="M70 244q0 163 116 278.5t280 115.5q159 0 271.5 -103.5t112.5 -255.5q0 -99 -44 -160.5t-111 -61.5q-80 0 -103 70q-48 -80 -153 -80q-71 0 -125 58t-54 138t53.5 138t125.5 58q91 0 143 -69v59h61v-231q0 -34 13 -59t43 -25q39 0 65.5 45.5t26.5 119.5
q0 130 -92.5 217.5t-232.5 87.5q-138 0 -236 -99.5t-98 -240.5q0 -142 97.5 -236.5t235.5 -94.5q90 0 160 35l24 -48q-77 -40 -185 -40q-166 0 -280 109t-114 275zM323 243q0 -57 38.5 -98t93.5 -41t91 39.5t36 99.5q0 62 -35.5 100t-91.5 38t-94 -40.5t-38 -97.5z" />
    <glyph glyph-name="A" unicode="A" horiz-adv-x="697" 
d="M8 0l306 648h69l306 -648h-83l-60 126h-396l-60 -126h-82zM180 192h336l-109 228l-59 136q-29 -77 -58 -137z" />
    <glyph glyph-name="B" unicode="B" horiz-adv-x="667" 
d="M76 0v648h301q80 0 130.5 -42t50.5 -115q0 -39 -22 -73t-51 -45q58 -10 97.5 -59t39.5 -116q0 -90 -67 -144t-178 -54h-301zM156 71h216q76 0 121 34.5t45 91.5q0 59 -38.5 94.5t-109.5 35.5h-234v-256zM156 398h225q43 0 68 24.5t25 63.5q0 40 -27 65.5t-76 25.5h-215
v-179z" />
    <glyph glyph-name="C" unicode="C" horiz-adv-x="642" 
d="M46 324q0 139 97.5 236.5t239.5 97.5q130 0 225 -84l-49 -55q-74 66 -171 66q-110 0 -184 -76t-74 -185q0 -108 73.5 -184.5t180.5 -76.5q112 0 189 80l51 -55q-98 -98 -240 -98q-143 0 -240.5 97.5t-97.5 236.5z" />
    <glyph glyph-name="D" unicode="D" horiz-adv-x="707" 
d="M156 71h161q116 0 188 71.5t72 181.5t-72 181.5t-188 71.5h-161v-506zM76 0v648h246q152 0 245.5 -94t93.5 -230t-93.5 -230t-245.5 -94h-246z" />
    <glyph glyph-name="E" unicode="E" horiz-adv-x="617" 
d="M76 0v648h491v-71h-411v-196h384v-70h-384v-240h425v-71h-505z" />
    <glyph glyph-name="F" unicode="F" horiz-adv-x="557" 
d="M76 0v648h465v-71h-385v-196h322v-70h-322v-311h-80z" />
    <glyph glyph-name="G" unicode="G" horiz-adv-x="730" 
d="M46 324q0 139 98 236.5t240 97.5q128 0 226 -85l-50 -56q-73 68 -176 68q-107 0 -180.5 -76t-73.5 -185t73.5 -185t180.5 -76q61 0 114 27.5t88 75.5v134h-142v69h220v-233q-45 -68 -119 -107t-161 -39q-143 0 -240.5 97.5t-97.5 236.5z" />
    <glyph glyph-name="H" unicode="H" horiz-adv-x="687" 
d="M76 0v648h80v-267h375v267h80v-648h-80v310h-375v-310h-80z" />
    <glyph glyph-name="I" unicode="I" horiz-adv-x="232" 
d="M76 0v648h80v-648h-80z" />
    <glyph glyph-name="J" unicode="J" horiz-adv-x="543" 
d="M26 111l58 44q50 -92 145 -92q76 0 122 49t46 152v384h80v-389q0 -136 -69 -202.5t-178 -66.5q-66 0 -120.5 31t-83.5 90z" />
    <glyph glyph-name="K" unicode="K" horiz-adv-x="644" 
d="M76 0v648h80v-415q36 48 62 78l298 337h97l-258 -299l279 -349h-96l-235 293l-147 -165v-128h-80z" />
    <glyph glyph-name="L" unicode="L" horiz-adv-x="601" 
d="M76 0v648h80v-577h409v-71h-489z" />
    <glyph glyph-name="M" unicode="M" horiz-adv-x="820" 
d="M76 0v648h71l77 -110l186 -258l185 258l77 110h72v-648h-80v511q-27 -43 -64 -95l-190 -267l-192 268l-62 94v-511h-80z" />
    <glyph glyph-name="N" unicode="N" horiz-adv-x="704" 
d="M76 0v648h78l310 -402q19 -24 40 -55t32 -49l12 -19v525h80v-648h-80l-300 389q-22 28 -45 61t-35 52l-12 19v-521h-80z" />
    <glyph glyph-name="O" unicode="O" horiz-adv-x="768" 
d="M384 63q107 0 180.5 76.5t73.5 184.5q0 109 -73.5 185t-180.5 76t-180.5 -76t-73.5 -185q0 -108 73.5 -184.5t180.5 -76.5zM384 658q142 0 240 -97.5t98 -236.5t-97.5 -236.5t-240.5 -97.5t-240.5 97.5t-97.5 236.5t98 236.5t240 97.5z" />
    <glyph glyph-name="P" unicode="P" horiz-adv-x="665" 
d="M76 0v648h266q129 0 203 -69t74 -174t-74 -174t-204 -69h-185v-162h-80zM156 233h193q83 0 134.5 49.5t51.5 122.5t-51.5 122.5t-133.5 49.5h-194v-344z" />
    <glyph glyph-name="Q" unicode="Q" horiz-adv-x="767" 
d="M384 658q142 0 240 -97.5t98 -236.5q0 -121 -77 -214l63 -62l-52 -52l-63 63q-91 -69 -209 -69q-143 0 -240.5 97.5t-97.5 236.5t98 236.5t240 97.5zM384 63q87 0 153 52l-87 88l51 51l87 -87q50 71 50 157q0 109 -73.5 185t-180.5 76t-180.5 -76t-73.5 -185
q0 -108 73.5 -184.5t180.5 -76.5z" />
    <glyph glyph-name="R" unicode="R" horiz-adv-x="665" 
d="M76 0v648h265q132 0 205 -69t73 -174q0 -72 -39 -131t-109 -86l153 -188h-101l-131 165q-25 -3 -118 -3h-118v-162h-80zM156 233h193q83 0 134.5 49.5t51.5 122.5t-51.5 122.5t-133.5 49.5h-194v-344z" />
    <glyph glyph-name="S" unicode="S" horiz-adv-x="599" 
d="M46 89l36 61q85 -87 216 -87q66 0 118.5 30.5t52.5 87.5q0 21 -10 38.5t-23 28.5t-37.5 21.5t-42.5 16t-48 12.5q-44 11 -69.5 18.5t-61.5 22.5t-55.5 32.5t-34 46t-14.5 64.5q0 81 67.5 128.5t158.5 47.5q123 0 220 -73l-37 -62q-81 62 -183 62q-51 0 -96.5 -26
t-45.5 -76q0 -20 9.5 -36t22 -26.5t36.5 -20t42.5 -14.5t51.5 -13q41 -10 70 -19t62.5 -25t53.5 -35t34 -48t14 -65q0 -92 -76 -141.5t-179 -49.5q-155 0 -252 99z" />
    <glyph glyph-name="T" unicode="T" horiz-adv-x="600" 
d="M260 0v577h-240v71h560v-71h-240v-577h-80z" />
    <glyph glyph-name="U" unicode="U" horiz-adv-x="668" 
d="M334 -10q-113 0 -190.5 72.5t-77.5 187.5v398h80v-398q0 -82 54.5 -134.5t133.5 -52.5t133.5 52.5t54.5 134.5v398h80v-398q0 -115 -78 -187.5t-190 -72.5z" />
    <glyph glyph-name="V" unicode="V" horiz-adv-x="668" 
d="M300 -3l-290 651h83l193 -431l48 -121q29 81 47 121l194 431h83l-289 -651h-69z" />
    <glyph glyph-name="W" unicode="W" horiz-adv-x="933" 
d="M227 -3l-217 651h81l150 -451l26 -88q11 49 23 88l135 451h83l135 -451l23 -88q13 49 26 88l151 451h80l-217 -651h-79l-137 446q-7 21 -12.5 46.5t-7.5 40.5l-3 15q-9 -54 -24 -102l-137 -446h-79z" />
    <glyph glyph-name="X" unicode="X" horiz-adv-x="610" 
d="M10 0l249 324l-247 324h94l141 -179q12 -15 26.5 -36t22.5 -35l9 -14q35 54 60 86l140 178h93l-247 -324l249 -324h-94l-141 181l-60 84q-36 -54 -60 -85l-141 -180h-94z" />
    <glyph glyph-name="Y" unicode="Y" horiz-adv-x="623" 
d="M272 0v307l-262 341h94l131 -166q16 -20 35.5 -47t30.5 -44l11 -17q44 64 78 108l129 166h94l-261 -340v-308h-80z" />
    <glyph glyph-name="Z" unicode="Z" horiz-adv-x="602" 
d="M36 0v66l373 455q13 16 26 30t19 20l7 6h-407v71h502v-66l-368 -449l-54 -62h432v-71h-530z" />
    <glyph glyph-name="bracketleft" unicode="[" horiz-adv-x="280" 
d="M58 -99v793h191v-58h-113v-677h113v-58h-191z" />
    <glyph glyph-name="backslash" unicode="\" horiz-adv-x="569" 
d="M491 -19l-497 712h77l497 -712h-77z" />
    <glyph glyph-name="bracketright" unicode="]" horiz-adv-x="280" 
d="M31 -99v58h114v677h-114v58h191v-793h-191z" />
    <glyph glyph-name="asciicircum" unicode="^" horiz-adv-x="550" 
d="M60 323l192 325h46l192 -325h-74l-141 230l-141 -230h-74z" />
    <glyph glyph-name="underscore" unicode="_" horiz-adv-x="480" 
d="M-3 -117v50h486v-50h-486z" />
    <glyph glyph-name="grave" unicode="`" horiz-adv-x="340" 
d="M186 565l-94 133h85l81 -133h-72z" />
    <glyph glyph-name="a" unicode="a" horiz-adv-x="596" 
d="M41 243q0 106 67.5 180t167.5 74q117 0 178 -94v84h76v-487h-76v83q-60 -93 -178 -93q-100 0 -167.5 74t-67.5 179zM119 243q0 -76 48.5 -127.5t120.5 -51.5q70 0 118 51t48 128q0 76 -47.5 128t-118.5 52q-72 0 -120.5 -52t-48.5 -128z" />
    <glyph glyph-name="b" unicode="b" horiz-adv-x="593" 
d="M66 0v658h76v-255q28 44 74 69t102 25q100 0 167 -74t67 -180q0 -105 -67 -179t-167 -74q-56 0 -102 24.5t-74 68.5v-83h-76zM142 243q0 -76 47.5 -127.5t118.5 -51.5t118.5 51.5t47.5 127.5t-47.5 128t-118.5 52t-118.5 -52t-47.5 -128z" />
    <glyph glyph-name="c" unicode="c" horiz-adv-x="507" 
d="M41 243q0 105 75 179.5t181 74.5q100 0 175 -67l-49 -54q-50 47 -125 47t-127 -52t-52 -128q0 -75 52 -127t129 -52q85 0 138 56l45 -56q-76 -74 -186 -74q-106 0 -181 74t-75 179z" />
    <glyph glyph-name="d" unicode="d" horiz-adv-x="593" 
d="M41 243q0 106 67.5 180t167.5 74q55 0 101 -25t74 -69v255h76v-658h-76v83q-28 -44 -73.5 -68.5t-101.5 -24.5q-100 0 -167.5 74t-67.5 179zM119 243q0 -76 48 -127.5t119 -51.5q70 0 117.5 50.5t47.5 128.5q0 76 -47.5 128t-117.5 52q-71 0 -119 -52t-48 -128z" />
    <glyph glyph-name="e" unicode="e" horiz-adv-x="560" 
d="M120 275h322q-7 67 -52.5 110.5t-107.5 43.5q-61 0 -107 -44t-55 -110zM41 243q0 105 71 179.5t173 74.5q96 0 165 -74t69 -176l-2 -32h-396q9 -70 59 -113t118 -43q88 0 150 56l36 -55q-83 -70 -186 -70q-107 0 -182 71t-75 182z" />
    <glyph glyph-name="f" unicode="f" horiz-adv-x="306" 
d="M70 0v422h-79v65h79v32q0 87 42 124t96 37q36 0 66.5 -10t43.5 -20l12 -11l-35 -52q-40 27 -78 27q-70 0 -70 -97v-30h154v-65h-155v-422h-76z" />
    <glyph glyph-name="g" unicode="g" horiz-adv-x="593" 
d="M41 262q0 101 67 168t168 67q117 0 175 -94v84h76v-378q0 -61 -19.5 -109t-47.5 -74.5t-64 -44t-64 -23t-52 -5.5q-116 0 -193 75l38 50q61 -61 153 -61q11 0 27 2.5t43.5 13.5t49 28.5t37.5 53t16 81.5v21q-28 -45 -73.5 -69t-101.5 -24q-101 0 -168 68t-67 170z
M119 257q0 -70 46.5 -114.5t117.5 -44.5t117 44.5t46 114.5q0 73 -46 119.5t-117 46.5t-117.5 -46.5t-46.5 -119.5z" />
    <glyph glyph-name="h" unicode="h" horiz-adv-x="543" 
d="M66 0v658h76v-249q54 88 166 88q88 0 133.5 -53t45.5 -147v-297h-76v285q0 68 -29 103t-96 35q-65 0 -104.5 -43.5t-39.5 -104.5v-275h-76z" />
    <glyph glyph-name="i" unicode="i" horiz-adv-x="208" 
d="M66 0v487h76v-487h-76zM55 618q0 21 14.5 36t35.5 15t35.5 -15t14.5 -36q0 -20 -14.5 -35t-35.5 -15t-35.5 15t-14.5 35z" />
    <glyph glyph-name="j" unicode="j" horiz-adv-x="208" 
d="M10 -168l-26 60q82 49 82 184v411h76v-403q0 -186 -132 -252zM55 618q0 21 14.5 36t35.5 15t35.5 -15t14.5 -36q0 -20 -14.5 -35t-35.5 -15t-35.5 15t-14.5 35z" />
    <glyph glyph-name="k" unicode="k" horiz-adv-x="515" 
d="M66 0v658h76v-439l236 268h98l-194 -216l228 -271h-98l-178 218l-92 -105v-113h-76z" />
    <glyph glyph-name="l" unicode="l" horiz-adv-x="208" 
d="M66 0v658h76v-658h-76z" />
    <glyph glyph-name="m" unicode="m" horiz-adv-x="856" 
d="M66 0v487h76v-78q24 42 65 65t89 23q118 0 157 -97q25 46 71.5 71.5t96.5 25.5q89 0 134 -51.5t45 -147.5v-298h-76v285q0 66 -26.5 102t-92.5 36q-58 0 -96 -38.5t-38 -100.5v-284h-76v285q0 66 -26.5 102t-92.5 36q-57 0 -95.5 -42t-38.5 -104v-277h-76z" />
    <glyph glyph-name="n" unicode="n" horiz-adv-x="543" 
d="M66 0v487h76v-78q55 88 166 88q89 0 134 -52.5t45 -147.5v-297h-76v285q0 68 -28.5 103t-94.5 35q-60 0 -103 -42.5t-43 -107.5v-273h-76z" />
    <glyph glyph-name="o" unicode="o" horiz-adv-x="594" 
d="M41 243q0 105 75 179.5t181 74.5t181 -74.5t75 -179.5q0 -104 -75 -178.5t-181 -74.5t-181 74.5t-75 178.5zM119 243q0 -74 52 -126.5t126 -52.5t126 52.5t52 126.5t-52 127t-126 53t-126 -53t-52 -127z" />
    <glyph glyph-name="p" unicode="p" horiz-adv-x="593" 
d="M66 -137v624h76v-84q28 44 74 69t102 25q100 0 167 -74t67 -180q0 -105 -67 -179t-167 -74q-54 0 -100.5 25.5t-75.5 67.5v-220h-76zM142 243q0 -76 47.5 -127.5t118.5 -51.5t118.5 51.5t47.5 127.5t-47.5 128t-118.5 52t-118.5 -52t-47.5 -128z" />
    <glyph glyph-name="q" unicode="q" horiz-adv-x="593" 
d="M41 243q0 106 67.5 180t167.5 74q55 0 101 -25t74 -69v84h76v-624h-76v220q-28 -44 -73.5 -68.5t-101.5 -24.5q-100 0 -167.5 74t-67.5 179zM119 243q0 -76 48 -127.5t119 -51.5q70 0 117.5 51.5t47.5 127.5q0 77 -47.5 128.5t-117.5 51.5q-71 0 -119 -52t-48 -128z" />
    <glyph glyph-name="r" unicode="r" horiz-adv-x="350" 
d="M66 0v487h76v-103q22 50 70 81.5t118 31.5v-84q-82 0 -135 -47.5t-53 -150.5v-215h-76z" />
    <glyph glyph-name="s" unicode="s" horiz-adv-x="472" 
d="M41 66l37 61q61 -63 153 -63q52 0 87 20.5t35 53.5q0 17 -9.5 30t-29 22t-36 14t-44.5 12q-41 10 -65.5 18.5t-52.5 24.5t-41 40.5t-13 58.5q0 62 54 100.5t121 38.5q89 0 168 -54l-37 -59q-57 39 -130 39q-39 0 -68.5 -18.5t-29.5 -45.5q0 -16 8 -28t27.5 -20.5t33 -12
t42.5 -10.5q40 -9 66.5 -18.5t55.5 -26t43.5 -42.5t14.5 -61q0 -73 -60 -111.5t-139 -38.5q-119 0 -191 76z" />
    <glyph glyph-name="t" unicode="t" horiz-adv-x="359" 
d="M86 146v276h-73v65h73v108l76 12v-120h167v-65h-167v-262q0 -102 69 -102q20 0 40 7t30 13l10 7l25 -59q-53 -36 -112 -36q-64 0 -101 38.5t-37 117.5z" />
    <glyph glyph-name="u" unicode="u" horiz-adv-x="537" 
d="M56 186v301h76v-285q0 -138 125 -138q60 0 99 41t39 111v271h76v-487h-76v75q-52 -85 -157 -85q-89 0 -135.5 54.5t-46.5 141.5z" />
    <glyph glyph-name="v" unicode="v" horiz-adv-x="510" 
d="M220 -3l-215 490h79l136 -310l35 -97q16 54 35 96l136 311h79l-215 -490h-70z" />
    <glyph glyph-name="w" unicode="w" horiz-adv-x="712" 
d="M172 -3l-167 490h75l110 -323l17 -71q6 39 15 71l96 323h76l97 -323l15 -71q6 39 17 71l109 323h75l-166 -490h-69l-100 325l-16 71q-6 -41 -15 -71l-100 -325h-69z" />
    <glyph glyph-name="x" unicode="x" horiz-adv-x="472" 
d="M7 0l182 246l-182 241h87l97 -129l45 -63l46 64l96 128h87l-182 -242l182 -245h-87l-95 126l-47 69q-29 -44 -47 -69l-95 -126h-87z" />
    <glyph glyph-name="y" unicode="y" horiz-adv-x="523" 
d="M106 -147v72q43 0 68.5 17.5t48.5 67.5l10 22l-222 455h81l144 -305l33 -76l33 79l131 302h79l-228 -511q-18 -41 -40 -67.5t-47.5 -37.5t-44.5 -14.5t-46 -3.5z" />
    <glyph glyph-name="z" unicode="z" horiz-adv-x="453" 
d="M26 0v60l235 287q12 16 28 33.5t26 27.5l10 10h-289v69h382v-60l-234 -283l-66 -75h309v-69h-401z" />
    <glyph glyph-name="braceleft" unicode="{" horiz-adv-x="386" 
d="M53 264v62h15q68 0 68 59v85q0 229 177 229h42v-64q-79 0 -110.5 -37.5t-31.5 -126.5v-79q0 -87 -69 -98q69 -18 69 -97v-78q0 -89 31.5 -126.5t110.5 -37.5v-64h-42q-177 0 -177 228v86q0 59 -68 59h-15z" />
    <glyph glyph-name="bar" unicode="|" horiz-adv-x="215" 
d="M75 -189v927h63v-927h-63z" />
    <glyph glyph-name="braceright" unicode="}" horiz-adv-x="386" 
d="M31 -109v64q79 0 110 37.5t31 126.5v78q0 79 70 97q-39 6 -54.5 35t-15.5 63v79q0 89 -31 126.5t-110 37.5v64h42q177 0 177 -229v-85q0 -59 68 -59h15v-62h-15q-68 0 -68 -59v-86q0 -228 -177 -228h-42z" />
    <glyph glyph-name="asciitilde" unicode="~" horiz-adv-x="555" 
d="M75 211q0 50 26.5 85.5t83.5 35.5q36 0 92 -29t82 -29q20 0 32 14.5t12 33.5h76q0 -50 -26.5 -85.5t-83.5 -35.5q-41 0 -97 29t-77 29q-20 0 -32 -14.5t-12 -33.5h-76z" />
    <glyph glyph-name="nbspace" unicode="&#xa0;" horiz-adv-x="648" 
 />
    <glyph glyph-name="exclamdown" unicode="&#xa1;" horiz-adv-x="226" 
d="M58 441q0 23 16 39.5t39 16.5t39 -16.5t16 -39.5t-16 -39t-39 -16t-39 16t-16 39zM71 -170l9 478h67l9 -478h-85z" />
    <glyph glyph-name="cent" unicode="&#xa2;" 
d="M470 197l44 -57q-65 -62 -156 -71v-112h-61v112q-92 12 -158 82t-66 169q0 100 66 171t158 81v110h61v-111q81 -6 145 -64l-48 -54q-52 47 -125 47q-75 0 -127 -52t-52 -128q0 -75 51.5 -127t129.5 -52q39 0 76.5 15.5t61.5 40.5z" />
    <glyph glyph-name="sterling" unicode="&#xa3;" 
d="M48 0v63h79v230h-74v59h74v109q0 93 59.5 145t148.5 52q95 0 158 -62l-45 -54q-53 46 -112 46q-55 0 -93 -35t-38 -89v-112h199v-59h-199v-223h315v-70h-472z" />
    <glyph glyph-name="currency" unicode="&#xa4;" 
d="M100 65l-39 40l75 75q-36 47 -36 108t36 108l-75 77l39 39l76 -78q48 35 108 35q59 0 107 -35l77 78l39 -39l-76 -77q37 -48 37 -108t-37 -108l76 -76l-39 -39l-77 77q-48 -35 -107 -35q-60 0 -108 35zM172 288q0 -48 32.5 -81.5t79.5 -33.5t79.5 33.5t32.5 81.5
t-32.5 81.5t-79.5 33.5t-79.5 -33.5t-32.5 -81.5z" />
    <glyph glyph-name="yen" unicode="&#xa5;" 
d="M245 0v124h-138v54h138v67h-137v54h137v19l-214 330h90l125 -196l38 -70q20 44 37 70l125 196h91l-214 -330v-19h137v-54h-137v-67h137v-54h-137v-124h-78z" />
    <glyph glyph-name="brokenbar" unicode="&#xa6;" horiz-adv-x="207" 
d="M72 384v420h63v-420h-63zM72 -190v481h63v-481h-63z" />
    <glyph glyph-name="section" unicode="&#xa7;" horiz-adv-x="519" 
d="M398 285q0 54 -63 79l-134 51q-19 7 -27 7q-22 0 -37 -20t-15 -44q0 -59 80 -89l85 -32q47 -17 57 -17q22 0 38 19.5t16 45.5zM64 44l36 59q64 -55 156 -55q39 0 72.5 13t33.5 45q0 21 -18 32.5t-69 29.5l-105 38q-124 44 -124 148q0 36 19.5 66t47.5 42q-34 25 -34 72
q0 60 51.5 92t121.5 32q107 0 189 -50l-32 -59q-75 40 -156 40q-38 0 -67 -12.5t-29 -42.5q0 -16 11.5 -27.5t25.5 -17.5t50 -19l103 -37q67 -23 96.5 -60t29.5 -90q0 -35 -21.5 -65t-52.5 -40q18 -9 30 -29t12 -44q0 -64 -56 -94.5t-131 -30.5q-58 0 -109.5 19t-80.5 45z
" />
    <glyph glyph-name="dieresis" unicode="&#xa8;" horiz-adv-x="340" 
d="M47 615q0 19 13 32t32 13q18 0 31 -13t13 -32q0 -18 -13 -31t-31 -13q-19 0 -32 13t-13 31zM204 615q0 19 13.5 32t32.5 13q18 0 31 -13t13 -32q0 -18 -13 -31t-31 -13q-19 0 -32.5 13t-13.5 31z" />
    <glyph glyph-name="copyright" unicode="&#xa9;" horiz-adv-x="748" 
d="M40 324q0 138 98 236t236 98t236 -98t98 -236t-98 -236t-236 -98t-236 98t-98 236zM181 322q0 84 59 143.5t142 59.5q80 0 141 -58l-31 -31q-49 44 -110 44q-63 0 -107.5 -46t-44.5 -112t45 -111.5t108 -45.5q68 0 122 59l31 -32q-64 -71 -154 -71q-83 0 -142 59t-59 142
zM80 324q0 -122 86.5 -209.5t207.5 -87.5q122 0 208 87t86 210t-86 210t-208 87q-121 0 -207.5 -87.5t-86.5 -209.5z" />
    <glyph glyph-name="ordfeminine" unicode="&#xaa;" horiz-adv-x="368" 
d="M92 428q0 -23 18.5 -35t45.5 -12q54 0 79 24.5t25 45.5v30q-28 5 -60 5q-45 0 -76.5 -14t-31.5 -44zM29 425q0 58 50 84.5t121 26.5q29 0 56 -5q-8 70 -80 70q-25 0 -48 -7t-34 -14l-11 -7l-26 47q5 4 14.5 10.5t42 17t67.5 10.5q141 0 141 -159v-168h-62v35
q-46 -42 -115 -42q-49 0 -82.5 27t-33.5 74z" />
    <glyph glyph-name="guillemotleft" unicode="&#xab;" horiz-adv-x="451" 
d="M33 223v39l170 167l39 -38l-140 -148l139 -149l-38 -38zM207 223v39l171 167l38 -38l-139 -148l139 -149l-38 -38z" />
    <glyph glyph-name="logicalnot" unicode="&#xac;" 
d="M436 109v160h-375v65h446l-1 -225h-70z" />
    <glyph glyph-name="registered" unicode="&#xae;" horiz-adv-x="748" 
d="M40 324q0 138 98 236t236 98t236 -98t98 -236t-98 -236t-236 -98t-236 98t-98 236zM231 126v394h168q66 0 112.5 -47t46.5 -112q0 -92 -77 -139l73 -96h-60l-59 79q-16 -4 -36 -4h-121v-75h-47zM278 249h121q46 0 78 32.5t32 79.5q0 46 -32 79t-78 33h-121v-224zM80 324
q0 -122 86.5 -209.5t207.5 -87.5q122 0 208 87t86 210t-86 210t-208 87q-121 0 -207.5 -87.5t-86.5 -209.5z" />
    <glyph glyph-name="macron" unicode="&#xaf;" horiz-adv-x="340" 
d="M70 570v59h200v-59h-200z" />
    <glyph glyph-name="degree" unicode="&#xb0;" horiz-adv-x="363" 
d="M40 521q0 58 40.5 98.5t97.5 40.5t98 -40.5t41 -98.5q0 -56 -41 -97t-98 -41t-97.5 41t-40.5 97zM102 521q0 -32 22.5 -55.5t53.5 -23.5t53.5 23.5t22.5 55.5t-22.5 55.5t-53.5 23.5t-53.5 -23.5t-22.5 -55.5z" />
    <glyph glyph-name="plusminus" unicode="&#xb1;" 
d="M61 30v65h446v-65h-446zM61 292v65h187v149h70v-149h189v-65h-189v-149h-70v149h-187z" />
    <glyph glyph-name="twosuperior" unicode="&#xb2;" horiz-adv-x="387" 
d="M31 291v47q136 119 187 175.5t51 104.5q0 34 -23 56t-64 22q-64 0 -111 -56l-36 45q64 71 152 71q70 0 110.5 -37.5t40.5 -96.5q0 -65 -52.5 -127.5t-154.5 -143.5h217v-60h-317z" />
    <glyph glyph-name="threesuperior" unicode="&#xb3;" horiz-adv-x="401" 
d="M30 340l34 46q43 -41 114 -41q53 0 82 29.5t29 68.5q0 37 -26.5 63t-77.5 26q-35 0 -67 -20l-25 39l153 140h-200v59h289v-52l-125 -118h4q61 0 103 -41t42 -99q0 -63 -48.5 -109t-130.5 -46q-96 0 -150 55z" />
    <glyph glyph-name="acute" unicode="&#xb4;" horiz-adv-x="340" 
d="M81 565l81 133h85l-94 -133h-72z" />
    <glyph glyph-name="mu" unicode="&#xb5;" horiz-adv-x="548" 
d="M60 -137v624h76v-275q0 -148 121 -148q59 0 101 43.5t42 133.5v246h77v-214q0 -172 66 -241l-49 -52q-55 53 -68 112q-50 -102 -168 -102q-81 0 -122 54v-181h-76z" />
    <glyph glyph-name="paragraph" unicode="&#xb6;" horiz-adv-x="537" 
d="M259 0v257q-91 7 -150 57.5t-59 137.5q0 81 61.5 138.5t147.5 57.5h197v-648h-60v590h-77v-590h-60z" />
    <glyph glyph-name="periodcentered" unicode="&#xb7;" horiz-adv-x="163" 
d="M27 282q0 22 16.5 38.5t38.5 16.5t38 -16t16 -39t-15.5 -39t-38.5 -16t-39 16t-16 39z" />
    <glyph glyph-name="cedilla" unicode="&#xb8;" horiz-adv-x="340" 
d="M52 -185l22 36q38 -24 83 -24q32 0 51 15.5t19 35.5q0 17 -13 25.5t-31 8.5q-17 0 -34 -8t-25 -19l-43 16l61 102h49l-37 -64q20 9 41 9q36 0 60.5 -18.5t24.5 -49.5q0 -40 -35 -66.5t-88 -26.5q-62 0 -105 28z" />
    <glyph glyph-name="onesuperior" unicode="&#xb9;" horiz-adv-x="320" 
d="M161 291v371l-105 -77l-29 46l149 119h50v-459h-65z" />
    <glyph glyph-name="ordmasculine" unicode="&#xba;" horiz-adv-x="395" 
d="M29 491q0 69 49 118t119 49t119.5 -49t49.5 -118t-49.5 -118t-119.5 -49t-119 49t-49 118zM91 491q0 -44 31 -75t75 -31t75 31t31 75t-31 75t-75 31t-75 -31t-31 -75z" />
    <glyph glyph-name="guillemotright" unicode="&#xbb;" horiz-adv-x="451" 
d="M35 94l139 149l-139 148l38 38l171 -167v-39l-171 -167zM210 94l139 149l-139 148l38 38l170 -167v-39l-170 -167z" />
    <glyph glyph-name="onequarter" unicode="&#xbc;" horiz-adv-x="895" 
d="M161 191v371l-105 -77l-29 46l149 119h50v-459h-65zM222 10l398 663l44 -25l-398 -663zM716 0v97h-215v47l189 322l55 -27l-168 -282h139v104h66v-104h54v-60h-54v-97h-66z" />
    <glyph glyph-name="onehalf" unicode="&#xbd;" horiz-adv-x="967" 
d="M607 0v46q136 119 187.5 175.5t51.5 105.5q0 34 -23 55.5t-64 21.5q-64 0 -112 -55l-36 45q64 70 152 70q70 0 111 -37t41 -96q0 -34 -15 -67t-49 -70.5t-64 -65t-86 -74.5q37 5 60 5h164v-59h-318zM161 191v371l-105 -77l-29 46l149 119h50v-459h-65zM222 10l398 663
l44 -25l-398 -663z" />
    <glyph glyph-name="threequarters" unicode="&#xbe;" horiz-adv-x="968" 
d="M307 10l398 663l44 -25l-398 -663zM802 0v97h-215v47l189 322l55 -27l-168 -282h139v104h66v-104h54v-60h-54v-97h-66zM30 240l34 46q43 -41 114 -41q53 0 82 29.5t29 68.5q0 37 -26.5 63t-77.5 26q-35 0 -67 -20l-25 39l153 140h-200v59h289v-52l-125 -118h4
q61 0 103 -41t42 -99q0 -63 -48.5 -109t-130.5 -46q-96 0 -150 55z" />
    <glyph glyph-name="questiondown" unicode="&#xbf;" horiz-adv-x="477" 
d="M52 35q0 77 49 132t123 65l8 87h68l8 -138q-89 0 -132.5 -43.5t-43.5 -103.5q0 -52 39 -90.5t94 -38.5q43 0 77.5 24t50.5 63l65 -31q-23 -61 -75.5 -96t-122.5 -35q-92 0 -150 59.5t-58 145.5zM210 444q0 23 16.5 39t39.5 16t39 -16t16 -39t-16 -39.5t-39 -16.5
t-39.5 16.5t-16.5 39.5z" />
    <glyph glyph-name="Agrave" unicode="&#xc0;" horiz-adv-x="697" 
d="M8 0l306 648h69l306 -648h-83l-60 126h-396l-60 -126h-82zM180 192h336l-109 228l-59 136q-29 -77 -58 -137zM312 698l-94 133h85l81 -133h-72z" />
    <glyph glyph-name="Aacute" unicode="&#xc1;" horiz-adv-x="697" 
d="M8 0l306 648h69l306 -648h-83l-60 126h-396l-60 -126h-82zM180 192h336l-109 228l-59 136q-29 -77 -58 -137zM310 698l81 133h85l-94 -133h-72z" />
    <glyph glyph-name="Acircumflex" unicode="&#xc2;" horiz-adv-x="697" 
d="M8 0l306 648h69l306 -648h-83l-60 126h-396l-60 -126h-82zM180 192h336l-109 228l-59 136q-29 -77 -58 -137zM219 698l88 133h85l88 -133h-65l-66 87l-66 -87h-64z" />
    <glyph glyph-name="Atilde" unicode="&#xc3;" horiz-adv-x="697" 
d="M8 0l306 648h69l306 -648h-83l-60 126h-396l-60 -126h-82zM180 192h336l-109 228l-59 136q-29 -77 -58 -137zM218 684q0 45 19.5 73.5t51.5 28.5q27 0 65 -23.5t49 -23.5q29 0 29 47h48q0 -45 -19.5 -73.5t-51.5 -28.5q-27 0 -65 23.5t-48 23.5q-29 0 -29 -47h-49z" />
    <glyph glyph-name="Adieresis" unicode="&#xc4;" horiz-adv-x="697" 
d="M8 0l306 648h69l306 -648h-83l-60 126h-396l-60 -126h-82zM180 192h336l-109 228l-59 136q-29 -77 -58 -137zM225 738q0 19 13 32t32 13q18 0 31 -13t13 -32q0 -18 -13 -31t-31 -13q-19 0 -32 13t-13 31zM382 738q0 19 13.5 32t32.5 13q18 0 31 -13t13 -32q0 -18 -13 -31
t-31 -13q-19 0 -32.5 13t-13.5 31z" />
    <glyph glyph-name="Aring" unicode="&#xc5;" horiz-adv-x="697" 
d="M8 0l306 648h69l306 -648h-83l-60 126h-396l-60 -126h-82zM180 192h336l-109 228l-59 136q-29 -77 -58 -137zM249 775q0 41 29 70t70 29t70 -29t29 -70t-29 -70.5t-70 -29.5t-70 29.5t-29 70.5zM294 775q0 -24 15.5 -41t38.5 -17t38.5 17t15.5 41q0 23 -15.5 40t-38.5 17
t-38.5 -17t-15.5 -40z" />
    <glyph glyph-name="AE" unicode="&#xc6;" horiz-adv-x="946" 
d="M8 0l421 648h467v-71h-354v-195h328v-70h-328v-241h368v-71h-448v126h-284l-81 -126h-89zM220 192h242v384q-25 -46 -53 -90z" />
    <glyph glyph-name="Ccedilla" unicode="&#xc7;" horiz-adv-x="642" 
d="M256 -185l22 36q38 -24 83 -24q32 0 51 15.5t19 35.5q0 17 -13 25.5t-31 8.5q-17 0 -34 -8t-25 -19l-43 16l55 92q-127 16 -210.5 109.5t-83.5 221.5q0 139 97.5 236.5t239.5 97.5q130 0 225 -84l-49 -55q-74 66 -171 66q-110 0 -184 -76t-74 -185q0 -108 73.5 -184.5
t180.5 -76.5q112 0 189 80l51 -55q-97 -97 -237 -98l-29 -51q20 9 41 9q36 0 60.5 -18.5t24.5 -49.5q0 -40 -35 -66.5t-88 -26.5q-62 0 -105 28z" />
    <glyph glyph-name="Egrave" unicode="&#xc8;" horiz-adv-x="617" 
d="M76 0v648h491v-71h-411v-196h384v-70h-384v-240h425v-71h-505zM318 698l-94 133h85l81 -133h-72z" />
    <glyph glyph-name="Eacute" unicode="&#xc9;" horiz-adv-x="617" 
d="M76 0v648h491v-71h-411v-196h384v-70h-384v-240h425v-71h-505zM264 698l81 133h85l-94 -133h-72z" />
    <glyph glyph-name="Ecircumflex" unicode="&#xca;" horiz-adv-x="617" 
d="M76 0v648h491v-71h-411v-196h384v-70h-384v-240h425v-71h-505zM206 698l88 133h85l88 -133h-65l-66 87l-66 -87h-64z" />
    <glyph glyph-name="Edieresis" unicode="&#xcb;" horiz-adv-x="617" 
d="M76 0v648h491v-71h-411v-196h384v-70h-384v-240h425v-71h-505zM214 747q0 19 13 32t32 13q18 0 31 -13t13 -32q0 -18 -13 -31t-31 -13q-19 0 -32 13t-13 31zM371 747q0 19 13.5 32t32.5 13q18 0 31 -13t13 -32q0 -18 -13 -31t-31 -13q-19 0 -32.5 13t-13.5 31z" />
    <glyph glyph-name="Igrave" unicode="&#xcc;" horiz-adv-x="232" 
d="M76 0v648h80v-648h-80zM91 698l-94 133h85l81 -133h-72z" />
    <glyph glyph-name="Iacute" unicode="&#xcd;" horiz-adv-x="232" 
d="M76 0v648h80v-648h-80zM69 698l81 133h85l-94 -133h-72z" />
    <glyph glyph-name="Icircumflex" unicode="&#xce;" horiz-adv-x="232" 
d="M76 0v648h80v-648h-80zM-14 698l88 133h85l88 -133h-65l-66 87l-66 -87h-64z" />
    <glyph glyph-name="Idieresis" unicode="&#xcf;" horiz-adv-x="232" 
d="M76 0v648h80v-648h-80zM-7 738q0 19 13 32t32 13q18 0 31 -13t13 -32q0 -18 -13 -31t-31 -13q-19 0 -32 13t-13 31zM150 738q0 19 13.5 32t32.5 13q18 0 31 -13t13 -32q0 -18 -13 -31t-31 -13q-19 0 -32.5 13t-13.5 31z" />
    <glyph glyph-name="Eth" unicode="&#xd0;" horiz-adv-x="707" 
d="M76 0v301h-92v62h92v285h252q142 0 237.5 -94.5t95.5 -229.5t-95.5 -229.5t-237.5 -94.5h-252zM156 71h170q107 0 179 73.5t72 179.5t-72 179.5t-179 73.5h-170v-214h184v-62h-184v-230z" />
    <glyph glyph-name="Ntilde" unicode="&#xd1;" horiz-adv-x="704" 
d="M76 0v648h78l310 -402q19 -24 40 -55t32 -49l12 -19v525h80v-648h-80l-300 389q-22 28 -45 61t-35 52l-12 19v-521h-80zM221 693q0 45 19.5 73.5t51.5 28.5q27 0 65 -23.5t49 -23.5q29 0 29 47h48q0 -45 -19.5 -73.5t-51.5 -28.5q-27 0 -65 23.5t-48 23.5q-29 0 -29 -47
h-49z" />
    <glyph glyph-name="Ograve" unicode="&#xd2;" horiz-adv-x="767" 
d="M384 63q107 0 180.5 76.5t73.5 184.5q0 109 -73.5 185t-180.5 76t-180.5 -76t-73.5 -185q0 -108 73.5 -184.5t180.5 -76.5zM384 658q142 0 240 -97.5t98 -236.5t-97.5 -236.5t-240.5 -97.5t-240.5 97.5t-97.5 236.5t98 236.5t240 97.5zM359 698l-94 133h85l81 -133h-72z
" />
    <glyph glyph-name="Oacute" unicode="&#xd3;" horiz-adv-x="767" 
d="M384 63q107 0 180.5 76.5t73.5 184.5q0 109 -73.5 185t-180.5 76t-180.5 -76t-73.5 -185q0 -108 73.5 -184.5t180.5 -76.5zM384 658q142 0 240 -97.5t98 -236.5t-97.5 -236.5t-240.5 -97.5t-240.5 97.5t-97.5 236.5t98 236.5t240 97.5zM338 698l81 133h85l-94 -133h-72z
" />
    <glyph glyph-name="Ocircumflex" unicode="&#xd4;" horiz-adv-x="767" 
d="M384 63q107 0 180.5 76.5t73.5 184.5q0 109 -73.5 185t-180.5 76t-180.5 -76t-73.5 -185q0 -108 73.5 -184.5t180.5 -76.5zM384 658q142 0 240 -97.5t98 -236.5t-97.5 -236.5t-240.5 -97.5t-240.5 97.5t-97.5 236.5t98 236.5t240 97.5zM255 698l88 133h85l88 -133h-65
l-66 87l-66 -87h-64z" />
    <glyph glyph-name="Otilde" unicode="&#xd5;" horiz-adv-x="767" 
d="M384 63q107 0 180.5 76.5t73.5 184.5q0 109 -73.5 185t-180.5 76t-180.5 -76t-73.5 -185q0 -108 73.5 -184.5t180.5 -76.5zM384 658q142 0 240 -97.5t98 -236.5t-97.5 -236.5t-240.5 -97.5t-240.5 97.5t-97.5 236.5t98 236.5t240 97.5zM253 693q0 45 19.5 73.5t51.5 28.5
q27 0 65 -23.5t49 -23.5q29 0 29 47h48q0 -45 -19.5 -73.5t-51.5 -28.5q-27 0 -65 23.5t-48 23.5q-29 0 -29 -47h-49z" />
    <glyph glyph-name="Odieresis" unicode="&#xd6;" horiz-adv-x="767" 
d="M384 63q107 0 180.5 76.5t73.5 184.5q0 109 -73.5 185t-180.5 76t-180.5 -76t-73.5 -185q0 -108 73.5 -184.5t180.5 -76.5zM384 658q142 0 240 -97.5t98 -236.5t-97.5 -236.5t-240.5 -97.5t-240.5 97.5t-97.5 236.5t98 236.5t240 97.5zM261 738q0 19 13 32t32 13
q18 0 31 -13t13 -32q0 -18 -13 -31t-31 -13q-19 0 -32 13t-13 31zM418 738q0 19 13.5 32t32.5 13q18 0 31 -13t13 -32q0 -18 -13 -31t-31 -13q-19 0 -32.5 13t-13.5 31z" />
    <glyph glyph-name="multiply" unicode="&#xd7;" 
d="M120 53l-47 48l163 163l-165 165l48 46l164 -164l165 164l49 -47l-166 -164l164 -163l-48 -48l-164 162z" />
    <glyph glyph-name="Oslash" unicode="&#xd8;" horiz-adv-x="767" 
d="M384 658q82 0 152 -36l56 93l40 -24l-55 -92q67 -46 106 -118.5t39 -156.5q0 -139 -97.5 -236.5t-240.5 -97.5q-82 0 -153 34l-55 -92l-40 23l55 93q-68 46 -106.5 118.5t-38.5 157.5q0 139 98 236.5t240 97.5zM130 324q0 -63 27 -118.5t74 -91.5l267 444q-54 27 -114 27
q-107 0 -180.5 -76t-73.5 -185zM384 63q107 0 180.5 76.5t73.5 184.5q0 63 -27 117.5t-74 91.5l-266 -443q54 -27 113 -27z" />
    <glyph glyph-name="Ugrave" unicode="&#xd9;" horiz-adv-x="668" 
d="M334 -10q-113 0 -190.5 72.5t-77.5 187.5v398h80v-398q0 -82 54.5 -134.5t133.5 -52.5t133.5 52.5t54.5 134.5v398h80v-398q0 -115 -78 -187.5t-190 -72.5zM319 698l-94 133h85l81 -133h-72z" />
    <glyph glyph-name="Uacute" unicode="&#xda;" horiz-adv-x="668" 
d="M334 -10q-113 0 -190.5 72.5t-77.5 187.5v398h80v-398q0 -82 54.5 -134.5t133.5 -52.5t133.5 52.5t54.5 134.5v398h80v-398q0 -115 -78 -187.5t-190 -72.5zM274 698l81 133h85l-94 -133h-72z" />
    <glyph glyph-name="Ucircumflex" unicode="&#xdb;" horiz-adv-x="667" 
d="M334 -10q-113 0 -190.5 72.5t-77.5 187.5v398h80v-398q0 -82 54.5 -134.5t133.5 -52.5t133.5 52.5t54.5 134.5v398h80v-398q0 -115 -78 -187.5t-190 -72.5zM205 698l88 133h85l88 -133h-65l-66 87l-66 -87h-64z" />
    <glyph glyph-name="Udieresis" unicode="&#xdc;" horiz-adv-x="667" 
d="M334 -10q-113 0 -190.5 72.5t-77.5 187.5v398h80v-398q0 -82 54.5 -134.5t133.5 -52.5t133.5 52.5t54.5 134.5v398h80v-398q0 -115 -78 -187.5t-190 -72.5zM211 738q0 19 13 32t32 13q18 0 31 -13t13 -32q0 -18 -13 -31t-31 -13q-19 0 -32 13t-13 31zM368 738
q0 19 13.5 32t32.5 13q18 0 31 -13t13 -32q0 -18 -13 -31t-31 -13q-19 0 -32.5 13t-13.5 31z" />
    <glyph glyph-name="Yacute" unicode="&#xdd;" horiz-adv-x="623" 
d="M272 0v307l-262 341h94l131 -166q16 -20 35.5 -47t30.5 -44l11 -17q44 64 78 108l129 166h94l-261 -340v-308h-80zM264 698l81 133h85l-94 -133h-72z" />
    <glyph glyph-name="Thorn" unicode="&#xde;" horiz-adv-x="595" 
d="M76 0v648h80v-106h176q90 0 154 -63.5t64 -152.5t-64 -152.5t-154 -63.5h-176v-110h-80zM156 181h169q59 0 100.5 42.5t41.5 102.5q0 59 -42 102t-100 43h-169v-290z" />
    <glyph glyph-name="germandbls" unicode="&#xdf;" horiz-adv-x="547" 
d="M76 0v451q0 101 48.5 154t130.5 53q79 0 133 -53t54 -129q0 -102 -65 -146q61 -10 101.5 -57.5t40.5 -108.5q0 -76 -52 -125t-127 -49q-68 0 -115 40l32 64q31 -31 75 -31q45 0 76.5 32t31.5 77q0 49 -36.5 80.5t-106.5 31.5h-34v60h7q37 2 66.5 31.5t29.5 90.5
q0 50 -30.5 84t-78.5 34q-47 0 -76 -34t-29 -92v-458h-76z" />
    <glyph glyph-name="agrave" unicode="&#xe0;" horiz-adv-x="596" 
d="M41 243q0 106 67.5 180t167.5 74q117 0 178 -94v84h76v-487h-76v83q-60 -93 -178 -93q-100 0 -167.5 74t-67.5 179zM119 243q0 -76 48.5 -127.5t120.5 -51.5q70 0 118 51t48 128q0 76 -47.5 128t-118.5 52q-72 0 -120.5 -52t-48.5 -128zM259 565l-94 133h85l81 -133h-72z
" />
    <glyph glyph-name="aacute" unicode="&#xe1;" horiz-adv-x="596" 
d="M41 243q0 106 67.5 180t167.5 74q117 0 178 -94v84h76v-487h-76v83q-60 -93 -178 -93q-100 0 -167.5 74t-67.5 179zM119 243q0 -76 48.5 -127.5t120.5 -51.5q70 0 118 51t48 128q0 76 -47.5 128t-118.5 52q-72 0 -120.5 -52t-48.5 -128zM227 565l81 133h85l-94 -133h-72z
" />
    <glyph glyph-name="acircumflex" unicode="&#xe2;" horiz-adv-x="596" 
d="M41 243q0 106 67.5 180t167.5 74q117 0 178 -94v84h76v-487h-76v83q-60 -93 -178 -93q-100 0 -167.5 74t-67.5 179zM119 243q0 -76 48.5 -127.5t120.5 -51.5q70 0 118 51t48 128q0 76 -47.5 128t-118.5 52q-72 0 -120.5 -52t-48.5 -128zM160 559l88 133h85l88 -133h-65
l-66 87l-66 -87h-64z" />
    <glyph glyph-name="atilde" unicode="&#xe3;" horiz-adv-x="596" 
d="M41 243q0 106 67.5 180t167.5 74q117 0 178 -94v84h76v-487h-76v83q-60 -93 -178 -93q-100 0 -167.5 74t-67.5 179zM119 243q0 -76 48.5 -127.5t120.5 -51.5q70 0 118 51t48 128q0 76 -47.5 128t-118.5 52q-72 0 -120.5 -52t-48.5 -128zM155 563q0 45 19.5 73.5
t51.5 28.5q27 0 65 -23.5t49 -23.5q29 0 29 47h48q0 -45 -19.5 -73.5t-51.5 -28.5q-27 0 -65 23.5t-48 23.5q-29 0 -29 -47h-49z" />
    <glyph glyph-name="adieresis" unicode="&#xe4;" horiz-adv-x="596" 
d="M41 243q0 106 67.5 180t167.5 74q117 0 178 -94v84h76v-487h-76v83q-60 -93 -178 -93q-100 0 -167.5 74t-67.5 179zM119 243q0 -76 48.5 -127.5t120.5 -51.5q70 0 118 51t48 128q0 76 -47.5 128t-118.5 52q-72 0 -120.5 -52t-48.5 -128zM162 615q0 19 13 32t32 13
q18 0 31 -13t13 -32q0 -18 -13 -31t-31 -13q-19 0 -32 13t-13 31zM319 615q0 19 13.5 32t32.5 13q18 0 31 -13t13 -32q0 -18 -13 -31t-31 -13q-19 0 -32.5 13t-13.5 31z" />
    <glyph glyph-name="aring" unicode="&#xe5;" horiz-adv-x="596" 
d="M41 243q0 106 67.5 180t167.5 74q117 0 178 -94v84h76v-487h-76v83q-60 -93 -178 -93q-100 0 -167.5 74t-67.5 179zM119 243q0 -76 48.5 -127.5t120.5 -51.5q70 0 118 51t48 128q0 76 -47.5 128t-118.5 52q-72 0 -120.5 -52t-48.5 -128zM194 647q0 41 29 70t70 29t70 -29
t29 -70t-29 -70.5t-70 -29.5t-70 29.5t-29 70.5zM239 647q0 -24 15.5 -41t38.5 -17t38.5 17t15.5 41q0 23 -15.5 40t-38.5 17t-38.5 -17t-15.5 -40z" />
    <glyph glyph-name="ae" unicode="&#xe6;" horiz-adv-x="916" 
d="M41 133q0 45 21 78t58 51t78.5 26t89.5 8q65 0 113 -5q-2 67 -39 102.5t-100 35.5q-43 0 -80.5 -10t-53.5 -20l-16 -10l-31 55q7 6 21 15t60.5 23.5t97.5 14.5q143 0 191 -117q31 54 84 85.5t116 31.5q97 0 165.5 -74t68.5 -177l-2 -31h-397q10 -70 61.5 -113.5
t121.5 -43.5q84 0 145 56l34 -56q-78 -68 -183 -68q-72 0 -131 33.5t-88 91.5q-28 -60 -90.5 -92.5t-138.5 -32.5q-79 0 -127.5 38t-48.5 105zM117 139q0 -40 29.5 -61t74.5 -21q88 0 136.5 45.5t48.5 115.5v17q-30 3 -118 3q-72 0 -121.5 -23.5t-49.5 -75.5zM486 275h322
q-7 66 -52.5 110t-107.5 44q-61 0 -107 -44t-55 -110z" />
    <glyph glyph-name="ccedilla" unicode="&#xe7;" horiz-adv-x="507" 
d="M181 -185l22 36q38 -24 83 -24q32 0 51 15.5t19 35.5q0 17 -13 25.5t-31 8.5q-17 0 -34 -8t-25 -19l-43 16l54 91q-95 12 -159 83.5t-64 167.5q0 105 75 179.5t181 74.5q100 0 175 -67l-49 -54q-50 47 -125 47t-127 -52t-52 -128q0 -75 52 -127t129 -52q85 0 138 56
l45 -56q-70 -68 -171 -73l-29 -52q20 9 41 9q36 0 60.5 -18.5t24.5 -49.5q0 -40 -35 -66.5t-88 -26.5q-62 0 -105 28z" />
    <glyph glyph-name="egrave" unicode="&#xe8;" horiz-adv-x="560" 
d="M120 275h322q-7 67 -52.5 110.5t-107.5 43.5q-61 0 -107 -44t-55 -110zM41 243q0 105 71 179.5t173 74.5q96 0 165 -74t69 -176l-2 -32h-396q9 -70 59 -113t118 -43q88 0 150 56l36 -55q-83 -70 -186 -70q-107 0 -182 71t-75 182zM254 565l-94 133h85l81 -133h-72z" />
    <glyph glyph-name="eacute" unicode="&#xe9;" horiz-adv-x="560" 
d="M120 275h322q-7 67 -52.5 110.5t-107.5 43.5q-61 0 -107 -44t-55 -110zM41 243q0 105 71 179.5t173 74.5q96 0 165 -74t69 -176l-2 -32h-396q9 -70 59 -113t118 -43q88 0 150 56l36 -55q-83 -70 -186 -70q-107 0 -182 71t-75 182zM238 565l81 133h85l-94 -133h-72z" />
    <glyph glyph-name="ecircumflex" unicode="&#xea;" horiz-adv-x="560" 
d="M120 275h322q-7 67 -52.5 110.5t-107.5 43.5q-61 0 -107 -44t-55 -110zM41 243q0 105 71 179.5t173 74.5q96 0 165 -74t69 -176l-2 -32h-396q9 -70 59 -113t118 -43q88 0 150 56l36 -55q-83 -70 -186 -70q-107 0 -182 71t-75 182zM146 559l88 133h85l88 -133h-65l-66 87
l-66 -87h-64z" />
    <glyph glyph-name="edieresis" unicode="&#xeb;" horiz-adv-x="560" 
d="M120 275h322q-7 67 -52.5 110.5t-107.5 43.5q-61 0 -107 -44t-55 -110zM41 243q0 105 71 179.5t173 74.5q96 0 165 -74t69 -176l-2 -32h-396q9 -70 59 -113t118 -43q88 0 150 56l36 -55q-83 -70 -186 -70q-107 0 -182 71t-75 182zM154 615q0 19 13 32t32 13q18 0 31 -13
t13 -32q0 -18 -13 -31t-31 -13q-19 0 -32 13t-13 31zM311 615q0 19 13.5 32t32.5 13q18 0 31 -13t13 -32q0 -18 -13 -31t-31 -13q-19 0 -32.5 13t-13.5 31z" />
    <glyph glyph-name="igrave" unicode="&#xec;" horiz-adv-x="208" 
d="M81 565l-94 133h85l81 -133h-72zM66 0v487h76v-487h-76z" />
    <glyph glyph-name="iacute" unicode="&#xed;" horiz-adv-x="208" 
d="M54 565l81 133h85l-94 -133h-72zM66 0v487h76v-487h-76z" />
    <glyph glyph-name="icircumflex" unicode="&#xee;" horiz-adv-x="208" 
d="M66 0v487h76v-487h-76zM-26 559l88 133h85l88 -133h-65l-66 87l-66 -87h-64z" />
    <glyph glyph-name="idieresis" unicode="&#xef;" horiz-adv-x="208" 
d="M-19 615q0 19 13 32t32 13q18 0 31 -13t13 -32q0 -18 -13 -31t-31 -13q-19 0 -32 13t-13 31zM138 615q0 19 13.5 32t32.5 13q18 0 31 -13t13 -32q0 -18 -13 -31t-31 -13q-19 0 -32.5 13t-13.5 31zM66 0v487h76v-487h-76z" />
    <glyph glyph-name="eth" unicode="&#xf0;" horiz-adv-x="594" 
d="M41 243q0 101 74.5 173t179.5 72q65 0 109 -35q-49 64 -127 111l-97 -42l-18 37l66 29q-33 14 -77 28l32 47q61 -17 115 -45l101 44l18 -36l-74 -33q88 -60 149 -152t61 -192q0 -107 -73.5 -183t-182.5 -76q-106 0 -181 74t-75 179zM119 243q0 -74 52 -126.5t126 -52.5
t126 52.5t52 126.5q0 71 -52 121t-126 50t-126 -50t-52 -121z" />
    <glyph glyph-name="ntilde" unicode="&#xf1;" horiz-adv-x="543" 
d="M66 0v487h76v-78q55 88 166 88q89 0 134 -52.5t45 -147.5v-297h-76v285q0 68 -28.5 103t-94.5 35q-60 0 -103 -42.5t-43 -107.5v-273h-76zM142 563q0 45 19.5 73.5t51.5 28.5q27 0 65 -23.5t49 -23.5q29 0 29 47h48q0 -45 -19.5 -73.5t-51.5 -28.5q-27 0 -65 23.5
t-48 23.5q-29 0 -29 -47h-49z" />
    <glyph glyph-name="ograve" unicode="&#xf2;" horiz-adv-x="594" 
d="M41 243q0 105 75 179.5t181 74.5t181 -74.5t75 -179.5q0 -104 -75 -178.5t-181 -74.5t-181 74.5t-75 178.5zM119 243q0 -74 52 -126.5t126 -52.5t126 52.5t52 126.5t-52 127t-126 53t-126 -53t-52 -127zM278 565l-94 133h85l81 -133h-72z" />
    <glyph glyph-name="oacute" unicode="&#xf3;" horiz-adv-x="594" 
d="M41 243q0 105 75 179.5t181 74.5t181 -74.5t75 -179.5q0 -104 -75 -178.5t-181 -74.5t-181 74.5t-75 178.5zM119 243q0 -74 52 -126.5t126 -52.5t126 52.5t52 126.5t-52 127t-126 53t-126 -53t-52 -127zM244 565l81 133h85l-94 -133h-72z" />
    <glyph glyph-name="ocircumflex" unicode="&#xf4;" horiz-adv-x="594" 
d="M41 243q0 105 75 179.5t181 74.5t181 -74.5t75 -179.5q0 -104 -75 -178.5t-181 -74.5t-181 74.5t-75 178.5zM119 243q0 -74 52 -126.5t126 -52.5t126 52.5t52 126.5t-52 127t-126 53t-126 -53t-52 -127zM167 559l88 133h85l88 -133h-65l-66 87l-66 -87h-64z" />
    <glyph glyph-name="otilde" unicode="&#xf5;" horiz-adv-x="594" 
d="M41 243q0 105 75 179.5t181 74.5t181 -74.5t75 -179.5q0 -104 -75 -178.5t-181 -74.5t-181 74.5t-75 178.5zM119 243q0 -74 52 -126.5t126 -52.5t126 52.5t52 126.5t-52 127t-126 53t-126 -53t-52 -127zM166 563q0 45 19.5 73.5t51.5 28.5q27 0 65 -23.5t49 -23.5
q29 0 29 47h48q0 -45 -19.5 -73.5t-51.5 -28.5q-27 0 -65 23.5t-48 23.5q-29 0 -29 -47h-49z" />
    <glyph glyph-name="odieresis" unicode="&#xf6;" horiz-adv-x="594" 
d="M41 243q0 105 75 179.5t181 74.5t181 -74.5t75 -179.5q0 -104 -75 -178.5t-181 -74.5t-181 74.5t-75 178.5zM119 243q0 -74 52 -126.5t126 -52.5t126 52.5t52 126.5t-52 127t-126 53t-126 -53t-52 -127zM174 615q0 19 13 32t32 13q18 0 31 -13t13 -32q0 -18 -13 -31
t-31 -13q-19 0 -32 13t-13 31zM331 615q0 19 13.5 32t32.5 13q18 0 31 -13t13 -32q0 -18 -13 -31t-31 -13q-19 0 -32.5 13t-13.5 31z" />
    <glyph glyph-name="divide" unicode="&#xf7;" 
d="M227 415q0 23 16.5 40t39.5 17q24 0 41 -17t17 -40q0 -24 -17 -40.5t-41 -16.5q-23 0 -39.5 16.5t-16.5 40.5zM227 115q0 23 16.5 40t39.5 17q24 0 41 -17t17 -40q0 -24 -17 -40.5t-41 -16.5q-23 0 -39.5 16.5t-16.5 40.5zM61 232v65h446v-65h-446z" />
    <glyph glyph-name="oslash" unicode="&#xf8;" horiz-adv-x="594" 
d="M41 243q0 105 75 179.5t181 74.5q57 0 109 -25l47 78l38 -23l-46 -77q50 -35 79 -89.5t29 -117.5q0 -104 -75 -178.5t-181 -74.5q-55 0 -112 25l-44 -74l-39 23l45 74q-49 35 -77.5 89t-28.5 116zM223 79q33 -15 74 -15q74 0 126 52.5t52 126.5q0 89 -69 142zM119 243
q0 -86 67 -140l181 305q-31 15 -70 15q-74 0 -126 -53t-52 -127z" />
    <glyph glyph-name="ugrave" unicode="&#xf9;" horiz-adv-x="537" 
d="M56 186v301h76v-285q0 -138 125 -138q60 0 99 41t39 111v271h76v-487h-76v75q-52 -85 -157 -85q-89 0 -135.5 54.5t-46.5 141.5zM259 565l-94 133h85l81 -133h-72z" />
    <glyph glyph-name="uacute" unicode="&#xfa;" horiz-adv-x="537" 
d="M56 186v301h76v-285q0 -138 125 -138q60 0 99 41t39 111v271h76v-487h-76v75q-52 -85 -157 -85q-89 0 -135.5 54.5t-46.5 141.5zM206 565l81 133h85l-94 -133h-72z" />
    <glyph glyph-name="ucircumflex" unicode="&#xfb;" horiz-adv-x="537" 
d="M56 186v301h76v-285q0 -138 125 -138q60 0 99 41t39 111v271h76v-487h-76v75q-52 -85 -157 -85q-89 0 -135.5 54.5t-46.5 141.5zM130 559l88 133h85l88 -133h-65l-66 87l-66 -87h-64z" />
    <glyph glyph-name="udieresis" unicode="&#xfc;" horiz-adv-x="537" 
d="M56 186v301h76v-285q0 -138 125 -138q60 0 99 41t39 111v271h76v-487h-76v75q-52 -85 -157 -85q-89 0 -135.5 54.5t-46.5 141.5zM138 615q0 19 13 32t32 13q18 0 31 -13t13 -32q0 -18 -13 -31t-31 -13q-19 0 -32 13t-13 31zM295 615q0 19 13.5 32t32.5 13q18 0 31 -13
t13 -32q0 -18 -13 -31t-31 -13q-19 0 -32.5 13t-13.5 31z" />
    <glyph glyph-name="yacute" unicode="&#xfd;" horiz-adv-x="526" 
d="M106 -147v72q43 0 68.5 17.5t48.5 67.5l10 22l-222 455h81l144 -305l33 -76l33 79l131 302h79l-228 -511q-18 -41 -40 -67.5t-47.5 -37.5t-44.5 -14.5t-46 -3.5zM225 565l81 133h85l-94 -133h-72z" />
    <glyph glyph-name="thorn" unicode="&#xfe;" horiz-adv-x="593" 
d="M66 -137v785h76v-245q28 44 74 69t102 25q100 0 167 -74t67 -180q0 -105 -66.5 -179t-164.5 -74q-57 0 -104 24.5t-75 68.5v-220h-76zM142 243q0 -76 47.5 -127.5t118.5 -51.5t118.5 51.5t47.5 127.5q0 77 -47.5 129t-118.5 52t-118.5 -52t-47.5 -129z" />
    <glyph glyph-name="ydieresis" unicode="&#xff;" horiz-adv-x="526" 
d="M106 -147v72q43 0 68.5 17.5t48.5 67.5l10 22l-222 455h81l144 -305l33 -76l33 79l131 302h79l-228 -511q-18 -41 -40 -67.5t-47.5 -37.5t-44.5 -14.5t-46 -3.5zM148 615q0 19 13 32t32 13q18 0 31 -13t13 -32q0 -18 -13 -31t-31 -13q-19 0 -32 13t-13 31zM305 615
q0 19 13.5 32t32.5 13q18 0 31 -13t13 -32q0 -18 -13 -31t-31 -13q-19 0 -32.5 13t-13.5 31z" />
    <glyph glyph-name="Amacron" unicode="&#x100;" horiz-adv-x="697" 
d="M8 0l306 648h69l306 -648h-83l-60 126h-396l-60 -126h-82zM180 192h336l-109 228l-59 136q-29 -77 -58 -137zM248 708v59h200v-59h-200z" />
    <glyph glyph-name="amacron" unicode="&#x101;" horiz-adv-x="596" 
d="M41 243q0 106 67.5 180t167.5 74q117 0 178 -94v84h76v-487h-76v83q-60 -93 -178 -93q-100 0 -167.5 74t-67.5 179zM119 243q0 -76 48.5 -127.5t120.5 -51.5q70 0 118 51t48 128q0 76 -47.5 128t-118.5 52q-72 0 -120.5 -52t-48.5 -128zM193 570v59h200v-59h-200z" />
    <glyph glyph-name="Abreve" unicode="&#x102;" horiz-adv-x="697" 
d="M8 0l306 648h69l306 -648h-83l-60 126h-396l-60 -126h-82zM180 192h336l-109 228l-59 136q-29 -77 -58 -137zM348 693q-47 0 -75.5 31t-28.5 76h46q3 -25 19 -38.5t39 -13.5t39 13.5t18 38.5h47q0 -45 -28.5 -76t-75.5 -31z" />
    <glyph glyph-name="abreve" unicode="&#x103;" horiz-adv-x="596" 
d="M41 243q0 106 67.5 180t167.5 74q117 0 178 -94v84h76v-487h-76v83q-60 -93 -178 -93q-100 0 -167.5 74t-67.5 179zM119 243q0 -76 48.5 -127.5t120.5 -51.5q70 0 118 51t48 128q0 76 -47.5 128t-118.5 52q-72 0 -120.5 -52t-48.5 -128zM293 554q-47 0 -75.5 31t-28.5 76
h46q3 -25 19 -38.5t39 -13.5t39 13.5t18 38.5h47q0 -45 -28.5 -76t-75.5 -31z" />
    <glyph glyph-name="Aogonek" unicode="&#x104;" horiz-adv-x="697" 
d="M553 -128q0 73 53 128l-60 126h-396l-60 -126h-82l306 648h69l306 -648h-32q-20 -19 -34 -49.5t-14 -58.5q0 -26 15.5 -42t40.5 -16q18 0 40 11l16 -40q-33 -25 -74 -25q-38 0 -66 24.5t-28 67.5zM180 192h336l-109 228q-9 18 -59 135l-9 -23q-9 -22 -23 -54.5t-26 -58.5
z" />
    <glyph glyph-name="aogonek" unicode="&#x105;" horiz-adv-x="596" 
d="M396 -128q0 77 58 133v78q-60 -93 -178 -93q-100 0 -167.5 74t-67.5 179q0 106 67.5 180t167.5 74q117 0 178 -94v84h76v-487h-30q-20 -19 -34 -49.5t-14 -58.5q0 -26 16 -42t40 -16q18 0 40 11l16 -40q-33 -25 -74 -25q-38 0 -66 24.5t-28 67.5zM119 243
q0 -76 48.5 -127.5t120.5 -51.5q70 0 118 51t48 128q0 76 -47.5 128t-118.5 52q-72 0 -120.5 -52t-48.5 -128z" />
    <glyph glyph-name="Cacute" unicode="&#x106;" horiz-adv-x="642" 
d="M46 324q0 139 97.5 236.5t239.5 97.5q130 0 225 -84l-49 -55q-74 66 -171 66q-110 0 -184 -76t-74 -185q0 -108 73.5 -184.5t180.5 -76.5q112 0 189 80l51 -55q-98 -98 -240 -98q-143 0 -240.5 97.5t-97.5 236.5zM337 698l81 133h85l-94 -133h-72z" />
    <glyph glyph-name="cacute" unicode="&#x107;" horiz-adv-x="507" 
d="M41 243q0 105 75 179.5t181 74.5q100 0 175 -67l-49 -54q-50 47 -125 47t-127 -52t-52 -128q0 -75 52 -127t129 -52q85 0 138 56l45 -56q-76 -74 -186 -74q-106 0 -181 74t-75 179zM236 565l81 133h85l-94 -133h-72z" />
    <glyph glyph-name="Ccircumflex" unicode="&#x108;" horiz-adv-x="642" 
d="M46 324q0 139 97.5 236.5t239.5 97.5q130 0 225 -84l-49 -55q-74 66 -171 66q-110 0 -184 -76t-74 -185q0 -108 73.5 -184.5t180.5 -76.5q112 0 189 80l51 -55q-98 -98 -240 -98q-143 0 -240.5 97.5t-97.5 236.5zM254 698l88 133h85l88 -133h-65l-66 87l-66 -87h-64z" />
    <glyph glyph-name="ccircumflex" unicode="&#x109;" horiz-adv-x="507" 
d="M41 243q0 105 75 179.5t181 74.5q100 0 175 -67l-49 -54q-50 47 -125 47t-127 -52t-52 -128q0 -75 52 -127t129 -52q85 0 138 56l45 -56q-76 -74 -186 -74q-106 0 -181 74t-75 179zM162 559l88 133h85l88 -133h-65l-66 87l-66 -87h-64z" />
    <glyph glyph-name="Cdotaccent" unicode="&#x10a;" horiz-adv-x="642" 
d="M46 324q0 139 97.5 236.5t239.5 97.5q130 0 225 -84l-49 -55q-74 66 -171 66q-110 0 -184 -76t-74 -185q0 -108 73.5 -184.5t180.5 -76.5q112 0 189 80l51 -55q-98 -98 -240 -98q-143 0 -240.5 97.5t-97.5 236.5zM328 743q0 21 15 36t36 15q20 0 35 -15t15 -36
q0 -20 -15 -35t-35 -15q-21 0 -36 15t-15 35z" />
    <glyph glyph-name="cdotaccent" unicode="&#x10b;" horiz-adv-x="507" 
d="M41 243q0 105 75 179.5t181 74.5q100 0 175 -67l-49 -54q-50 47 -125 47t-127 -52t-52 -128q0 -75 52 -127t129 -52q85 0 138 56l45 -56q-76 -74 -186 -74q-106 0 -181 74t-75 179zM244 624q0 21 15 36t36 15q20 0 35 -15t15 -36q0 -20 -15 -35t-35 -15q-21 0 -36 15
t-15 35z" />
    <glyph glyph-name="Ccaron" unicode="&#x10c;" horiz-adv-x="642" 
d="M46 324q0 139 97.5 236.5t239.5 97.5q130 0 225 -84l-49 -55q-74 66 -171 66q-110 0 -184 -76t-74 -185q0 -108 73.5 -184.5t180.5 -76.5q112 0 189 80l51 -55q-98 -98 -240 -98q-143 0 -240.5 97.5t-97.5 236.5zM342 698l-88 133h65l65 -87l66 87h65l-88 -133h-85z" />
    <glyph glyph-name="ccaron" unicode="&#x10d;" horiz-adv-x="507" 
d="M41 243q0 105 75 179.5t181 74.5q100 0 175 -67l-49 -54q-50 47 -125 47t-127 -52t-52 -128q0 -75 52 -127t129 -52q85 0 138 56l45 -56q-76 -74 -186 -74q-106 0 -181 74t-75 179zM248 559l-88 133h65l65 -87l66 87h65l-88 -133h-85z" />
    <glyph glyph-name="Dcaron" unicode="&#x10e;" horiz-adv-x="707" 
d="M156 71h161q116 0 188 71.5t72 181.5t-72 181.5t-188 71.5h-161v-506zM76 0v648h246q152 0 245.5 -94t93.5 -230t-93.5 -230t-245.5 -94h-246zM262 698l-88 133h65l65 -87l66 87h65l-88 -133h-85z" />
    <glyph glyph-name="dcaron" unicode="&#x10f;" horiz-adv-x="593" 
d="M41 243q0 106 67.5 180t167.5 74q55 0 101 -25t74 -69v255h76v-658h-76v83q-28 -44 -73.5 -68.5t-101.5 -24.5q-100 0 -167.5 74t-67.5 179zM119 243q0 -76 48 -127.5t119 -51.5q70 0 117.5 50.5t47.5 128.5q0 76 -47.5 128t-117.5 52q-71 0 -119 -52t-48 -128zM546 471
q61 63 61 136q0 17 -9 35l58 20q11 -24 11 -46q0 -49 -22.5 -87t-49.5 -58h-49z" />
    <glyph glyph-name="Dcroat" unicode="&#x110;" horiz-adv-x="707" 
d="M76 0v301h-92v62h92v285h252q142 0 237.5 -94.5t95.5 -229.5t-95.5 -229.5t-237.5 -94.5h-252zM156 71h170q107 0 179 73.5t72 179.5t-72 179.5t-179 73.5h-170v-214h184v-62h-184v-230z" />
    <glyph glyph-name="dcroat" unicode="&#x111;" horiz-adv-x="593" 
d="M41 243q0 106 67.5 180t167.5 74q55 0 101 -25t74 -69v145h-167v46h167v64h76v-64h60v-46h-60v-548h-76v83q-28 -44 -73.5 -68.5t-101.5 -24.5q-100 0 -167.5 74t-67.5 179zM119 243q0 -76 48 -127.5t119 -51.5q70 0 117.5 51t47.5 128q0 76 -47.5 128t-117.5 52
q-71 0 -119 -52t-48 -128z" />
    <glyph glyph-name="Emacron" unicode="&#x112;" horiz-adv-x="617" 
d="M76 0v648h491v-71h-411v-196h384v-70h-384v-240h425v-71h-505zM224 708v59h200v-59h-200z" />
    <glyph glyph-name="emacron" unicode="&#x113;" horiz-adv-x="560" 
d="M120 275h322q-7 67 -52.5 110.5t-107.5 43.5q-61 0 -107 -44t-55 -110zM41 243q0 105 71 179.5t173 74.5q96 0 165 -74t69 -176l-2 -32h-396q9 -70 59 -113t118 -43q88 0 150 56l36 -55q-83 -70 -186 -70q-107 0 -182 71t-75 182zM180 570v59h200v-59h-200z" />
    <glyph glyph-name="Ebreve" unicode="&#x114;" horiz-adv-x="617" 
d="M76 0v648h491v-71h-411v-196h384v-70h-384v-240h425v-71h-505zM328 693q-47 0 -75.5 31t-28.5 76h46q3 -25 19 -38.5t39 -13.5t39 13.5t18 38.5h47q0 -45 -28.5 -76t-75.5 -31z" />
    <glyph glyph-name="ebreve" unicode="&#x115;" horiz-adv-x="560" 
d="M120 275h322q-7 67 -52.5 110.5t-107.5 43.5q-61 0 -107 -44t-55 -110zM41 243q0 105 71 179.5t173 74.5q96 0 165 -74t69 -176l-2 -32h-396q9 -70 59 -113t118 -43q88 0 150 56l36 -55q-83 -70 -186 -70q-107 0 -182 71t-75 182zM280 554q-47 0 -75.5 31t-28.5 76h46
q3 -25 19 -38.5t39 -13.5t39 13.5t18 38.5h47q0 -45 -28.5 -76t-75.5 -31z" />
    <glyph glyph-name="Edotaccent" unicode="&#x116;" horiz-adv-x="617" 
d="M76 0v648h491v-71h-411v-196h384v-70h-384v-240h425v-71h-505zM279 743q0 21 15 36t36 15q20 0 35 -15t15 -36q0 -20 -15 -35t-35 -15q-21 0 -36 15t-15 35z" />
    <glyph glyph-name="edotaccent" unicode="&#x117;" horiz-adv-x="560" 
d="M120 275h322q-7 67 -52.5 110.5t-107.5 43.5q-61 0 -107 -44t-55 -110zM41 243q0 105 71 179.5t173 74.5q96 0 165 -74t69 -176l-2 -32h-396q9 -70 59 -113t118 -43q88 0 150 56l36 -55q-83 -70 -186 -70q-107 0 -182 71t-75 182zM229 624q0 21 15 36t36 15q20 0 35 -15
t15 -36q0 -20 -15 -35t-35 -15q-21 0 -36 15t-15 35z" />
    <glyph glyph-name="Eogonek" unicode="&#x118;" horiz-adv-x="629" 
d="M76 0v648h491v-71h-411v-196h384v-70h-384v-240h425v-71h-75q-20 -19 -34 -49.5t-14 -58.5q0 -26 16 -42t40 -16q18 0 40 11l16 -40q-33 -25 -74 -25q-38 0 -66 24.5t-28 67.5q0 73 53 128h-379z" />
    <glyph glyph-name="eogonek" unicode="&#x119;" horiz-adv-x="560" 
d="M256 -128q0 66 44 118q-109 0 -184 71t-75 182q0 105 71 179.5t173 74.5q96 0 165 -74t69 -176l-2 -32h-396q9 -70 59 -113t118 -43q88 0 150 56l36 -55q-56 -49 -128 -64q-44 -46 -44 -104q0 -26 16 -42t40 -16q18 0 40 11l16 -40q-33 -25 -74 -25q-38 0 -66 24.5
t-28 67.5zM120 275h322q-7 67 -52.5 110.5t-107.5 43.5q-61 0 -107 -44t-55 -110z" />
    <glyph glyph-name="Ecaron" unicode="&#x11a;" horiz-adv-x="617" 
d="M76 0v648h491v-71h-411v-196h384v-70h-384v-240h425v-71h-505zM285 698l-88 133h65l65 -87l66 87h65l-88 -133h-85z" />
    <glyph glyph-name="ecaron" unicode="&#x11b;" horiz-adv-x="560" 
d="M120 275h322q-7 67 -52.5 110.5t-107.5 43.5q-61 0 -107 -44t-55 -110zM41 243q0 105 71 179.5t173 74.5q96 0 165 -74t69 -176l-2 -32h-396q9 -70 59 -113t118 -43q88 0 150 56l36 -55q-83 -70 -186 -70q-107 0 -182 71t-75 182zM237 559l-88 133h65l65 -87l66 87h65
l-88 -133h-85z" />
    <glyph glyph-name="Gcircumflex" unicode="&#x11c;" horiz-adv-x="730" 
d="M46 324q0 139 98 236.5t240 97.5q128 0 226 -85l-50 -56q-73 68 -176 68q-107 0 -180.5 -76t-73.5 -185t73.5 -185t180.5 -76q61 0 114 27.5t88 75.5v134h-142v69h220v-233q-45 -68 -119 -107t-161 -39q-143 0 -240.5 97.5t-97.5 236.5zM246 698l88 133h85l88 -133h-65
l-66 87l-66 -87h-64z" />
    <glyph glyph-name="gcircumflex" unicode="&#x11d;" horiz-adv-x="593" 
d="M41 262q0 101 67 168t168 67q117 0 175 -94v84h76v-378q0 -61 -19.5 -109t-47.5 -74.5t-64 -44t-64 -23t-52 -5.5q-116 0 -193 75l38 50q61 -61 153 -61q11 0 27 2.5t43.5 13.5t49 28.5t37.5 53t16 81.5v21q-28 -45 -73.5 -69t-101.5 -24q-101 0 -168 68t-67 170z
M119 257q0 -70 46.5 -114.5t117.5 -44.5t117 44.5t46 114.5q0 73 -46 119.5t-117 46.5t-117.5 -46.5t-46.5 -119.5zM163 559l88 133h85l88 -133h-65l-66 87l-66 -87h-64z" />
    <glyph glyph-name="Gbreve" unicode="&#x11e;" horiz-adv-x="730" 
d="M46 324q0 139 98 236.5t240 97.5q128 0 226 -85l-50 -56q-73 68 -176 68q-107 0 -180.5 -76t-73.5 -185t73.5 -185t180.5 -76q61 0 114 27.5t88 75.5v134h-142v69h220v-233q-45 -68 -119 -107t-161 -39q-143 0 -240.5 97.5t-97.5 236.5zM377 693q-47 0 -75.5 31t-28.5 76
h46q3 -25 19 -38.5t39 -13.5t39 13.5t18 38.5h47q0 -45 -28.5 -76t-75.5 -31z" />
    <glyph glyph-name="gbreve" unicode="&#x11f;" horiz-adv-x="593" 
d="M41 262q0 101 67 168t168 67q117 0 175 -94v84h76v-378q0 -61 -19.5 -109t-47.5 -74.5t-64 -44t-64 -23t-52 -5.5q-116 0 -193 75l38 50q61 -61 153 -61q11 0 27 2.5t43.5 13.5t49 28.5t37.5 53t16 81.5v21q-28 -45 -73.5 -69t-101.5 -24q-101 0 -168 68t-67 170z
M119 257q0 -70 46.5 -114.5t117.5 -44.5t117 44.5t46 114.5q0 73 -46 119.5t-117 46.5t-117.5 -46.5t-46.5 -119.5zM297 554q-47 0 -75.5 31t-28.5 76h46q3 -25 19 -38.5t39 -13.5t39 13.5t18 38.5h47q0 -45 -28.5 -76t-75.5 -31z" />
    <glyph glyph-name="Gdotaccent" unicode="&#x120;" horiz-adv-x="730" 
d="M46 324q0 139 98 236.5t240 97.5q128 0 226 -85l-50 -56q-73 68 -176 68q-107 0 -180.5 -76t-73.5 -185t73.5 -185t180.5 -76q61 0 114 27.5t88 75.5v134h-142v69h220v-233q-45 -68 -119 -107t-161 -39q-143 0 -240.5 97.5t-97.5 236.5zM328 743q0 21 15 36t36 15
q20 0 35 -15t15 -36q0 -20 -15 -35t-35 -15q-21 0 -36 15t-15 35z" />
    <glyph glyph-name="gdotaccent" unicode="&#x121;" horiz-adv-x="593" 
d="M41 262q0 101 67 168t168 67q117 0 175 -94v84h76v-378q0 -61 -19.5 -109t-47.5 -74.5t-64 -44t-64 -23t-52 -5.5q-116 0 -193 75l38 50q61 -61 153 -61q11 0 27 2.5t43.5 13.5t49 28.5t37.5 53t16 81.5v21q-28 -45 -73.5 -69t-101.5 -24q-101 0 -168 68t-67 170z
M119 257q0 -70 46.5 -114.5t117.5 -44.5t117 44.5t46 114.5q0 73 -46 119.5t-117 46.5t-117.5 -46.5t-46.5 -119.5zM238 624q0 21 15 36t36 15q20 0 35 -15t15 -36q0 -20 -15 -35t-35 -15q-21 0 -36 15t-15 35z" />
    <glyph glyph-name="Gcommaaccent" unicode="&#x122;" horiz-adv-x="730" 
d="M46 324q0 139 98 236.5t240 97.5q128 0 226 -85l-50 -56q-73 68 -176 68q-107 0 -180.5 -76t-73.5 -185t73.5 -185t180.5 -76q61 0 114 27.5t88 75.5v134h-142v69h220v-233q-45 -68 -119 -107t-161 -39q-143 0 -240.5 97.5t-97.5 236.5zM311 -235q61 63 61 136
q0 17 -9 35l58 20q11 -24 11 -46q0 -49 -22.5 -87t-49.5 -58h-49z" />
    <glyph glyph-name="gcommaaccent" unicode="&#x123;" horiz-adv-x="593" 
d="M262 551q-32 25 -52 62t-20 76q0 25 11 53l57 -20q-8 -20 -8 -36q0 -73 60 -135h-48zM41 262q0 101 67 168t168 67q117 0 175 -94v84h76v-378q0 -61 -19.5 -109t-47.5 -74.5t-64 -44t-64 -23t-52 -5.5q-116 0 -193 75l38 50q61 -61 153 -61q11 0 27 2.5t43.5 13.5
t49 28.5t37.5 53t16 81.5v21q-28 -45 -73.5 -69t-101.5 -24q-101 0 -168 68t-67 170zM119 257q0 -73 46.5 -119.5t117.5 -46.5t117 46.5t46 119.5q0 75 -46 122t-117 47t-117.5 -47.5t-46.5 -121.5z" />
    <glyph glyph-name="Hcircumflex" unicode="&#x124;" horiz-adv-x="687" 
d="M76 0v648h80v-267h375v267h80v-648h-80v310h-375v-310h-80zM217 698l88 133h85l88 -133h-65l-66 87l-66 -87h-64z" />
    <glyph glyph-name="hcircumflex" unicode="&#x125;" horiz-adv-x="543" 
d="M66 0v658h76v-249q54 88 166 88q88 0 133.5 -53t45.5 -147v-297h-76v285q0 68 -29 103t-96 35q-65 0 -104.5 -43.5t-39.5 -104.5v-275h-76zM-23 676l88 133h85l88 -133h-65l-66 87l-66 -87h-64z" />
    <glyph glyph-name="Hbar" unicode="&#x126;" horiz-adv-x="687" 
d="M76 0v494h-40v58h40v96h80v-96h375v96h80v-96h40v-58h-40v-494h-80v314h-375v-314h-80zM156 385h375v109h-375v-109z" />
    <glyph glyph-name="hbar" unicode="&#x127;" horiz-adv-x="543" 
d="M66 0v548h-56v46h56v64h76v-64h171v-46h-171v-139q54 88 166 88q88 0 133.5 -53t45.5 -147v-297h-76v285q0 68 -29 103t-96 35q-60 0 -102 -41.5t-42 -106.5v-275h-76z" />
    <glyph glyph-name="Itilde" unicode="&#x128;" horiz-adv-x="232" 
d="M76 0v648h80v-648h-80zM-15 693q0 45 19.5 73.5t51.5 28.5q27 0 65 -23.5t49 -23.5q29 0 29 47h48q0 -45 -19.5 -73.5t-51.5 -28.5q-27 0 -65 23.5t-48 23.5q-29 0 -29 -47h-49z" />
    <glyph glyph-name="itilde" unicode="&#x129;" horiz-adv-x="208" 
d="M-27 563q0 45 19.5 73.5t51.5 28.5q27 0 65 -23.5t49 -23.5q29 0 29 47h48q0 -45 -19.5 -73.5t-51.5 -28.5q-27 0 -65 23.5t-48 23.5q-29 0 -29 -47h-49zM66 0v487h76v-487h-76z" />
    <glyph glyph-name="Imacron" unicode="&#x12a;" horiz-adv-x="232" 
d="M76 0v648h80v-648h-80zM16 708v59h200v-59h-200z" />
    <glyph glyph-name="imacron" unicode="&#x12b;" horiz-adv-x="208" 
d="M4 570v59h200v-59h-200zM66 0v487h76v-487h-76z" />
    <glyph glyph-name="Ibreve" unicode="&#x12c;" horiz-adv-x="232" 
d="M76 0v648h80v-648h-80zM116 693q-47 0 -75.5 31t-28.5 76h46q3 -25 19 -38.5t39 -13.5t39 13.5t18 38.5h47q0 -45 -28.5 -76t-75.5 -31z" />
    <glyph glyph-name="ibreve" unicode="&#x12d;" horiz-adv-x="208" 
d="M104 554q-47 0 -75.5 31t-28.5 76h46q3 -25 19 -38.5t39 -13.5t39 13.5t18 38.5h47q0 -45 -28.5 -76t-75.5 -31zM66 0v487h76v-487h-76z" />
    <glyph glyph-name="Iogonek" unicode="&#x12e;" horiz-adv-x="232" 
d="M18 -128q0 77 58 133v643h80v-648h-34q-20 -19 -34 -49.5t-14 -58.5q0 -26 16 -42t40 -16q18 0 40 11l16 -40q-33 -25 -74 -25q-38 0 -66 24.5t-28 67.5z" />
    <glyph glyph-name="iogonek" unicode="&#x12f;" horiz-adv-x="208" 
d="M8 -128q0 77 58 133v482h76v-487h-30q-20 -19 -34 -49.5t-14 -58.5q0 -26 16 -42t40 -16q18 0 40 11l16 -40q-33 -25 -74 -25q-38 0 -66 24.5t-28 67.5zM55 618q0 21 14.5 36t35.5 15t35.5 -15t14.5 -36q0 -20 -14.5 -35t-35.5 -15t-35.5 15t-14.5 35z" />
    <glyph glyph-name="Idotaccent" unicode="&#x130;" horiz-adv-x="232" 
d="M76 0v648h80v-648h-80zM65 743q0 21 15 36t36 15q20 0 35 -15t15 -36q0 -20 -15 -35t-35 -15q-21 0 -36 15t-15 35z" />
    <glyph glyph-name="dotlessi" unicode="&#x131;" horiz-adv-x="208" 
d="M66 0v487h76v-487h-76z" />
    <glyph glyph-name="Jcircumflex" unicode="&#x134;" horiz-adv-x="543" 
d="M26 111l58 44q50 -92 145 -92q76 0 122 49t46 152v384h80v-389q0 -136 -69 -202.5t-178 -66.5q-66 0 -120.5 31t-83.5 90zM305 698l88 133h85l88 -133h-65l-66 87l-66 -87h-64z" />
    <glyph glyph-name="jcircumflex" unicode="&#x135;" horiz-adv-x="208" 
d="M10 -180l-26 60q82 49 82 184v423h76v-415q0 -186 -132 -252zM-27 559l88 133h85l88 -133h-64l-67 87l-65 -87h-65z" />
    <glyph glyph-name="Kcommaaccent" unicode="&#x136;" horiz-adv-x="644" 
d="M76 0v648h80v-415q36 48 62 78l298 337h97l-258 -299l279 -349h-96l-235 293l-147 -165v-128h-80zM209 -235q61 63 61 136q0 17 -9 35l58 20q11 -24 11 -46q0 -49 -22.5 -87t-49.5 -58h-49z" />
    <glyph glyph-name="kcommaaccent" unicode="&#x137;" horiz-adv-x="515" 
d="M66 0v658h76v-439l236 268h98l-194 -216l228 -271h-98l-178 218l-92 -105v-113h-76zM174 -235q61 63 61 136q0 17 -9 35l58 20q11 -24 11 -46q0 -49 -22.5 -87t-49.5 -58h-49z" />
    <glyph glyph-name="Lacute" unicode="&#x139;" horiz-adv-x="601" 
d="M76 0v648h80v-577h409v-71h-489zM73 698l81 133h85l-94 -133h-72z" />
    <glyph glyph-name="lacute" unicode="&#x13a;" horiz-adv-x="208" 
d="M66 0v658h76v-658h-76zM54 736l81 133h85l-94 -133h-72z" />
    <glyph glyph-name="Lcommaaccent" unicode="&#x13b;" horiz-adv-x="601" 
d="M76 0v648h80v-577h409v-71h-489zM254 -235q61 63 61 136q0 17 -9 35l58 20q11 -24 11 -46q0 -49 -22.5 -87t-49.5 -58h-49z" />
    <glyph glyph-name="lcommaaccent" unicode="&#x13c;" horiz-adv-x="208" 
d="M66 0v658h76v-658h-76zM22 -235q61 63 61 136q0 17 -9 35l58 20q11 -24 11 -46q0 -49 -22.5 -87t-49.5 -58h-49z" />
    <glyph glyph-name="Lcaron" unicode="&#x13d;" horiz-adv-x="601" 
d="M76 0v648h80v-577h409v-71h-489zM207 461q63 67 63 141q0 19 -10 37l60 20q11 -24 11 -47q0 -51 -23 -90.5t-51 -60.5h-50z" />
    <glyph glyph-name="lcaron" unicode="&#x13e;" horiz-adv-x="208" 
d="M66 0v658h76v-658h-76zM162 471q61 63 61 136q0 17 -9 35l58 20q11 -24 11 -46q0 -49 -22.5 -87t-49.5 -58h-49z" />
    <glyph glyph-name="Lslash" unicode="&#x141;" horiz-adv-x="601" 
d="M76 0v290l-65 -28v69l65 27v290h80v-256l181 78v-67l-181 -79v-253h409v-71h-489z" />
    <glyph glyph-name="lslash" unicode="&#x142;" horiz-adv-x="208" 
d="M66 0v371l-55 -24v69l55 22v220h76v-187l57 24v-67l-57 -25v-403h-76z" />
    <glyph glyph-name="Nacute" unicode="&#x143;" horiz-adv-x="704" 
d="M76 0v648h78l310 -402q19 -24 40 -55t32 -49l12 -19v525h80v-648h-80l-300 389q-22 28 -45 61t-35 52l-12 19v-521h-80zM301 698l81 133h85l-94 -133h-72z" />
    <glyph glyph-name="nacute" unicode="&#x144;" horiz-adv-x="543" 
d="M66 0v487h76v-78q55 88 166 88q89 0 134 -52.5t45 -147.5v-297h-76v285q0 68 -28.5 103t-94.5 35q-60 0 -103 -42.5t-43 -107.5v-273h-76zM215 565l81 133h85l-94 -133h-72z" />
    <glyph glyph-name="Ncommaaccent" unicode="&#x145;" horiz-adv-x="704" 
d="M76 0v648h78l310 -402q19 -24 40 -55t32 -49l12 -19v525h80v-648h-80l-300 389q-22 28 -45 61t-35 52l-12 19v-521h-80zM286 -235q61 63 61 136q0 17 -9 35l58 20q11 -24 11 -46q0 -49 -22.5 -87t-49.5 -58h-49z" />
    <glyph glyph-name="ncommaaccent" unicode="&#x146;" horiz-adv-x="543" 
d="M66 0v487h76v-78q55 88 166 88q89 0 134 -52.5t45 -147.5v-297h-76v285q0 68 -28.5 103t-94.5 35q-60 0 -103 -42.5t-43 -107.5v-273h-76zM204 -235q61 63 61 136q0 17 -9 35l58 20q11 -24 11 -46q0 -49 -22.5 -87t-49.5 -58h-49z" />
    <glyph glyph-name="Ncaron" unicode="&#x147;" horiz-adv-x="704" 
d="M76 0v648h78l310 -402q19 -24 40 -55t32 -49l12 -19v525h80v-648h-80l-300 389q-22 28 -45 61t-35 52l-12 19v-521h-80zM309 698l-88 133h65l65 -87l66 87h65l-88 -133h-85z" />
    <glyph glyph-name="ncaron" unicode="&#x148;" horiz-adv-x="543" 
d="M66 0v487h76v-78q55 88 166 88q89 0 134 -52.5t45 -147.5v-297h-76v285q0 68 -28.5 103t-94.5 35q-60 0 -103 -42.5t-43 -107.5v-273h-76zM234 559l-88 133h65l65 -87l66 87h65l-88 -133h-85z" />
    <glyph glyph-name="Eng" unicode="&#x14a;" horiz-adv-x="704" 
d="M76 0v648h78l327 -423q14 -18 31 -43.5t26 -41.5l10 -17v525h80v-642q0 -75 -47 -133t-125 -81l-20 63q51 19 79 58t30 91l-313 406q-18 23 -37 51t-29 45l-10 16v-522h-80z" />
    <glyph glyph-name="eng" unicode="&#x14b;" horiz-adv-x="543" 
d="M66 0v487h76v-78q55 88 166 88q89 0 134 -52.5t45 -147.5v-266q0 -86 -48.5 -149t-124.5 -88l-20 63q54 20 85.5 65.5t31.5 109.5v253q0 138 -123 138q-60 0 -103 -42.5t-43 -107.5v-273h-76z" />
    <glyph glyph-name="Omacron" unicode="&#x14c;" horiz-adv-x="767" 
d="M384 63q107 0 180.5 76.5t73.5 184.5q0 109 -73.5 185t-180.5 76t-180.5 -76t-73.5 -185q0 -108 73.5 -184.5t180.5 -76.5zM384 658q142 0 240 -97.5t98 -236.5t-97.5 -236.5t-240.5 -97.5t-240.5 97.5t-97.5 236.5t98 236.5t240 97.5zM284 708v59h200v-59h-200z" />
    <glyph glyph-name="omacron" unicode="&#x14d;" horiz-adv-x="594" 
d="M41 243q0 105 75 179.5t181 74.5t181 -74.5t75 -179.5q0 -104 -75 -178.5t-181 -74.5t-181 74.5t-75 178.5zM119 243q0 -74 52 -126.5t126 -52.5t126 52.5t52 126.5t-52 127t-126 53t-126 -53t-52 -127zM197 570v59h200v-59h-200z" />
    <glyph glyph-name="Obreve" unicode="&#x14e;" horiz-adv-x="767" 
d="M384 63q107 0 180.5 76.5t73.5 184.5q0 109 -73.5 185t-180.5 76t-180.5 -76t-73.5 -185q0 -108 73.5 -184.5t180.5 -76.5zM384 658q142 0 240 -97.5t98 -236.5t-97.5 -236.5t-240.5 -97.5t-240.5 97.5t-97.5 236.5t98 236.5t240 97.5zM384 693q-47 0 -75.5 31t-28.5 76
h46q3 -25 19 -38.5t39 -13.5t39 13.5t18 38.5h47q0 -45 -28.5 -76t-75.5 -31z" />
    <glyph glyph-name="obreve" unicode="&#x14f;" horiz-adv-x="594" 
d="M41 243q0 105 75 179.5t181 74.5t181 -74.5t75 -179.5q0 -104 -75 -178.5t-181 -74.5t-181 74.5t-75 178.5zM119 243q0 -74 52 -126.5t126 -52.5t126 52.5t52 126.5t-52 127t-126 53t-126 -53t-52 -127zM297 554q-47 0 -75.5 31t-28.5 76h46q3 -25 19 -38.5t39 -13.5
t39 13.5t18 38.5h47q0 -45 -28.5 -76t-75.5 -31z" />
    <glyph glyph-name="Ohungarumlaut" unicode="&#x150;" horiz-adv-x="767" 
d="M384 63q107 0 180.5 76.5t73.5 184.5q0 109 -73.5 185t-180.5 76t-180.5 -76t-73.5 -185q0 -108 73.5 -184.5t180.5 -76.5zM384 658q142 0 240 -97.5t98 -236.5t-97.5 -236.5t-240.5 -97.5t-240.5 97.5t-97.5 236.5t98 236.5t240 97.5zM280 698l74 126h85l-97 -126h-62z
M408 698l74 126h85l-97 -126h-62z" />
    <glyph glyph-name="ohungarumlaut" unicode="&#x151;" horiz-adv-x="594" 
d="M41 243q0 105 75 179.5t181 74.5t181 -74.5t75 -179.5q0 -104 -75 -178.5t-181 -74.5t-181 74.5t-75 178.5zM119 243q0 -74 52 -126.5t126 -52.5t126 52.5t52 126.5t-52 127t-126 53t-126 -53t-52 -127zM181 557l74 126h85l-97 -126h-62zM309 557l74 126h85l-97 -126h-62
z" />
    <glyph glyph-name="OE" unicode="&#x152;" horiz-adv-x="1036" 
d="M46 324q0 139 98 236.5t240 97.5q92 0 168 -53v43h434v-71h-354v-196h329v-70h-329v-240h368v-71h-448v42q-71 -52 -168 -52q-143 0 -240.5 97.5t-97.5 236.5zM130 324q0 -108 74.5 -184.5t183.5 -76.5q98 0 164 61v399q-66 61 -164 61q-109 0 -183.5 -76t-74.5 -184z
" />
    <glyph glyph-name="oe" unicode="&#x153;" horiz-adv-x="993" 
d="M41 243q0 105 75 179.5t181 74.5q69 0 126.5 -37t87.5 -97q30 61 85 97.5t122 36.5q97 0 165.5 -74t68.5 -177l-2 -31h-397q10 -71 60.5 -114.5t118.5 -43.5q85 0 147 59l37 -56q-76 -70 -183 -70q-72 0 -133 36t-89 97q-30 -60 -87.5 -96.5t-126.5 -36.5
q-106 0 -181 74.5t-75 178.5zM119 243q0 -74 52 -126.5t126 -52.5t126 52.5t52 126.5t-52 127t-126 53t-126 -53t-52 -127zM552 275h323q-7 66 -52.5 110t-107.5 44q-61 0 -107 -44t-56 -110z" />
    <glyph glyph-name="Racute" unicode="&#x154;" horiz-adv-x="665" 
d="M76 0v648h265q132 0 205 -69t73 -174q0 -72 -39 -131t-109 -86l153 -188h-101l-131 165q-25 -3 -118 -3h-118v-162h-80zM156 233h193q83 0 134.5 49.5t51.5 122.5t-51.5 122.5t-133.5 49.5h-194v-344zM238 698l81 133h85l-94 -133h-72z" />
    <glyph glyph-name="racute" unicode="&#x155;" horiz-adv-x="350" 
d="M66 0v487h76v-103q22 50 70 81.5t118 31.5v-84q-82 0 -135 -47.5t-53 -150.5v-215h-76zM127 565l81 133h85l-94 -133h-72z" />
    <glyph glyph-name="Rcommaaccent" unicode="&#x156;" horiz-adv-x="665" 
d="M76 0v648h265q132 0 205 -69t73 -174q0 -72 -39 -131t-109 -86l153 -188h-101l-131 165q-25 -3 -118 -3h-118v-162h-80zM156 233h193q83 0 134.5 49.5t51.5 122.5t-51.5 122.5t-133.5 49.5h-194v-344zM224 -235q61 63 61 136q0 17 -9 35l58 20q11 -24 11 -46
q0 -49 -22.5 -87t-49.5 -58h-49z" />
    <glyph glyph-name="rcommaaccent" unicode="&#x157;" horiz-adv-x="350" 
d="M66 0v487h76v-103q22 50 70 81.5t118 31.5v-84q-82 0 -135 -47.5t-53 -150.5v-215h-76zM28 -235q61 63 61 136q0 17 -9 35l58 20q11 -24 11 -46q0 -49 -22.5 -87t-49.5 -58h-49z" />
    <glyph glyph-name="Rcaron" unicode="&#x158;" horiz-adv-x="665" 
d="M76 0v648h265q132 0 205 -69t73 -174q0 -72 -39 -131t-109 -86l153 -188h-101l-131 165q-25 -3 -118 -3h-118v-162h-80zM156 233h193q83 0 134.5 49.5t51.5 122.5t-51.5 122.5t-133.5 49.5h-194v-344zM257 698l-88 133h65l65 -87l66 87h65l-88 -133h-85z" />
    <glyph glyph-name="rcaron" unicode="&#x159;" horiz-adv-x="350" 
d="M66 0v487h76v-103q22 50 70 81.5t118 31.5v-84q-82 0 -135 -47.5t-53 -150.5v-215h-76zM152 559l-88 133h65l65 -87l66 87h65l-88 -133h-85z" />
    <glyph glyph-name="Sacute" unicode="&#x15a;" horiz-adv-x="599" 
d="M46 89l36 61q85 -87 216 -87q66 0 118.5 30.5t52.5 87.5q0 21 -10 38.5t-23 28.5t-37.5 21.5t-42.5 16t-48 12.5q-44 11 -69.5 18.5t-61.5 22.5t-55.5 32.5t-34 46t-14.5 64.5q0 81 67.5 128.5t158.5 47.5q123 0 220 -73l-37 -62q-81 62 -183 62q-51 0 -96.5 -26
t-45.5 -76q0 -20 9.5 -36t22 -26.5t36.5 -20t42.5 -14.5t51.5 -13q41 -10 70 -19t62.5 -25t53.5 -35t34 -48t14 -65q0 -92 -76 -141.5t-179 -49.5q-155 0 -252 99zM255 698l81 133h85l-94 -133h-72z" />
    <glyph glyph-name="sacute" unicode="&#x15b;" horiz-adv-x="472" 
d="M41 66l37 61q61 -63 153 -63q52 0 87 20.5t35 53.5q0 17 -9.5 30t-29 22t-36 14t-44.5 12q-41 10 -65.5 18.5t-52.5 24.5t-41 40.5t-13 58.5q0 62 54 100.5t121 38.5q89 0 168 -54l-37 -59q-57 39 -130 39q-39 0 -68.5 -18.5t-29.5 -45.5q0 -16 8 -28t27.5 -20.5t33 -12
t42.5 -10.5q40 -9 66.5 -18.5t55.5 -26t43.5 -42.5t14.5 -61q0 -73 -60 -111.5t-139 -38.5q-119 0 -191 76zM189 565l81 133h85l-94 -133h-72z" />
    <glyph glyph-name="Scircumflex" unicode="&#x15c;" horiz-adv-x="599" 
d="M46 89l36 61q85 -87 216 -87q66 0 118.5 30.5t52.5 87.5q0 21 -10 38.5t-23 28.5t-37.5 21.5t-42.5 16t-48 12.5q-44 11 -69.5 18.5t-61.5 22.5t-55.5 32.5t-34 46t-14.5 64.5q0 81 67.5 128.5t158.5 47.5q123 0 220 -73l-37 -62q-81 62 -183 62q-51 0 -96.5 -26
t-45.5 -76q0 -20 9.5 -36t22 -26.5t36.5 -20t42.5 -14.5t51.5 -13q41 -10 70 -19t62.5 -25t53.5 -35t34 -48t14 -65q0 -92 -76 -141.5t-179 -49.5q-155 0 -252 99zM172 698l88 133h85l88 -133h-65l-66 87l-66 -87h-64z" />
    <glyph glyph-name="scircumflex" unicode="&#x15d;" horiz-adv-x="472" 
d="M41 66l37 61q61 -63 153 -63q52 0 87 20.5t35 53.5q0 17 -9.5 30t-29 22t-36 14t-44.5 12q-41 10 -65.5 18.5t-52.5 24.5t-41 40.5t-13 58.5q0 62 54 100.5t121 38.5q89 0 168 -54l-37 -59q-57 39 -130 39q-39 0 -68.5 -18.5t-29.5 -45.5q0 -16 8 -28t27.5 -20.5t33 -12
t42.5 -10.5q40 -9 66.5 -18.5t55.5 -26t43.5 -42.5t14.5 -61q0 -73 -60 -111.5t-139 -38.5q-119 0 -191 76zM110 559l88 133h85l88 -133h-65l-66 87l-66 -87h-64z" />
    <glyph glyph-name="Scedilla" unicode="&#x15e;" horiz-adv-x="599" 
d="M204 -185l22 36q38 -24 83 -24q32 0 51 15.5t19 35.5q0 17 -13 25.5t-31 8.5q-17 0 -34 -8t-25 -19l-43 16l53 89q-148 4 -240 99l36 61q85 -87 216 -87q66 0 118.5 30.5t52.5 87.5q0 21 -10 38.5t-23 28.5t-37.5 21.5t-42.5 16t-48 12.5q-44 11 -69.5 18.5t-61.5 22.5
t-55.5 32.5t-34 46t-14.5 64.5q0 81 67.5 128.5t158.5 47.5q123 0 220 -73l-37 -62q-81 62 -183 62q-51 0 -96.5 -26t-45.5 -76q0 -20 9.5 -36t22 -26.5t36.5 -20t42.5 -14.5t51.5 -13q41 -10 70 -19t62.5 -25t53.5 -35t34 -48t14 -65q0 -83 -62.5 -131.5t-154.5 -57.5
l-30 -53q20 9 41 9q36 0 60.5 -18.5t24.5 -49.5q0 -40 -35 -66.5t-88 -26.5q-62 0 -105 28z" />
    <glyph glyph-name="scedilla" unicode="&#x15f;" horiz-adv-x="472" 
d="M138 -185l22 36q38 -24 83 -24q32 0 51 15.5t19 35.5q0 17 -13 25.5t-31 8.5q-17 0 -34 -8t-25 -19l-43 16l53 89q-113 4 -179 76l37 61q61 -63 153 -63q52 0 87 20.5t35 53.5q0 17 -9.5 30t-29 22t-36 14t-44.5 12q-41 10 -65.5 18.5t-52.5 24.5t-41 40.5t-13 58.5
q0 62 54 100.5t121 38.5q89 0 168 -54l-37 -59q-57 39 -130 39q-39 0 -68.5 -18.5t-29.5 -45.5q0 -16 8 -28t27.5 -20.5t33 -12t42.5 -10.5q40 -9 66.5 -18.5t55.5 -26t43.5 -42.5t14.5 -61q0 -63 -46.5 -101t-113.5 -46l-31 -54q20 9 41 9q36 0 60.5 -18.5t24.5 -49.5
q0 -40 -35 -66.5t-88 -26.5q-62 0 -105 28z" />
    <glyph glyph-name="Scaron" unicode="&#x160;" horiz-adv-x="599" 
d="M46 89l36 61q85 -87 216 -87q66 0 118.5 30.5t52.5 87.5q0 21 -10 38.5t-23 28.5t-37.5 21.5t-42.5 16t-48 12.5q-44 11 -69.5 18.5t-61.5 22.5t-55.5 32.5t-34 46t-14.5 64.5q0 81 67.5 128.5t158.5 47.5q123 0 220 -73l-37 -62q-81 62 -183 62q-51 0 -96.5 -26
t-45.5 -76q0 -20 9.5 -36t22 -26.5t36.5 -20t42.5 -14.5t51.5 -13q41 -10 70 -19t62.5 -25t53.5 -35t34 -48t14 -65q0 -92 -76 -141.5t-179 -49.5q-155 0 -252 99zM259 698l-88 133h65l65 -87l66 87h65l-88 -133h-85z" />
    <glyph glyph-name="scaron" unicode="&#x161;" horiz-adv-x="472" 
d="M41 66l37 61q61 -63 153 -63q52 0 87 20.5t35 53.5q0 17 -9.5 30t-29 22t-36 14t-44.5 12q-41 10 -65.5 18.5t-52.5 24.5t-41 40.5t-13 58.5q0 62 54 100.5t121 38.5q89 0 168 -54l-37 -59q-57 39 -130 39q-39 0 -68.5 -18.5t-29.5 -45.5q0 -16 8 -28t27.5 -20.5t33 -12
t42.5 -10.5q40 -9 66.5 -18.5t55.5 -26t43.5 -42.5t14.5 -61q0 -73 -60 -111.5t-139 -38.5q-119 0 -191 76zM198 559l-88 133h65l65 -87l66 87h65l-88 -133h-85z" />
    <glyph glyph-name="Tcommaaccent" unicode="&#x162;" horiz-adv-x="601" 
d="M260 0v577h-240v71h560v-71h-240v-577h-80zM220 -235q61 63 61 136q0 17 -9 35l58 20q11 -24 11 -46q0 -49 -22.5 -87t-49.5 -58h-49z" />
    <glyph glyph-name="tcommaaccent" unicode="&#x163;" horiz-adv-x="359" 
d="M86 146v276h-73v65h73v108l76 12v-120h167v-65h-167v-262q0 -102 69 -102q20 0 40 7t30 13l10 7l25 -59q-53 -36 -112 -36q-64 0 -101 38.5t-37 117.5zM120 -235q61 63 61 136q0 17 -9 35l58 20q11 -24 11 -46q0 -49 -22.5 -87t-49.5 -58h-49z" />
    <glyph glyph-name="Tcaron" unicode="&#x164;" horiz-adv-x="601" 
d="M260 0v577h-240v71h560v-71h-240v-577h-80zM258 698l-88 133h65l65 -87l66 87h65l-88 -133h-85z" />
    <glyph glyph-name="tcaron" unicode="&#x165;" horiz-adv-x="359" 
d="M86 146v276h-73v65h73v108l76 12v-120h167v-65h-167v-262q0 -102 69 -102q20 0 40 7t30 13l10 7l25 -59q-53 -36 -112 -36q-64 0 -101 38.5t-37 117.5zM206 524q23 19 40 47t17 56q0 16 -8 27l54 15q11 -18 11 -35q0 -37 -21.5 -66t-46.5 -44h-46z" />
    <glyph glyph-name="Tbar" unicode="&#x166;" horiz-adv-x="600" 
d="M260 0v348h-154v59h154v170h-240v71h560v-71h-240v-170h154v-59h-154v-348h-80z" />
    <glyph glyph-name="tbar" unicode="&#x167;" horiz-adv-x="359" 
d="M86 157v102h-52v47h52v116h-75v65h75v108l76 12v-120h167v-65h-167v-116h132v-47h-132v-106q0 -95 69 -95q20 0 40 7t30 13l10 7l26 -58q-52 -37 -113 -37q-138 0 -138 167z" />
    <glyph glyph-name="Utilde" unicode="&#x168;" horiz-adv-x="668" 
d="M334 -10q-113 0 -190.5 72.5t-77.5 187.5v398h80v-398q0 -82 54.5 -134.5t133.5 -52.5t133.5 52.5t54.5 134.5v398h80v-398q0 -115 -78 -187.5t-190 -72.5zM203 693q0 45 19.5 73.5t51.5 28.5q27 0 65 -23.5t49 -23.5q29 0 29 47h48q0 -45 -19.5 -73.5t-51.5 -28.5
q-27 0 -65 23.5t-48 23.5q-29 0 -29 -47h-49z" />
    <glyph glyph-name="utilde" unicode="&#x169;" horiz-adv-x="537" 
d="M56 186v301h76v-285q0 -138 125 -138q60 0 99 41t39 111v271h76v-487h-76v75q-52 -85 -157 -85q-89 0 -135.5 54.5t-46.5 141.5zM135 563q0 45 19.5 73.5t51.5 28.5q27 0 65 -23.5t49 -23.5q29 0 29 47h48q0 -45 -19.5 -73.5t-51.5 -28.5q-27 0 -65 23.5t-48 23.5
q-29 0 -29 -47h-49z" />
    <glyph glyph-name="Umacron" unicode="&#x16a;" horiz-adv-x="668" 
d="M334 -10q-113 0 -190.5 72.5t-77.5 187.5v398h80v-398q0 -82 54.5 -134.5t133.5 -52.5t133.5 52.5t54.5 134.5v398h80v-398q0 -115 -78 -187.5t-190 -72.5zM234 708v59h200v-59h-200z" />
    <glyph glyph-name="umacron" unicode="&#x16b;" horiz-adv-x="537" 
d="M56 186v301h76v-285q0 -138 125 -138q60 0 99 41t39 111v271h76v-487h-76v75q-52 -85 -157 -85q-89 0 -135.5 54.5t-46.5 141.5zM167 570v59h200v-59h-200z" />
    <glyph glyph-name="Ubreve" unicode="&#x16c;" horiz-adv-x="668" 
d="M334 -10q-113 0 -190.5 72.5t-77.5 187.5v398h80v-398q0 -82 54.5 -134.5t133.5 -52.5t133.5 52.5t54.5 134.5v398h80v-398q0 -115 -78 -187.5t-190 -72.5zM334 693q-47 0 -75.5 31t-28.5 76h46q3 -25 19 -38.5t39 -13.5t39 13.5t18 38.5h47q0 -45 -28.5 -76t-75.5 -31z
" />
    <glyph glyph-name="ubreve" unicode="&#x16d;" horiz-adv-x="537" 
d="M56 186v301h76v-285q0 -138 125 -138q60 0 99 41t39 111v271h76v-487h-76v75q-52 -85 -157 -85q-89 0 -135.5 54.5t-46.5 141.5zM267 554q-47 0 -75.5 31t-28.5 76h46q3 -25 19 -38.5t39 -13.5t39 13.5t18 38.5h47q0 -45 -28.5 -76t-75.5 -31z" />
    <glyph glyph-name="Uring" unicode="&#x16e;" horiz-adv-x="668" 
d="M334 -10q-113 0 -190.5 72.5t-77.5 187.5v398h80v-398q0 -82 54.5 -134.5t133.5 -52.5t133.5 52.5t54.5 134.5v398h80v-398q0 -115 -78 -187.5t-190 -72.5zM235 778q0 41 29 70t70 29t70 -29t29 -70t-29 -70.5t-70 -29.5t-70 29.5t-29 70.5zM280 778q0 -24 15.5 -41
t38.5 -17t38.5 17t15.5 41q0 23 -15.5 40t-38.5 17t-38.5 -17t-15.5 -40z" />
    <glyph glyph-name="uring" unicode="&#x16f;" horiz-adv-x="537" 
d="M56 186v301h76v-285q0 -138 125 -138q60 0 99 41t39 111v271h76v-487h-76v75q-52 -85 -157 -85q-89 0 -135.5 54.5t-46.5 141.5zM168 627q0 41 29 70t70 29t70 -29t29 -70t-29 -70.5t-70 -29.5t-70 29.5t-29 70.5zM213 627q0 -24 15.5 -41t38.5 -17t38.5 17t15.5 41
q0 23 -15.5 40t-38.5 17t-38.5 -17t-15.5 -40z" />
    <glyph glyph-name="Uhungarumlaut" unicode="&#x170;" horiz-adv-x="668" 
d="M334 -10q-113 0 -190.5 72.5t-77.5 187.5v398h80v-398q0 -82 54.5 -134.5t133.5 -52.5t133.5 52.5t54.5 134.5v398h80v-398q0 -115 -78 -187.5t-190 -72.5zM224 695l74 126h85l-97 -126h-62zM352 695l74 126h85l-97 -126h-62z" />
    <glyph glyph-name="uhungarumlaut" unicode="&#x171;" horiz-adv-x="537" 
d="M56 186v301h76v-285q0 -138 125 -138q60 0 99 41t39 111v271h76v-487h-76v75q-52 -85 -157 -85q-89 0 -135.5 54.5t-46.5 141.5zM145 557l74 126h85l-97 -126h-62zM273 557l74 126h85l-97 -126h-62z" />
    <glyph glyph-name="Uogonek" unicode="&#x172;" horiz-adv-x="668" 
d="M309 -128q0 66 44 119q-6 -1 -19 -1q-113 0 -190.5 72.5t-77.5 187.5v398h80v-398q0 -82 54.5 -134.5t133.5 -52.5t133.5 52.5t54.5 134.5v398h80v-398q0 -93 -52.5 -159.5t-135.5 -89.5q-21 -19 -35 -50t-14 -59q0 -26 15.5 -42t40.5 -16q18 0 40 11l16 -40
q-33 -25 -74 -25q-38 0 -66 24.5t-28 67.5z" />
    <glyph glyph-name="uogonek" unicode="&#x173;" horiz-adv-x="537" 
d="M337 -128q0 77 58 133v70q-52 -85 -157 -85q-89 0 -135.5 54.5t-46.5 141.5v301h76v-285q0 -138 125 -138q60 0 99 41t39 111v271h76v-487h-30q-20 -19 -34 -49.5t-14 -58.5q0 -26 15.5 -42t40.5 -16q18 0 40 11l16 -40q-33 -25 -74 -25q-38 0 -66 24.5t-28 67.5z" />
    <glyph glyph-name="Wcircumflex" unicode="&#x174;" horiz-adv-x="933" 
d="M227 -3l-217 651h81l150 -451l26 -88q11 49 23 88l135 451h83l135 -451l23 -88q13 49 26 88l151 451h80l-217 -651h-79l-137 446q-7 21 -12.5 46.5t-7.5 40.5l-3 15q-9 -54 -24 -102l-137 -446h-79zM336 698l88 133h85l88 -133h-65l-66 87l-66 -87h-64z" />
    <glyph glyph-name="wcircumflex" unicode="&#x175;" horiz-adv-x="712" 
d="M172 -3l-167 490h75l110 -323l17 -71q6 39 15 71l96 323h76l97 -323l15 -71q6 39 17 71l109 323h75l-166 -490h-69l-100 325l-16 71q-6 -41 -15 -71l-100 -325h-69zM226 559l88 133h85l88 -133h-65l-66 87l-66 -87h-64z" />
    <glyph glyph-name="Ycircumflex" unicode="&#x176;" horiz-adv-x="623" 
d="M272 0v307l-262 341h94l131 -166q16 -20 35.5 -47t30.5 -44l11 -17q44 64 78 108l129 166h94l-261 -340v-308h-80zM182 698l88 133h85l88 -133h-65l-66 87l-66 -87h-64z" />
    <glyph glyph-name="ycircumflex" unicode="&#x177;" horiz-adv-x="526" 
d="M106 -147v72q43 0 68.5 17.5t48.5 67.5l10 22l-222 455h81l144 -305l33 -76l33 79l131 302h79l-228 -511q-18 -41 -40 -67.5t-47.5 -37.5t-44.5 -14.5t-46 -3.5zM135 559l88 133h85l88 -133h-65l-66 87l-66 -87h-64z" />
    <glyph glyph-name="Ydieresis" unicode="&#x178;" horiz-adv-x="623" 
d="M272 0v307l-262 341h94l131 -166q16 -20 35.5 -47t30.5 -44l11 -17q44 64 78 108l129 166h94l-261 -340v-308h-80zM189 738q0 19 13 32t32 13q18 0 31 -13t13 -32q0 -18 -13 -31t-31 -13q-19 0 -32 13t-13 31zM346 738q0 19 13.5 32t32.5 13q18 0 31 -13t13 -32
q0 -18 -13 -31t-31 -13q-19 0 -32.5 13t-13.5 31z" />
    <glyph glyph-name="Zacute" unicode="&#x179;" horiz-adv-x="602" 
d="M36 0v66l373 455q13 16 26 30t19 20l7 6h-407v71h502v-66l-368 -449l-54 -62h432v-71h-530zM249 698l81 133h85l-94 -133h-72z" />
    <glyph glyph-name="zacute" unicode="&#x17a;" horiz-adv-x="455" 
d="M26 0v60l235 287q12 16 28 33.5t26 27.5l10 10h-289v69h382v-60l-234 -283l-66 -75h309v-69h-401zM175 565l81 133h85l-94 -133h-72z" />
    <glyph glyph-name="Zdotaccent" unicode="&#x17b;" horiz-adv-x="602" 
d="M36 0v66l373 455q13 16 26 30t19 20l7 6h-407v71h502v-66l-368 -449l-54 -62h432v-71h-530zM250 743q0 21 15 36t36 15q20 0 35 -15t15 -36q0 -20 -15 -35t-35 -15q-21 0 -36 15t-15 35z" />
    <glyph glyph-name="zdotaccent" unicode="&#x17c;" horiz-adv-x="453" 
d="M26 0v60l235 287q12 16 28 33.5t26 27.5l10 10h-289v69h382v-60l-234 -283l-66 -75h309v-69h-401zM175 624q0 21 15 36t36 15q20 0 35 -15t15 -36q0 -20 -15 -35t-35 -15q-21 0 -36 15t-15 35z" />
    <glyph glyph-name="Zcaron" unicode="&#x17d;" horiz-adv-x="602" 
d="M36 0v66l373 455q13 16 26 30t19 20l7 6h-407v71h502v-66l-368 -449l-54 -62h432v-71h-530zM259 698l-88 133h65l65 -87l66 87h65l-88 -133h-85z" />
    <glyph glyph-name="zcaron" unicode="&#x17e;" horiz-adv-x="454" 
d="M26 0v60l235 287q12 16 28 33.5t26 27.5l10 10h-289v69h382v-60l-234 -283l-66 -75h309v-69h-401zM184 559l-88 133h65l65 -87l66 87h65l-88 -133h-85z" />
    <glyph glyph-name="florin" unicode="&#x192;" 
d="M-17 -55l40 49q33 -33 72 -33q58 0 76 70l86 321h-74l16 58h74l38 137q32 110 124 110q24 0 47.5 -7.5t35.5 -15.5l12 -8l-21 -57q-28 19 -57 19q-28 0 -43.5 -18t-24.5 -53l-30 -107h124l-16 -58h-123l-88 -324q-37 -138 -149 -138q-67 0 -119 55z" />
    <glyph glyph-name="Aringacute" unicode="&#x1fa;" horiz-adv-x="697" 
d="M8 0l306 648h69l306 -648h-83l-60 126h-396l-60 -126h-82zM180 192h336l-109 228q-9 18 -59 135l-9 -23q-9 -22 -23 -54.5t-26 -58.5zM249 772q0 58 52 87l71 126h79l-77 -118q32 -8 52.5 -34.5t20.5 -60.5q0 -41 -29 -70.5t-70 -29.5t-70 29.5t-29 70.5zM294 772
q0 -24 15.5 -41t38.5 -17t38.5 17t15.5 41q0 23 -15.5 40t-38.5 17t-38.5 -17t-15.5 -40z" />
    <glyph glyph-name="aringacute" unicode="&#x1fb;" horiz-adv-x="596" 
d="M41 243q0 106 67.5 180t167.5 74q117 0 178 -94v84h76v-487h-76v83q-60 -93 -178 -93q-100 0 -167.5 74t-67.5 179zM119 243q0 -76 48.5 -127.5t120.5 -51.5q70 0 118 51t48 128q0 76 -47.5 128t-118.5 52q-72 0 -120.5 -52t-48.5 -128zM188 647q0 27 13.5 50t36.5 36
l72 127h79l-77 -118q32 -8 53 -34.5t21 -60.5q0 -41 -29 -70.5t-70 -29.5t-70 29.5t-29 70.5zM233 647q0 -24 15.5 -41t38.5 -17t38.5 17t15.5 41q0 23 -15.5 40t-38.5 17t-38.5 -17t-15.5 -40z" />
    <glyph glyph-name="AEacute" unicode="&#x1fc;" horiz-adv-x="946" 
d="M8 0l421 648h467v-71h-354v-195h328v-70h-328v-241h368v-71h-448v126h-284l-81 -126h-89zM220 192h242v384q-25 -46 -53 -90zM556 698l81 133h85l-94 -133h-72z" />
    <glyph glyph-name="aeacute" unicode="&#x1fd;" horiz-adv-x="916" 
d="M41 133q0 45 21 78t58 51t78.5 26t89.5 8q65 0 113 -5q-2 67 -39 102.5t-100 35.5q-43 0 -80.5 -10t-53.5 -20l-16 -10l-31 55q7 6 21 15t60.5 23.5t97.5 14.5q143 0 191 -117q31 54 84 85.5t116 31.5q97 0 165.5 -74t68.5 -177l-2 -31h-397q10 -70 61.5 -113.5
t121.5 -43.5q84 0 145 56l34 -56q-78 -68 -183 -68q-72 0 -131 33.5t-88 91.5q-28 -60 -90.5 -92.5t-138.5 -32.5q-79 0 -127.5 38t-48.5 105zM117 139q0 -40 29.5 -61t74.5 -21q88 0 136.5 45.5t48.5 115.5v17q-30 3 -118 3q-72 0 -121.5 -23.5t-49.5 -75.5zM486 275h322
q-7 66 -52.5 110t-107.5 44q-61 0 -107 -44t-55 -110zM385 565l81 133h85l-94 -133h-72z" />
    <glyph glyph-name="Oslashacute" unicode="&#x1fe;" horiz-adv-x="767" 
d="M339 698l81 133h85l-94 -133h-72zM384 658q82 0 152 -36l56 93l40 -24l-55 -92q67 -46 106 -118.5t39 -156.5q0 -139 -97.5 -236.5t-240.5 -97.5q-82 0 -153 34l-55 -92l-40 23l55 93q-68 46 -106.5 118.5t-38.5 157.5q0 139 98 236.5t240 97.5zM130 324q0 -63 27 -118.5
t74 -91.5l267 444q-54 27 -114 27q-107 0 -180.5 -76t-73.5 -185zM384 63q107 0 180.5 76.5t73.5 184.5q0 63 -27 117.5t-74 91.5l-266 -443q54 -27 113 -27z" />
    <glyph glyph-name="oslashacute" unicode="&#x1ff;" horiz-adv-x="594" 
d="M248 565l81 133h85l-94 -133h-72zM41 243q0 105 75 179.5t181 74.5q57 0 109 -25l47 78l38 -23l-46 -77q50 -35 79 -89.5t29 -117.5q0 -104 -75 -178.5t-181 -74.5q-55 0 -112 25l-44 -74l-39 23l45 74q-49 35 -77.5 89t-28.5 116zM223 79q33 -15 74 -15q74 0 126 52.5
t52 126.5q0 89 -69 142zM119 243q0 -86 67 -140l181 305q-31 15 -70 15q-74 0 -126 -53t-52 -127z" />
    <glyph glyph-name="Scommaaccent" unicode="&#x218;" horiz-adv-x="599" 
d="M46 89l36 61q85 -87 216 -87q66 0 118.5 30.5t52.5 87.5q0 21 -10 38.5t-23 28.5t-37.5 21.5t-42.5 16t-48 12.5q-44 11 -69.5 18.5t-61.5 22.5t-55.5 32.5t-34 46t-14.5 64.5q0 81 67.5 128.5t158.5 47.5q123 0 220 -73l-37 -62q-81 62 -183 62q-51 0 -96.5 -26
t-45.5 -76q0 -20 9.5 -36t22 -26.5t36.5 -20t42.5 -14.5t51.5 -13q41 -10 70 -19t62.5 -25t53.5 -35t34 -48t14 -65q0 -92 -76 -141.5t-179 -49.5q-155 0 -252 99zM225 -235q61 63 61 136q0 17 -9 35l58 20q11 -24 11 -46q0 -49 -22.5 -87t-49.5 -58h-49z" />
    <glyph glyph-name="scommaaccent" unicode="&#x219;" horiz-adv-x="472" 
d="M41 66l37 61q61 -63 153 -63q52 0 87 20.5t35 53.5q0 17 -9.5 30t-29 22t-36 14t-44.5 12q-41 10 -65.5 18.5t-52.5 24.5t-41 40.5t-13 58.5q0 62 54 100.5t121 38.5q89 0 168 -54l-37 -59q-57 39 -130 39q-39 0 -68.5 -18.5t-29.5 -45.5q0 -16 8 -28t27.5 -20.5t33 -12
t42.5 -10.5q40 -9 66.5 -18.5t55.5 -26t43.5 -42.5t14.5 -61q0 -73 -60 -111.5t-139 -38.5q-119 0 -191 76zM159 -235q61 63 61 136q0 17 -9 35l58 20q11 -24 11 -46q0 -49 -22.5 -87t-49.5 -58h-49z" />
    <glyph glyph-name="circumflex" unicode="&#x2c6;" horiz-adv-x="340" 
d="M40 559l88 133h85l88 -133h-65l-66 87l-66 -87h-64z" />
    <glyph glyph-name="caron" unicode="&#x2c7;" horiz-adv-x="340" 
d="M127 559l-88 133h65l65 -87l66 87h65l-88 -133h-85z" />
    <glyph glyph-name="breve" unicode="&#x2d8;" horiz-adv-x="340" 
d="M170 554q-47 0 -75.5 31t-28.5 76h46q3 -25 19 -38.5t39 -13.5t39 13.5t18 38.5h47q0 -45 -28.5 -76t-75.5 -31z" />
    <glyph glyph-name="dotaccent" unicode="&#x2d9;" horiz-adv-x="340" 
d="M119 624q0 21 15 36t36 15q20 0 35 -15t15 -36q0 -20 -15 -35t-35 -15q-21 0 -36 15t-15 35z" />
    <glyph glyph-name="ring" unicode="&#x2da;" horiz-adv-x="340" 
d="M71 627q0 41 29 70t70 29t70 -29t29 -70t-29 -70.5t-70 -29.5t-70 29.5t-29 70.5zM116 627q0 -24 15.5 -41t38.5 -17t38.5 17t15.5 41q0 23 -15.5 40t-38.5 17t-38.5 -17t-15.5 -40z" />
    <glyph glyph-name="ogonek" unicode="&#x2db;" horiz-adv-x="340" 
d="M86 -128q0 77 58 133h52q-23 -18 -38.5 -51t-15.5 -62q0 -26 16 -42t40 -16q18 0 40 11l16 -40q-33 -25 -74 -25q-38 0 -66 24.5t-28 67.5z" />
    <glyph glyph-name="tilde" unicode="&#x2dc;" horiz-adv-x="340" 
d="M38 563q0 45 19.5 73.5t51.5 28.5q27 0 65 -23.5t49 -23.5q29 0 29 47h48q0 -45 -19.5 -73.5t-51.5 -28.5q-27 0 -65 23.5t-48 23.5q-29 0 -29 -47h-49z" />
    <glyph glyph-name="hungarumlaut" unicode="&#x2dd;" horiz-adv-x="340" 
d="M26 557l74 126h85l-97 -126h-62zM154 557l74 126h85l-97 -126h-62z" />
    <glyph glyph-name="pi" unicode="&#x3c0;" horiz-adv-x="749" 
d="M40 324q0 139 98 237t236 98q139 0 237 -98t98 -237q0 -138 -98 -236t-237 -98q-138 0 -236 98t-98 236zM236 127v393h178q67 0 113 -46.5t46 -112.5q0 -67 -46 -113.5t-113 -46.5h-131v-74h-47zM283 249h131q47 0 79 32.5t32 79.5q0 46 -32 79.5t-79 33.5h-131v-225z
M80 324q0 -122 86.5 -209.5t207.5 -87.5q122 0 208 87t86 210t-86 210t-208 87q-121 0 -207.5 -87.5t-86.5 -209.5z" />
    <glyph glyph-name="Wgrave" unicode="&#x1e80;" horiz-adv-x="933" 
d="M227 -3l-217 651h81l150 -451l26 -88q11 49 23 88l135 451h83l135 -451l23 -88q13 49 26 88l151 451h80l-217 -651h-79l-137 446q-7 21 -12.5 46.5t-7.5 40.5l-3 15q-9 -54 -24 -102l-137 -446h-79zM443 698l-94 133h85l81 -133h-72z" />
    <glyph glyph-name="wgrave" unicode="&#x1e81;" horiz-adv-x="712" 
d="M172 -3l-167 490h75l110 -323l17 -71q6 39 15 71l96 323h76l97 -323l15 -71q6 39 17 71l109 323h75l-166 -490h-69l-100 325l-16 71q-6 -41 -15 -71l-100 -325h-69zM333 565l-94 133h85l81 -133h-72z" />
    <glyph glyph-name="Wacute" unicode="&#x1e82;" horiz-adv-x="933" 
d="M227 -3l-217 651h81l150 -451l26 -88q11 49 23 88l135 451h83l135 -451l23 -88q13 49 26 88l151 451h80l-217 -651h-79l-137 446q-7 21 -12.5 46.5t-7.5 40.5l-3 15q-9 -54 -24 -102l-137 -446h-79zM413 698l81 133h85l-94 -133h-72z" />
    <glyph glyph-name="wacute" unicode="&#x1e83;" horiz-adv-x="712" 
d="M172 -3l-167 490h75l110 -323l17 -71q6 39 15 71l96 323h76l97 -323l15 -71q6 39 17 71l109 323h75l-166 -490h-69l-100 325l-16 71q-6 -41 -15 -71l-100 -325h-69zM307 565l81 133h85l-94 -133h-72z" />
    <glyph glyph-name="Wdieresis" unicode="&#x1e84;" horiz-adv-x="933" 
d="M227 -3l-217 651h81l150 -451l26 -88q11 49 23 88l135 451h83l135 -451l23 -88q13 49 26 88l151 451h80l-217 -651h-79l-137 446q-7 21 -12.5 46.5t-7.5 40.5l-3 15q-9 -54 -24 -102l-137 -446h-79zM343 747q0 19 13 32t32 13q18 0 31 -13t13 -32q0 -18 -13 -31t-31 -13
q-19 0 -32 13t-13 31zM500 747q0 19 13.5 32t32.5 13q18 0 31 -13t13 -32q0 -18 -13 -31t-31 -13q-19 0 -32.5 13t-13.5 31z" />
    <glyph glyph-name="wdieresis" unicode="&#x1e85;" horiz-adv-x="712" 
d="M172 -3l-167 490h75l110 -323l17 -71q6 39 15 71l96 323h76l97 -323l15 -71q6 39 17 71l109 323h75l-166 -490h-69l-100 325l-16 71q-6 -41 -15 -71l-100 -325h-69zM233 615q0 19 13 32t32 13q18 0 31 -13t13 -32q0 -18 -13 -31t-31 -13q-19 0 -32 13t-13 31zM390 615
q0 19 13.5 32t32.5 13q18 0 31 -13t13 -32q0 -18 -13 -31t-31 -13q-19 0 -32.5 13t-13.5 31z" />
    <glyph glyph-name="Ygrave" unicode="&#x1ef2;" horiz-adv-x="623" 
d="M272 0v307l-262 341h94l131 -166q16 -20 35.5 -47t30.5 -44l11 -17q44 64 78 108l129 166h94l-261 -340v-308h-80zM286 698l-94 133h85l81 -133h-72z" />
    <glyph glyph-name="ygrave" unicode="&#x1ef3;" horiz-adv-x="526" 
d="M106 -147v72q43 0 68.5 17.5t48.5 67.5l10 22l-222 455h81l144 -305l33 -76l33 79l131 302h79l-228 -511q-18 -41 -40 -67.5t-47.5 -37.5t-44.5 -14.5t-46 -3.5zM244 565l-94 133h85l81 -133h-72z" />
    <glyph glyph-name="endash" unicode="&#x2013;" horiz-adv-x="595" 
d="M20 203v68h555v-68h-555z" />
    <glyph glyph-name="emdash" unicode="&#x2014;" horiz-adv-x="708" 
d="M20 203v68h668v-68h-668z" />
    <glyph glyph-name="quoteleft" unicode="&#x2018;" horiz-adv-x="211" 
d="M41 419l70 229h59l-49 -229h-80z" />
    <glyph glyph-name="quoteright" unicode="&#x2019;" horiz-adv-x="211" 
d="M41 419l49 229h80l-70 -229h-59z" />
    <glyph glyph-name="quotesinglbase" unicode="&#x201a;" horiz-adv-x="211" 
d="M41 -137l49 229h80l-70 -229h-59z" />
    <glyph glyph-name="quotedblleft" unicode="&#x201c;" horiz-adv-x="362" 
d="M41 419l70 229h59l-49 -229h-80zM192 419l70 229h59l-49 -229h-80z" />
    <glyph glyph-name="quotedblright" unicode="&#x201d;" horiz-adv-x="362" 
d="M41 419l49 229h80l-70 -229h-59zM192 419l49 229h80l-70 -229h-59z" />
    <glyph glyph-name="quotedblbase" unicode="&#x201e;" horiz-adv-x="362" 
d="M41 -137l49 229h80l-70 -229h-59zM192 -137l49 229h80l-70 -229h-59z" />
    <glyph glyph-name="dagger" unicode="&#x2020;" horiz-adv-x="423" 
d="M177 145v340h-141v58h141v171h63v-171h142v-58h-142v-340h-63z" />
    <glyph glyph-name="daggerdbl" unicode="&#x2021;" horiz-adv-x="423" 
d="M177 18v208h-141v58h141v201h-141v58h141v171h63v-171h142v-58h-142v-201h142v-58h-142v-208h-63z" />
    <glyph glyph-name="bullet" unicode="&#x2022;" horiz-adv-x="370" 
d="M56 279q0 54 38 91.5t91 37.5q54 0 91.5 -37.5t37.5 -91.5q0 -53 -37.5 -91t-91.5 -38q-53 0 -91 38t-38 91z" />
    <glyph glyph-name="ellipsis" unicode="&#x2026;" horiz-adv-x="677" 
d="M50 45q0 23 16 39t39 16t39 -16t16 -39t-16 -39t-39 -16t-39 16t-16 39zM284 45q0 23 16 39t39 16t39 -16t16 -39t-16 -39t-39 -16t-39 16t-16 39zM516 45q0 23 16 39t39 16t39.5 -16t16.5 -39t-16.5 -39t-39.5 -16t-39 16t-16 39z" />
    <glyph glyph-name="perthousand" unicode="&#x2030;" horiz-adv-x="1212" 
d="M111 460q0 -62 24.5 -101.5t65.5 -39.5q39 0 64 40t25 101t-25 101t-64 40q-41 0 -65.5 -39.5t-24.5 -101.5zM50 460q0 87 42.5 142.5t108.5 55.5q65 0 107.5 -55.5t42.5 -142.5t-42.5 -142.5t-107.5 -55.5q-66 0 -108.5 55.5t-42.5 142.5zM562 188q0 -61 24.5 -100.5
t64.5 -39.5t65 39.5t25 100.5t-25 101t-65 40t-64.5 -39.5t-24.5 -101.5zM501 188q0 87 42 142.5t108 55.5t108.5 -55.5t42.5 -142.5t-42.5 -142.5t-108.5 -55.5q-65 0 -107.5 55.5t-42.5 142.5zM922 188q0 -62 24.5 -101t65.5 -39q40 0 65 39.5t25 100.5t-25 101t-65 40
q-41 0 -65.5 -39.5t-24.5 -101.5zM861 188q0 87 42.5 142.5t108.5 55.5t108 -55t42 -143q0 -87 -42 -142.5t-108 -55.5t-108.5 55.5t-42.5 142.5zM208 10l398 663l44 -25l-398 -663z" />
    <glyph glyph-name="guilsinglleft" unicode="&#x2039;" horiz-adv-x="277" 
d="M33 223v39l170 167l38 -38l-139 -148l139 -149l-38 -38z" />
    <glyph glyph-name="guilsinglright" unicode="&#x203a;" horiz-adv-x="277" 
d="M72 56l-38 38l139 149l-139 148l38 38l171 -167v-39z" />
    <glyph glyph-name="fraction" unicode="&#x2044;" horiz-adv-x="484" 
d="M39 10l398 663l44 -25l-398 -663z" />
    <glyph glyph-name="zerosuperior" unicode="&#x2070;" horiz-adv-x="440" 
d="M110 522q0 -78 30.5 -127t79.5 -49t79.5 49t30.5 127q0 77 -30.5 126.5t-79.5 49.5t-79.5 -49.5t-30.5 -126.5zM40 522q0 103 50.5 169.5t129.5 66.5q78 0 128.5 -66.5t50.5 -169.5t-50.5 -169.5t-128.5 -66.5q-79 0 -129.5 66.5t-50.5 169.5z" />
    <glyph glyph-name="foursuperior" unicode="&#x2074;" horiz-adv-x="406" 
d="M251 292v97h-215v47l189 322l55 -27l-168 -282h139v104h66v-104h54v-60h-54v-97h-66z" />
    <glyph glyph-name="fivesuperior" unicode="&#x2075;" horiz-adv-x="395" 
d="M40 327l28 51q44 -37 113 -37q51 0 80 27t29 65q0 44 -30.5 68.5t-75.5 24.5q-51 0 -96 -31l-33 25v228h278v-60h-216v-119q34 14 77 14q69 0 115.5 -40t46.5 -110q0 -66 -46.5 -110t-127.5 -44q-83 0 -142 48z" />
    <glyph glyph-name="sixsuperior" unicode="&#x2076;" horiz-adv-x="424" 
d="M45 450q0 55 44 111l165 205l48 -40l-101 -120q13 2 18 2q68 0 114 -46t46 -112q0 -69 -47.5 -117t-119.5 -48q-73 0 -120 48t-47 117zM112 448q0 -43 29 -72.5t70 -29.5q43 0 72 29.5t29 72.5q0 44 -29 74t-72 30q-41 0 -70 -30t-29 -74z" />
    <glyph glyph-name="sevensuperior" unicode="&#x2077;" horiz-adv-x="361" 
d="M59 291l206 399h-243v60h322v-47l-213 -412h-72z" />
    <glyph glyph-name="eightsuperior" unicode="&#x2078;" horiz-adv-x="424" 
d="M43 433q0 42 21 75.5t58 49.5q-45 35 -45 85t38 82t97 32t96.5 -32t37.5 -82t-45 -85q37 -16 58 -49.5t21 -75.5q0 -66 -46.5 -107t-121.5 -41t-122 41t-47 107zM113 436q0 -40 27 -64.5t72 -24.5t72 25t27 64t-25.5 63.5t-73.5 24.5t-73.5 -24.5t-25.5 -63.5zM140 639
q0 -26 19 -43.5t53 -17.5q33 0 52 17.5t19 43.5q0 27 -20 44t-51 17q-32 0 -52 -17t-20 -44z" />
    <glyph glyph-name="ninesuperior" unicode="&#x2079;" horiz-adv-x="424" 
d="M127 322l96 114q-9 -2 -17 -2q-68 0 -114.5 46t-46.5 112q0 69 47.5 116.5t120.5 47.5q72 0 119 -47.5t47 -116.5q0 -55 -44 -111l-160 -199zM112 593q0 -44 29 -73.5t72 -29.5q41 0 70 30t29 73t-29 73t-70 30q-43 0 -72 -30t-29 -73z" />
    <glyph glyph-name="n.sups" unicode="&#x207f;" horiz-adv-x="378" 
d="M52 331v321h62v-35q36 42 98 42q60 0 90 -35.5t30 -97.5v-195h-62v187q0 80 -71 80q-35 0 -60 -24.5t-25 -63.5v-179h-62z" />
    <glyph glyph-name="zeroinferior" unicode="&#x2080;" horiz-adv-x="440" 
d="M110 121q0 -78 30.5 -127t79.5 -49t79.5 49t30.5 127q0 77 -30.5 126.5t-79.5 49.5t-79.5 -49.5t-30.5 -126.5zM40 121q0 103 50.5 169.5t129.5 66.5q78 0 128.5 -66.5t50.5 -169.5t-50.5 -169.5t-128.5 -66.5q-79 0 -129.5 66.5t-50.5 169.5z" />
    <glyph glyph-name="oneinferior" unicode="&#x2081;" horiz-adv-x="320" 
d="M161 -110v371l-105 -77l-29 46l149 119h50v-459h-65z" />
    <glyph glyph-name="twoinferior" unicode="&#x2082;" horiz-adv-x="387" 
d="M31 -110v47q136 119 187 175.5t51 104.5q0 34 -23 56t-64 22q-64 0 -111 -56l-36 45q64 71 152 71q70 0 110.5 -37.5t40.5 -96.5q0 -65 -52.5 -127.5t-154.5 -143.5h217v-60h-317z" />
    <glyph glyph-name="threeinferior" unicode="&#x2083;" horiz-adv-x="401" 
d="M30 -61l34 46q43 -41 114 -41q53 0 82 29.5t29 68.5q0 37 -26.5 63t-77.5 26q-35 0 -67 -20l-25 39l153 140h-200v59h289v-52l-125 -118h4q61 0 103 -41t42 -99q0 -63 -48.5 -109t-130.5 -46q-96 0 -150 55z" />
    <glyph glyph-name="fourinferior" unicode="&#x2084;" horiz-adv-x="406" 
d="M251 -109v97h-215v47l189 322l55 -27l-168 -282h139v104h66v-104h54v-60h-54v-97h-66z" />
    <glyph glyph-name="fiveinferior" unicode="&#x2085;" horiz-adv-x="395" 
d="M40 -73l28 51q44 -37 113 -37q51 0 80 27t29 65q0 44 -30.5 68.5t-75.5 24.5q-51 0 -96 -31l-33 25v228h278v-60h-216v-119q34 14 77 14q69 0 115.5 -40t46.5 -110q0 -66 -46.5 -110t-127.5 -44q-83 0 -142 48z" />
    <glyph glyph-name="sixinferior" unicode="&#x2086;" horiz-adv-x="424" 
d="M45 49q0 55 44 111l165 205l48 -40l-101 -120q13 2 18 2q68 0 114 -46t46 -112q0 -69 -47.5 -117t-119.5 -48q-73 0 -120 48t-47 117zM112 47q0 -43 29 -72.5t70 -29.5q43 0 72 29.5t29 72.5q0 44 -29 74t-72 30q-41 0 -70 -30t-29 -74z" />
    <glyph glyph-name="seveninferior" unicode="&#x2087;" horiz-adv-x="361" 
d="M59 -110l206 399h-243v60h322v-47l-213 -412h-72z" />
    <glyph glyph-name="eightinferior" unicode="&#x2088;" horiz-adv-x="424" 
d="M43 32q0 42 21 75.5t58 49.5q-45 35 -45 85t38 82t97 32t96.5 -32t37.5 -82t-45 -85q37 -16 58 -49.5t21 -75.5q0 -66 -46.5 -107t-121.5 -41t-122 41t-47 107zM113 35q0 -40 27 -64.5t72 -24.5t72 25t27 64t-25.5 63.5t-73.5 24.5t-73.5 -24.5t-25.5 -63.5zM140 238
q0 -26 19 -43.5t53 -17.5q33 0 52 17.5t19 43.5q0 27 -20 44t-51 17q-32 0 -52 -17t-20 -44z" />
    <glyph glyph-name="nineinferior" unicode="&#x2089;" horiz-adv-x="424" 
d="M127 -79l96 114q-9 -2 -17 -2q-68 0 -114.5 46t-46.5 112q0 69 47.5 116.5t120.5 47.5q72 0 119 -47.5t47 -116.5q0 -55 -44 -111l-160 -199zM112 192q0 -44 29 -73.5t72 -29.5q41 0 70 30t29 73t-29 73t-70 30q-43 0 -72 -30t-29 -73z" />
    <glyph glyph-name="Euro" unicode="&#x20ac;" horiz-adv-x="582" 
d="M34 232l15 56h57q0 5 -0.5 18t-0.5 20q0 26 2 34h-63l15 55h54q23 111 92.5 177t167.5 66q116 0 190 -96l-47 -49q-56 74 -140 74q-66 0 -114 -47t-66 -125h258l-14 -55h-254q-2 -6 -2 -34l2 -38h239l-15 -56h-215q18 -78 66 -125t114 -47q91 0 152 90l52 -44
q-75 -116 -206 -116q-97 0 -167 66t-92 176h-80z" />
    <glyph glyph-name="trademark" unicode="&#x2122;" horiz-adv-x="796" 
d="M310 359v289h41l105 -104l104 104h42v-289h-57v196l-89 -87l-91 88v-197h-55zM118 359v237h-97v52h250v-52h-97v-237h-56z" />
    <glyph glyph-name="minus" unicode="&#x2212;" 
d="M61 232v65h446v-65h-446z" />
    <glyph glyph-name="approxequal" unicode="&#x2248;" 
d="M82 288q0 49 25 84t78 35q38 0 95.5 -30t85.5 -30q21 0 32.5 14t11.5 33h76q0 -49 -25.5 -84t-80.5 -35q-43 0 -99.5 30t-78.5 30q-21 0 -32.5 -14t-11.5 -33h-76zM82 116q0 49 25 84t78 35q38 0 95.5 -30t85.5 -30q21 0 32.5 14t11.5 33h76q0 -49 -25.5 -84t-80.5 -35
q-43 0 -99.5 30t-78.5 30q-21 0 -32.5 -14t-11.5 -33h-76z" />
    <glyph glyph-name="notequal" unicode="&#x2260;" 
d="M120 50l71 117h-130v65h169l51 85h-220v65h260l85 141l40 -23l-72 -118h133v-65h-172l-52 -85h224v-65h-263l-84 -141z" />
    <glyph glyph-name="lessequal" unicode="&#x2264;" 
d="M61 30v65h446v-65h-446zM61 293v67l446 147v-69q-29 -9 -119 -39t-151.5 -48.5t-100.5 -24.5q73 -18 371 -112v-68z" />
    <glyph glyph-name="greaterequal" unicode="&#x2265;" 
d="M61 30v65h446v-65h-446zM61 146v68l261 87q23 8 50.5 14t43.5 9l16 2q-58 9 -110 26l-261 86v69l446 -147v-67z" />
    <glyph glyph-name="commainferior" unicode="&#xf6e1;" horiz-adv-x="162" 
d="M11 -184l34 171h70l-59 -171h-45z" />
    <glyph glyph-name="commasuperior" unicode="&#xf6e2;" horiz-adv-x="162" 
d="M11 217l34 171h70l-59 -171h-45z" />
    <glyph glyph-name="periodinferior" unicode="&#xf6e7;" horiz-adv-x="162" 
d="M28 -66q0 20 14.5 35t34.5 15q21 0 35.5 -15t14.5 -35t-14.5 -34.5t-35.5 -14.5q-20 0 -34.5 14.5t-14.5 34.5z" />
    <glyph glyph-name="periodsuperior" unicode="&#xf6e8;" horiz-adv-x="162" 
d="M28 335q0 21 14.5 35.5t34.5 14.5q21 0 35.5 -14.5t14.5 -35.5q0 -20 -14.5 -34.5t-35.5 -14.5q-19 0 -34 15t-15 34z" />
    <glyph glyph-name="apple" unicode="&#xf8ff;" horiz-adv-x="805" 
d="M-2 -9q1 6 14 13.5t34.5 17t30.5 14.5q1 5 5 27q3 12 45 118q-16 2 -96 19q14 91 19 110q0 5 2 15t2 16v4q-3 3 -12 3.5t-11 1.5q0 16 9.5 45t10.5 41q4 13 13 41.5t14 44.5q80 18 96 19q0 15 -10 33q0 1 4.5 5.5t8 9t3.5 7.5t-2 4q-19 7 -35 7v4h37v71q88 3 99 4
q-5 -18 -14 -37l-8 -39q1 0 67 3l1 9q3 19 16 39l2 5q10 -2 32 -3t36 -4q5 -17 5 -31q0 -9 -1 -14l47 -7l33 4v8q0 64 -7 93q5 -1 22 -1q35 0 39 2q32 5 44 5q-1 -12 -4 -31t-5 -34t-2 -31v-8q6 -2 23.5 -3t23.5 -3q-4 -1 -19.5 -2.5t-21.5 -4.5l20 -35q-7 -19 -10 -42
q66 15 78 16q1 -2 1 -5q0 -4 -2.5 -14.5t-2.5 -16.5q7 -9 16 -26t15 -30l6 -12l28 -132q2 -1 3.5 -21.5t3 -54t2.5 -46.5l1 -9h-48q26 -50 47 -83l18 -26l-15 -11l28 -21q-4 -1 -11 -1q-8 0 -22.5 5t-20.5 6q0 -4 -1.5 -6t-2.5 -2.5t-4.5 -0.5h-5.5q-6 1 -12 19q-4 6 -5 11
q-6 10 -18.5 32.5t-22 40t-16.5 34.5q-5 3 -11 3l-19 -1q-12 -34 -27 -62q-1 -7 -1.5 -15t-1 -17.5t-0.5 -14.5q0 -18 -6 -30l-24 -6v5q0 3 -2 4q-4 -1 -16 -10.5t-20 -9.5l12 47q2 7 9 25.5t10.5 28.5t7 26t4.5 30q-6 -1 -24 -5.5t-30 -4.5h-13q-6 -30 -6 -57q0 -22 3 -43
q2 -14 12 -65q3 -13 4 -14q-18 2 -47 26q-3 4 -8 6l-6 -4l-12 2q1 9 3.5 25t2.5 24q10 67 12 105q-11 3 -19 3l-23 -1l-4 -7v-37q-2 -28 -2 -38v-25q0 -3 0.5 -12.5t1.5 -15.5l-3 -18l-18 -4q0 7 -4 7q-2 0 -5 -1.5t-4 -1.5q-2 0 -18 -5t-25 -5q1 6 7.5 13.5t8.5 11.5v31
q-6 60 -6 89v12l-1 5q-9 -3 -10 -3l-11 2h-34q-11 0 -16 -3q17 -81 19 -102q1 -7 1 -18q2 -11 13 -35.5t12 -39.5q-9 3 -23.5 16t-19.5 16l-14 9l-4 -9l-22 12q-1 12 -5 49q-8 74 -20 109q-3 2 -10 2h-6q-8 0 -11 2q-22 -47 -25 -113q-2 -10 -2 -13l1 -16l-1 -17l-19 -1
q-5 0 -8 1q2 0 2 3v6q-18 -2 -55 -18t-61 -17zM561 557l9 6q0 9 -13 16q-1 1 -5 11t-4 11h-6q-24 -2 -30 -5q-4 -8 -4 -13v-7q0 -7 -1 -10q13 -14 17 -29q7 -1 22.5 -7.5t19.5 -6.5q3 0 3 1q1 1 1 5l-3 11l1 7q-1 0 -4 4t-3 6zM498 529q8 8 8 12l-18 39q1 3 4.5 7.5t3.5 7.5
q0 4 -1 5q-11 2 -29 2h-19q-18 0 -26 1q1 -11 8 -23q-3 -8 -5.5 -25.5t-6.5 -26.5q13 5 35 5zM656 384q-1 5 -10 12.5t-11 13.5v5q0 3 2 13l-11 1q-3 -2 -4 -6.5t-1 -9.5v-6q-18 15 -45 15q-16 0 -22 -3v-9q2 -1 5 -1l13 1q6 0 9 -4l-1 -4q-5 2 -17 2q-18 0 -31 -14l1 -6
l3 1q18 7 27 7q5 0 7 -3h-4q-14 0 -26 -25l6 -3q5 7 9.5 10t11.5 5t10 3q4 0 4 -7q-13 -7 -13 -23q3 -4 7 -4q1 0 5 2q0 5 3 8.5t5.5 4.5t8.5 3t8 3q4 0 8 -3t6 -4q7 -7 10 -7q6 0 13.5 15.5t13.5 16.5zM364 594v10q-24 -2 -27 -4q2 -2 2 -8q0 -7 -8 -16.5t-9 -16.5
q6 -26 15 -36q2 0 6.5 -1.5t6.5 -1.5t5 1t4 1q-5 10 -5 11q0 5 7 24q-12 0 -12 5q0 4 7 8q8 6 8 24zM329 603q-4 4 -20 4l-19 -2l-30 -4l-3 -5l19 -27q-13 -22 -13 -27l42 -9l3 35q20 22 21 35zM390 453l-41 -8q1 1 1 3v2l-1 2l9 6q8 5 11 11l3 7q-36 -13 -55 -28q0 -3 1 -4
q3 -6 3 -10t-5 -7t-11.5 -5t-8.5 -4q2 -2 5.5 -9.5t8 -12t11.5 -4.5q11 9 25 9h41zM205 570q0 8 -9 8q-8 0 -8 -8t8 -8q9 0 9 8zM218 600h-25q0 -17 2 -17q13 0 13 -13t-13 -13t-13 16l-4 -2q1 -6 2 -18.5t2.5 -19.5t3.5 -9q16 -7 17 -7q3 0 4 2l4 25q-9 0 -9 3q0 4 5.5 8
t5.5 7q3 17 5 38zM251 369l-13 11q-3 3 -12.5 10.5t-13 10t-11 6.5t-15.5 5q-8 -3 -26 -14t-28 -14l10 -16q7 1 32 11q1 -5 5.5 -16.5t5.5 -19.5l-9 -18l22 15l-3 18q1 3 4 3l7 -8q3 -5 3 -8q0 -11 -7 -20q2 -2 5 -2l4 1l11 20q-1 2 -5 20q14 -5 19 -12q-1 -4 -5.5 -9.5
t-4.5 -6.5l7 -5l16 26q-3 3 -3 4q0 3 5 8zM236 370l-20 6q1 3 4 3t9 -4.5t7 -4.5z" />
    <glyph glyph-name="a_alt" horiz-adv-x="543" 
d="M119 144q0 -42 31 -64.5t77 -22.5q39 0 77.5 13t70 48.5t31.5 87.5v30q-49 9 -118 9q-71 0 -120 -24t-49 -77zM41 138q0 60 38 98.5t91 53t118 14.5q60 0 113 -11q-2 66 -39 101t-100 35q-43 0 -80.5 -10t-53.5 -20l-16 -10l-31 55q7 6 21 15t63.5 23.5t105.5 14.5
q102 0 156.5 -60.5t54.5 -181.5v-255h-76v80q-27 -37 -76.5 -63.5t-116.5 -26.5q-75 0 -123.5 39.5t-48.5 108.5z" />
    <glyph glyph-name="one.onum" horiz-adv-x="423" 
d="M226 0v387l-118 -85l-38 55l164 130h69v-487h-77z" />
    <glyph glyph-name="two.onum" horiz-adv-x="517" 
d="M50 0v56q174 107 244 166t70 113q0 40 -32.5 66t-88.5 26q-78 0 -153 -59l-35 58q86 71 188 71q92 0 145.5 -45t53.5 -117q0 -43 -19.5 -80.5t-61.5 -72.5t-75.5 -57t-93.5 -56h272v-69h-414z" />
    <glyph glyph-name="three.onum" horiz-adv-x="528" 
d="M37 -42l39 56q65 -61 167 -61q71 0 116 37.5t45 90.5q0 54 -43.5 89t-108.5 35q-48 0 -98 -26l-29 47l230 192h-305v69h405v-69l-177 -153q92 -3 148 -54t56 -130q0 -88 -68 -143t-171 -55q-134 0 -206 75z" />
    <glyph glyph-name="four.onum" horiz-adv-x="521" 
d="M339 -117v137h-307v60l258 429l65 -36l-231 -384h215v161h76v-161h85v-69h-85v-137h-76z" />
    <glyph glyph-name="five.onum" horiz-adv-x="528" 
d="M48 -50l33 60q65 -58 163 -58q69 0 114 38.5t45 91.5q0 52 -43.5 89t-115.5 37q-85 0 -143 -46l-38 30v295h384v-69h-308v-166q54 26 119 26q100 0 162 -53.5t62 -140.5t-66 -144t-167 -57q-124 0 -201 67z" />
    <glyph glyph-name="six.onum" horiz-adv-x="553" 
d="M41 217q0 89 62 163l228 278l60 -46l-149 -177q12 7 42 7q96 0 161.5 -64t65.5 -158q0 -97 -66 -163.5t-169 -66.5q-104 0 -169.5 65.5t-65.5 161.5zM120 218q0 -65 44.5 -111.5t110.5 -46.5q67 0 112 46.5t45 111.5t-45 111t-112 46t-111 -46t-44 -111z" />
    <glyph glyph-name="seven.onum" horiz-adv-x="514" 
d="M118 -117l291 535h-373v69h460v-58l-294 -546h-84z" />
    <glyph glyph-name="eight.onum" horiz-adv-x="560" 
d="M46 194q0 60 32 105.5t86 68.5q-69 45 -69 129q0 70 51.5 115.5t133.5 45.5t133.5 -45.5t51.5 -115.5q0 -83 -70 -129q55 -24 87 -69t32 -105q0 -90 -65 -147t-169 -57t-169 57t-65 147zM126 196q0 -57 43 -96.5t111 -39.5q69 0 111.5 38.5t42.5 97.5q0 58 -43 97.5
t-111 39.5t-111 -39.5t-43 -97.5zM170 493q0 -41 31 -69.5t79 -28.5t79 28.5t31 69.5q0 42 -30.5 70t-79.5 28t-79.5 -28t-30.5 -70z" />
    <glyph glyph-name="nine.onum" horiz-adv-x="553" 
d="M205 -71l105 123q-9 -7 -42 -7q-95 0 -160.5 64t-65.5 158q0 97 65.5 163.5t168.5 66.5q104 0 169.5 -65.5t65.5 -162.5q0 -87 -61 -162l-184 -225zM120 269q0 -65 45 -111t112 -46t111.5 45.5t44.5 110.5q0 66 -44 112.5t-112 46.5t-112.5 -46t-44.5 -112z" />
    <glyph glyph-name="zero.onum" horiz-adv-x="532" 
d="M45 243q0 110 62 182t159 72q96 0 158 -71.5t62 -182.5q0 -110 -61.5 -181.5t-158.5 -71.5t-159 71.5t-62 181.5zM123 243q0 -81 39.5 -132t103.5 -51q63 0 102.5 51.5t39.5 131.5q0 79 -40 131.5t-102 52.5q-63 0 -103 -52.5t-40 -131.5z" />
    <glyph glyph-name="zero.pnum" 
d="M122 324q0 -116 44.5 -189.5t117.5 -73.5t117.5 73.5t44.5 189.5t-44.5 189.5t-117.5 73.5t-117.5 -73.5t-44.5 -189.5zM40 324q0 146 68.5 240t175.5 94t175.5 -94t68.5 -240t-68.5 -240t-175.5 -94t-175.5 94t-68.5 240z" />
    <glyph glyph-name="one.pnum" horiz-adv-x="446" 
d="M244 0v543l-141 -102l-39 56l189 151h69v-648h-78z" />
    <glyph glyph-name="two.pnum" 
d="M60 0v55q181 149 264.5 244t83.5 164q0 53 -37.5 88t-96.5 35q-81 0 -165 -83l-44 52q89 103 213 103q96 0 154 -55t58 -134q0 -65 -50.5 -142.5t-115.5 -138t-144 -117.5h330v-71h-450z" />
    <glyph glyph-name="three.pnum" 
d="M53 68l43 57q55 -65 162 -65q76 0 122.5 41.5t46.5 106.5q0 57 -44.5 94.5t-112.5 37.5q-52 0 -94 -26l-31 52l224 211h-295v71h405v-69l-185 -176q95 -3 155.5 -56t60.5 -140q0 -100 -69.5 -158.5t-178.5 -58.5q-139 0 -209 78z" />
    <glyph glyph-name="four.pnum" horiz-adv-x="565" 
d="M356 0v138h-307v59l269 455l66 -38l-242 -406h214v159h78v-159h84v-70h-84v-138h-78z" />
    <glyph glyph-name="five.pnum" 
d="M69 57l32 63q77 -60 166 -60q73 0 116 42.5t43 99.5q0 63 -47.5 102.5t-117.5 39.5q-73 0 -138 -45l-38 30v319h391v-71h-314v-192q60 26 116 26q99 0 165 -57t66 -150q0 -91 -65.5 -152.5t-175.5 -61.5q-120 0 -199 67z" />
    <glyph glyph-name="six.pnum" horiz-adv-x="567" 
d="M49 217q0 88 61 163l228 278l61 -46l-149 -177q16 7 42 7q95 0 160.5 -64t65.5 -158q0 -97 -66 -163.5t-169 -66.5q-104 0 -169 65.5t-65 161.5zM131 219q0 -67 43 -113t109 -46t109.5 46t43.5 113q0 64 -44 110t-109 46t-108.5 -45.5t-43.5 -110.5z" />
    <glyph glyph-name="seven.pnum" horiz-adv-x="531" 
d="M113 0l302 577h-373v71h459v-58l-303 -590h-85z" />
    <glyph glyph-name="eight.pnum" 
d="M46 194q0 60 33 105.5t89 68.5q-69 45 -69 129q0 70 51.5 115.5t133.5 45.5t133.5 -45.5t51.5 -115.5q0 -83 -70 -129q57 -24 90 -69.5t33 -104.5q0 -90 -66.5 -147t-171.5 -57q-106 0 -172 57t-66 147zM129 196q0 -57 43 -96.5t112 -39.5t112 38.5t43 97.5
q0 58 -43.5 97.5t-111.5 39.5q-69 0 -112 -39.5t-43 -97.5zM174 493q0 -41 31 -69.5t79 -28.5t79 28.5t31 69.5q0 42 -30.5 70t-79.5 28t-79.5 -28t-30.5 -70z" />
    <glyph glyph-name="nine.pnum" horiz-adv-x="567" 
d="M168 36l149 177q-9 -7 -42 -7q-95 0 -160.5 64t-65.5 158q0 97 66 163.5t169 66.5q104 0 169 -65.5t65 -161.5q0 -88 -61 -163l-228 -278zM131 430q0 -65 44 -111t109 -46t108.5 46t43.5 111q0 66 -43 112t-109 46t-109.5 -46t-43.5 -112z" />
    <glyph glyph-name="zero.onumtab" horiz-adv-x="551" 
d="M55 243q0 110 62 182t159 72q96 0 158 -71.5t62 -182.5q0 -110 -61.5 -181.5t-158.5 -71.5t-159 71.5t-62 181.5zM133 243q0 -81 39.5 -132t103.5 -51q63 0 102.5 51.5t39.5 131.5q0 79 -40 131.5t-102 52.5q-63 0 -103 -52.5t-40 -131.5z" />
    <glyph glyph-name="one.onumtab" horiz-adv-x="551" 
d="M124 0v68h148v317l-127 -91l-36 54l171 139h69v-419h129v-68h-354z" />
    <glyph glyph-name="two.onumtab" horiz-adv-x="551" 
d="M76 0v56q174 107 244 166t70 113q0 40 -32.5 66t-88.5 26q-78 0 -153 -59l-35 58q86 71 188 71q92 0 145.5 -45t53.5 -117q0 -43 -19.5 -80.5t-61.5 -72.5t-75.5 -57t-93.5 -56h272v-69h-414z" />
    <glyph glyph-name="three.onumtab" horiz-adv-x="551" 
d="M53 -42l39 56q65 -61 167 -61q71 0 116 37.5t45 90.5q0 54 -43.5 89t-108.5 35q-48 0 -98 -26l-29 47l230 192h-305v69h405v-69l-177 -153q92 -3 148 -54t56 -130q0 -88 -68 -143t-171 -55q-134 0 -206 75z" />
    <glyph glyph-name="four.onumtab" horiz-adv-x="551" 
d="M346 -117v137h-307v60l258 429l65 -36l-231 -384h215v161h76v-161h85v-69h-85v-137h-76z" />
    <glyph glyph-name="five.onumtab" horiz-adv-x="551" 
d="M69 -50l33 60q65 -58 163 -58q69 0 114 38.5t45 91.5q0 52 -43.5 89t-115.5 37q-85 0 -143 -46l-38 30v295h384v-69h-308v-166q54 26 119 26q100 0 162 -53.5t62 -140.5t-66 -144t-167 -57q-124 0 -201 67z" />
    <glyph glyph-name="six.onumtab" horiz-adv-x="551" 
d="M40 217q0 89 62 163l228 278l60 -46l-149 -177q12 7 42 7q96 0 161.5 -64t65.5 -158q0 -97 -66 -163.5t-169 -66.5q-104 0 -169.5 65.5t-65.5 161.5zM119 218q0 -65 44.5 -111.5t110.5 -46.5q67 0 112 46.5t45 111.5t-45 111t-112 46t-111 -46t-44 -111z" />
    <glyph glyph-name="seven.onumtab" horiz-adv-x="551" 
d="M133 -117l291 535h-373v69h460v-58l-294 -546h-84z" />
    <glyph glyph-name="eight.onumtab" horiz-adv-x="551" 
d="M41 194q0 60 32 105.5t86 68.5q-69 45 -69 129q0 70 51.5 115.5t133.5 45.5t133.5 -45.5t51.5 -115.5q0 -83 -70 -129q55 -24 87 -69t32 -105q0 -90 -65 -147t-169 -57t-169 57t-65 147zM121 196q0 -57 43 -96.5t111 -39.5q69 0 111.5 38.5t42.5 97.5q0 58 -43 97.5
t-111 39.5t-111 -39.5t-43 -97.5zM165 493q0 -41 31 -69.5t79 -28.5t79 28.5t31 69.5q0 42 -30.5 70t-79.5 28t-79.5 -28t-30.5 -70z" />
    <glyph glyph-name="nine.onumtab" horiz-adv-x="551" 
d="M204 -71l105 123q-9 -7 -42 -7q-95 0 -160.5 64t-65.5 158q0 97 65.5 163.5t168.5 66.5q104 0 169.5 -65.5t65.5 -162.5q0 -87 -61 -162l-184 -225zM119 269q0 -65 45 -111t112 -46t111.5 45.5t44.5 110.5q0 66 -44 112.5t-112 46.5t-112.5 -46t-44.5 -112z" />
    <glyph glyph-name="aacute_alt" horiz-adv-x="543" 
d="M119 144q0 -42 31 -64.5t77 -22.5q39 0 77.5 13t70 48.5t31.5 87.5v30q-49 9 -118 9q-71 0 -120 -24t-49 -77zM41 138q0 60 38 98.5t91 53t118 14.5q60 0 113 -11q-2 66 -39 101t-100 35q-43 0 -80.5 -10t-53.5 -20l-16 -10l-31 55q7 6 21 15t63.5 23.5t105.5 14.5
q102 0 156.5 -60.5t54.5 -181.5v-255h-76v80q-27 -37 -76.5 -63.5t-116.5 -26.5q-75 0 -123.5 39.5t-48.5 108.5zM215 565l81 133h85l-94 -133h-72z" />
    <glyph glyph-name="agrave_alt" horiz-adv-x="543" 
d="M119 144q0 -42 31 -64.5t77 -22.5q39 0 77.5 13t70 48.5t31.5 87.5v30q-49 9 -118 9q-71 0 -120 -24t-49 -77zM41 138q0 60 38 98.5t91 53t118 14.5q60 0 113 -11q-2 66 -39 101t-100 35q-43 0 -80.5 -10t-53.5 -20l-16 -10l-31 55q7 6 21 15t63.5 23.5t105.5 14.5
q102 0 156.5 -60.5t54.5 -181.5v-255h-76v80q-27 -37 -76.5 -63.5t-116.5 -26.5q-75 0 -123.5 39.5t-48.5 108.5zM241 565l-94 133h85l81 -133h-72z" />
    <glyph glyph-name="acircumflex_alt" horiz-adv-x="543" 
d="M119 144q0 -42 31 -64.5t77 -22.5q39 0 77.5 13t70 48.5t31.5 87.5v30q-49 9 -118 9q-71 0 -120 -24t-49 -77zM41 138q0 60 38 98.5t91 53t118 14.5q60 0 113 -11q-2 66 -39 101t-100 35q-43 0 -80.5 -10t-53.5 -20l-16 -10l-31 55q7 6 21 15t63.5 23.5t105.5 14.5
q102 0 156.5 -60.5t54.5 -181.5v-255h-76v80q-27 -37 -76.5 -63.5t-116.5 -26.5q-75 0 -123.5 39.5t-48.5 108.5zM147 559l88 133h85l88 -133h-65l-66 87l-66 -87h-64z" />
    <glyph glyph-name="adieresis_alt" horiz-adv-x="543" 
d="M119 144q0 -42 31 -64.5t77 -22.5q39 0 77.5 13t70 48.5t31.5 87.5v30q-49 9 -118 9q-71 0 -120 -24t-49 -77zM41 138q0 60 38 98.5t91 53t118 14.5q60 0 113 -11q-2 66 -39 101t-100 35q-43 0 -80.5 -10t-53.5 -20l-16 -10l-31 55q7 6 21 15t63.5 23.5t105.5 14.5
q102 0 156.5 -60.5t54.5 -181.5v-255h-76v80q-27 -37 -76.5 -63.5t-116.5 -26.5q-75 0 -123.5 39.5t-48.5 108.5zM156 615q0 19 13 32t32 13q18 0 31 -13t13 -32q0 -18 -13 -31t-31 -13q-19 0 -32 13t-13 31zM313 615q0 19 13.5 32t32.5 13q18 0 31 -13t13 -32
q0 -18 -13 -31t-31 -13q-19 0 -32.5 13t-13.5 31z" />
    <glyph glyph-name="atilde_alt" horiz-adv-x="543" 
d="M119 144q0 -42 31 -64.5t77 -22.5q39 0 77.5 13t70 48.5t31.5 87.5v30q-49 9 -118 9q-71 0 -120 -24t-49 -77zM41 138q0 60 38 98.5t91 53t118 14.5q60 0 113 -11q-2 66 -39 101t-100 35q-43 0 -80.5 -10t-53.5 -20l-16 -10l-31 55q7 6 21 15t63.5 23.5t105.5 14.5
q102 0 156.5 -60.5t54.5 -181.5v-255h-76v80q-27 -37 -76.5 -63.5t-116.5 -26.5q-75 0 -123.5 39.5t-48.5 108.5zM137 563q0 45 19.5 73.5t51.5 28.5q27 0 65 -23.5t49 -23.5q29 0 29 47h48q0 -45 -19.5 -73.5t-51.5 -28.5q-27 0 -65 23.5t-48 23.5q-29 0 -29 -47h-49z" />
    <glyph glyph-name="aring_alt" horiz-adv-x="543" 
d="M173 627q0 41 29 70t70 29t70 -29t29 -70t-29 -70.5t-70 -29.5t-70 29.5t-29 70.5zM218 627q0 -24 15.5 -41t38.5 -17t38.5 17t15.5 41q0 23 -15.5 40t-38.5 17t-38.5 -17t-15.5 -40zM119 144q0 -42 31 -64.5t77 -22.5q39 0 77.5 13t70 48.5t31.5 87.5v30q-49 9 -118 9
q-71 0 -120 -24t-49 -77zM41 138q0 60 38 98.5t91 53t118 14.5q60 0 113 -11q-2 66 -39 101t-100 35q-43 0 -80.5 -10t-53.5 -20l-16 -10l-31 55q7 6 21 15t63.5 23.5t105.5 14.5q102 0 156.5 -60.5t54.5 -181.5v-255h-76v80q-27 -37 -76.5 -63.5t-116.5 -26.5
q-75 0 -123.5 39.5t-48.5 108.5z" />
    <glyph glyph-name="amacron_alt" horiz-adv-x="543" 
d="M119 144q0 -42 31 -64.5t77 -22.5q39 0 77.5 13t70 48.5t31.5 87.5v30q-49 9 -118 9q-71 0 -120 -24t-49 -77zM41 138q0 60 38 98.5t91 53t118 14.5q60 0 113 -11q-2 66 -39 101t-100 35q-43 0 -80.5 -10t-53.5 -20l-16 -10l-31 55q7 6 21 15t63.5 23.5t105.5 14.5
q102 0 156.5 -60.5t54.5 -181.5v-255h-76v80q-27 -37 -76.5 -63.5t-116.5 -26.5q-75 0 -123.5 39.5t-48.5 108.5zM170 570v59h200v-59h-200z" />
    <glyph glyph-name="abreve_alt" horiz-adv-x="543" 
d="M119 144q0 -42 31 -64.5t77 -22.5q39 0 77.5 13t70 48.5t31.5 87.5v30q-49 9 -118 9q-71 0 -120 -24t-49 -77zM41 138q0 60 38 98.5t91 53t118 14.5q60 0 113 -11q-2 66 -39 101t-100 35q-43 0 -80.5 -10t-53.5 -20l-16 -10l-31 55q7 6 21 15t63.5 23.5t105.5 14.5
q102 0 156.5 -60.5t54.5 -181.5v-255h-76v80q-27 -37 -76.5 -63.5t-116.5 -26.5q-75 0 -123.5 39.5t-48.5 108.5zM272 554q-47 0 -75.5 31t-28.5 76h46q3 -25 19 -38.5t39 -13.5t39 13.5t18 38.5h47q0 -45 -28.5 -76t-75.5 -31z" />
    <glyph glyph-name="aringacute_alt" horiz-adv-x="543" 
d="M41 138q0 60 38 98.5t91 53t118 14.5q60 0 113 -11q-2 66 -39 101t-100 35q-43 0 -80.5 -10t-53.5 -20l-16 -10l-31 55q7 6 21 15t63.5 23.5t105.5 14.5q102 0 156.5 -60.5t54.5 -181.5v-255h-76v80q-27 -37 -76.5 -63.5t-116.5 -26.5q-75 0 -123.5 39.5t-48.5 108.5z
M119 144q0 -42 31 -64.5t77 -22.5q39 0 77.5 13t70 48.5t31.5 87.5v30q-49 9 -118 9q-71 0 -120 -24t-49 -77zM169 635q0 58 52 87l71 126h79l-77 -118q32 -8 52.5 -34.5t20.5 -60.5q0 -41 -29 -70.5t-70 -29.5t-70 29.5t-29 70.5zM214 635q0 -24 15.5 -41t38.5 -17t38.5 17
t15.5 41q0 23 -15.5 40t-38.5 17t-38.5 -17t-15.5 -40z" />
    <glyph glyph-name="aogonek_alt" horiz-adv-x="543" 
d="M348 -128q0 77 58 133v75q-27 -37 -76.5 -63.5t-116.5 -26.5q-75 0 -123.5 39.5t-48.5 108.5q0 60 38 98.5t91 53t118 14.5q60 0 113 -11q-2 66 -39 101t-100 35q-43 0 -80.5 -10t-53.5 -20l-16 -10l-31 55q7 6 21 15t63.5 23.5t105.5 14.5q102 0 156.5 -60.5
t54.5 -181.5v-255h-30q-20 -19 -34 -49.5t-14 -58.5q0 -26 16 -42t40 -16q18 0 40 11l16 -40q-33 -25 -74 -25q-38 0 -66 24.5t-28 67.5zM119 144q0 -42 31 -64.5t77 -22.5q39 0 77.5 13t70 48.5t31.5 87.5v30q-49 9 -118 9q-71 0 -120 -24t-49 -77z" />
    <glyph glyph-name="questiondown.cap" horiz-adv-x="477" 
d="M210 603q0 23 16.5 39t39.5 16t39 -16t16 -39t-16.5 -39t-38.5 -16q-23 0 -39.5 16t-16.5 39zM52 195q0 76 49 131.5t123 65.5l8 87h68l7 -138q-88 0 -131.5 -43.5t-43.5 -103.5q0 -52 39 -90.5t94 -38.5q43 0 77.5 24t50.5 63l65 -32q-23 -61 -75.5 -95.5t-122.5 -34.5
q-92 0 -150 59.5t-58 145.5z" />
    <glyph glyph-name="exclamdown.cap" horiz-adv-x="226" 
d="M71 0l9 478h67l9 -478h-85zM58 603q0 23 16 39t39 16t39 -16t16 -39t-16 -39t-39 -16t-39 16t-16 39z" />
    <glyph glyph-name="hyphen.cap" horiz-adv-x="439" 
d="M30 279v66h379v-66h-379z" />
    <glyph glyph-name="endash.cap" horiz-adv-x="595" 
d="M20 279v68h555v-68h-555z" />
    <glyph glyph-name="emdash.cap" horiz-adv-x="708" 
d="M20 279v68h668v-68h-668z" />
    <glyph glyph-name="periodcentered.cap" horiz-adv-x="163" 
d="M27 360q0 23 16 39.5t39 16.5q22 0 38 -16.5t16 -39.5q0 -22 -16 -38t-38 -16q-23 0 -39 15.5t-16 38.5z" />
    <glyph glyph-name="parenleft.cap" horiz-adv-x="302" 
d="M58 315q0 236 164 396l46 -50q-131 -144 -131 -346t131 -346l-46 -50q-164 160 -164 396z" />
    <glyph glyph-name="parenright.cap" horiz-adv-x="302" 
d="M80 -75l-46 50q131 142 131 346t-131 346l46 50q164 -160 164 -396t-164 -396z" />
    <glyph glyph-name="bracketleft.cap" horiz-adv-x="280" 
d="M58 -68v792h191v-58h-113v-677h113v-57h-191z" />
    <glyph glyph-name="bracketright.cap" horiz-adv-x="280" 
d="M31 -69v58h114v677h-114v58h191v-793h-191z" />
    <glyph glyph-name="braceleft.cap" horiz-adv-x="386" 
d="M53 294v62h15q68 0 68 59v85q0 229 177 229h42v-64q-79 0 -110.5 -37.5t-31.5 -126.5v-79q0 -87 -69 -98q69 -18 69 -97v-78q0 -89 31.5 -126.5t110.5 -37.5v-64h-42q-177 0 -177 229v85q0 59 -68 59h-15z" />
    <glyph glyph-name="braceright.cap" horiz-adv-x="386" 
d="M31 -79v64q79 0 110 37.5t31 126.5v78q0 79 70 97q-39 6 -54.5 35t-15.5 63v79q0 89 -31 126.5t-110 37.5v64h42q177 0 177 -229v-85q0 -59 68 -59h15v-62h-15q-68 0 -68 -59v-85q0 -229 -177 -229h-42z" />
    <glyph glyph-name="zero.slash" 
d="M40 324q0 146 68.5 240t175.5 94t175.5 -94t68.5 -240t-68.5 -240t-175.5 -94t-175.5 94t-68.5 240zM413 484l-228 -375q39 -48 99 -48q73 0 117.5 73.5t44.5 189.5q0 91 -33 160zM122 324q0 -91 32 -157l228 374q-41 46 -98 46q-73 0 -117.5 -73.5t-44.5 -189.5z" />
    <glyph glyph-name="a.sups" horiz-adv-x="368" 
d="M90 427q0 -24 18 -36.5t45 -12.5q56 0 81.5 25t25.5 47v30q-22 5 -66 5t-74 -14t-30 -44zM30 425q0 57 47.5 83.5t116.5 26.5q35 0 62 -6q-4 36 -25.5 56t-53.5 20q-27 0 -51.5 -7.5t-35.5 -14.5l-12 -7l-26 46q47 37 130 37q67 0 103.5 -39.5t36.5 -119.5v-169h-62v38
q-44 -44 -116 -44q-50 0 -82 26.5t-32 73.5z" />
    <glyph glyph-name="b.sups" horiz-adv-x="402" 
d="M52 331v429h62v-152q40 50 105 50q66 0 110.5 -49t44.5 -118t-44.5 -118t-110.5 -49q-65 0 -105 50v-43h-62zM114 491q0 -45 28 -76t70 -31t70 31t28 76t-28 75.5t-70 30.5t-70 -30.5t-28 -75.5z" />
    <glyph glyph-name="c.sups" horiz-adv-x="341" 
d="M29 491q0 69 49.5 118t119.5 49q67 0 119 -49l-39 -44q-34 32 -79 32t-76 -30.5t-31 -75.5q0 -46 31.5 -76t76.5 -30q51 0 88 37l37 -45q-58 -53 -127 -53q-70 0 -119.5 49t-49.5 118z" />
    <glyph glyph-name="d.sups" horiz-adv-x="401" 
d="M29 491q0 70 44.5 118.5t110.5 48.5q65 0 104 -50v152h62v-429h-62v43q-42 -50 -104 -50q-66 0 -110.5 48.5t-44.5 118.5zM91 491q0 -45 28.5 -76t70.5 -31t70 30.5t28 76.5q0 45 -28 75.5t-70 30.5t-70.5 -30.5t-28.5 -75.5z" />
    <glyph glyph-name="e.sups" horiz-adv-x="374" 
d="M94 518h188q-7 37 -33 60t-62 23q-34 0 -59.5 -23t-33.5 -60zM29 491q0 69 46.5 118t113.5 49q64 0 110 -48.5t46 -116.5l-3 -26h-248q8 -39 37 -62.5t67 -23.5q54 0 95 38l35 -44q-59 -51 -130 -51q-70 0 -119.5 47t-49.5 120z" />
    <glyph glyph-name="f.sups" horiz-adv-x="205" 
d="M47 242v353h-40v55h41v14q0 58 28 83t64 25q24 0 46.5 -8t32.5 -16l10 -7l-32 -40q-27 16 -51 16q-37 0 -37 -55v-12h98v-55h-98v-353h-62z" />
    <glyph glyph-name="g.sups" horiz-adv-x="401" 
d="M54 276l33 42q40 -42 97 -42q36 0 70.5 24t34.5 80q-40 -46 -106 -46q-67 0 -111.5 45t-44.5 112t44.5 111.5t111.5 44.5q66 0 106 -48v41h62v-247q0 -48 -15.5 -83t-41.5 -53t-52.5 -25.5t-55.5 -7.5q-77 0 -132 52zM89 488q0 -45 27.5 -72.5t71.5 -27.5q42 0 70 28
t28 72q0 45 -28 73t-70 28q-44 0 -71.5 -28t-27.5 -73z" />
    <glyph glyph-name="h.sups" horiz-adv-x="378" 
d="M52 331v429h62v-143q35 41 98 41q59 0 89.5 -35t30.5 -97v-195h-62v187q0 80 -73 80q-35 0 -59 -24.5t-24 -62.5v-180h-62z" />
    <glyph glyph-name="i.sups" horiz-adv-x="161" 
d="M50 331v322h62v-322h-62zM42 732q0 16 12 28t28 12q15 0 26.5 -12t11.5 -28t-11.5 -27.5t-26.5 -11.5q-16 0 -28 11.5t-12 27.5z" />
    <glyph glyph-name="j.sups" horiz-adv-x="156" 
d="M7 275q38 22 38 69v307h62v-301q0 -88 -75 -122zM37 732q0 16 11.5 27.5t27.5 11.5q17 0 28.5 -11.5t11.5 -27.5t-11.5 -27.5t-28.5 -11.5q-16 0 -27.5 11.5t-11.5 27.5z" />
    <glyph glyph-name="k.sups" horiz-adv-x="347" 
d="M51 331v429h62v-268l143 160h78l-130 -143l150 -178h-76l-112 136l-53 -60v-76h-62z" />
    <glyph glyph-name="l.sups" horiz-adv-x="166" 
d="M52 331v429h62v-429h-62z" />
    <glyph glyph-name="m.sups" horiz-adv-x="576" 
d="M52 331v321h62v-35q34 42 90 42q71 0 101 -53q37 53 105 53q59 0 89.5 -35t30.5 -98v-195h-62v187q0 39 -15 59.5t-53 20.5q-34 0 -56.5 -22.5t-22.5 -58.5v-186h-62v187q0 80 -67 80q-33 0 -55.5 -24.5t-22.5 -60.5v-182h-62z" />
    <glyph glyph-name="o.sups" horiz-adv-x="395" 
d="M29 491q0 69 49 118t119 49t119.5 -49t49.5 -118t-49.5 -118t-119.5 -49t-119 49t-49 118zM91 491q0 -44 31 -75t75 -31t75 31t31 75t-31 75t-75 31t-75 -31t-31 -75z" />
    <glyph glyph-name="p.sups" horiz-adv-x="402" 
d="M51 245v408h62v-44q40 50 105 50q66 0 110.5 -49t44.5 -118t-44.5 -118t-110.5 -49q-65 0 -105 50v-130h-62zM113 492q0 -45 28 -76t70 -31t70 31t28 76t-28 76t-70 31t-70 -31t-28 -76z" />
    <glyph glyph-name="q.sups" horiz-adv-x="401" 
d="M29 491q0 70 44.5 119t110.5 49q64 0 104 -51v44h62v-408h-62v130q-42 -50 -104 -50q-66 0 -110.5 48.5t-44.5 118.5zM91 491q0 -45 28.5 -76t70.5 -31t70 31t28 76q0 46 -28 76.5t-70 30.5t-70.5 -30.5t-28.5 -76.5z" />
    <glyph glyph-name="r.sups" horiz-adv-x="242" 
d="M52 331v321h62v-45q37 52 118 52v-67q-51 0 -84.5 -28.5t-33.5 -89.5v-143h-62z" />
    <glyph glyph-name="s.sups" horiz-adv-x="320" 
d="M31 374l30 47q38 -40 97 -40q30 0 50 11.5t20 31.5q0 12 -11.5 21t-24 13t-35.5 10q-27 6 -43.5 12t-34.5 16.5t-26.5 27t-8.5 40.5q0 43 34 68.5t84 25.5q57 0 113 -37l-29 -47q-41 27 -83 27q-24 0 -39 -10.5t-15 -26.5q0 -24 63 -39q55 -12 87.5 -34t32.5 -66
q0 -49 -39 -75t-94 -26q-82 0 -128 50z" />
    <glyph glyph-name="t.sups" horiz-adv-x="252" 
d="M63 437v161h-40v54h40v68l62 9v-77h106v-54h-106v-164q0 -53 37 -53q12 0 25 5t20 10l7 5l25 -47q-40 -30 -82 -30q-94 0 -94 113z" />
    <glyph glyph-name="u.sups" horiz-adv-x="374" 
d="M168 324q-59 0 -90.5 37.5t-31.5 95.5v195h62v-187q0 -80 73 -80q34 0 56.5 23.5t22.5 63.5v180h62v-321h-62v33q-34 -40 -92 -40z" />
    <glyph glyph-name="v.sups" horiz-adv-x="332" 
d="M140 327l-143 322h64l88 -199l17 -49q8 30 17 49l88 199h64l-143 -322h-52z" />
    <glyph glyph-name="w.sups" horiz-adv-x="458" 
d="M107 327l-110 322h61l71 -208l4 -22q2 14 4 22l64 208h57l63 -208q1 -3 1.5 -6.5t1 -5.5l1 -4t0.5 -3t1 -2v-1q0 10 4 22l71 208h61l-111 -322h-52l-62 201l-8 40q0 -14 -7 -40l-62 -201h-53z" />
    <glyph glyph-name="x.sups" horiz-adv-x="309" 
d="M-3 331l122 162l-122 158h69l66 -85l23 -33q1 1 4 6t8 12.5t9 12.5l67 87h69l-121 -159l121 -161h-69l-65 84q-16 19 -24 36q-2 -7 -23 -35l-64 -85h-70z" />
    <glyph glyph-name="y.sups" horiz-adv-x="349" 
d="M65 231v59q30 0 47 10.5t29 40.5l5 12l-146 298h67l95 -197l15 -40q7 22 16 42l87 195h65l-152 -337q-12 -28 -28 -45.5t-34 -25.5t-32.5 -10t-33.5 -2z" />
    <glyph glyph-name="z.sups" horiz-adv-x="298" 
d="M16 331v47l149 182l32 34h-176v57h256v-46l-150 -181l-32 -36h187v-57h-266z" />
    <glyph glyph-name="commaaccentcomb" horiz-adv-x="340" 
d="M109 -235q61 63 61 136q0 17 -9 35l58 20q11 -24 11 -46q0 -49 -22.5 -87t-49.5 -58h-49z" />
    <glyph glyph-name="zero.dnom" horiz-adv-x="440" 
d="M110 229q0 -78 30.5 -127t79.5 -49t79.5 49t30.5 127q0 77 -30.5 126.5t-79.5 49.5t-79.5 -49.5t-30.5 -126.5zM40 229q0 103 50.5 169.5t129.5 66.5q78 0 128.5 -66.5t50.5 -169.5t-50.5 -169.5t-128.5 -66.5q-79 0 -129.5 66.5t-50.5 169.5z" />
    <glyph glyph-name="one.dnom" horiz-adv-x="320" 
d="M161 0v371l-105 -77l-29 46l149 119h50v-459h-65z" />
    <glyph glyph-name="two.dnom" horiz-adv-x="387" 
d="M31 0v47q136 119 187 175.5t51 104.5q0 34 -23 56t-64 22q-64 0 -111 -56l-36 45q64 71 152 71q70 0 110.5 -37.5t40.5 -96.5q0 -65 -52.5 -127.5t-154.5 -143.5h217v-60h-317z" />
    <glyph glyph-name="three.dnom" horiz-adv-x="401" 
d="M30 46l34 46q43 -41 114 -41q53 0 82 29.5t29 68.5q0 37 -26.5 63t-77.5 26q-35 0 -67 -20l-25 39l153 140h-200v59h289v-52l-125 -118h4q61 0 103 -41t42 -99q0 -63 -48.5 -109t-130.5 -46q-96 0 -150 55z" />
    <glyph glyph-name="four.dnom" horiz-adv-x="412" 
d="M251 0v97h-215v47l189 322l55 -27l-168 -282h139v104h66v-104h54v-60h-54v-97h-66z" />
    <glyph glyph-name="five.dnom" horiz-adv-x="395" 
d="M40 36l28 51q44 -37 113 -37q51 0 80 27t29 65q0 44 -30.5 68.5t-75.5 24.5q-51 0 -96 -31l-33 25v228h278v-60h-216v-119q34 14 77 14q69 0 115.5 -40t46.5 -110q0 -66 -46.5 -110t-127.5 -44q-83 0 -142 48z" />
    <glyph glyph-name="six.dnom" horiz-adv-x="424" 
d="M45 157q0 55 44 111l165 205l48 -40l-101 -120q13 2 18 2q68 0 114 -46t46 -112q0 -69 -47.5 -117t-119.5 -48q-73 0 -120 48t-47 117zM112 155q0 -43 29 -72.5t70 -29.5q43 0 72 29.5t29 72.5q0 44 -29 74t-72 30q-41 0 -70 -30t-29 -74z" />
    <glyph glyph-name="seven.dnom" horiz-adv-x="361" 
d="M59 0l206 399h-243v60h322v-47l-213 -412h-72z" />
    <glyph glyph-name="eight.dnom" horiz-adv-x="424" 
d="M43 140q0 42 21 75.5t58 49.5q-45 35 -45 85t38 82t97 32t96.5 -32t37.5 -82t-45 -85q37 -16 58 -49.5t21 -75.5q0 -66 -46.5 -107t-121.5 -41t-122 41t-47 107zM113 143q0 -40 27 -64.5t72 -24.5t72 25t27 64t-25.5 63.5t-73.5 24.5t-73.5 -24.5t-25.5 -63.5zM140 346
q0 -26 19 -43.5t53 -17.5q33 0 52 17.5t19 43.5q0 27 -20 44t-51 17q-32 0 -52 -17t-20 -44z" />
    <glyph glyph-name="nine.dnom" horiz-adv-x="424" 
d="M127 29l96 114q-9 -2 -17 -2q-68 0 -114.5 46t-46.5 112q0 69 47.5 116.5t120.5 47.5q72 0 119 -47.5t47 -116.5q0 -55 -44 -111l-160 -199zM112 300q0 -44 29 -73.5t72 -29.5q41 0 70 30t29 73t-29 73t-70 30q-43 0 -72 -30t-29 -73z" />
    <glyph glyph-name="at.cap" horiz-adv-x="926" 
d="M70 289q0 163 116 278.5t280 115.5q159 0 271.5 -103.5t112.5 -255.5q0 -99 -44 -160.5t-111 -61.5q-80 0 -103 70q-48 -80 -153 -80q-71 0 -125 58t-54 138t53.5 138t125.5 58q91 0 143 -69v59h61v-231q0 -34 13 -59t43 -25q39 0 65.5 45.5t26.5 119.5
q0 130 -92.5 217.5t-232.5 87.5q-138 0 -236 -99.5t-98 -240.5q0 -142 97.5 -236.5t235.5 -94.5q90 0 160 35l24 -48q-77 -40 -185 -40q-166 0 -280 109t-114 275zM323 288q0 -57 38.5 -98t93.5 -41t91 39.5t36 99.5q0 62 -35.5 100t-91.5 38t-94 -40.5t-38 -97.5z" />
    <glyph glyph-name="zero.numerator" horiz-adv-x="440" 
d="M110 422q0 -78 30.5 -127t79.5 -49t79.5 49t30.5 127q0 77 -30.5 126.5t-79.5 49.5t-79.5 -49.5t-30.5 -126.5zM40 422q0 103 50.5 169.5t129.5 66.5q78 0 128.5 -66.5t50.5 -169.5t-50.5 -169.5t-128.5 -66.5q-79 0 -129.5 66.5t-50.5 169.5z" />
    <glyph glyph-name="one.numerator" horiz-adv-x="320" 
d="M161 191v371l-105 -77l-29 46l149 119h50v-459h-65z" />
    <glyph glyph-name="two.numerator" horiz-adv-x="387" 
d="M31 191v47q136 119 187 175.5t51 104.5q0 34 -23 56t-64 22q-64 0 -111 -56l-36 45q64 71 152 71q70 0 110.5 -37.5t40.5 -96.5q0 -65 -52.5 -127.5t-154.5 -143.5h217v-60h-317z" />
    <glyph glyph-name="three.numerator" horiz-adv-x="401" 
d="M30 240l34 46q43 -41 114 -41q53 0 82 29.5t29 68.5q0 37 -26.5 63t-77.5 26q-35 0 -67 -20l-25 39l153 140h-200v59h289v-52l-125 -118h4q61 0 103 -41t42 -99q0 -63 -48.5 -109t-130.5 -46q-96 0 -150 55z" />
    <glyph glyph-name="four.numerator" horiz-adv-x="406" 
d="M251 192v97h-215v47l189 322l55 -27l-168 -282h139v104h66v-104h54v-60h-54v-97h-66z" />
    <glyph glyph-name="five.numerator" horiz-adv-x="395" 
d="M40 227l28 51q44 -37 113 -37q51 0 80 27t29 65q0 44 -30.5 68.5t-75.5 24.5q-51 0 -96 -31l-33 25v228h278v-60h-216v-119q34 14 77 14q69 0 115.5 -40t46.5 -110q0 -66 -46.5 -110t-127.5 -44q-83 0 -142 48z" />
    <glyph glyph-name="six.numerator" horiz-adv-x="424" 
d="M45 350q0 55 44 111l165 205l48 -40l-101 -120q13 2 18 2q68 0 114 -46t46 -112q0 -69 -47.5 -117t-119.5 -48q-73 0 -120 48t-47 117zM112 348q0 -43 29 -72.5t70 -29.5q43 0 72 29.5t29 72.5q0 44 -29 74t-72 30q-41 0 -70 -30t-29 -74z" />
    <glyph glyph-name="seven.numerator" horiz-adv-x="361" 
d="M59 191l206 399h-243v60h322v-47l-213 -412h-72z" />
    <glyph glyph-name="eight.numerator" horiz-adv-x="424" 
d="M43 333q0 42 21 75.5t58 49.5q-45 35 -45 85t38 82t97 32t96.5 -32t37.5 -82t-45 -85q37 -16 58 -49.5t21 -75.5q0 -66 -46.5 -107t-121.5 -41t-122 41t-47 107zM113 336q0 -40 27 -64.5t72 -24.5t72 25t27 64t-25.5 63.5t-73.5 24.5t-73.5 -24.5t-25.5 -63.5zM140 539
q0 -26 19 -43.5t53 -17.5q33 0 52 17.5t19 43.5q0 27 -20 44t-51 17q-32 0 -52 -17t-20 -44z" />
    <glyph glyph-name="nine.numerator" horiz-adv-x="424" 
d="M127 222l96 114q-9 -2 -17 -2q-68 0 -114.5 46t-46.5 112q0 69 47.5 116.5t120.5 47.5q72 0 119 -47.5t47 -116.5q0 -55 -44 -111l-160 -199zM112 493q0 -44 29 -73.5t72 -29.5q41 0 70 30t29 73t-29 73t-70 30q-43 0 -72 -30t-29 -73z" />
    <glyph glyph-name="comma.dnom" horiz-adv-x="162" 
d="M11 -79l34 171h70l-59 -171h-45z" />
    <glyph glyph-name="period.dnom" horiz-adv-x="162" 
d="M28 39q0 20 14.5 35t34.5 15q21 0 35.5 -15t14.5 -35t-14.5 -34.5t-35.5 -14.5q-20 0 -34.5 14.5t-14.5 34.5z" />
    <glyph glyph-name="period.numerator" horiz-adv-x="162" 
d="M28 235q0 21 14.5 35.5t34.5 14.5q21 0 35.5 -14.5t14.5 -35.5q0 -20 -14.5 -34.5t-35.5 -14.5q-19 0 -34 15t-15 34z" />
    <glyph glyph-name="comma.numerator" horiz-adv-x="162" 
d="M11 117l34 171h70l-59 -171h-45z" />
    <glyph glyph-name="A.small" horiz-adv-x="608" 
d="M6 0l264 566h69l263 -566h-81l-46 97h-342l-45 -97h-82zM163 162h283l-93 196q-11 24 -23 52.5t-18.5 45t-7.5 17.5q-22 -61 -47 -114z" />
    <glyph glyph-name="B.small" horiz-adv-x="582" 
d="M65 0v564h262q71 0 116 -36.5t45 -102.5q0 -34 -18.5 -63t-43.5 -39q50 -9 83.5 -51t33.5 -99q0 -80 -58.5 -126.5t-154.5 -46.5h-265zM145 70h179q62 0 98.5 27.5t36.5 74.5q0 49 -32 77.5t-89 28.5h-193v-208zM145 348h183q36 0 56.5 19.5t20.5 51.5q0 33 -22 54
t-62 21h-176v-146z" />
    <glyph glyph-name="C.small" horiz-adv-x="561" 
d="M39 281q0 121 84.5 205.5t209.5 84.5q113 0 194 -70l-48 -54q-61 52 -141 52q-92 0 -154 -64t-62 -154t61.5 -154t150.5 -64q94 0 157 65l50 -55q-85 -83 -207 -83q-125 0 -210 85t-85 206z" />
    <glyph glyph-name="D.small" horiz-adv-x="617" 
d="M145 70h132q97 0 157 59.5t60 152.5t-60 152.5t-157 59.5h-132v-424zM65 0v564h216q133 0 215 -81.5t82 -200.5t-82 -200.5t-215 -81.5h-216z" />
    <glyph glyph-name="E.small" horiz-adv-x="545" 
d="M65 0v564h438v-70h-358v-161h339v-69h-339v-194h370v-70h-450z" />
    <glyph glyph-name="F.small" horiz-adv-x="490" 
d="M65 0v564h412v-70h-332v-161h280v-69h-280v-264h-80z" />
    <glyph glyph-name="G.small" horiz-adv-x="623" 
d="M39 281q0 121 85 205.5t210 84.5q111 0 195 -71l-49 -55q-60 54 -146 54q-89 0 -150.5 -64t-61.5 -154t61.5 -154t150.5 -64q103 0 166 83v110h-117v68h194v-208q-39 -58 -103 -92t-140 -34q-125 0 -210 84.5t-85 206.5z" />
    <glyph glyph-name="H.small" horiz-adv-x="599" 
d="M65 0v564h80v-230h309v230h80v-564h-80v264h-309v-264h-80z" />
    <glyph glyph-name="I.small" horiz-adv-x="210" 
d="M65 0v564h80v-564h-80z" />
    <glyph glyph-name="J.small" horiz-adv-x="472" 
d="M21 95l60 44q37 -75 118 -75q62 0 99.5 40t37.5 118v342h80v-336q0 -122 -60.5 -180t-156.5 -58q-123 0 -178 105z" />
    <glyph glyph-name="K.small" horiz-adv-x="566" 
d="M65 0v564h80v-353q33 48 56 75l240 278h95l-219 -261l240 -303h-95l-195 247l-122 -140v-107h-80z" />
    <glyph glyph-name="L.small" horiz-adv-x="525" 
d="M65 0v564h80v-494h350v-70h-430z" />
    <glyph glyph-name="M.small" horiz-adv-x="713" 
d="M65 0v564h66l226 -308l225 308h66v-564h-80v428q-24 -42 -93 -136l-118 -161l-120 162q-84 113 -92 134v-427h-80z" />
    <glyph glyph-name="N.small" horiz-adv-x="614" 
d="M65 0v564h79l248 -324q17 -22 36 -51t30 -47l11 -18v440h80v-564h-81l-239 312q-20 26 -41 57t-32 49l-11 18v-436h-80z" />
    <glyph glyph-name="O.small" horiz-adv-x="667" 
d="M39 281q0 121 85 205.5t210 84.5t209.5 -84.5t84.5 -205.5t-85 -206t-209 -85q-125 0 -210 85t-85 206zM122 281q0 -90 61.5 -154t150.5 -64t150 64t61 154t-61 154t-150 64t-150.5 -64t-61.5 -154z" />
    <glyph glyph-name="P.small" horiz-adv-x="582" 
d="M65 0v564h233q111 0 177.5 -61t66.5 -152t-66 -151.5t-178 -60.5h-153v-139h-80zM305 494h-160v-286h159q68 0 111 41.5t43 101.5t-43 101.5t-110 41.5z" />
    <glyph glyph-name="Q.small" horiz-adv-x="667" 
d="M39 281q0 121 85 205.5t210 84.5t209.5 -84.5t84.5 -205.5q0 -103 -65 -184l52 -52l-49 -50l-55 54q-77 -59 -177 -59q-125 0 -210 85t-85 206zM122 281q0 -90 61.5 -154t150.5 -64q68 0 121 42l-71 73l49 50l72 -72q40 56 40 125q0 90 -61 154t-150 64t-150.5 -64
t-61.5 -154z" />
    <glyph glyph-name="R.small" horiz-adv-x="583" 
d="M65 0v564h233q111 0 177.5 -61t66.5 -152q0 -62 -32.5 -112.5t-91.5 -76.5l130 -162h-100l-108 141q-24 -2 -99 -2h-96v-139h-80zM145 208h160q67 0 110 41.5t43 101.5t-42.5 101.5t-109.5 41.5h-161v-286z" />
    <glyph glyph-name="S.small" horiz-adv-x="523" 
d="M38 72l39 61q76 -71 180 -71q65 0 105 27.5t40 68.5q0 31 -25.5 52t-63 31t-82 23t-82 27.5t-63 46.5t-25.5 78q0 72 59.5 113.5t139.5 41.5q108 0 195 -62l-35 -61q-71 52 -161 52q-44 0 -80 -22t-36 -60q0 -34 35 -55t85.5 -33.5t100.5 -28.5t85 -51.5t35 -91.5
q0 -76 -64.5 -122t-160.5 -46q-137 0 -221 82z" />
    <glyph glyph-name="T.small" horiz-adv-x="526" 
d="M509 564v-70h-206v-494h-80v494h-206v70h492z" />
    <glyph glyph-name="U.small" horiz-adv-x="582" 
d="M291 -10q-99 0 -167 63t-68 164v347h80v-346q0 -68 45 -111.5t110 -43.5q66 0 110.5 43.5t44.5 111.5v346h80v-347q0 -100 -68.5 -163.5t-166.5 -63.5z" />
    <glyph glyph-name="V.small" horiz-adv-x="582" 
d="M254 -2l-245 566h81l158 -358l43 -113q27 76 43 113l158 358h81l-246 -566h-73z" />
    <glyph glyph-name="W.small" horiz-adv-x="814" 
d="M194 -2l-185 566h80l122 -376l25 -82q10 45 21 82l108 376h84l108 -376l21 -82q13 45 25 82l123 376h79l-186 -566h-81l-110 368q-6 19 -11 43t-7 39l-3 14q-8 -53 -21 -96l-110 -368h-82z" />
    <glyph glyph-name="X.small" horiz-adv-x="534" 
d="M9 0l212 282l-210 282h93l110 -142l53 -80q35 54 54 80l109 142h93l-210 -282l212 -282h-93l-111 145l-54 77q-36 -54 -54 -77l-111 -145h-93z" />
    <glyph glyph-name="Y.small" horiz-adv-x="546" 
d="M234 0v265l-225 299h91l105 -135l69 -97q41 60 69 97l102 135h92l-223 -298v-266h-80z" />
    <glyph glyph-name="Z.small" horiz-adv-x="523" 
d="M30 0v64l310 377l49 53h-343v70h439v-64l-304 -371l-53 -59h365v-70h-463z" />
    <glyph glyph-name="Agrave.small" horiz-adv-x="608" 
d="M273 613l-94 133h85l81 -133h-72zM6 0l264 566h69l263 -566h-81l-46 97h-342l-45 -97h-82zM163 162h283l-93 196q-11 24 -23 52.5t-18.5 45t-7.5 17.5q-22 -61 -47 -114z" />
    <glyph glyph-name="Aacute.small" horiz-adv-x="608" 
d="M263 613l81 133h85l-94 -133h-72zM6 0l264 566h69l263 -566h-81l-46 97h-342l-45 -97h-82zM163 162h283l-93 196q-11 24 -23 52.5t-18.5 45t-7.5 17.5q-22 -61 -47 -114z" />
    <glyph glyph-name="Acircumflex.small" horiz-adv-x="608" 
d="M6 0l264 566h69l263 -566h-81l-46 97h-342l-45 -97h-82zM163 162h283l-93 196q-11 24 -23 52.5t-18.5 45t-7.5 17.5q-22 -61 -47 -114zM174 613l88 133h85l88 -133h-65l-66 87l-66 -87h-64z" />
    <glyph glyph-name="Atilde.small" horiz-adv-x="608" 
d="M174 608q0 45 19.5 73.5t51.5 28.5q27 0 65 -23.5t49 -23.5q29 0 29 47h48q0 -45 -19.5 -73.5t-51.5 -28.5q-27 0 -65 23.5t-48 23.5q-29 0 -29 -47h-49zM6 0l264 566h69l263 -566h-81l-46 97h-342l-45 -97h-82zM163 162h283l-93 196q-11 24 -23 52.5t-18.5 45t-7.5 17.5
q-22 -61 -47 -114z" />
    <glyph glyph-name="Adieresis.small" horiz-adv-x="608" 
d="M6 0l264 566h69l263 -566h-81l-46 97h-342l-45 -97h-82zM163 162h283l-93 196q-11 24 -23 52.5t-18.5 45t-7.5 17.5q-22 -61 -47 -114zM181 652q0 19 13 32t32 13q18 0 31 -13t13 -32q0 -18 -13 -31t-31 -13q-19 0 -32 13t-13 31zM338 652q0 19 13.5 32t32.5 13
q18 0 31 -13t13 -32q0 -18 -13 -31t-31 -13q-19 0 -32.5 13t-13.5 31z" />
    <glyph glyph-name="Amacron.small" horiz-adv-x="608" 
d="M205 623v59h200v-59h-200zM6 0l264 566h69l263 -566h-81l-46 97h-342l-45 -97h-82zM163 162h283l-93 196q-11 24 -23 52.5t-18.5 45t-7.5 17.5q-22 -61 -47 -114z" />
    <glyph glyph-name="Abreve.small" horiz-adv-x="608" 
d="M305 608q-47 0 -75.5 31t-28.5 76h46q3 -25 19 -38.5t39 -13.5t39 13.5t18 38.5h47q0 -45 -28.5 -76t-75.5 -31zM6 0l264 566h69l263 -566h-81l-46 97h-342l-45 -97h-82zM163 162h283l-93 196q-11 24 -23 52.5t-18.5 45t-7.5 17.5q-22 -61 -47 -114z" />
    <glyph glyph-name="Aring.small" horiz-adv-x="608" 
d="M208 696q0 41 29 70t70 29t70 -29t29 -70t-29 -70.5t-70 -29.5t-70 29.5t-29 70.5zM253 696q0 -24 15.5 -41t38.5 -17t38.5 17t15.5 41q0 23 -15.5 40t-38.5 17t-38.5 -17t-15.5 -40zM6 0l264 566h69l263 -566h-81l-46 97h-342l-45 -97h-82zM163 162h283l-93 196
q-11 24 -23 52.5t-18.5 45t-7.5 17.5q-22 -61 -47 -114z" />
    <glyph glyph-name="Aringacute.small" horiz-adv-x="608" 
d="M6 0l264 566h69l263 -566h-81l-46 97h-342l-45 -97h-82zM163 162h283l-93 196q-11 24 -23 52.5t-18.5 45t-7.5 17.5q-22 -61 -47 -114zM208 696q0 57 49 85l72 128h79l-77 -117q32 -8 53.5 -35t21.5 -61q0 -41 -29 -70.5t-70 -29.5t-70 29.5t-29 70.5zM253 696
q0 -24 15.5 -41t38.5 -17t38.5 17t15.5 41q0 23 -15.5 40t-38.5 17t-38.5 -17t-15.5 -40z" />
    <glyph glyph-name="Aogonek.small" horiz-adv-x="609" 
d="M6 0l264 566h69l263 -566h-30q-20 -19 -34 -49.5t-14 -58.5q0 -26 16 -42t40 -16q18 0 40 11l16 -40q-33 -25 -74 -25q-38 0 -66 24.5t-28 67.5q0 73 53 128l-46 97h-342l-45 -97h-82zM163 162h283l-93 196q-11 24 -23 52.5t-18.5 45t-7.5 17.5q-22 -61 -47 -114z" />
    <glyph glyph-name="AE.small" horiz-adv-x="834" 
d="M6 0l363 564h423v-70h-310v-162h290v-69h-290v-193h322v-70h-402v97h-245l-62 -97h-89zM197 162h205v332q-21 -41 -46 -81z" />
    <glyph glyph-name="AEacute.small" horiz-adv-x="838" 
d="M488 613l81 133h85l-94 -133h-72zM6 0l363 564h423v-70h-310v-162h290v-69h-290v-193h322v-70h-402v97h-245l-62 -97h-89zM197 162h205v332q-21 -41 -46 -81z" />
    <glyph glyph-name="Cacute.small" horiz-adv-x="561" 
d="M283 613l81 133h85l-94 -133h-72zM39 281q0 121 84.5 205.5t209.5 84.5q113 0 194 -70l-48 -54q-61 52 -141 52q-92 0 -154 -64t-62 -154t61.5 -154t150.5 -64q94 0 157 65l50 -55q-85 -83 -207 -83q-125 0 -210 85t-85 206z" />
    <glyph glyph-name="Ccircumflex.small" horiz-adv-x="561" 
d="M39 281q0 121 84.5 205.5t209.5 84.5q113 0 194 -70l-48 -54q-61 52 -141 52q-92 0 -154 -64t-62 -154t61.5 -154t150.5 -64q94 0 157 65l50 -55q-85 -83 -207 -83q-125 0 -210 85t-85 206zM204 613l88 133h85l88 -133h-65l-66 87l-66 -87h-64z" />
    <glyph glyph-name="Ccaron.small" horiz-adv-x="561" 
d="M292 613l-88 133h65l65 -87l66 87h65l-88 -133h-85zM39 281q0 121 84.5 205.5t209.5 84.5q113 0 194 -70l-48 -54q-61 52 -141 52q-92 0 -154 -64t-62 -154t61.5 -154t150.5 -64q94 0 157 65l50 -55q-85 -83 -207 -83q-125 0 -210 85t-85 206z" />
    <glyph glyph-name="Cdotaccent.small" horiz-adv-x="561" 
d="M39 281q0 121 84.5 205.5t209.5 84.5q113 0 194 -70l-48 -54q-61 52 -141 52q-92 0 -154 -64t-62 -154t61.5 -154t150.5 -64q94 0 157 65l50 -55q-85 -83 -207 -83q-125 0 -210 85t-85 206zM280 658q0 21 15 36t36 15q20 0 35 -15t15 -36q0 -20 -15 -35t-35 -15
q-21 0 -36 15t-15 35z" />
    <glyph glyph-name="Ccedilla.small" horiz-adv-x="561" 
d="M208 -185l22 36q38 -24 83 -24q32 0 51 15.5t19 35.5q0 17 -13 25.5t-31 8.5q-17 0 -34 -8t-25 -19l-43 16l55 92q-110 15 -181.5 96.5t-71.5 191.5q0 121 84.5 205.5t209.5 84.5q113 0 194 -70l-48 -54q-61 52 -141 52q-92 0 -154 -64t-62 -154t61.5 -154t150.5 -64
q94 0 157 65l50 -55q-82 -80 -202 -83l-29 -51q20 9 41 9q36 0 60.5 -18.5t24.5 -49.5q0 -40 -35 -66.5t-88 -26.5q-62 0 -105 28z" />
    <glyph glyph-name="Dcaron.small" horiz-adv-x="617" 
d="M223 613l-88 133h65l65 -87l66 87h65l-88 -133h-85zM145 70h132q97 0 157 59.5t60 152.5t-60 152.5t-157 59.5h-132v-424zM65 0v564h216q133 0 215 -81.5t82 -200.5t-82 -200.5t-215 -81.5h-216z" />
    <glyph glyph-name="Dcroat.small" horiz-adv-x="617" 
d="M65 0v259h-78v60h78v245h221q126 0 209 -82t83 -200t-83 -200t-209 -82h-221zM145 70h138q91 0 151 61t60 151q0 103 -68.5 157.5t-177.5 54.5h-103v-175h150v-60h-150v-189z" />
    <glyph glyph-name="Egrave.small" horiz-adv-x="545" 
d="M277 613l-94 133h85l81 -133h-72zM65 0v564h438v-70h-358v-161h339v-69h-339v-194h370v-70h-450z" />
    <glyph glyph-name="Eacute.small" horiz-adv-x="545" 
d="M222 613l81 133h85l-94 -133h-72zM65 0v564h438v-70h-358v-161h339v-69h-339v-194h370v-70h-450z" />
    <glyph glyph-name="Ecircumflex.small" horiz-adv-x="545" 
d="M65 0v564h438v-70h-358v-161h339v-69h-339v-194h370v-70h-450zM162 613l88 133h85l88 -133h-65l-66 87l-66 -87h-64z" />
    <glyph glyph-name="Ecaron.small" horiz-adv-x="545" 
d="M245 613l-88 133h65l65 -87l66 87h65l-88 -133h-85zM65 0v564h438v-70h-358v-161h339v-69h-339v-194h370v-70h-450z" />
    <glyph glyph-name="Edieresis.small" horiz-adv-x="545" 
d="M65 0v564h438v-70h-358v-161h339v-69h-339v-194h370v-70h-450zM169 652q0 19 13 32t32 13q18 0 31 -13t13 -32q0 -18 -13 -31t-31 -13q-19 0 -32 13t-13 31zM326 652q0 19 13.5 32t32.5 13q18 0 31 -13t13 -32q0 -18 -13 -31t-31 -13q-19 0 -32.5 13t-13.5 31z" />
    <glyph glyph-name="Emacron.small" horiz-adv-x="545" 
d="M184 623v59h200v-59h-200zM65 0v564h438v-70h-358v-161h339v-69h-339v-194h370v-70h-450z" />
    <glyph glyph-name="Ebreve.small" horiz-adv-x="545" 
d="M288 608q-47 0 -75.5 31t-28.5 76h46q3 -25 19 -38.5t39 -13.5t39 13.5t18 38.5h47q0 -45 -28.5 -76t-75.5 -31zM65 0v564h438v-70h-358v-161h339v-69h-339v-194h370v-70h-450z" />
    <glyph glyph-name="Edotaccent.small" horiz-adv-x="545" 
d="M65 0v564h438v-70h-358v-161h339v-69h-339v-194h370v-70h-450zM237 658q0 21 15 36t36 15q20 0 35 -15t15 -36q0 -20 -15 -35t-35 -15q-21 0 -36 15t-15 35z" />
    <glyph glyph-name="Eogonek.small" horiz-adv-x="551" 
d="M65 0v564h438v-70h-358v-161h339v-69h-339v-194h370v-70h-73q-20 -19 -34 -49.5t-14 -58.5q0 -26 16 -42t40 -16q18 0 40 11l16 -40q-33 -25 -74 -25q-38 0 -66 24.5t-28 67.5q0 73 53 128h-326z" />
    <glyph glyph-name="Gcircumflex.small" horiz-adv-x="623" 
d="M39 281q0 121 85 205.5t210 84.5q111 0 195 -71l-49 -55q-60 54 -146 54q-89 0 -150.5 -64t-61.5 -154t61.5 -154t150.5 -64q103 0 166 83v110h-117v68h194v-208q-39 -58 -103 -92t-140 -34q-125 0 -210 84.5t-85 206.5zM190 613l88 133h85l88 -133h-65l-66 87l-66 -87
h-64z" />
    <glyph glyph-name="Gbreve.small" horiz-adv-x="623" 
d="M326 608q-47 0 -75.5 31t-28.5 76h46q3 -25 19 -38.5t39 -13.5t39 13.5t18 38.5h47q0 -45 -28.5 -76t-75.5 -31zM39 281q0 121 85 205.5t210 84.5q111 0 195 -71l-49 -55q-60 54 -146 54q-89 0 -150.5 -64t-61.5 -154t61.5 -154t150.5 -64q103 0 166 83v110h-117v68h194
v-208q-39 -58 -103 -92t-140 -34q-125 0 -210 84.5t-85 206.5z" />
    <glyph glyph-name="Gdotaccent.small" horiz-adv-x="623" 
d="M39 281q0 121 85 205.5t210 84.5q111 0 195 -71l-49 -55q-60 54 -146 54q-89 0 -150.5 -64t-61.5 -154t61.5 -154t150.5 -64q103 0 166 83v110h-117v68h194v-208q-39 -58 -103 -92t-140 -34q-125 0 -210 84.5t-85 206.5zM276 658q0 21 15 36t36 15q20 0 35 -15t15 -36
q0 -20 -15 -35t-35 -15q-21 0 -36 15t-15 35z" />
    <glyph glyph-name="Gcommaaccent.small" horiz-adv-x="623" 
d="M39 281q0 121 85 205.5t210 84.5q111 0 195 -71l-49 -55q-60 54 -146 54q-89 0 -150.5 -64t-61.5 -154t61.5 -154t150.5 -64q103 0 166 83v110h-117v68h194v-208q-39 -58 -103 -92t-140 -34q-125 0 -210 84.5t-85 206.5zM267 -235q61 63 61 136q0 17 -9 35l58 20
q11 -24 11 -46q0 -49 -22.5 -87t-49.5 -58h-49z" />
    <glyph glyph-name="Hcircumflex.small" horiz-adv-x="599" 
d="M65 0v564h80v-230h309v230h80v-564h-80v264h-309v-264h-80zM173 613l88 133h85l88 -133h-65l-66 87l-66 -87h-64z" />
    <glyph glyph-name="Hbar.small" horiz-adv-x="599" 
d="M65 0v431h-35v56h35v77h80v-77h309v77h80v-77h35v-56h-35v-431h-80v264h-309v-264h-80zM145 334h309v97h-309v-97z" />
    <glyph glyph-name="Igrave.small" horiz-adv-x="210" 
d="M81 613l-94 133h85l81 -133h-72zM65 0v564h80v-564h-80z" />
    <glyph glyph-name="Iacute.small" horiz-adv-x="210" 
d="M56 613l81 133h85l-94 -133h-72zM65 0v564h80v-564h-80z" />
    <glyph glyph-name="Icircumflex.small" horiz-adv-x="210" 
d="M65 0v564h80v-564h-80zM-25 613l88 133h85l88 -133h-65l-66 87l-66 -87h-64z" />
    <glyph glyph-name="Itilde.small" horiz-adv-x="210" 
d="M-26 608q0 45 19.5 73.5t51.5 28.5q27 0 65 -23.5t49 -23.5q29 0 29 47h48q0 -45 -19.5 -73.5t-51.5 -28.5q-27 0 -65 23.5t-48 23.5q-29 0 -29 -47h-49zM65 0v564h80v-564h-80z" />
    <glyph glyph-name="Idieresis.small" horiz-adv-x="210" 
d="M65 0v564h80v-564h-80zM-19 652q0 19 13 32t32 13q18 0 31 -13t13 -32q0 -18 -13 -31t-31 -13q-19 0 -32 13t-13 31zM138 652q0 19 13.5 32t32.5 13q18 0 31 -13t13 -32q0 -18 -13 -31t-31 -13q-19 0 -32.5 13t-13.5 31z" />
    <glyph glyph-name="Imacron.small" horiz-adv-x="210" 
d="M5 623v59h200v-59h-200zM65 0v564h80v-564h-80z" />
    <glyph glyph-name="Ibreve.small" horiz-adv-x="210" 
d="M105 608q-47 0 -75.5 31t-28.5 76h46q3 -25 19 -38.5t39 -13.5t39 13.5t18 38.5h47q0 -45 -28.5 -76t-75.5 -31zM65 0v564h80v-564h-80z" />
    <glyph glyph-name="Idotaccent.small" horiz-adv-x="210" 
d="M65 0v564h80v-564h-80zM54 658q0 21 15 36t36 15q20 0 35 -15t15 -36q0 -20 -15 -35t-35 -15q-21 0 -36 15t-15 35z" />
    <glyph glyph-name="Iogonek.small" horiz-adv-x="210" 
d="M7 -128q0 77 58 133v559h80v-564h-34q-20 -19 -34 -49.5t-14 -58.5q0 -26 15.5 -42t40.5 -16q18 0 40 11l16 -40q-33 -25 -74 -25q-38 0 -66 24.5t-28 67.5z" />
    <glyph glyph-name="Jcircumflex.small" horiz-adv-x="472" 
d="M21 95l60 44q37 -75 118 -75q62 0 99.5 40t37.5 118v342h80v-336q0 -122 -60.5 -180t-156.5 -58q-123 0 -178 105zM244 613l88 133h85l88 -133h-65l-66 87l-66 -87h-64z" />
    <glyph glyph-name="Kcommaaccent.small" horiz-adv-x="566" 
d="M65 0v564h80v-353q33 48 56 75l240 278h95l-219 -261l240 -303h-95l-195 247l-122 -140v-107h-80zM176 -235q61 63 61 136q0 17 -9 35l58 20q11 -24 11 -46q0 -49 -22.5 -87t-49.5 -58h-49z" />
    <glyph glyph-name="Lacute.small" horiz-adv-x="525" 
d="M59 613l81 133h85l-94 -133h-72zM65 0v564h80v-494h350v-70h-430z" />
    <glyph glyph-name="Lcaron.small" horiz-adv-x="525" 
d="M65 0v564h80v-494h350v-70h-430zM182 370q63 67 63 141q0 19 -10 37l60 20q11 -24 11 -47q0 -51 -23 -90.5t-51 -60.5h-50z" />
    <glyph glyph-name="Lcommaaccent.small" horiz-adv-x="525" 
d="M65 0v564h80v-494h350v-70h-430zM215 -235q61 63 61 136q0 17 -9 35l58 20q11 -24 11 -46q0 -49 -22.5 -87t-49.5 -58h-49z" />
    <glyph glyph-name="Lslash.small" horiz-adv-x="525" 
d="M65 0v249l-59 -25v66l59 25v249h80v-215l154 66v-64l-154 -68v-213h350v-70h-430z" />
    <glyph glyph-name="Nacute.small" horiz-adv-x="614" 
d="M253 613l81 133h85l-94 -133h-72zM65 0v564h79l248 -324q17 -22 36 -51t30 -47l11 -18v440h80v-564h-81l-239 312q-20 26 -41 57t-32 49l-11 18v-436h-80z" />
    <glyph glyph-name="Ncaron.small" horiz-adv-x="614" 
d="M264 613l-88 133h65l65 -87l66 87h65l-88 -133h-85zM65 0v564h79l248 -324q17 -22 36 -51t30 -47l11 -18v440h80v-564h-81l-239 312q-20 26 -41 57t-32 49l-11 18v-436h-80z" />
    <glyph glyph-name="Ntilde.small" horiz-adv-x="614" 
d="M176 608q0 45 19.5 73.5t51.5 28.5q27 0 65 -23.5t49 -23.5q29 0 29 47h48q0 -45 -19.5 -73.5t-51.5 -28.5q-27 0 -65 23.5t-48 23.5q-29 0 -29 -47h-49zM65 0v564h79l248 -324q17 -22 36 -51t30 -47l11 -18v440h80v-564h-81l-239 312q-20 26 -41 57t-32 49l-11 18v-436
h-80z" />
    <glyph glyph-name="Ncommaaccent.small" horiz-adv-x="614" 
d="M65 0v564h79l248 -324q17 -22 36 -51t30 -47l11 -18v440h80v-564h-81l-239 312q-20 26 -41 57t-32 49l-11 18v-436h-80zM241 -235q61 63 61 136q0 17 -9 35l58 20q11 -24 11 -46q0 -49 -22.5 -87t-49.5 -58h-49z" />
    <glyph glyph-name="Ograve.small" horiz-adv-x="667" 
d="M310 613l-94 133h85l81 -133h-72zM39 281q0 121 85 205.5t210 84.5t209.5 -84.5t84.5 -205.5t-85 -206t-209 -85q-125 0 -210 85t-85 206zM122 281q0 -90 61.5 -154t150.5 -64t150 64t61 154t-61 154t-150 64t-150.5 -64t-61.5 -154z" />
    <glyph glyph-name="Oacute.small" horiz-adv-x="667" 
d="M285 613l81 133h85l-94 -133h-72zM39 281q0 121 85 205.5t210 84.5t209.5 -84.5t84.5 -205.5t-85 -206t-209 -85q-125 0 -210 85t-85 206zM122 281q0 -90 61.5 -154t150.5 -64t150 64t61 154t-61 154t-150 64t-150.5 -64t-61.5 -154z" />
    <glyph glyph-name="Ocircumflex.small" horiz-adv-x="667" 
d="M39 281q0 121 85 205.5t210 84.5t209.5 -84.5t84.5 -205.5t-85 -206t-209 -85q-125 0 -210 85t-85 206zM122 281q0 -90 61.5 -154t150.5 -64t150 64t61 154t-61 154t-150 64t-150.5 -64t-61.5 -154zM204 613l88 133h85l88 -133h-65l-66 87l-66 -87h-64z" />
    <glyph glyph-name="Otilde.small" horiz-adv-x="667" 
d="M202 608q0 45 19.5 73.5t51.5 28.5q27 0 65 -23.5t49 -23.5q29 0 29 47h48q0 -45 -19.5 -73.5t-51.5 -28.5q-27 0 -65 23.5t-48 23.5q-29 0 -29 -47h-49zM39 281q0 121 85 205.5t210 84.5t209.5 -84.5t84.5 -205.5t-85 -206t-209 -85q-125 0 -210 85t-85 206zM122 281
q0 -90 61.5 -154t150.5 -64t150 64t61 154t-61 154t-150 64t-150.5 -64t-61.5 -154z" />
    <glyph glyph-name="Odieresis.small" horiz-adv-x="667" 
d="M39 281q0 121 85 205.5t210 84.5t209.5 -84.5t84.5 -205.5t-85 -206t-209 -85q-125 0 -210 85t-85 206zM122 281q0 -90 61.5 -154t150.5 -64t150 64t61 154t-61 154t-150 64t-150.5 -64t-61.5 -154zM210 652q0 19 13 32t32 13q18 0 31 -13t13 -32q0 -18 -13 -31t-31 -13
q-19 0 -32 13t-13 31zM367 652q0 19 13.5 32t32.5 13q18 0 31 -13t13 -32q0 -18 -13 -31t-31 -13q-19 0 -32.5 13t-13.5 31z" />
    <glyph glyph-name="Omacron.small" horiz-adv-x="667" 
d="M234 623v59h200v-59h-200zM39 281q0 121 85 205.5t210 84.5t209.5 -84.5t84.5 -205.5t-85 -206t-209 -85q-125 0 -210 85t-85 206zM122 281q0 -90 61.5 -154t150.5 -64t150 64t61 154t-61 154t-150 64t-150.5 -64t-61.5 -154z" />
    <glyph glyph-name="Obreve.small" horiz-adv-x="667" 
d="M334 608q-47 0 -75.5 31t-28.5 76h46q3 -25 19 -38.5t39 -13.5t39 13.5t18 38.5h47q0 -45 -28.5 -76t-75.5 -31zM39 281q0 121 85 205.5t210 84.5t209.5 -84.5t84.5 -205.5t-85 -206t-209 -85q-125 0 -210 85t-85 206zM122 281q0 -90 61.5 -154t150.5 -64t150 64t61 154
t-61 154t-150 64t-150.5 -64t-61.5 -154z" />
    <glyph glyph-name="Ohungarumlaut.small" horiz-adv-x="667" 
d="M39 281q0 121 85 205.5t210 84.5t209.5 -84.5t84.5 -205.5t-85 -206t-209 -85q-125 0 -210 85t-85 206zM122 281q0 -90 61.5 -154t150.5 -64t150 64t61 154t-61 154t-150 64t-150.5 -64t-61.5 -154zM227 613l74 126h85l-97 -126h-62zM355 613l74 126h85l-97 -126h-62z
" />
    <glyph glyph-name="Oslash.small" horiz-adv-x="667" 
d="M154 -61l-37 22l48 80q-59 39 -92.5 102.5t-33.5 137.5q0 121 85 205.5t210 84.5q71 0 131 -29l49 80l37 -22l-49 -79q58 -39 92 -103t34 -137q0 -121 -85 -206t-209 -85q-69 0 -132 30zM122 281q0 -52 22 -97.5t61 -75.5l221 369q-42 22 -92 22q-89 0 -150.5 -64
t-61.5 -154zM241 84q45 -21 93 -21q89 0 150 64t61 154q0 107 -82 173z" />
    <glyph glyph-name="Oslashacute.small" horiz-adv-x="667" 
d="M286 613l81 133h85l-94 -133h-72zM154 -61l-37 22l48 80q-59 39 -92.5 102.5t-33.5 137.5q0 121 85 205.5t210 84.5q71 0 131 -29l49 80l37 -22l-49 -79q58 -39 92 -103t34 -137q0 -121 -85 -206t-209 -85q-69 0 -132 30zM122 281q0 -52 22 -97.5t61 -75.5l221 369
q-42 22 -92 22q-89 0 -150.5 -64t-61.5 -154zM241 84q45 -21 93 -21q89 0 150 64t61 154q0 107 -82 173z" />
    <glyph glyph-name="OE.small" horiz-adv-x="912" 
d="M39 281q0 121 85 205.5t210 84.5q82 0 146 -46v39h390v-70h-310v-162h290v-69h-290v-193h322v-70h-402v36q-63 -46 -146 -46q-125 0 -210 85t-85 206zM122 281q0 -90 63 -154t154 -64q87 0 141 55v326q-55 55 -141 55q-91 0 -154 -64t-63 -154z" />
    <glyph glyph-name="Racute.small" horiz-adv-x="583" 
d="M200 613l81 133h85l-94 -133h-72zM65 0v564h233q111 0 177.5 -61t66.5 -152q0 -62 -32.5 -112.5t-91.5 -76.5l130 -162h-100l-108 141q-24 -2 -99 -2h-96v-139h-80zM145 208h160q67 0 110 41.5t43 101.5t-42.5 101.5t-109.5 41.5h-161v-286z" />
    <glyph glyph-name="Rcaron.small" horiz-adv-x="583" 
d="M221 613l-88 133h65l65 -87l66 87h65l-88 -133h-85zM65 0v564h233q111 0 177.5 -61t66.5 -152q0 -62 -32.5 -112.5t-91.5 -76.5l130 -162h-100l-108 141q-24 -2 -99 -2h-96v-139h-80zM145 208h160q67 0 110 41.5t43 101.5t-42.5 101.5t-109.5 41.5h-161v-286z" />
    <glyph glyph-name="Rcommaaccent.small" horiz-adv-x="583" 
d="M65 0v564h233q111 0 177.5 -61t66.5 -152q0 -62 -32.5 -112.5t-91.5 -76.5l130 -162h-100l-108 141q-24 -2 -99 -2h-96v-139h-80zM145 208h160q67 0 110 41.5t43 101.5t-42.5 101.5t-109.5 41.5h-161v-286zM189 -235q61 63 61 136q0 17 -9 35l58 20q11 -24 11 -46
q0 -49 -22.5 -87t-49.5 -58h-49z" />
    <glyph glyph-name="Sacute.small" horiz-adv-x="523" 
d="M214 613l81 133h85l-94 -133h-72zM38 72l39 61q76 -71 180 -71q65 0 105 27.5t40 68.5q0 31 -25.5 52t-63 31t-82 23t-82 27.5t-63 46.5t-25.5 78q0 72 59.5 113.5t139.5 41.5q108 0 195 -62l-35 -61q-71 52 -161 52q-44 0 -80 -22t-36 -60q0 -34 35 -55t85.5 -33.5
t100.5 -28.5t85 -51.5t35 -91.5q0 -76 -64.5 -122t-160.5 -46q-137 0 -221 82z" />
    <glyph glyph-name="Scircumflex.small" horiz-adv-x="523" 
d="M38 72l39 61q76 -71 180 -71q65 0 105 27.5t40 68.5q0 31 -25.5 52t-63 31t-82 23t-82 27.5t-63 46.5t-25.5 78q0 72 59.5 113.5t139.5 41.5q108 0 195 -62l-35 -61q-71 52 -161 52q-44 0 -80 -22t-36 -60q0 -34 35 -55t85.5 -33.5t100.5 -28.5t85 -51.5t35 -91.5
q0 -76 -64.5 -122t-160.5 -46q-137 0 -221 82zM133 613l88 133h85l88 -133h-65l-66 87l-66 -87h-64z" />
    <glyph glyph-name="Scaron.small" horiz-adv-x="523" 
d="M220 613l-88 133h65l65 -87l66 87h65l-88 -133h-85zM38 72l39 61q76 -71 180 -71q65 0 105 27.5t40 68.5q0 31 -25.5 52t-63 31t-82 23t-82 27.5t-63 46.5t-25.5 78q0 72 59.5 113.5t139.5 41.5q108 0 195 -62l-35 -61q-71 52 -161 52q-44 0 -80 -22t-36 -60
q0 -34 35 -55t85.5 -33.5t100.5 -28.5t85 -51.5t35 -91.5q0 -76 -64.5 -122t-160.5 -46q-137 0 -221 82z" />
    <glyph glyph-name="Scedilla.small" horiz-adv-x="523" 
d="M162 -185l22 36q38 -24 83 -24q32 0 51 15.5t19 35.5q0 17 -13 25.5t-31 8.5q-17 0 -34 -8t-25 -19l-43 16l53 89q-127 5 -206 82l39 61q76 -71 180 -71q65 0 105 27.5t40 68.5q0 31 -25.5 52t-63 31t-82 23t-82 27.5t-63 46.5t-25.5 78q0 72 59.5 113.5t139.5 41.5
q108 0 195 -62l-35 -61q-71 52 -161 52q-44 0 -80 -22t-36 -60q0 -34 35 -55t85.5 -33.5t100.5 -28.5t85 -51.5t35 -91.5q0 -69 -53 -113t-137 -53l-30 -53q20 9 41 9q36 0 60.5 -18.5t24.5 -49.5q0 -40 -35 -66.5t-88 -26.5q-62 0 -105 28z" />
    <glyph glyph-name="Scommaaccent.small" horiz-adv-x="523" 
d="M38 72l39 61q76 -71 180 -71q65 0 105 27.5t40 68.5q0 31 -25.5 52t-63 31t-82 23t-82 27.5t-63 46.5t-25.5 78q0 72 59.5 113.5t139.5 41.5q108 0 195 -62l-35 -61q-71 52 -161 52q-44 0 -80 -22t-36 -60q0 -34 35 -55t85.5 -33.5t100.5 -28.5t85 -51.5t35 -91.5
q0 -76 -64.5 -122t-160.5 -46q-137 0 -221 82zM187 -235q61 63 61 136q0 17 -9 35l58 20q11 -24 11 -46q0 -49 -22.5 -87t-49.5 -58h-49z" />
    <glyph glyph-name="germandbls.small" horiz-adv-x="480" 
d="M56 0v390q0 89 43.5 135.5t115.5 46.5q70 0 117.5 -46t47.5 -112q0 -88 -55 -126q53 -10 87.5 -51t34.5 -94q0 -68 -44 -110.5t-114 -42.5q-61 0 -99 33l29 64q21 -23 62 -23q39 0 63.5 25.5t24.5 62.5q0 40 -31 66t-90 26h-28v59h7q29 0 53.5 25t24.5 75q0 42 -24 70.5
t-64 28.5q-37 0 -59 -28.5t-22 -77.5v-396h-80z" />
    <glyph glyph-name="Tcaron.small" horiz-adv-x="527" 
d="M220 613l-88 133h65l65 -87l66 87h65l-88 -133h-85zM509 564v-70h-206v-494h-80v494h-206v70h492z" />
    <glyph glyph-name="Tcommaaccent.small" horiz-adv-x="527" 
d="M509 564v-70h-206v-494h-80v494h-206v70h492zM185 -235q61 63 61 136q0 17 -9 35l58 20q11 -24 11 -46q0 -49 -22.5 -87t-49.5 -58h-49z" />
    <glyph glyph-name="Tbar.small" horiz-adv-x="526" 
d="M509 564v-70h-206v-138h132v-56h-132v-300h-80v300h-132v56h132v138h-206v70h492z" />
    <glyph glyph-name="Ugrave.small" horiz-adv-x="582" 
d="M276 613l-94 133h85l81 -133h-72zM291 -10q-99 0 -167 63t-68 164v347h80v-346q0 -68 45 -111.5t110 -43.5q66 0 110.5 43.5t44.5 111.5v346h80v-347q0 -100 -68.5 -163.5t-166.5 -63.5z" />
    <glyph glyph-name="Uacute.small" horiz-adv-x="582" 
d="M240 613l81 133h85l-94 -133h-72zM291 -10q-99 0 -167 63t-68 164v347h80v-346q0 -68 45 -111.5t110 -43.5q66 0 110.5 43.5t44.5 111.5v346h80v-347q0 -100 -68.5 -163.5t-166.5 -63.5z" />
    <glyph glyph-name="Ucircumflex.small" horiz-adv-x="582" 
d="M291 -10q-99 0 -167 63t-68 164v347h80v-346q0 -68 45 -111.5t110 -43.5q66 0 110.5 43.5t44.5 111.5v346h80v-347q0 -100 -68.5 -163.5t-166.5 -63.5zM162 613l88 133h85l88 -133h-65l-66 87l-66 -87h-64z" />
    <glyph glyph-name="Utilde.small" horiz-adv-x="582" 
d="M160 608q0 45 19.5 73.5t51.5 28.5q27 0 65 -23.5t49 -23.5q29 0 29 47h48q0 -45 -19.5 -73.5t-51.5 -28.5q-27 0 -65 23.5t-48 23.5q-29 0 -29 -47h-49zM291 -10q-99 0 -167 63t-68 164v347h80v-346q0 -68 45 -111.5t110 -43.5q66 0 110.5 43.5t44.5 111.5v346h80v-347
q0 -100 -68.5 -163.5t-166.5 -63.5z" />
    <glyph glyph-name="Udieresis.small" horiz-adv-x="582" 
d="M291 -10q-99 0 -167 63t-68 164v347h80v-346q0 -68 45 -111.5t110 -43.5q66 0 110.5 43.5t44.5 111.5v346h80v-347q0 -100 -68.5 -163.5t-166.5 -63.5zM167 652q0 19 13 32t32 13q18 0 31 -13t13 -32q0 -18 -13 -31t-31 -13q-19 0 -32 13t-13 31zM324 652q0 19 13.5 32
t32.5 13q18 0 31 -13t13 -32q0 -18 -13 -31t-31 -13q-19 0 -32.5 13t-13.5 31z" />
    <glyph glyph-name="Umacron.small" horiz-adv-x="582" 
d="M191 623v59h200v-59h-200zM291 -10q-99 0 -167 63t-68 164v347h80v-346q0 -68 45 -111.5t110 -43.5q66 0 110.5 43.5t44.5 111.5v346h80v-347q0 -100 -68.5 -163.5t-166.5 -63.5z" />
    <glyph glyph-name="Ubreve.small" horiz-adv-x="582" 
d="M291 608q-47 0 -75.5 31t-28.5 76h46q3 -25 19 -38.5t39 -13.5t39 13.5t18 38.5h47q0 -45 -28.5 -76t-75.5 -31zM291 -10q-99 0 -167 63t-68 164v347h80v-346q0 -68 45 -111.5t110 -43.5q66 0 110.5 43.5t44.5 111.5v346h80v-347q0 -100 -68.5 -163.5t-166.5 -63.5z" />
    <glyph glyph-name="Uring.small" horiz-adv-x="582" 
d="M194 687q0 41 29 70t70 29t70 -29t29 -70t-29 -70.5t-70 -29.5t-70 29.5t-29 70.5zM239 687q0 -24 15.5 -41t38.5 -17t38.5 17t15.5 41q0 23 -15.5 40t-38.5 17t-38.5 -17t-15.5 -40zM291 -10q-99 0 -167 63t-68 164v347h80v-346q0 -68 45 -111.5t110 -43.5
q66 0 110.5 43.5t44.5 111.5v346h80v-347q0 -100 -68.5 -163.5t-166.5 -63.5z" />
    <glyph glyph-name="Uhungarumlaut.small" horiz-adv-x="582" 
d="M291 -10q-99 0 -167 63t-68 164v347h80v-346q0 -68 45 -111.5t110 -43.5q66 0 110.5 43.5t44.5 111.5v346h80v-347q0 -100 -68.5 -163.5t-166.5 -63.5zM178 613l74 126h85l-97 -126h-62zM306 613l74 126h85l-97 -126h-62z" />
    <glyph glyph-name="Uogonek.small" horiz-adv-x="582" 
d="M291 -10q-99 0 -167 63t-68 164v347h80v-346q0 -68 45 -111.5t110 -43.5q66 0 110.5 43.5t44.5 111.5v346h80v-347q0 -81 -45.5 -139t-118.5 -78q-21 -19 -34.5 -49.5t-13.5 -58.5q0 -26 16 -42t40 -16q18 0 40 11l16 -40q-33 -25 -74 -25q-38 0 -66 24.5t-28 67.5
q0 66 44 118h-11z" />
    <glyph glyph-name="Wgrave.small" horiz-adv-x="814" 
d="M387 613l-94 133h85l81 -133h-72zM194 -2l-185 566h80l122 -376l25 -82q10 45 21 82l108 376h84l108 -376l21 -82q13 45 25 82l123 376h79l-186 -566h-81l-110 368q-6 19 -11 43t-7 39l-3 14q-8 -53 -21 -96l-110 -368h-82z" />
    <glyph glyph-name="Wacute.small" horiz-adv-x="814" 
d="M349 613l81 133h85l-94 -133h-72zM194 -2l-185 566h80l122 -376l25 -82q10 45 21 82l108 376h84l108 -376l21 -82q13 45 25 82l123 376h79l-186 -566h-81l-110 368q-6 19 -11 43t-7 39l-3 14q-8 -53 -21 -96l-110 -368h-82z" />
    <glyph glyph-name="Wcircumflex.small" horiz-adv-x="814" 
d="M194 -2l-185 566h80l122 -376l25 -82q10 45 21 82l108 376h84l108 -376l21 -82q13 45 25 82l123 376h79l-186 -566h-81l-110 368q-6 19 -11 43t-7 39l-3 14q-8 -53 -21 -96l-110 -368h-82zM276 613l88 133h85l88 -133h-65l-66 87l-66 -87h-64z" />
    <glyph glyph-name="Wdieresis.small" horiz-adv-x="814" 
d="M194 -2l-185 566h80l122 -376l25 -82q10 45 21 82l108 376h84l108 -376l21 -82q13 45 25 82l123 376h79l-186 -566h-81l-110 368q-6 19 -11 43t-7 39l-3 14q-8 -53 -21 -96l-110 -368h-82zM282 652q0 19 13 32t32 13q18 0 31 -13t13 -32q0 -18 -13 -31t-31 -13
q-19 0 -32 13t-13 31zM439 652q0 19 13.5 32t32.5 13q18 0 31 -13t13 -32q0 -18 -13 -31t-31 -13q-19 0 -32.5 13t-13.5 31z" />
    <glyph glyph-name="Ygrave.small" horiz-adv-x="546" 
d="M250 613l-94 133h85l81 -133h-72zM234 0v265l-225 299h91l105 -135l69 -97q41 60 69 97l102 135h92l-223 -298v-266h-80z" />
    <glyph glyph-name="Yacute.small" horiz-adv-x="546" 
d="M223 613l81 133h85l-94 -133h-72zM234 0v265l-225 299h91l105 -135l69 -97q41 60 69 97l102 135h92l-223 -298v-266h-80z" />
    <glyph glyph-name="Ycircumflex.small" horiz-adv-x="546" 
d="M234 0v265l-225 299h91l105 -135l69 -97q41 60 69 97l102 135h92l-223 -298v-266h-80zM143 613l88 133h85l88 -133h-65l-66 87l-66 -87h-64z" />
    <glyph glyph-name="Ydieresis.small" horiz-adv-x="546" 
d="M234 0v265l-225 299h91l105 -135l69 -97q41 60 69 97l102 135h92l-223 -298v-266h-80zM149 652q0 19 13 32t32 13q18 0 31 -13t13 -32q0 -18 -13 -31t-31 -13q-19 0 -32 13t-13 31zM306 652q0 19 13.5 32t32.5 13q18 0 31 -13t13 -32q0 -18 -13 -31t-31 -13
q-19 0 -32.5 13t-13.5 31z" />
    <glyph glyph-name="Zacute.small" horiz-adv-x="523" 
d="M207 613l81 133h85l-94 -133h-72zM30 0v64l310 377l49 53h-343v70h439v-64l-304 -371l-53 -59h365v-70h-463z" />
    <glyph glyph-name="Zcaron.small" horiz-adv-x="523" 
d="M219 613l-88 133h65l65 -87l66 87h65l-88 -133h-85zM30 0v64l310 377l49 53h-343v70h439v-64l-304 -371l-53 -59h365v-70h-463z" />
    <glyph glyph-name="Zdotaccent.small" horiz-adv-x="523" 
d="M30 0v64l310 377l49 53h-343v70h439v-64l-304 -371l-53 -59h365v-70h-463zM211 658q0 21 15 36t36 15q20 0 35 -15t15 -36q0 -20 -15 -35t-35 -15q-21 0 -36 15t-15 35z" />
    <glyph glyph-name="Eng.small" horiz-adv-x="614" 
d="M65 0v564h79l261 -341q13 -17 29 -42t26 -41l9 -16v440h80v-558q0 -66 -42.5 -117t-113.5 -71l-20 62q89 33 92 123l-249 326q-16 22 -34 49t-28 43l-9 16v-437h-80z" />
    <glyph glyph-name="Eth.small" horiz-adv-x="617" 
d="M65 0v259h-78v60h78v245h221q126 0 209 -82t83 -200t-83 -200t-209 -82h-221zM145 70h138q91 0 151 61t60 151q0 103 -68.5 157.5t-177.5 54.5h-103v-175h150v-60h-150v-189z" />
    <glyph glyph-name="Thorn.small" horiz-adv-x="518" 
d="M65 0v564h80v-90h144q80 0 136 -55.5t56 -134.5q0 -78 -56.5 -134t-135.5 -56h-144v-94h-80zM145 164h136q48 0 82.5 35.5t34.5 84.5t-34.5 84.5t-82.5 35.5h-136v-240z" />
    <glyph glyph-name="cent.oldstyle" horiz-adv-x="551" 
d="M410 385q-41 42 -104 42q-58 0 -102 -41.5t-44 -107.5q0 -69 45.5 -108.5t102.5 -39.5q67 0 115 48l46 -60q-57 -52 -134 -60v-100h-59v100q-82 11 -138 73t-56 147t56.5 146.5t137.5 72.5v98h59v-98q72 -9 124 -55z" />
    <glyph glyph-name="sterling.oldstyle" horiz-adv-x="551" 
d="M71 0v63h67v189h-63v57h63v88q0 82 51.5 128t130.5 46q83 0 139 -52l-44 -54q-43 37 -94 37q-45 0 -75.5 -28t-30.5 -73v-92h167v-57h-167v-183h264v-69h-408z" />
    <glyph glyph-name="florin.oldstyle" horiz-adv-x="551" 
d="M25 -47l41 48q28 -28 61 -28q45 0 61 57l73 273h-62l15 56h63l20 77q18 69 43.5 102t78.5 33q42 0 85 -27l-20 -57q-23 16 -47 16q-42 0 -58 -59l-23 -85h107l-16 -56h-105l-70 -260q-36 -140 -141 -140q-62 0 -106 50z" />
    <glyph glyph-name="yen.oldstyle" horiz-adv-x="551" 
d="M237 0v104h-115v52h115v54h-115v52h115v15l-184 287h90l100 -161l33 -64q20 47 31 64l100 161h90l-183 -287v-15h115v-52h-115v-54h115v-52h-115v-104h-77z" />
    <glyph glyph-name="Euro.oldstyle" horiz-adv-x="551" 
d="M56 200l13 51h48q-1 28 -1 31q0 5 0.5 15t0.5 14h-51l14 52h44q20 95 81 151.5t145 56.5q103 0 167 -82l-46 -47q-48 60 -117 60q-55 0 -94 -37.5t-55 -101.5h221l-14 -52h-216q-2 -26 -2 -29l2 -31h204l-14 -51h-180q14 -64 53.5 -102t93.5 -38q75 0 126 74l52 -43
q-67 -101 -181 -101q-85 0 -145.5 57t-80.5 153h-68z" />
    <glyph glyph-name="dollar.oldstyle" horiz-adv-x="551" 
d="M68 82l32 58q64 -71 172 -71q55 0 93 27t38 68q0 33 -31.5 54t-77 33.5t-91 27.5t-77 47.5t-31.5 83.5q0 64 44 103t106 47v105h60v-105q76 -6 146 -63l-33 -59q-66 58 -138 58q-41 0 -73.5 -23.5t-32.5 -60.5q0 -28 23 -47.5t57 -28.5t74 -22.5t74 -28t57 -46t23 -75.5
q0 -71 -50.5 -113t-126.5 -49v-117h-60v115q-110 6 -177 82z" />
    </font>
</defs>
</svg>
