<?xml version="1.0" standalone="no"?>
<!DOCTYPE svg PUBLIC "-//W3C//DTD SVG 1.1//EN" "http://www.w3.org/Graphics/SVG/1.1/DTD/svg11.dtd" >
<svg xmlns="http://www.w3.org/2000/svg" xmlns:xlink="http://www.w3.org/1999/xlink" version="1.1">
<metadata>
Created by FontForge 20170731 at Mon Mar 25 10:51:15 2013
 By Aleksey,,,
Copyright (c) 2013 Type-O-Tones. v1.0 by Jose M. Uros. Barcelona. All rights reserved.
</metadata>
<defs>
<font id="Arboria-Bold" horiz-adv-x="580" >
  <font-face 
    font-family="Arboria-Bold"
    font-weight="400"
    font-stretch="normal"
    units-per-em="1000"
    panose-1="2 0 5 6 2 0 0 2 0 4"
    ascent="800"
    descent="-200"
    x-height="500"
    cap-height="648"
    bbox="-53 -235 1251 1024"
    underline-thickness="36"
    underline-position="-112"
    unicode-range="U+0020-FB02"
  />
<missing-glyph horiz-adv-x="280" 
 />
    <glyph glyph-name="fi" unicode="fi" horiz-adv-x="586" 
d="M70 0v392h-78v108h79v34q0 37 11.5 67t28.5 47.5t39 29t41.5 16t36.5 4.5q45 0 79 -10t46 -20l12 -10l-51 -92q-37 21 -62 21q-47 0 -47 -59v-28h124v-108h-125v-392h-134zM392 0v500h134v-500h-134zM380 629q0 33 23.5 56.5t55.5 23.5q33 0 56.5 -23.5t23.5 -56.5
q0 -32 -23.5 -55.5t-56.5 -23.5q-32 0 -55.5 23.5t-23.5 55.5z" />
    <glyph glyph-name="fl" unicode="fl" horiz-adv-x="586" 
d="M70 0v392h-78v108h79v34q0 37 11.5 67t28.5 47.5t39 29t41.5 16t36.5 4.5q45 0 79 -10t46 -20l12 -10l-51 -92q-37 21 -62 21q-47 0 -47 -59v-28h124v-108h-125v-392h-134zM392 0v658h134v-658h-134z" />
    <glyph glyph-name=".notdef" horiz-adv-x="280" 
 />
    <glyph glyph-name=".null" horiz-adv-x="0" 
 />
    <glyph glyph-name="nonmarkingreturn" horiz-adv-x="333" 
 />
    <glyph glyph-name="space" unicode=" " horiz-adv-x="280" 
 />
    <glyph glyph-name="exclam" unicode="!" horiz-adv-x="269" 
d="M55 70q0 32 23.5 55.5t55.5 23.5q33 0 56.5 -23.5t23.5 -55.5q0 -33 -23.5 -56.5t-56.5 -23.5q-32 0 -55.5 23.5t-23.5 56.5zM77 209l-10 439h134l-10 -439h-114z" />
    <glyph glyph-name="quotedbl" unicode="&#x22;" horiz-adv-x="431" 
d="M71 376v272h104v-272h-104zM256 376v272h104v-272h-104z" />
    <glyph glyph-name="numbersign" unicode="#" 
d="M70 0l44 182h-75l21 86h74l34 141h-74l20 86h75l37 153h96l-37 -153h92l37 153h92l-37 -153h71l-20 -86h-72l-33 -141h71l-21 -86h-71l-44 -182h-92l44 182h-92l-44 -182h-96zM231 268h91l35 141h-93z" />
    <glyph glyph-name="dollar" unicode="$" 
d="M52 91l47 104q85 -68 190 -68q42 0 72 21.5t30 50.5q0 21 -16 36t-34 21.5t-48 14.5q-49 12 -81 23.5t-67.5 32.5t-53.5 54t-18 78q0 71 46.5 114.5t119.5 56.5v114h106v-114q85 -11 156 -60l-48 -104q-43 27 -79 38.5t-85 11.5q-33 0 -56.5 -15.5t-23.5 -37.5
q0 -29 23 -43.5t74 -27.5q100 -24 160.5 -68.5t60.5 -124.5q0 -78 -51.5 -125t-130.5 -60v-125h-106v122q-110 11 -187 80z" />
    <glyph glyph-name="percent" unicode="%" horiz-adv-x="914" 
d="M145 459q0 -48 18 -78.5t49 -30.5q29 0 48 31t19 78q0 48 -19 79t-48 31q-31 0 -49 -30.5t-18 -79.5zM50 459q0 88 45.5 143.5t116.5 55.5t116 -55.5t45 -143.5t-45 -143t-116 -55t-116.5 55t-45.5 143zM636 189q0 -48 18 -78.5t49 -30.5q29 0 48 31t19 78q0 48 -19 79
t-48 31q-31 0 -49 -30.5t-18 -79.5zM541 189q0 88 45.5 143.5t116.5 55.5t116 -55.5t45 -143.5t-45 -143t-116 -55t-116.5 55t-45.5 143zM234 26l396 658l63 -36l-396 -658z" />
    <glyph glyph-name="ampersand" unicode="&#x26;" horiz-adv-x="614" 
d="M30 191q0 106 100 177q-36 60 -36 114q0 69 49 122.5t140 53.5q27 0 49 -4.5t48 -17t50 -39.5t43 -68l-109 -73q-12 35 -34 58t-45 23t-38 -15.5t-15 -39.5q0 -57 80 -134l124 -119q11 22 11 56h126q0 -96 -40 -148l68 -66l-82 -84l-69 63q-87 -60 -197 -60
q-94 0 -158.5 52t-64.5 149zM165 201q0 -36 28 -60.5t76 -24.5q45 0 86 21l-152 140q-38 -34 -38 -76z" />
    <glyph glyph-name="quotesingle" unicode="'" horiz-adv-x="246" 
d="M71 376v272h104v-272h-104z" />
    <glyph glyph-name="parenleft" unicode="(" horiz-adv-x="360" 
d="M55 285q0 78 18.5 146t49.5 115.5t61 79t64 55.5l72 -81q-130 -141 -130 -315t130 -315l-72 -81q-34 24 -64 55.5t-61 79t-49.5 115.5t-18.5 146z" />
    <glyph glyph-name="parenright" unicode=")" horiz-adv-x="360" 
d="M40 -30q130 141 130 315t-130 315l72 81q34 -24 64 -55.5t61 -79t49.5 -115.5t18.5 -146t-18.5 -146t-49.5 -115.5t-61 -79t-64 -55.5z" />
    <glyph glyph-name="asterisk" unicode="*" horiz-adv-x="423" 
d="M169 293l4 118l-101 -63l-39 69l109 56l-109 57l39 69l102 -64l-4 119h84l-5 -119l102 64l39 -69l-109 -57l109 -56l-39 -69l-102 64l4 -119h-84z" />
    <glyph glyph-name="plus" unicode="+" 
d="M231 57v170h-175v108h175v173h118v-173h175v-108h-175v-170h-118z" />
    <glyph glyph-name="comma" unicode="," horiz-adv-x="280" 
d="M40 -137l59 272h121l-95 -272h-85z" />
    <glyph glyph-name="hyphen" unicode="-" horiz-adv-x="481" 
d="M30 192v108h421v-108h-421z" />
    <glyph glyph-name="period" unicode="." horiz-adv-x="280" 
d="M60 69q0 33 23.5 56.5t55.5 23.5q33 0 56.5 -23.5t23.5 -56.5t-23.5 -56t-56.5 -23t-56 23t-23 56z" />
    <glyph glyph-name="slash" unicode="/" horiz-adv-x="538" 
d="M10 -19l428 712h123l-428 -712h-123z" />
    <glyph glyph-name="zero" unicode="0" 
d="M174 324q0 -97 30 -155.5t86 -58.5t86 58.5t30 155.5t-30 155.5t-86 58.5t-86 -58.5t-30 -155.5zM31 324q0 147 72 240.5t187 93.5t187 -93.5t72 -240.5t-72 -240.5t-187 -93.5t-187 93.5t-72 240.5z" />
    <glyph glyph-name="one" unicode="1" 
d="M71 0v120h170v355l-126 -82l-60 95l200 160h120v-528h154v-120h-458z" />
    <glyph glyph-name="two" unicode="2" 
d="M44 0v86q194 176 255.5 245t61.5 120q0 38 -24 62.5t-70 24.5q-65 0 -140 -68l-70 87q51 57 111.5 79t110.5 22q95 0 160 -52.5t65 -143.5q0 -84 -74 -175t-177 -167h271v-120h-480z" />
    <glyph glyph-name="three" unicode="3" 
d="M44 70l66 93q59 -53 144 -53q64 0 101 29t37 74q0 38 -33.5 63.5t-92.5 25.5q-56 0 -94 -22l-52 89l190 159h-233v120h423v-116l-155 -128q81 -8 135.5 -59.5t54.5 -132.5q0 -107 -76 -164.5t-194 -57.5q-134 0 -221 80z" />
    <glyph glyph-name="four" unicode="4" 
d="M344 0v125h-316v91l262 442l115 -64l-210 -349h149v140h134v-140h77v-120h-77v-125h-134z" />
    <glyph glyph-name="five" unicode="5" 
d="M59 58l47 100q62 -48 153 -48q62 0 96 29.5t34 72.5q0 53 -40 79t-105 26q-57 0 -114 -32l-49 45v318h416v-120h-282v-105q25 6 71 6q109 0 177.5 -55t68.5 -156q0 -103 -73.5 -165.5t-196.5 -62.5q-122 0 -203 68z" />
    <glyph glyph-name="six" unicode="6" 
d="M42 223q0 93 56 172l204 286l112 -81l-113 -152l16 1q98 0 160 -64t62 -155q0 -104 -65.5 -172t-183.5 -68q-119 0 -183.5 65.5t-64.5 167.5zM188 225q0 -51 25.5 -82t76.5 -31q49 0 76 31t27 82q0 46 -28.5 76t-74.5 30q-47 0 -74.5 -30t-27.5 -76z" />
    <glyph glyph-name="seven" unicode="7" 
d="M143 0l257 528h-340v120h497v-84l-267 -564h-147z" />
    <glyph glyph-name="eight" unicode="8" 
d="M41 193q0 106 96 154q-58 47 -58 133q0 78 57.5 128t153.5 50t153.5 -50t57.5 -128q0 -85 -59 -133q97 -48 97 -154q0 -91 -67 -147t-182 -56t-182 56t-67 147zM184 200q0 -39 28 -64.5t78 -25.5t78 25.5t28 64.5q0 37 -27 64.5t-79 27.5t-79 -27.5t-27 -64.5zM205 469
q0 -32 21.5 -55t63.5 -23t63.5 23t21.5 55q0 33 -22.5 55.5t-62.5 22.5t-62.5 -22.5t-22.5 -55.5z" />
    <glyph glyph-name="nine" unicode="9" 
d="M538 425q0 -93 -56 -172l-204 -286l-112 81l113 152l-16 -1q-98 0 -160 64t-62 155q0 104 65.5 172t183.5 68q119 0 183.5 -65.5t64.5 -167.5zM392 423q0 51 -25.5 82t-76.5 31q-49 0 -76 -31t-27 -82q0 -46 28.5 -76t74.5 -30q47 0 74.5 30t27.5 76z" />
    <glyph glyph-name="colon" unicode=":" horiz-adv-x="280" 
d="M60 425q0 33 23.5 56.5t55.5 23.5q33 0 56.5 -23.5t23.5 -56.5q0 -32 -23.5 -55.5t-56.5 -23.5q-32 0 -55.5 23.5t-23.5 55.5zM60 69q0 33 23.5 56.5t55.5 23.5q33 0 56.5 -23.5t23.5 -56.5q0 -32 -23.5 -55.5t-56.5 -23.5q-32 0 -55.5 23.5t-23.5 55.5z" />
    <glyph glyph-name="semicolon" unicode=";" horiz-adv-x="288" 
d="M68 425q0 33 23.5 56.5t55.5 23.5q33 0 56.5 -23.5t23.5 -56.5q0 -32 -23.5 -55.5t-56.5 -23.5q-32 0 -55.5 23.5t-23.5 55.5zM40 -137l59 272h121l-95 -272h-85z" />
    <glyph glyph-name="less" unicode="&#x3c;" 
d="M56 242v78l468 198v-126l-288 -111l288 -111v-125z" />
    <glyph glyph-name="equal" unicode="=" 
d="M56 128v108h468v-108h-468zM56 326v108h468v-108h-468z" />
    <glyph glyph-name="greater" unicode="&#x3e;" 
d="M56 45v125l288 111l-288 111v126l468 -198v-78z" />
    <glyph glyph-name="question" unicode="?" horiz-adv-x="475" 
d="M157 209l-17 137q74 0 116 26.5t42 78.5q0 31 -24 54t-60 23q-62 0 -89 -54l-109 50q24 64 77.5 99t125.5 35q98 0 157 -59.5t59 -147.5q0 -68 -42 -120t-108 -67l-12 -55h-116zM135 68q0 33 23.5 56.5t55.5 23.5q33 0 56.5 -23.5t23.5 -56.5t-23.5 -56t-56.5 -23t-56 23
t-23 56z" />
    <glyph glyph-name="at" unicode="@" horiz-adv-x="922" 
d="M70 245q0 163 117 278t282 115q158 0 270.5 -98t112.5 -249q0 -110 -45.5 -176t-117.5 -66q-75 0 -102 65q-48 -74 -150 -74q-72 0 -128 60.5t-56 143.5q0 82 56 142t128 60q41 0 69 -11t57 -39v41h93v-237q0 -27 9 -47t29 -20q30 0 50.5 43.5t20.5 114.5
q0 118 -80.5 192t-215.5 74q-125 0 -215 -91.5t-90 -220.5q0 -140 88 -223t214 -83q83 0 161 37l38 -73q-87 -44 -200 -44q-106 0 -195 45t-144.5 134.5t-55.5 206.5zM348 244q0 -49 32.5 -84.5t78.5 -35.5t75 32.5t29 87.5q0 57 -28.5 87.5t-75.5 30.5t-79 -35t-32 -83z
" />
    <glyph glyph-name="A" unicode="A" horiz-adv-x="713" 
d="M5 0l282 648h139l282 -648h-143l-45 103h-328l-44 -103h-143zM240 213h233l-52 119l-65 168q-34 -100 -64 -168z" />
    <glyph glyph-name="B" unicode="B" horiz-adv-x="679" 
d="M70 0v648h303q88 0 145 -41t57 -128q0 -35 -18 -66.5t-46 -48.5q54 -14 88.5 -57.5t34.5 -102.5q0 -102 -67 -153t-179 -51h-318zM210 120h166q110 0 110 82q0 43 -29 64t-75 21h-172v-167zM210 406h151q68 0 68 60q0 62 -70 62h-149v-122z" />
    <glyph glyph-name="C" unicode="C" horiz-adv-x="629" 
d="M40 324q0 140 97.5 237t245.5 97q123 0 214 -70l-81 -95q-52 38 -123 38q-92 0 -149.5 -60.5t-57.5 -146.5t56.5 -147t141.5 -61q87 0 145 52l85 -96q-94 -83 -231 -83q-148 0 -245.5 97t-97.5 238z" />
    <glyph glyph-name="D" unicode="D" horiz-adv-x="716" 
d="M210 120h115q92 0 148.5 57.5t56.5 146.5t-56.5 146.5t-148.5 57.5h-115v-408zM70 0v648h259q156 0 251.5 -93.5t95.5 -230.5t-95.5 -230.5t-251.5 -93.5h-259z" />
    <glyph glyph-name="E" unicode="E" horiz-adv-x="624" 
d="M70 0v648h511v-120h-371v-132h352v-119h-352v-157h384v-120h-524z" />
    <glyph glyph-name="F" unicode="F" horiz-adv-x="564" 
d="M70 0v648h484v-120h-344v-132h294v-119h-294v-277h-140z" />
    <glyph glyph-name="G" unicode="G" horiz-adv-x="722" 
d="M40 324q0 140 97.5 237t245.5 97q123 0 219 -73l-82 -96q-55 42 -136 42q-85 0 -141.5 -61t-56.5 -146q0 -86 56.5 -146.5t141.5 -60.5q86 0 143 63v96h-103v116h238v-266q-43 -64 -117 -100t-162 -36q-148 0 -245.5 96.5t-97.5 237.5z" />
    <glyph glyph-name="H" unicode="H" horiz-adv-x="697" 
d="M70 0v648h140v-253h277v253h140v-648h-140v275h-277v-275h-140z" />
    <glyph glyph-name="I" unicode="I" horiz-adv-x="280" 
d="M70 0v648h140v-648h-140z" />
    <glyph glyph-name="J" unicode="J" horiz-adv-x="582" 
d="M20 128l101 78q50 -89 134 -89q58 0 93 36t35 109v386h139v-378q0 -143 -73.5 -211.5t-190.5 -68.5q-79 0 -143 35.5t-95 102.5z" />
    <glyph glyph-name="K" unicode="K" horiz-adv-x="675" 
d="M70 0v648h139v-361l76 105l187 256h165l-226 -305l254 -343h-165l-177 245l-114 -145v-100h-139z" />
    <glyph glyph-name="L" unicode="L" horiz-adv-x="614" 
d="M70 0v648h140v-528h374v-120h-514z" />
    <glyph glyph-name="M" unicode="M" horiz-adv-x="819" 
d="M70 0v648h121l99 -137l120 -173l119 172l99 138h121v-648h-140v408q-16 -32 -62 -99l-137 -201l-139 203l-61 96v-407h-140z" />
    <glyph glyph-name="N" unicode="N" horiz-adv-x="713" 
d="M70 0v648h146l177 -259q21 -31 48.5 -74.5t44.5 -71.5l17 -28v433h140v-648h-148l-165 241q-27 39 -57 86t-47 75l-16 27v-429h-140z" />
    <glyph glyph-name="O" unicode="O" horiz-adv-x="766" 
d="M186 324q0 -86 56.5 -147t141.5 -61q84 0 140 61t56 147q0 85 -56 146t-140 61q-85 0 -141.5 -61t-56.5 -146zM40 324q0 140 97.5 237t245.5 97t245.5 -97t97.5 -237q0 -141 -97.5 -238t-245.5 -97t-245.5 97t-97.5 238z" />
    <glyph glyph-name="P" unicode="P" horiz-adv-x="685" 
d="M70 0v648h277q138 0 214 -70.5t76 -179.5t-76 -179.5t-215 -70.5h-136v-148h-140zM210 268h144q63 0 100 37t37 93t-37 93t-99 37h-145v-260z" />
    <glyph glyph-name="Q" unicode="Q" horiz-adv-x="766" 
d="M40 324q0 140 97.5 237t245.5 97t245.5 -97t97.5 -237q0 -113 -64 -200l45 -44l-89 -89l-49 48q-81 -50 -186 -50q-148 0 -245.5 97t-97.5 238zM186 324q0 -86 56.5 -147t141.5 -61q48 0 87 21l-85 85l89 89l83 -83q22 46 22 96q0 85 -56 146t-140 61q-85 0 -141.5 -61
t-56.5 -146z" />
    <glyph glyph-name="R" unicode="R" horiz-adv-x="685" 
d="M70 0v648h277q138 0 214 -70.5t76 -179.5q0 -66 -32 -121t-90 -89l135 -188h-171l-100 150q-33 -2 -94 -2h-75v-148h-140zM210 268h143q63 0 100.5 37t37.5 93t-37 93t-100 37h-144v-260z" />
    <glyph glyph-name="S" unicode="S" horiz-adv-x="610" 
d="M40 78l50 108q100 -72 214 -72q51 0 88 22.5t37 55.5q0 32 -31.5 49t-88.5 29q-42 10 -72.5 18.5t-65.5 25t-57 36.5t-37 51t-15 70q0 89 71 138t171 49q133 0 237 -69l-51 -108q-86 53 -186 53q-36 0 -68.5 -14t-32.5 -48q0 -29 29 -44.5t91 -28.5q247 -55 247 -207
q0 -98 -79.5 -150t-187.5 -52q-157 0 -263 88z" />
    <glyph glyph-name="T" unicode="T" horiz-adv-x="620" 
d="M240 0v528h-220v120h580v-120h-220v-528h-140z" />
    <glyph glyph-name="U" unicode="U" horiz-adv-x="676" 
d="M338 -10q-117 0 -197.5 73.5t-80.5 191.5v393h138v-387q0 -63 40.5 -103.5t99.5 -40.5t99 40.5t40 103.5v387h139v-393q0 -117 -80.5 -191t-197.5 -74z" />
    <glyph glyph-name="V" unicode="V" horiz-adv-x="669" 
d="M262 0l-252 648h143l128 -328l53 -162q34 111 54 162l128 328h143l-252 -648h-145z" />
    <glyph glyph-name="W" unicode="W" horiz-adv-x="944" 
d="M209 0l-199 648h141l103 -348l34 -122l29 122l79 348h152l79 -348l29 -122q16 62 34 123l104 347h140l-199 -648h-154l-81 325l-28 147q-13 -84 -28 -147l-81 -325h-154z" />
    <glyph glyph-name="X" unicode="X" horiz-adv-x="629" 
d="M10 0l225 324l-219 324h160l68 -99l70 -117l73 117l66 99h160l-220 -324l226 -324h-163l-71 108l-71 108l-71 -110l-71 -106h-162z" />
    <glyph glyph-name="Y" unicode="Y" horiz-adv-x="646" 
d="M254 0v293l-244 355h161l74 -108l79 -126l80 126l71 108h161l-242 -353v-295h-140z" />
    <glyph glyph-name="Z" unicode="Z" horiz-adv-x="602" 
d="M30 0v104l285 346q19 23 37 42.5t27 27.5l9 8h-342v120h517v-105l-272 -328l-83 -95h364v-120h-542z" />
    <glyph glyph-name="bracketleft" unicode="[" horiz-adv-x="330" 
d="M55 -99v793h235v-90h-101v-613h101v-90h-235z" />
    <glyph glyph-name="backslash" unicode="\" horiz-adv-x="615" 
d="M490 -19l-496 712h123l497 -712h-124z" />
    <glyph glyph-name="bracketright" unicode="]" horiz-adv-x="330" 
d="M40 -99v90h101v613h-101v90h235v-793h-235z" />
    <glyph glyph-name="asciicircum" unicode="^" 
d="M53 300l198 348h78l197 -348h-121l-115 187l-115 -187h-122z" />
    <glyph glyph-name="underscore" unicode="_" horiz-adv-x="492" 
d="M-3 -149v70h498v-70h-498z" />
    <glyph glyph-name="grave" unicode="`" horiz-adv-x="400" 
d="M209 568l-111 158h134l94 -158h-117z" />
    <glyph glyph-name="a" unicode="a" horiz-adv-x="610" 
d="M35 250q0 110 64 185t167 75q93 0 150 -76v66h134v-500h-134v65q-57 -75 -150 -75q-103 0 -167 75t-64 185zM178 250q0 -58 33.5 -94t86.5 -36q52 0 85 36t33 94t-33 94t-85 36q-53 0 -86.5 -36t-33.5 -94z" />
    <glyph glyph-name="b" unicode="b" horiz-adv-x="603" 
d="M60 0v658h134v-224q54 76 143 76q103 0 167 -75t64 -185t-64 -185t-167 -75q-89 0 -143 75v-65h-134zM194 250q0 -58 33 -94t85 -36q53 0 86.5 36t33.5 94t-33.5 94t-86.5 36q-52 0 -85 -36t-33 -94z" />
    <glyph glyph-name="c" unicode="c" horiz-adv-x="505" 
d="M35 250q0 108 78.5 184t188.5 76q103 0 178 -61l-82 -97q-32 28 -93 28q-57 0 -95.5 -37t-38.5 -93q0 -55 38 -92.5t100 -37.5q69 0 108 34l73 -103q-79 -61 -188 -61q-111 0 -189 76t-78 184z" />
    <glyph glyph-name="d" unicode="d" horiz-adv-x="603" 
d="M35 250q0 110 64 185t167 75q89 0 143 -76v224h134v-658h-134v65q-54 -75 -143 -75q-103 0 -167 75t-64 185zM171 250q0 -58 33.5 -94t86.5 -36q52 0 85 36t33 94t-33 94t-85 36q-53 0 -86.5 -36t-33.5 -94z" />
    <glyph glyph-name="e" unicode="e" horiz-adv-x="573" 
d="M172 301h235q-8 43 -41 68t-78 25q-39 0 -71 -25t-45 -68zM35 249q0 109 75 185t186 76q100 0 171 -75.5t71 -180.5l-4 -50h-360q25 -96 137 -96q78 0 137 34l50 -101q-88 -51 -189 -51q-115 0 -194.5 68.5t-79.5 190.5z" />
    <glyph glyph-name="f" unicode="f" horiz-adv-x="332" 
d="M70 0v392h-78v108h79v34q0 37 11.5 67t28.5 47.5t39 29t41.5 16t36.5 4.5q45 0 79 -10t46 -20l12 -10l-51 -92q-37 21 -62 21q-47 0 -47 -59v-28h124v-108h-125v-392h-134z" />
    <glyph glyph-name="g" unicode="g" horiz-adv-x="603" 
d="M35 275q0 100 64 167.5t167 67.5q88 0 143 -68v58h134v-387q0 -119 -75.5 -189.5t-189.5 -70.5q-128 0 -208 64l56 89q60 -48 145 -48q51 0 94.5 32t43.5 90v18q-55 -67 -143 -67q-103 0 -167 70t-64 174zM171 262q0 -52 31.5 -85t81.5 -33q51 0 82 33t31 85
q0 55 -31 89.5t-82 34.5q-50 0 -81.5 -34.5t-31.5 -89.5z" />
    <glyph glyph-name="h" unicode="h" horiz-adv-x="577" 
d="M60 0v658h134v-223q55 75 155 75q97 0 137.5 -61.5t40.5 -173.5v-275h-134v260q0 63 -18.5 91.5t-72.5 28.5q-51 0 -79.5 -35.5t-28.5 -94.5v-250h-134z" />
    <glyph glyph-name="i" unicode="i" horiz-adv-x="254" 
d="M60 0v500h134v-500h-134zM48 629q0 33 23.5 56.5t55.5 23.5q33 0 56.5 -23.5t23.5 -56.5q0 -32 -23.5 -55.5t-56.5 -23.5q-32 0 -55.5 23.5t-23.5 55.5z" />
    <glyph glyph-name="j" unicode="j" horiz-adv-x="254" 
d="M24 -182l-47 97q83 44 83 162v423h134v-403q0 -106 -42.5 -172.5t-127.5 -106.5zM48 629q0 33 23.5 56.5t55.5 23.5q33 0 56.5 -23.5t23.5 -56.5q0 -32 -23.5 -55.5t-56.5 -23.5q-32 0 -55.5 23.5t-23.5 55.5z" />
    <glyph glyph-name="k" unicode="k" horiz-adv-x="568" 
d="M60 0v658h134v-365l167 207h165l-197 -224l234 -276h-161l-153 183l-55 -68v-115h-134z" />
    <glyph glyph-name="l" unicode="l" horiz-adv-x="254" 
d="M60 0v658h134v-658h-134z" />
    <glyph glyph-name="m" unicode="m" horiz-adv-x="890" 
d="M60 0v500h134v-69q18 31 57.5 55t81.5 24q114 0 156 -91q23 40 69 65.5t88 25.5q194 0 194 -234v-276h-134v260q0 27 -3 45t-11.5 37t-27.5 28.5t-49 9.5q-48 0 -73 -32.5t-25 -78.5v-269h-134v260q0 27 -3 45t-11.5 37t-27.5 28.5t-49 9.5q-50 0 -74 -35t-24 -84v-261
h-134z" />
    <glyph glyph-name="n" unicode="n" horiz-adv-x="578" 
d="M60 0v500h134v-65q57 75 156 75q100 0 139 -60.5t39 -174.5v-275h-135v260q0 65 -16 92.5t-70 27.5q-51 0 -82 -36t-31 -94v-250h-134z" />
    <glyph glyph-name="o" unicode="o" horiz-adv-x="604" 
d="M35 250q0 108 78.5 184t188.5 76t188.5 -76t78.5 -184t-78.5 -184t-188.5 -76t-188.5 76t-78.5 184zM171 250q0 -54 38.5 -92t92.5 -38t92.5 38t38.5 92t-38.5 92t-92.5 38t-92.5 -38t-38.5 -92z" />
    <glyph glyph-name="p" unicode="p" horiz-adv-x="603" 
d="M60 -137v637h134v-66q54 76 143 76q103 0 167 -75t64 -185t-64 -185t-167 -75q-89 0 -143 75v-202h-134zM194 250q0 -58 33 -94t85 -36q53 0 86.5 36t33.5 94t-33.5 94t-86.5 36q-52 0 -85 -36t-33 -94z" />
    <glyph glyph-name="q" unicode="q" horiz-adv-x="603" 
d="M35 250q0 110 64 185t167 75q89 0 143 -76v66h134v-637h-134v202q-54 -75 -143 -75q-103 0 -167 75t-64 185zM171 250q0 -58 33.5 -94t86.5 -36q52 0 85 36t33 94t-33 94t-85 36q-53 0 -86.5 -36t-33.5 -94z" />
    <glyph glyph-name="r" unicode="r" horiz-adv-x="388" 
d="M60 0v500h134v-93q14 39 57 71t117 32v-146q-88 0 -131 -41.5t-43 -130.5v-192h-134z" />
    <glyph glyph-name="s" unicode="s" horiz-adv-x="493" 
d="M35 60l47 98q82 -55 157 -55q31 0 58 12t27 37q0 29 -89 49q-85 20 -130 53t-45 101q0 72 59.5 113.5t134.5 41.5q90 0 184 -48l-47 -98q-65 33 -137 33q-23 0 -41.5 -11t-18.5 -29q0 -27 70 -41q40 -8 71 -19t61 -29.5t46 -47t16 -66.5q0 -44 -21 -77.5t-55 -51.5
t-70 -26.5t-73 -8.5q-50 0 -97 14.5t-70 28.5t-37 27z" />
    <glyph glyph-name="t" unicode="t" horiz-adv-x="379" 
d="M84 162v230h-74v108h73v91l134 30v-121h138v-108h-137v-234q0 -52 42 -52q16 0 32.5 5.5t25.5 10.5l8 6l38 -101q-58 -37 -123 -37q-82 0 -119.5 43.5t-37.5 128.5z" />
    <glyph glyph-name="u" unicode="u" horiz-adv-x="578" 
d="M50 217v283h135v-260q0 -61 20 -90.5t71 -29.5q108 0 108 136v244h134v-500h-134v65q-57 -75 -150 -75q-43 0 -76 13.5t-53 35t-32.5 52t-17.5 61t-5 65.5z" />
    <glyph glyph-name="v" unicode="v" horiz-adv-x="536" 
d="M202 0l-197 500h134l79 -208q13 -35 25.5 -74.5t18.5 -61.5l6 -22q22 80 51 158l78 208h134l-197 -500h-132z" />
    <glyph glyph-name="w" unicode="w" horiz-adv-x="734" 
d="M165 0l-160 500h131l73 -239q6 -20 11 -47t7 -44l2 -17q6 62 16 106l56 241h132l56 -241q4 -19 8 -45.5t6 -43.5l2 -17q7 63 20 108l73 239h131l-160 -500h-122l-62 240q-5 19 -9.5 46t-6.5 44l-2 17q-7 -65 -18 -107l-62 -240h-122z" />
    <glyph glyph-name="x" unicode="x" horiz-adv-x="518" 
d="M10 0l165 255l-165 245h149l65 -102l35 -59q20 36 35 59l65 102h149l-165 -245l165 -255h-149l-60 95l-40 73q-19 -40 -40 -73l-60 -95h-149z" />
    <glyph glyph-name="y" unicode="y" horiz-adv-x="536" 
d="M99 -147v126q44 0 67 15.5t37 46.5l9 19l-207 440h137l101 -234l31 -80q22 62 31 85l90 229h136l-225 -521q-55 -126 -207 -126z" />
    <glyph glyph-name="z" unicode="z" horiz-adv-x="452" 
d="M20 0v97l160 203l75 82h-226v118h395v-96l-158 -195l-81 -91h247v-118h-412z" />
    <glyph glyph-name="braceleft" unicode="{" horiz-adv-x="438" 
d="M55 248v95h24q58 0 58 71v63q0 223 177 223h84v-100q-31 0 -47 -1.5t-34.5 -7.5t-26.5 -18.5t-13.5 -35.5t-5.5 -58v-62q0 -37 -22.5 -76.5t-74.5 -45.5q54 -9 75.5 -44t21.5 -77v-62q0 -35 5.5 -58t13.5 -35.5t26.5 -18.5t34.5 -7.5t47 -1.5v-100h-84q-177 0 -177 223
v63q0 71 -58 71h-24z" />
    <glyph glyph-name="bar" unicode="|" horiz-adv-x="252" 
d="M75 -189v927h100v-927h-100z" />
    <glyph glyph-name="braceright" unicode="}" horiz-adv-x="438" 
d="M40 -109v100q31 0 47 1.5t34.5 7.5t26.5 18.5t13.5 35.5t5.5 58v62q0 42 21.5 77t75.5 44q-52 6 -74.5 45.5t-22.5 76.5v62q0 35 -5.5 58t-13.5 35.5t-26.5 18.5t-34.5 7.5t-47 1.5v100h84q177 0 177 -223v-63q0 -71 58 -71h24v-95h-24q-58 0 -58 -71v-63
q0 -223 -177 -223h-84z" />
    <glyph glyph-name="asciitilde" unicode="~" horiz-adv-x="560" 
d="M58 221q0 88 33.5 128.5t102.5 40.5q35 0 84.5 -24t62.5 -24q29 0 29 39h132q0 -88 -33.5 -128.5t-102.5 -40.5q-35 0 -84.5 24t-62.5 24q-29 0 -29 -39h-132z" />
    <glyph glyph-name="nbspace" unicode="&#xa0;" horiz-adv-x="648" 
 />
    <glyph glyph-name="exclamdown" unicode="&#xa1;" horiz-adv-x="269" 
d="M55 430q0 33 23.5 56.5t55.5 23.5q33 0 56.5 -23.5t23.5 -56.5q0 -32 -23.5 -55.5t-56.5 -23.5q-32 0 -55.5 23.5t-23.5 55.5zM67 -170l10 439h114l10 -439h-134z" />
    <glyph glyph-name="cent" unicode="&#xa2;" 
d="M454 224l73 -104q-57 -42 -135 -56v-112h-96v111q-92 13 -158 85t-66 172q0 99 66 171.5t158 85.5v110h96v-112q65 -9 125 -56l-82 -97q-36 28 -93 28t-95.5 -37t-38.5 -93q0 -55 38 -92.5t100 -37.5q69 0 108 34z" />
    <glyph glyph-name="sterling" unicode="&#xa3;" 
d="M58 0v108h69v169h-67v89h67v77q0 104 60 159.5t152 55.5q104 0 171 -58l-73 -95q-48 34 -95 34q-36 0 -58.5 -22.5t-22.5 -66.5v-84h161v-89h-161v-159h261v-118h-464z" />
    <glyph glyph-name="currency" unicode="&#xa4;" 
d="M105 45l-55 56l77 77q-34 46 -34 106q0 59 35 107l-78 79l56 55l80 -81q47 28 104 28q55 0 103 -29l82 82l55 -56l-79 -79q35 -48 35 -106q0 -57 -34 -106l78 -78l-56 -55l-80 80q-46 -29 -104 -29q-59 0 -105 29zM213 284q0 -33 22.5 -55.5t54.5 -22.5t54 22.5t22 55.5
t-22 55.5t-54 22.5t-54.5 -22.5t-22.5 -55.5z" />
    <glyph glyph-name="yen" unicode="&#xa5;" 
d="M223 0v107h-114v79h114v48h-113v79h113v7l-200 328h157l75 -138q7 -13 16 -34t14 -36l5 -14q19 54 35 84l75 138h157l-200 -328v-7h115v-79h-115v-48h114v-79h-114v-107h-134z" />
    <glyph glyph-name="brokenbar" unicode="&#xa6;" horiz-adv-x="232" 
d="M66 384v420h100v-420h-100zM66 -190v481h100v-481h-100z" />
    <glyph glyph-name="section" unicode="&#xa7;" horiz-adv-x="540" 
d="M375 280q0 41 -53 62l-111 44q-20 7 -29 7q-18 0 -18 -31q0 -28 19 -43t53 -27l56 -21q4 -2 20.5 -8.5t26.5 -10t18 -3.5q18 0 18 31zM58 50l47 101q80 -56 166 -56q26 0 45 7.5t19 20.5q0 6 -2.5 10t-8.5 6.5t-12 4.5t-17 4.5t-19 5.5l-101 32q-74 23 -104.5 64.5
t-30.5 105.5q0 27 12.5 54t34.5 43q-18 24 -18 60q0 70 59.5 107.5t141.5 37.5q104 0 196 -50l-46 -100q-86 34 -151 34q-26 0 -45 -7.5t-19 -20.5q0 -4 1.5 -7t5 -5.5t6.5 -4.5t9.5 -4t10.5 -3.5t13 -3.5t14 -4l94 -29q141 -43 141 -172q0 -59 -50 -96q21 -23 21 -61
q0 -69 -60 -107t-141 -38q-54 0 -103 15t-71.5 29t-37.5 27z" />
    <glyph glyph-name="dieresis" unicode="&#xa8;" horiz-adv-x="400" 
d="M40 633q0 26 19 45t45 19t45 -19t19 -45t-19 -45t-45 -19t-45 19t-19 45zM232 633q0 26 19 45t45 19t45 -19t19 -45t-19 -45t-45 -19t-45 19t-19 45z" />
    <glyph glyph-name="copyright" unicode="&#xa9;" horiz-adv-x="748" 
d="M40 324q0 138 98.5 236t235.5 98q138 0 236 -98t98 -236t-98 -236t-236 -98q-137 0 -235.5 98t-98.5 236zM180 323q0 84 59 143.5t143 59.5q80 0 145 -62l-38 -39q-48 45 -106 45t-100.5 -41.5t-42.5 -105.5t43.5 -105.5t101.5 -41.5q64 0 117 60l38 -40
q-68 -75 -158 -75q-84 0 -143 59.5t-59 142.5zM99 324q0 -114 81 -196t194 -82q114 0 195 82t81 196t-81 196.5t-195 82.5q-113 0 -194 -82.5t-81 -196.5z" />
    <glyph glyph-name="ordfeminine" unicode="&#xaa;" horiz-adv-x="378" 
d="M118 438q0 -13 11.5 -20t26.5 -7q41 0 62.5 18.5t21.5 36.5v10q-38 2 -43 2q-31 0 -55 -11t-24 -29zM20 429q0 61 52.5 91t124.5 30q23 0 34 -1q-11 32 -56 32q-21 0 -43 -5.5t-34 -11.5l-11 -5l-33 71q48 37 134 37q72 0 111 -41t39 -123v-172h-98v31q-43 -38 -111 -38
q-49 0 -79 30t-30 75z" />
    <glyph glyph-name="guillemotleft" unicode="&#xab;" horiz-adv-x="519" 
d="M27 217v53l177 175l59 -59l-121 -142l121 -143l-59 -59zM253 217v53l177 175l59 -59l-121 -142l121 -143l-59 -59z" />
    <glyph glyph-name="logicalnot" unicode="&#xac;" 
d="M407 107v162h-351v108h468v-270h-117z" />
    <glyph glyph-name="registered" unicode="&#xae;" horiz-adv-x="748" 
d="M40 324q0 138 98.5 236t235.5 98q138 0 236 -98t98 -236t-98 -236t-236 -98q-137 0 -235.5 98t-98.5 236zM223 125v396h169q67 0 114.5 -47t47.5 -114q0 -90 -72 -137l74 -98h-74l-56 76q-16 -3 -34 -3h-111v-73h-58zM281 257h111q43 0 72.5 30t29.5 73q0 42 -30 73
t-72 31h-111v-207zM99 324q0 -114 81 -196t194 -82q114 0 195 82t81 196t-81 196.5t-195 82.5q-113 0 -194 -82.5t-81 -196.5z" />
    <glyph glyph-name="macron" unicode="&#xaf;" horiz-adv-x="400" 
d="M82 564v95h236v-95h-236z" />
    <glyph glyph-name="degree" unicode="&#xb0;" horiz-adv-x="388" 
d="M24 493q0 70 50 120.5t119 50.5q70 0 120.5 -50.5t50.5 -120.5q0 -68 -50.5 -118.5t-120.5 -50.5q-69 0 -119 50.5t-50 118.5zM118 493q0 -32 22 -56t53 -24q32 0 54 23.5t22 56.5q0 34 -22 57.5t-54 23.5q-31 0 -53 -23.5t-22 -57.5z" />
    <glyph glyph-name="plusminus" unicode="&#xb1;" 
d="M56 26v108h468v-108h-468zM56 326v108h175v138h118v-138h175v-108h-175v-135h-118v135h-175z" />
    <glyph glyph-name="twosuperior" unicode="&#xb2;" horiz-adv-x="410" 
d="M39 289v69q117 110 159.5 162.5t42.5 89.5q0 52 -60 52q-46 0 -87 -51l-54 72q32 37 67 56t85 19q73 0 117.5 -38.5t44.5 -100.5q0 -107 -161 -236h175v-94h-329z" />
    <glyph glyph-name="threesuperior" unicode="&#xb3;" horiz-adv-x="440" 
d="M45 344l50 75q47 -41 106 -41q45 0 67 20.5t22 49.5q0 28 -21.5 46.5t-66.5 18.5q-34 0 -68 -23l-37 62l130 105h-164v95h312v-82l-107 -88q50 -2 92.5 -40t42.5 -99q0 -69 -52 -114.5t-143 -45.5q-97 0 -163 61z" />
    <glyph glyph-name="acute" unicode="&#xb4;" horiz-adv-x="400" 
d="M73 568l94 158h134l-111 -158h-117z" />
    <glyph glyph-name="mu" unicode="&#xb5;" horiz-adv-x="581" 
d="M60 -137v637h134v-262q0 -67 20.5 -92t56.5 -25q44 0 78 37t34 124v218h134v-225q0 -148 69 -220l-82 -91l-10 8q-9 8 -14.5 12.5t-15.5 15t-16 18.5t-12.5 19.5t-8.5 22.5q-53 -69 -155 -69q-48 0 -78 26v-154h-134z" />
    <glyph glyph-name="paragraph" unicode="&#xb6;" horiz-adv-x="590" 
d="M259 0v257q-91 7 -150 57.5t-59 137.5q0 81 61.5 138.5t147.5 57.5h250v-648h-90v560h-70v-560h-90z" />
    <glyph glyph-name="periodcentered" unicode="&#xb7;" horiz-adv-x="199" 
d="M20 287q0 33 23.5 56.5t55.5 23.5q33 0 56.5 -23.5t23.5 -56.5t-23.5 -56t-56.5 -23t-56 23t-23 56z" />
    <glyph glyph-name="cedilla" unicode="&#xb8;" horiz-adv-x="400" 
d="M71 -189l31 52q44 -23 80 -23q24 0 39.5 13.5t15.5 29.5q0 12 -9 18.5t-22 6.5q-27 0 -38 -27l-66 21l60 101h77l-27 -47q18 3 20 3q40 0 63 -22t23 -53q0 -41 -35.5 -72t-98.5 -31q-71 0 -113 30z" />
    <glyph glyph-name="onesuperior" unicode="&#xb9;" horiz-adv-x="370" 
d="M171 289v328l-90 -61l-44 71l159 125h81v-463h-106z" />
    <glyph glyph-name="ordmasculine" unicode="&#xba;" horiz-adv-x="391" 
d="M20 495q0 72 51.5 122t123.5 50q74 0 125 -50t51 -122q0 -71 -51.5 -121t-124.5 -50q-72 0 -123.5 50.5t-51.5 120.5zM119 495q0 -31 22.5 -53t53.5 -22t53.5 22t22.5 53t-22.5 53.5t-53.5 22.5t-53.5 -22.5t-22.5 -53.5z" />
    <glyph glyph-name="guillemotright" unicode="&#xbb;" horiz-adv-x="519" 
d="M30 101l121 143l-121 142l59 59l177 -175v-53l-177 -175zM256 101l121 143l-121 142l59 59l177 -175v-53l-177 -175z" />
    <glyph glyph-name="onequarter" unicode="&#xbc;" horiz-adv-x="1020" 
d="M171 189v328l-90 -61l-44 71l159 125h81v-463h-106zM278 26l396 658l63 -36l-396 -658zM788 0v94h-218v69l178 307l92 -42l-145 -238h93v82h106v-82h52v-96h-52v-94h-106z" />
    <glyph glyph-name="onehalf" unicode="&#xbd;" horiz-adv-x="1079" 
d="M171 189v328l-90 -61l-44 71l159 125h81v-463h-106zM278 26l396 658l63 -36l-396 -658zM669 0v69q117 110 159.5 162.5t42.5 89.5q0 52 -60 52q-46 0 -87 -51l-54 72q32 37 67 56t85 19q73 0 117.5 -38.5t44.5 -100.5q0 -107 -161 -236h175v-94h-329z" />
    <glyph glyph-name="threequarters" unicode="&#xbe;" horiz-adv-x="1053" 
d="M338 26l396 658l63 -36l-396 -658zM850 0v94h-218v69l178 307l92 -42l-145 -238h93v82h106v-82h52v-96h-52v-94h-106zM45 244l50 75q47 -41 106 -41q45 0 67 20.5t22 49.5q0 28 -21.5 46.5t-66.5 18.5q-34 0 -68 -23l-37 62l130 105h-164v95h312v-82l-107 -88
q50 -2 92.5 -40t42.5 -99q0 -69 -52 -114.5t-143 -45.5q-97 0 -163 61z" />
    <glyph glyph-name="questiondown" unicode="&#xbf;" horiz-adv-x="475" 
d="M40 48q0 68 42 120t108 67l12 55h116l17 -137q-74 0 -116 -26.5t-42 -78.5q0 -31 24.5 -54t59.5 -23q62 0 89 54l109 -50q-24 -64 -77.5 -99t-125.5 -35q-98 0 -157 59.5t-59 147.5zM181 431q0 33 23.5 56t56.5 23t56 -23t23 -56t-23.5 -56.5t-55.5 -23.5
q-33 0 -56.5 23.5t-23.5 56.5z" />
    <glyph glyph-name="Agrave" unicode="&#xc0;" horiz-adv-x="713" 
d="M5 0l282 648h139l282 -648h-143l-45 103h-328l-44 -103h-143zM240 213h233l-52 119l-65 168q-34 -100 -64 -168zM299 689l-111 158h134l94 -158h-117z" />
    <glyph glyph-name="Aacute" unicode="&#xc1;" horiz-adv-x="713" 
d="M5 0l282 648h139l282 -648h-143l-45 103h-328l-44 -103h-143zM240 213h233l-52 119l-65 168q-34 -100 -64 -168zM297 689l94 158h134l-111 -158h-117z" />
    <glyph glyph-name="Acircumflex" unicode="&#xc2;" horiz-adv-x="713" 
d="M5 0l282 648h139l282 -648h-143l-45 103h-328l-44 -103h-143zM240 213h233l-52 119l-65 168q-34 -100 -64 -168zM178 689l112 158h133l112 -158h-99l-80 93l-79 -93h-99z" />
    <glyph glyph-name="Atilde" unicode="&#xc3;" horiz-adv-x="713" 
d="M5 0l282 648h139l282 -648h-143l-45 103h-328l-44 -103h-143zM240 213h233l-52 119l-65 168q-34 -100 -64 -168zM190 685q0 60 25 96t65 36q37 0 83 -26.5t55 -26.5q33 0 33 53h71q0 -60 -25 -96t-65 -36q-37 0 -83 26.5t-55 26.5q-33 0 -33 -53h-71z" />
    <glyph glyph-name="Adieresis" unicode="&#xc4;" horiz-adv-x="713" 
d="M5 0l282 648h139l282 -648h-143l-45 103h-328l-44 -103h-143zM240 213h233l-52 119l-65 168q-34 -100 -64 -168zM196 749q0 26 19 45t45 19t45 -19t19 -45t-19 -45t-45 -19t-45 19t-19 45zM388 749q0 26 19 45t45 19t45 -19t19 -45t-19 -45t-45 -19t-45 19t-19 45z" />
    <glyph glyph-name="Aring" unicode="&#xc5;" horiz-adv-x="713" 
d="M5 0l282 648h139l282 -648h-143l-45 103h-328l-44 -103h-143zM240 213h233l-52 119l-65 168q-34 -100 -64 -168zM247 779q0 45 32 77t77 32t77 -32t32 -77t-32 -77t-77 -32t-77 32t-32 77zM310 779q0 -20 13.5 -35t32.5 -15t33 15t14 35t-14 35t-33 15t-32.5 -15
t-13.5 -35z" />
    <glyph glyph-name="AE" unicode="&#xc6;" horiz-adv-x="984" 
d="M5 0l399 648h536v-120h-335v-132h315v-119h-315v-157h349v-120h-490v103h-241l-63 -103h-155zM290 213h174v317q-21 -44 -54 -103z" />
    <glyph glyph-name="Ccedilla" unicode="&#xc7;" horiz-adv-x="629" 
d="M241 -189l31 52q44 -23 80 -23q24 0 39.5 13.5t15.5 29.5q0 12 -9 18.5t-22 6.5q-27 0 -38 -27l-66 21l54 92q-127 18 -206.5 110.5t-79.5 219.5q0 140 97.5 237t245.5 97q123 0 214 -70l-81 -95q-52 38 -123 38q-92 0 -149.5 -60.5t-57.5 -146.5t56.5 -147t141.5 -61
q87 0 145 52l85 -96q-85 -76 -213 -82l-19 -34q18 3 20 3q40 0 63 -22t23 -53q0 -41 -35.5 -72t-98.5 -31q-71 0 -113 30z" />
    <glyph glyph-name="Egrave" unicode="&#xc8;" horiz-adv-x="624" 
d="M70 0v648h511v-120h-371v-132h352v-119h-352v-157h384v-120h-524zM306 689l-111 158h134l94 -158h-117z" />
    <glyph glyph-name="Eacute" unicode="&#xc9;" horiz-adv-x="624" 
d="M70 0v648h511v-120h-371v-132h352v-119h-352v-157h384v-120h-524zM247 689l94 158h134l-111 -158h-117z" />
    <glyph glyph-name="Ecircumflex" unicode="&#xca;" horiz-adv-x="624" 
d="M70 0v648h511v-120h-371v-132h352v-119h-352v-157h384v-120h-524zM157 689l112 158h133l112 -158h-99l-80 93l-79 -93h-99z" />
    <glyph glyph-name="Edieresis" unicode="&#xcb;" horiz-adv-x="624" 
d="M70 0v648h511v-120h-371v-132h352v-119h-352v-157h384v-120h-524zM176 749q0 26 19 45t45 19t45 -19t19 -45t-19 -45t-45 -19t-45 19t-19 45zM368 749q0 26 19 45t45 19t45 -19t19 -45t-19 -45t-45 -19t-45 19t-19 45z" />
    <glyph glyph-name="Igrave" unicode="&#xcc;" horiz-adv-x="280" 
d="M70 0v648h140v-648h-140zM93 689l-111 158h134l94 -158h-117z" />
    <glyph glyph-name="Iacute" unicode="&#xcd;" horiz-adv-x="280" 
d="M70 0v648h140v-648h-140zM70 689l94 158h134l-111 -158h-117z" />
    <glyph glyph-name="Icircumflex" unicode="&#xce;" horiz-adv-x="280" 
d="M70 0v648h140v-648h-140zM-38 689l112 158h133l112 -158h-99l-80 93l-79 -93h-99z" />
    <glyph glyph-name="Idieresis" unicode="&#xcf;" horiz-adv-x="280" 
d="M70 0v648h140v-648h-140zM-20 749q0 26 19 45t45 19t45 -19t19 -45t-19 -45t-45 -19t-45 19t-19 45zM172 749q0 26 19 45t45 19t45 -19t19 -45t-19 -45t-45 -19t-45 19t-19 45z" />
    <glyph glyph-name="Eth" unicode="&#xd0;" horiz-adv-x="716" 
d="M70 0v284h-80v99h80v265h259q156 0 251.5 -93.5t95.5 -230.5t-95.5 -230.5t-251.5 -93.5h-259zM210 120h115q92 0 148.5 57.5t56.5 146.5t-56.5 146.5t-148.5 57.5h-115v-145h123v-99h-123v-164z" />
    <glyph glyph-name="Ntilde" unicode="&#xd1;" horiz-adv-x="713" 
d="M70 0v648h146l177 -259q21 -31 48.5 -74.5t44.5 -71.5l17 -28v433h140v-648h-148l-165 241q-27 39 -57 86t-47 75l-16 27v-429h-140zM191 685q0 60 25 96t65 36q37 0 83 -26.5t55 -26.5q33 0 33 53h71q0 -60 -25 -96t-65 -36q-37 0 -83 26.5t-55 26.5q-33 0 -33 -53h-71z
" />
    <glyph glyph-name="Ograve" unicode="&#xd2;" horiz-adv-x="766" 
d="M186 324q0 -86 56.5 -147t141.5 -61q84 0 140 61t56 147q0 85 -56 146t-140 61q-85 0 -141.5 -61t-56.5 -146zM40 324q0 140 97.5 237t245.5 97t245.5 -97t97.5 -237q0 -141 -97.5 -238t-245.5 -97t-245.5 97t-97.5 238zM333 689l-111 158h134l94 -158h-117z" />
    <glyph glyph-name="Oacute" unicode="&#xd3;" horiz-adv-x="766" 
d="M186 324q0 -86 56.5 -147t141.5 -61q84 0 140 61t56 147q0 85 -56 146t-140 61q-85 0 -141.5 -61t-56.5 -146zM40 324q0 140 97.5 237t245.5 97t245.5 -97t97.5 -237q0 -141 -97.5 -238t-245.5 -97t-245.5 97t-97.5 238zM316 689l94 158h134l-111 -158h-117z" />
    <glyph glyph-name="Ocircumflex" unicode="&#xd4;" horiz-adv-x="766" 
d="M186 324q0 -86 56.5 -147t141.5 -61q84 0 140 61t56 147q0 85 -56 146t-140 61q-85 0 -141.5 -61t-56.5 -146zM40 324q0 140 97.5 237t245.5 97t245.5 -97t97.5 -237q0 -141 -97.5 -238t-245.5 -97t-245.5 97t-97.5 238zM204 689l112 158h133l112 -158h-99l-80 93
l-79 -93h-99z" />
    <glyph glyph-name="Otilde" unicode="&#xd5;" horiz-adv-x="766" 
d="M186 324q0 -86 56.5 -147t141.5 -61q84 0 140 61t56 147q0 85 -56 146t-140 61q-85 0 -141.5 -61t-56.5 -146zM40 324q0 140 97.5 237t245.5 97t245.5 -97t97.5 -237q0 -141 -97.5 -238t-245.5 -97t-245.5 97t-97.5 238zM217 685q0 60 25 96t65 36q37 0 83 -26.5
t55 -26.5q33 0 33 53h71q0 -60 -25 -96t-65 -36q-37 0 -83 26.5t-55 26.5q-33 0 -33 -53h-71z" />
    <glyph glyph-name="Odieresis" unicode="&#xd6;" horiz-adv-x="766" 
d="M186 324q0 -86 56.5 -147t141.5 -61q84 0 140 61t56 147q0 85 -56 146t-140 61q-85 0 -141.5 -61t-56.5 -146zM40 324q0 140 97.5 237t245.5 97t245.5 -97t97.5 -237q0 -141 -97.5 -238t-245.5 -97t-245.5 97t-97.5 238zM223 749q0 26 19 45t45 19t45 -19t19 -45t-19 -45
t-45 -19t-45 19t-19 45zM415 749q0 26 19 45t45 19t45 -19t19 -45t-19 -45t-45 -19t-45 19t-19 45z" />
    <glyph glyph-name="multiply" unicode="&#xd7;" 
d="M139 48l-83 82l152 151l-154 153l84 80l151 -151l153 151l84 -81l-154 -152l152 -151l-83 -82l-152 150z" />
    <glyph glyph-name="Oslash" unicode="&#xd8;" horiz-adv-x="766" 
d="M40 324q0 140 97.5 237t245.5 97q78 0 147 -30l55 91l52 -31l-54 -90q67 -46 105 -117.5t38 -156.5q0 -141 -97.5 -238t-245.5 -97q-78 0 -147 30l-54 -91l-52 31l53 89q-67 45 -105 117.5t-38 158.5zM186 324q0 -97 68 -159l208 349q-36 17 -78 17q-85 0 -141.5 -61
t-56.5 -146zM304 132q38 -16 80 -16q84 0 140 61t56 147q0 93 -67 157z" />
    <glyph glyph-name="Ugrave" unicode="&#xd9;" horiz-adv-x="676" 
d="M338 -10q-117 0 -197.5 73.5t-80.5 191.5v393h138v-387q0 -63 40.5 -103.5t99.5 -40.5t99 40.5t40 103.5v387h139v-393q0 -117 -80.5 -191t-197.5 -74zM293 689l-111 158h134l94 -158h-117z" />
    <glyph glyph-name="Uacute" unicode="&#xda;" horiz-adv-x="676" 
d="M338 -10q-117 0 -197.5 73.5t-80.5 191.5v393h138v-387q0 -63 40.5 -103.5t99.5 -40.5t99 40.5t40 103.5v387h139v-393q0 -117 -80.5 -191t-197.5 -74zM262 689l94 158h134l-111 -158h-117z" />
    <glyph glyph-name="Ucircumflex" unicode="&#xdb;" horiz-adv-x="676" 
d="M338 -10q-117 0 -197.5 73.5t-80.5 191.5v393h138v-387q0 -63 40.5 -103.5t99.5 -40.5t99 40.5t40 103.5v387h139v-393q0 -117 -80.5 -191t-197.5 -74zM161 689l112 158h133l112 -158h-99l-80 93l-79 -93h-99z" />
    <glyph glyph-name="Udieresis" unicode="&#xdc;" horiz-adv-x="676" 
d="M338 -10q-117 0 -197.5 73.5t-80.5 191.5v393h138v-387q0 -63 40.5 -103.5t99.5 -40.5t99 40.5t40 103.5v387h139v-393q0 -117 -80.5 -191t-197.5 -74zM179 749q0 26 19 45t45 19t45 -19t19 -45t-19 -45t-45 -19t-45 19t-19 45zM371 749q0 26 19 45t45 19t45 -19t19 -45
t-19 -45t-45 -19t-45 19t-19 45z" />
    <glyph glyph-name="Yacute" unicode="&#xdd;" horiz-adv-x="646" 
d="M254 0v293l-244 355h161l74 -108l79 -126l80 126l71 108h161l-242 -353v-295h-140zM253 689l94 158h134l-111 -158h-117z" />
    <glyph glyph-name="Thorn" unicode="&#xde;" horiz-adv-x="596" 
d="M70 0v648h140v-92h124q96 0 164 -66.5t68 -160.5t-68 -160.5t-164 -66.5h-124v-102h-140zM210 220h107q43 0 73 32t30 77t-30 77t-73 32h-107v-218z" />
    <glyph glyph-name="germandbls" unicode="&#xdf;" horiz-adv-x="568" 
d="M70 0v438q0 108 53 164t142 56q84 0 143.5 -54.5t59.5 -131.5q0 -38 -9 -66.5t-19.5 -42t-28.5 -30.5q59 -14 95.5 -59.5t36.5 -106.5q0 -83 -54 -130.5t-135 -47.5q-60 0 -103 26l40 119q20 -15 45 -15q31 0 50.5 20t19.5 49q0 35 -30 56.5t-92 21.5h-20v100h10
q28 0 45.5 21t17.5 62q0 34 -18.5 56.5t-48.5 22.5q-29 0 -47.5 -24t-18.5 -59v-445h-134z" />
    <glyph glyph-name="agrave" unicode="&#xe0;" horiz-adv-x="610" 
d="M35 250q0 110 64 185t167 75q93 0 150 -76v66h134v-500h-134v65q-57 -75 -150 -75q-103 0 -167 75t-64 185zM178 250q0 -58 33.5 -94t86.5 -36q52 0 85 36t33 94t-33 94t-85 36q-53 0 -86.5 -36t-33.5 -94zM239 568l-111 158h134l94 -158h-117z" />
    <glyph glyph-name="aacute" unicode="&#xe1;" horiz-adv-x="610" 
d="M35 250q0 110 64 185t167 75q93 0 150 -76v66h134v-500h-134v65q-57 -75 -150 -75q-103 0 -167 75t-64 185zM178 250q0 -58 33.5 -94t86.5 -36q52 0 85 36t33 94t-33 94t-85 36q-53 0 -86.5 -36t-33.5 -94zM192 568l94 158h134l-111 -158h-117z" />
    <glyph glyph-name="acircumflex" unicode="&#xe2;" horiz-adv-x="610" 
d="M35 250q0 110 64 185t167 75q93 0 150 -76v66h134v-500h-134v65q-57 -75 -150 -75q-103 0 -167 75t-64 185zM178 250q0 -58 33.5 -94t86.5 -36q52 0 85 36t33 94t-33 94t-85 36q-53 0 -86.5 -36t-33.5 -94zM123 568l112 158h133l112 -158h-99l-80 93l-79 -93h-99z" />
    <glyph glyph-name="atilde" unicode="&#xe3;" horiz-adv-x="610" 
d="M35 250q0 110 64 185t167 75q93 0 150 -76v66h134v-500h-134v65q-57 -75 -150 -75q-103 0 -167 75t-64 185zM178 250q0 -58 33.5 -94t86.5 -36q52 0 85 36t33 94t-33 94t-85 36q-53 0 -86.5 -36t-33.5 -94zM126 562q0 60 25 96t65 36q37 0 83 -26.5t55 -26.5q33 0 33 53
h71q0 -60 -25 -96t-65 -36q-37 0 -83 26.5t-55 26.5q-33 0 -33 -53h-71z" />
    <glyph glyph-name="adieresis" unicode="&#xe4;" horiz-adv-x="610" 
d="M35 250q0 110 64 185t167 75q93 0 150 -76v66h134v-500h-134v65q-57 -75 -150 -75q-103 0 -167 75t-64 185zM178 250q0 -58 33.5 -94t86.5 -36q52 0 85 36t33 94t-33 94t-85 36q-53 0 -86.5 -36t-33.5 -94zM130 633q0 26 19 45t45 19t45 -19t19 -45t-19 -45t-45 -19
t-45 19t-19 45zM322 633q0 26 19 45t45 19t45 -19t19 -45t-19 -45t-45 -19t-45 19t-19 45z" />
    <glyph glyph-name="aring" unicode="&#xe5;" horiz-adv-x="610" 
d="M35 250q0 110 64 185t167 75q93 0 150 -76v66h134v-500h-134v65q-57 -75 -150 -75q-103 0 -167 75t-64 185zM178 250q0 -58 33.5 -94t86.5 -36q52 0 85 36t33 94t-33 94t-85 36q-53 0 -86.5 -36t-33.5 -94zM184 661q0 45 32 77t77 32t77 -32t32 -77t-32 -77t-77 -32
t-77 32t-32 77zM247 661q0 -20 13.5 -35t32.5 -15t33 15t14 35t-14 35t-33 15t-32.5 -15t-13.5 -35z" />
    <glyph glyph-name="ae" unicode="&#xe6;" horiz-adv-x="916" 
d="M35 145q0 61 39.5 102t96 57.5t125.5 16.5q42 0 68 -5q-12 79 -104 79q-33 0 -66.5 -8t-50.5 -16l-17 -8l-44 94q8 6 22.5 15t60 23.5t90.5 14.5q130 0 189 -101q34 47 85 74t110 27q100 0 171 -75.5t71 -180.5l-4 -50h-360q14 -49 54.5 -73.5t94.5 -24.5q69 0 125 34
l47 -102q-77 -48 -182 -48q-71 0 -128 24.5t-84 71.5q-79 -96 -216 -96q-95 0 -144 42.5t-49 112.5zM166 160q0 -27 21 -41.5t51 -14.5q68 0 102 31.5t34 63.5v25q-23 4 -78 4q-53 0 -91.5 -18t-38.5 -50zM515 301h235q-8 43 -41 68t-78 25q-39 0 -71 -25t-45 -68z" />
    <glyph glyph-name="ccedilla" unicode="&#xe7;" horiz-adv-x="505" 
d="M172 -189l31 52q44 -23 80 -23q24 0 39.5 13.5t15.5 29.5q0 12 -9 18.5t-22 6.5q-27 0 -38 -27l-66 21l54 92q-95 15 -158.5 87t-63.5 169q0 108 78.5 184t188.5 76q103 0 178 -61l-82 -97q-32 28 -93 28q-57 0 -95.5 -37t-38.5 -93q0 -55 38 -92.5t100 -37.5
q69 0 108 34l73 -103q-65 -51 -157 -59l-20 -36q18 3 20 3q40 0 63 -22t23 -53q0 -41 -35.5 -72t-98.5 -31q-71 0 -113 30z" />
    <glyph glyph-name="egrave" unicode="&#xe8;" horiz-adv-x="573" 
d="M172 301h235q-8 43 -41 68t-78 25q-39 0 -71 -25t-45 -68zM35 249q0 109 75 185t186 76q100 0 171 -75.5t71 -180.5l-4 -50h-360q25 -96 137 -96q78 0 137 34l50 -101q-88 -51 -189 -51q-115 0 -194.5 68.5t-79.5 190.5zM242 568l-111 158h134l94 -158h-117z" />
    <glyph glyph-name="eacute" unicode="&#xe9;" horiz-adv-x="573" 
d="M172 301h235q-8 43 -41 68t-78 25q-39 0 -71 -25t-45 -68zM35 249q0 109 75 185t186 76q100 0 171 -75.5t71 -180.5l-4 -50h-360q25 -96 137 -96q78 0 137 34l50 -101q-88 -51 -189 -51q-115 0 -194.5 68.5t-79.5 190.5zM233 568l94 158h134l-111 -158h-117z" />
    <glyph glyph-name="ecircumflex" unicode="&#xea;" horiz-adv-x="573" 
d="M172 301h235q-8 43 -41 68t-78 25q-39 0 -71 -25t-45 -68zM35 249q0 109 75 185t186 76q100 0 171 -75.5t71 -180.5l-4 -50h-360q25 -96 137 -96q78 0 137 34l50 -101q-88 -51 -189 -51q-115 0 -194.5 68.5t-79.5 190.5zM103 568l112 158h133l112 -158h-99l-80 93
l-79 -93h-99z" />
    <glyph glyph-name="edieresis" unicode="&#xeb;" horiz-adv-x="573" 
d="M172 301h235q-8 43 -41 68t-78 25q-39 0 -71 -25t-45 -68zM35 249q0 109 75 185t186 76q100 0 171 -75.5t71 -180.5l-4 -50h-360q25 -96 137 -96q78 0 137 34l50 -101q-88 -51 -189 -51q-115 0 -194.5 68.5t-79.5 190.5zM125 633q0 26 19 45t45 19t45 -19t19 -45t-19 -45
t-45 -19t-45 19t-19 45zM317 633q0 26 19 45t45 19t45 -19t19 -45t-19 -45t-45 -19t-45 19t-19 45z" />
    <glyph glyph-name="igrave" unicode="&#xec;" horiz-adv-x="254" 
d="M87 568l-111 158h134l94 -158h-117zM60 0v500h134v-500h-134z" />
    <glyph glyph-name="iacute" unicode="&#xed;" horiz-adv-x="254" 
d="M50 568l94 158h134l-111 -158h-117zM60 0v500h134v-500h-134z" />
    <glyph glyph-name="icircumflex" unicode="&#xee;" horiz-adv-x="254" 
d="M60 0v500h134v-500h-134zM-51 568l112 158h133l112 -158h-99l-80 93l-79 -93h-99z" />
    <glyph glyph-name="idieresis" unicode="&#xef;" horiz-adv-x="254" 
d="M-33 633q0 26 19 45t45 19t45 -19t19 -45t-19 -45t-45 -19t-45 19t-19 45zM159 633q0 26 19 45t45 19t45 -19t19 -45t-19 -45t-45 -19t-45 19t-19 45zM60 0v500h134v-500h-134z" />
    <glyph glyph-name="eth" unicode="&#xf0;" horiz-adv-x="604" 
d="M35 250q0 98 76.5 167.5t184.5 69.5q33 0 69 -12q-42 40 -104 75l-101 -42l-22 47l56 24q-28 10 -66 21l60 68q60 -13 121 -41l99 42l22 -47l-61 -27q200 -128 200 -331q0 -112 -74.5 -193t-192.5 -81q-111 0 -189 76t-78 184zM171 250q0 -55 38.5 -93t92.5 -38t92.5 38
t38.5 93q0 54 -38.5 92t-92.5 38t-92.5 -38t-38.5 -92z" />
    <glyph glyph-name="ntilde" unicode="&#xf1;" horiz-adv-x="578" 
d="M60 0v500h134v-65q57 75 156 75q100 0 139 -60.5t39 -174.5v-275h-135v260q0 65 -16 92.5t-70 27.5q-51 0 -82 -36t-31 -94v-250h-134zM119 562q0 60 25 96t65 36q37 0 83 -26.5t55 -26.5q33 0 33 53h71q0 -60 -25 -96t-65 -36q-37 0 -83 26.5t-55 26.5q-33 0 -33 -53
h-71z" />
    <glyph glyph-name="ograve" unicode="&#xf2;" horiz-adv-x="604" 
d="M35 250q0 108 78.5 184t188.5 76t188.5 -76t78.5 -184t-78.5 -184t-188.5 -76t-188.5 76t-78.5 184zM171 250q0 -54 38.5 -92t92.5 -38t92.5 38t38.5 92t-38.5 92t-92.5 38t-92.5 -38t-38.5 -92zM266 568l-111 158h134l94 -158h-117z" />
    <glyph glyph-name="oacute" unicode="&#xf3;" horiz-adv-x="604" 
d="M35 250q0 108 78.5 184t188.5 76t188.5 -76t78.5 -184t-78.5 -184t-188.5 -76t-188.5 76t-78.5 184zM171 250q0 -54 38.5 -92t92.5 -38t92.5 38t38.5 92t-38.5 92t-92.5 38t-92.5 -38t-38.5 -92zM215 568l94 158h134l-111 -158h-117z" />
    <glyph glyph-name="ocircumflex" unicode="&#xf4;" horiz-adv-x="604" 
d="M35 250q0 108 78.5 184t188.5 76t188.5 -76t78.5 -184t-78.5 -184t-188.5 -76t-188.5 76t-78.5 184zM171 250q0 -54 38.5 -92t92.5 -38t92.5 38t38.5 92t-38.5 92t-92.5 38t-92.5 -38t-38.5 -92zM125 568l112 158h133l112 -158h-99l-80 93l-79 -93h-99z" />
    <glyph glyph-name="otilde" unicode="&#xf5;" horiz-adv-x="604" 
d="M35 250q0 108 78.5 184t188.5 76t188.5 -76t78.5 -184t-78.5 -184t-188.5 -76t-188.5 76t-78.5 184zM171 250q0 -54 38.5 -92t92.5 -38t92.5 38t38.5 92t-38.5 92t-92.5 38t-92.5 -38t-38.5 -92zM136 562q0 60 25 96t65 36q37 0 83 -26.5t55 -26.5q33 0 33 53h71
q0 -60 -25 -96t-65 -36q-37 0 -83 26.5t-55 26.5q-33 0 -33 -53h-71z" />
    <glyph glyph-name="odieresis" unicode="&#xf6;" horiz-adv-x="604" 
d="M35 250q0 108 78.5 184t188.5 76t188.5 -76t78.5 -184t-78.5 -184t-188.5 -76t-188.5 76t-78.5 184zM171 250q0 -54 38.5 -92t92.5 -38t92.5 38t38.5 92t-38.5 92t-92.5 38t-92.5 -38t-38.5 -92zM142 633q0 26 19 45t45 19t45 -19t19 -45t-19 -45t-45 -19t-45 19t-19 45z
M334 633q0 26 19 45t45 19t45 -19t19 -45t-19 -45t-45 -19t-45 19t-19 45z" />
    <glyph glyph-name="divide" unicode="&#xf7;" 
d="M211 477q0 33 23 56.5t56 23.5t56.5 -23.5t23.5 -56.5t-23.5 -56t-56.5 -23t-56 23t-23 56zM211 86q0 33 23 56.5t56 23.5t56.5 -23.5t23.5 -56.5t-23.5 -56t-56.5 -23t-56 23t-23 56zM56 227v108h468v-108h-468z" />
    <glyph glyph-name="oslash" unicode="&#xf8;" horiz-adv-x="604" 
d="M35 250q0 108 78.5 184t188.5 76q55 0 105 -22l48 80l52 -31l-47 -78q50 -36 79.5 -91t29.5 -118q0 -108 -78.5 -184t-188.5 -76q-54 0 -110 23l-45 -76l-52 31l45 75q-105 79 -105 207zM260 126q20 -6 42 -6q54 0 92.5 38t38.5 92q0 56 -42 95zM171 250q0 -54 38 -92
l130 217q-20 5 -37 5q-54 0 -92.5 -38t-38.5 -92z" />
    <glyph glyph-name="ugrave" unicode="&#xf9;" horiz-adv-x="578" 
d="M50 217v283h135v-260q0 -61 20 -90.5t71 -29.5q108 0 108 136v244h134v-500h-134v65q-57 -75 -150 -75q-43 0 -76 13.5t-53 35t-32.5 52t-17.5 61t-5 65.5zM253 568l-111 158h134l94 -158h-117z" />
    <glyph glyph-name="uacute" unicode="&#xfa;" horiz-adv-x="578" 
d="M50 217v283h135v-260q0 -61 20 -90.5t71 -29.5q108 0 108 136v244h134v-500h-134v65q-57 -75 -150 -75q-43 0 -76 13.5t-53 35t-32.5 52t-17.5 61t-5 65.5zM195 568l94 158h134l-111 -158h-117z" />
    <glyph glyph-name="ucircumflex" unicode="&#xfb;" horiz-adv-x="578" 
d="M50 217v283h135v-260q0 -61 20 -90.5t71 -29.5q108 0 108 136v244h134v-500h-134v65q-57 -75 -150 -75q-43 0 -76 13.5t-53 35t-32.5 52t-17.5 61t-5 65.5zM105 568l112 158h133l112 -158h-99l-80 93l-79 -93h-99z" />
    <glyph glyph-name="udieresis" unicode="&#xfc;" horiz-adv-x="578" 
d="M50 217v283h135v-260q0 -61 20 -90.5t71 -29.5q108 0 108 136v244h134v-500h-134v65q-57 -75 -150 -75q-43 0 -76 13.5t-53 35t-32.5 52t-17.5 61t-5 65.5zM124 633q0 26 19 45t45 19t45 -19t19 -45t-19 -45t-45 -19t-45 19t-19 45zM316 633q0 26 19 45t45 19t45 -19
t19 -45t-19 -45t-45 -19t-45 19t-19 45z" />
    <glyph glyph-name="yacute" unicode="&#xfd;" horiz-adv-x="543" 
d="M99 -147v126q44 0 67 15.5t37 46.5l9 19l-207 440h137l101 -234l31 -80q22 62 31 85l90 229h136l-225 -521q-55 -126 -207 -126zM208 568l94 158h134l-111 -158h-117z" />
    <glyph glyph-name="thorn" unicode="&#xfe;" horiz-adv-x="603" 
d="M60 -137v785h134v-214q54 76 143 76q103 0 167 -75t64 -185t-63 -185t-161 -75q-93 0 -150 75v-202h-134zM194 250q0 -58 33 -94t85 -36q53 0 86.5 36t33.5 94t-33.5 94t-86.5 36q-52 0 -85 -36t-33 -94z" />
    <glyph glyph-name="ydieresis" unicode="&#xff;" horiz-adv-x="543" 
d="M99 -147v126q44 0 67 15.5t37 46.5l9 19l-207 440h137l101 -234l31 -80q22 62 31 85l90 229h136l-225 -521q-55 -126 -207 -126zM116 633q0 26 19 45t45 19t45 -19t19 -45t-19 -45t-45 -19t-45 19t-19 45zM308 633q0 26 19 45t45 19t45 -19t19 -45t-19 -45t-45 -19
t-45 19t-19 45z" />
    <glyph glyph-name="Amacron" unicode="&#x100;" horiz-adv-x="713" 
d="M5 0l282 648h139l282 -648h-143l-45 103h-328l-44 -103h-143zM240 213h233l-52 119l-65 168q-34 -100 -64 -168zM238 700v95h236v-95h-236z" />
    <glyph glyph-name="amacron" unicode="&#x101;" horiz-adv-x="610" 
d="M35 250q0 110 64 185t167 75q93 0 150 -76v66h134v-500h-134v65q-57 -75 -150 -75q-103 0 -167 75t-64 185zM178 250q0 -58 33.5 -94t86.5 -36q52 0 85 36t33 94t-33 94t-85 36q-53 0 -86.5 -36t-33.5 -94zM175 564v95h236v-95h-236z" />
    <glyph glyph-name="Abreve" unicode="&#x102;" horiz-adv-x="713" 
d="M5 0l282 648h139l282 -648h-143l-45 103h-328l-44 -103h-143zM240 213h233l-52 119l-65 168q-34 -100 -64 -168zM356 685q-57 0 -92.5 38.5t-35.5 93.5h71q0 -22 16.5 -37.5t40.5 -15.5q23 0 39.5 15.5t16.5 37.5h72q0 -55 -35.5 -93.5t-92.5 -38.5z" />
    <glyph glyph-name="abreve" unicode="&#x103;" horiz-adv-x="610" 
d="M35 250q0 110 64 185t167 75q93 0 150 -76v66h134v-500h-134v65q-57 -75 -150 -75q-103 0 -167 75t-64 185zM178 250q0 -58 33.5 -94t86.5 -36q52 0 85 36t33 94t-33 94t-85 36q-53 0 -86.5 -36t-33.5 -94zM293 556q-57 0 -92.5 38.5t-35.5 93.5h71q0 -22 16.5 -37.5
t40.5 -15.5q23 0 39.5 15.5t16.5 37.5h72q0 -55 -35.5 -93.5t-92.5 -38.5z" />
    <glyph glyph-name="Aogonek" unicode="&#x104;" horiz-adv-x="713" 
d="M517 -128q0 68 48 128l-45 103h-328l-44 -103h-143l282 648h139l282 -648h-73q-38 -36 -38 -84q0 -26 16 -42t40 -16q13 0 33 8l19 -55q-45 -31 -94 -31q-38 0 -66 24.5t-28 67.5zM240 213h233l-52 119l-65 168q-34 -100 -64 -168z" />
    <glyph glyph-name="aogonek" unicode="&#x105;" horiz-adv-x="610" 
d="M364 -128q0 72 52 133v60q-57 -75 -150 -75q-103 0 -167 75t-64 185t64 185t167 75q93 0 150 -76v66h134v-500h-68q-38 -36 -38 -84q0 -26 16 -42t40 -16q13 0 33 8l19 -55q-45 -31 -94 -31q-38 0 -66 24.5t-28 67.5zM178 250q0 -58 33.5 -94t86.5 -36q52 0 85 36t33 94
t-33 94t-85 36q-53 0 -86.5 -36t-33.5 -94z" />
    <glyph glyph-name="Cacute" unicode="&#x106;" horiz-adv-x="629" 
d="M40 324q0 140 97.5 237t245.5 97q123 0 214 -70l-81 -95q-52 38 -123 38q-92 0 -149.5 -60.5t-57.5 -146.5t56.5 -147t141.5 -61q87 0 145 52l85 -96q-94 -83 -231 -83q-148 0 -245.5 97t-97.5 238zM308 689l94 158h134l-111 -158h-117z" />
    <glyph glyph-name="cacute" unicode="&#x107;" horiz-adv-x="505" 
d="M35 250q0 108 78.5 184t188.5 76q103 0 178 -61l-82 -97q-32 28 -93 28q-57 0 -95.5 -37t-38.5 -93q0 -55 38 -92.5t100 -37.5q69 0 108 34l73 -103q-79 -61 -188 -61q-111 0 -189 76t-78 184zM213 568l94 158h134l-111 -158h-117z" />
    <glyph glyph-name="Ccircumflex" unicode="&#x108;" horiz-adv-x="629" 
d="M40 324q0 140 97.5 237t245.5 97q123 0 214 -70l-81 -95q-52 38 -123 38q-92 0 -149.5 -60.5t-57.5 -146.5t56.5 -147t141.5 -61q87 0 145 52l85 -96q-94 -83 -231 -83q-148 0 -245.5 97t-97.5 238zM206 689l112 158h133l112 -158h-99l-80 93l-79 -93h-99z" />
    <glyph glyph-name="ccircumflex" unicode="&#x109;" horiz-adv-x="505" 
d="M35 250q0 108 78.5 184t188.5 76q103 0 178 -61l-82 -97q-32 28 -93 28q-57 0 -95.5 -37t-38.5 -93q0 -55 38 -92.5t100 -37.5q69 0 108 34l73 -103q-79 -61 -188 -61q-111 0 -189 76t-78 184zM113 568l112 158h133l112 -158h-99l-80 93l-79 -93h-99z" />
    <glyph glyph-name="Cdotaccent" unicode="&#x10a;" horiz-adv-x="629" 
d="M40 324q0 140 97.5 237t245.5 97q123 0 214 -70l-81 -95q-52 38 -123 38q-92 0 -149.5 -60.5t-57.5 -146.5t56.5 -147t141.5 -61q87 0 145 52l85 -96q-94 -83 -231 -83q-148 0 -245.5 97t-97.5 238zM306 764q0 33 23.5 56.5t55.5 23.5q33 0 56.5 -23.5t23.5 -56.5
q0 -32 -23.5 -55.5t-56.5 -23.5q-32 0 -55.5 23.5t-23.5 55.5z" />
    <glyph glyph-name="cdotaccent" unicode="&#x10b;" horiz-adv-x="505" 
d="M35 250q0 108 78.5 184t188.5 76q103 0 178 -61l-82 -97q-32 28 -93 28q-57 0 -95.5 -37t-38.5 -93q0 -55 38 -92.5t100 -37.5q69 0 108 34l73 -103q-79 -61 -188 -61q-111 0 -189 76t-78 184zM216 629q0 33 23.5 56.5t55.5 23.5q33 0 56.5 -23.5t23.5 -56.5
q0 -32 -23.5 -55.5t-56.5 -23.5q-32 0 -55.5 23.5t-23.5 55.5z" />
    <glyph glyph-name="Ccaron" unicode="&#x10c;" horiz-adv-x="629" 
d="M40 324q0 140 97.5 237t245.5 97q123 0 214 -70l-81 -95q-52 38 -123 38q-92 0 -149.5 -60.5t-57.5 -146.5t56.5 -147t141.5 -61q87 0 145 52l85 -96q-94 -83 -231 -83q-148 0 -245.5 97t-97.5 238zM318 689l-112 158h99l79 -93l80 93h99l-112 -158h-133z" />
    <glyph glyph-name="ccaron" unicode="&#x10d;" horiz-adv-x="505" 
d="M35 250q0 108 78.5 184t188.5 76q103 0 178 -61l-82 -97q-32 28 -93 28q-57 0 -95.5 -37t-38.5 -93q0 -55 38 -92.5t100 -37.5q69 0 108 34l73 -103q-79 -61 -188 -61q-111 0 -189 76t-78 184zM222 568l-112 158h99l79 -93l80 93h99l-112 -158h-133z" />
    <glyph glyph-name="Dcaron" unicode="&#x10e;" horiz-adv-x="716" 
d="M210 120h115q92 0 148.5 57.5t56.5 146.5t-56.5 146.5t-148.5 57.5h-115v-408zM70 0v648h259q156 0 251.5 -93.5t95.5 -230.5t-95.5 -230.5t-251.5 -93.5h-259zM244 689l-112 158h99l79 -93l80 93h99l-112 -158h-133z" />
    <glyph glyph-name="dcaron" unicode="&#x10f;" horiz-adv-x="603" 
d="M35 250q0 110 64 185t167 75q89 0 143 -76v224h134v-658h-134v65q-54 -75 -143 -75q-103 0 -167 75t-64 185zM171 250q0 -58 33.5 -94t86.5 -36q52 0 85 36t33 94t-33 94t-85 36q-53 0 -86.5 -36t-33.5 -94zM568 471q59 66 59 119q0 26 -19 50l85 30q24 -26 24 -64
q0 -75 -77 -135h-72z" />
    <glyph glyph-name="Dcroat" unicode="&#x110;" horiz-adv-x="716" 
d="M70 0v284h-80v99h80v265h259q156 0 251.5 -93.5t95.5 -230.5t-95.5 -230.5t-251.5 -93.5h-259zM210 120h115q92 0 148.5 57.5t56.5 146.5t-56.5 146.5t-148.5 57.5h-115v-145h123v-99h-123v-164z" />
    <glyph glyph-name="dcroat" unicode="&#x111;" horiz-adv-x="603" 
d="M35 250q0 110 64 185t167 75q89 0 143 -76v114h-131v64h131v46h134v-46h61v-64h-61v-548h-134v65q-54 -75 -143 -75q-103 0 -167 75t-64 185zM171 250q0 -58 33.5 -94t86.5 -36q52 0 85 36t33 94t-33 94t-85 36q-53 0 -86.5 -36t-33.5 -94z" />
    <glyph glyph-name="Emacron" unicode="&#x112;" horiz-adv-x="624" 
d="M70 0v648h511v-120h-371v-132h352v-119h-352v-157h384v-120h-524zM218 700v95h236v-95h-236z" />
    <glyph glyph-name="emacron" unicode="&#x113;" horiz-adv-x="573" 
d="M172 301h235q-8 43 -41 68t-78 25q-39 0 -71 -25t-45 -68zM35 249q0 109 75 185t186 76q100 0 171 -75.5t71 -180.5l-4 -50h-360q25 -96 137 -96q78 0 137 34l50 -101q-88 -51 -189 -51q-115 0 -194.5 68.5t-79.5 190.5zM167 564v95h236v-95h-236z" />
    <glyph glyph-name="Ebreve" unicode="&#x114;" horiz-adv-x="624" 
d="M70 0v648h511v-120h-371v-132h352v-119h-352v-157h384v-120h-524zM346 685q-57 0 -92.5 38.5t-35.5 93.5h71q0 -22 16.5 -37.5t40.5 -15.5q23 0 39.5 15.5t16.5 37.5h72q0 -55 -35.5 -93.5t-92.5 -38.5z" />
    <glyph glyph-name="ebreve" unicode="&#x115;" horiz-adv-x="573" 
d="M172 301h235q-8 43 -41 68t-78 25q-39 0 -71 -25t-45 -68zM35 249q0 109 75 185t186 76q100 0 171 -75.5t71 -180.5l-4 -50h-360q25 -96 137 -96q78 0 137 34l50 -101q-88 -51 -189 -51q-115 0 -194.5 68.5t-79.5 190.5zM286 556q-57 0 -92.5 38.5t-35.5 93.5h71
q0 -22 16.5 -37.5t40.5 -15.5q23 0 39.5 15.5t16.5 37.5h72q0 -55 -35.5 -93.5t-92.5 -38.5z" />
    <glyph glyph-name="Edotaccent" unicode="&#x116;" horiz-adv-x="624" 
d="M70 0v648h511v-120h-371v-132h352v-119h-352v-157h384v-120h-524zM256 764q0 33 23.5 56.5t55.5 23.5q33 0 56.5 -23.5t23.5 -56.5q0 -32 -23.5 -55.5t-56.5 -23.5q-32 0 -55.5 23.5t-23.5 55.5z" />
    <glyph glyph-name="edotaccent" unicode="&#x117;" horiz-adv-x="573" 
d="M172 301h235q-8 43 -41 68t-78 25q-39 0 -71 -25t-45 -68zM35 249q0 109 75 185t186 76q100 0 171 -75.5t71 -180.5l-4 -50h-360q25 -96 137 -96q78 0 137 34l50 -101q-88 -51 -189 -51q-115 0 -194.5 68.5t-79.5 190.5zM206 629q0 33 23.5 56.5t55.5 23.5
q33 0 56.5 -23.5t23.5 -56.5q0 -32 -23.5 -55.5t-56.5 -23.5q-32 0 -55.5 23.5t-23.5 55.5z" />
    <glyph glyph-name="Eogonek" unicode="&#x118;" horiz-adv-x="624" 
d="M70 0v648h511v-120h-371v-132h352v-119h-352v-157h384v-120h-82q-38 -36 -38 -84q0 -26 16 -42t40 -16q13 0 33 8l19 -55q-45 -31 -94 -31q-38 0 -66 24.5t-28 67.5q0 68 48 128h-372z" />
    <glyph glyph-name="eogonek" unicode="&#x119;" horiz-adv-x="573" 
d="M248 -128q0 62 40 119q-108 6 -180.5 73.5t-72.5 184.5q0 109 75 185t186 76q100 0 171 -75.5t71 -180.5l-4 -50h-360q25 -96 137 -96q78 0 137 34l50 -101q-67 -38 -138 -47q-32 -37 -32 -78q0 -26 16 -42t40 -16q13 0 33 8l19 -55q-45 -31 -94 -31q-38 0 -66 24.5
t-28 67.5zM172 301h235q-8 43 -41 68t-78 25q-39 0 -71 -25t-45 -68z" />
    <glyph glyph-name="Ecaron" unicode="&#x11a;" horiz-adv-x="624" 
d="M70 0v648h511v-120h-371v-132h352v-119h-352v-157h384v-120h-524zM279 689l-112 158h99l79 -93l80 93h99l-112 -158h-133z" />
    <glyph glyph-name="ecaron" unicode="&#x11b;" horiz-adv-x="573" 
d="M172 301h235q-8 43 -41 68t-78 25q-39 0 -71 -25t-45 -68zM35 249q0 109 75 185t186 76q100 0 171 -75.5t71 -180.5l-4 -50h-360q25 -96 137 -96q78 0 137 34l50 -101q-88 -51 -189 -51q-115 0 -194.5 68.5t-79.5 190.5zM219 568l-112 158h99l79 -93l80 93h99l-112 -158
h-133z" />
    <glyph glyph-name="Gcircumflex" unicode="&#x11c;" horiz-adv-x="722" 
d="M40 324q0 140 97.5 237t245.5 97q123 0 219 -73l-82 -96q-55 42 -136 42q-85 0 -141.5 -61t-56.5 -146q0 -86 56.5 -146.5t141.5 -60.5q86 0 143 63v96h-103v116h238v-266q-43 -64 -117 -100t-162 -36q-148 0 -245.5 96.5t-97.5 237.5zM203 689l112 158h133l112 -158h-99
l-80 93l-79 -93h-99z" />
    <glyph glyph-name="gcircumflex" unicode="&#x11d;" horiz-adv-x="603" 
d="M35 275q0 100 64 167.5t167 67.5q88 0 143 -68v58h134v-387q0 -119 -75.5 -189.5t-189.5 -70.5q-128 0 -208 64l56 89q60 -48 145 -48q51 0 94.5 32t43.5 90v18q-55 -67 -143 -67q-103 0 -167 70t-64 174zM171 262q0 -52 31.5 -85t81.5 -33q51 0 82 33t31 85
q0 55 -31 89.5t-82 34.5q-50 0 -81.5 -34.5t-31.5 -89.5zM114 568l112 158h133l112 -158h-99l-80 93l-79 -93h-99z" />
    <glyph glyph-name="Gbreve" unicode="&#x11e;" horiz-adv-x="722" 
d="M40 324q0 140 97.5 237t245.5 97q123 0 219 -73l-82 -96q-55 42 -136 42q-85 0 -141.5 -61t-56.5 -146q0 -86 56.5 -146.5t141.5 -60.5q86 0 143 63v96h-103v116h238v-266q-43 -64 -117 -100t-162 -36q-148 0 -245.5 96.5t-97.5 237.5zM377 685q-57 0 -92.5 38.5
t-35.5 93.5h71q0 -22 16.5 -37.5t40.5 -15.5q23 0 39.5 15.5t16.5 37.5h72q0 -55 -35.5 -93.5t-92.5 -38.5z" />
    <glyph glyph-name="gbreve" unicode="&#x11f;" horiz-adv-x="603" 
d="M35 275q0 100 64 167.5t167 67.5q88 0 143 -68v58h134v-387q0 -119 -75.5 -189.5t-189.5 -70.5q-128 0 -208 64l56 89q60 -48 145 -48q51 0 94.5 32t43.5 90v18q-55 -67 -143 -67q-103 0 -167 70t-64 174zM171 262q0 -52 31.5 -85t81.5 -33q51 0 82 33t31 85
q0 55 -31 89.5t-82 34.5q-50 0 -81.5 -34.5t-31.5 -89.5zM303 556q-57 0 -92.5 38.5t-35.5 93.5h71q0 -22 16.5 -37.5t40.5 -15.5q23 0 39.5 15.5t16.5 37.5h72q0 -55 -35.5 -93.5t-92.5 -38.5z" />
    <glyph glyph-name="Gdotaccent" unicode="&#x120;" horiz-adv-x="722" 
d="M40 324q0 140 97.5 237t245.5 97q123 0 219 -73l-82 -96q-55 42 -136 42q-85 0 -141.5 -61t-56.5 -146q0 -86 56.5 -146.5t141.5 -60.5q86 0 143 63v96h-103v116h238v-266q-43 -64 -117 -100t-162 -36q-148 0 -245.5 96.5t-97.5 237.5zM303 764q0 33 23.5 56.5t55.5 23.5
q33 0 56.5 -23.5t23.5 -56.5q0 -32 -23.5 -55.5t-56.5 -23.5q-32 0 -55.5 23.5t-23.5 55.5z" />
    <glyph glyph-name="gdotaccent" unicode="&#x121;" horiz-adv-x="603" 
d="M35 275q0 100 64 167.5t167 67.5q88 0 143 -68v58h134v-387q0 -119 -75.5 -189.5t-189.5 -70.5q-128 0 -208 64l56 89q60 -48 145 -48q51 0 94.5 32t43.5 90v18q-55 -67 -143 -67q-103 0 -167 70t-64 174zM171 262q0 -52 31.5 -85t81.5 -33q51 0 82 33t31 85
q0 55 -31 89.5t-82 34.5q-50 0 -81.5 -34.5t-31.5 -89.5zM203 629q0 33 23.5 56.5t55.5 23.5q33 0 56.5 -23.5t23.5 -56.5q0 -32 -23.5 -55.5t-56.5 -23.5q-32 0 -55.5 23.5t-23.5 55.5z" />
    <glyph glyph-name="Gcommaaccent" unicode="&#x122;" horiz-adv-x="722" 
d="M40 324q0 140 97.5 237t245.5 97q123 0 219 -73l-82 -96q-55 42 -136 42q-85 0 -141.5 -61t-56.5 -146q0 -86 56.5 -146.5t141.5 -60.5q86 0 143 63v96h-103v116h238v-266q-43 -64 -117 -100t-162 -36q-148 0 -245.5 96.5t-97.5 237.5zM305 -235q59 66 59 119
q0 26 -19 50l85 30q24 -26 24 -64q0 -75 -77 -135h-72z" />
    <glyph glyph-name="gcommaaccent" unicode="&#x123;" horiz-adv-x="603" 
d="M248 550q-77 60 -77 135q0 14 7 35q6 18 17 29l85 -30q-19 -24 -19 -50q0 -53 59 -119h-72zM35 275q0 100 64 167.5t167 67.5q88 0 143 -68v58h134v-387q0 -119 -75.5 -189.5t-189.5 -70.5q-128 0 -208 64l56 89q60 -48 145 -48q51 0 94.5 32t43.5 90v18
q-55 -67 -143 -67q-103 0 -167 70t-64 174zM171 262q0 -52 31.5 -85t81.5 -33q51 0 82 33t31 85q0 55 -31 89.5t-82 34.5q-50 0 -81.5 -34.5t-31.5 -89.5z" />
    <glyph glyph-name="Hcircumflex" unicode="&#x124;" horiz-adv-x="697" 
d="M70 0v648h140v-253h277v253h140v-648h-140v275h-277v-275h-140zM180 689l112 158h133l112 -158h-99l-80 93l-79 -93h-99z" />
    <glyph glyph-name="hcircumflex" unicode="&#x125;" horiz-adv-x="577" 
d="M60 0v658h134v-223q55 75 155 75q97 0 137.5 -61.5t40.5 -173.5v-275h-134v260q0 63 -18.5 91.5t-72.5 28.5q-51 0 -79.5 -35.5t-28.5 -94.5v-250h-134zM-48 679l112 158h133l112 -158h-99l-80 93l-79 -93h-99z" />
    <glyph glyph-name="Hbar" unicode="&#x126;" horiz-adv-x="697" 
d="M70 0v486h-40v89h40v73h140v-73h277v73h140v-73h40v-89h-40v-486h-140v285h-277v-285h-140zM210 405h277v81h-277v-81z" />
    <glyph glyph-name="hbar" unicode="&#x127;" horiz-adv-x="577" 
d="M60 0v548h-60v64h60v46h134v-46h132v-64h-132v-113q55 75 155 75q97 0 137.5 -61.5t40.5 -173.5v-275h-134v260q0 63 -18.5 91.5t-72.5 28.5q-51 0 -79.5 -35.5t-28.5 -94.5v-250h-134z" />
    <glyph glyph-name="Itilde" unicode="&#x128;" horiz-adv-x="280" 
d="M70 0v648h140v-648h-140zM-26 685q0 60 25 96t65 36q37 0 83 -26.5t55 -26.5q33 0 33 53h71q0 -60 -25 -96t-65 -36q-37 0 -83 26.5t-55 26.5q-33 0 -33 -53h-71z" />
    <glyph glyph-name="itilde" unicode="&#x129;" horiz-adv-x="254" 
d="M-39 562q0 60 25 96t65 36q37 0 83 -26.5t55 -26.5q33 0 33 53h71q0 -60 -25 -96t-65 -36q-37 0 -83 26.5t-55 26.5q-33 0 -33 -53h-71zM60 0v500h134v-500h-134z" />
    <glyph glyph-name="Imacron" unicode="&#x12a;" horiz-adv-x="280" 
d="M70 0v648h140v-648h-140zM22 700v95h236v-95h-236z" />
    <glyph glyph-name="imacron" unicode="&#x12b;" horiz-adv-x="254" 
d="M9 564v95h236v-95h-236zM60 0v500h134v-500h-134z" />
    <glyph glyph-name="Ibreve" unicode="&#x12c;" horiz-adv-x="280" 
d="M70 0v648h140v-648h-140zM140 685q-57 0 -92.5 38.5t-35.5 93.5h71q0 -22 16.5 -37.5t40.5 -15.5q23 0 39.5 15.5t16.5 37.5h72q0 -55 -35.5 -93.5t-92.5 -38.5z" />
    <glyph glyph-name="ibreve" unicode="&#x12d;" horiz-adv-x="254" 
d="M127 556q-57 0 -92.5 38.5t-35.5 93.5h71q0 -22 16.5 -37.5t40.5 -15.5q23 0 39.5 15.5t16.5 37.5h72q0 -55 -35.5 -93.5t-92.5 -38.5zM60 0v500h134v-500h-134z" />
    <glyph glyph-name="Iogonek" unicode="&#x12e;" horiz-adv-x="280" 
d="M22 -128q0 68 48 128v648h140v-648h-70q-38 -36 -38 -84q0 -26 16 -42t40 -16q13 0 33 8l19 -55q-45 -31 -94 -31q-38 0 -66 24.5t-28 67.5z" />
    <glyph glyph-name="iogonek" unicode="&#x12f;" horiz-adv-x="254" 
d="M8 -128q0 72 52 133v495h134v-500h-68q-38 -36 -38 -84q0 -26 16 -42t40 -16q13 0 33 8l19 -55q-45 -31 -94 -31q-38 0 -66 24.5t-28 67.5zM48 629q0 33 23.5 56.5t55.5 23.5q33 0 56.5 -23.5t23.5 -56.5q0 -32 -23.5 -55.5t-56.5 -23.5q-32 0 -55.5 23.5t-23.5 55.5z
" />
    <glyph glyph-name="Idotaccent" unicode="&#x130;" horiz-adv-x="280" 
d="M70 0v648h140v-648h-140zM61 764q0 33 23.5 56.5t55.5 23.5q33 0 56.5 -23.5t23.5 -56.5q0 -32 -23.5 -55.5t-56.5 -23.5q-32 0 -55.5 23.5t-23.5 55.5z" />
    <glyph glyph-name="dotlessi" unicode="&#x131;" horiz-adv-x="254" 
d="M60 0v500h134v-500h-134z" />
    <glyph glyph-name="Jcircumflex" unicode="&#x134;" horiz-adv-x="582" 
d="M20 128l101 78q50 -89 134 -89q58 0 93 36t35 109v386h139v-378q0 -143 -73.5 -211.5t-190.5 -68.5q-79 0 -143 35.5t-95 102.5zM267 689l112 158h133l112 -158h-99l-80 93l-79 -93h-99z" />
    <glyph glyph-name="jcircumflex" unicode="&#x135;" horiz-adv-x="254" 
d="M24 -182l-47 97q83 44 83 162v423h134v-403q0 -106 -42.5 -172.5t-127.5 -106.5zM-53 568l112 158h133l112 -158h-99l-80 93l-79 -93h-99z" />
    <glyph glyph-name="Kcommaaccent" unicode="&#x136;" horiz-adv-x="675" 
d="M70 0v648h139v-361l76 105l187 256h165l-226 -305l254 -343h-165l-177 245l-114 -145v-100h-139zM223 -235q59 66 59 119q0 26 -19 50l85 30q24 -26 24 -64q0 -75 -77 -135h-72z" />
    <glyph glyph-name="kcommaaccent" unicode="&#x137;" horiz-adv-x="568" 
d="M60 0v658h134v-365l167 207h165l-197 -224l234 -276h-161l-153 183l-55 -68v-115h-134zM187 -235q59 66 59 119q0 26 -19 50l85 30q24 -26 24 -64q0 -75 -77 -135h-72z" />
    <glyph glyph-name="Lacute" unicode="&#x139;" horiz-adv-x="614" 
d="M70 0v648h140v-528h374v-120h-514zM70 689l94 158h134l-111 -158h-117z" />
    <glyph glyph-name="lacute" unicode="&#x13a;" horiz-adv-x="254" 
d="M60 0v658h134v-658h-134zM50 739l94 158h134l-111 -158h-117z" />
    <glyph glyph-name="Lcommaaccent" unicode="&#x13b;" horiz-adv-x="614" 
d="M70 0v648h140v-528h374v-120h-514zM264 -235q59 66 59 119q0 26 -19 50l85 30q24 -26 24 -64q0 -75 -77 -135h-72z" />
    <glyph glyph-name="lcommaaccent" unicode="&#x13c;" horiz-adv-x="254" 
d="M60 0v658h134v-658h-134zM44 -235q59 66 59 119q0 26 -19 50l85 30q24 -26 24 -64q0 -75 -77 -135h-72z" />
    <glyph glyph-name="Lcaron" unicode="&#x13d;" horiz-adv-x="614" 
d="M70 0v648h140v-528h374v-120h-514zM267 451q62 69 62 130q0 25 -20 54l89 33q26 -30 26 -70q0 -81 -81 -147h-76z" />
    <glyph glyph-name="lcaron" unicode="&#x13e;" horiz-adv-x="254" 
d="M60 0v658h134v-658h-134zM208 471q59 66 59 119q0 26 -19 50l85 30q24 -26 24 -64q0 -75 -77 -135h-72z" />
    <glyph glyph-name="Lslash" unicode="&#x141;" horiz-adv-x="614" 
d="M70 0v271l-80 -34v108l80 34v269h140v-209l164 71v-108l-164 -71v-211h374v-120h-514z" />
    <glyph glyph-name="lslash" unicode="&#x142;" horiz-adv-x="254" 
d="M60 0v313l-55 -24v108l55 24v237h134v-179l55 25v-108l-55 -25v-371h-134z" />
    <glyph glyph-name="Nacute" unicode="&#x143;" horiz-adv-x="713" 
d="M70 0v648h146l177 -259q21 -31 48.5 -74.5t44.5 -71.5l17 -28v433h140v-648h-148l-165 241q-27 39 -57 86t-47 75l-16 27v-429h-140zM278 689l94 158h134l-111 -158h-117z" />
    <glyph glyph-name="nacute" unicode="&#x144;" horiz-adv-x="578" 
d="M60 0v500h134v-65q57 75 156 75q100 0 139 -60.5t39 -174.5v-275h-135v260q0 65 -16 92.5t-70 27.5q-51 0 -82 -36t-31 -94v-250h-134zM204 568l94 158h134l-111 -158h-117z" />
    <glyph glyph-name="Ncommaaccent" unicode="&#x145;" horiz-adv-x="713" 
d="M70 0v648h146l177 -259q21 -31 48.5 -74.5t44.5 -71.5l17 -28v433h140v-648h-148l-165 241q-27 39 -57 86t-47 75l-16 27v-429h-140zM284 -235q59 66 59 119q0 26 -19 50l85 30q24 -26 24 -64q0 -75 -77 -135h-72z" />
    <glyph glyph-name="ncommaaccent" unicode="&#x146;" horiz-adv-x="578" 
d="M60 0v500h134v-65q57 75 156 75q100 0 139 -60.5t39 -174.5v-275h-135v260q0 65 -16 92.5t-70 27.5q-51 0 -82 -36t-31 -94v-250h-134zM214 -235q59 66 59 119q0 26 -19 50l85 30q24 -26 24 -64q0 -75 -77 -135h-72z" />
    <glyph glyph-name="Ncaron" unicode="&#x147;" horiz-adv-x="713" 
d="M70 0v648h146l177 -259q21 -31 48.5 -74.5t44.5 -71.5l17 -28v433h140v-648h-148l-165 241q-27 39 -57 86t-47 75l-16 27v-429h-140zM290 689l-112 158h99l79 -93l80 93h99l-112 -158h-133z" />
    <glyph glyph-name="ncaron" unicode="&#x148;" horiz-adv-x="578" 
d="M60 0v500h134v-65q57 75 156 75q100 0 139 -60.5t39 -174.5v-275h-135v260q0 65 -16 92.5t-70 27.5q-51 0 -82 -36t-31 -94v-250h-134zM228 568l-112 158h99l79 -93l80 93h99l-112 -158h-133z" />
    <glyph glyph-name="Eng" unicode="&#x14a;" horiz-adv-x="713" 
d="M70 0v648h146l177 -259q21 -31 48.5 -74.5t44.5 -71.5l17 -28v433h140v-637q0 -77 -58 -139.5t-154 -85.5l-32 106q88 31 95 110l-164 239q-27 39 -57 86t-47 75l-16 27v-429h-140z" />
    <glyph glyph-name="eng" unicode="&#x14b;" horiz-adv-x="578" 
d="M60 0v500h134v-65q57 75 156 75q100 0 139 -60.5t39 -174.5v-198q0 -107 -61.5 -183.5t-153.5 -101.5l-33 105q51 19 82 64t31 112v187q0 61 -19 90.5t-67 29.5q-51 0 -82 -36t-31 -94v-250h-134z" />
    <glyph glyph-name="Omacron" unicode="&#x14c;" horiz-adv-x="766" 
d="M186 324q0 -86 56.5 -147t141.5 -61q84 0 140 61t56 147q0 85 -56 146t-140 61q-85 0 -141.5 -61t-56.5 -146zM40 324q0 140 97.5 237t245.5 97t245.5 -97t97.5 -237q0 -141 -97.5 -238t-245.5 -97t-245.5 97t-97.5 238zM265 700v95h236v-95h-236z" />
    <glyph glyph-name="omacron" unicode="&#x14d;" horiz-adv-x="604" 
d="M35 250q0 108 78.5 184t188.5 76t188.5 -76t78.5 -184t-78.5 -184t-188.5 -76t-188.5 76t-78.5 184zM171 250q0 -54 38.5 -92t92.5 -38t92.5 38t38.5 92t-38.5 92t-92.5 38t-92.5 -38t-38.5 -92zM184 564v95h236v-95h-236z" />
    <glyph glyph-name="Obreve" unicode="&#x14e;" horiz-adv-x="766" 
d="M186 324q0 -86 56.5 -147t141.5 -61q84 0 140 61t56 147q0 85 -56 146t-140 61q-85 0 -141.5 -61t-56.5 -146zM40 324q0 140 97.5 237t245.5 97t245.5 -97t97.5 -237q0 -141 -97.5 -238t-245.5 -97t-245.5 97t-97.5 238zM383 685q-57 0 -92.5 38.5t-35.5 93.5h71
q0 -22 16.5 -37.5t40.5 -15.5q23 0 39.5 15.5t16.5 37.5h72q0 -55 -35.5 -93.5t-92.5 -38.5z" />
    <glyph glyph-name="obreve" unicode="&#x14f;" horiz-adv-x="604" 
d="M35 250q0 108 78.5 184t188.5 76t188.5 -76t78.5 -184t-78.5 -184t-188.5 -76t-188.5 76t-78.5 184zM171 250q0 -54 38.5 -92t92.5 -38t92.5 38t38.5 92t-38.5 92t-92.5 38t-92.5 -38t-38.5 -92zM302 556q-57 0 -92.5 38.5t-35.5 93.5h71q0 -22 16.5 -37.5t40.5 -15.5
q23 0 39.5 15.5t16.5 37.5h72q0 -55 -35.5 -93.5t-92.5 -38.5z" />
    <glyph glyph-name="Ohungarumlaut" unicode="&#x150;" horiz-adv-x="766" 
d="M186 324q0 -86 56.5 -147t141.5 -61q84 0 140 61t56 147q0 85 -56 146t-140 61q-85 0 -141.5 -61t-56.5 -146zM40 324q0 140 97.5 237t245.5 97t245.5 -97t97.5 -237q0 -141 -97.5 -238t-245.5 -97t-245.5 97t-97.5 238zM243 689l76 140h133l-117 -140h-92zM413 689
l76 140h133l-117 -140h-92z" />
    <glyph glyph-name="ohungarumlaut" unicode="&#x151;" horiz-adv-x="604" 
d="M35 250q0 108 78.5 184t188.5 76t188.5 -76t78.5 -184t-78.5 -184t-188.5 -76t-188.5 76t-78.5 184zM171 250q0 -54 38.5 -92t92.5 -38t92.5 38t38.5 92t-38.5 92t-92.5 38t-92.5 -38t-38.5 -92zM144 563l76 140h133l-117 -140h-92zM314 563l76 140h133l-117 -140h-92z
" />
    <glyph glyph-name="OE" unicode="&#x152;" horiz-adv-x="1073" 
d="M40 324q0 140 97.5 237t245.5 97q92 0 170 -55v45h476v-120h-335v-132h315v-119h-315v-157h349v-120h-490v44q-75 -55 -170 -55q-148 0 -245.5 97t-97.5 238zM186 324q0 -86 59.5 -147t148.5 -61q106 0 159 70v272q-54 73 -159 73q-89 0 -148.5 -61t-59.5 -146z" />
    <glyph glyph-name="oe" unicode="&#x153;" horiz-adv-x="963" 
d="M35 250q0 108 78.5 184t188.5 76q57 0 107.5 -25.5t85.5 -69.5q74 95 191 95q100 0 171 -75.5t71 -180.5l-4 -50h-360q28 -100 139 -100q70 0 133 39l51 -101q-76 -52 -181 -52q-67 0 -124 23.5t-88 69.5q-77 -93 -192 -93q-110 0 -188.5 76t-78.5 184zM171 250
q0 -54 38.5 -92t92.5 -38t92.5 38t38.5 92t-38.5 92t-92.5 38t-92.5 -38t-38.5 -92zM562 301h235q-8 43 -41 68t-78 25q-39 0 -71 -25t-45 -68z" />
    <glyph glyph-name="Racute" unicode="&#x154;" horiz-adv-x="685" 
d="M70 0v648h277q138 0 214 -70.5t76 -179.5q0 -66 -32 -121t-90 -89l135 -188h-171l-100 150q-33 -2 -94 -2h-75v-148h-140zM210 268h143q63 0 100.5 37t37.5 93t-37 93t-100 37h-144v-260zM227 689l94 158h134l-111 -158h-117z" />
    <glyph glyph-name="racute" unicode="&#x155;" horiz-adv-x="388" 
d="M60 0v500h134v-93q14 39 57 71t117 32v-146q-88 0 -131 -41.5t-43 -130.5v-192h-134zM122 568l94 158h134l-111 -158h-117z" />
    <glyph glyph-name="Rcommaaccent" unicode="&#x156;" horiz-adv-x="685" 
d="M70 0v648h277q138 0 214 -70.5t76 -179.5q0 -66 -32 -121t-90 -89l135 -188h-171l-100 150q-33 -2 -94 -2h-75v-148h-140zM210 268h143q63 0 100.5 37t37.5 93t-37 93t-100 37h-144v-260zM234 -235q59 66 59 119q0 26 -19 50l85 30q24 -26 24 -64q0 -75 -77 -135h-72z
" />
    <glyph glyph-name="rcommaaccent" unicode="&#x157;" horiz-adv-x="388" 
d="M60 0v500h134v-93q14 39 57 71t117 32v-146q-88 0 -131 -41.5t-43 -130.5v-192h-134zM47 -235q59 66 59 119q0 26 -19 50l85 30q24 -26 24 -64q0 -75 -77 -135h-72z" />
    <glyph glyph-name="Rcaron" unicode="&#x158;" horiz-adv-x="685" 
d="M70 0v648h277q138 0 214 -70.5t76 -179.5q0 -66 -32 -121t-90 -89l135 -188h-171l-100 150q-33 -2 -94 -2h-75v-148h-140zM210 268h143q63 0 100.5 37t37.5 93t-37 93t-100 37h-144v-260zM251 689l-112 158h99l79 -93l80 93h99l-112 -158h-133z" />
    <glyph glyph-name="rcaron" unicode="&#x159;" horiz-adv-x="388" 
d="M60 0v500h134v-93q14 39 57 71t117 32v-146q-88 0 -131 -41.5t-43 -130.5v-192h-134zM146 568l-112 158h99l79 -93l80 93h99l-112 -158h-133z" />
    <glyph glyph-name="Sacute" unicode="&#x15a;" horiz-adv-x="610" 
d="M40 78l50 108q100 -72 214 -72q51 0 88 22.5t37 55.5q0 32 -31.5 49t-88.5 29q-42 10 -72.5 18.5t-65.5 25t-57 36.5t-37 51t-15 70q0 89 71 138t171 49q133 0 237 -69l-51 -108q-86 53 -186 53q-36 0 -68.5 -14t-32.5 -48q0 -29 29 -44.5t91 -28.5q247 -55 247 -207
q0 -98 -79.5 -150t-187.5 -52q-157 0 -263 88zM236 689l94 158h134l-111 -158h-117z" />
    <glyph glyph-name="sacute" unicode="&#x15b;" horiz-adv-x="493" 
d="M35 60l47 98q82 -55 157 -55q31 0 58 12t27 37q0 29 -89 49q-85 20 -130 53t-45 101q0 72 59.5 113.5t134.5 41.5q90 0 184 -48l-47 -98q-65 33 -137 33q-23 0 -41.5 -11t-18.5 -29q0 -27 70 -41q40 -8 71 -19t61 -29.5t46 -47t16 -66.5q0 -44 -21 -77.5t-55 -51.5
t-70 -26.5t-73 -8.5q-50 0 -97 14.5t-70 28.5t-37 27zM176 568l94 158h134l-111 -158h-117z" />
    <glyph glyph-name="Scircumflex" unicode="&#x15c;" horiz-adv-x="610" 
d="M40 78l50 108q100 -72 214 -72q51 0 88 22.5t37 55.5q0 32 -31.5 49t-88.5 29q-42 10 -72.5 18.5t-65.5 25t-57 36.5t-37 51t-15 70q0 89 71 138t171 49q133 0 237 -69l-51 -108q-86 53 -186 53q-36 0 -68.5 -14t-32.5 -48q0 -29 29 -44.5t91 -28.5q247 -55 247 -207
q0 -98 -79.5 -150t-187.5 -52q-157 0 -263 88zM127 689l112 158h133l112 -158h-99l-80 93l-79 -93h-99z" />
    <glyph glyph-name="scircumflex" unicode="&#x15d;" horiz-adv-x="493" 
d="M35 60l47 98q82 -55 157 -55q31 0 58 12t27 37q0 29 -89 49q-85 20 -130 53t-45 101q0 72 59.5 113.5t134.5 41.5q90 0 184 -48l-47 -98q-65 33 -137 33q-23 0 -41.5 -11t-18.5 -29q0 -27 70 -41q40 -8 71 -19t61 -29.5t46 -47t16 -66.5q0 -44 -21 -77.5t-55 -51.5
t-70 -26.5t-73 -8.5q-50 0 -97 14.5t-70 28.5t-37 27zM77 568l112 158h133l112 -158h-99l-80 93l-79 -93h-99z" />
    <glyph glyph-name="Scedilla" unicode="&#x15e;" horiz-adv-x="610" 
d="M186 -189l31 52q44 -23 80 -23q24 0 39.5 13.5t15.5 29.5q0 12 -9 18.5t-22 6.5q-27 0 -38 -27l-66 21l53 89q-137 8 -230 87l50 108q100 -72 214 -72q51 0 88 22.5t37 55.5q0 32 -31.5 49t-88.5 29q-42 10 -72.5 18.5t-65.5 25t-57 36.5t-37 51t-15 70q0 89 71 138
t171 49q133 0 237 -69l-51 -108q-86 53 -186 53q-36 0 -68.5 -14t-32.5 -48q0 -29 29 -44.5t91 -28.5q247 -55 247 -207q0 -87 -64 -138t-158 -61l-21 -37q18 3 20 3q40 0 63 -22t23 -53q0 -41 -35.5 -72t-98.5 -31q-71 0 -113 30z" />
    <glyph glyph-name="scedilla" unicode="&#x15f;" horiz-adv-x="493" 
d="M127 -189l31 52q44 -23 80 -23q24 0 39.5 13.5t15.5 29.5q0 12 -9 18.5t-22 6.5q-27 0 -38 -27l-66 21l53 89q-62 5 -108.5 27t-67.5 42l47 98q82 -55 157 -55q31 0 58 12t27 37q0 29 -89 49q-85 20 -130 53t-45 101q0 72 59.5 113.5t134.5 41.5q90 0 184 -48l-47 -98
q-65 33 -137 33q-23 0 -41.5 -11t-18.5 -29q0 -27 70 -41q40 -8 71 -19t61 -29.5t46 -47t16 -66.5q0 -71 -49 -110.5t-119 -49.5l-22 -38q18 3 20 3q40 0 63 -22t23 -53q0 -41 -35.5 -72t-98.5 -31q-71 0 -113 30z" />
    <glyph glyph-name="Scaron" unicode="&#x160;" horiz-adv-x="610" 
d="M40 78l50 108q100 -72 214 -72q51 0 88 22.5t37 55.5q0 32 -31.5 49t-88.5 29q-42 10 -72.5 18.5t-65.5 25t-57 36.5t-37 51t-15 70q0 89 71 138t171 49q133 0 237 -69l-51 -108q-86 53 -186 53q-36 0 -68.5 -14t-32.5 -48q0 -29 29 -44.5t91 -28.5q247 -55 247 -207
q0 -98 -79.5 -150t-187.5 -52q-157 0 -263 88zM239 689l-112 158h99l79 -93l80 93h99l-112 -158h-133z" />
    <glyph glyph-name="scaron" unicode="&#x161;" horiz-adv-x="493" 
d="M35 60l47 98q82 -55 157 -55q31 0 58 12t27 37q0 29 -89 49q-85 20 -130 53t-45 101q0 72 59.5 113.5t134.5 41.5q90 0 184 -48l-47 -98q-65 33 -137 33q-23 0 -41.5 -11t-18.5 -29q0 -27 70 -41q40 -8 71 -19t61 -29.5t46 -47t16 -66.5q0 -44 -21 -77.5t-55 -51.5
t-70 -26.5t-73 -8.5q-50 0 -97 14.5t-70 28.5t-37 27zM190 568l-112 158h99l79 -93l80 93h99l-112 -158h-133z" />
    <glyph glyph-name="Tcommaaccent" unicode="&#x162;" horiz-adv-x="620" 
d="M240 0v528h-220v120h580v-120h-220v-528h-140zM224 -235q59 66 59 119q0 26 -19 50l85 30q24 -26 24 -64q0 -75 -77 -135h-72z" />
    <glyph glyph-name="tcommaaccent" unicode="&#x163;" horiz-adv-x="379" 
d="M84 162v230h-74v108h73v91l134 30v-121h138v-108h-137v-234q0 -52 42 -52q16 0 32.5 5.5t25.5 10.5l8 6l38 -101q-58 -37 -123 -37q-82 0 -119.5 43.5t-37.5 128.5zM124 -235q59 66 59 119q0 26 -19 50l85 30q24 -26 24 -64q0 -75 -77 -135h-72z" />
    <glyph glyph-name="Tcaron" unicode="&#x164;" horiz-adv-x="620" 
d="M240 0v528h-220v120h580v-120h-220v-528h-140zM244 689l-112 158h99l79 -93l80 93h99l-112 -158h-133z" />
    <glyph glyph-name="tcaron" unicode="&#x165;" horiz-adv-x="379" 
d="M84 162v230h-74v108h73v91l134 30v-121h138v-108h-137v-234q0 -52 42 -52q16 0 32.5 5.5t25.5 10.5l8 6l38 -101q-58 -37 -123 -37q-82 0 -119.5 43.5t-37.5 128.5zM245 536q55 48 55 90q0 19 -17 39l79 23q23 -19 23 -49q0 -58 -72 -103h-68z" />
    <glyph glyph-name="Tbar" unicode="&#x166;" horiz-adv-x="620" 
d="M240 0v329h-140v89h140v110h-220v120h580v-120h-220v-110h140v-89h-140v-329h-140z" />
    <glyph glyph-name="tbar" unicode="&#x167;" horiz-adv-x="379" 
d="M84 170v71h-57v64h57v87h-79v108h78v91l134 30v-121h138v-108h-137v-87h99v-64h-99v-83q0 -52 42 -52q16 0 32.5 5.5t25.5 10.5l8 6l38 -101q-58 -37 -123 -37q-157 0 -157 180z" />
    <glyph glyph-name="Utilde" unicode="&#x168;" horiz-adv-x="676" 
d="M338 -10q-117 0 -197.5 73.5t-80.5 191.5v393h138v-387q0 -63 40.5 -103.5t99.5 -40.5t99 40.5t40 103.5v387h139v-393q0 -117 -80.5 -191t-197.5 -74zM173 685q0 60 25 96t65 36q37 0 83 -26.5t55 -26.5q33 0 33 53h71q0 -60 -25 -96t-65 -36q-37 0 -83 26.5t-55 26.5
q-33 0 -33 -53h-71z" />
    <glyph glyph-name="utilde" unicode="&#x169;" horiz-adv-x="578" 
d="M50 217v283h135v-260q0 -61 20 -90.5t71 -29.5q108 0 108 136v244h134v-500h-134v65q-57 -75 -150 -75q-43 0 -76 13.5t-53 35t-32.5 52t-17.5 61t-5 65.5zM118 562q0 60 25 96t65 36q37 0 83 -26.5t55 -26.5q33 0 33 53h71q0 -60 -25 -96t-65 -36q-37 0 -83 26.5
t-55 26.5q-33 0 -33 -53h-71z" />
    <glyph glyph-name="Umacron" unicode="&#x16a;" horiz-adv-x="676" 
d="M338 -10q-117 0 -197.5 73.5t-80.5 191.5v393h138v-387q0 -63 40.5 -103.5t99.5 -40.5t99 40.5t40 103.5v387h139v-393q0 -117 -80.5 -191t-197.5 -74zM221 700v95h236v-95h-236z" />
    <glyph glyph-name="umacron" unicode="&#x16b;" horiz-adv-x="578" 
d="M50 217v283h135v-260q0 -61 20 -90.5t71 -29.5q108 0 108 136v244h134v-500h-134v65q-57 -75 -150 -75q-43 0 -76 13.5t-53 35t-32.5 52t-17.5 61t-5 65.5zM166 564v95h236v-95h-236z" />
    <glyph glyph-name="Ubreve" unicode="&#x16c;" horiz-adv-x="676" 
d="M338 -10q-117 0 -197.5 73.5t-80.5 191.5v393h138v-387q0 -63 40.5 -103.5t99.5 -40.5t99 40.5t40 103.5v387h139v-393q0 -117 -80.5 -191t-197.5 -74zM339 685q-57 0 -92.5 38.5t-35.5 93.5h71q0 -22 16.5 -37.5t40.5 -15.5q23 0 39.5 15.5t16.5 37.5h72
q0 -55 -35.5 -93.5t-92.5 -38.5z" />
    <glyph glyph-name="ubreve" unicode="&#x16d;" horiz-adv-x="578" 
d="M50 217v283h135v-260q0 -61 20 -90.5t71 -29.5q108 0 108 136v244h134v-500h-134v65q-57 -75 -150 -75q-43 0 -76 13.5t-53 35t-32.5 52t-17.5 61t-5 65.5zM284 556q-57 0 -92.5 38.5t-35.5 93.5h71q0 -22 16.5 -37.5t40.5 -15.5q23 0 39.5 15.5t16.5 37.5h72
q0 -55 -35.5 -93.5t-92.5 -38.5z" />
    <glyph glyph-name="Uring" unicode="&#x16e;" horiz-adv-x="676" 
d="M338 -10q-117 0 -197.5 73.5t-80.5 191.5v393h138v-387q0 -63 40.5 -103.5t99.5 -40.5t99 40.5t40 103.5v387h139v-393q0 -117 -80.5 -191t-197.5 -74zM230 779q0 45 32 77t77 32t77 -32t32 -77t-32 -77t-77 -32t-77 32t-32 77zM293 779q0 -20 13.5 -35t32.5 -15t33 15
t14 35t-14 35t-33 15t-32.5 -15t-13.5 -35z" />
    <glyph glyph-name="uring" unicode="&#x16f;" horiz-adv-x="578" 
d="M50 217v283h135v-260q0 -61 20 -90.5t71 -29.5q108 0 108 136v244h134v-500h-134v65q-57 -75 -150 -75q-43 0 -76 13.5t-53 35t-32.5 52t-17.5 61t-5 65.5zM175 641q0 45 32 77t77 32t77 -32t32 -77t-32 -77t-77 -32t-77 32t-32 77zM238 641q0 -20 13.5 -35t32.5 -15
t33 15t14 35t-14 35t-33 15t-32.5 -15t-13.5 -35z" />
    <glyph glyph-name="Uhungarumlaut" unicode="&#x170;" horiz-adv-x="676" 
d="M338 -10q-117 0 -197.5 73.5t-80.5 191.5v393h138v-387q0 -63 40.5 -103.5t99.5 -40.5t99 40.5t40 103.5v387h139v-393q0 -117 -80.5 -191t-197.5 -74zM189 689l76 140h133l-117 -140h-92zM359 689l76 140h133l-117 -140h-92z" />
    <glyph glyph-name="uhungarumlaut" unicode="&#x171;" horiz-adv-x="578" 
d="M50 217v283h135v-260q0 -61 20 -90.5t71 -29.5q108 0 108 136v244h134v-500h-134v65q-57 -75 -150 -75q-43 0 -76 13.5t-53 35t-32.5 52t-17.5 61t-5 65.5zM120 563l76 140h133l-117 -140h-92zM290 563l76 140h133l-117 -140h-92z" />
    <glyph glyph-name="Uogonek" unicode="&#x172;" horiz-adv-x="676" 
d="M310 -128q0 63 40 118h-12q-117 0 -197.5 73.5t-80.5 191.5v393h138v-387q0 -63 40.5 -103.5t99.5 -40.5t99 40.5t40 103.5v387h139v-393q0 -91 -50.5 -157.5t-131.5 -92.5q-18 -15 -31 -40.5t-13 -48.5q0 -26 16 -42t40 -16q13 0 33 8l19 -55q-45 -31 -94 -31
q-38 0 -66 24.5t-28 67.5z" />
    <glyph glyph-name="uogonek" unicode="&#x173;" horiz-adv-x="578" 
d="M332 -128q0 72 52 133v60q-57 -75 -150 -75q-43 0 -76 13.5t-53 35t-32.5 52t-17.5 61t-5 65.5v283h135v-260q0 -61 20 -90.5t71 -29.5q108 0 108 136v244h134v-500h-68q-38 -36 -38 -84q0 -26 16 -42t40 -16q13 0 33 8l19 -55q-45 -31 -94 -31q-38 0 -66 24.5t-28 67.5z
" />
    <glyph glyph-name="Wcircumflex" unicode="&#x174;" horiz-adv-x="944" 
d="M209 0l-199 648h141l103 -348l34 -122l29 122l79 348h152l79 -348l29 -122q16 62 34 123l104 347h140l-199 -648h-154l-81 325l-28 147q-13 -84 -28 -147l-81 -325h-154zM294 689l112 158h133l112 -158h-99l-80 93l-79 -93h-99z" />
    <glyph glyph-name="wcircumflex" unicode="&#x175;" horiz-adv-x="734" 
d="M165 0l-160 500h131l73 -239q6 -20 11 -47t7 -44l2 -17q6 62 16 106l56 241h132l56 -241q4 -19 8 -45.5t6 -43.5l2 -17q7 63 20 108l73 239h131l-160 -500h-122l-62 240q-5 19 -9.5 46t-6.5 44l-2 17q-7 -65 -18 -107l-62 -240h-122zM189 568l112 158h133l112 -158h-99
l-80 93l-79 -93h-99z" />
    <glyph glyph-name="Ycircumflex" unicode="&#x176;" horiz-adv-x="646" 
d="M254 0v293l-244 355h161l74 -108l79 -126l80 126l71 108h161l-242 -353v-295h-140zM146 689l112 158h133l112 -158h-99l-80 93l-79 -93h-99z" />
    <glyph glyph-name="ycircumflex" unicode="&#x177;" horiz-adv-x="543" 
d="M99 -147v126q44 0 67 15.5t37 46.5l9 19l-207 440h137l101 -234l31 -80q22 62 31 85l90 229h136l-225 -521q-55 -126 -207 -126zM98 568l112 158h133l112 -158h-99l-80 93l-79 -93h-99z" />
    <glyph glyph-name="Ydieresis" unicode="&#x178;" horiz-adv-x="646" 
d="M254 0v293l-244 355h161l74 -108l79 -126l80 126l71 108h161l-242 -353v-295h-140zM164 749q0 26 19 45t45 19t45 -19t19 -45t-19 -45t-45 -19t-45 19t-19 45zM356 749q0 26 19 45t45 19t45 -19t19 -45t-19 -45t-45 -19t-45 19t-19 45z" />
    <glyph glyph-name="Zacute" unicode="&#x179;" horiz-adv-x="602" 
d="M30 0v104l285 346q19 23 37 42.5t27 27.5l9 8h-342v120h517v-105l-272 -328l-83 -95h364v-120h-542zM220 689l94 158h134l-111 -158h-117z" />
    <glyph glyph-name="zacute" unicode="&#x17a;" horiz-adv-x="459" 
d="M20 0v97l160 203l75 82h-226v118h395v-96l-158 -195l-81 -91h247v-118h-412zM146 568l94 158h134l-111 -158h-117z" />
    <glyph glyph-name="Zdotaccent" unicode="&#x17b;" horiz-adv-x="602" 
d="M30 0v104l285 346q19 23 37 42.5t27 27.5l9 8h-342v120h517v-105l-272 -328l-83 -95h364v-120h-542zM221 764q0 33 23.5 56.5t55.5 23.5q33 0 56.5 -23.5t23.5 -56.5q0 -32 -23.5 -55.5t-56.5 -23.5q-32 0 -55.5 23.5t-23.5 55.5z" />
    <glyph glyph-name="zdotaccent" unicode="&#x17c;" horiz-adv-x="452" 
d="M20 0v97l160 203l75 82h-226v118h395v-96l-158 -195l-81 -91h247v-118h-412zM147 629q0 33 23.5 56.5t55.5 23.5q33 0 56.5 -23.5t23.5 -56.5q0 -32 -23.5 -55.5t-56.5 -23.5q-32 0 -55.5 23.5t-23.5 55.5z" />
    <glyph glyph-name="Zcaron" unicode="&#x17d;" horiz-adv-x="602" 
d="M30 0v104l285 346q19 23 37 42.5t27 27.5l9 8h-342v120h517v-105l-272 -328l-83 -95h364v-120h-542zM235 689l-112 158h99l79 -93l80 93h99l-112 -158h-133z" />
    <glyph glyph-name="zcaron" unicode="&#x17e;" horiz-adv-x="455" 
d="M20 0v97l160 203l75 82h-226v118h395v-96l-158 -195l-81 -91h247v-118h-412zM161 568l-112 158h99l79 -93l80 93h99l-112 -158h-133z" />
    <glyph glyph-name="florin" unicode="&#x192;" 
d="M-36 -50l69 82q25 -30 55 -30q46 0 59 48l74 284h-63l25 89h63l28 99q39 136 144 136q30 0 62.5 -11t50.5 -21l18 -11l-41 -91q-20 18 -47 18q-40 0 -57 -60l-16 -59h109l-25 -89h-109l-73 -277q-27 -100 -74 -137.5t-118 -37.5q-47 0 -82 22.5t-52 45.5z" />
    <glyph glyph-name="Aringacute" unicode="&#x1fa;" horiz-adv-x="713" 
d="M5 0l282 648h139l282 -648h-143l-45 103h-328l-44 -103h-143zM247 779q0 56 47 90l76 155h110l-83 -144q30 -12 49 -40t19 -61q0 -45 -32 -77t-77 -32t-77 32t-32 77zM240 213h233l-52 119l-65 168q-34 -100 -64 -168zM310 779q0 -20 13.5 -35t32.5 -15t33 15t14 35
t-14 35t-33 15t-32.5 -15t-13.5 -35z" />
    <glyph glyph-name="aringacute" unicode="&#x1fb;" horiz-adv-x="610" 
d="M35 250q0 110 64 185t167 75q93 0 150 -76v66h134v-500h-134v65q-57 -75 -150 -75q-103 0 -167 75t-64 185zM177 661q0 56 47 90l76 155h110l-83 -144q30 -12 49 -40t19 -61q0 -45 -32 -77t-77 -32t-77 32t-32 77zM178 250q0 -58 33.5 -94t86.5 -36q52 0 85 36t33 94
t-33 94t-85 36q-53 0 -86.5 -36t-33.5 -94zM240 661q0 -20 13.5 -35t32.5 -15t33 15t14 35t-14 35t-33 15t-32.5 -15t-13.5 -35z" />
    <glyph glyph-name="AEacute" unicode="&#x1fc;" horiz-adv-x="984" 
d="M5 0l399 648h536v-120h-335v-132h315v-119h-315v-157h349v-120h-490v103h-241l-63 -103h-155zM290 213h174v317q-21 -44 -54 -103zM560 689l94 158h134l-111 -158h-117z" />
    <glyph glyph-name="aeacute" unicode="&#x1fd;" horiz-adv-x="916" 
d="M35 145q0 61 39.5 102t96 57.5t125.5 16.5q42 0 68 -5q-12 79 -104 79q-33 0 -66.5 -8t-50.5 -16l-17 -8l-44 94q8 6 22.5 15t60 23.5t90.5 14.5q130 0 189 -101q34 47 85 74t110 27q100 0 171 -75.5t71 -180.5l-4 -50h-360q14 -49 54.5 -73.5t94.5 -24.5q69 0 125 34
l47 -102q-77 -48 -182 -48q-71 0 -128 24.5t-84 71.5q-79 -96 -216 -96q-95 0 -144 42.5t-49 112.5zM166 160q0 -27 21 -41.5t51 -14.5q68 0 102 31.5t34 63.5v25q-23 4 -78 4q-53 0 -91.5 -18t-38.5 -50zM515 301h235q-8 43 -41 68t-78 25q-39 0 -71 -25t-45 -68zM355 568
l94 158h134l-111 -158h-117z" />
    <glyph glyph-name="Oslashacute" unicode="&#x1fe;" horiz-adv-x="766" 
d="M316 689l94 158h134l-111 -158h-117zM40 324q0 140 97.5 237t245.5 97q78 0 147 -30l55 91l52 -31l-54 -90q67 -46 105 -117.5t38 -156.5q0 -141 -97.5 -238t-245.5 -97q-78 0 -147 30l-54 -91l-52 31l53 89q-67 45 -105 117.5t-38 158.5zM186 324q0 -97 68 -159l208 349
q-36 17 -78 17q-85 0 -141.5 -61t-56.5 -146zM304 132q38 -16 80 -16q84 0 140 61t56 147q0 93 -67 157z" />
    <glyph glyph-name="oslashacute" unicode="&#x1ff;" horiz-adv-x="604" 
d="M225 568l94 158h134l-111 -158h-117zM35 250q0 108 78.5 184t188.5 76q55 0 105 -22l48 80l52 -31l-47 -78q50 -36 79.5 -91t29.5 -118q0 -108 -78.5 -184t-188.5 -76q-54 0 -110 23l-45 -76l-52 31l45 75q-105 79 -105 207zM260 126q20 -6 42 -6q54 0 92.5 38t38.5 92
q0 56 -42 95zM171 250q0 -54 38 -92l130 217q-20 5 -37 5q-54 0 -92.5 -38t-38.5 -92z" />
    <glyph glyph-name="Scommaaccent" unicode="&#x218;" horiz-adv-x="610" 
d="M40 78l50 108q100 -72 214 -72q51 0 88 22.5t37 55.5q0 32 -31.5 49t-88.5 29q-42 10 -72.5 18.5t-65.5 25t-57 36.5t-37 51t-15 70q0 89 71 138t171 49q133 0 237 -69l-51 -108q-86 53 -186 53q-36 0 -68.5 -14t-32.5 -48q0 -29 29 -44.5t91 -28.5q247 -55 247 -207
q0 -98 -79.5 -150t-187.5 -52q-157 0 -263 88zM221 -235q59 66 59 119q0 26 -19 50l85 30q24 -26 24 -64q0 -75 -77 -135h-72z" />
    <glyph glyph-name="scommaaccent" unicode="&#x219;" horiz-adv-x="493" 
d="M35 60l47 98q82 -55 157 -55q31 0 58 12t27 37q0 29 -89 49q-85 20 -130 53t-45 101q0 72 59.5 113.5t134.5 41.5q90 0 184 -48l-47 -98q-65 33 -137 33q-23 0 -41.5 -11t-18.5 -29q0 -27 70 -41q40 -8 71 -19t61 -29.5t46 -47t16 -66.5q0 -44 -21 -77.5t-55 -51.5
t-70 -26.5t-73 -8.5q-50 0 -97 14.5t-70 28.5t-37 27zM161 -235q59 66 59 119q0 26 -19 50l85 30q24 -26 24 -64q0 -75 -77 -135h-72z" />
    <glyph glyph-name="circumflex" unicode="&#x2c6;" horiz-adv-x="400" 
d="M21 568l112 158h133l112 -158h-99l-80 93l-79 -93h-99z" />
    <glyph glyph-name="caron" unicode="&#x2c7;" horiz-adv-x="400" 
d="M133 568l-112 158h99l79 -93l80 93h99l-112 -158h-133z" />
    <glyph glyph-name="breve" unicode="&#x2d8;" horiz-adv-x="400" 
d="M200 556q-57 0 -92.5 38.5t-35.5 93.5h71q0 -22 16.5 -37.5t40.5 -15.5q23 0 39.5 15.5t16.5 37.5h72q0 -55 -35.5 -93.5t-92.5 -38.5z" />
    <glyph glyph-name="dotaccent" unicode="&#x2d9;" horiz-adv-x="400" 
d="M120 629q0 33 23.5 56.5t55.5 23.5q33 0 56.5 -23.5t23.5 -56.5q0 -32 -23.5 -55.5t-56.5 -23.5q-32 0 -55.5 23.5t-23.5 55.5z" />
    <glyph glyph-name="ring" unicode="&#x2da;" horiz-adv-x="400" 
d="M91 641q0 45 32 77t77 32t77 -32t32 -77t-32 -77t-77 -32t-77 32t-32 77zM154 641q0 -20 13.5 -35t32.5 -15t33 15t14 35t-14 35t-33 15t-32.5 -15t-13.5 -35z" />
    <glyph glyph-name="ogonek" unicode="&#x2db;" horiz-adv-x="400" 
d="M106 -128q0 72 52 133h72q-18 -15 -31 -40.5t-13 -48.5q0 -26 16 -42t40 -16q13 0 33 8l19 -55q-45 -31 -94 -31q-38 0 -66 24.5t-28 67.5z" />
    <glyph glyph-name="tilde" unicode="&#x2dc;" horiz-adv-x="400" 
d="M33 562q0 60 25 96t65 36q37 0 83 -26.5t55 -26.5q33 0 33 53h71q0 -60 -25 -96t-65 -36q-37 0 -83 26.5t-55 26.5q-33 0 -33 -53h-71z" />
    <glyph glyph-name="hungarumlaut" unicode="&#x2dd;" horiz-adv-x="400" 
d="M10 563l76 140h133l-117 -140h-92zM180 563l76 140h133l-117 -140h-92z" />
    <glyph glyph-name="pi" unicode="&#x3c0;" horiz-adv-x="750" 
d="M40 325q0 139 98.5 237t236.5 98q139 0 237 -98t98 -237t-98 -237t-237 -98q-138 0 -236.5 98t-98.5 237zM236 126v396h180q68 0 114.5 -46.5t46.5 -114.5q0 -69 -46.5 -116t-114.5 -47h-122v-72h-58zM294 257h122q43 0 73 30.5t30 73.5q0 42 -30.5 73.5t-72.5 31.5h-122
v-209zM99 324q0 -114 81 -196t194 -82q114 0 195 82t81 196t-81 196.5t-195 82.5q-113 0 -194 -82.5t-81 -196.5z" />
    <glyph glyph-name="Wgrave" unicode="&#x1e80;" horiz-adv-x="944" 
d="M209 0l-199 648h141l103 -348l34 -122l29 122l79 348h152l79 -348l29 -122q16 62 34 123l104 347h140l-199 -648h-154l-81 325l-28 147q-13 -84 -28 -147l-81 -325h-154zM438 689l-111 158h134l94 -158h-117z" />
    <glyph glyph-name="wgrave" unicode="&#x1e81;" horiz-adv-x="734" 
d="M165 0l-160 500h131l73 -239q6 -20 11 -47t7 -44l2 -17q6 62 16 106l56 241h132l56 -241q4 -19 8 -45.5t6 -43.5l2 -17q7 63 20 108l73 239h131l-160 -500h-122l-62 240q-5 19 -9.5 46t-6.5 44l-2 17q-7 -65 -18 -107l-62 -240h-122zM325 568l-111 158h134l94 -158h-117z
" />
    <glyph glyph-name="Wacute" unicode="&#x1e82;" horiz-adv-x="944" 
d="M209 0l-199 648h141l103 -348l34 -122l29 122l79 348h152l79 -348l29 -122q16 62 34 123l104 347h140l-199 -648h-154l-81 325l-28 147q-13 -84 -28 -147l-81 -325h-154zM383 689l94 158h134l-111 -158h-117z" />
    <glyph glyph-name="wacute" unicode="&#x1e83;" horiz-adv-x="734" 
d="M165 0l-160 500h131l73 -239q6 -20 11 -47t7 -44l2 -17q6 62 16 106l56 241h132l56 -241q4 -19 8 -45.5t6 -43.5l2 -17q7 63 20 108l73 239h131l-160 -500h-122l-62 240q-5 19 -9.5 46t-6.5 44l-2 17q-7 -65 -18 -107l-62 -240h-122zM290 568l94 158h134l-111 -158h-117z
" />
    <glyph glyph-name="Wdieresis" unicode="&#x1e84;" horiz-adv-x="944" 
d="M209 0l-199 648h141l103 -348l34 -122l29 122l79 348h152l79 -348l29 -122q16 62 34 123l104 347h140l-199 -648h-154l-81 325l-28 147q-13 -84 -28 -147l-81 -325h-154zM312 749q0 26 19 45t45 19t45 -19t19 -45t-19 -45t-45 -19t-45 19t-19 45zM504 749q0 26 19 45
t45 19t45 -19t19 -45t-19 -45t-45 -19t-45 19t-19 45z" />
    <glyph glyph-name="wdieresis" unicode="&#x1e85;" horiz-adv-x="734" 
d="M165 0l-160 500h131l73 -239q6 -20 11 -47t7 -44l2 -17q6 62 16 106l56 241h132l56 -241q4 -19 8 -45.5t6 -43.5l2 -17q7 63 20 108l73 239h131l-160 -500h-122l-62 240q-5 19 -9.5 46t-6.5 44l-2 17q-7 -65 -18 -107l-62 -240h-122zM207 633q0 26 19 45t45 19t45 -19
t19 -45t-19 -45t-45 -19t-45 19t-19 45zM399 633q0 26 19 45t45 19t45 -19t19 -45t-19 -45t-45 -19t-45 19t-19 45z" />
    <glyph glyph-name="Ygrave" unicode="&#x1ef2;" horiz-adv-x="646" 
d="M254 0v293l-244 355h161l74 -108l79 -126l80 126l71 108h161l-242 -353v-295h-140zM277 689l-111 158h134l94 -158h-117z" />
    <glyph glyph-name="ygrave" unicode="&#x1ef3;" horiz-adv-x="543" 
d="M99 -147v126q44 0 67 15.5t37 46.5l9 19l-207 440h137l101 -234l31 -80q22 62 31 85l90 229h136l-225 -521q-55 -126 -207 -126zM238 568l-111 158h134l94 -158h-117z" />
    <glyph glyph-name="endash" unicode="&#x2013;" horiz-adv-x="620" 
d="M20 192v108h580v-108h-580z" />
    <glyph glyph-name="emdash" unicode="&#x2014;" horiz-adv-x="720" 
d="M20 192v108h680v-108h-680z" />
    <glyph glyph-name="quoteleft" unicode="&#x2018;" horiz-adv-x="280" 
d="M50 376l95 272h85l-59 -272h-121z" />
    <glyph glyph-name="quoteright" unicode="&#x2019;" horiz-adv-x="280" 
d="M50 376l59 272h121l-95 -272h-85z" />
    <glyph glyph-name="quotesinglbase" unicode="&#x201a;" horiz-adv-x="280" 
d="M50 -137l59 272h121l-95 -272h-85z" />
    <glyph glyph-name="quotedblleft" unicode="&#x201c;" horiz-adv-x="480" 
d="M50 376l95 272h85l-59 -272h-121zM250 376l95 272h85l-59 -272h-121z" />
    <glyph glyph-name="quotedblright" unicode="&#x201d;" horiz-adv-x="480" 
d="M50 376l59 272h121l-95 -272h-85zM250 376l59 272h121l-95 -272h-85z" />
    <glyph glyph-name="quotedblbase" unicode="&#x201e;" horiz-adv-x="480" 
d="M50 -137l59 272h121l-95 -272h-85zM250 -137l59 272h121l-95 -272h-85z" />
    <glyph glyph-name="dagger" unicode="&#x2020;" horiz-adv-x="433" 
d="M165 131v333h-135v87h135v164h98v-164h135v-87h-135v-333h-98z" />
    <glyph glyph-name="daggerdbl" unicode="&#x2021;" horiz-adv-x="433" 
d="M165 0v211h-135v87h135v166h-135v87h135v164h98v-164h135v-87h-135v-166h135v-87h-135v-211h-98z" />
    <glyph glyph-name="bullet" unicode="&#x2022;" horiz-adv-x="403" 
d="M50 292q0 63 44.5 107t107.5 44t107 -44t44 -107t-44 -107.5t-107 -44.5t-107.5 44.5t-44.5 107.5z" />
    <glyph glyph-name="ellipsis" unicode="&#x2026;" horiz-adv-x="780" 
d="M60 69q0 33 23.5 56.5t55.5 23.5q33 0 56.5 -23.5t23.5 -56.5t-23.5 -56t-56.5 -23t-56 23t-23 56zM310 69q0 33 23.5 56.5t55.5 23.5q33 0 56.5 -23.5t23.5 -56.5t-23.5 -56t-56.5 -23t-56 23t-23 56zM560 69q0 33 23.5 56.5t55.5 23.5q33 0 56.5 -23.5t23.5 -56.5
t-23.5 -56t-56.5 -23t-56 23t-23 56z" />
    <glyph glyph-name="perthousand" unicode="&#x2030;" horiz-adv-x="1301" 
d="M145 459q0 -48 18 -78.5t49 -30.5q29 0 48 31t19 78q0 48 -19 79t-48 31q-31 0 -49 -30.5t-18 -79.5zM50 459q0 88 45.5 143.5t116.5 55.5t116 -55.5t45 -143.5t-45 -143t-116 -55t-116.5 55t-45.5 143zM636 189q0 -48 18 -78.5t49 -30.5q29 0 48 31t19 78q0 48 -19 79
t-48 31q-31 0 -49 -30.5t-18 -79.5zM541 189q0 88 45.5 143.5t116.5 55.5t116 -55.5t45 -143.5t-45 -143t-116 -55t-116.5 55t-45.5 143zM1023 189q0 -48 18 -78.5t49 -30.5q29 0 48 31t19 78q0 48 -19 79t-48 31q-31 0 -49 -30.5t-18 -79.5zM928 189q0 88 45.5 143.5
t116.5 55.5t116 -55.5t45 -143.5t-45 -143t-116 -55t-116.5 55t-45.5 143zM234 26l396 658l63 -36l-396 -658z" />
    <glyph glyph-name="guilsinglleft" unicode="&#x2039;" horiz-adv-x="293" 
d="M27 217v53l177 175l59 -59l-121 -142l121 -143l-59 -59z" />
    <glyph glyph-name="guilsinglright" unicode="&#x203a;" horiz-adv-x="293" 
d="M86 42l-59 59l121 143l-121 142l59 59l177 -175v-53z" />
    <glyph glyph-name="fraction" unicode="&#x2044;" horiz-adv-x="503" 
d="M48 26l396 658l63 -36l-396 -658z" />
    <glyph glyph-name="zerosuperior" unicode="&#x2070;" horiz-adv-x="440" 
d="M139 521q0 -65 21.5 -103.5t58.5 -38.5t58.5 38.5t21.5 103.5q0 63 -22 102.5t-58 39.5t-58 -39.5t-22 -102.5zM26 521q0 104 54 170.5t139 66.5t139 -66.5t54 -170.5t-54 -170.5t-139 -66.5t-139 66.5t-54 170.5z" />
    <glyph glyph-name="foursuperior" unicode="&#x2074;" horiz-adv-x="440" 
d="M246 290v94h-218v69l178 307l92 -42l-145 -238h93v82h106v-82h52v-96h-52v-94h-106z" />
    <glyph glyph-name="fivesuperior" unicode="&#x2075;" horiz-adv-x="440" 
d="M50 332l39 81q40 -34 107 -34q43 0 65 18t22 45q0 31 -24 47t-62 16q-43 0 -82 -26l-46 34v235h296v-96h-196v-60q23 4 49 4q76 0 124 -41t48 -113q0 -75 -51 -119.5t-137 -44.5q-89 0 -152 54z" />
    <glyph glyph-name="sixsuperior" unicode="&#x2076;" horiz-adv-x="440" 
d="M46 451q0 49 41 108l152 218l80 -64l-85 -110h4q69 0 112.5 -44.5t43.5 -107.5q0 -73 -46.5 -120.5t-127.5 -47.5t-127.5 48t-46.5 120zM153 447q0 -29 19 -48t47 -19t47.5 19t19.5 48q0 31 -19 50.5t-48 19.5q-28 0 -47 -19t-19 -51z" />
    <glyph glyph-name="sevensuperior" unicode="&#x2077;" horiz-adv-x="390" 
d="M63 289l176 368h-219v95h350v-66l-191 -397h-116z" />
    <glyph glyph-name="eightsuperior" unicode="&#x2078;" horiz-adv-x="440" 
d="M43 431q0 79 65 114q-41 33 -41 87q0 56 41.5 91.5t111.5 35.5t111.5 -35.5t41.5 -91.5q0 -53 -42 -87q66 -36 66 -114q0 -66 -48 -107t-129 -41t-129 41t-48 107zM157 439q0 -24 16.5 -39.5t46.5 -15.5t46.5 15.5t16.5 39.5q0 22 -16 37.5t-47 15.5t-47 -15.5t-16 -37.5
zM164 622q0 -20 14 -34t42 -14t42 14t14 34t-14.5 33.5t-41.5 13.5t-41.5 -13.5t-14.5 -33.5z" />
    <glyph glyph-name="ninesuperior" unicode="&#x2079;" horiz-adv-x="440" 
d="M131 344l75 94h-4q-69 0 -112.5 44.5t-43.5 107.5q0 73 46.5 120.5t127.5 47.5t127.5 -48t46.5 -120q0 -49 -41 -108l-141 -203zM153 594q0 -32 19.5 -51t47.5 -19t47 19t19 51q0 29 -19 48t-47 19t-47.5 -19t-19.5 -48z" />
    <glyph glyph-name="n.sups" unicode="&#x207f;" horiz-adv-x="389" 
d="M40 331v330h98v-29q37 35 91 35q68 0 94 -40t26 -115v-181h-99v171q0 38 -8.5 53.5t-38.5 15.5t-47.5 -20.5t-17.5 -55.5v-164h-98z" />
    <glyph glyph-name="zeroinferior" unicode="&#x2080;" horiz-adv-x="440" 
d="M139 122q0 -65 21.5 -103.5t58.5 -38.5t58.5 38.5t21.5 103.5q0 63 -22 102.5t-58 39.5t-58 -39.5t-22 -102.5zM26 122q0 104 54 170.5t139 66.5t139 -66.5t54 -170.5t-54 -170.5t-139 -66.5t-139 66.5t-54 170.5z" />
    <glyph glyph-name="oneinferior" unicode="&#x2081;" horiz-adv-x="370" 
d="M171 -109v328l-90 -61l-44 71l159 125h81v-463h-106z" />
    <glyph glyph-name="twoinferior" unicode="&#x2082;" horiz-adv-x="410" 
d="M39 -109v69q117 110 159.5 162.5t42.5 89.5q0 52 -60 52q-46 0 -87 -51l-54 72q32 37 67 56t85 19q73 0 117.5 -38.5t44.5 -100.5q0 -107 -161 -236h175v-94h-329z" />
    <glyph glyph-name="threeinferior" unicode="&#x2083;" horiz-adv-x="440" 
d="M45 -54l50 75q47 -41 106 -41q45 0 67 20.5t22 49.5q0 28 -21.5 46.5t-66.5 18.5q-34 0 -68 -23l-37 62l130 105h-164v95h312v-82l-107 -88q50 -2 92.5 -40t42.5 -99q0 -69 -52 -114.5t-143 -45.5q-97 0 -163 61z" />
    <glyph glyph-name="fourinferior" unicode="&#x2084;" horiz-adv-x="440" 
d="M246 -108v94h-218v69l178 307l92 -42l-145 -238h93v82h106v-82h52v-96h-52v-94h-106z" />
    <glyph glyph-name="fiveinferior" unicode="&#x2085;" horiz-adv-x="440" 
d="M50 -64l39 81q40 -34 107 -34q43 0 65 18t22 45q0 31 -24 47t-62 16q-43 0 -82 -26l-46 34v235h296v-96h-196v-60q23 4 49 4q76 0 124 -41t48 -113q0 -75 -51 -119.5t-137 -44.5q-89 0 -152 54z" />
    <glyph glyph-name="sixinferior" unicode="&#x2086;" horiz-adv-x="440" 
d="M46 53q0 49 41 108l152 218l80 -64l-85 -110h4q69 0 112.5 -44.5t43.5 -107.5q0 -73 -46.5 -120.5t-127.5 -47.5t-127.5 48t-46.5 120zM153 49q0 -29 19 -48t47 -19t47.5 19t19.5 48q0 31 -19 50.5t-48 19.5q-28 0 -47 -19t-19 -51z" />
    <glyph glyph-name="seveninferior" unicode="&#x2087;" horiz-adv-x="390" 
d="M63 -109l176 368h-219v95h350v-66l-191 -397h-116z" />
    <glyph glyph-name="eightinferior" unicode="&#x2088;" horiz-adv-x="440" 
d="M43 33q0 79 65 114q-41 33 -41 87q0 56 41.5 91.5t111.5 35.5t111.5 -35.5t41.5 -91.5q0 -53 -42 -87q66 -36 66 -114q0 -66 -48 -107t-129 -41t-129 41t-48 107zM157 41q0 -24 16.5 -39.5t46.5 -15.5t46.5 15.5t16.5 39.5q0 22 -16 37.5t-47 15.5t-47 -15.5t-16 -37.5z
M164 224q0 -20 14 -34t42 -14t42 14t14 34t-14.5 33.5t-41.5 13.5t-41.5 -13.5t-14.5 -33.5z" />
    <glyph glyph-name="nineinferior" unicode="&#x2089;" horiz-adv-x="440" 
d="M131 -54l75 94h-4q-69 0 -112.5 44.5t-43.5 107.5q0 73 46.5 120.5t127.5 47.5t127.5 -48t46.5 -120q0 -49 -41 -108l-141 -203zM153 196q0 -32 19.5 -51t47.5 -19t47 19t19 51q0 29 -19 48t-47 19t-47.5 -19t-19.5 -48z" />
    <glyph glyph-name="Euro" unicode="&#x20ac;" 
d="M39 219l22 82h46q-1 17 -1 29q0 14 1 23h-58l22 82h48q28 103 96.5 163t164.5 60q119 0 194 -90l-78 -81q-41 51 -107 51q-44 0 -77.5 -28t-51.5 -75h233l-22 -82h-228q-2 -12 -2 -23l2 -29h217l-22 -82h-180q17 -52 50.5 -81t78.5 -29q70 0 117 65l87 -73
q-78 -112 -211 -112q-96 0 -166.5 62.5t-95.5 167.5h-79z" />
    <glyph glyph-name="trademark" unicode="&#x2122;" horiz-adv-x="822" 
d="M321 351v297h59l93 -93l92 93h60v-297h-82v165l-70 -69l-71 69v-165h-81zM113 351v224h-92v73h265v-73h-92v-224h-81z" />
    <glyph glyph-name="minus" unicode="&#x2212;" 
d="M56 227v108h468v-108h-468z" />
    <glyph glyph-name="approxequal" unicode="&#x2248;" 
d="M68 316q0 164 126 164q38 0 89 -26.5t68 -26.5q29 0 29 39h132q0 -164 -126 -164q-38 0 -89 26.5t-68 26.5q-29 0 -29 -39h-132zM68 96q0 164 126 164q38 0 89 -26.5t68 -26.5q29 0 29 39h132q0 -164 -126 -164q-38 0 -89 26.5t-68 26.5q-29 0 -29 -39h-132z" />
    <glyph glyph-name="notequal" unicode="&#x2260;" 
d="M95 22l64 106h-103v108h169l55 90h-224v108h290l85 139l52 -31l-66 -108h107v-108h-173l-55 -90h228v-108h-294l-83 -137z" />
    <glyph glyph-name="lessequal" unicode="&#x2264;" 
d="M56 26v108h468v-108h-468zM56 322v118l468 132v-115q-22 -5 -79.5 -20t-89 -22.5t-78.5 -17.5t-86 -16q76 -12 333 -76v-115z" />
    <glyph glyph-name="greaterequal" unicode="&#x2265;" 
d="M56 26v108h468v-108h-468zM56 190v115l157 40q37 9 81 18t70 13l25 5q-85 13 -176 36l-157 40v115l468 -132v-118z" />
    <glyph glyph-name="commainferior" unicode="&#xf6e1;" horiz-adv-x="187" 
d="M10 -188l45 218h101l-81 -218h-65z" />
    <glyph glyph-name="commasuperior" unicode="&#xf6e2;" horiz-adv-x="187" 
d="M10 211l45 218h101l-81 -218h-65z" />
    <glyph glyph-name="periodinferior" unicode="&#xf6e7;" horiz-adv-x="187" 
d="M26 -48q0 28 20 48t47 20q28 0 48 -20t20 -48t-20 -47.5t-48 -19.5t-47.5 19.5t-19.5 47.5z" />
    <glyph glyph-name="periodsuperior" unicode="&#xf6e8;" horiz-adv-x="187" 
d="M26 351q0 28 20 48t47 20q28 0 48 -20t20 -48t-20 -47.5t-48 -19.5t-47.5 19.5t-19.5 47.5z" />
    <glyph glyph-name="apple" unicode="&#xf8ff;" horiz-adv-x="805" 
d="M-2 -9q1 6 14 13.5t34.5 17t30.5 14.5q1 5 5 27q3 12 45 118q-16 2 -96 19q14 91 19 110q0 5 2 15t2 16v4q-3 3 -12 3.5t-11 1.5q0 16 9.5 45t10.5 41q4 13 13 41.5t14 44.5q80 18 96 19q0 15 -10 33q0 1 4.5 5.5t8 9t3.5 7.5t-2 4q-19 7 -35 7v4h37v71q88 3 99 4
q-5 -18 -14 -37l-8 -39q1 0 67 3l1 9q3 19 16 39l2 5q10 -2 32 -3t36 -4q5 -17 5 -31q0 -9 -1 -14l47 -7l33 4v8q0 64 -7 93q5 -1 22 -1q35 0 39 2q32 5 44 5q-1 -12 -4 -31t-5 -34t-2 -31v-8q6 -2 23.5 -3t23.5 -3q-4 -1 -19.5 -2.5t-21.5 -4.5l20 -35q-7 -19 -10 -42
q66 15 78 16q1 -2 1 -5q0 -4 -2.5 -14.5t-2.5 -16.5q7 -9 16 -26t15 -30l6 -12l28 -132q2 -1 3.5 -21.5t3 -54t2.5 -46.5l1 -9h-48q26 -50 47 -83l18 -26l-15 -11l28 -21q-4 -1 -11 -1q-8 0 -22.5 5t-20.5 6q0 -4 -1.5 -6t-2.5 -2.5t-4.5 -0.5h-5.5q-6 1 -12 19q-4 6 -5 11
q-6 10 -18.5 32.5t-22 40t-16.5 34.5q-5 3 -11 3l-19 -1q-12 -34 -27 -62q-1 -7 -1.5 -15t-1 -17.5t-0.5 -14.5q0 -18 -6 -30l-24 -6v5q0 3 -2 4q-4 -1 -16 -10.5t-20 -9.5l12 47q2 7 9 25.5t10.5 28.5t7 26t4.5 30q-6 -1 -24 -5.5t-30 -4.5h-13q-6 -30 -6 -57q0 -22 3 -43
q2 -14 12 -65q3 -13 4 -14q-18 2 -47 26q-3 4 -8 6l-6 -4l-12 2q1 9 3.5 25t2.5 24q10 67 12 105q-11 3 -19 3l-23 -1l-4 -7v-37q-2 -28 -2 -38v-25q0 -3 0.5 -12.5t1.5 -15.5l-3 -18l-18 -4q0 7 -4 7q-2 0 -5 -1.5t-4 -1.5q-2 0 -18 -5t-25 -5q1 6 7.5 13.5t8.5 11.5v31
q-6 60 -6 89v12l-1 5q-9 -3 -10 -3l-11 2h-34q-11 0 -16 -3q17 -81 19 -102q1 -7 1 -18q2 -11 13 -35.5t12 -39.5q-9 3 -23.5 16t-19.5 16l-14 9l-4 -9l-22 12q-1 12 -5 49q-8 74 -20 109q-3 2 -10 2h-6q-8 0 -11 2q-22 -47 -25 -113q-2 -10 -2 -13l1 -16l-1 -17l-19 -1
q-5 0 -8 1q2 0 2 3v6q-18 -2 -55 -18t-61 -17zM561 557l9 6q0 9 -13 16q-1 1 -5 11t-4 11h-6q-24 -2 -30 -5q-4 -8 -4 -13v-7q0 -7 -1 -10q13 -14 17 -29q7 -1 22.5 -7.5t19.5 -6.5q3 0 3 1q1 1 1 5l-3 11l1 7q-1 0 -4 4t-3 6zM498 529q8 8 8 12l-18 39q1 3 4.5 7.5t3.5 7.5
q0 4 -1 5q-11 2 -29 2h-19q-18 0 -26 1q1 -11 8 -23q-3 -8 -5.5 -25.5t-6.5 -26.5q13 5 35 5zM656 384q-1 5 -10 12.5t-11 13.5v5q0 3 2 13l-11 1q-3 -2 -4 -6.5t-1 -9.5v-6q-18 15 -45 15q-16 0 -22 -3v-9q2 -1 5 -1l13 1q6 0 9 -4l-1 -4q-5 2 -17 2q-18 0 -31 -14l1 -6
l3 1q18 7 27 7q5 0 7 -3h-4q-14 0 -26 -25l6 -3q5 7 9.5 10t11.5 5t10 3q4 0 4 -7q-13 -7 -13 -23q3 -4 7 -4q1 0 5 2q0 5 3 8.5t5.5 4.5t8.5 3t8 3q4 0 8 -3t6 -4q7 -7 10 -7q6 0 13.5 15.5t13.5 16.5zM364 594v10q-24 -2 -27 -4q2 -2 2 -8q0 -7 -8 -16.5t-9 -16.5
q6 -26 15 -36q2 0 6.5 -1.5t6.5 -1.5t5 1t4 1q-5 10 -5 11q0 5 7 24q-12 0 -12 5q0 4 7 8q8 6 8 24zM329 603q-4 4 -20 4l-19 -2l-30 -4l-3 -5l19 -27q-13 -22 -13 -27l42 -9l3 35q20 22 21 35zM390 453l-41 -8q1 1 1 3v2l-1 2l9 6q8 5 11 11l3 7q-36 -13 -55 -28q0 -3 1 -4
q3 -6 3 -10t-5 -7t-11.5 -5t-8.5 -4q2 -2 5.5 -9.5t8 -12t11.5 -4.5q11 9 25 9h41zM205 570q0 8 -9 8q-8 0 -8 -8t8 -8q9 0 9 8zM218 600h-25q0 -17 2 -17q13 0 13 -13t-13 -13t-13 16l-4 -2q1 -6 2 -18.5t2.5 -19.5t3.5 -9q16 -7 17 -7q3 0 4 2l4 25q-9 0 -9 3q0 4 5.5 8
t5.5 7q3 17 5 38zM251 369l-13 11q-3 3 -12.5 10.5t-13 10t-11 6.5t-15.5 5q-8 -3 -26 -14t-28 -14l10 -16q7 1 32 11q1 -5 5.5 -16.5t5.5 -19.5l-9 -18l22 15l-3 18q1 3 4 3l7 -8q3 -5 3 -8q0 -11 -7 -20q2 -2 5 -2l4 1l11 20q-1 2 -5 20q14 -5 19 -12q-1 -4 -5.5 -9.5
t-4.5 -6.5l7 -5l16 26q-3 3 -3 4q0 3 5 8zM236 370l-20 6q1 3 4 3t9 -4.5t7 -4.5z" />
    <glyph glyph-name="a_alt" horiz-adv-x="568" 
d="M166 159q0 -26 21 -40.5t51 -14.5q50 0 93 28t43 79v17q-46 4 -78 4q-53 0 -91.5 -19t-38.5 -54zM35 144q0 91 76.5 136t184.5 45q42 0 68 -5q-12 75 -104 75q-33 0 -66.5 -8t-50.5 -16l-17 -8l-44 94q8 6 23 15t66.5 23.5t110.5 14.5q109 0 167.5 -62.5t58.5 -186.5
v-261h-134v65q-69 -75 -171 -75q-78 0 -123 44t-45 110z" />
    <glyph glyph-name="one.onum" horiz-adv-x="560" 
d="M290 0v327l-133 -87l-62 96l209 164h120v-500h-134z" />
    <glyph glyph-name="two.onum" horiz-adv-x="560" 
d="M66 0v89q181 114 234 160.5t53 79.5q0 27 -21.5 44t-60.5 17q-72 0 -153 -47l-53 100q93 67 206 67q104 0 161 -50t57 -131q0 -76 -48.5 -124t-131.5 -87h202v-118h-445z" />
    <glyph glyph-name="three.onum" horiz-adv-x="560" 
d="M50 -45l59 96q62 -48 156 -48q55 0 85 23.5t30 56.5q0 34 -31.5 58t-89.5 24q-48 0 -94 -20l-47 80l200 157h-252v118h423v-116l-145 -123q74 -7 123 -55t49 -122q0 -97 -70.5 -149t-180.5 -52q-136 0 -215 72z" />
    <glyph glyph-name="four.onum" horiz-adv-x="560" 
d="M334 -104v125h-316v91l241 408l115 -64l-190 -317h150v142h134v-142h77v-118h-77v-125h-134z" />
    <glyph glyph-name="five.onum" horiz-adv-x="560" 
d="M50 -55l47 97q58 -40 148 -40q61 0 94 25t33 60q0 32 -33.5 56t-92.5 24q-77 0 -130 -30l-46 42v321h398v-118h-264v-99q28 5 76 5q101 0 164.5 -50.5t63.5 -144.5q0 -95 -68 -153t-182 -58q-127 0 -208 63z" />
    <glyph glyph-name="six.onum" horiz-adv-x="560" 
d="M31 223q0 93 56 172l204 286l112 -81l-113 -152l16 1q98 0 160 -64t62 -155q0 -104 -65.5 -172t-183.5 -68q-119 0 -183.5 65.5t-64.5 167.5zM177 225q0 -51 25.5 -82t76.5 -31q49 0 76 31t27 82q0 46 -28.5 76t-74.5 30q-47 0 -74.5 -30t-27.5 -76z" />
    <glyph glyph-name="seven.onum" horiz-adv-x="560" 
d="M138 -118l242 500h-340v118h497v-84l-252 -534h-147z" />
    <glyph glyph-name="eight.onum" horiz-adv-x="560" 
d="M40 193q0 106 87 154q-58 47 -58 133q0 78 57.5 128t153.5 50t153.5 -50t57.5 -128q0 -85 -59 -133q88 -48 88 -154q0 -91 -65 -147t-175 -56t-175 56t-65 147zM176 200q0 -39 27.5 -64.5t76.5 -25.5t76.5 25.5t27.5 64.5q0 37 -26.5 64.5t-77.5 27.5t-77.5 -27.5
t-26.5 -64.5zM195 469q0 -32 21.5 -55t63.5 -23t63.5 23t21.5 55q0 33 -22.5 55.5t-62.5 22.5t-62.5 -22.5t-22.5 -55.5z" />
    <glyph glyph-name="nine.onum" horiz-adv-x="560" 
d="M528 278q0 -93 -56 -172l-204 -286l-112 81l113 152l-16 -1q-98 0 -160 64t-62 155q0 104 65.5 172t183.5 68q119 0 183.5 -65.5t64.5 -167.5zM382 276q0 51 -25.5 82t-76.5 31q-49 0 -76 -31t-27 -82q0 -46 28.5 -76t74.5 -30q47 0 74.5 30t27.5 76z" />
    <glyph glyph-name="zero.onum" horiz-adv-x="560" 
d="M45 250q0 113 66 186.5t169 73.5t168.5 -73.5t65.5 -186.5q0 -114 -65.5 -187t-168.5 -73t-169 73t-66 187zM180 250q0 -60 28 -100t72 -40t71.5 40t27.5 100q0 59 -28 99.5t-71 40.5q-44 0 -72 -40.5t-28 -99.5z" />
    <glyph glyph-name="zero.pnum" 
d="M174 324q0 -97 30 -155.5t86 -58.5t86 58.5t30 155.5t-30 155.5t-86 58.5t-86 -58.5t-30 -155.5zM31 324q0 147 72 240.5t187 93.5t187 -93.5t72 -240.5t-72 -240.5t-187 -93.5t-187 93.5t-72 240.5z" />
    <glyph glyph-name="one.pnum" horiz-adv-x="500" 
d="M264 0v475l-141 -92l-60 95l215 170h120v-648h-134z" />
    <glyph glyph-name="two.pnum" 
d="M44 0v86q194 176 255.5 245t61.5 120q0 38 -24 62.5t-70 24.5q-65 0 -140 -68l-70 87q51 57 111.5 79t110.5 22q95 0 160 -52.5t65 -143.5q0 -84 -74 -175t-177 -167h271v-120h-480z" />
    <glyph glyph-name="three.pnum" 
d="M44 70l66 93q59 -53 144 -53q64 0 101 29t37 74q0 38 -33.5 63.5t-92.5 25.5q-56 0 -94 -22l-52 89l190 159h-233v120h423v-116l-155 -128q81 -8 135.5 -59.5t54.5 -132.5q0 -107 -76 -164.5t-194 -57.5q-134 0 -221 80z" />
    <glyph glyph-name="four.pnum" horiz-adv-x="609" 
d="M356 0v125h-316v91l262 442l115 -64l-210 -349h149v140h134v-140h77v-120h-77v-125h-134z" />
    <glyph glyph-name="five.pnum" 
d="M59 58l47 100q62 -48 153 -48q62 0 96 29.5t34 72.5q0 53 -40 79t-105 26q-57 0 -114 -32l-49 45v318h416v-120h-282v-105q25 6 71 6q109 0 177.5 -55t68.5 -156q0 -103 -73.5 -165.5t-196.5 -62.5q-122 0 -203 68z" />
    <glyph glyph-name="six.pnum" 
d="M40 223q0 93 56 172l204 286l112 -81l-113 -152l16 1q98 0 160 -64t62 -155q0 -104 -65.5 -172t-183.5 -68q-119 0 -183.5 65.5t-64.5 167.5zM186 225q0 -51 25.5 -82t76.5 -31q49 0 76 31t27 82q0 46 -28.5 76t-74.5 30q-47 0 -74.5 -30t-27.5 -76z" />
    <glyph glyph-name="seven.pnum" horiz-adv-x="560" 
d="M122 0l257 528h-340v120h497v-84l-267 -564h-147z" />
    <glyph glyph-name="eight.pnum" 
d="M41 193q0 106 96 154q-58 47 -58 133q0 78 57.5 128t153.5 50t153.5 -50t57.5 -128q0 -85 -59 -133q97 -48 97 -154q0 -91 -67 -147t-182 -56t-182 56t-67 147zM184 200q0 -39 28 -64.5t78 -25.5t78 25.5t28 64.5q0 37 -27 64.5t-79 27.5t-79 -27.5t-27 -64.5zM205 469
q0 -32 21.5 -55t63.5 -23t63.5 23t21.5 55q0 33 -22.5 55.5t-62.5 22.5t-62.5 -22.5t-22.5 -55.5z" />
    <glyph glyph-name="nine.pnum" 
d="M537 425q0 -93 -56 -172l-204 -286l-112 81l113 152l-16 -1q-98 0 -160 64t-62 155q0 104 65.5 172t183.5 68q119 0 183.5 -65.5t64.5 -167.5zM391 423q0 51 -25.5 82t-76.5 31q-49 0 -76 -31t-27 -82q0 -46 28.5 -76t74.5 -30q47 0 74.5 30t27.5 76z" />
    <glyph glyph-name="zero.onumtab" horiz-adv-x="560" 
d="M45 250q0 113 66 186.5t169 73.5t168.5 -73.5t65.5 -186.5q0 -114 -65.5 -187t-168.5 -73t-169 73t-66 187zM180 250q0 -60 28 -100t72 -40t71.5 40t27.5 100q0 59 -28 99.5t-71 40.5q-44 0 -72 -40.5t-28 -99.5z" />
    <glyph glyph-name="one.onumtab" horiz-adv-x="560" 
d="M108 0v115h150v212l-126 -82l-60 95l200 160h120v-385h134v-115h-418z" />
    <glyph glyph-name="two.onumtab" horiz-adv-x="560" 
d="M66 0v89q181 114 234 160.5t53 79.5q0 27 -21.5 44t-60.5 17q-72 0 -153 -47l-53 100q93 67 206 67q104 0 161 -50t57 -131q0 -76 -48.5 -124t-131.5 -87h202v-118h-445z" />
    <glyph glyph-name="three.onumtab" horiz-adv-x="560" 
d="M49 -45l59 96q62 -48 156 -48q54 0 84.5 23.5t30.5 56.5q0 34 -31.5 58t-89.5 24q-48 0 -94 -20l-47 80l200 157h-252v118h423v-116l-145 -123q74 -7 123 -55t49 -122q0 -97 -70.5 -149t-180.5 -52q-136 0 -215 72z" />
    <glyph glyph-name="four.onumtab" horiz-adv-x="560" 
d="M334 -104v125h-316v91l241 408l115 -64l-190 -317h150v142h134v-142h77v-118h-77v-125h-134z" />
    <glyph glyph-name="five.onumtab" horiz-adv-x="560" 
d="M50 -55l47 97q58 -40 148 -40q61 0 94 25t33 60q0 32 -33.5 56t-92.5 24q-77 0 -130 -30l-46 42v321h398v-118h-264v-99q28 5 76 5q101 0 164.5 -50.5t63.5 -144.5q0 -95 -68 -153t-182 -58q-127 0 -208 63z" />
    <glyph glyph-name="six.onumtab" horiz-adv-x="560" 
d="M31 223q0 93 56 172l204 286l112 -81l-113 -152l16 1q98 0 160 -64t62 -155q0 -104 -65.5 -172t-183.5 -68q-119 0 -183.5 65.5t-64.5 167.5zM177 225q0 -51 25.5 -82t76.5 -31q49 0 76 31t27 82q0 46 -28.5 76t-74.5 30q-47 0 -74.5 -30t-27.5 -76z" />
    <glyph glyph-name="seven.onumtab" horiz-adv-x="560" 
d="M138 -118l242 500h-340v118h497v-84l-252 -534h-147z" />
    <glyph glyph-name="eight.onumtab" horiz-adv-x="560" 
d="M40 193q0 106 87 154q-58 47 -58 133q0 78 57.5 128t153.5 50t153.5 -50t57.5 -128q0 -85 -59 -133q88 -48 88 -154q0 -91 -65 -147t-175 -56t-175 56t-65 147zM176 200q0 -39 27.5 -64.5t76.5 -25.5t76.5 25.5t27.5 64.5q0 37 -26.5 64.5t-77.5 27.5t-77.5 -27.5
t-26.5 -64.5zM195 469q0 -32 21.5 -55t63.5 -23t63.5 23t21.5 55q0 33 -22.5 55.5t-62.5 22.5t-62.5 -22.5t-22.5 -55.5z" />
    <glyph glyph-name="nine.onumtab" horiz-adv-x="560" 
d="M528 278q0 -93 -56 -172l-204 -286l-112 81l113 152l-16 -1q-98 0 -160 64t-62 155q0 104 65.5 172t183.5 68q119 0 183.5 -65.5t64.5 -167.5zM382 276q0 51 -25.5 82t-76.5 31q-49 0 -76 -31t-27 -82q0 -46 28.5 -76t74.5 -30q47 0 74.5 30t27.5 76z" />
    <glyph glyph-name="aacute_alt" horiz-adv-x="568" 
d="M166 159q0 -26 21 -40.5t51 -14.5q50 0 93 28t43 79v17q-46 4 -78 4q-53 0 -91.5 -19t-38.5 -54zM35 144q0 91 76.5 136t184.5 45q42 0 68 -5q-12 75 -104 75q-33 0 -66.5 -8t-50.5 -16l-17 -8l-44 94q8 6 23 15t66.5 23.5t110.5 14.5q109 0 167.5 -62.5t58.5 -186.5
v-261h-134v65q-69 -75 -171 -75q-78 0 -123 44t-45 110zM190 568l94 158h134l-111 -158h-117z" />
    <glyph glyph-name="agrave_alt" horiz-adv-x="568" 
d="M166 159q0 -26 21 -40.5t51 -14.5q50 0 93 28t43 79v17q-46 4 -78 4q-53 0 -91.5 -19t-38.5 -54zM35 144q0 91 76.5 136t184.5 45q42 0 68 -5q-12 75 -104 75q-33 0 -66.5 -8t-50.5 -16l-17 -8l-44 94q8 6 23 15t66.5 23.5t110.5 14.5q109 0 167.5 -62.5t58.5 -186.5
v-261h-134v65q-69 -75 -171 -75q-78 0 -123 44t-45 110zM233 568l-111 158h134l94 -158h-117z" />
    <glyph glyph-name="acircumflex_alt" horiz-adv-x="568" 
d="M166 159q0 -26 21 -40.5t51 -14.5q50 0 93 28t43 79v17q-46 4 -78 4q-53 0 -91.5 -19t-38.5 -54zM35 144q0 91 76.5 136t184.5 45q42 0 68 -5q-12 75 -104 75q-33 0 -66.5 -8t-50.5 -16l-17 -8l-44 94q8 6 23 15t66.5 23.5t110.5 14.5q109 0 167.5 -62.5t58.5 -186.5
v-261h-134v65q-69 -75 -171 -75q-78 0 -123 44t-45 110zM108 568l112 158h133l112 -158h-99l-80 93l-79 -93h-99z" />
    <glyph glyph-name="adieresis_alt" horiz-adv-x="568" 
d="M166 159q0 -26 21 -40.5t51 -14.5q50 0 93 28t43 79v17q-46 4 -78 4q-53 0 -91.5 -19t-38.5 -54zM35 144q0 91 76.5 136t184.5 45q42 0 68 -5q-12 75 -104 75q-33 0 -66.5 -8t-50.5 -16l-17 -8l-44 94q8 6 23 15t66.5 23.5t110.5 14.5q109 0 167.5 -62.5t58.5 -186.5
v-261h-134v65q-69 -75 -171 -75q-78 0 -123 44t-45 110zM127 633q0 26 19 45t45 19t45 -19t19 -45t-19 -45t-45 -19t-45 19t-19 45zM319 633q0 26 19 45t45 19t45 -19t19 -45t-19 -45t-45 -19t-45 19t-19 45z" />
    <glyph glyph-name="atilde_alt" horiz-adv-x="568" 
d="M166 159q0 -26 21 -40.5t51 -14.5q50 0 93 28t43 79v17q-46 4 -78 4q-53 0 -91.5 -19t-38.5 -54zM35 144q0 91 76.5 136t184.5 45q42 0 68 -5q-12 75 -104 75q-33 0 -66.5 -8t-50.5 -16l-17 -8l-44 94q8 6 23 15t66.5 23.5t110.5 14.5q109 0 167.5 -62.5t58.5 -186.5
v-261h-134v65q-69 -75 -171 -75q-78 0 -123 44t-45 110zM106 562q0 60 25 96t65 36q37 0 83 -26.5t55 -26.5q33 0 33 53h71q0 -60 -25 -96t-65 -36q-37 0 -83 26.5t-55 26.5q-33 0 -33 -53h-71z" />
    <glyph glyph-name="aring_alt" horiz-adv-x="568" 
d="M173 641q0 45 32 77t77 32t77 -32t32 -77t-32 -77t-77 -32t-77 32t-32 77zM236 641q0 -20 13.5 -35t32.5 -15t33 15t14 35t-14 35t-33 15t-32.5 -15t-13.5 -35zM166 159q0 -26 21 -40.5t51 -14.5q50 0 93 28t43 79v17q-46 4 -78 4q-53 0 -91.5 -19t-38.5 -54zM35 144
q0 91 76.5 136t184.5 45q42 0 68 -5q-12 75 -104 75q-33 0 -66.5 -8t-50.5 -16l-17 -8l-44 94q8 6 23 15t66.5 23.5t110.5 14.5q109 0 167.5 -62.5t58.5 -186.5v-261h-134v65q-69 -75 -171 -75q-78 0 -123 44t-45 110z" />
    <glyph glyph-name="amacron_alt" horiz-adv-x="568" 
d="M166 159q0 -26 21 -40.5t51 -14.5q50 0 93 28t43 79v17q-46 4 -78 4q-53 0 -91.5 -19t-38.5 -54zM35 144q0 91 76.5 136t184.5 45q42 0 68 -5q-12 75 -104 75q-33 0 -66.5 -8t-50.5 -16l-17 -8l-44 94q8 6 23 15t66.5 23.5t110.5 14.5q109 0 167.5 -62.5t58.5 -186.5
v-261h-134v65q-69 -75 -171 -75q-78 0 -123 44t-45 110zM162 564v95h236v-95h-236z" />
    <glyph glyph-name="abreve_alt" horiz-adv-x="568" 
d="M166 159q0 -26 21 -40.5t51 -14.5q50 0 93 28t43 79v17q-46 4 -78 4q-53 0 -91.5 -19t-38.5 -54zM35 144q0 91 76.5 136t184.5 45q42 0 68 -5q-12 75 -104 75q-33 0 -66.5 -8t-50.5 -16l-17 -8l-44 94q8 6 23 15t66.5 23.5t110.5 14.5q109 0 167.5 -62.5t58.5 -186.5
v-261h-134v65q-69 -75 -171 -75q-78 0 -123 44t-45 110zM282 556q-57 0 -92.5 38.5t-35.5 93.5h71q0 -22 16.5 -37.5t40.5 -15.5q23 0 39.5 15.5t16.5 37.5h72q0 -55 -35.5 -93.5t-92.5 -38.5z" />
    <glyph glyph-name="aringacute_alt" horiz-adv-x="568" 
d="M35 144q0 91 76.5 136t184.5 45q42 0 68 -5q-12 75 -104 75q-33 0 -66.5 -8t-50.5 -16l-17 -8l-44 94q8 6 23 15t66.5 23.5t110.5 14.5q109 0 167.5 -62.5t58.5 -186.5v-261h-134v65q-69 -75 -171 -75q-78 0 -123 44t-45 110zM169 661q0 56 47 90l76 155h110l-83 -144
q30 -12 49 -40t19 -61q0 -45 -32 -77t-77 -32t-77 32t-32 77zM166 159q0 -26 21 -40.5t51 -14.5q50 0 93 28t43 79v17q-46 4 -78 4q-53 0 -91.5 -19t-38.5 -54zM232 661q0 -20 13.5 -35t32.5 -15t33 15t14 35t-14 35t-33 15t-32.5 -15t-13.5 -35z" />
    <glyph glyph-name="aogonek_alt" horiz-adv-x="568" 
d="M322 -128q0 72 52 133v60q-69 -75 -171 -75q-78 0 -123 44t-45 110q0 91 76.5 136t184.5 45q42 0 68 -5q-12 75 -104 75q-33 0 -66.5 -8t-50.5 -16l-17 -8l-44 94q8 6 23 15t66.5 23.5t110.5 14.5q109 0 167.5 -62.5t58.5 -186.5v-261h-68q-38 -36 -38 -84q0 -26 16 -42
t40 -16q13 0 33 8l19 -55q-45 -31 -94 -31q-38 0 -66 24.5t-28 67.5zM166 159q0 -26 21 -40.5t51 -14.5q50 0 93 28t43 79v17q-46 4 -78 4q-53 0 -91.5 -19t-38.5 -54z" />
    <glyph glyph-name="questiondown.cap" horiz-adv-x="475" 
d="M181 580q0 33 23.5 56t56.5 23t56 -23t23 -56t-23.5 -56.5t-55.5 -23.5q-33 0 -56.5 23.5t-23.5 56.5zM40 197q0 68 42 120t108 67l12 55h116l17 -137q-74 0 -116 -26.5t-42 -78.5q0 -32 24.5 -54.5t59.5 -22.5q62 0 89 54l109 -50q-24 -64 -77.5 -99t-125.5 -35
q-98 0 -157 59.5t-59 147.5z" />
    <glyph glyph-name="exclamdown.cap" horiz-adv-x="269" 
d="M67 0l10 439h114l10 -439h-134zM55 578q0 33 23.5 56.5t55.5 23.5q33 0 56.5 -23.5t23.5 -56.5q0 -32 -23.5 -55.5t-56.5 -23.5q-32 0 -55.5 23.5t-23.5 55.5z" />
    <glyph glyph-name="hyphen.cap" horiz-adv-x="481" 
d="M30 262v108h421v-108h-421z" />
    <glyph glyph-name="endash.cap" horiz-adv-x="620" 
d="M20 262v108h580v-108h-580z" />
    <glyph glyph-name="emdash.cap" horiz-adv-x="720" 
d="M20 262v108h680v-108h-680z" />
    <glyph glyph-name="periodcentered.cap" horiz-adv-x="199" 
d="M20 362q0 33 23.5 56.5t55.5 23.5q33 0 56.5 -23.5t23.5 -56.5t-23.5 -56t-56.5 -23t-56 23t-23 56z" />
    <glyph glyph-name="parenleft.cap" horiz-adv-x="360" 
d="M55 315q0 78 18.5 146t49.5 115.5t61 79t64 55.5l72 -81q-130 -141 -130 -315t130 -315l-72 -81q-34 24 -64 55.5t-61 79t-49.5 115.5t-18.5 146z" />
    <glyph glyph-name="parenright.cap" horiz-adv-x="360" 
d="M112 -81l-72 81q130 141 130 315t-130 315l72 81q34 -24 64 -55.5t61 -79t49.5 -115.5t18.5 -146t-18.5 -146t-49.5 -115.5t-61 -79t-64 -55.5z" />
    <glyph glyph-name="bracketleft.cap" horiz-adv-x="330" 
d="M55 -69v793h235v-90h-101v-613h101v-90h-235z" />
    <glyph glyph-name="bracketright.cap" horiz-adv-x="330" 
d="M40 -69v90h101v613h-101v90h235v-793h-235z" />
    <glyph glyph-name="braceleft.cap" horiz-adv-x="438" 
d="M55 278v95h24q58 0 58 71v63q0 223 177 223h84v-100q-31 0 -47 -1.5t-34.5 -7.5t-26.5 -18.5t-13.5 -35.5t-5.5 -58v-62q0 -37 -22.5 -76.5t-74.5 -45.5q54 -9 75.5 -44t21.5 -77v-62q0 -35 5.5 -58t13.5 -35.5t26.5 -18.5t34.5 -7.5t47 -1.5v-100h-84q-177 0 -177 223
v63q0 71 -58 71h-24z" />
    <glyph glyph-name="braceright.cap" horiz-adv-x="438" 
d="M40 -79v100q31 0 47 1.5t34.5 7.5t26.5 18.5t13.5 35.5t5.5 58v62q0 42 21.5 77t75.5 44q-52 6 -74.5 45.5t-22.5 76.5v62q0 35 -5.5 58t-13.5 35.5t-26.5 18.5t-34.5 7.5t-47 1.5v100h84q177 0 177 -223v-63q0 -71 58 -71h24v-95h-24q-58 0 -58 -71v-63
q0 -223 -177 -223h-84z" />
    <glyph glyph-name="zero.slash" 
d="M31 324q0 147 72 240.5t187 93.5t187 -93.5t72 -240.5t-72 -240.5t-187 -93.5t-187 93.5t-72 240.5zM396 422l-172 -282q25 -30 66 -30q56 0 86 58.5t30 155.5q0 54 -10 98zM174 324q0 -48 8 -88l169 277q-27 25 -61 25q-56 0 -86 -58.5t-30 -155.5z" />
    <glyph glyph-name="a.sups" horiz-adv-x="378" 
d="M116 434q0 -15 12 -23t30 -8q43 0 64 19t21 41v12q-15 2 -47 2q-33 0 -56.5 -11.5t-23.5 -31.5zM27 428q0 59 49.5 87.5t119.5 28.5q26 0 40 -2q-13 46 -63 46q-21 0 -43.5 -6t-34.5 -12l-12 -5l-31 68q48 37 135 37q73 0 112 -41.5t39 -124.5v-173h-95v40
q-41 -47 -107 -47q-50 0 -79.5 30t-29.5 74z" />
    <glyph glyph-name="b.sups" horiz-adv-x="395" 
d="M40 331v430h98v-130q34 36 84 36q68 0 110.5 -49.5t42.5 -122.5q0 -72 -42.5 -121.5t-110.5 -49.5q-50 0 -84 36v-29h-98zM138 495q0 -33 18.5 -54t49.5 -21t50 21t19 54q0 34 -19 55t-50 21t-49.5 -21t-18.5 -55z" />
    <glyph glyph-name="c.sups" horiz-adv-x="334" 
d="M20 495q0 72 51.5 122t124.5 50q67 0 122 -45l-60 -71q-28 19 -61 19q-32 0 -54.5 -20t-22.5 -55t23.5 -55t57.5 -20q39 0 70 25l53 -76q-58 -45 -128 -45q-73 0 -124.5 50t-51.5 121z" />
    <glyph glyph-name="d.sups" horiz-adv-x="395" 
d="M20 496q0 73 42 122t111 49q47 0 84 -35v129h98v-430h-98v30q-35 -37 -84 -37q-68 0 -110.5 49.5t-42.5 122.5zM119 496q0 -33 19.5 -55t49.5 -22t49.5 22t19.5 55q0 34 -19 54t-50 20q-30 0 -49.5 -20.5t-19.5 -53.5z" />
    <glyph glyph-name="e.sups" horiz-adv-x="372" 
d="M124 535h130q-16 45 -68 45q-45 0 -62 -45zM20 495q0 72 49.5 122t121.5 50q67 0 114 -49.5t47 -119.5l-4 -38h-224q17 -49 78 -49q46 0 89 26l45 -72q-62 -41 -135 -41q-76 0 -128.5 45t-52.5 126z" />
    <glyph glyph-name="f.sups" horiz-adv-x="248" 
d="M58 241v335h-48v82h49v14q0 59 34.5 85t71.5 26q30 0 55.5 -9.5t36.5 -19.5l11 -9l-46 -62q-27 16 -43 16q-21 0 -21 -31v-10h78v-82h-79v-335h-99z" />
    <glyph glyph-name="g.sups" horiz-adv-x="395" 
d="M38 277l40 64q42 -33 96 -33q31 0 58.5 20t27.5 56q-38 -36 -89 -36q-69 0 -112 46.5t-43 115.5q0 67 43 112t112 45q50 0 89 -39v33h95v-256q0 -79 -50.5 -125.5t-125.5 -46.5q-85 0 -141 44zM113 502q0 -33 19 -53t51 -20q31 0 50 20t19 53q0 35 -19 55.5t-50 20.5
q-32 0 -51 -20.5t-19 -55.5z" />
    <glyph glyph-name="h.sups" horiz-adv-x="389" 
d="M40 331v430h98v-129q35 35 91 35q120 0 120 -155v-181h-99v171q0 37 -10.5 53t-40.5 16q-29 0 -45 -20.5t-16 -55.5v-164h-98z" />
    <glyph glyph-name="i.sups" horiz-adv-x="178" 
d="M40 331v330h98v-330h-98zM32 746q0 23 17.5 40t40.5 17t40 -17t17 -40t-17 -40.5t-40 -17.5t-40.5 17.5t-17.5 40.5z" />
    <glyph glyph-name="j.sups" horiz-adv-x="178" 
d="M-16 279q56 30 56 103v279h98v-265q0 -135 -116 -188zM32 745q0 24 17 41t40 17q24 0 41 -17t17 -41q0 -23 -17 -40t-41 -17q-23 0 -40 17t-17 40z" />
    <glyph glyph-name="k.sups" horiz-adv-x="372" 
d="M40 331v430h98v-225l102 126h117l-131 -148l156 -183h-115l-98 116q-28 -33 -31 -37v-79h-98z" />
    <glyph glyph-name="l.sups" horiz-adv-x="178" 
d="M40 331v430h98v-430h-98z" />
    <glyph glyph-name="m.sups" horiz-adv-x="587" 
d="M40 331v330h98v-30q36 36 81 36q71 0 99 -51q18 23 45.5 37t54.5 14q129 0 129 -155v-181h-98v171q0 33 -9.5 51t-41.5 18q-27 0 -41 -18.5t-14 -44.5v-177h-99v171q0 21 -2.5 34t-14 24t-33.5 11q-28 0 -42 -20t-14 -48v-172h-98z" />
    <glyph glyph-name="o.sups" horiz-adv-x="391" 
d="M20 495q0 72 51.5 122t123.5 50q74 0 125 -50t51 -122q0 -71 -51.5 -121t-124.5 -50q-72 0 -123.5 50.5t-51.5 120.5zM119 495q0 -31 22.5 -53t53.5 -22t53.5 22t22.5 53t-22.5 53.5t-53.5 22.5t-53.5 -22.5t-22.5 -53.5z" />
    <glyph glyph-name="p.sups" horiz-adv-x="395" 
d="M40 244v417h98v-30q34 36 84 36q68 0 110.5 -49.5t42.5 -122.5q0 -72 -42.5 -121.5t-110.5 -49.5q-50 0 -84 36v-116h-98zM138 495q0 -33 18.5 -54t49.5 -21t50 21t19 54q0 34 -19 55t-50 21t-49.5 -21t-18.5 -55z" />
    <glyph glyph-name="q.sups" horiz-adv-x="395" 
d="M20 495q0 74 42.5 123t110.5 49q49 0 84 -36v30h98v-417h-98v116q-35 -36 -84 -36q-68 0 -110.5 49.5t-42.5 121.5zM119 495q0 -33 19.5 -54t49.5 -21q31 0 50 21t19 54q0 34 -19 55t-50 21q-30 0 -49.5 -21t-19.5 -55z" />
    <glyph glyph-name="r.sups" horiz-adv-x="258" 
d="M40 331v330h98v-38q34 44 110 44v-105q-110 0 -110 -103v-128h-98z" />
    <glyph glyph-name="s.sups" horiz-adv-x="322" 
d="M20 373l36 77q53 -39 101 -39q45 0 45 21q0 14 -50 26q-57 14 -86 36t-29 69q0 48 40 76t90 28q58 0 124 -34l-35 -75q-47 22 -89 22q-29 0 -29 -16q0 -12 36 -20q59 -14 93.5 -38t34.5 -71q0 -56 -47 -83.5t-98 -27.5q-46 0 -83 17t-54 32z" />
    <glyph glyph-name="t.sups" horiz-adv-x="277" 
d="M72 445v134h-49v82h48v56l98 23v-79h88v-82h-87v-141q0 -26 20 -26q8 0 19.5 4t18.5 8l7 5l30 -77q-44 -28 -87 -28q-52 0 -79 31.5t-27 89.5z" />
    <glyph glyph-name="u.sups" horiz-adv-x="389" 
d="M163 324q-47 0 -76 26t-38 58t-9 72v181h99v-171q0 -37 10.5 -53.5t40.5 -16.5q61 0 61 75v166h98v-330h-98v29q-37 -36 -88 -36z" />
    <glyph glyph-name="v.sups" horiz-adv-x="354" 
d="M130 331l-131 330h97l52 -135l29 -89q23 73 29 89l51 135h97l-131 -330h-93z" />
    <glyph glyph-name="w.sups" horiz-adv-x="478" 
d="M106 331l-107 331h94l49 -157l8 -37l6 36l38 158h92l38 -158q3 -11 4.5 -19.5t2 -12t0.5 -4.5q3 20 8 37l48 157h94l-107 -331h-85l-41 158l-8 71q-1 -43 -8 -71l-41 -158h-85z" />
    <glyph glyph-name="x.sups" horiz-adv-x="340" 
d="M1 331l111 169l-111 161h106l43 -65l20 -34q1 2 4.5 8.5t7 13.5t7.5 12l44 65h105l-110 -161l110 -169h-105l-41 64q-19 29 -22 37q0 -1 -23 -37l-40 -64h-106z" />
    <glyph glyph-name="y.sups" horiz-adv-x="365" 
d="M63 233v89q28 0 42.5 9.5t24.5 29.5l5 10l-136 290h99l67 -149l16 -46q7 25 17 48l62 147h98l-152 -345q-36 -83 -143 -83z" />
    <glyph glyph-name="z.sups" horiz-adv-x="294" 
d="M10 331v71l102 129l37 41h-133v89h263v-69l-102 -126l-40 -46h147v-89h-274z" />
    <glyph glyph-name="commaaccentcomb" horiz-adv-x="400" 
d="M125 -235q59 66 59 119q0 26 -19 50l85 30q24 -26 24 -64q0 -75 -77 -135h-72z" />
    <glyph glyph-name="zero.dnom" horiz-adv-x="440" 
d="M139 227q0 -65 21.5 -103.5t58.5 -38.5t58.5 38.5t21.5 103.5q0 63 -22 102.5t-58 39.5t-58 -39.5t-22 -102.5zM26 227q0 104 54 170.5t139 66.5t139 -66.5t54 -170.5t-54 -170.5t-139 -66.5t-139 66.5t-54 170.5z" />
    <glyph glyph-name="one.dnom" horiz-adv-x="370" 
d="M171 0v328l-90 -61l-44 71l159 125h81v-463h-106z" />
    <glyph glyph-name="two.dnom" horiz-adv-x="410" 
d="M39 0v69q117 110 159.5 162.5t42.5 89.5q0 52 -60 52q-46 0 -87 -51l-54 72q32 37 67 56t85 19q73 0 117.5 -38.5t44.5 -100.5q0 -107 -161 -236h175v-94h-329z" />
    <glyph glyph-name="three.dnom" horiz-adv-x="440" 
d="M45 51l50 75q47 -41 106 -41q45 0 67 20.5t22 49.5q0 28 -21.5 46.5t-66.5 18.5q-34 0 -68 -23l-37 62l130 105h-164v95h312v-82l-107 -88q50 -2 92.5 -40t42.5 -99q0 -69 -52 -114.5t-143 -45.5q-97 0 -163 61z" />
    <glyph glyph-name="four.dnom" horiz-adv-x="440" 
d="M246 0v94h-218v69l178 307l92 -42l-145 -238h93v82h106v-82h52v-96h-52v-94h-106z" />
    <glyph glyph-name="five.dnom" horiz-adv-x="440" 
d="M50 43l39 81q40 -34 107 -34q43 0 65 18t22 45q0 31 -24 47t-62 16q-43 0 -82 -26l-46 34v235h296v-96h-196v-60q23 4 49 4q76 0 124 -41t48 -113q0 -75 -51 -119.5t-137 -44.5q-89 0 -152 54z" />
    <glyph glyph-name="six.dnom" horiz-adv-x="440" 
d="M46 158q0 49 41 108l152 218l80 -64l-85 -110h4q69 0 112.5 -44.5t43.5 -107.5q0 -73 -46.5 -120.5t-127.5 -47.5t-127.5 48t-46.5 120zM153 154q0 -29 19 -48t47 -19t47.5 19t19.5 48q0 32 -19 51t-48 19q-28 0 -47 -19t-19 -51z" />
    <glyph glyph-name="seven.dnom" horiz-adv-x="390" 
d="M63 0l176 368h-219v95h350v-66l-191 -397h-116z" />
    <glyph glyph-name="eight.dnom" horiz-adv-x="440" 
d="M43 138q0 79 65 114q-41 33 -41 87q0 56 41.5 91.5t111.5 35.5t111.5 -35.5t41.5 -91.5q0 -53 -42 -87q66 -36 66 -114q0 -66 -48 -107t-129 -41t-129 41t-48 107zM157 146q0 -24 16.5 -39.5t46.5 -15.5t46.5 15.5t16.5 39.5q0 22 -16 37.5t-47 15.5t-47 -15.5t-16 -37.5
zM164 329q0 -20 14 -34t42 -14t42 14t14 34t-14.5 33.5t-41.5 13.5t-41.5 -13.5t-14.5 -33.5z" />
    <glyph glyph-name="nine.dnom" horiz-adv-x="440" 
d="M131 51l75 94h-4q-69 0 -112.5 44.5t-43.5 107.5q0 73 46.5 120.5t127.5 47.5t127.5 -48t46.5 -120q0 -49 -41 -108l-141 -203zM153 301q0 -31 19.5 -50.5t47.5 -19.5t47 19t19 51q0 29 -19 48t-47 19t-47.5 -19t-19.5 -48z" />
    <glyph glyph-name="at.cap" horiz-adv-x="939" 
d="M70 297q0 163 117 278t282 115q158 0 270.5 -98t112.5 -249q0 -110 -45.5 -176t-117.5 -66q-75 0 -102 65q-48 -74 -150 -74q-72 0 -128 60.5t-56 143.5q0 82 56 142t128 60q41 0 69 -11t57 -39v41h93v-237q0 -27 9 -47t29 -20q30 0 50.5 43.5t20.5 114.5
q0 118 -80.5 192t-215.5 74q-125 0 -215 -91.5t-90 -220.5q0 -140 88 -223t214 -83q83 0 161 37l38 -73q-87 -44 -200 -44q-106 0 -195 45t-144.5 134.5t-55.5 206.5zM348 296q0 -49 32.5 -84.5t78.5 -35.5t75 32.5t29 87.5q0 57 -28.5 87.5t-75.5 30.5t-79 -35t-32 -83z
" />
    <glyph glyph-name="zero.numerator" horiz-adv-x="440" 
d="M139 421q0 -65 21.5 -103.5t58.5 -38.5t58.5 38.5t21.5 103.5q0 63 -22 102.5t-58 39.5t-58 -39.5t-22 -102.5zM26 421q0 104 54 170.5t139 66.5t139 -66.5t54 -170.5t-54 -170.5t-139 -66.5t-139 66.5t-54 170.5z" />
    <glyph glyph-name="one.numerator" horiz-adv-x="370" 
d="M171 189v328l-90 -61l-44 71l159 125h81v-463h-106z" />
    <glyph glyph-name="two.numerator" horiz-adv-x="410" 
d="M39 189v69q117 110 159.5 162.5t42.5 89.5q0 52 -60 52q-46 0 -87 -51l-54 72q32 37 67 56t85 19q73 0 117.5 -38.5t44.5 -100.5q0 -107 -161 -236h175v-94h-329z" />
    <glyph glyph-name="three.numerator" horiz-adv-x="440" 
d="M45 244l50 75q47 -41 106 -41q45 0 67 20.5t22 49.5q0 28 -21.5 46.5t-66.5 18.5q-34 0 -68 -23l-37 62l130 105h-164v95h312v-82l-107 -88q50 -2 92.5 -40t42.5 -99q0 -69 -52 -114.5t-143 -45.5q-97 0 -163 61z" />
    <glyph glyph-name="four.numerator" horiz-adv-x="440" 
d="M246 190v94h-218v69l178 307l92 -42l-145 -238h93v82h106v-82h52v-96h-52v-94h-106z" />
    <glyph glyph-name="five.numerator" horiz-adv-x="440" 
d="M50 232l39 81q40 -34 107 -34q43 0 65 18t22 45q0 31 -24 47t-62 16q-43 0 -82 -26l-46 34v235h296v-96h-196v-60q23 4 49 4q76 0 124 -41t48 -113q0 -75 -51 -119.5t-137 -44.5q-89 0 -152 54z" />
    <glyph glyph-name="six.numerator" horiz-adv-x="440" 
d="M46 351q0 49 41 108l152 218l80 -64l-85 -110h4q69 0 112.5 -44.5t43.5 -107.5q0 -73 -46.5 -120.5t-127.5 -47.5t-127.5 48t-46.5 120zM153 347q0 -29 19 -48t47 -19t47.5 19t19.5 48q0 31 -19 50.5t-48 19.5q-28 0 -47 -19t-19 -51z" />
    <glyph glyph-name="seven.numerator" horiz-adv-x="390" 
d="M63 189l176 368h-219v95h350v-66l-191 -397h-116z" />
    <glyph glyph-name="eight.numerator" horiz-adv-x="440" 
d="M43 331q0 79 65 114q-41 33 -41 87q0 56 41.5 91.5t111.5 35.5t111.5 -35.5t41.5 -91.5q0 -53 -42 -87q66 -36 66 -114q0 -66 -48 -107t-129 -41t-129 41t-48 107zM157 339q0 -24 16.5 -39.5t46.5 -15.5t46.5 15.5t16.5 39.5q0 22 -16 37.5t-47 15.5t-47 -15.5t-16 -37.5
zM164 522q0 -20 14 -34t42 -14t42 14t14 34t-14.5 33.5t-41.5 13.5t-41.5 -13.5t-14.5 -33.5z" />
    <glyph glyph-name="nine.numerator" horiz-adv-x="440" 
d="M131 244l75 94h-4q-69 0 -112.5 44.5t-43.5 107.5q0 73 46.5 120.5t127.5 47.5t127.5 -48t46.5 -120q0 -49 -41 -108l-141 -203zM153 494q0 -32 19.5 -51t47.5 -19t47 19t19 51q0 29 -19 48t-47 19t-47.5 -19t-19.5 -48z" />
    <glyph glyph-name="comma.dnom" horiz-adv-x="187" 
d="M10 -83l45 218h101l-81 -218h-65z" />
    <glyph glyph-name="period.dnom" horiz-adv-x="187" 
d="M26 57q0 28 20 48t47 20q28 0 48 -20t20 -48t-20 -47.5t-48 -19.5t-47.5 19.5t-19.5 47.5z" />
    <glyph glyph-name="period.numerator" horiz-adv-x="187" 
d="M26 251q0 28 20 48t47 20q28 0 48 -20t20 -48t-20 -47.5t-48 -19.5t-47.5 19.5t-19.5 47.5z" />
    <glyph glyph-name="comma.numerator" horiz-adv-x="187" 
d="M10 111l45 218h101l-81 -218h-65z" />
    <glyph glyph-name="A.small" horiz-adv-x="624" 
d="M3 0l239 564h141l238 -564h-141l-32 74h-272l-31 -74h-142zM223 183h179l-42 102q-4 10 -8.5 21.5t-8 21.5t-7 20.5l-6.5 19.5t-6 17.5t-5 14.5l-3.5 10.5t-2.5 6.5l-1 2q-23 -71 -48 -133z" />
    <glyph glyph-name="B.small" horiz-adv-x="594" 
d="M59 0v564h264q80 0 131 -35.5t51 -115.5q0 -62 -53 -99q46 -13 74.5 -49.5t28.5 -85.5q0 -92 -58 -135.5t-156 -43.5h-282zM198 119h130q39 0 59.5 12t20.5 46q0 61 -78 61h-132v-119zM198 356h110q52 0 52 44q0 45 -51 45h-111v-89z" />
    <glyph glyph-name="C.small" horiz-adv-x="556" 
d="M33 282q0 123 84.5 206.5t215.5 83.5q107 0 183 -56l-79 -94q-39 25 -94 25q-74 0 -119.5 -48t-45.5 -117t44 -117.5t112 -48.5t114 37l83 -95q-83 -68 -198 -68q-131 0 -215.5 84.5t-84.5 207.5z" />
    <glyph glyph-name="D.small" horiz-adv-x="625" 
d="M198 119h87q73 0 117.5 46t44.5 117t-44.5 117t-117.5 46h-87v-326zM59 0v564h229q137 0 220.5 -81.5t83.5 -200.5t-83.5 -200.5t-220.5 -81.5h-229z" />
    <glyph glyph-name="E.small" horiz-adv-x="552" 
d="M59 0v564h458v-119h-319v-94h300v-118h-300v-114h330v-119h-469z" />
    <glyph glyph-name="F.small" horiz-adv-x="498" 
d="M59 0v564h432v-119h-293v-94h234v-118h-234v-233h-139z" />
    <glyph glyph-name="G.small" horiz-adv-x="625" 
d="M33 281q0 123 84.5 207t215.5 84q105 0 189 -60l-81 -95q-42 30 -107 30q-68 0 -112 -49t-44 -117q0 -69 44 -117t112 -48q64 0 108 44v72h-79v115h212v-241q-37 -55 -101 -85.5t-141 -30.5q-131 0 -215.5 84t-84.5 207z" />
    <glyph glyph-name="H.small" horiz-adv-x="609" 
d="M59 0v564h139v-211h213v211h139v-564h-139v234h-213v-234h-139z" />
    <glyph glyph-name="I.small" horiz-adv-x="257" 
d="M59 0v564h139v-564h-139z" />
    <glyph glyph-name="J.small" horiz-adv-x="512" 
d="M16 115l99 77q16 -34 38.5 -52t37 -21t35.5 -3q49 0 73.5 30.5t24.5 82.5v335h138v-321q0 -131 -66 -192t-171 -61q-148 0 -209 125z" />
    <glyph glyph-name="K.small" horiz-adv-x="596" 
d="M59 0v564h138v-301l70 105l131 196h161l-187 -266l215 -298h-163l-137 199l-90 -120v-79h-138z" />
    <glyph glyph-name="L.small" horiz-adv-x="538" 
d="M59 0v564h139v-445h316v-119h-455z" />
    <glyph glyph-name="M.small" horiz-adv-x="712" 
d="M59 0v564h116l182 -247l181 247h115v-564h-139v325q-25 -48 -38 -65l-119 -158l-122 160l-37 62v-324h-139z" />
    <glyph glyph-name="N.small" horiz-adv-x="623" 
d="M59 0v564h147l116 -180l103 -166v346h139v-564h-149l-104 163l-113 180v-343h-139z" />
    <glyph glyph-name="O.small" horiz-adv-x="666" 
d="M33 282q0 123 84.5 206.5t215.5 83.5t215.5 -83.5t84.5 -206.5t-84.5 -207.5t-215.5 -84.5t-215.5 84.5t-84.5 207.5zM178 282q0 -69 44 -117.5t112 -48.5q66 0 110 48.5t44 117.5q0 68 -44 116.5t-110 48.5q-68 0 -112 -48.5t-44 -116.5z" />
    <glyph glyph-name="P.small" horiz-adv-x="601" 
d="M59 0v564h244q123 0 189.5 -62t66.5 -158q0 -95 -66.5 -157t-189.5 -62h-105v-125h-139zM310 445h-112v-202h111q49 0 77 28.5t28 72.5q0 43 -28 72t-76 29z" />
    <glyph glyph-name="Q.small" horiz-adv-x="666" 
d="M33 282q0 123 84.5 206.5t215.5 83.5t215.5 -83.5t84.5 -206.5q0 -96 -53 -171l34 -34l-87 -87l-39 39q-69 -39 -155 -39q-131 0 -215.5 84.5t-84.5 207.5zM178 282q0 -69 44 -117.5t112 -48.5q29 0 57 11l-68 69l87 87l66 -67q12 30 12 66q0 68 -44 116.5t-110 48.5
q-68 0 -112 -48.5t-44 -116.5z" />
    <glyph glyph-name="R.small" horiz-adv-x="601" 
d="M59 0v564h243q126 0 191.5 -62t65.5 -158q0 -116 -99 -178l112 -166h-169l-77 126q-32 -1 -75 -1h-53v-125h-139zM198 243h110q47 0 76.5 29t29.5 72t-29.5 72t-75.5 29h-111v-202z" />
    <glyph glyph-name="S.small" horiz-adv-x="534" 
d="M28 59l57 110q75 -56 175 -56q44 0 71.5 16t27.5 40q0 23 -31.5 38t-76.5 26.5t-90 28t-76.5 53.5t-31.5 91q0 80 63 123t151 43q121 0 216 -62l-52 -106q-78 45 -164 45q-30 0 -51 -11.5t-21 -27.5q0 -21 31.5 -35.5t76.5 -27.5t90 -31t76.5 -55.5t31.5 -91.5
q0 -61 -36.5 -103t-87.5 -59t-111 -17q-152 0 -238 69z" />
    <glyph glyph-name="T.small" horiz-adv-x="547" 
d="M530 564v-119h-188v-445h-139v445h-186v119h513z" />
    <glyph glyph-name="U.small" horiz-adv-x="590" 
d="M295 -10q-104 0 -174.5 64.5t-70.5 167.5v342h137v-335q0 -49 31.5 -81t76.5 -32t76 32t31 81v335h138v-342q0 -103 -71 -167.5t-174 -64.5z" />
    <glyph glyph-name="V.small" horiz-adv-x="583" 
d="M217 0l-208 564h139l93 -257l50 -153q33 106 50 153l93 257h140l-209 -564h-148z" />
    <glyph glyph-name="W.small" horiz-adv-x="825" 
d="M177 0l-168 564h138l76 -274l34 -116q16 56 27 116l52 274h152l53 -274l27 -116l34 117l77 273h137l-168 -564h-156l-54 248l-26 141q-12 -82 -25 -141l-55 -248h-155z" />
    <glyph glyph-name="X.small" horiz-adv-x="553" 
d="M9 0l189 282l-183 282h157l39 -63l65 -111q60 96 68 110l36 64h158l-184 -282l190 -282h-162l-41 73l-65 101q-59 -92 -65 -103l-42 -71h-160z" />
    <glyph glyph-name="Y.small" horiz-adv-x="569" 
d="M216 0v251l-207 313h156l48 -77l72 -115q58 88 74 115l45 77h156l-205 -311v-253h-139z" />
    <glyph glyph-name="Z.small" horiz-adv-x="523" 
d="M24 0v102l224 269q18 22 35.5 40.5t26.5 26.5l8 7h-280v119h454v-103l-210 -250l-83 -92h300v-119h-475z" />
    <glyph glyph-name="Agrave.small" horiz-adv-x="624" 
d="M259 609l-111 158h134l94 -158h-117zM3 0l239 564h141l238 -564h-141l-32 74h-272l-31 -74h-142zM223 183h179l-42 102q-4 10 -8.5 21.5t-8 21.5t-7 20.5l-6.5 19.5t-6 17.5t-5 14.5l-3.5 10.5t-2.5 6.5l-1 2q-23 -71 -48 -133z" />
    <glyph glyph-name="Aacute.small" horiz-adv-x="624" 
d="M248 609l94 158h134l-111 -158h-117zM3 0l239 564h141l238 -564h-141l-32 74h-272l-31 -74h-142zM223 183h179l-42 102q-4 10 -8.5 21.5t-8 21.5t-7 20.5l-6.5 19.5t-6 17.5t-5 14.5l-3.5 10.5t-2.5 6.5l-1 2q-23 -71 -48 -133z" />
    <glyph glyph-name="Acircumflex.small" horiz-adv-x="624" 
d="M3 0l239 564h141l238 -564h-141l-32 74h-272l-31 -74h-142zM223 183h179l-42 102q-4 10 -8.5 21.5t-8 21.5t-7 20.5l-6.5 19.5t-6 17.5t-5 14.5l-3.5 10.5t-2.5 6.5l-1 2q-23 -71 -48 -133zM133 609l112 158h133l112 -158h-99l-80 93l-79 -93h-99z" />
    <glyph glyph-name="Atilde.small" horiz-adv-x="624" 
d="M145 605q0 60 25 96t65 36q37 0 83 -26.5t55 -26.5q33 0 33 53h71q0 -60 -25 -96t-65 -36q-37 0 -83 26.5t-55 26.5q-33 0 -33 -53h-71zM3 0l239 564h141l238 -564h-141l-32 74h-272l-31 -74h-142zM223 183h179l-42 102q-4 10 -8.5 21.5t-8 21.5t-7 20.5l-6.5 19.5
t-6 17.5t-5 14.5l-3.5 10.5t-2.5 6.5l-1 2q-23 -71 -48 -133z" />
    <glyph glyph-name="Adieresis.small" horiz-adv-x="624" 
d="M3 0l239 564h141l238 -564h-141l-32 74h-272l-31 -74h-142zM223 183h179l-42 102q-4 10 -8.5 21.5t-8 21.5t-7 20.5l-6.5 19.5t-6 17.5t-5 14.5l-3.5 10.5t-2.5 6.5l-1 2q-23 -71 -48 -133zM151 669q0 26 19 45t45 19t45 -19t19 -45t-19 -45t-45 -19t-45 19t-19 45z
M343 669q0 26 19 45t45 19t45 -19t19 -45t-19 -45t-45 -19t-45 19t-19 45z" />
    <glyph glyph-name="Amacron.small" horiz-adv-x="624" 
d="M194 620v95h236v-95h-236zM3 0l239 564h141l238 -564h-141l-32 74h-272l-31 -74h-142zM223 183h179l-42 102q-4 10 -8.5 21.5t-8 21.5t-7 20.5l-6.5 19.5t-6 17.5t-5 14.5l-3.5 10.5t-2.5 6.5l-1 2q-23 -71 -48 -133z" />
    <glyph glyph-name="Abreve.small" horiz-adv-x="624" 
d="M311 605q-57 0 -92.5 38.5t-35.5 93.5h71q0 -22 16.5 -37.5t40.5 -15.5q23 0 39.5 15.5t16.5 37.5h72q0 -55 -35.5 -93.5t-92.5 -38.5zM3 0l239 564h141l238 -564h-141l-32 74h-272l-31 -74h-142zM223 183h179l-42 102q-4 10 -8.5 21.5t-8 21.5t-7 20.5l-6.5 19.5
t-6 17.5t-5 14.5l-3.5 10.5t-2.5 6.5l-1 2q-23 -71 -48 -133z" />
    <glyph glyph-name="Aring.small" horiz-adv-x="624" 
d="M204 699q0 45 32 77t77 32t77 -32t32 -77t-32 -77t-77 -32t-77 32t-32 77zM267 699q0 -20 13.5 -35t32.5 -15t33 15t14 35t-14 35t-33 15t-32.5 -15t-13.5 -35zM3 0l239 564h141l238 -564h-141l-32 74h-272l-31 -74h-142zM223 183h179l-42 102q-4 10 -8.5 21.5t-8 21.5
t-7 20.5l-6.5 19.5t-6 17.5t-5 14.5l-3.5 10.5t-2.5 6.5l-1 2q-23 -71 -48 -133z" />
    <glyph glyph-name="Aringacute.small" horiz-adv-x="624" 
d="M3 0l239 564h141l238 -564h-141l-32 74h-272l-31 -74h-142zM204 699q0 56 46 89l76 156h110l-83 -144q31 -12 50 -39.5t19 -61.5q0 -45 -32 -77t-77 -32t-77 32t-32 77zM223 183h179l-42 102q-4 10 -8.5 21.5t-8 21.5t-7 20.5l-6.5 19.5t-6 17.5t-5 14.5l-3.5 10.5
t-2.5 6.5l-1 2q-23 -71 -48 -133zM267 699q0 -20 13.5 -35t32.5 -15t33 15t14 35t-14 35t-33 15t-32.5 -15t-13.5 -35z" />
    <glyph glyph-name="Aogonek.small" horiz-adv-x="625" 
d="M3 0l239 564h141l238 -564h-71q-38 -36 -38 -84q0 -26 16 -42t40 -16q13 0 33 8l19 -55q-45 -31 -94 -31q-38 0 -66 24.5t-28 67.5q0 68 48 128l-32 74h-272l-31 -74h-142zM223 183h179l-42 102q-4 10 -8.5 21.5t-8 21.5t-7 20.5l-6.5 19.5t-6 17.5t-5 14.5l-3.5 10.5
t-2.5 6.5l-1 2q-23 -71 -48 -133z" />
    <glyph glyph-name="AE.small" horiz-adv-x="877" 
d="M3 0l341 564h497v-119h-297v-94h278v-118h-278v-114h309v-119h-449v74h-202l-45 -74h-154zM267 183h137v265q-17 -38 -47 -94z" />
    <glyph glyph-name="AEacute.small" horiz-adv-x="887" 
d="M503 609l94 158h134l-111 -158h-117zM3 0l341 564h497v-119h-297v-94h278v-118h-278v-114h309v-119h-449v74h-202l-45 -74h-154zM267 183h137v265q-17 -38 -47 -94z" />
    <glyph glyph-name="Cacute.small" horiz-adv-x="556" 
d="M254 609l94 158h134l-111 -158h-117zM33 282q0 123 84.5 206.5t215.5 83.5q107 0 183 -56l-79 -94q-39 25 -94 25q-74 0 -119.5 -48t-45.5 -117t44 -117.5t112 -48.5t114 37l83 -95q-83 -68 -198 -68q-131 0 -215.5 84.5t-84.5 207.5z" />
    <glyph glyph-name="Ccircumflex.small" horiz-adv-x="556" 
d="M33 282q0 123 84.5 206.5t215.5 83.5q107 0 183 -56l-79 -94q-39 25 -94 25q-74 0 -119.5 -48t-45.5 -117t44 -117.5t112 -48.5t114 37l83 -95q-83 -68 -198 -68q-131 0 -215.5 84.5t-84.5 207.5zM156 609l112 158h133l112 -158h-99l-80 93l-79 -93h-99z" />
    <glyph glyph-name="Ccaron.small" horiz-adv-x="556" 
d="M268 609l-112 158h99l79 -93l80 93h99l-112 -158h-133zM33 282q0 123 84.5 206.5t215.5 83.5q107 0 183 -56l-79 -94q-39 25 -94 25q-74 0 -119.5 -48t-45.5 -117t44 -117.5t112 -48.5t114 37l83 -95q-83 -68 -198 -68q-131 0 -215.5 84.5t-84.5 207.5z" />
    <glyph glyph-name="Cdotaccent.small" horiz-adv-x="556" 
d="M33 282q0 123 84.5 206.5t215.5 83.5q107 0 183 -56l-79 -94q-39 25 -94 25q-74 0 -119.5 -48t-45.5 -117t44 -117.5t112 -48.5t114 37l83 -95q-83 -68 -198 -68q-131 0 -215.5 84.5t-84.5 207.5zM258 684q0 33 23.5 56.5t55.5 23.5q33 0 56.5 -23.5t23.5 -56.5
q0 -32 -23.5 -55.5t-56.5 -23.5q-32 0 -55.5 23.5t-23.5 55.5z" />
    <glyph glyph-name="Ccedilla.small" horiz-adv-x="556" 
d="M193 -189l31 52q44 -23 80 -23q24 0 39.5 13.5t15.5 29.5q0 12 -9 18.5t-22 6.5q-27 0 -38 -27l-66 21l55 93q-110 17 -178 97t-68 190q0 123 84.5 206.5t215.5 83.5q107 0 183 -56l-79 -94q-39 25 -94 25q-74 0 -119.5 -48t-45.5 -117t44 -117.5t112 -48.5t114 37
l83 -95q-76 -61 -177 -67l-20 -35q18 3 20 3q40 0 63 -22t23 -53q0 -41 -35.5 -72t-98.5 -31q-71 0 -113 30z" />
    <glyph glyph-name="Dcaron.small" horiz-adv-x="625" 
d="M205 609l-112 158h99l79 -93l80 93h99l-112 -158h-133zM198 119h87q73 0 117.5 46t44.5 117t-44.5 117t-117.5 46h-87v-326zM59 0v564h229q137 0 220.5 -81.5t83.5 -200.5t-83.5 -200.5t-220.5 -81.5h-229z" />
    <glyph glyph-name="Dcroat.small" horiz-adv-x="625" 
d="M59 0v242h-66v97h66v225h228q139 0 222 -81t83 -201t-83 -201t-222 -81h-228zM198 119h84q76 0 120.5 45.5t44.5 117.5t-44.5 117.5t-120.5 45.5h-84v-106h90v-97h-90v-123z" />
    <glyph glyph-name="Egrave.small" horiz-adv-x="552" 
d="M265 609l-111 158h134l94 -158h-117zM59 0v564h458v-119h-319v-94h300v-118h-300v-114h330v-119h-469z" />
    <glyph glyph-name="Eacute.small" horiz-adv-x="552" 
d="M205 609l94 158h134l-111 -158h-117zM59 0v564h458v-119h-319v-94h300v-118h-300v-114h330v-119h-469z" />
    <glyph glyph-name="Ecircumflex.small" horiz-adv-x="552" 
d="M59 0v564h458v-119h-319v-94h300v-118h-300v-114h330v-119h-469zM113 609l112 158h133l112 -158h-99l-80 93l-79 -93h-99z" />
    <glyph glyph-name="Ecaron.small" horiz-adv-x="552" 
d="M239 609l-112 158h99l79 -93l80 93h99l-112 -158h-133zM59 0v564h458v-119h-319v-94h300v-118h-300v-114h330v-119h-469z" />
    <glyph glyph-name="Edieresis.small" horiz-adv-x="552" 
d="M59 0v564h458v-119h-319v-94h300v-118h-300v-114h330v-119h-469zM131 669q0 26 19 45t45 19t45 -19t19 -45t-19 -45t-45 -19t-45 19t-19 45zM323 669q0 26 19 45t45 19t45 -19t19 -45t-19 -45t-45 -19t-45 19t-19 45z" />
    <glyph glyph-name="Emacron.small" horiz-adv-x="552" 
d="M177 620v95h236v-95h-236zM59 0v564h458v-119h-319v-94h300v-118h-300v-114h330v-119h-469z" />
    <glyph glyph-name="Ebreve.small" horiz-adv-x="552" 
d="M306 605q-57 0 -92.5 38.5t-35.5 93.5h71q0 -22 16.5 -37.5t40.5 -15.5q23 0 39.5 15.5t16.5 37.5h72q0 -55 -35.5 -93.5t-92.5 -38.5zM59 0v564h458v-119h-319v-94h300v-118h-300v-114h330v-119h-469z" />
    <glyph glyph-name="Edotaccent.small" horiz-adv-x="552" 
d="M59 0v564h458v-119h-319v-94h300v-118h-300v-114h330v-119h-469zM214 684q0 33 23.5 56.5t55.5 23.5q33 0 56.5 -23.5t23.5 -56.5q0 -32 -23.5 -55.5t-56.5 -23.5q-32 0 -55.5 23.5t-23.5 55.5z" />
    <glyph glyph-name="Eogonek.small" horiz-adv-x="552" 
d="M59 0v564h458v-119h-319v-94h300v-118h-300v-114h330v-119h-80q-38 -36 -38 -84q0 -26 16 -42t40 -16q13 0 33 8l19 -55q-45 -31 -94 -31q-38 0 -66 24.5t-28 67.5q0 68 48 128h-319z" />
    <glyph glyph-name="Gcircumflex.small" horiz-adv-x="625" 
d="M33 281q0 123 84.5 207t215.5 84q105 0 189 -60l-81 -95q-42 30 -107 30q-68 0 -112 -49t-44 -117q0 -69 44 -117t112 -48q64 0 108 44v72h-79v115h212v-241q-37 -55 -101 -85.5t-141 -30.5q-131 0 -215.5 84t-84.5 207zM135 609l112 158h133l112 -158h-99l-80 93
l-79 -93h-99z" />
    <glyph glyph-name="Gbreve.small" horiz-adv-x="625" 
d="M323 605q-57 0 -92.5 38.5t-35.5 93.5h71q0 -22 16.5 -37.5t40.5 -15.5q23 0 39.5 15.5t16.5 37.5h72q0 -55 -35.5 -93.5t-92.5 -38.5zM33 281q0 123 84.5 207t215.5 84q105 0 189 -60l-81 -95q-42 30 -107 30q-68 0 -112 -49t-44 -117q0 -69 44 -117t112 -48
q64 0 108 44v72h-79v115h212v-241q-37 -55 -101 -85.5t-141 -30.5q-131 0 -215.5 84t-84.5 207z" />
    <glyph glyph-name="Gdotaccent.small" horiz-adv-x="625" 
d="M33 281q0 123 84.5 207t215.5 84q105 0 189 -60l-81 -95q-42 30 -107 30q-68 0 -112 -49t-44 -117q0 -69 44 -117t112 -48q64 0 108 44v72h-79v115h212v-241q-37 -55 -101 -85.5t-141 -30.5q-131 0 -215.5 84t-84.5 207zM245 684q0 33 23.5 56.5t55.5 23.5
q33 0 56.5 -23.5t23.5 -56.5q0 -32 -23.5 -55.5t-56.5 -23.5q-32 0 -55.5 23.5t-23.5 55.5z" />
    <glyph glyph-name="Gcommaaccent.small" horiz-adv-x="625" 
d="M33 281q0 123 84.5 207t215.5 84q105 0 189 -60l-81 -95q-42 30 -107 30q-68 0 -112 -49t-44 -117q0 -69 44 -117t112 -48q64 0 108 44v72h-79v115h212v-241q-37 -55 -101 -85.5t-141 -30.5q-131 0 -215.5 84t-84.5 207zM266 -235q59 66 59 119q0 26 -19 50l85 30
q24 -26 24 -64q0 -75 -77 -135h-72z" />
    <glyph glyph-name="Hcircumflex.small" horiz-adv-x="609" 
d="M59 0v564h139v-211h213v211h139v-564h-139v234h-213v-234h-139zM136 609l112 158h133l112 -158h-99l-80 93l-79 -93h-99z" />
    <glyph glyph-name="Hbar.small" horiz-adv-x="609" 
d="M59 0v414h-35v86h35v64h139v-64h213v64h139v-64h35v-86h-35v-414h-139v234h-213v-234h-139zM198 353h213v61h-213v-61z" />
    <glyph glyph-name="Igrave.small" horiz-adv-x="257" 
d="M81 609l-111 158h134l94 -158h-117zM59 0v564h139v-564h-139z" />
    <glyph glyph-name="Iacute.small" horiz-adv-x="257" 
d="M59 609l94 158h134l-111 -158h-117zM59 0v564h139v-564h-139z" />
    <glyph glyph-name="Icircumflex.small" horiz-adv-x="257" 
d="M59 0v564h139v-564h-139zM-50 609l112 158h133l112 -158h-99l-80 93l-79 -93h-99z" />
    <glyph glyph-name="Itilde.small" horiz-adv-x="257" 
d="M-38 605q0 60 25 96t65 36q37 0 83 -26.5t55 -26.5q33 0 33 53h71q0 -60 -25 -96t-65 -36q-37 0 -83 26.5t-55 26.5q-33 0 -33 -53h-71zM59 0v564h139v-564h-139z" />
    <glyph glyph-name="Idieresis.small" horiz-adv-x="257" 
d="M59 0v564h139v-564h-139zM-32 669q0 26 19 45t45 19t45 -19t19 -45t-19 -45t-45 -19t-45 19t-19 45zM160 669q0 26 19 45t45 19t45 -19t19 -45t-19 -45t-45 -19t-45 19t-19 45z" />
    <glyph glyph-name="Imacron.small" horiz-adv-x="257" 
d="M10 620v95h236v-95h-236zM59 0v564h139v-564h-139z" />
    <glyph glyph-name="Ibreve.small" horiz-adv-x="257" 
d="M128 605q-57 0 -92.5 38.5t-35.5 93.5h71q0 -22 16.5 -37.5t40.5 -15.5q23 0 39.5 15.5t16.5 37.5h72q0 -55 -35.5 -93.5t-92.5 -38.5zM59 0v564h139v-564h-139z" />
    <glyph glyph-name="Idotaccent.small" horiz-adv-x="257" 
d="M59 0v564h139v-564h-139zM50 684q0 33 23.5 56.5t55.5 23.5q33 0 56.5 -23.5t23.5 -56.5q0 -32 -23.5 -55.5t-56.5 -23.5q-32 0 -55.5 23.5t-23.5 55.5z" />
    <glyph glyph-name="Iogonek.small" horiz-adv-x="257" 
d="M7 -128q0 72 52 133v559h139v-564h-73q-38 -36 -38 -84q0 -26 16 -42t40 -16q13 0 33 8l19 -55q-45 -31 -94 -31q-38 0 -66 24.5t-28 67.5z" />
    <glyph glyph-name="Jcircumflex.small" horiz-adv-x="512" 
d="M16 115l99 77q16 -34 38.5 -52t37 -21t35.5 -3q49 0 73.5 30.5t24.5 82.5v335h138v-321q0 -131 -66 -192t-171 -61q-148 0 -209 125zM207 609l112 158h133l112 -158h-99l-80 93l-79 -93h-99z" />
    <glyph glyph-name="Kcommaaccent.small" horiz-adv-x="596" 
d="M59 0v564h138v-301l70 105l131 196h161l-187 -266l215 -298h-163l-137 199l-90 -120v-79h-138zM190 -235q59 66 59 119q0 26 -19 50l85 30q24 -26 24 -64q0 -75 -77 -135h-72z" />
    <glyph glyph-name="Lacute.small" horiz-adv-x="538" 
d="M57 609l94 158h134l-111 -158h-117zM59 0v564h139v-445h316v-119h-455z" />
    <glyph glyph-name="Lcaron.small" horiz-adv-x="538" 
d="M59 0v564h139v-445h316v-119h-455zM241 360q62 69 62 130q0 25 -20 54l89 33q26 -30 26 -70q0 -81 -81 -147h-76z" />
    <glyph glyph-name="Lcommaaccent.small" horiz-adv-x="538" 
d="M59 0v564h139v-445h316v-119h-455zM225 -235q59 66 59 119q0 26 -19 50l85 30q24 -26 24 -64q0 -75 -77 -135h-72z" />
    <glyph glyph-name="Lslash.small" horiz-adv-x="538" 
d="M59 0v230l-74 -31v105l74 32v228h139v-169l138 60v-105l-138 -60v-171h316v-119h-455z" />
    <glyph glyph-name="Nacute.small" horiz-adv-x="623" 
d="M230 609l94 158h134l-111 -158h-117zM59 0v564h147l116 -180l103 -166v346h139v-564h-149l-104 163l-113 180v-343h-139z" />
    <glyph glyph-name="Ncaron.small" horiz-adv-x="623" 
d="M245 609l-112 158h99l79 -93l80 93h99l-112 -158h-133zM59 0v564h147l116 -180l103 -166v346h139v-564h-149l-104 163l-113 180v-343h-139z" />
    <glyph glyph-name="Ntilde.small" horiz-adv-x="623" 
d="M145 605q0 60 25 96t65 36q37 0 83 -26.5t55 -26.5q33 0 33 53h71q0 -60 -25 -96t-65 -36q-37 0 -83 26.5t-55 26.5q-33 0 -33 -53h-71zM59 0v564h147l116 -180l103 -166v346h139v-564h-149l-104 163l-113 180v-343h-139z" />
    <glyph glyph-name="Ncommaaccent.small" horiz-adv-x="623" 
d="M59 0v564h147l116 -180l103 -166v346h139v-564h-149l-104 163l-113 180v-343h-139zM239 -235q59 66 59 119q0 26 -19 50l85 30q24 -26 24 -64q0 -75 -77 -135h-72z" />
    <glyph glyph-name="Ograve.small" horiz-adv-x="666" 
d="M285 609l-111 158h134l94 -158h-117zM33 282q0 123 84.5 206.5t215.5 83.5t215.5 -83.5t84.5 -206.5t-84.5 -207.5t-215.5 -84.5t-215.5 84.5t-84.5 207.5zM178 282q0 -69 44 -117.5t112 -48.5q66 0 110 48.5t44 117.5q0 68 -44 116.5t-110 48.5q-68 0 -112 -48.5
t-44 -116.5z" />
    <glyph glyph-name="Oacute.small" horiz-adv-x="666" 
d="M263 609l94 158h134l-111 -158h-117zM33 282q0 123 84.5 206.5t215.5 83.5t215.5 -83.5t84.5 -206.5t-84.5 -207.5t-215.5 -84.5t-215.5 84.5t-84.5 207.5zM178 282q0 -69 44 -117.5t112 -48.5q66 0 110 48.5t44 117.5q0 68 -44 116.5t-110 48.5q-68 0 -112 -48.5
t-44 -116.5z" />
    <glyph glyph-name="Ocircumflex.small" horiz-adv-x="666" 
d="M33 282q0 123 84.5 206.5t215.5 83.5t215.5 -83.5t84.5 -206.5t-84.5 -207.5t-215.5 -84.5t-215.5 84.5t-84.5 207.5zM178 282q0 -69 44 -117.5t112 -48.5q66 0 110 48.5t44 117.5q0 68 -44 116.5t-110 48.5q-68 0 -112 -48.5t-44 -116.5zM153 609l112 158h133l112 -158
h-99l-80 93l-79 -93h-99z" />
    <glyph glyph-name="Otilde.small" horiz-adv-x="666" 
d="M166 605q0 60 25 96t65 36q37 0 83 -26.5t55 -26.5q33 0 33 53h71q0 -60 -25 -96t-65 -36q-37 0 -83 26.5t-55 26.5q-33 0 -33 -53h-71zM33 282q0 123 84.5 206.5t215.5 83.5t215.5 -83.5t84.5 -206.5t-84.5 -207.5t-215.5 -84.5t-215.5 84.5t-84.5 207.5zM178 282
q0 -69 44 -117.5t112 -48.5q66 0 110 48.5t44 117.5q0 68 -44 116.5t-110 48.5q-68 0 -112 -48.5t-44 -116.5z" />
    <glyph glyph-name="Odieresis.small" horiz-adv-x="666" 
d="M33 282q0 123 84.5 206.5t215.5 83.5t215.5 -83.5t84.5 -206.5t-84.5 -207.5t-215.5 -84.5t-215.5 84.5t-84.5 207.5zM178 282q0 -69 44 -117.5t112 -48.5q66 0 110 48.5t44 117.5q0 68 -44 116.5t-110 48.5q-68 0 -112 -48.5t-44 -116.5zM172 669q0 26 19 45t45 19
t45 -19t19 -45t-19 -45t-45 -19t-45 19t-19 45zM364 669q0 26 19 45t45 19t45 -19t19 -45t-19 -45t-45 -19t-45 19t-19 45z" />
    <glyph glyph-name="Omacron.small" horiz-adv-x="666" 
d="M215 620v95h236v-95h-236zM33 282q0 123 84.5 206.5t215.5 83.5t215.5 -83.5t84.5 -206.5t-84.5 -207.5t-215.5 -84.5t-215.5 84.5t-84.5 207.5zM178 282q0 -69 44 -117.5t112 -48.5q66 0 110 48.5t44 117.5q0 68 -44 116.5t-110 48.5q-68 0 -112 -48.5t-44 -116.5z" />
    <glyph glyph-name="Obreve.small" horiz-adv-x="666" 
d="M333 605q-57 0 -92.5 38.5t-35.5 93.5h71q0 -22 16.5 -37.5t40.5 -15.5q23 0 39.5 15.5t16.5 37.5h72q0 -55 -35.5 -93.5t-92.5 -38.5zM33 282q0 123 84.5 206.5t215.5 83.5t215.5 -83.5t84.5 -206.5t-84.5 -207.5t-215.5 -84.5t-215.5 84.5t-84.5 207.5zM178 282
q0 -69 44 -117.5t112 -48.5q66 0 110 48.5t44 117.5q0 68 -44 116.5t-110 48.5q-68 0 -112 -48.5t-44 -116.5z" />
    <glyph glyph-name="Ohungarumlaut.small" horiz-adv-x="666" 
d="M33 282q0 123 84.5 206.5t215.5 83.5t215.5 -83.5t84.5 -206.5t-84.5 -207.5t-215.5 -84.5t-215.5 84.5t-84.5 207.5zM178 282q0 -69 44 -117.5t112 -48.5q66 0 110 48.5t44 117.5q0 68 -44 116.5t-110 48.5q-68 0 -112 -48.5t-44 -116.5zM189 609l76 140h133l-117 -140
h-92zM359 609l76 140h133l-117 -140h-92z" />
    <glyph glyph-name="Oslash.small" horiz-adv-x="666" 
d="M160 -64l-49 29l46 77q-59 39 -91.5 102t-32.5 138q0 123 84.5 206.5t215.5 83.5q65 0 126 -24l48 79l49 -29l-47 -78q58 -39 91 -101.5t33 -136.5q0 -123 -84.5 -207.5t-215.5 -84.5q-68 0 -126 25zM178 282q0 -73 49 -124l165 277q-29 12 -58 12q-68 0 -112 -48.5
t-44 -116.5zM274 127q28 -11 60 -11q66 0 110 48.5t44 117.5t-48 122z" />
    <glyph glyph-name="Oslashacute.small" horiz-adv-x="666" 
d="M263 609l94 158h134l-111 -158h-117zM160 -64l-49 29l46 77q-59 39 -91.5 102t-32.5 138q0 123 84.5 206.5t215.5 83.5q65 0 126 -24l48 79l49 -29l-47 -78q58 -39 91 -101.5t33 -136.5q0 -123 -84.5 -207.5t-215.5 -84.5q-68 0 -126 25zM178 282q0 -73 49 -124l165 277
q-29 12 -58 12q-68 0 -112 -48.5t-44 -116.5zM274 127q28 -11 60 -11q66 0 110 48.5t44 117.5t-48 122z" />
    <glyph glyph-name="OE.small" horiz-adv-x="954" 
d="M33 282q0 123 84.5 206.5t215.5 83.5q82 0 148 -48v40h437v-119h-297v-94h276v-118h-276v-114h309v-119h-449v39q-67 -49 -148 -49q-131 0 -215.5 84.5t-84.5 207.5zM178 282q0 -69 47 -117.5t120 -48.5q93 0 136 64v200q-44 67 -136 67q-73 0 -120 -48.5t-47 -116.5z
" />
    <glyph glyph-name="Racute.small" horiz-adv-x="601" 
d="M189 609l94 158h134l-111 -158h-117zM59 0v564h243q126 0 191.5 -62t65.5 -158q0 -116 -99 -178l112 -166h-169l-77 126q-32 -1 -75 -1h-53v-125h-139zM198 243h110q47 0 76.5 29t29.5 72t-29.5 72t-75.5 29h-111v-202z" />
    <glyph glyph-name="Rcaron.small" horiz-adv-x="601" 
d="M214 609l-112 158h99l79 -93l80 93h99l-112 -158h-133zM59 0v564h243q126 0 191.5 -62t65.5 -158q0 -116 -99 -178l112 -166h-169l-77 126q-32 -1 -75 -1h-53v-125h-139zM198 243h110q47 0 76.5 29t29.5 72t-29.5 72t-75.5 29h-111v-202z" />
    <glyph glyph-name="Rcommaaccent.small" horiz-adv-x="601" 
d="M59 0v564h243q126 0 191.5 -62t65.5 -158q0 -116 -99 -178l112 -166h-169l-77 126q-32 -1 -75 -1h-53v-125h-139zM198 243h110q47 0 76.5 29t29.5 72t-29.5 72t-75.5 29h-111v-202zM199 -235q59 66 59 119q0 26 -19 50l85 30q24 -26 24 -64q0 -75 -77 -135h-72z" />
    <glyph glyph-name="Sacute.small" horiz-adv-x="534" 
d="M196 609l94 158h134l-111 -158h-117zM28 59l57 110q75 -56 175 -56q44 0 71.5 16t27.5 40q0 23 -31.5 38t-76.5 26.5t-90 28t-76.5 53.5t-31.5 91q0 80 63 123t151 43q121 0 216 -62l-52 -106q-78 45 -164 45q-30 0 -51 -11.5t-21 -27.5q0 -21 31.5 -35.5t76.5 -27.5
t90 -31t76.5 -55.5t31.5 -91.5q0 -61 -36.5 -103t-87.5 -59t-111 -17q-152 0 -238 69z" />
    <glyph glyph-name="Scircumflex.small" horiz-adv-x="534" 
d="M28 59l57 110q75 -56 175 -56q44 0 71.5 16t27.5 40q0 23 -31.5 38t-76.5 26.5t-90 28t-76.5 53.5t-31.5 91q0 80 63 123t151 43q121 0 216 -62l-52 -106q-78 45 -164 45q-30 0 -51 -11.5t-21 -27.5q0 -21 31.5 -35.5t76.5 -27.5t90 -31t76.5 -55.5t31.5 -91.5
q0 -61 -36.5 -103t-87.5 -59t-111 -17q-152 0 -238 69zM89 609l112 158h133l112 -158h-99l-80 93l-79 -93h-99z" />
    <glyph glyph-name="Scaron.small" horiz-adv-x="534" 
d="M201 609l-112 158h99l79 -93l80 93h99l-112 -158h-133zM28 59l57 110q75 -56 175 -56q44 0 71.5 16t27.5 40q0 23 -31.5 38t-76.5 26.5t-90 28t-76.5 53.5t-31.5 91q0 80 63 123t151 43q121 0 216 -62l-52 -106q-78 45 -164 45q-30 0 -51 -11.5t-21 -27.5
q0 -21 31.5 -35.5t76.5 -27.5t90 -31t76.5 -55.5t31.5 -91.5q0 -61 -36.5 -103t-87.5 -59t-111 -17q-152 0 -238 69z" />
    <glyph glyph-name="Scedilla.small" horiz-adv-x="534" 
d="M146 -189l31 52q44 -23 80 -23q24 0 39.5 13.5t15.5 29.5q0 12 -9 18.5t-22 6.5q-27 0 -38 -27l-66 21l53 89q-128 8 -202 68l57 110q75 -56 175 -56q44 0 71.5 16t27.5 40q0 23 -31.5 38t-76.5 26.5t-90 28t-76.5 53.5t-31.5 91q0 80 63 123t151 43q121 0 216 -62
l-52 -106q-78 45 -164 45q-30 0 -51 -11.5t-21 -27.5q0 -21 31.5 -35.5t76.5 -27.5t90 -31t76.5 -55.5t31.5 -91.5q0 -78 -55.5 -122.5t-137.5 -53.5l-21 -37q18 3 20 3q40 0 63 -22t23 -53q0 -41 -35.5 -72t-98.5 -31q-71 0 -113 30z" />
    <glyph glyph-name="Scommaaccent.small" horiz-adv-x="534" 
d="M28 59l57 110q75 -56 175 -56q44 0 71.5 16t27.5 40q0 23 -31.5 38t-76.5 26.5t-90 28t-76.5 53.5t-31.5 91q0 80 63 123t151 43q121 0 216 -62l-52 -106q-78 45 -164 45q-30 0 -51 -11.5t-21 -27.5q0 -21 31.5 -35.5t76.5 -27.5t90 -31t76.5 -55.5t31.5 -91.5
q0 -61 -36.5 -103t-87.5 -59t-111 -17q-152 0 -238 69zM184 -235q59 66 59 119q0 26 -19 50l85 30q24 -26 24 -64q0 -75 -77 -135h-72z" />
    <glyph glyph-name="germandbls.small" horiz-adv-x="501" 
d="M50 0v377q0 96 47.5 145.5t127.5 49.5q75 0 128 -47.5t53 -114.5q0 -70 -47 -119q50 -14 81 -52.5t31 -92.5q0 -74 -47.5 -115t-120.5 -41q-43 0 -86 19l37 119q14 -8 31 -8q23 0 36.5 13.5t13.5 34.5q0 58 -100 58h-14v99h10q45 0 45 61q0 24 -12.5 40.5t-33.5 16.5
t-33.5 -17.5t-12.5 -41.5v-384h-134z" />
    <glyph glyph-name="Tcaron.small" horiz-adv-x="547" 
d="M206 609l-112 158h99l79 -93l80 93h99l-112 -158h-133zM530 564v-119h-188v-445h-139v445h-186v119h513z" />
    <glyph glyph-name="Tcommaaccent.small" horiz-adv-x="547" 
d="M530 564v-119h-188v-445h-139v445h-186v119h513zM188 -235q59 66 59 119q0 26 -19 50l85 30q24 -26 24 -64q0 -75 -77 -135h-72z" />
    <glyph glyph-name="Tbar.small" horiz-adv-x="547" 
d="M530 564v-119h-188v-78h120v-86h-120v-281h-139v281h-118v86h118v78h-186v119h513z" />
    <glyph glyph-name="Ugrave.small" horiz-adv-x="590" 
d="M247 609l-111 158h134l94 -158h-117zM295 -10q-104 0 -174.5 64.5t-70.5 167.5v342h137v-335q0 -49 31.5 -81t76.5 -32t76 32t31 81v335h138v-342q0 -103 -71 -167.5t-174 -64.5z" />
    <glyph glyph-name="Uacute.small" horiz-adv-x="590" 
d="M239 609l94 158h134l-111 -158h-117zM295 -10q-104 0 -174.5 64.5t-70.5 167.5v342h137v-335q0 -49 31.5 -81t76.5 -32t76 32t31 81v335h138v-342q0 -103 -71 -167.5t-174 -64.5z" />
    <glyph glyph-name="Ucircumflex.small" horiz-adv-x="590" 
d="M295 -10q-104 0 -174.5 64.5t-70.5 167.5v342h137v-335q0 -49 31.5 -81t76.5 -32t76 32t31 81v335h138v-342q0 -103 -71 -167.5t-174 -64.5zM118 609l112 158h133l112 -158h-99l-80 93l-79 -93h-99z" />
    <glyph glyph-name="Utilde.small" horiz-adv-x="590" 
d="M130 605q0 60 25 96t65 36q37 0 83 -26.5t55 -26.5q33 0 33 53h71q0 -60 -25 -96t-65 -36q-37 0 -83 26.5t-55 26.5q-33 0 -33 -53h-71zM295 -10q-104 0 -174.5 64.5t-70.5 167.5v342h137v-335q0 -49 31.5 -81t76.5 -32t76 32t31 81v335h138v-342q0 -103 -71 -167.5
t-174 -64.5z" />
    <glyph glyph-name="Udieresis.small" horiz-adv-x="590" 
d="M295 -10q-104 0 -174.5 64.5t-70.5 167.5v342h137v-335q0 -49 31.5 -81t76.5 -32t76 32t31 81v335h138v-342q0 -103 -71 -167.5t-174 -64.5zM135 669q0 26 19 45t45 19t45 -19t19 -45t-19 -45t-45 -19t-45 19t-19 45zM327 669q0 26 19 45t45 19t45 -19t19 -45t-19 -45
t-45 -19t-45 19t-19 45z" />
    <glyph glyph-name="Umacron.small" horiz-adv-x="590" 
d="M178 620v95h236v-95h-236zM295 -10q-104 0 -174.5 64.5t-70.5 167.5v342h137v-335q0 -49 31.5 -81t76.5 -32t76 32t31 81v335h138v-342q0 -103 -71 -167.5t-174 -64.5z" />
    <glyph glyph-name="Ubreve.small" horiz-adv-x="590" 
d="M296 605q-57 0 -92.5 38.5t-35.5 93.5h71q0 -22 16.5 -37.5t40.5 -15.5q23 0 39.5 15.5t16.5 37.5h72q0 -55 -35.5 -93.5t-92.5 -38.5zM295 -10q-104 0 -174.5 64.5t-70.5 167.5v342h137v-335q0 -49 31.5 -81t76.5 -32t76 32t31 81v335h138v-342q0 -103 -71 -167.5
t-174 -64.5z" />
    <glyph glyph-name="Uring.small" horiz-adv-x="590" 
d="M189 699q0 45 32 77t77 32t77 -32t32 -77t-32 -77t-77 -32t-77 32t-32 77zM252 699q0 -20 13.5 -35t32.5 -15t33 15t14 35t-14 35t-33 15t-32.5 -15t-13.5 -35zM295 -10q-104 0 -174.5 64.5t-70.5 167.5v342h137v-335q0 -49 31.5 -81t76.5 -32t76 32t31 81v335h138v-342
q0 -103 -71 -167.5t-174 -64.5z" />
    <glyph glyph-name="Uhungarumlaut.small" horiz-adv-x="590" 
d="M295 -10q-104 0 -174.5 64.5t-70.5 167.5v342h137v-335q0 -49 31.5 -81t76.5 -32t76 32t31 81v335h138v-342q0 -103 -71 -167.5t-174 -64.5zM143 609l76 140h133l-117 -140h-92zM313 609l76 140h133l-117 -140h-92z" />
    <glyph glyph-name="Uogonek.small" horiz-adv-x="590" 
d="M295 -10q-104 0 -174.5 64.5t-70.5 167.5v342h137v-335q0 -49 31.5 -81t76.5 -32t76 32t31 81v335h138v-342q0 -79 -44 -137t-115 -82q-17 -15 -29.5 -40t-12.5 -47q0 -26 16 -42t40 -16q13 0 33 8l19 -55q-45 -31 -94 -31q-38 0 -66 24.5t-28 67.5q0 63 40 118h-4z" />
    <glyph glyph-name="Wgrave.small" horiz-adv-x="825" 
d="M382 609l-111 158h134l94 -158h-117zM177 0l-168 564h138l76 -274l34 -116q16 56 27 116l52 274h152l53 -274l27 -116l34 117l77 273h137l-168 -564h-156l-54 248l-26 141q-12 -82 -25 -141l-55 -248h-155z" />
    <glyph glyph-name="Wacute.small" horiz-adv-x="825" 
d="M319 609l94 158h134l-111 -158h-117zM177 0l-168 564h138l76 -274l34 -116q16 56 27 116l52 274h152l53 -274l27 -116l34 117l77 273h137l-168 -564h-156l-54 248l-26 141q-12 -82 -25 -141l-55 -248h-155z" />
    <glyph glyph-name="Wcircumflex.small" horiz-adv-x="825" 
d="M177 0l-168 564h138l76 -274l34 -116q16 56 27 116l52 274h152l53 -274l27 -116l34 117l77 273h137l-168 -564h-156l-54 248l-26 141q-12 -82 -25 -141l-55 -248h-155zM234 609l112 158h133l112 -158h-99l-80 93l-79 -93h-99z" />
    <glyph glyph-name="Wdieresis.small" horiz-adv-x="825" 
d="M177 0l-168 564h138l76 -274l34 -116q16 56 27 116l52 274h152l53 -274l27 -116l34 117l77 273h137l-168 -564h-156l-54 248l-26 141q-12 -82 -25 -141l-55 -248h-155zM251 669q0 26 19 45t45 19t45 -19t19 -45t-19 -45t-45 -19t-45 19t-19 45zM443 669q0 26 19 45t45 19
t45 -19t19 -45t-19 -45t-45 -19t-45 19t-19 45z" />
    <glyph glyph-name="Ygrave.small" horiz-adv-x="569" 
d="M241 609l-111 158h134l94 -158h-117zM216 0v251l-207 313h156l48 -77l72 -115q58 88 74 115l45 77h156l-205 -311v-253h-139z" />
    <glyph glyph-name="Yacute.small" horiz-adv-x="569" 
d="M212 609l94 158h134l-111 -158h-117zM216 0v251l-207 313h156l48 -77l72 -115q58 88 74 115l45 77h156l-205 -311v-253h-139z" />
    <glyph glyph-name="Ycircumflex.small" horiz-adv-x="569" 
d="M216 0v251l-207 313h156l48 -77l72 -115q58 88 74 115l45 77h156l-205 -311v-253h-139zM107 609l112 158h133l112 -158h-99l-80 93l-79 -93h-99z" />
    <glyph glyph-name="Ydieresis.small" horiz-adv-x="569" 
d="M216 0v251l-207 313h156l48 -77l72 -115q58 88 74 115l45 77h156l-205 -311v-253h-139zM124 669q0 26 19 45t45 19t45 -19t19 -45t-19 -45t-45 -19t-45 19t-19 45zM316 669q0 26 19 45t45 19t45 -19t19 -45t-19 -45t-45 -19t-45 19t-19 45z" />
    <glyph glyph-name="Zacute.small" horiz-adv-x="523" 
d="M178 609l94 158h134l-111 -158h-117zM24 0v102l224 269q18 22 35.5 40.5t26.5 26.5l8 7h-280v119h454v-103l-210 -250l-83 -92h300v-119h-475z" />
    <glyph glyph-name="Zcaron.small" horiz-adv-x="523" 
d="M195 609l-112 158h99l79 -93l80 93h99l-112 -158h-133zM24 0v102l224 269q18 22 35.5 40.5t26.5 26.5l8 7h-280v119h454v-103l-210 -250l-83 -92h300v-119h-475z" />
    <glyph glyph-name="Zdotaccent.small" horiz-adv-x="523" 
d="M24 0v102l224 269q18 22 35.5 40.5t26.5 26.5l8 7h-280v119h454v-103l-210 -250l-83 -92h300v-119h-475zM182 684q0 33 23.5 56.5t55.5 23.5q33 0 56.5 -23.5t23.5 -56.5q0 -32 -23.5 -55.5t-56.5 -23.5q-32 0 -55.5 23.5t-23.5 55.5z" />
    <glyph glyph-name="Eng.small" horiz-adv-x="623" 
d="M59 0v564h147l116 -180l103 -166v346h139v-553q0 -67 -53.5 -123t-142.5 -76l-31 105q70 24 77 84l-103 162l-113 180v-343h-139z" />
    <glyph glyph-name="Eth.small" horiz-adv-x="625" 
d="M59 0v242h-66v97h66v225h228q139 0 222 -81t83 -201t-83 -201t-222 -81h-228zM198 119h84q76 0 120.5 45.5t44.5 117.5t-44.5 117.5t-120.5 45.5h-84v-106h90v-97h-90v-123z" />
    <glyph glyph-name="Thorn.small" horiz-adv-x="519" 
d="M59 0v564h139v-76h93q85 0 145.5 -59t60.5 -142t-60.5 -142t-145.5 -59h-93v-86h-139zM198 203h76q32 0 55 24.5t23 59.5t-23 59.5t-55 24.5h-76v-168z" />
    <glyph glyph-name="cent.oldstyle" horiz-adv-x="560" 
d="M389 353q-34 26 -73 26q-40 0 -70.5 -27.5t-30.5 -72.5q0 -47 31.5 -73.5t75.5 -26.5q45 0 84 29l74 -109q-50 -36 -113 -45v-98h-96v97q-81 16 -136 78t-55 148t55.5 147t135.5 76v95h96v-95q61 -13 105 -47z" />
    <glyph glyph-name="sterling.oldstyle" horiz-adv-x="560" 
d="M79 0v107h57v129h-56v87h56v57q0 94 52.5 143t133.5 49q95 0 152 -49l-71 -94q-41 26 -78 26q-56 0 -56 -67v-65h129v-87h-129v-120h211v-116h-401z" />
    <glyph glyph-name="florin.oldstyle" horiz-adv-x="560" 
d="M-1 -42l68 81q18 -26 43 -26q37 0 47 36l61 236h-52l24 87h52l22 87q29 113 126 113q54 0 118 -37l-34 -94q-15 15 -38 15q-37 0 -46 -49l-9 -35h93l-25 -87h-91l-63 -242q-22 -85 -67 -116.5t-108 -31.5q-47 0 -78.5 22t-42.5 41z" />
    <glyph glyph-name="yen.oldstyle" horiz-adv-x="560" 
d="M213 0v87h-92v76h92v36h-92v76h92v4l-170 285h156l51 -104l30 -77q18 54 29 77l51 104h156l-170 -285v-4h92v-76h-92v-36h92v-76h-92v-87h-133z" />
    <glyph glyph-name="Euro.oldstyle" horiz-adv-x="560" 
d="M61 187l20 76h38q-1 12 -1 21q0 14 1 21h-48l21 76h37q26 90 86.5 140.5t142.5 50.5q104 0 170 -76l-77 -80q-32 38 -84 38q-70 0 -98 -73h195l-20 -76h-191q-1 -14 -1 -21l1 -21h182l-21 -76h-146q29 -78 97 -78q55 0 92 49l86 -72q-69 -96 -185 -96q-83 0 -144.5 53.5
t-84.5 143.5h-68z" />
    <glyph glyph-name="dollar.oldstyle" horiz-adv-x="560" 
d="M73 78l44 104q69 -55 162 -55q29 0 50.5 15.5t21.5 34.5q0 17 -19.5 30.5t-49 21t-63.5 20.5t-63.5 28.5t-49 46t-19.5 71.5q0 61 41 99.5t106 49.5v103h96v-103q73 -9 136 -48l-45 -104q-78 46 -136 46q-27 0 -45 -11.5t-18 -27.5q0 -21 27 -35t66 -25.5t78 -27
t66 -49.5t27 -85q0 -67 -44.5 -108t-111.5 -53v-113h-96v110q-97 10 -161 65z" />
    </font>
</defs>
</svg>
